<?xml version="1.0" encoding="utf-8"?>
<!-- Generator: Adobe Illustrator 21.1.0, SVG Export Plug-In . SVG Version: 6.00 Build 0)  -->
<svg version="1.1" id="Layer_1" xmlns:sketch="http://www.bohemiancoding.com/sketch/ns"
	 xmlns="http://www.w3.org/2000/svg" xmlns:xlink="http://www.w3.org/1999/xlink" x="0px" y="0px" width="113px" height="106px"
	 viewBox="0 0 113 106" style="enable-background:new 0 0 113 106;" xml:space="preserve">
<style type="text/css">
	.st0{fill:#FFDD00;}
	.st1{fill:#9A002B;}
</style>
<title>sunlight park</title>
<desc>Created with Sketch.</desc>
<g id="Page-1" sketch:type="MSPage">
</g>
<g>
	<polygon class="st0" points="56.3,105.1 0,54.1 0,-0.9 112.7,-0.9 112.7,54.1 56.3,105.1 	"/>
	<path class="st1" d="M56.3,23.2c10.4,0,19.9,5.6,24.9,14.6c0.6-0.6,1.1-1.2,1.5-1.8c-1.1-1.9-2.4-3.6-3.9-5.2l6.1-6.1
		c0.4-0.4,0.4-1.2,0-1.6c-0.4-0.4-1.2-0.4-1.6,0l-6.1,6.1c-2.4-2.2-5.2-4.1-8.2-5.4l3.3-8c0.2-0.6,0-1.2-0.6-1.5
		c-0.6-0.2-1.2,0-1.5,0.6l-3.3,8c-3-1.1-6.3-1.8-9.6-1.9v-8.7c0-0.6-0.5-1.1-1.1-1.1c-0.6,0-1.1,0.5-1.1,1.1V21
		c-3.3,0.1-6.6,0.8-9.6,1.9l-3.3-8.1c-0.2-0.6-0.9-0.8-1.5-0.6c-0.6,0.2-0.8,0.9-0.6,1.5l3.3,8.1c-3,1.4-5.7,3.2-8.1,5.5l-6.2-6.2
		c-0.4-0.4-1.2-0.4-1.6,0c-0.4,0.4-0.4,1.2,0,1.6l6.2,6.2c-1.4,1.5-2.7,3.2-3.8,5.1c0.4,0.6,0.9,1.3,1.5,1.8
		C36.5,28.9,46,23.2,56.3,23.2L56.3,23.2z"/>
	<path class="st1" d="M84.5,39.3c-0.2-0.4-0.4-0.8-0.6-1.3c-3.7,4.7-10.4,8.5-18.2,10.2v-2.4v-2.7L69,42l-3.3-1.2v-0.4
		c0-0.6-0.5-1.1-1.1-1.1c-0.3,0-0.6,0.1-0.8,0.3c-0.2,0.1-0.3,0.3-0.3,0.5v6.2v2.3c-1.9,0.3-3.8,0.5-5.8,0.6V47v-5.5l3.4-1.2
		l-3.4-1.2v-0.4c0-0.6-0.5-1.1-1.1-1.1c0,0-0.1,0-0.1,0c0,0,0,0,0,0c-0.2,0-0.3,0.1-0.4,0.2c-0.3,0.2-0.5,0.5-0.5,0.9V47v2.3
		c-2.1,0-4.2-0.2-6.2-0.6v-2.3v-3.2l3.3-1.2l-3.3-1.2v-0.4c0-0.6-0.5-1.1-1.1-1.1c-0.6,0-1.1,0.5-1.1,1.1v5.5v2.4
		c-7.8-1.7-14.4-5.5-18.1-10.2c-0.2,0.4-0.4,0.8-0.6,1.3c0,0,0,0,0,0c-1.7,3.9-2.6,8-2.6,12.3c0,3.5,1.7,6.8,4.7,9.7
		c0.3,0.3,0.8,0.4,1.2,0.2c0.4-0.2,0.7-0.6,0.7-1v-4.9c0-0.9,0.8-1.7,1.7-1.7c0.9,0,1.7,0.8,1.7,1.7v8.7c0,0.4,0.2,0.8,0.6,1
		c1.8,0.9,3.7,1.7,5.8,2.4c0.3,0.1,0.7,0,1-0.2c0.3-0.2,0.5-0.5,0.5-0.9v-5.3c0-0.9,0.8-1.7,1.7-1.7c0.9,0,1.7,0.8,1.7,1.7V68
		c0,0.5,0.4,1,0.9,1.1c1.9,0.3,3.8,0.5,5.8,0.6c0.3,0,0.6-0.1,0.8-0.3c0.2-0.2,0.4-0.5,0.4-0.8v-7.2c0-0.9,0.8-1.7,1.7-1.7
		c0.9,0,1.7,0.8,1.7,1.7v7.2c0,0.3,0.1,0.6,0.4,0.8c0.2,0.2,0.5,0.3,0.8,0.3c0,0,0,0,0.1,0c2-0.1,3.9-0.3,5.8-0.6
		c0.5-0.1,0.9-0.6,0.9-1.1v-6.6c0-0.9,0.8-1.7,1.7-1.7c0.9,0,1.7,0.8,1.7,1.7v5.3c0,0.4,0.2,0.7,0.5,0.9c0.3,0.2,0.7,0.3,1,0.2
		c2.1-0.6,4-1.4,5.8-2.4c0.4-0.2,0.6-0.6,0.6-1v-8.7c0-0.9,0.8-1.7,1.7-1.7c0.9,0,1.7,0.8,1.7,1.7v4.9c0,0.5,0.3,0.9,0.7,1
		c0.4,0.2,0.9,0.1,1.2-0.2c3-2.9,4.7-6.2,4.7-9.7C87.1,47.3,86.2,43.2,84.5,39.3C84.5,39.3,84.5,39.3,84.5,39.3L84.5,39.3z"/>
</g>
</svg>
