<?xml version="1.0" encoding="utf-8"?>
<!-- Generator: Adobe Illustrator 21.1.0, SVG Export Plug-In . SVG Version: 6.00 Build 0)  -->
<svg version="1.1" id="Layer_1" xmlns:sketch="http://www.bohemiancoding.com/sketch/ns"
	 xmlns="http://www.w3.org/2000/svg" xmlns:xlink="http://www.w3.org/1999/xlink" x="0px" y="0px" width="113px" height="106px"
	 viewBox="0 0 113 106" style="enable-background:new 0 0 113 106;" xml:space="preserve">
<style type="text/css">
	.st0{fill:#00783E;}
	.st1{fill:#00994B;}
	.st2{fill:#F3E4B2;}
</style>
<g>
	<polygon class="st0" points="1,53.7 1,1 112,1 112,37.3 112,53.5 56.1,104.6 1,53.7 	"/>
	<path class="st1" d="M113,0H0v54.2l56,51.8L113,53.9l0-16.6V0L113,0L113,0z M111,2v35.3l0,15.7l-54.9,50.2L2,53.3V2H111"/>
	<path class="st2" d="M23,48.3c2.5,5.3,7.1,8.7,7.1,8.7s0.8-1.2,1.6-3.1c2,3.9,5.3,6.3,5.3,6.3s1.2-1.9,2-4.7
		c6.1,3.6,12.4,4.3,12.4,4.3s0.3-6.2-2.2-12.8c2.7-0.4,4.7-1.2,4.7-1.2s-1.9-3.7-5.4-6.3c2-0.5,3.4-1,3.4-1s-2.6-5.1-7.4-8.4
		c1.8-0.9,2.9-1.8,2.9-1.8s-5.1-5.6-11.9-6.1c-4.7-0.4-8.9,1.7-11.1,3l-1.3-1.5c-0.4-0.5-1.2-0.6-1.7-0.1l-0.9,0.7
		c-0.5,0.4-0.6,1.2-0.1,1.7l1.3,1.5c0,0,0,0,0,0c-1.7,1.9-4.6,5.8-5,10.7c-0.6,6.8,4.1,12.7,4.1,12.7S21.8,49.9,23,48.3L23,48.3z"/>
	<path class="st0" d="M32,25.7c0,3.4-0.2,6.9-0.6,10.3l0,0.5l-0.5,0c-3.4-0.2-6.8-0.5-10.2-1.1c3.4-0.2,6.9-0.1,10.3,0.1l-0.5,0.4
		C30.8,32.5,31.3,29.1,32,25.7L32,25.7z"/>
	<path class="st0" d="M38.6,34.6c0.4,3.5,0.5,6.9,0.6,10.4l0,0.6l-0.6-0.1c-3.4-0.6-6.8-1.3-10.2-2.3c3.5,0.2,6.9,0.7,10.3,1.3
		L38.2,45C38.2,41.6,38.2,38.1,38.6,34.6L38.6,34.6z"/>
	<path class="st0" d="M45.7,43c0.4,3.5,0.5,6.9,0.6,10.4l0,0.6l-0.6-0.1c-3.4-0.6-6.8-1.3-10.2-2.3c3.5,0.2,6.9,0.7,10.3,1.3
		l-0.6,0.5C45.2,49.9,45.3,46.4,45.7,43L45.7,43z"/>
	<path class="st0" d="M43.4,28.9c-0.7,0.8-1.5,1.5-2.3,2.2c-0.8,0.7-1.7,1.3-2.5,1.9l-0.3,0.2L38,33c-1.7-1.1-3.3-2.2-4.8-3.6
		c1.9,0.7,3.6,1.7,5.3,2.8l-0.6,0c0.9-0.6,1.7-1.2,2.6-1.8C41.5,29.8,42.4,29.3,43.4,28.9L43.4,28.9z"/>
	<path class="st0" d="M22,47c0.6-0.9,1.3-1.7,2-2.5c0.7-0.8,1.4-1.6,2.2-2.3L26,42.7c-0.8-1.8-1.4-3.7-1.9-5.7
		c1.1,1.7,2,3.5,2.8,5.3l0.1,0.3l-0.2,0.2c-0.7,0.7-1.5,1.5-2.3,2.2C23.7,45.7,22.9,46.4,22,47L22,47z"/>
	<polygon class="st0" points="47.4,38.2 43.7,40.8 43.4,41 43.2,40.7 40.1,37.5 43.8,40 43.3,39.9 47.4,38.2 	"/>
	<polygon class="st0" points="30.5,52.5 32.9,48.7 32.8,49.2 31,45.2 33.7,48.7 33.9,49 33.7,49.3 30.5,52.5 	"/>
	<path class="st2" d="M65.3,50.3c-3.9-4.4-5.3-9.9-5.3-9.9s1.4-0.2,3.5-0.2c-2.8-3.4-3.8-7.4-3.8-7.4s2.2-0.4,5.1,0
		c-0.9-7.1,0.8-13.1,0.8-13.1s5.8,2.1,11,6.9c1.4-2.4,2.9-3.8,2.9-3.8s2.7,3.1,3.7,7.4c1.2-1.7,2.2-2.7,2.2-2.7s3.7,4.3,4.9,10.1
		c1.6-1.3,2.8-2,2.8-2s3.2,6.8,1.1,13.3c-1.5,4.5-5,7.6-7.1,9.1l0.9,1.8c0.3,0.6,0.1,1.3-0.5,1.6l-1,0.5c-0.6,0.3-1.3,0.1-1.6-0.5
		L84,59.6c0,0,0,0,0,0c-2.4,0.8-7.2,2-11.8,0.5c-6.5-2.1-10.1-8.7-10.1-8.7S63.3,50.8,65.3,50.3L65.3,50.3z"/>
	<path class="st0" d="M89.6,50.7c-3.4-0.6-6.7-1.5-10-2.5l0.6-0.3c-1.1,3.2-2.4,6.4-3.9,9.5c0.8-3.4,1.8-6.6,2.9-9.9l0.2-0.5
		l0.5,0.1C83.2,48.2,86.4,49.3,89.6,50.7L89.6,50.7z"/>
	<path class="st0" d="M83.9,41.2c-3.3-1-6.6-2.3-9.8-3.6l0.7-0.3c-0.8,3.4-1.6,6.7-2.8,10c0.4-3.5,1.1-6.9,1.8-10.3l0.1-0.6l0.6,0.2
		C77.7,38,80.9,39.4,83.9,41.2L83.9,41.2z"/>
	<path class="st0" d="M79,31.4c-3.3-1-6.6-2.3-9.8-3.6l0.7-0.3c-0.8,3.4-1.6,6.7-2.8,10c0.4-3.5,1.1-6.9,1.8-10.3l0.1-0.6l0.6,0.2
		C72.8,28.3,75.9,29.7,79,31.4L79,31.4z"/>
	<path class="st0" d="M91.1,39c-0.8,0.7-1.6,1.4-2.5,2c-0.9,0.6-1.7,1.2-2.6,1.7l0.2-0.5c0.3,2,0.6,3.9,0.5,6
		c-0.7-1.9-1.1-3.8-1.5-5.8l-0.1-0.3l0.3-0.2c0.9-0.6,1.8-1.1,2.8-1.6C89.1,39.8,90.1,39.4,91.1,39L91.1,39z"/>
	<path class="st0" d="M66.1,51.7c0.9-0.6,1.8-1.1,2.8-1.6c0.9-0.5,1.9-0.9,2.9-1.3l0.3-0.1l0.2,0.2c1.4,1.4,2.7,2.9,3.8,4.6
		c-1.7-1.2-3.1-2.5-4.5-3.9l0.5,0.1c-1,0.4-2,0.8-3,1.1C68.1,51.2,67.1,51.5,66.1,51.7L66.1,51.7z"/>
	<polygon class="st0" points="84,31.7 80.9,34.8 81,34.3 81.9,38.7 80.1,34.6 79.9,34.3 80.2,34.1 84,31.7 	"/>
	<polygon class="st0" points="64.3,41.7 68.5,40 68.8,39.9 69,40.2 71.3,44.1 68.2,40.8 68.7,41 64.3,41.7 	"/>
</g>
</svg>
