<?xml version="1.0" encoding="utf-8"?>
<!-- Generator: Adobe Illustrator 16.0.0, SVG Export Plug-In . SVG Version: 6.00 Build 0)  -->
<!DOCTYPE svg PUBLIC "-//W3C//DTD SVG 1.0//EN" "http://www.w3.org/TR/2001/REC-SVG-20010904/DTD/svg10.dtd">
<svg version="1.0" id="Layer_1" xmlns="http://www.w3.org/2000/svg" xmlns:xlink="http://www.w3.org/1999/xlink" x="0px" y="0px"
	 width="125.738px" height="116.301px" viewBox="0 0 125.738 116.301" enable-background="new 0 0 125.738 116.301"
	 xml:space="preserve">
<polygon fill="#981E32" points="1.619,1.378 124.435,1.378 124.399,58.761 62.535,114.163 1.619,59.027 "/>
<g>
	<defs>
		<rect id="SVGID_1_" width="125.738" height="116.301"/>
	</defs>
	<clipPath id="SVGID_2_">
		<use xlink:href="#SVGID_1_"  overflow="visible"/>
	</clipPath>
	<polygon clip-path="url(#SVGID_2_)" fill="none" stroke="#FDF7E7" stroke-width="2.899" stroke-miterlimit="10" points="
		1.619,1.378 124.435,1.378 124.399,58.761 62.535,114.163 1.619,59.027 	"/>
	<path clip-path="url(#SVGID_2_)" fill="#FDF7E7" d="M72.007,37.175c6.574,5.361,7.558,15.037,2.197,21.611
		c-5.361,6.574-15.037,7.559-21.611,2.197c-6.574-5.361-7.558-15.037-2.197-21.611C55.757,32.798,65.433,31.814,72.007,37.175"/>
	<path clip-path="url(#SVGID_2_)" fill="#981E32" d="M43.952,33.365c0.024,1.501-1.174,2.738-2.675,2.761
		c-1.501,0.024-2.737-1.173-2.761-2.674c-0.024-1.502,1.173-2.738,2.675-2.762C42.692,30.666,43.928,31.864,43.952,33.365"/>
	
		<circle clip-path="url(#SVGID_2_)" fill="none" stroke="#FDF7E7" stroke-width="0.6" stroke-miterlimit="10" cx="41.234" cy="33.409" r="2.718"/>
	<path clip-path="url(#SVGID_2_)" fill="#981E32" d="M38.927,49.167c0.024,1.501-1.174,2.738-2.675,2.761
		c-1.501,0.024-2.737-1.173-2.761-2.674c-0.024-1.502,1.173-2.738,2.675-2.762C37.667,46.468,38.903,47.667,38.927,49.167"/>
	
		<circle clip-path="url(#SVGID_2_)" fill="none" stroke="#FDF7E7" stroke-width="0.6" stroke-miterlimit="10" cx="36.209" cy="49.211" r="2.718"/>
	<path clip-path="url(#SVGID_2_)" fill="#981E32" d="M43.816,64.502c0.024,1.501-1.174,2.738-2.675,2.761
		c-1.501,0.024-2.737-1.173-2.761-2.674c-0.024-1.502,1.173-2.737,2.675-2.762C42.557,61.803,43.792,63.001,43.816,64.502"/>
	
		<circle clip-path="url(#SVGID_2_)" fill="none" stroke="#FDF7E7" stroke-width="0.6" stroke-miterlimit="10" cx="41.098" cy="64.545" r="2.718"/>
	<path clip-path="url(#SVGID_2_)" fill="#981E32" d="M56.668,74.56c0.024,1.501-1.174,2.738-2.675,2.761
		c-1.501,0.024-2.737-1.173-2.761-2.674c-0.024-1.502,1.173-2.738,2.675-2.762C55.408,71.86,56.644,73.059,56.668,74.56"/>
	
		<circle clip-path="url(#SVGID_2_)" fill="none" stroke="#FDF7E7" stroke-width="0.6" stroke-miterlimit="10" cx="53.95" cy="74.603" r="2.718"/>
	<path clip-path="url(#SVGID_2_)" fill="#981E32" d="M73.409,74.686c0.023,1.501-1.175,2.738-2.676,2.761
		c-1.501,0.024-2.736-1.173-2.761-2.674c-0.023-1.502,1.173-2.738,2.675-2.762C72.148,71.986,73.385,73.185,73.409,74.686"/>
	
		<circle clip-path="url(#SVGID_2_)" fill="none" stroke="#FDF7E7" stroke-width="0.6" stroke-miterlimit="10" cx="70.691" cy="74.729" r="2.719"/>
	<path clip-path="url(#SVGID_2_)" fill="#981E32" d="M85.444,62.623c1.228,0.864,1.521,2.561,0.655,3.788
		c-0.865,1.227-2.561,1.521-3.788,0.655c-1.227-0.864-1.52-2.561-0.655-3.789C82.521,62.051,84.218,61.758,85.444,62.623"/>
	
		<circle clip-path="url(#SVGID_2_)" fill="none" stroke="#FDF7E7" stroke-width="0.6" stroke-miterlimit="10" cx="83.878" cy="64.845" r="2.718"/>
	<path clip-path="url(#SVGID_2_)" fill="#981E32" d="M90.498,46.792c1.228,0.865,1.521,2.561,0.655,3.788
		c-0.865,1.227-2.561,1.521-3.788,0.656c-1.227-0.865-1.52-2.561-0.654-3.789C87.575,46.22,89.271,45.927,90.498,46.792"/>
	
		<circle clip-path="url(#SVGID_2_)" fill="none" stroke="#FDF7E7" stroke-width="0.6" stroke-miterlimit="10" cx="88.932" cy="49.014" r="2.719"/>
	<path clip-path="url(#SVGID_2_)" fill="#981E32" d="M85.194,31.685c1.228,0.865,1.521,2.561,0.655,3.788
		c-0.865,1.227-2.562,1.521-3.788,0.656c-1.228-0.865-1.521-2.561-0.655-3.789C82.271,31.113,83.968,30.82,85.194,31.685"/>
	
		<circle clip-path="url(#SVGID_2_)" fill="none" stroke="#FDF7E7" stroke-width="0.6" stroke-miterlimit="10" cx="83.628" cy="33.907" r="2.719"/>
	<path clip-path="url(#SVGID_2_)" fill="#981E32" d="M72.23,22.148c1.227,0.865,1.521,2.561,0.654,3.788
		c-0.864,1.227-2.561,1.521-3.788,0.656c-1.227-0.865-1.52-2.561-0.654-3.789C69.307,21.576,71.003,21.283,72.23,22.148"/>
	
		<circle clip-path="url(#SVGID_2_)" fill="none" stroke="#FDF7E7" stroke-width="0.6" stroke-miterlimit="10" cx="70.664" cy="24.37" r="2.719"/>
	<path clip-path="url(#SVGID_2_)" fill="#981E32" d="M56.041,22.099c1.227,0.865,1.521,2.561,0.655,3.788
		c-0.865,1.227-2.561,1.521-3.788,0.656s-1.52-2.561-0.655-3.789C53.118,21.526,54.814,21.233,56.041,22.099"/>
	
		<circle clip-path="url(#SVGID_2_)" fill="none" stroke="#FDF7E7" stroke-width="0.6" stroke-miterlimit="10" cx="54.474" cy="24.321" r="2.719"/>
	<path clip-path="url(#SVGID_2_)" fill="#981E32" d="M68.692,27.557c-0.016,4.395-2.822,7.949-6.27,7.937
		c-3.448-0.011-6.23-3.584-6.215-7.98c0.015-4.395,2.822-7.949,6.269-7.937C65.924,19.589,68.707,23.162,68.692,27.557"/>
	
		<ellipse transform="matrix(1 0.0034 -0.0034 1 0.0951 -0.2148)" clip-path="url(#SVGID_2_)" fill="none" stroke="#981E32" stroke-width="3" stroke-miterlimit="10" cx="62.45" cy="27.535" rx="6.242" ry="7.959"/>
	<path clip-path="url(#SVGID_2_)" fill="#981E32" d="M54.734,27.988c2.571,3.565,2.39,8.09-0.406,10.106
		c-2.796,2.017-7.147,0.762-9.719-2.802c-2.571-3.565-2.389-8.09,0.407-10.107C47.811,23.168,52.163,24.423,54.734,27.988"/>
	
		<ellipse transform="matrix(0.811 -0.5851 0.5851 0.811 -9.1229 35.0405)" clip-path="url(#SVGID_2_)" fill="none" stroke="#981E32" stroke-width="3" stroke-miterlimit="10" cx="49.671" cy="31.64" rx="6.242" ry="7.958"/>
	<path clip-path="url(#SVGID_2_)" fill="#981E32" d="M43.694,36.541c4.176,1.372,6.688,5.14,5.612,8.415
		c-1.077,3.275-5.335,4.817-9.51,3.445c-4.176-1.373-6.688-5.14-5.612-8.415C35.262,36.711,39.519,35.169,43.694,36.541"/>
	
		<ellipse transform="matrix(0.3122 -0.95 0.95 0.3122 -11.6366 68.8683)" clip-path="url(#SVGID_2_)" fill="none" stroke="#981E32" stroke-width="3" stroke-miterlimit="10" cx="41.745" cy="42.471" rx="6.242" ry="7.959"/>
	<path clip-path="url(#SVGID_2_)" fill="#981E32" d="M39.791,49.949c4.185-1.344,8.432,0.227,9.486,3.51
		c1.054,3.282-1.484,7.032-5.669,8.375c-4.185,1.345-8.432-0.227-9.486-3.509C33.068,55.043,35.606,51.293,39.791,49.949"/>
	
		<ellipse transform="matrix(-0.3058 -0.9521 0.9521 -0.3058 1.2338 112.6838)" clip-path="url(#SVGID_2_)" fill="none" stroke="#981E32" stroke-width="3" stroke-miterlimit="10" cx="41.699" cy="55.892" rx="6.242" ry="7.958"/>
	<path clip-path="url(#SVGID_2_)" fill="#981E32" d="M44.514,63.091c2.596-3.547,6.955-4.771,9.737-2.736
		c2.782,2.036,2.934,6.562,0.338,10.108c-2.596,3.549-6.955,4.773-9.737,2.737C42.069,71.164,41.918,66.639,44.514,63.091"/>
	
		<ellipse transform="matrix(-0.807 -0.5905 0.5905 -0.807 50.1093 149.9286)" clip-path="url(#SVGID_2_)" fill="none" stroke="#981E32" stroke-width="3" stroke-miterlimit="10" cx="49.552" cy="66.777" rx="6.242" ry="7.958"/>
	<path clip-path="url(#SVGID_2_)" fill="#981E32" d="M56.06,70.947c0.015-4.396,2.822-7.949,6.269-7.938
		c3.448,0.012,6.229,3.584,6.215,7.979s-2.822,7.95-6.269,7.938C58.828,78.915,56.045,75.342,56.06,70.947"/>
	
		<ellipse transform="matrix(-1 -0.0034 0.0034 -1 124.3649 142.1457)" clip-path="url(#SVGID_2_)" fill="none" stroke="#981E32" stroke-width="3" stroke-miterlimit="10" cx="62.302" cy="70.968" rx="6.242" ry="7.959"/>
	<path clip-path="url(#SVGID_2_)" fill="#981E32" d="M70.019,70.516c-2.571-3.564-2.391-8.09,0.405-10.105
		c2.797-2.017,7.147-0.762,9.72,2.802c2.57,3.565,2.389,8.09-0.407,10.107C76.941,75.336,72.589,74.081,70.019,70.516"/>
	
		<ellipse transform="matrix(-0.811 0.585 -0.585 -0.811 175.09 77.1667)" clip-path="url(#SVGID_2_)" fill="none" stroke="#981E32" stroke-width="3" stroke-miterlimit="10" cx="75.081" cy="66.864" rx="6.242" ry="7.959"/>
	<path clip-path="url(#SVGID_2_)" fill="#981E32" d="M81.058,61.963c-4.176-1.372-6.688-5.14-5.612-8.415
		c1.077-3.275,5.335-4.817,9.51-3.445c4.177,1.373,6.688,5.14,5.612,8.415C89.49,61.793,85.233,63.335,81.058,61.963"/>
	
		<ellipse transform="matrix(-0.3122 0.95 -0.95 -0.3122 162.1532 -5.3309)" clip-path="url(#SVGID_2_)" fill="none" stroke="#981E32" stroke-width="3" stroke-miterlimit="10" cx="83.006" cy="56.033" rx="6.242" ry="7.959"/>
	<path clip-path="url(#SVGID_2_)" fill="#981E32" d="M84.961,48.555c-4.185,1.344-8.432-0.227-9.486-3.51
		c-1.054-3.282,1.484-7.032,5.669-8.376c4.186-1.344,8.433,0.227,9.486,3.509C91.684,43.46,89.146,47.21,84.961,48.555"/>
	
		<ellipse transform="matrix(0.3058 0.9521 -0.9521 0.3058 98.2273 -49.4924)" clip-path="url(#SVGID_2_)" fill="none" stroke="#981E32" stroke-width="3" stroke-miterlimit="10" cx="83.052" cy="42.612" rx="6.242" ry="7.959"/>
	<path clip-path="url(#SVGID_2_)" fill="#981E32" d="M80.238,35.413c-2.597,3.547-6.955,4.772-9.737,2.737
		c-2.782-2.036-2.935-6.562-0.338-10.109c2.596-3.548,6.955-4.773,9.736-2.737C82.683,27.34,82.834,31.866,80.238,35.413"/>
	
		<ellipse transform="matrix(0.807 0.5905 -0.5905 0.807 33.2441 -38.2831)" clip-path="url(#SVGID_2_)" fill="none" stroke="#981E32" stroke-width="3" stroke-miterlimit="10" cx="75.201" cy="31.727" rx="6.242" ry="7.959"/>
	<path clip-path="url(#SVGID_2_)" fill="#981E32" d="M68.582,27.404c-0.016,4.395-2.822,7.949-6.27,7.937
		c-3.448-0.011-6.229-3.584-6.215-7.979c0.015-4.396,2.822-7.95,6.27-7.938C65.813,19.436,68.597,23.009,68.582,27.404"/>
	
		<ellipse transform="matrix(1 0.0034 -0.0034 1 0.0925 -0.2095)" clip-path="url(#SVGID_2_)" fill="none" stroke="#FDF7E7" stroke-width="1.14" stroke-miterlimit="10" cx="62.34" cy="27.383" rx="6.242" ry="7.958"/>
	<path clip-path="url(#SVGID_2_)" fill="#981E32" d="M54.624,27.835c2.571,3.565,2.39,8.09-0.406,10.106
		c-2.796,2.017-7.147,0.762-9.719-2.802c-2.571-3.565-2.389-8.09,0.407-10.107C47.701,23.015,52.053,24.27,54.624,27.835"/>
	
		<ellipse transform="matrix(0.811 -0.5851 0.5851 0.811 -9.0543 34.9471)" clip-path="url(#SVGID_2_)" fill="none" stroke="#FDF7E7" stroke-width="1.14" stroke-miterlimit="10" cx="49.561" cy="31.487" rx="6.242" ry="7.959"/>
	<path clip-path="url(#SVGID_2_)" fill="#981E32" d="M43.584,36.388c4.176,1.372,6.688,5.14,5.612,8.415
		c-1.077,3.275-5.335,4.817-9.51,3.445c-4.176-1.373-6.688-5.14-5.612-8.415C35.151,36.558,39.408,35.016,43.584,36.388"/>
	
		<ellipse transform="matrix(0.3122 -0.95 0.95 0.3122 -11.567 68.6588)" clip-path="url(#SVGID_2_)" fill="none" stroke="#FDF7E7" stroke-width="1.14" stroke-miterlimit="10" cx="41.635" cy="42.318" rx="6.242" ry="7.959"/>
	<path clip-path="url(#SVGID_2_)" fill="#981E32" d="M39.681,49.796c4.185-1.344,8.432,0.227,9.486,3.51
		c1.054,3.282-1.484,7.032-5.669,8.376s-8.432-0.227-9.486-3.509C32.958,54.891,35.496,51.141,39.681,49.796"/>
	
		<ellipse transform="matrix(-0.3058 -0.9521 0.9521 -0.3058 1.2367 112.3807)" clip-path="url(#SVGID_2_)" fill="none" stroke="#FDF7E7" stroke-width="1.14" stroke-miterlimit="10" cx="41.589" cy="55.74" rx="6.242" ry="7.959"/>
	<path clip-path="url(#SVGID_2_)" fill="#981E32" d="M44.404,62.938c2.596-3.547,6.955-4.772,9.737-2.737
		c2.782,2.036,2.934,6.562,0.338,10.109c-2.596,3.548-6.955,4.773-9.737,2.737C41.959,71.012,41.808,66.485,44.404,62.938"/>
	
		<ellipse transform="matrix(-0.807 -0.5905 0.5905 -0.807 49.9983 149.5883)" clip-path="url(#SVGID_2_)" fill="none" stroke="#FDF7E7" stroke-width="1.14" stroke-miterlimit="10" cx="49.442" cy="66.625" rx="6.242" ry="7.959"/>
	<path clip-path="url(#SVGID_2_)" fill="#981E32" d="M55.95,70.794c0.015-4.395,2.822-7.948,6.269-7.937
		c3.448,0.011,6.23,3.584,6.215,7.979c-0.015,4.396-2.821,7.949-6.269,7.938S55.935,75.189,55.95,70.794"/>
	
		<ellipse transform="matrix(-1 -0.0034 0.0034 -1 124.1392 141.8445)" clip-path="url(#SVGID_2_)" fill="none" stroke="#FDF7E7" stroke-width="1.14" stroke-miterlimit="10" cx="62.192" cy="70.815" rx="6.242" ry="7.958"/>
	<path clip-path="url(#SVGID_2_)" fill="#981E32" d="M69.908,70.363c-2.571-3.564-2.39-8.09,0.406-10.105
		c2.796-2.017,7.146-0.763,9.719,2.802c2.571,3.564,2.389,8.09-0.407,10.106C76.831,75.184,72.479,73.929,69.908,70.363"/>
	
		<ellipse transform="matrix(-0.811 0.585 -0.585 -0.811 174.801 76.9553)" clip-path="url(#SVGID_2_)" fill="none" stroke="#FDF7E7" stroke-width="1.14" stroke-miterlimit="10" cx="74.971" cy="66.711" rx="6.242" ry="7.958"/>
	<path clip-path="url(#SVGID_2_)" fill="#981E32" d="M80.947,61.811c-4.176-1.372-6.688-5.14-5.612-8.415
		c1.077-3.275,5.335-4.817,9.511-3.445c4.176,1.373,6.688,5.14,5.611,8.415C89.381,61.641,85.123,63.183,80.947,61.811"/>
	
		<ellipse transform="matrix(-0.3123 0.95 -0.95 -0.3123 161.8679 -5.4219)" clip-path="url(#SVGID_2_)" fill="none" stroke="#FDF7E7" stroke-width="1.14" stroke-miterlimit="10" cx="82.896" cy="55.88" rx="6.242" ry="7.959"/>
	<path clip-path="url(#SVGID_2_)" fill="#981E32" d="M84.851,48.402c-4.185,1.344-8.432-0.227-9.485-3.51
		c-1.055-3.282,1.483-7.032,5.669-8.376c4.185-1.344,8.432,0.227,9.485,3.509C91.574,43.308,89.036,47.058,84.851,48.402"/>
	
		<ellipse transform="matrix(0.3057 0.9521 -0.9521 0.3057 98.0116 -49.4928)" clip-path="url(#SVGID_2_)" fill="none" stroke="#FDF7E7" stroke-width="1.14" stroke-miterlimit="10" cx="82.942" cy="42.459" rx="6.242" ry="7.958"/>
	<path clip-path="url(#SVGID_2_)" fill="#981E32" d="M80.128,35.26c-2.597,3.547-6.955,4.772-9.737,2.737
		c-2.782-2.036-2.934-6.562-0.338-10.109c2.596-3.548,6.955-4.773,9.737-2.737C82.572,27.187,82.724,31.713,80.128,35.26"/>
	
		<ellipse transform="matrix(0.807 0.5905 -0.5905 0.807 33.1349 -38.2487)" clip-path="url(#SVGID_2_)" fill="none" stroke="#FDF7E7" stroke-width="1.14" stroke-miterlimit="10" cx="75.09" cy="31.574" rx="6.242" ry="7.959"/>
	<path clip-path="url(#SVGID_2_)" fill="#981E32" d="M55.897,47.408c-0.015,0.479-0.416,0.856-0.896,0.84
		c-0.479-0.015-0.855-0.416-0.84-0.895c0.015-0.48,0.416-0.856,0.896-0.841C55.536,46.528,55.912,46.929,55.897,47.408"/>
	<path clip-path="url(#SVGID_2_)" fill="#981E32" d="M60.737,46.243c-0.015,0.479-0.416,0.856-0.896,0.84
		c-0.479-0.015-0.855-0.416-0.84-0.895c0.015-0.48,0.416-0.856,0.896-0.841C60.376,45.363,60.752,45.764,60.737,46.243"/>
	<path clip-path="url(#SVGID_2_)" fill="#981E32" d="M63.493,42.554c-0.016,0.479-0.416,0.856-0.896,0.84
		c-0.479-0.015-0.855-0.416-0.84-0.895c0.015-0.48,0.416-0.856,0.896-0.841C63.132,41.674,63.508,42.075,63.493,42.554"/>
	<path clip-path="url(#SVGID_2_)" fill="#981E32" d="M65.777,46.527c-0.015,0.479-0.416,0.856-0.896,0.84
		c-0.479-0.015-0.855-0.416-0.841-0.895c0.016-0.48,0.416-0.856,0.896-0.841C65.416,45.647,65.793,46.048,65.777,46.527"/>
	<path clip-path="url(#SVGID_2_)" fill="#981E32" d="M70.744,47.542c-0.016,0.479-0.416,0.856-0.896,0.84
		c-0.479-0.015-0.854-0.416-0.84-0.895c0.016-0.48,0.416-0.856,0.896-0.841C70.383,46.663,70.759,47.063,70.744,47.542"/>
	<path clip-path="url(#SVGID_2_)" fill="#981E32" d="M67.014,51.008c-0.015,0.479-0.416,0.856-0.896,0.84
		c-0.479-0.015-0.855-0.416-0.841-0.895c0.016-0.48,0.416-0.856,0.896-0.841C66.652,50.127,67.028,50.529,67.014,51.008"/>
	<path clip-path="url(#SVGID_2_)" fill="#981E32" d="M59.234,50.738c-0.015,0.479-0.416,0.856-0.896,0.84
		c-0.479-0.015-0.855-0.416-0.84-0.895c0.015-0.48,0.416-0.856,0.896-0.841C58.874,49.858,59.25,50.259,59.234,50.738"/>
	<path clip-path="url(#SVGID_2_)" fill="#981E32" d="M58.56,55.787c-0.015,0.479-0.416,0.856-0.896,0.84
		c-0.479-0.015-0.855-0.416-0.84-0.895c0.015-0.48,0.416-0.856,0.896-0.841C58.199,54.907,58.575,55.308,58.56,55.787"/>
	<path clip-path="url(#SVGID_2_)" fill="#981E32" d="M67.562,56.038c-0.015,0.479-0.416,0.856-0.896,0.84
		c-0.479-0.015-0.855-0.416-0.841-0.895c0.016-0.48,0.416-0.856,0.896-0.841C67.2,55.158,67.576,55.559,67.562,56.038"/>
	<path clip-path="url(#SVGID_2_)" fill="#981E32" d="M63.127,53.645c-0.015,0.479-0.416,0.856-0.896,0.84
		c-0.479-0.015-0.855-0.416-0.84-0.895c0.015-0.48,0.416-0.856,0.896-0.841C62.766,52.765,63.143,53.166,63.127,53.645"/>
	<path clip-path="url(#SVGID_2_)" fill="#981E32" d="M63.29,49.362c-0.016,0.479-0.416,0.856-0.896,0.84
		c-0.479-0.015-0.854-0.416-0.84-0.895c0.015-0.48,0.416-0.856,0.896-0.841C62.929,48.482,63.305,48.883,63.29,49.362"/>
</g>
</svg>
