<?xml version="1.0" encoding="utf-8"?>
<!-- Generator: Adobe Illustrator 21.1.0, SVG Export Plug-In . SVG Version: 6.00 Build 0)  -->
<svg version="1.1" id="Layer_1" xmlns:sketch="http://www.bohemiancoding.com/sketch/ns"
	 xmlns="http://www.w3.org/2000/svg" xmlns:xlink="http://www.w3.org/1999/xlink" x="0px" y="0px" width="113px" height="106px"
	 viewBox="0 0 113 106" style="enable-background:new 0 0 113 106;" xml:space="preserve">
<style type="text/css">
	.st0{fill:#981E33;}
	.st1{clip-path:url(#SVGID_2_);fill:none;stroke:#FDF7E7;stroke-width:2.8993;stroke-miterlimit:10;}
	.st2{fill:#FDF7E7;}
	.st3{fill:none;stroke:#FDF7E7;stroke-width:0.6;stroke-miterlimit:10;}
	.st4{fill:none;stroke:#981E33;stroke-width:3;stroke-miterlimit:10;}
	.st5{fill:none;stroke:#FDF7E7;stroke-width:1.1399;stroke-miterlimit:10;}
</style>
<title>sunlight park</title>
<desc>Created with Sketch.</desc>
<g id="Page-1" sketch:type="MSPage">
</g>
<g>
	<polygon class="st0" points="1.3,1.3 111.7,1.3 111.7,52.9 56.1,102.7 1.3,53.1 1.3,1.3 	"/>
	<g>
		<defs>
			<rect id="SVGID_1_" y="0" width="113" height="104.4"/>
		</defs>
		<clipPath id="SVGID_2_">
			<use xlink:href="#SVGID_1_"  style="overflow:visible;"/>
		</clipPath>
		<polygon class="st1" points="1.3,1.3 111.7,1.3 111.7,52.9 56.1,102.7 1.3,53.1 1.3,1.3 		"/>
	</g>
	<path class="st2" d="M64.6,33.5c5.9,4.8,6.8,13.5,2,19.4c-4.8,5.9-13.5,6.8-19.4,2c-5.9-4.8-6.8-13.5-2-19.4
		C50,29.5,58.7,28.7,64.6,33.5L64.6,33.5z"/>
	<path class="st0" d="M39.4,30.1c0,1.3-1.1,2.5-2.4,2.5c-1.3,0-2.5-1.1-2.5-2.4c0-1.3,1.1-2.5,2.4-2.5
		C38.2,27.6,39.3,28.7,39.4,30.1L39.4,30.1z"/>
	<path class="st3" d="M39.4,30.1c0,1.3-1.1,2.5-2.4,2.5c-1.3,0-2.5-1.1-2.5-2.4c0-1.3,1.1-2.5,2.4-2.5
		C38.2,27.6,39.3,28.7,39.4,30.1L39.4,30.1z"/>
	<path class="st0" d="M34.8,44.3c0,1.3-1.1,2.5-2.4,2.5c-1.3,0-2.5-1.1-2.5-2.4c0-1.3,1.1-2.5,2.4-2.5
		C33.7,41.8,34.8,42.9,34.8,44.3L34.8,44.3z"/>
	<path class="st3" d="M34.8,44.3c0,1.3-1.1,2.5-2.4,2.5c-1.3,0-2.5-1.1-2.5-2.4c0-1.3,1.1-2.5,2.4-2.5
		C33.7,41.8,34.8,42.9,34.8,44.3L34.8,44.3z"/>
	<path class="st0" d="M39.2,58c0,1.3-1.1,2.5-2.4,2.5c-1.3,0-2.5-1.1-2.5-2.4c0-1.3,1.1-2.5,2.4-2.5C38.1,55.6,39.2,56.7,39.2,58
		L39.2,58z"/>
	<path class="st3" d="M39.2,58c0,1.3-1.1,2.5-2.4,2.5c-1.3,0-2.5-1.1-2.5-2.4c0-1.3,1.1-2.5,2.4-2.5C38.1,55.6,39.2,56.7,39.2,58
		L39.2,58z"/>
	<path class="st0" d="M50.8,67.1c0,1.3-1.1,2.5-2.4,2.5c-1.3,0-2.5-1.1-2.5-2.4c0-1.4,1.1-2.5,2.4-2.5
		C49.7,64.7,50.8,65.7,50.8,67.1L50.8,67.1z"/>
	<path class="st3" d="M50.8,67.1c0,1.3-1.1,2.5-2.4,2.5c-1.3,0-2.5-1.1-2.5-2.4c0-1.4,1.1-2.5,2.4-2.5
		C49.7,64.7,50.8,65.7,50.8,67.1L50.8,67.1z"/>
	<path class="st0" d="M65.8,67.2c0,1.3-1.1,2.5-2.4,2.5c-1.3,0-2.5-1.1-2.5-2.4c0-1.3,1.1-2.5,2.4-2.5
		C64.7,64.8,65.8,65.8,65.8,67.2L65.8,67.2z"/>
	<path class="st3" d="M65.8,67.2c0,1.3-1.1,2.5-2.4,2.5c-1.3,0-2.5-1.1-2.5-2.4c0-1.3,1.1-2.5,2.4-2.5
		C64.7,64.8,65.8,65.8,65.8,67.2L65.8,67.2z"/>
	<path class="st0" d="M76.7,56.4c1.1,0.8,1.4,2.3,0.6,3.4c-0.8,1.1-2.3,1.4-3.4,0.6c-1.1-0.8-1.4-2.3-0.6-3.4
		C74,55.8,75.5,55.6,76.7,56.4L76.7,56.4z"/>
	<path class="st3" d="M76.7,56.4c1.1,0.8,1.4,2.3,0.6,3.4c-0.8,1.1-2.3,1.4-3.4,0.6c-1.1-0.8-1.4-2.3-0.6-3.4
		C74,55.8,75.5,55.6,76.7,56.4L76.7,56.4z"/>
	<path class="st0" d="M81.2,42.1c1.1,0.8,1.4,2.3,0.6,3.4c-0.8,1.1-2.3,1.4-3.4,0.6c-1.1-0.8-1.4-2.3-0.6-3.4
		C78.6,41.6,80.1,41.3,81.2,42.1L81.2,42.1z"/>
	<path class="st3" d="M81.2,42.1c1.1,0.8,1.4,2.3,0.6,3.4c-0.8,1.1-2.3,1.4-3.4,0.6c-1.1-0.8-1.4-2.3-0.6-3.4
		C78.6,41.6,80.1,41.3,81.2,42.1L81.2,42.1z"/>
	<path class="st0" d="M76.4,28.5c1.1,0.8,1.4,2.3,0.6,3.4c-0.8,1.1-2.3,1.4-3.4,0.6c-1.1-0.8-1.4-2.3-0.6-3.4
		C73.8,28,75.3,27.8,76.4,28.5L76.4,28.5z"/>
	<path class="st3" d="M76.4,28.5c1.1,0.8,1.4,2.3,0.6,3.4c-0.8,1.1-2.3,1.4-3.4,0.6c-1.1-0.8-1.4-2.3-0.6-3.4
		C73.8,28,75.3,27.8,76.4,28.5L76.4,28.5z"/>
	<path class="st0" d="M64.8,20c1.1,0.8,1.4,2.3,0.6,3.4c-0.8,1.1-2.3,1.4-3.4,0.6c-1.1-0.8-1.4-2.3-0.6-3.4
		C62.1,19.5,63.7,19.2,64.8,20L64.8,20z"/>
	<path class="st3" d="M64.8,20c1.1,0.8,1.4,2.3,0.6,3.4c-0.8,1.1-2.3,1.4-3.4,0.6c-1.1-0.8-1.4-2.3-0.6-3.4
		C62.1,19.5,63.7,19.2,64.8,20L64.8,20z"/>
	<path class="st0" d="M50.2,19.9c1.1,0.8,1.4,2.3,0.6,3.4c-0.8,1.1-2.3,1.4-3.4,0.6c-1.1-0.8-1.4-2.3-0.6-3.4
		C47.6,19.4,49.1,19.1,50.2,19.9L50.2,19.9z"/>
	<path class="st3" d="M50.2,19.9c1.1,0.8,1.4,2.3,0.6,3.4c-0.8,1.1-2.3,1.4-3.4,0.6c-1.1-0.8-1.4-2.3-0.6-3.4
		C47.6,19.4,49.1,19.1,50.2,19.9L50.2,19.9z"/>
	<path class="st0" d="M61.6,24.8c0,4-2.5,7.1-5.6,7.1c-3.1,0-5.6-3.2-5.6-7.2c0-4,2.5-7.1,5.6-7.1C59.1,17.7,61.6,20.9,61.6,24.8
		L61.6,24.8z"/>
	<path class="st4" d="M61.6,24.8c0,4-2.5,7.1-5.6,7.1c-3.1,0-5.6-3.2-5.6-7.2c0-4,2.5-7.1,5.6-7.1C59.1,17.7,61.6,20.9,61.6,24.8
		L61.6,24.8z"/>
	<path class="st0" d="M49,25.2c2.3,3.2,2.1,7.3-0.4,9.1c-2.5,1.8-6.4,0.7-8.7-2.5c-2.3-3.2-2.1-7.3,0.4-9.1
		C42.8,20.9,46.7,22,49,25.2L49,25.2z"/>
	<path class="st4" d="M49,25.2c2.3,3.2,2.1,7.3-0.4,9.1c-2.5,1.8-6.4,0.7-8.7-2.5c-2.3-3.2-2.1-7.3,0.4-9.1
		C42.8,20.9,46.7,22,49,25.2L49,25.2z"/>
	<path class="st0" d="M39.1,32.9c3.8,1.2,6,4.6,5,7.6c-1,2.9-4.8,4.3-8.5,3.1c-3.8-1.2-6-4.6-5-7.6C31.5,33.1,35.4,31.7,39.1,32.9
		L39.1,32.9z"/>
	<path class="st4" d="M39.1,32.9c3.8,1.2,6,4.6,5,7.6c-1,2.9-4.8,4.3-8.5,3.1c-3.8-1.2-6-4.6-5-7.6C31.5,33.1,35.4,31.7,39.1,32.9
		L39.1,32.9z"/>
	<path class="st0" d="M35.6,45c3.8-1.2,7.6,0.2,8.5,3.2c0.9,3-1.3,6.3-5.1,7.5c-3.8,1.2-7.6-0.2-8.5-3.2
		C29.6,49.5,31.9,46.2,35.6,45L35.6,45z"/>
	<path class="st4" d="M35.6,45c3.8-1.2,7.6,0.2,8.5,3.2c0.9,3-1.3,6.3-5.1,7.5c-3.8,1.2-7.6-0.2-8.5-3.2
		C29.6,49.5,31.9,46.2,35.6,45L35.6,45z"/>
	<path class="st0" d="M39.9,56.8c2.3-3.2,6.3-4.3,8.8-2.5c2.5,1.8,2.6,5.9,0.3,9.1c-2.3,3.2-6.3,4.3-8.8,2.5
		C37.7,64,37.5,60,39.9,56.8L39.9,56.8z"/>
	<path class="st4" d="M39.9,56.8c2.3-3.2,6.3-4.3,8.8-2.5c2.5,1.8,2.6,5.9,0.3,9.1c-2.3,3.2-6.3,4.3-8.8,2.5
		C37.7,64,37.5,60,39.9,56.8L39.9,56.8z"/>
	<path class="st0" d="M50.2,63.8c0-4,2.5-7.1,5.6-7.1c3.1,0,5.6,3.2,5.6,7.2c0,4-2.5,7.1-5.6,7.1C52.7,71,50.2,67.8,50.2,63.8
		L50.2,63.8z"/>
	<path class="st4" d="M50.2,63.8c0-4,2.5-7.1,5.6-7.1c3.1,0,5.6,3.2,5.6,7.2c0,4-2.5,7.1-5.6,7.1C52.7,71,50.2,67.8,50.2,63.8
		L50.2,63.8z"/>
	<path class="st0" d="M62.8,63.4c-2.3-3.2-2.1-7.3,0.4-9.1c2.5-1.8,6.4-0.7,8.7,2.5c2.3,3.2,2.1,7.3-0.4,9.1
		C69,67.8,65.1,66.7,62.8,63.4L62.8,63.4z"/>
	<path class="st4" d="M62.8,63.4c-2.3-3.2-2.1-7.3,0.4-9.1c2.5-1.8,6.4-0.7,8.7,2.5c2.3,3.2,2.1,7.3-0.4,9.1
		C69,67.8,65.1,66.7,62.8,63.4L62.8,63.4z"/>
	<path class="st0" d="M72.7,55.8c-3.8-1.2-6-4.6-5-7.6c1-2.9,4.8-4.3,8.5-3.1c3.8,1.2,6,4.6,5,7.6C80.3,55.6,76.5,57,72.7,55.8
		L72.7,55.8z"/>
	<path class="st4" d="M72.7,55.8c-3.8-1.2-6-4.6-5-7.6c1-2.9,4.8-4.3,8.5-3.1c3.8,1.2,6,4.6,5,7.6C80.3,55.6,76.5,57,72.7,55.8
		L72.7,55.8z"/>
	<path class="st0" d="M76.2,43.7c-3.8,1.2-7.6-0.2-8.5-3.2c-0.9-3,1.3-6.3,5.1-7.5c3.8-1.2,7.6,0.2,8.5,3.2
		C82.3,39.1,80,42.5,76.2,43.7L76.2,43.7z"/>
	<path class="st4" d="M76.2,43.7c-3.8,1.2-7.6-0.2-8.5-3.2c-0.9-3,1.3-6.3,5.1-7.5c3.8-1.2,7.6,0.2,8.5,3.2
		C82.3,39.1,80,42.5,76.2,43.7L76.2,43.7z"/>
	<path class="st0" d="M72,31.9c-2.3,3.2-6.3,4.3-8.8,2.5c-2.5-1.8-2.6-5.9-0.3-9.1c2.3-3.2,6.3-4.3,8.8-2.5
		C74.2,24.6,74.3,28.7,72,31.9L72,31.9z"/>
	<path class="st4" d="M72,31.9c-2.3,3.2-6.3,4.3-8.8,2.5c-2.5-1.8-2.6-5.9-0.3-9.1c2.3-3.2,6.3-4.3,8.8-2.5
		C74.2,24.6,74.3,28.7,72,31.9L72,31.9z"/>
	<path class="st0" d="M61.5,24.7c0,4-2.5,7.1-5.6,7.1c-3.1,0-5.6-3.2-5.6-7.2c0-4,2.5-7.1,5.6-7.1C59,17.5,61.5,20.7,61.5,24.7
		L61.5,24.7z"/>
	<path class="st5" d="M61.5,24.7c0,4-2.5,7.1-5.6,7.1c-3.1,0-5.6-3.2-5.6-7.2c0-4,2.5-7.1,5.6-7.1C59,17.5,61.5,20.7,61.5,24.7
		L61.5,24.7z"/>
	<path class="st0" d="M48.9,25.1c2.3,3.2,2.1,7.3-0.4,9.1c-2.5,1.8-6.4,0.7-8.7-2.5c-2.3-3.2-2.1-7.3,0.4-9.1
		C42.7,20.8,46.6,21.9,48.9,25.1L48.9,25.1z"/>
	<path class="st5" d="M48.9,25.1c2.3,3.2,2.1,7.3-0.4,9.1c-2.5,1.8-6.4,0.7-8.7-2.5c-2.3-3.2-2.1-7.3,0.4-9.1
		C42.7,20.8,46.6,21.9,48.9,25.1L48.9,25.1z"/>
	<path class="st0" d="M39,32.8c3.8,1.2,6,4.6,5,7.6c-1,2.9-4.8,4.3-8.5,3.1c-3.8-1.2-6-4.6-5-7.6C31.4,32.9,35.3,31.5,39,32.8
		L39,32.8z"/>
	<path class="st5" d="M39,32.8c3.8,1.2,6,4.6,5,7.6c-1,2.9-4.8,4.3-8.5,3.1c-3.8-1.2-6-4.6-5-7.6C31.4,32.9,35.3,31.5,39,32.8
		L39,32.8z"/>
	<path class="st0" d="M35.5,44.8c3.8-1.2,7.6,0.2,8.5,3.2c0.9,3-1.3,6.3-5.1,7.5c-3.8,1.2-7.6-0.2-8.5-3.2
		C29.5,49.4,31.8,46,35.5,44.8L35.5,44.8z"/>
	<path class="st5" d="M35.5,44.8c3.8-1.2,7.6,0.2,8.5,3.2c0.9,3-1.3,6.3-5.1,7.5c-3.8,1.2-7.6-0.2-8.5-3.2
		C29.5,49.4,31.8,46,35.5,44.8L35.5,44.8z"/>
	<path class="st0" d="M39.8,56.6c2.3-3.2,6.3-4.3,8.8-2.5c2.5,1.8,2.6,5.9,0.3,9.1c-2.3,3.2-6.3,4.3-8.8,2.5
		C37.6,63.9,37.4,59.8,39.8,56.6L39.8,56.6z"/>
	<path class="st5" d="M39.8,56.6c2.3-3.2,6.3-4.3,8.8-2.5c2.5,1.8,2.6,5.9,0.3,9.1c-2.3,3.2-6.3,4.3-8.8,2.5
		C37.6,63.9,37.4,59.8,39.8,56.6L39.8,56.6z"/>
	<path class="st0" d="M50.1,63.7c0-4,2.5-7.1,5.6-7.1c3.1,0,5.6,3.2,5.6,7.2c0,4-2.5,7.1-5.6,7.1C52.6,70.9,50.1,67.6,50.1,63.7
		L50.1,63.7z"/>
	<path class="st5" d="M50.1,63.7c0-4,2.5-7.1,5.6-7.1c3.1,0,5.6,3.2,5.6,7.2c0,4-2.5,7.1-5.6,7.1C52.6,70.9,50.1,67.6,50.1,63.7
		L50.1,63.7z"/>
	<path class="st0" d="M62.7,63.3c-2.3-3.2-2.1-7.3,0.4-9.1c2.5-1.8,6.4-0.7,8.7,2.5c2.3,3.2,2.1,7.3-0.4,9.1
		C68.9,67.6,65,66.5,62.7,63.3L62.7,63.3z"/>
	<path class="st5" d="M62.7,63.3c-2.3-3.2-2.1-7.3,0.4-9.1c2.5-1.8,6.4-0.7,8.7,2.5c2.3,3.2,2.1,7.3-0.4,9.1
		C68.9,67.6,65,66.5,62.7,63.3L62.7,63.3z"/>
	<path class="st0" d="M72.6,55.6c-3.8-1.2-6-4.6-5-7.6c1-2.9,4.8-4.3,8.5-3.1c3.8,1.2,6,4.6,5,7.6C80.2,55.5,76.4,56.9,72.6,55.6
		L72.6,55.6z"/>
	<path class="st5" d="M72.6,55.6c-3.8-1.2-6-4.6-5-7.6c1-2.9,4.8-4.3,8.5-3.1c3.8,1.2,6,4.6,5,7.6C80.2,55.5,76.4,56.9,72.6,55.6
		L72.6,55.6z"/>
	<path class="st0" d="M76.1,43.6c-3.8,1.2-7.6-0.2-8.5-3.2c-0.9-3,1.3-6.3,5.1-7.5c3.8-1.2,7.6,0.2,8.5,3.2
		C82.2,39,79.9,42.4,76.1,43.6L76.1,43.6z"/>
	<path class="st5" d="M76.1,43.6c-3.8,1.2-7.6-0.2-8.5-3.2c-0.9-3,1.3-6.3,5.1-7.5c3.8-1.2,7.6,0.2,8.5,3.2
		C82.2,39,79.9,42.4,76.1,43.6L76.1,43.6z"/>
	<path class="st0" d="M71.9,31.8c-2.3,3.2-6.3,4.3-8.8,2.5c-2.5-1.8-2.6-5.9-0.3-9.1c2.3-3.2,6.3-4.3,8.8-2.5
		C74.1,24.5,74.2,28.6,71.9,31.8L71.9,31.8z"/>
	<path class="st5" d="M71.9,31.8c-2.3,3.2-6.3,4.3-8.8,2.5c-2.5-1.8-2.6-5.9-0.3-9.1c2.3-3.2,6.3-4.3,8.8-2.5
		C74.1,24.5,74.2,28.6,71.9,31.8L71.9,31.8z"/>
	<path class="st0" d="M50.1,42.7c0,0.4-0.4,0.8-0.8,0.8c-0.4,0-0.8-0.4-0.8-0.8c0-0.4,0.4-0.8,0.8-0.8
		C49.8,41.9,50.1,42.2,50.1,42.7L50.1,42.7z"/>
	<path class="st0" d="M54.4,41.6c0,0.4-0.4,0.8-0.8,0.8c-0.4,0-0.8-0.4-0.8-0.8c0-0.4,0.4-0.8,0.8-0.8
		C54.1,40.8,54.5,41.2,54.4,41.6L54.4,41.6z"/>
	<path class="st0" d="M56.9,38.3c0,0.4-0.4,0.8-0.8,0.8c-0.4,0-0.8-0.4-0.8-0.8c0-0.4,0.4-0.8,0.8-0.8
		C56.6,37.5,56.9,37.9,56.9,38.3L56.9,38.3z"/>
	<path class="st0" d="M59,41.9c0,0.4-0.4,0.8-0.8,0.8c-0.4,0-0.8-0.4-0.8-0.8c0-0.4,0.4-0.8,0.8-0.8C58.6,41.1,59,41.5,59,41.9
		L59,41.9z"/>
	<path class="st0" d="M63.4,42.8c0,0.4-0.4,0.8-0.8,0.8c-0.4,0-0.8-0.4-0.8-0.8c0-0.4,0.4-0.8,0.8-0.8C63.1,42,63.5,42.4,63.4,42.8
		L63.4,42.8z"/>
	<path class="st0" d="M60.1,45.9c0,0.4-0.4,0.8-0.8,0.8c-0.4,0-0.8-0.4-0.8-0.8c0-0.4,0.4-0.8,0.8-0.8
		C59.8,45.1,60.1,45.5,60.1,45.9L60.1,45.9z"/>
	<path class="st0" d="M53.1,45.7c0,0.4-0.4,0.8-0.8,0.8c-0.4,0-0.8-0.4-0.8-0.8c0-0.4,0.4-0.8,0.8-0.8
		C52.8,44.9,53.1,45.2,53.1,45.7L53.1,45.7z"/>
	<path class="st0" d="M52.5,50.2c0,0.4-0.4,0.8-0.8,0.8c-0.4,0-0.8-0.4-0.8-0.8c0-0.4,0.4-0.8,0.8-0.8
		C52.2,49.4,52.5,49.8,52.5,50.2L52.5,50.2z"/>
	<path class="st0" d="M60.6,50.4c0,0.4-0.4,0.8-0.8,0.8c-0.4,0-0.8-0.4-0.8-0.8c0-0.4,0.4-0.8,0.8-0.8C60.3,49.6,60.6,50,60.6,50.4
		L60.6,50.4z"/>
	<path class="st0" d="M56.6,48.3c0,0.4-0.4,0.8-0.8,0.8c-0.4,0-0.8-0.4-0.8-0.8c0-0.4,0.4-0.8,0.8-0.8
		C56.3,47.5,56.6,47.9,56.6,48.3L56.6,48.3z"/>
	<path class="st0" d="M56.7,44.4c0,0.4-0.4,0.8-0.8,0.8c-0.4,0-0.8-0.4-0.8-0.8c0-0.4,0.4-0.8,0.8-0.8C56.4,43.6,56.8,44,56.7,44.4
		L56.7,44.4z"/>
</g>
</svg>
