<?xml version="1.0" encoding="utf-8"?>
<!-- Generator: Adobe Illustrator 21.1.0, SVG Export Plug-In . SVG Version: 6.00 Build 0)  -->
<svg version="1.1" id="Layer_1" xmlns:sketch="http://www.bohemiancoding.com/sketch/ns"
	 xmlns="http://www.w3.org/2000/svg" xmlns:xlink="http://www.w3.org/1999/xlink" x="0px" y="0px" width="113px" height="106px"
	 viewBox="0 0 113 106" style="enable-background:new 0 0 113 106;" xml:space="preserve">
<style type="text/css">
	.st0{fill:#FFFFFF;}
	.st1{fill:#D7AC11;}
	.st2{fill:none;stroke:#D7AC11;stroke-width:2.899;stroke-miterlimit:10;}
	.st3{fill:#FFFFFF;stroke:#FFFFFF;stroke-width:14;stroke-miterlimit:10;}
	.st4{fill:#FFFFFF;stroke:#D7AC11;stroke-width:2.8993;stroke-miterlimit:10;}
	.st5{fill:none;stroke:#D7AC11;stroke-width:2;stroke-miterlimit:10;}
</style>
<title>sunlight park</title>
<desc>Created with Sketch.</desc>
<g id="Page-1" sketch:type="MSPage">
</g>
<g>
	<polygon class="st0" points="1.5,53 1.5,1.4 111.5,1.4 111.5,52.7 56.1,102.9 	"/>
	<path class="st1" d="M110.1,2.9l0,49.2l-54,48.9L3,52.3V2.9H110.1 M113,0H0.1v53.6l56,51.3L113,53.4L113,0L113,0z"/>
</g>
<line class="st2" x1="54.8" y1="31.2" x2="94.9" y2="31.2"/>
<line class="st2" x1="54.8" y1="39.5" x2="94.9" y2="39.5"/>
<line class="st2" x1="54.8" y1="47.7" x2="94.9" y2="47.7"/>
<circle class="st3" cx="33.8" cy="39.5" r="16.6"/>
<line class="st2" x1="33.8" y1="22.9" x2="85.3" y2="22.9"/>
<line class="st2" x1="33.3" y1="56" x2="85.3" y2="56"/>
<circle class="st4" cx="33.8" cy="39.5" r="16.6"/>
<circle class="st5" cx="33.7" cy="39.5" r="11.9"/>
<circle class="st5" cx="33.8" cy="39.5" r="7.3"/>
<circle class="st5" cx="33.8" cy="39.5" r="3"/>
</svg>
