<?xml version="1.0" encoding="utf-8"?>
<!-- Generator: Adobe Illustrator 21.1.0, SVG Export Plug-In . SVG Version: 6.00 Build 0)  -->
<svg version="1.1" id="Layer_1" xmlns:sketch="http://www.bohemiancoding.com/sketch/ns"
	 xmlns="http://www.w3.org/2000/svg" xmlns:xlink="http://www.w3.org/1999/xlink" x="0px" y="0px" width="113px" height="106px"
	 viewBox="0 0 113 106" style="enable-background:new 0 0 113 106;" xml:space="preserve">
<style type="text/css">
	.st0{clip-path:url(#SVGID_2_);fill:none;stroke:#FEC410;stroke-width:4;stroke-miterlimit:10;}
	.st1{fill:#FEC410;}
	.st2{clip-path:url(#SVGID_4_);fill:none;stroke:#000000;stroke-width:8;stroke-miterlimit:10;stroke-dasharray:1.3106,3.1186;}
	.st3{fill:none;stroke:#000000;stroke-width:0.86;stroke-miterlimit:10;}
</style>
<title>sunlight park</title>
<desc>Created with Sketch.</desc>
<g id="Page-1" sketch:type="MSPage">
</g>
<g>
	<polygon points="1.8,1.8 111.2,1.8 111.2,52.8 56.1,102 1.8,53 1.8,1.8 	"/>
	<g>
		<defs>
			<rect id="SVGID_1_" y="0" width="113" height="104.4"/>
		</defs>
		<clipPath id="SVGID_2_">
			<use xlink:href="#SVGID_1_"  style="overflow:visible;"/>
		</clipPath>
		<polygon class="st0" points="1.8,1.8 111.2,1.8 111.2,52.8 56.1,102 1.8,53 1.8,1.8 		"/>
	</g>
	<polygon points="47.2,38.6 53,48.6 58.9,58.6 47.2,58.6 35.5,58.6 41.3,48.6 47.2,38.6 	"/>
	<polygon points="36.2,47.7 39.3,53.2 42.3,58.6 36.2,58.6 30.2,58.6 33.2,53.2 36.2,47.7 	"/>
	<polygon points="55.2,27.7 63.2,43.1 71.2,58.6 55.2,58.6 39.3,58.6 47.3,43.1 55.2,27.7 	"/>
	<polygon points="73.3,43.9 78.9,51.3 84.5,58.6 73.3,58.6 62.2,58.6 67.8,51.3 73.3,43.9 	"/>
	<path class="st1" d="M43,35.2c0.5-1,1.9-1,2.5,0l6.3,11.9l6.4,12.1c0.5,1-0.2,2.2-1.2,2.2H44.2H31.5c-1.1,0-1.8-1.2-1.2-2.2
		l6.4-12.1L43,35.2L43,35.2z"/>
	<path class="st1" d="M50.4,29c0.5-1.2,1.9-1.2,2.5,0l6.3,13.9l6.4,14c0.5,1.1-0.2,2.6-1.2,2.6H51.7H38.9c-1.1,0-1.8-1.4-1.2-2.6
		l6.4-14L50.4,29L50.4,29z"/>
	<path class="st1" d="M32.2,47.6c0.6-1,1.9-1,2.6,0l4.2,6.3l3.6,5.4c0.8,1.2,0,2.8-1.3,2.8h-7.8h-7.8c-1.3,0-2.1-1.7-1.3-2.8
		l3.6-5.4L32.2,47.6L32.2,47.6z"/>
	<path class="st1" d="M57.5,17.6c0.3-0.6,1.1-0.6,1.4,0l10.5,21.6L80,61c0.3,0.5-0.1,1.1-0.7,1.1H58.2H37.1c-0.6,0-1-0.6-0.7-1.1
		L47,39.1L57.5,17.6L57.5,17.6z"/>
	<path class="st1" d="M65.5,44.7c0.3-0.6,1.2-0.6,1.6,0l4.3,8l4.4,8.2c0.3,0.6-0.1,1.3-0.8,1.3h-8.7h-8.7c-0.7,0-1.1-0.7-0.8-1.3
		l4.4-8.2L65.5,44.7L65.5,44.7z"/>
	<path class="st1" d="M74,41.5c0.5-0.8,1.6-0.8,2.1,0l6.2,9.5l5.7,8.8c0.6,1,0,2.3-1.1,2.3H75.1H63.2c-1.1,0-1.7-1.4-1.1-2.3
		l5.7-8.8L74,41.5L74,41.5z"/>
	<path d="M22.8,60.2c1.1,4.6,10.5,4.9,14.3,5.1c3.1,0.2,6.2,0.1,9.3-0.4c3.3-0.5,6.4-1.7,9.7-1.7c3.2,0,6.3,1,9.5,1.5
		c3.3,0.6,5,0.3,8-0.7c5.7-2,11,0.7,16.7,1.2c-0.1,0,0.2-4.6,0-4.6c-5.4-0.5-10.8-3.2-16.3-1.4c-2.8,0.9-4.5,1.6-7.6,1.1
		c-3.4-0.5-6.7-1.7-10.3-1.7c-6.2,0.1-12,2.4-18.3,2.1c-3.8-0.2-13.8-0.4-15-5.1C23.2,57.1,22.4,58.8,22.8,60.2L22.8,60.2L22.8,60.2
		z"/>
	<path class="st1" d="M61.6,22c4.7-2.9,10.8-1.5,13.7,3.2c2.9,4.7,1.5,10.8-3.2,13.7c-4.7,2.9-10.8,1.5-13.7-3.2
		C55.5,31.1,57,25,61.6,22L61.6,22z"/>
	<g>
		<defs>
			<rect id="SVGID_3_" y="0" width="113" height="104.4"/>
		</defs>
		<clipPath id="SVGID_4_">
			<use xlink:href="#SVGID_3_"  style="overflow:visible;"/>
		</clipPath>
		<path class="st2" d="M61.6,22c4.7-2.9,10.8-1.5,13.7,3.2c2.9,4.7,1.5,10.8-3.2,13.7c-4.7,2.9-10.8,1.5-13.7-3.2
			C55.5,31.1,57,25,61.6,22L61.6,22z"/>
	</g>
	<path class="st3" d="M63.8,24.8c1.6,3,2.3,6.3-3.2,8.4 M73,27.4c-3.3,1.6-5.2,4.1-3.3,9.1"/>
</g>
</svg>
