<?xml version="1.0" encoding="utf-8"?>
<!-- Generator: Adobe Illustrator 16.0.0, SVG Export Plug-In . SVG Version: 6.00 Build 0)  -->
<!DOCTYPE svg PUBLIC "-//W3C//DTD SVG 1.0//EN" "http://www.w3.org/TR/2001/REC-SVG-20010904/DTD/svg10.dtd">
<svg version="1.0" id="Layer_1" xmlns="http://www.w3.org/2000/svg" xmlns:xlink="http://www.w3.org/1999/xlink" x="0px" y="0px"
	 width="125.738px" height="116.301px" viewBox="0 0 125.738 116.301" enable-background="new 0 0 125.738 116.301"
	 xml:space="preserve">
<polygon points="2.081,1.913 123.609,1.913 123.575,58.561 62.359,113.255 2.081,58.824 "/>
<g>
	<defs>
		<rect id="SVGID_1_" width="125.738" height="116.301"/>
	</defs>
	<clipPath id="SVGID_2_">
		<use xlink:href="#SVGID_1_"  overflow="visible"/>
	</clipPath>
	<polygon clip-path="url(#SVGID_2_)" fill="none" stroke="#FFC303" stroke-width="4" stroke-miterlimit="10" points="2.081,1.913 
		123.609,1.913 123.575,58.561 62.359,113.255 2.081,58.824 	"/>
</g>
<polygon points="52.481,42.787 58.983,53.894 65.485,65 52.481,65 39.478,65 45.979,53.894 "/>
<polygon points="40.35,52.913 43.703,58.957 47.054,65 40.35,65 33.645,65 36.997,58.957 "/>
<polygon points="61.454,30.664 70.336,47.832 79.217,64.999 61.454,64.999 43.691,64.999 52.572,47.832 "/>
<polygon points="81.551,48.708 87.751,56.854 93.952,65 81.551,65 69.149,65 75.351,56.854 "/>
<g>
	<defs>
		<rect id="SVGID_3_" width="125.738" height="116.301"/>
	</defs>
	<clipPath id="SVGID_4_">
		<use xlink:href="#SVGID_3_"  overflow="visible"/>
	</clipPath>
	<path clip-path="url(#SVGID_4_)" fill="#FFC303" d="M47.812,39.013c0.601-1.132,2.162-1.132,2.763,0l7.041,13.253l7.124,13.409
		c0.583,1.098-0.178,2.446-1.382,2.446H49.193H35.028c-1.203,0-1.965-1.349-1.381-2.446l7.123-13.409L47.812,39.013z"/>
	<path clip-path="url(#SVGID_4_)" fill="#FFC303" d="M56.104,32.178c0.601-1.317,2.162-1.317,2.763,0L65.908,47.6l7.124,15.602
		c0.583,1.277-0.178,2.846-1.382,2.846H57.487H43.322c-1.203,0-1.965-1.568-1.381-2.846L49.063,47.6L56.104,32.178z"/>
	<path clip-path="url(#SVGID_4_)" fill="#FFC303" d="M35.803,52.764c0.713-1.071,2.154-1.071,2.867,0l4.691,7.042l4.017,6.032
		C48.25,67.146,47.409,69,45.944,69h-8.707h-8.708c-1.465,0-2.305-1.854-1.434-3.162l4.018-6.032L35.803,52.764z"/>
	<path clip-path="url(#SVGID_4_)" fill="#FFC303" d="M63.927,19.422c0.321-0.661,1.255-0.661,1.576,0L77.13,43.373l11.796,24.3
		c0.286,0.588-0.139,1.274-0.788,1.274H64.715H41.292c-0.649,0-1.073-0.687-0.788-1.274l11.796-24.3L63.927,19.422z"/>
	<path clip-path="url(#SVGID_4_)" fill="#FFC303" d="M72.858,49.539c0.373-0.691,1.363-0.691,1.736,0l4.817,8.926l4.899,9.081
		C84.667,68.203,84.19,69,83.443,69h-9.717H64.01c-0.747,0-1.223-0.797-0.868-1.454l4.9-9.081L72.858,49.539z"/>
	<path clip-path="url(#SVGID_4_)" fill="#FFC303" d="M82.295,46.055c0.586-0.905,1.798-0.905,2.384,0l6.84,10.553l6.355,9.805
		c0.699,1.08,0.006,2.587-1.192,2.587H83.486H70.292c-1.198,0-1.893-1.507-1.192-2.587l6.355-9.805L82.295,46.055z"/>
	<path clip-path="url(#SVGID_4_)" d="M25.42,66.838c1.274,5.072,11.704,5.414,15.831,5.665c3.456,0.211,6.942,0.065,10.367-0.441
		c3.617-0.535,7.155-1.837,10.829-1.88c3.591-0.041,7.013,1.086,10.512,1.722c3.663,0.666,5.597,0.375,8.933-0.796
		c6.335-2.223,12.268,0.756,18.566,1.349c-0.121-0.011,0.197-5.088,0-5.105c-6.027-0.567-12.028-3.61-18.145-1.582
		c-3.114,1.033-4.961,1.723-8.479,1.194c-3.819-0.572-7.482-1.933-11.388-1.888c-6.863,0.08-13.31,2.666-20.331,2.36
		c-4.254-0.187-15.378-0.456-16.696-5.703C25.82,63.323,25.016,65.229,25.42,66.838"/>
	<path clip-path="url(#SVGID_4_)" fill="#FFC303" d="M68.533,24.402c5.187-3.244,12.021-1.668,15.265,3.519
		c3.243,5.186,1.668,12.021-3.52,15.264c-5.187,3.244-12.021,1.668-15.265-3.518C61.771,34.48,63.346,27.646,68.533,24.402"/>
	
		<circle clip-path="url(#SVGID_4_)" fill="none" stroke="#000000" stroke-width="8" stroke-miterlimit="10" stroke-dasharray="1.311,3.119" cx="74.406" cy="33.794" r="11.076"/>
	<path clip-path="url(#SVGID_4_)" fill="none" stroke="#000000" stroke-width="0.86" stroke-miterlimit="10" d="M70.952,27.458
		c1.818,3.327,2.55,7.012-3.515,9.375"/>
	<path clip-path="url(#SVGID_4_)" fill="none" stroke="#000000" stroke-width="0.86" stroke-miterlimit="10" d="M81.172,30.347
		c-3.698,1.806-5.733,4.586-3.64,10.09"/>
</g>
</svg>
