<?xml version="1.0" standalone="no"?>
<!DOCTYPE svg PUBLIC "-//W3C//DTD SVG 20010904//EN"
 "http://www.w3.org/TR/2001/REC-SVG-20010904/DTD/svg10.dtd">
<svg version="1.0" xmlns="http://www.w3.org/2000/svg"
 width="260.000000pt" height="260.000000pt" viewBox="0 0 260.000000 260.000000"
 preserveAspectRatio="xMidYMid meet">
<metadata>
Created by potrace 1.11, written by Peter Selinger 2001-2013
</metadata>
<g transform="translate(0.000000,260.000000) scale(0.100000,-0.100000)"
fill="#000000" stroke="none">
<path d="M1775 2588 c-105 -18 -232 -100 -305 -197 -14 -18 -31 -39 -37 -46
-31 -33 -131 -242 -228 -475 -58 -140 -111 -267 -119 -283 l-13 -27 -47 41
c-116 102 -156 261 -107 429 18 62 77 166 119 209 63 64 50 91 -35 73 -118
-25 -206 -84 -272 -183 -109 -163 -116 -404 -15 -576 36 -62 132 -162 200
-209 30 -21 54 -39 54 -40 0 -2 -35 -87 -65 -159 -7 -16 -23 -54 -35 -83 -18
-41 -27 -51 -39 -46 -9 4 -50 17 -92 30 -253 76 -456 34 -606 -125 -106 -112
-154 -291 -112 -419 58 -177 253 -314 449 -315 95 0 138 7 212 37 94 38 165
86 241 163 40 40 77 73 82 73 6 0 28 -25 49 -55 94 -131 291 -299 411 -350
101 -43 155 -54 280 -54 139 0 198 12 293 61 109 55 232 198 232 271 0 29 -26
31 -133 10 -182 -35 -413 -16 -555 47 -89 40 -217 138 -310 238 -78 85 -132
149 -132 158 0 10 75 194 114 279 13 28 31 71 40 96 l18 47 101 0 c322 2 616
205 777 537 125 257 125 500 -1 686 -86 128 -241 186 -414 157z m135 -353 c53
-27 64 -121 29 -258 -67 -266 -268 -477 -486 -513 -18 -3 -33 -3 -33 -1 0 5
51 130 73 178 9 19 48 111 88 204 117 278 154 340 229 384 42 25 61 26 100 6z
m-1265 -1490 c33 -9 64 -20 69 -25 10 -10 -26 -61 -72 -106 -84 -81 -246 -101
-281 -35 -30 56 8 125 86 157 66 26 123 28 198 9z"/>
</g>
</svg>
