<?xml version="1.0" encoding="utf-8"?>
<!-- Generator: Adobe Illustrator 21.1.0, SVG Export Plug-In . SVG Version: 6.00 Build 0)  -->
<svg version="1.1" id="Layer_1" xmlns:sketch="http://www.bohemiancoding.com/sketch/ns"
	 xmlns="http://www.w3.org/2000/svg" xmlns:xlink="http://www.w3.org/1999/xlink" x="0px" y="0px" width="113px" height="106px"
	 viewBox="0 0 113 106" style="enable-background:new 0 0 113 106;" xml:space="preserve">
<style type="text/css">
	.st0{fill:#EBE71D;}
	.st1{fill:#09A3C7;}
	.st2{fill:#DA238F;}
	.st3{fill:none;stroke:#E1E432;stroke-miterlimit:10;}
	.st4{fill:none;stroke:#E1E432;stroke-width:3;stroke-miterlimit:10;}
	.st5{fill:none;stroke:#E1E432;stroke-width:2;stroke-miterlimit:10;}
	.st6{fill:none;stroke:#E1E432;stroke-width:0.75;stroke-miterlimit:10;}
	.st7{fill:none;stroke:#E1E432;stroke-width:0.6;stroke-miterlimit:10;}
</style>
<title>sunlight park</title>
<desc>Created with Sketch.</desc>
<g id="Page-1" sketch:type="MSPage">
</g>
<g>
	<polygon class="st0" points="1.3,52.8 1.3,1.3 111.7,1.3 111.6,52.6 56.1,102.7 1.3,52.8 	"/>
	<path class="st1" d="M0,0v53.4l56,51.1L113,53.2L113,0H0L0,0z M2.7,52.2V2.7h107.6l0,49.3l-54.2,48.9L2.7,52.2L2.7,52.2z"/>
	<path class="st2" d="M39.7,33.9c7.7-10.1,22.1-12,32.1-4.3c10.1,7.7,12,22.1,4.3,32.1C68.5,71.8,54.1,73.7,44,66
		C34,58.3,32,44,39.7,33.9"/>
	<path class="st3" d="M39.7,33.9c7.7-10.1,22.1-12,32.1-4.3c10.1,7.7,12,22.1,4.3,32.1C68.5,71.8,54.1,73.7,44,66
		C34,58.3,32,44,39.7,33.9L39.7,33.9z"/>
	<line class="st4" x1="77.8" y1="59.4" x2="35.3" y2="44.2"/>
	<line class="st5" x1="74.6" y1="63.6" x2="35" y2="49.5"/>
	<line class="st6" x1="66.5" y1="69.1" x2="38" y2="59"/>
	<line class="st3" x1="71" y1="67" x2="36" y2="54.6"/>
	<path class="st1" d="M68.9,36.4L25.6,21c-0.7-0.3-1.1-1.1-0.8-1.8l0.1-0.2c0.3-0.7,1.1-1.1,1.8-0.8l43.4,15.4
		c0.7,0.3,1.1,1.1,0.8,1.8l-0.1,0.2C70.5,36.2,69.7,36.6,68.9,36.4"/>
	<path class="st7" d="M68.9,36.4L25.6,21c-0.7-0.3-1.1-1.1-0.8-1.8l0.1-0.2c0.3-0.7,1.1-1.1,1.8-0.8l43.4,15.4
		c0.7,0.3,1.1,1.1,0.8,1.8l-0.1,0.2C70.5,36.2,69.7,36.6,68.9,36.4L68.9,36.4z"/>
	<path class="st1" d="M63.2,38.7l-36.7-13c-0.7-0.3-1.1-1.1-0.8-1.8l0.1-0.2c0.3-0.7,1.1-1.1,1.8-0.8l36.7,13
		c0.7,0.3,1.1,1.1,0.9,1.8L65,37.8C64.7,38.6,63.9,39,63.2,38.7"/>
	<path class="st7" d="M63.2,38.7l-36.7-13c-0.7-0.3-1.1-1.1-0.8-1.8l0.1-0.2c0.3-0.7,1.1-1.1,1.8-0.8l36.7,13
		c0.7,0.3,1.1,1.1,0.9,1.8L65,37.8C64.7,38.6,63.9,39,63.2,38.7L63.2,38.7z"/>
	<path class="st1" d="M56.7,41l-26.5-9.4c-0.7-0.3-1.1-1.1-0.9-1.8l0.1-0.2c0.3-0.7,1.1-1.1,1.8-0.8l26.5,9.4
		c0.7,0.3,1.1,1.1,0.8,1.8l-0.1,0.2C58.2,40.9,57.4,41.3,56.7,41"/>
	<path class="st7" d="M56.7,41l-26.5-9.4c-0.7-0.3-1.1-1.1-0.9-1.8l0.1-0.2c0.3-0.7,1.1-1.1,1.8-0.8l26.5,9.4
		c0.7,0.3,1.1,1.1,0.8,1.8l-0.1,0.2C58.2,40.9,57.4,41.3,56.7,41L56.7,41z"/>
	<path class="st1" d="M49.7,43.4L35,38.2c-0.7-0.3-1.1-1.1-0.8-1.8l0.1-0.2c0.3-0.7,1.1-1.1,1.8-0.8l14.7,5.2
		c0.7,0.3,1.1,1.1,0.8,1.8l-0.1,0.2C51.2,43.3,50.4,43.6,49.7,43.4"/>
	<path class="st7" d="M49.7,43.4L35,38.2c-0.7-0.3-1.1-1.1-0.8-1.8l0.1-0.2c0.3-0.7,1.1-1.1,1.8-0.8l14.7,5.2
		c0.7,0.3,1.1,1.1,0.8,1.8l-0.1,0.2C51.2,43.3,50.4,43.6,49.7,43.4L49.7,43.4z"/>
</g>
</svg>
