<svg id="Layer_1" data-name="Layer 1" xmlns="http://www.w3.org/2000/svg" width="44.36mm" height="41.03mm" viewBox="0 0 125.74 116.3"><defs><style>.cls-1{fill:#ece81a;}.cls-2{fill:#09a3c7;}.cls-3{fill:#da238f;}.cls-4,.cls-5,.cls-6,.cls-7,.cls-8,.cls-9{fill:none;}.cls-4,.cls-5,.cls-6,.cls-7,.cls-8{stroke:#e1e432;stroke-miterlimit:10;}.cls-5{stroke-width:3px;}.cls-6{stroke-width:2px;}.cls-7{stroke-width:0.75px;}.cls-8{stroke-width:0.6px;}</style></defs><title>BangBang</title><polygon class="cls-1" points="1.5 58.78 1.5 1.5 124.24 1.5 124.2 58.5 62.37 114.28 1.5 58.78"/><path class="cls-2" d="M3,58.12V3H122.74l0,54.84L62.38,112.25ZM0,0V59.45L62.37,116.3,125.7,59.17l0-59.17Z"/><path class="cls-3" d="M44.22,37.72A25.51,25.51,0,1,1,49,73.48a25.51,25.51,0,0,1-4.77-35.76"/><circle class="cls-4" cx="64.49" cy="53.22" r="25.51" transform="translate(-16.96 72.11) rotate(-52.59)"/><line class="cls-5" x1="86.54" y1="66.05" x2="39.29" y2="49.2"/><line class="cls-6" x1="83.01" y1="70.75" x2="38.94" y2="55.1"/><line class="cls-7" x1="73.98" y1="76.9" x2="42.3" y2="65.65"/><line class="cls-4" x1="79.04" y1="74.57" x2="40.11" y2="60.74"/><path class="cls-2" d="M76.72,40.46,28.47,23.36a1.56,1.56,0,0,1-.95-2l.06-.18a1.56,1.56,0,0,1,2-.95l48.25,17.1a1.56,1.56,0,0,1,.95,2l-.06.18a1.56,1.56,0,0,1-2,.95"/><path class="cls-8" d="M76.72,40.46,28.47,23.36a1.56,1.56,0,0,1-.95-2l.06-.18a1.56,1.56,0,0,1,2-.95l48.25,17.1a1.56,1.56,0,0,1,.95,2l-.06.18A1.56,1.56,0,0,1,76.72,40.46Z"/><path class="cls-2" d="M70.35,43.06,29.47,28.57a1.56,1.56,0,0,1-.94-2l.06-.18a1.56,1.56,0,0,1,2-.95L71.45,40a1.56,1.56,0,0,1,.95,2l-.06.18a1.56,1.56,0,0,1-2,.94"/><path class="cls-8" d="M70.35,43.06,29.47,28.57a1.56,1.56,0,0,1-.94-2l.06-.18a1.56,1.56,0,0,1,2-.95L71.45,40a1.56,1.56,0,0,1,.95,2l-.06.18A1.56,1.56,0,0,1,70.35,43.06Z"/><path class="cls-2" d="M63.07,45.66,33.6,35.22a1.56,1.56,0,0,1-.95-2l.06-.18a1.56,1.56,0,0,1,2-.95L64.17,42.56a1.56,1.56,0,0,1,.95,2l-.06.18a1.56,1.56,0,0,1-2,.95"/><path class="cls-8" d="M63.07,45.66,33.6,35.22a1.56,1.56,0,0,1-.95-2l.06-.18a1.56,1.56,0,0,1,2-.95L64.17,42.56a1.56,1.56,0,0,1,.95,2l-.06.18A1.56,1.56,0,0,1,63.07,45.66Z"/><path class="cls-2" d="M55.26,48.27,38.92,42.48a1.56,1.56,0,0,1-.94-2l.06-.18a1.56,1.56,0,0,1,2-.94l16.33,5.79a1.56,1.56,0,0,1,.94,2l-.06.18a1.56,1.56,0,0,1-2,.94"/><path class="cls-8" d="M55.26,48.27,38.92,42.48a1.56,1.56,0,0,1-.94-2l.06-.18a1.56,1.56,0,0,1,2-.94l16.33,5.79a1.56,1.56,0,0,1,.94,2l-.06.18A1.56,1.56,0,0,1,55.26,48.27Z"/><rect class="cls-9" width="125.74" height="116.3"/></svg>