<?xml version="1.0" encoding="utf-8"?>
<!-- Generator: Adobe Illustrator 21.1.0, SVG Export Plug-In . SVG Version: 6.00 Build 0)  -->
<svg version="1.1" id="Layer_1" xmlns:sketch="http://www.bohemiancoding.com/sketch/ns"
	 xmlns="http://www.w3.org/2000/svg" xmlns:xlink="http://www.w3.org/1999/xlink" x="0px" y="0px" width="113px" height="106px"
	 viewBox="0 0 113 106" style="enable-background:new 0 0 113 106;" xml:space="preserve">
<style type="text/css">
	.st0{fill:#60003B;}
	.st1{fill:#FAA54E;}
	.st2{clip-path:url(#SVGID_2_);fill:none;stroke:#60003B;stroke-width:14;stroke-miterlimit:10;stroke-dasharray:3.1037,1.7521;}
	.st3{fill:#20AA4D;}
	.st4{fill:none;stroke:#FAA54E;stroke-miterlimit:10;}
	.st5{fill:#FFFBF4;}
	.st6{fill:none;stroke:#60003B;stroke-width:2;stroke-miterlimit:10;}
	.st7{fill:none;stroke:#FAA54E;stroke-width:2;stroke-miterlimit:10;}
	.st8{fill:none;stroke:#FAA54E;stroke-width:1.25;stroke-linecap:round;stroke-miterlimit:10;}
	.st9{fill:none;stroke:#FAA54E;stroke-linecap:round;stroke-miterlimit:10;}
</style>
<title>sunlight park</title>
<desc>Created with Sketch.</desc>
<g id="Page-1" sketch:type="MSPage">
</g>
<g>
	<polygon class="st0" points="1.3,52.8 1.3,1.3 111.7,1.3 111.6,52.6 56.1,102.7 1.3,52.8 	"/>
	<path class="st1" d="M113,0H0v53.4l56,51.1L113,53.2L113,0L113,0L113,0z M110.3,2.7l0,49.3l-54.2,48.9L2.7,52.2V2.7H110.3"/>
	<path class="st1" d="M67.4,26.7c2.8,7.5-1,16-8.6,18.8c-7.5,2.8-16-1-18.8-8.6c-2.8-7.5,1-16,8.6-18.8
		C56.2,15.3,64.6,19.1,67.4,26.7L67.4,26.7z"/>
	<g>
		<defs>
			<rect id="SVGID_1_" y="0" width="113" height="104.5"/>
		</defs>
		<clipPath id="SVGID_2_">
			<use xlink:href="#SVGID_1_"  style="overflow:visible;"/>
		</clipPath>
		<path class="st2" d="M67.4,26.7c2.8,7.5-1,16-8.6,18.8c-7.5,2.8-16-1-18.8-8.6c-2.8-7.5,1-16,8.6-18.8
			C56.2,15.3,64.6,19.1,67.4,26.7L67.4,26.7z"/>
	</g>
	<path class="st1" d="M19.6,30.1c0,0,5.8,1.8,6,1.3c0.4-1.1,4.5,0.9,4.5,0.9v-2.2v-2.2c0,0-5.3-0.2-5.3,1.1
		C24.8,29.5,19.6,30.1,19.6,30.1L19.6,30.1z"/>
	<polygon class="st3" points="84.8,40.6 83.8,40.6 83.8,36.8 84.8,36.8 84.8,40.6 	"/>
	<path class="st0" d="M84.8,55.7c0,3.3-12.3,6-27.6,6c-15.2,0-27.6-2.7-27.6-6c0-3.3,12.3-6,27.6-6C72.4,49.8,84.8,52.4,84.8,55.7
		L84.8,55.7z"/>
	<path class="st4" d="M84.8,55.7c0,3.3-12.3,6-27.6,6c-15.2,0-27.6-2.7-27.6-6c0-3.3,12.3-6,27.6-6C72.4,49.8,84.8,52.4,84.8,55.7
		L84.8,55.7z"/>
	<path class="st0" d="M84.8,50.7c0,3.3-12.3,6-27.6,6c-15.2,0-27.6-2.7-27.6-6c0-3.3,12.3-5.9,27.6-5.9
		C72.5,44.8,84.8,47.4,84.8,50.7L84.8,50.7z"/>
	<path class="st4" d="M84.8,50.7c0,3.3-12.3,6-27.6,6c-15.2,0-27.6-2.7-27.6-6c0-3.3,12.3-5.9,27.6-5.9
		C72.5,44.8,84.8,47.4,84.8,50.7L84.8,50.7z"/>
	<path class="st0" d="M84.9,45.6c0,3.3-12.3,6-27.6,6c-15.2,0-27.6-2.7-27.6-6s12.3-6,27.6-6C72.5,39.6,84.9,42.3,84.9,45.6
		L84.9,45.6z"/>
	<path class="st4" d="M84.9,45.6c0,3.3-12.3,6-27.6,6c-15.2,0-27.6-2.7-27.6-6s12.3-6,27.6-6C72.5,39.6,84.9,42.3,84.9,45.6
		L84.9,45.6z"/>
	<path class="st5" d="M84.8,38.8c0,3.3-12.2,6-27.3,6c-15.1,0-27.3-2.7-27.3-6c0-3.3,12.2-6,27.3-6C72.6,32.8,84.8,35.5,84.8,38.8
		L84.8,38.8z"/>
	<path class="st6" d="M84.8,38.8c0,3.3-12.2,6-27.3,6c-15.1,0-27.3-2.7-27.3-6c0-3.3,12.2-6,27.3-6C72.6,32.8,84.8,35.5,84.8,38.8
		L84.8,38.8z"/>
	<path class="st0" d="M84.8,39.6c0,3.3-12.2,6-27.3,6c-15.1,0-27.3-2.7-27.3-6c0-3.3,12.2-6,27.3-6C72.6,33.7,84.8,36.4,84.8,39.6
		L84.8,39.6z"/>
	<path class="st7" d="M84.8,39.6c0,3.3-12.2,6-27.3,6c-15.1,0-27.3-2.7-27.3-6c0-3.3,12.2-6,27.3-6C72.6,33.7,84.8,36.4,84.8,39.6
		L84.8,39.6z"/>
	<path class="st4" d="M41,44.8v15.3 M57.3,45.6v15.8 M72.6,44.8v15.6"/>
	<path class="st8" d="M30,58.3c0,0,23.9,9.2,55-0.1"/>
	<path class="st0" d="M38.3,60v-3.1c0-1.3,1.1-2.4,2.4-2.4l0,0c1.3,0,2.4,1.1,2.4,2.4v3.7L38.3,60L38.3,60z"/>
	<path class="st4" d="M38.3,60v-3.1c0-1.3,1.1-2.4,2.4-2.4l0,0c1.3,0,2.4,1.1,2.4,2.4v3.7L38.3,60L38.3,60z"/>
	<path class="st0" d="M75.2,60v-3.1c0-1.3-1.1-2.4-2.4-2.4l0,0c-1.3,0-2.4,1.1-2.4,2.4v3.7L75.2,60L75.2,60z"/>
	<path class="st4" d="M75.2,60v-3.1c0-1.3-1.1-2.4-2.4-2.4l0,0c-1.3,0-2.4,1.1-2.4,2.4v3.7L75.2,60L75.2,60z"/>
	<path class="st1" d="M83.7,43.4H83c-0.1,0-0.2-0.1-0.2-0.2v-0.3c0-0.1,0.1-0.2,0.2-0.2h0.7c0.1,0,0.2,0.1,0.2,0.2v0.3
		C83.9,43.3,83.8,43.4,83.7,43.4L83.7,43.4z"/>
	<line class="st1" x1="30.2" y1="38.7" x2="30.2" y2="27.9"/>
	<line class="st9" x1="30.2" y1="38.7" x2="30.2" y2="27.9"/>
	<path class="st1" d="M74,29.6c0,0,5.8,1.8,6,1.3c0.4-1.1,4.5,0.9,4.5,0.9v-2.2v-2.2c0,0-5.3-0.2-5.3,1.1C79.3,29,74,29.6,74,29.6
		L74,29.6z"/>
	<line class="st1" x1="84.7" y1="40.9" x2="84.7" y2="27.4"/>
	<line class="st9" x1="84.7" y1="40.9" x2="84.7" y2="27.4"/>
	<path class="st1" d="M81.3,39.6c0-1.2-10.8-3.5-24-3.5c-13.2,0-23.9,2.4-23.9,3.5c0,1.2,10.6,3.6,23.8,3.6
		C70.4,43.2,81.3,40.7,81.3,39.6L81.3,39.6z"/>
	<polygon class="st0" points="49.4,43.4 50.1,43.2 48,36.1 47.3,36.3 49.4,43.4 	"/>
	<path class="st0" d="M74.6,41.6c0,1-7.6,1.9-17,1.9c-9.4,0-17-0.8-17-1.9c0-1,7.6-2.1,17-2.1C66.9,39.5,74.6,40.5,74.6,41.6
		L74.6,41.6z"/>
	<path class="st1" d="M30.1,58.8h-0.2c-0.5,0-1-0.4-1-1V38.5c0-0.5,0.4-1,1-1h0.2c0.5,0,1,0.4,1,1v19.3
		C31.1,58.4,30.7,58.8,30.1,58.8L30.1,58.8z"/>
	<path class="st1" d="M85,58.8h-0.2c-0.5,0-1-0.4-1-1V38.5c0-0.5,0.4-1,1-1H85c0.5,0,1,0.4,1,1l-0.3,19.3
		C85.7,58.1,85.7,58.6,85,58.8L85,58.8z"/>
	<path class="st1" d="M31.6,43.3h-0.4c-0.3,0-0.5-0.2-0.5-0.5v-0.1c0-0.3,0.2-0.5,0.5-0.5h0.4c0.3,0,0.5,0.2,0.5,0.5v0.1
		C32.1,43,31.9,43.3,31.6,43.3L31.6,43.3z"/>
	<path class="st4" d="M31.6,43.3h-0.4c-0.3,0-0.5-0.2-0.5-0.5v-0.1c0-0.3,0.2-0.5,0.5-0.5h0.4c0.3,0,0.5,0.2,0.5,0.5v0.1
		C32.1,43,31.9,43.3,31.6,43.3L31.6,43.3z"/>
	<path class="st1" d="M83.8,43.1h-0.4c-0.3,0-0.5-0.2-0.5-0.5v-0.1c0-0.3,0.2-0.5,0.5-0.5h0.4c0.3,0,0.5,0.2,0.5,0.5v0.1
		C84.4,42.9,84.1,43.1,83.8,43.1L83.8,43.1z"/>
	<path class="st1" d="M83.6,48.7h-0.4c-0.3,0-0.5-0.2-0.5-0.5v-0.1c0-0.3,0.2-0.5,0.5-0.5h0.4c0.3,0,0.5,0.2,0.5,0.5v0.1
		C84.2,48.5,83.9,48.7,83.6,48.7L83.6,48.7z"/>
	<path class="st1" d="M83.7,53.8h-0.4c-0.3,0-0.5-0.2-0.5-0.5v-0.1c0-0.3,0.2-0.5,0.5-0.5h0.4c0.3,0,0.5,0.2,0.5,0.5v0.1
		C84.3,53.6,84,53.8,83.7,53.8L83.7,53.8z"/>
	<path class="st1" d="M84.1,58.6h-0.4c-0.3,0-0.5-0.2-0.5-0.5V58c0-0.3,0.2-0.5,0.5-0.5h0.4c0.3,0,0.5,0.2,0.5,0.5v0.1
		C84.6,58.4,84.4,58.6,84.1,58.6L84.1,58.6z"/>
	<path class="st1" d="M31.4,48.8H31c-0.3,0-0.5-0.2-0.5-0.5v-0.1c0-0.3,0.2-0.5,0.5-0.5h0.4c0.3,0,0.5,0.2,0.5,0.5v0.1
		C31.9,48.5,31.7,48.8,31.4,48.8L31.4,48.8z"/>
	<path class="st1" d="M31.3,53.8h-0.4c-0.3,0-0.5-0.2-0.5-0.5v-0.1c0-0.3,0.2-0.5,0.5-0.5h0.4c0.3,0,0.5,0.2,0.5,0.5v0.1
		C31.8,53.6,31.6,53.8,31.3,53.8L31.3,53.8z"/>
	<polygon class="st0" points="63.8,42.5 63.1,42.2 65.2,35.1 65.9,35.3 63.8,42.5 	"/>
</g>
</svg>
