<?xml version="1.0" encoding="utf-8"?>
<!-- Generator: Adobe Illustrator 21.1.0, SVG Export Plug-In . SVG Version: 6.00 Build 0)  -->
<svg version="1.1" id="Layer_1" xmlns:sketch="http://www.bohemiancoding.com/sketch/ns"
	 xmlns="http://www.w3.org/2000/svg" xmlns:xlink="http://www.w3.org/1999/xlink" x="0px" y="0px" width="113px" height="106px"
	 viewBox="0 0 113 106" style="enable-background:new 0 0 113 106;" xml:space="preserve">
<style type="text/css">
	.st0{clip-path:url(#SVGID_2_);fill:none;stroke:#FDF7E7;stroke-width:2.8993;stroke-miterlimit:10;}
	.st1{fill:#EBE0D5;}
	.st2{fill:#BB7231;}
</style>
<g>
	<polygon points="1.3,1.3 111.7,1.3 111.7,52.9 56.1,102.8 1.3,53.2 1.3,1.3 	"/>
	<g>
		<defs>
			<rect id="SVGID_1_" y="0" width="113" height="104.5"/>
		</defs>
		<clipPath id="SVGID_2_">
			<use xlink:href="#SVGID_1_"  style="overflow:visible;"/>
		</clipPath>
		<polygon class="st0" points="1.3,1.3 111.7,1.3 111.7,52.9 56.1,102.8 1.3,53.2 1.3,1.3 		"/>
	</g>
	<path class="st1" d="M55.1,53.7c-0.2-0.1-0.5-0.2-0.6-0.4c-0.6,0.4-1,1-1.4,1.5c-0.6,0.8-1.2,1.7-2.4,1.7c-0.1,0-0.1,0-0.2,0
		c-0.4,0-0.6-0.1-0.9-0.1c-0.4-0.1-0.7-0.3-0.9-0.5c0.2,1.8,0.8,2.8,1.4,3.8c0.6,1.1,1.2,2.1,1.4,4c0.1,0.7,0.1,1.2,0,1.7
		c0,0,0,0,0,0.1c-0.2,1.8-1.3,2.6-3.3,3.4c-0.2,0.1-0.3,0.3-0.2,0.5c0.1,0.2,0.2,0.2,0.4,0.2c0,0,0.1,0,0.1,0
		c2.2-0.9,3.5-1.8,3.8-3.9c0.6-0.5,3.4-3,4-4.6c0.6-1.7-0.3-6.4-0.5-7.1C55.6,53.9,55.4,53.8,55.1,53.7L55.1,53.7z"/>
	<path class="st1" d="M71.2,24.6c0.6,0.4,1.1,0.8,1.1,1.3c0,0.3,0,0.5,0.1,0.7c0,0.8,0.1,1.5,0.9,1.8c0,0,0.1,0,0.1,0
		c0.2,0,0.3-0.1,0.4-0.3c0.1-0.2,0-0.4-0.2-0.5c-0.3-0.1-0.3-0.3-0.3-1.1c0-0.2,0-0.5-0.1-0.8c-0.1-0.8-0.8-1.3-1.5-1.8
		c-0.4-0.3-0.9-0.7-1.2-1.1c-0.1-0.2-0.4-0.2-0.5-0.1c-0.2,0.1-0.2,0.4-0.1,0.5C70.2,23.8,70.7,24.2,71.2,24.6L71.2,24.6z"/>
	<path class="st1" d="M81.6,43.7c-0.9-2.3-1.8-4.7-2.3-7c-0.2-0.8-0.4-1.6-0.6-2.3c-0.1-0.2-0.3-0.3-0.5-0.3
		c-0.2,0.1-0.3,0.3-0.3,0.5c0.2,0.7,0.4,1.4,0.6,2.2c0.5,2.4,1.4,4.8,2.3,7.2c1.6,4.1,3,7.7,1.3,9.6c-0.6,0.7-1.3,1.4-1.9,2.1
		c-2.2,2.3-4.1,4.3-4.7,5.8c-0.9-4.1,0-9.5,1.1-12.3c0.9-2.2,0-4.7-0.9-7.2c-0.1-0.3-0.2-0.5-0.3-0.8c-0.1-0.2-0.3-0.3-0.5-0.2
		c-0.2,0.1-0.3,0.3-0.2,0.5c0.1,0.3,0.2,0.5,0.3,0.8c0.9,2.5,1.7,4.7,0.9,6.7c-1.3,3.3-2.4,10.2-0.6,14.6c0,0.1,0.1,0.1,0.1,0.1
		c0.2,0.8,0.5,1.8,0.9,2.7c0.5,1.3,1,2.7,0.9,3.3c-0.1,0.6-1.3,1.4-3.6,1.5c-0.2,0-0.4,0.2-0.4,0.4c0,0.2,0.2,0.4,0.4,0.4
		c0,0,0,0,0,0c2.4-0.1,4.2-1,4.3-2.2c0.1-0.8-0.4-2.1-0.9-3.6c-0.5-1.3-1-2.9-1-3.7c0.1-1.2,2.5-3.7,4.8-6.2c0.6-0.7,1.3-1.4,2-2.1
		C84.8,51.8,83.3,48.1,81.6,43.7L81.6,43.7z"/>
	<path class="st1" d="M63.8,59.6c0.5-1,1-2.1,1.2-3.6c-0.2,0.2-0.5,0.4-0.9,0.5c-0.2,0.1-0.4,0.1-0.7,0.1c0,0-0.1,0-0.1,0
		c-1.1-0.1-1.7-0.9-2.3-1.7c-0.4-0.6-0.8-1.1-1.4-1.5c-0.2,0.1-0.4,0.2-0.6,0.4c-0.2,0.1-0.4,0.2-0.7,0.3c-0.2,0.7-1.1,5.4-0.5,7.1
		c0.6,1.7,3.4,4.1,4,4.6c0.2,1.2,0.7,2.1,1.6,2.8c0.1,0.1,0.2,0.1,0.2,0.1c0.1,0,0.2-0.1,0.3-0.2c0.1-0.2,0.1-0.4-0.1-0.6
		c-0.8-0.6-1.2-1.3-1.3-2.4c0,0,0,0,0,0c-0.1-0.5,0-1.1,0-1.7C62.7,61.8,63.2,60.7,63.8,59.6L63.8,59.6z"/>
	<path class="st1" d="M33.9,55.6c-0.6-0.7-1.3-1.4-1.9-2.1c-1.8-1.9-0.4-5.5,1.3-9.6c0.9-2.3,1.9-4.8,2.3-7.2c1.4-7,5.1-8.4,5.3-8.5
		c0.8-0.3,0.8-1,0.9-1.8c0-0.2,0-0.5,0.1-0.7c0.1-0.5,0.6-0.8,1.1-1.3c0.5-0.3,1-0.7,1.4-1.3c0.1-0.2,0.2-0.4,0.4-0.6
		c0.9-1.7,3.1-5.6,9.8-5.7h2.7h2.5c3.1,0,5.6,0.9,7.5,2.6c0.1,0.1,0.2,0.1,0.3,0.1c0.1,0,0.2,0,0.3-0.1c0.1-0.2,0.1-0.4,0-0.6
		c-2-1.8-4.7-2.7-8-2.8h-2.5h-2.7c-7.1,0.1-9.5,4.3-10.5,6.1c-0.1,0.2-0.2,0.4-0.3,0.6c-0.3,0.4-0.8,0.8-1.2,1.1
		c-0.7,0.5-1.4,1-1.5,1.8c0,0.3,0,0.5-0.1,0.8c0,0.8-0.1,1-0.3,1.1c-0.2,0.1-1.4,0.6-2.7,2.1c-1.5,1.7-2.5,4.1-3.1,7
		c-0.5,2.3-1.4,4.7-2.3,7c-1.7,4.4-3.2,8.1-1.1,10.4c0.6,0.7,1.3,1.4,2,2.1c0.7,0.8,1.4,1.5,2.1,2.2c0.1,0.1,0.2,0.1,0.3,0.1
		c0.1,0,0.2,0,0.3-0.1c0.2-0.1,0.2-0.4,0-0.6C35.3,57.1,34.6,56.4,33.9,55.6L33.9,55.6z"/>
	<path class="st1" d="M45.1,70.2c-2.7,1.1-4.7,0.9-5.7,0.7c-1.5-0.3-2.3-0.9-2.4-1.4c-0.1-0.6,0.4-2,0.9-3.3
		c0.2-0.6,0.4-1.2,0.6-1.7l0.4-1.1c1.8-4.4,0.7-11.4-0.6-14.6c-0.8-2,0-4.1,0.9-6.7c0.5-1.5,1.1-3,1.3-4.7c0-0.2-0.1-0.4-0.3-0.5
		c-0.2,0-0.4,0.1-0.5,0.3c-0.3,1.6-0.8,3.1-1.3,4.6c-0.9,2.6-1.8,5-0.9,7.2c1.3,3.2,2.3,9.8,0.6,14.1l-0.4,1.1
		c-0.2,0.6-0.4,1.1-0.6,1.7c-0.6,1.5-1,2.8-0.9,3.6c0.1,0.9,1.3,1.7,3,2c0.5,0.1,1.1,0.1,1.6,0.1c1.5,0,3-0.3,4.5-0.9
		c0.2-0.1,0.3-0.3,0.2-0.5C45.5,70.2,45.3,70.1,45.1,70.2L45.1,70.2z"/>
	<path class="st1" d="M46.8,28.5c-0.2,0.3-0.3,0.7-0.3,1.1c0,1.2,1,2.1,2.3,2.1c0.7,0,1.3-0.3,1.8-0.8c0,0.6-0.2,1.1-0.5,1.3
		c-0.2,0.1-0.2,0.4-0.1,0.5c0.1,0.1,0.2,0.2,0.3,0.2c0.1,0,0.2,0,0.2-0.1c0.8-0.6,1-2.1,0.7-3.3c0-0.1-0.1-0.1-0.1-0.2c0,0,0,0,0,0
		c-0.2-0.2-0.4-0.4-0.6-0.6c0,0.2,0.1,0.4,0.1,0.6c0,1.1-0.8,2-1.9,2c-1,0-1.9-0.9-1.9-2C46.7,29,46.7,28.7,46.8,28.5
		C46.8,28.5,46.8,28.5,46.8,28.5L46.8,28.5z"/>
	<path class="st2" d="M47.5,29.3c0,0.7,0.5,1.2,1.1,1.2c0.6,0,1.1-0.5,1.1-1.2c0-0.2-0.1-0.5-0.2-0.7c0,0.4-0.4,0.8-0.8,0.8
		c-0.5,0-0.8-0.4-0.8-0.8c0-0.1,0-0.1,0-0.2C47.6,28.6,47.5,28.9,47.5,29.3L47.5,29.3z"/>
	<path class="st1" d="M65.3,31.7c1.3,0,2.3-1,2.3-2.1c0-0.4-0.1-0.8-0.3-1.1c0,0,0,0-0.1,0c0.1,0.3,0.2,0.5,0.2,0.8
		c0,1.1-0.8,2-1.9,2c-1,0-1.9-0.9-1.9-2c0-0.2,0-0.4,0.1-0.6c-0.2,0.2-0.4,0.4-0.6,0.6c0,0,0,0,0,0c0,0.1-0.1,0.1-0.1,0.2
		c-0.3,1.2-0.2,2.8,0.7,3.3c0.1,0,0.1,0.1,0.2,0.1c0.1,0,0.2-0.1,0.3-0.2c0.1-0.2,0.1-0.4-0.1-0.5c-0.3-0.2-0.4-0.7-0.5-1.3
		C64,31.4,64.6,31.7,65.3,31.7L65.3,31.7z"/>
	<path class="st2" d="M64.4,29.3c0,0.7,0.5,1.2,1.1,1.2c0.6,0,1.1-0.5,1.1-1.2c0-0.2-0.1-0.4-0.2-0.6c-0.1,0.4-0.4,0.7-0.8,0.7
		c-0.5,0-0.8-0.4-0.8-0.8c0-0.1,0-0.2,0-0.2C64.6,28.5,64.4,28.9,64.4,29.3L64.4,29.3z"/>
	<path class="st2" d="M48.8,45c-0.3-0.7-0.6-1.3-0.9-1.8c-0.6-1-1.1-1.9-1.1-3.4c0-1-0.2-2-0.4-3c-0.1-0.5-0.3-1-0.4-1.4
		c-0.1,0-0.1,0.1-0.2,0.1c-0.3,0.3-0.2,0.8-0.2,1.3c0,0.5,0,0.9-0.1,1.2c0,0.3,0.1,0.6,0.2,1c0.3,1.6,0.6,3.2,1,4.1
		c0.4,0.6,0.8,1.3,1.3,2c0.3,0.4,0.6,0.8,0.8,1.2C48.9,45.9,48.9,45.5,48.8,45L48.8,45z"/>
	<path class="st2" d="M48.7,47.7c-0.4-0.7-0.9-1.4-1.3-2.1c-0.5-0.7-1-1.4-1.4-2.1c-0.5-0.9-0.8-2.5-1.1-4.2c0-0.3-0.1-0.5-0.1-0.8
		c-0.2,0.1-0.4,0.1-0.6,0.1c-0.2,0-0.4,0-0.7-0.1c-0.2,0-0.4-0.1-0.7-0.1c0,0.3,0.1,0.6,0.1,0.8c0,0.3,0,0.6,0,0.8
		c-0.1,1,0,4,1.7,5.9c0.9,1,2.2,1.5,3.3,2c0.2,0.1,0.5,0.2,0.7,0.3C48.7,48.1,48.7,47.9,48.7,47.7L48.7,47.7z"/>
	<path class="st2" d="M51.2,36.6c0.6-0.7,1.2-1.3,1.8-2.3c0.2-0.3,0.3-0.6,0.5-0.9c0-0.1,0.1-0.2,0.1-0.3c-0.6,0.1-1.3,0.7-2.1,1.5
		c-0.5,0.5-1.1,1.1-1.7,1.5c-0.4,0.2-0.7,0.4-1,0.4c-0.4,0-0.7-0.2-1.1-0.5c-0.3-0.2-0.6-0.4-1-0.5c0.1,0.3,0.2,0.7,0.3,1
		c0.3,1.1,0.5,2.2,0.5,3.4c0,1.3,0.5,2.1,1,3c0.1,0.1,0.1,0.2,0.2,0.4c0-0.7,0-1.4,0.2-2.3C49.2,38.8,50.2,37.8,51.2,36.6L51.2,36.6
		z"/>
	<path class="st2" d="M41.5,46.9c1.3,1.5,4.7,2.2,6.9,2.4c0-0.1,0-0.1,0-0.2c0,0,0,0,0,0c-0.3-0.1-0.6-0.3-0.8-0.4
		c-0.4-0.2-0.7-0.3-1.1-0.5c-0.9-0.4-1.7-0.9-2.4-1.7c-2-2.1-2.1-5.4-1.9-6.5c0-0.1,0-0.4,0-0.7c0-0.2-0.1-0.5-0.1-0.8
		c-0.1,0-0.1,0-0.2,0c-0.6,0.1-1,0.5-1.1,1.3c-0.1,0.6,0,1.4,0.1,2.3c0.1,1,0.2,2,0.1,3C40.9,45.8,41.1,46.4,41.5,46.9L41.5,46.9z"
		/>
	<path class="st2" d="M67.3,43.2c0.5-0.9,0.8-2.6,1.1-4.2c0-0.3,0.1-0.6,0.1-0.9c-0.2-0.4-0.1-1.2,0-1.8c0.1-0.7,0.2-1.3-0.1-1.7
		c0,0-0.1-0.1-0.1-0.1c-0.2,0.6-0.5,1.4-0.7,2.3c-0.3,1-0.4,2.1-0.4,3.1c0,1.5-0.5,2.4-1.1,3.4c-0.3,0.6-0.7,1.2-1,2
		c0,0.4,0,0.8,0,1.2c0.3-0.4,0.6-0.9,0.9-1.3C66.5,44.5,66.9,43.8,67.3,43.2L67.3,43.2z"/>
	<path class="st2" d="M69.3,46c1.8-1.9,1.9-4.9,1.7-5.9c0,0,0-0.1,0-0.1c0-0.2,0-0.5,0-0.8c-0.8,0-1.2-0.2-1.6-0.6
		c-0.1-0.1-0.2-0.1-0.3-0.2c0,0.3-0.1,0.6-0.1,0.8c-0.3,1.6-0.6,3.3-1.1,4.2c-0.4,0.7-0.9,1.4-1.4,2.1c-0.5,0.7-1.1,1.5-1.4,2.2
		c0,0.1,0,0.3,0.1,0.5c0.2-0.1,0.5-0.2,0.8-0.4C67.1,47.5,68.4,46.9,69.3,46L69.3,46z"/>
	<path class="st2" d="M65.2,43.2c0.1-0.1,0.2-0.3,0.2-0.4c0.5-0.9,1-1.7,1-3c0-1.5,0.4-3.2,0.8-4.4c0.1-0.4,0.2-0.7,0.4-1
		c-0.4,0.1-0.8,0.4-1.2,0.6c-0.6,0.4-1.3,0.8-1.9,0.8l0,0c-0.3,0-0.6-0.1-0.9-0.3c-0.6-0.4-1-0.8-1.5-1.3c-0.7-0.6-1.2-1.1-1.8-1.1
		c0,0-0.1,0-0.1,0c0,0,0,0,0,0.1c0.1,0.3,0.3,0.6,0.5,0.9c0.6,1,1.3,1.8,2,2.5c1.1,1.2,2.2,2.4,2.4,4.4
		C65.2,41.8,65.2,42.6,65.2,43.2L65.2,43.2z"/>
	<path class="st2" d="M73.5,44.9c-0.1-0.9,0-1.8,0-2.6c0.1-1.3,0.1-2.3-0.4-2.8c-0.2-0.2-0.5-0.3-0.9-0.3c-0.1,0-0.2,0-0.3,0
		c0,0.4-0.1,0.6-0.1,0.8c0,0,0,0,0,0c0.1,1.1,0,4.4-1.9,6.5c-0.6,0.7-1.4,1.1-2.1,1.5c-0.5,0.2-1,0.5-1.4,0.6
		c-0.3,0.1-0.7,0.3-1,0.4c0,0,0,0.1,0,0.2c2.3-0.3,6-1.1,7.5-2.7C73.3,46,73.5,45.5,73.5,44.9L73.5,44.9z"/>
	<path class="st1" d="M57.2,52.6h-0.5c-0.4,0-0.7,0.1-1.1,0.2c-0.1,0.1-0.3,0.1-0.4,0.2c0.4,0.2,0.9,0.4,1.5,0.4h0.3
		c0.6,0,1.1-0.2,1.5-0.4C58.3,52.7,57.8,52.6,57.2,52.6L57.2,52.6z"/>
	<path class="st1" d="M63.2,51.4c-0.2,0-0.4-0.2-0.4-0.4c0-0.2,0.2-0.4,0.4-0.4c0.2,0,0.4,0.2,0.4,0.4
		C63.6,51.2,63.4,51.4,63.2,51.4L63.2,51.4z M63,53.3c-0.2,0-0.4-0.2-0.4-0.4c0-0.2,0.2-0.4,0.4-0.4c0.2,0,0.4,0.2,0.4,0.4
		C63.4,53.2,63.2,53.3,63,53.3L63,53.3z M59.7,48.1c-0.1,0.8-1.5,1-2.2,0.5v-0.6c0-0.2-0.2-0.4-0.4-0.4c-0.2,0-0.4,0.2-0.4,0.4v0.6
		c-0.7,0.6-2.3,0.3-2.4-0.5c-0.3-2.2-3-0.8-3-3.5c0-0.2,0-0.5,0-0.7c-0.1-0.1-0.2-0.3-0.2-0.5c0-0.8,0.3-1.6,1-2.4
		c1.1-1.2,2.9-1.9,4.9-1.9c0,0,0.1,0,0.1,0c0,0,0,0,0-0.1c0-0.5,0.4-1,1-1c0.5,0,1,0.4,1,1c0,0.1,0,0.2-0.1,0.3
		c1.3,0.3,2.4,0.9,3.1,1.7c0.5,0.6,0.8,1.4,0.7,2c0,0.1-0.1,0.4-0.2,0.6c0,0.2,0.1,0.5,0.1,0.8C62.7,47.3,60.1,45.9,59.7,48.1
		L59.7,48.1z M60.9,51.6c-0.2,0-0.4-0.2-0.4-0.3c0-0.2,0.2-0.4,0.4-0.4c0.2,0,0.4,0.2,0.4,0.4C61.3,51.4,61.1,51.6,60.9,51.6
		L60.9,51.6z M52.7,51.6c-0.2,0-0.4-0.2-0.4-0.3c0-0.2,0.2-0.4,0.4-0.4c0.2,0,0.4,0.2,0.4,0.4C53.1,51.4,52.9,51.6,52.7,51.6
		L52.7,51.6z M50.7,53.3c-0.2,0-0.4-0.2-0.4-0.4c0-0.2,0.2-0.4,0.4-0.4c0.2,0,0.4,0.2,0.4,0.4C51.1,53.2,50.9,53.3,50.7,53.3
		L50.7,53.3z M50.1,51c0-0.2,0.2-0.4,0.4-0.4c0.2,0,0.4,0.2,0.4,0.4c0,0.2-0.2,0.4-0.4,0.4C50.3,51.4,50.1,51.2,50.1,51L50.1,51z
		 M55.8,36.1c0.2,0,0.4,0.2,0.4,0.4c0,0.2-0.2,0.4-0.4,0.4c-0.2,0-0.4-0.2-0.4-0.4C55.5,36.2,55.6,36.1,55.8,36.1L55.8,36.1z
		 M57.4,33.9c0.3,0,0.5,0.2,0.5,0.5c0,0.3-0.2,0.5-0.5,0.5c-0.3,0-0.5-0.2-0.5-0.5C56.9,34.1,57.1,33.9,57.4,33.9L57.4,33.9z
		 M65,52.8c0-0.1,0-0.1,0-0.2c0-0.1,0-0.1,0-0.2c0-0.1,0-0.1,0-0.2c0-0.1,0-0.1,0-0.2c0-0.1,0-0.1,0-0.2c0,0,0-0.1,0-0.1
		c0-0.1,0-0.1,0-0.2c0,0,0-0.1,0-0.1c0-0.1,0-0.1,0-0.2c0-0.1,0-0.1,0-0.2c0-0.1,0-0.1,0-0.2c0,0,0-0.1,0-0.1c0-0.1,0-0.1,0-0.2
		c0,0,0-0.1,0-0.1c0-0.1,0-0.1,0-0.2c0,0,0-0.1,0-0.1c0-0.1,0-0.1,0-0.2c0,0,0-0.1,0-0.1c0-0.1,0-0.1,0-0.2c0-0.1,0-0.1,0-0.2
		c0,0,0-0.1,0-0.1c0-0.1,0-0.2-0.1-0.3c0,0,0,0,0-0.1c0,0,0,0,0,0c0-0.1,0-0.1,0-0.2c0,0,0-0.1,0-0.1c0-0.1,0-0.1,0-0.2
		c0,0,0-0.1,0-0.1c0-0.1,0-0.1,0-0.2c0,0,0-0.1,0-0.1c0-0.1,0-0.1,0-0.2c0,0,0,0,0,0c0-0.1,0-0.2,0-0.2c-0.3-2.4,0.3-3.4-0.1-6.6
		c-0.4-3.2-3.1-3.9-4.7-7.5c0-0.1-0.1-0.1-0.1-0.2c0,0,0-0.1,0-0.1c0,0,0,0,0-0.1c0,0,0-0.1,0-0.1c0,0,0-0.1,0-0.1c0,0,0,0,0-0.1
		c0,0,0-0.1-0.1-0.1c0-0.1-0.1-0.2-0.1-0.4c0,0,0,0,0-0.1c0,0,0-0.1,0-0.1c0,0,0-0.1,0-0.1c-0.1-0.2-0.1-0.5-0.2-0.7c0,0,0,0,0,0
		c0-0.1,0-0.2-0.1-0.2c0,0,0,0,0,0c0-0.1,0-0.2-0.1-0.3c0,0,0,0,0,0c0-0.1,0-0.1,0-0.2c0,0,0,0,0-0.1c0-0.1,0-0.2,0-0.2c0,0,0,0,0,0
		c0-0.1,0-0.2,0-0.2c0,0,0,0,0,0c0-0.1,0-0.1,0-0.2c0,0,0,0,0-0.1c0-0.1,0-0.2,0-0.2c0,0,0,0,0-0.1c0-0.1,0-0.2,0-0.3c0,0,0,0,0,0
		c0-0.2-0.1-0.4-0.1-0.6c0,0,0,0,0,0c0-0.1,0-0.2,0-0.3c0,0,0,0,0-0.1c0-0.1,0-0.2,0-0.2c0,0,0,0,0-0.1c0-0.1,0-0.2,0-0.2
		c0,0,0,0,0-0.1c0-0.1,0-0.2,0-0.2c0,0,0,0,0-0.1c0-0.2,0-0.4-0.1-0.6c0,0,0,0,0,0c-0.2-2.1-0.4-4.1-0.6-5.6c0,0,0,0,0,0
		c0-0.1,0-0.1,0-0.2c0,0,0,0,0,0c0-0.1,0-0.1,0-0.2c0,0,0,0,0,0c0-0.1,0-0.1,0-0.2c0,0,0,0,0,0c0,0,0-0.1,0-0.1c0,0,0,0,0,0
		c0,0,0-0.1,0-0.1c0,0,0,0,0-0.1c0,0,0-0.1,0-0.1c0,0,0,0,0-0.1c0,0,0-0.1,0-0.1c0,0,0,0,0-0.1c0,0,0-0.1,0-0.1c0,0,0,0,0-0.1
		c0,0,0-0.1,0-0.1c0,0,0,0,0-0.1c0,0,0,0,0-0.1c0,0,0,0,0-0.1c0,0,0,0,0-0.1c0,0,0,0,0-0.1c0,0,0,0,0,0c0,0,0,0,0,0c0,0,0,0,0,0
		c0,0,0,0,0,0c0,0,0,0,0,0c0,0,0,0,0,0c0,0,0,0,0,0c0,0,0,0,0,0c0,0,0,0,0,0c0,0,0,0,0,0c0,0,0,0,0,0c0,0,0,0,0,0c0,0,0,0,0,0
		c-0.7,0-1.3,11.3-2.9,14.9c-1.7,3.6-4.1,4.1-4.4,7.2c-0.4,3.2,0.1,4.2-0.2,6.6c0,0.1,0,0.2,0,0.2c0,0,0,0.1,0,0.1c0,0,0,0.1,0,0.2
		c0,0.1,0,0.1,0,0.2c0,0,0,0.1,0,0.1c0,0.1,0,0.2,0,0.2c0,0,0,0,0,0.1c0,0,0,0.1,0,0.1c-0.1,0.3-0.1,0.6-0.2,0.9
		c-0.1,0.3-0.1,0.7-0.2,1c0,0,0,0,0,0c0,0.1,0,0.2-0.1,0.3c0,0,0,0,0,0c0,0.1,0,0.2,0,0.3c0,0,0,0,0,0.1c0,0.1,0,0.2,0,0.3
		c0,0,0,0,0,0.1c0,0.1,0,0.2,0,0.3c0,0,0,0.1,0,0.1c0,0.1,0,0.2,0,0.3c0,0,0,0.1,0,0.1c0,0.1,0,0.2,0,0.2c0,0,0,0.1,0,0.1
		c0,0.1,0,0.2,0,0.2c0,0,0,0.1,0,0.1c0,0.1,0,0.1,0,0.2c0,0,0,0.1,0,0.1c0,0.1,0,0.1,0,0.2c0,0,0,0.1,0,0.1c0,0.1,0,0.1,0,0.2
		c0,0,0,0.1,0,0.1c0,0.1,0,0.1,0,0.2c0,0,0,0.1,0,0.1c0,0.1,0,0.1,0,0.2c0,0,0,0.1,0,0.1c0,0,0,0.1,0,0.1c0,0,0,0.1,0,0.1
		c0,0,0,0.1,0.1,0.1c0,0,0,0.1,0,0.1c0,0,0,0.1,0.1,0.1c0,0,0,0.1,0.1,0.1c0,0,0.1,0.1,0.1,0.1c0,0,0,0.1,0.1,0.1
		c0,0,0.1,0.1,0.1,0.1c0,0,0.1,0,0.1,0.1c0,0,0,0,0,0c0,0,0,0,0.1,0c0,0,0.1,0,0.1,0.1c0,0,0.1,0,0.1,0.1c0,0,0.1,0,0.1,0
		c0,0,0.1,0,0.1,0c0,0,0.1,0,0.1,0c0,0,0.1,0,0.1,0c0,0,0.1,0,0.1,0c0,0,0.1,0,0.1,0c0,0,0.1,0,0.1,0c1.8-0.1,1.9-3.8,6-4h0.5
		c4.1,0.3,4.2,3.9,6,4c0,0,0.1,0,0.1,0c0,0,0.1,0,0.1,0c0,0,0.1,0,0.1,0c0,0,0.1,0,0.1,0c0,0,0.1,0,0.1,0c0,0,0.1,0,0.1,0
		c0,0,0.1,0,0.1,0c0,0,0.1,0,0.1-0.1c0,0,0.1,0,0.1-0.1c0,0,0.1,0,0.1-0.1c0,0,0.1,0,0.1-0.1c0,0,0-0.1,0.1-0.1c0,0,0-0.1,0.1-0.1
		c0,0,0-0.1,0.1-0.1c0,0,0-0.1,0.1-0.1c0,0,0-0.1,0.1-0.1c0,0,0-0.1,0.1-0.1c0,0,0-0.1,0-0.1c0,0,0-0.1,0-0.1c0,0,0-0.1,0-0.1
		c0,0,0-0.1,0-0.1c0,0,0-0.1,0-0.1c0,0,0-0.1,0-0.1c0,0,0,0,0,0c0,0,0,0,0,0c0,0,0-0.1,0-0.1c0-0.1,0-0.1,0-0.2c0,0,0-0.1,0-0.1
		c0-0.1,0-0.1,0-0.2c0,0,0-0.1,0-0.1c0-0.1,0-0.1,0-0.2c0,0,0-0.1,0-0.1c0-0.1,0-0.1,0-0.2C65,52.9,65,52.8,65,52.8L65,52.8z"/>
	<path class="st2" d="M52.6,41.8c1.2-0.8,3-0.8,4.4-0.9c1.6,0.1,3.8,0.1,4.9,1.4c0.4,0.4,0.6,0.9,0.7,1.6c0.2-0.2,0.2-0.5,0.2-0.6
		c0.1-0.7-0.1-1.4-0.7-2c-0.7-0.8-1.8-1.4-3.1-1.7c-0.6-0.1-1.2-0.2-1.9-0.2c0,0-0.1,0-0.1,0c-2,0-3.8,0.7-4.9,1.9
		c-0.7,0.7-1,1.6-1,2.4c0,0.3,0.1,0.4,0.2,0.5C51.5,42.9,52,42.2,52.6,41.8L52.6,41.8z"/>
	<path class="st1" d="M58.3,45.5c0,0.8,1.1,0.8,1.1,0c0-0.7,1-1.2,1.8-1C61.3,44.2,58.4,43,58.3,45.5L58.3,45.5z"/>
	<path class="st1" d="M52.9,44.4c0.8-0.2,1.8,0.3,1.8,1c0,0.9,1.1,0.8,1.1,0C55.7,43,52.8,44.2,52.9,44.4L52.9,44.4z"/>
	<path class="st1" d="M65.9,28.2C65.9,28.2,65.9,28.2,65.9,28.2c-0.1-0.1-0.2-0.1-0.3-0.1c-0.2,0-0.3,0-0.5,0c0,0,0,0,0,0
		c0,0.2,0.2,0.4,0.4,0.4C65.7,28.6,65.9,28.4,65.9,28.2L65.9,28.2z"/>
	<path class="st1" d="M49,28.6c0.2,0,0.4-0.2,0.4-0.4c-0.2-0.1-0.5-0.1-0.8-0.1c0,0,0,0,0,0.1C48.6,28.4,48.7,28.6,49,28.6L49,28.6z
		"/>
	<path class="st2" d="M68,27.9c0.1,0,0.2,0.1,0.2,0.1c0,0,0.1,0,0.1,0.1c0.1,0.1,0.2,0.2,0.3,0.2c0,0,0.2-2.3-4.1-3.9
		c-0.2-0.1-0.3-0.1-0.4-0.1c0,0-0.1,0-0.1,0c-0.1,0-0.2-0.1-0.3-0.1c0,0-0.1,0-0.1,0c-0.1,0-0.2,0-0.3,0c0,0-0.1,0-0.1,0
		c-0.1,0-0.2,0-0.3,0c-0.1,0-0.2,0-0.3,0c0,0,0,0-0.1,0c-0.1,0-0.1,0-0.2,0c0,0-0.1,0-0.1,0c0,0-0.1,0-0.1,0c0,0-0.1,0-0.1,0
		c0,0-0.1,0-0.1,0c0,0,0,0-0.1,0c0,0-0.1,0-0.1,0.1c0,0,0,0-0.1,0c-0.1,0-0.1,0.1-0.2,0.1c0,0,0,0,0,0c0,0-0.1,0.1-0.1,0.1
		c0,0,0,0-0.1,0.1c0,0-0.1,0.1-0.1,0.1c0,0,0,0-0.1,0.1c0,0-0.1,0.1-0.1,0.1c0,0,0,0-0.1,0.1c0,0,0,0.1-0.1,0.1c0,0,0,0,0,0.1
		c0,0-0.1,0.1-0.1,0.1c0,0,0,0,0,0.1c0,0-0.1,0.1-0.1,0.1c0,0,0,0,0,0.1c0,0,0,0.1-0.1,0.1c0,0,0,0.1,0,0.1c0,0,0,0.1,0,0.1
		c0,0,0,0.1,0,0.1c0,0,0,0.1,0,0.1c0,0,0,0.1,0,0.1c0,0,0,0.1,0,0.1c0,0,0,0,0,0.1c0,0.1,0,0.1,0,0.2c0,0,0,0.1,0,0.1
		c0,0,0,0.1,0,0.1c0,0,0,0.1,0,0.1c0,0,0,0.1,0,0.1c0,0,0,0.1,0,0.1c0,0,0,0.1,0,0.1c0,0,0,0.1,0,0.1c0,0,0,0.1,0,0.1c0,0,0,0,0,0.1
		c0,0.1,0,0.1,0,0.2c0,0,0,0,0,0.1c0,0,0,0.1,0,0.1c0,0,0,0,0,0.1c0,0,0,0.1,0,0.1c0,0,0,0,0,0.1c0,0,0,0.1,0,0.1c0,0,0,0,0,0.1
		c0,0,0,0.1,0,0.1c0,0,0,0,0,0.1c0,0,0,0.1,0,0.1c0,0.1,0,0.2,0,0.3c0,0,0,0,0,0c0,0.1,0,0.2,0,0.3c0,0,0,0,0,0c0,0.1,0,0.2,0.1,0.2
		c0,0,0,0,0,0c0,0.1,0.1,0.1,0.1,0.2c0,0,0,0,0,0c0,0.1,0.1,0.1,0.1,0.2c0,0,0,0,0,0c0,0,0.1,0.1,0.1,0.1c0,0,0,0,0,0
		c0,0,0.1,0.1,0.1,0.1c0,0,0,0,0,0c0.1,0,0.1,0,0.2,0c0,0,0.1,0,0.1,0c0,0,0,0,0,0c0,0,0.1,0,0.1,0c0,0,0,0,0,0c0,0,0.1,0,0.2-0.1
		c0,0,0,0,0,0c0.1-0.1,0.2-0.2,0.3-0.3c0,0,0,0,0,0c0.1-0.1,0.1-0.1,0.2-0.2c0,0,0,0,0,0c0.1-0.1,0.1-0.1,0.2-0.2c0,0,0,0,0,0
		c0.1-0.1,0.1-0.2,0.2-0.3c0.1-0.1,0.2-0.2,0.3-0.4c0,0,0.1-0.1,0.1-0.1c0.1-0.1,0.1-0.1,0.2-0.2c0,0,0.1-0.1,0.1-0.1
		c0.1-0.1,0.1-0.1,0.2-0.2c0.1,0,0.1-0.1,0.2-0.1c0.1,0,0.1-0.1,0.2-0.1c0.1,0,0.1,0,0.2-0.1c0.1,0,0.2-0.1,0.2-0.1
		c0.1,0,0.1,0,0.2-0.1c0.1,0,0.2,0,0.2-0.1c0.1,0,0.1,0,0.2,0c0.1,0,0.2,0,0.2,0c0.1,0,0.1,0,0.2,0c0.1,0,0.2,0,0.2,0
		c0,0,0.1,0,0.1,0c0,0,0.1,0,0.1,0c0.1,0,0.1,0,0.2,0c0.1,0,0.2,0,0.2,0c0.1,0,0.1,0,0.2,0c0.1,0,0.2,0,0.2,0c0.1,0,0.1,0,0.2,0
		c0.1,0,0.2,0,0.2,0.1c0.1,0,0.1,0,0.2,0.1c0.1,0,0.2,0.1,0.2,0.1c0.1,0,0.1,0,0.2,0.1c0.1,0,0.2,0.1,0.2,0.1
		C67.9,27.9,67.9,27.9,68,27.9L68,27.9z"/>
	<path class="st2" d="M53.6,29.8c0,0,0.1-0.1,0.1-0.2c0,0,0,0,0,0c0-0.1,0.1-0.1,0.1-0.2c0,0,0,0,0,0c0-0.1,0-0.1,0.1-0.2
		c0,0,0,0,0,0c0-0.1,0-0.2,0-0.3c0,0,0,0,0,0c0-0.1,0-0.2,0-0.3c0,0,0-0.1,0-0.1c0,0,0,0,0-0.1c0,0,0-0.1,0-0.1c0,0,0,0,0-0.1
		c0,0,0-0.1,0-0.1c0,0,0,0,0-0.1c0,0,0-0.1,0-0.1c0,0,0,0,0-0.1c0,0,0-0.1,0-0.1c0,0,0,0,0-0.1c0-0.1,0-0.1,0-0.2c0,0,0,0,0-0.1
		c0,0,0-0.1,0-0.1c0,0,0-0.1,0-0.1c0,0,0-0.1,0-0.1c0,0,0-0.1,0-0.1c0,0,0-0.1,0-0.1c0,0,0-0.1,0-0.1c0,0,0-0.1,0-0.1
		c0,0,0-0.1,0-0.1c0-0.1,0-0.1,0-0.2c0,0,0,0,0-0.1c0,0,0-0.1,0-0.1c0,0,0-0.1,0-0.1c0,0,0-0.1,0-0.1c0,0,0-0.1,0-0.1
		c0,0,0-0.1,0-0.1c0,0,0-0.1,0-0.1c0,0,0-0.1,0-0.1c0,0,0,0,0-0.1c0-0.1-0.1-0.1-0.1-0.2c0,0,0,0,0,0c0-0.1-0.1-0.1-0.1-0.2
		c0,0,0,0,0-0.1c0,0,0-0.1-0.1-0.1c0,0,0,0,0-0.1c0,0-0.1-0.1-0.1-0.1c0,0,0,0-0.1-0.1c0,0-0.1-0.1-0.1-0.1c0,0,0,0-0.1,0
		c0,0-0.1-0.1-0.1-0.1c0,0,0,0,0,0c-0.1,0-0.1-0.1-0.2-0.1c0,0,0,0,0,0c0,0-0.1,0-0.1-0.1c0,0,0,0-0.1,0c0,0-0.1,0-0.1,0
		c0,0-0.1,0-0.1,0c0,0-0.1,0-0.1,0c0,0-0.1,0-0.1,0c-0.1,0-0.1,0-0.2,0c0,0,0,0-0.1,0c-0.1,0-0.2,0-0.3,0c-0.1,0-0.2,0-0.3,0
		c0,0-0.1,0-0.1,0c-0.1,0-0.2,0-0.3,0c0,0-0.1,0-0.1,0c-0.1,0-0.2,0-0.3,0.1c0,0-0.1,0-0.1,0c-0.1,0-0.3,0.1-0.4,0.1
		c-4.3,1.6-4.1,3.9-4.1,3.9c0.1-0.1,0.2-0.2,0.3-0.2c0,0,0.1,0,0.1-0.1c0.1,0,0.2-0.1,0.2-0.1c0,0,0.1,0,0.1-0.1
		c0.1,0,0.1-0.1,0.2-0.1c0.1,0,0.1,0,0.2-0.1c0.1,0,0.2-0.1,0.2-0.1c0.1,0,0.1,0,0.2-0.1c0.1,0,0.2,0,0.2-0.1c0.1,0,0.1,0,0.2,0
		c0.1,0,0.2,0,0.2,0c0.1,0,0.1,0,0.2,0c0.1,0,0.2,0,0.2,0c0.1,0,0.1,0,0.2,0c0,0,0.1,0,0.1,0c0,0,0.1,0,0.1,0c0.1,0,0.2,0,0.2,0
		c0.1,0,0.1,0,0.2,0c0.1,0,0.2,0,0.2,0c0.1,0,0.1,0,0.2,0c0.1,0,0.2,0,0.2,0.1c0.1,0,0.1,0,0.2,0.1c0.1,0,0.2,0.1,0.2,0.1
		c0.1,0,0.1,0,0.2,0.1c0.1,0,0.1,0.1,0.2,0.1c0.1,0,0.1,0.1,0.2,0.1c0.1,0,0.1,0.1,0.2,0.2c0,0,0.1,0.1,0.1,0.1
		c0.1,0.1,0.1,0.1,0.2,0.2c0,0,0.1,0.1,0.1,0.1c0.1,0.1,0.2,0.2,0.3,0.4c0.1,0.1,0.1,0.2,0.2,0.3c0,0,0,0,0,0
		c0.1,0.1,0.1,0.2,0.2,0.2c0,0,0,0,0,0c0.1,0.1,0.1,0.1,0.2,0.2c0,0,0,0,0,0c0.1,0.1,0.2,0.2,0.3,0.3c0,0,0,0,0,0
		c0.1,0,0.1,0.1,0.2,0.1c0,0,0,0,0,0c0,0,0.1,0,0.1,0c0,0,0,0,0,0c0,0,0.1,0,0.1,0c0.1,0,0.1,0,0.2,0c0,0,0,0,0,0
		c0.1,0,0.1,0,0.1-0.1c0,0,0,0,0,0C53.5,29.9,53.5,29.9,53.6,29.8C53.6,29.8,53.6,29.8,53.6,29.8L53.6,29.8z"/>
</g>
</svg>
