<?xml version="1.0" encoding="utf-8"?>
<!-- Generator: Adobe Illustrator 16.0.0, SVG Export Plug-In . SVG Version: 6.00 Build 0)  -->
<!DOCTYPE svg PUBLIC "-//W3C//DTD SVG 1.1//EN" "http://www.w3.org/Graphics/SVG/1.1/DTD/svg11.dtd">
<svg version="1.1" id="Layer_1" xmlns="http://www.w3.org/2000/svg" xmlns:xlink="http://www.w3.org/1999/xlink" x="0px" y="0px"
	 width="113px" height="105.305px" viewBox="12.345 11.505 113 105.305" enable-background="new 12.345 11.505 113 105.305"
	 xml:space="preserve">
<polygon fill="#FDF7E7" stroke="#0D2240" stroke-width="0.8169" stroke-miterlimit="10" points="13.012,12.138 124.678,12.138 
	124.648,64.882 68.401,115.999 13.012,64.72 "/>
<rect x="60.802" y="20.687" fill="#010101" width="17.972" height="5.209"/>
<rect x="59.169" y="22.35" fill="#010101" width="22.057" height="5.209"/>
<rect x="56.718" y="24.801" fill="#010101" width="26.959" height="4.768"/>
<rect x="54.267" y="26.434" fill="#010101" width="31.86" height="3.268"/>
<rect x="54.267" y="28.885" fill="#010101" width="31.86" height="2.451"/>
<rect x="51.816" y="28.885" fill="#010101" width="35.944" height="3.268"/>
<rect x="51.816" y="32.153" fill="#010101" width="6.535" height="3.268"/>
<rect x="81.225" y="32.153" fill="#010101" width="6.535" height="3.268"/>
<rect x="67.338" y="32.153" fill="#010101" width="4.901" height="4.901"/>
<rect x="58.351" y="32.153" fill="#BE9664" width="8.986" height="2.451"/>
<rect x="72.239" y="32.153" fill="#BE9664" width="8.986" height="2.451"/>
<rect x="62.436" y="33.604" fill="#BE9664" width="4.901" height="3.451"/>
<rect x="72.239" y="33.729" fill="#BE9664" width="4.901" height="3.326"/>
<rect x="51.816" y="34.604" fill="#010101" width="10.62" height="3.268"/>
<rect x="77.14" y="34.604" fill="#010101" width="10.62" height="3.268"/>
<rect x="50.182" y="37.054" fill="#010101" width="17.155" height="4.084"/>
<rect x="72.239" y="37.054" fill="#010101" width="17.155" height="4.084"/>
<rect x="67.338" y="37.054" fill="#EBE0D5" width="4.901" height="22.057"/>
<rect x="47.732" y="41.139" fill="#010101" width="4.084" height="11.437"/>
<rect x="45.281" y="45.223" fill="#010101" width="3.268" height="13.888"/>
<rect x="87.76" y="41.139" fill="#010101" width="4.085" height="44.114"/>
<rect x="90.212" y="45.223" fill="#010101" width="4.084" height="38.395"/>
<rect x="51.816" y="40.322" fill="#BE9664" width="2.451" height="12.254"/>
<rect x="85.31" y="40.322" fill="#BE9664" width="2.45" height="12.254"/>
<rect x="63.253" y="41.139" fill="#010101" width="4.084" height="4.084"/>
<rect x="72.239" y="41.139" fill="#010101" width="4.085" height="4.084"/>
<rect x="54.267" y="41.139" fill="#010101" width="4.084" height="2.451"/>
<rect x="81.225" y="41.139" fill="#010101" width="4.085" height="2.451"/>
<rect x="58.351" y="40.322" fill="#7C451D" width="4.994" height="4.901"/>
<rect x="76.324" y="40.322" fill="#7C451D" width="4.901" height="4.901"/>
<rect x="81.225" y="41.886" fill="#010101" width="1.634" height="4.29"/>
<rect x="56.718" y="39.556" fill="#010101" width="1.634" height="6.576"/>
<rect x="54.267" y="45.223" fill="#010101" width="10.62" height="2.451"/>
<rect x="64.887" y="45.223" fill="#BE9664" width="2.451" height="2.451"/>
<rect x="72.239" y="45.223" fill="#BE9664" width="2.451" height="2.451"/>
<rect x="74.69" y="45.223" fill="#010101" width="10.62" height="2.451"/>
<rect x="74.69" y="47.675" fill="#BE9664" width="4.084" height="2.483"/>
<rect x="60.802" y="47.675" fill="#BE9664" width="4.084" height="2.826"/>
<rect x="78.774" y="47.675" fill="#010101" width="6.536" height="2.451"/>
<rect x="54.267" y="47.675" fill="#010101" width="6.536" height="2.451"/>
<rect x="76.324" y="50.125" fill="#BE9664" width="6.535" height="2.451"/>
<rect x="54.267" y="48.5" fill="#010101" width="2.451" height="5.709"/>
<rect x="82.859" y="49" fill="#010101" width="2.451" height="5.209"/>
<rect x="80.408" y="52.576" fill="#010101" width="9.804" height="35.127"/>
<rect x="87.76" y="50.942" fill="#7C451D" width="2.451" height="3.268"/>
<rect x="78.774" y="54.21" fill="#BE9664" width="5.719" height="2.451"/>
<rect x="78.774" y="51.759" fill="#BE9664" width="4.085" height="2.826"/>
<rect x="93.479" y="59.111" fill="#010101" width="2.45" height="19.606"/>
<rect x="78.774" y="72.182" fill="#010101" width="2.451" height="15.521"/>
<rect x="77.14" y="74.633" fill="#010101" width="3.268" height="8.985"/>
<rect x="72.239" y="74.633" fill="#010101" width="5.719" height="2.45"/>
<rect x="80.408" y="56.66" fill="#BE9664" width="4.085" height="2.451"/>
<rect x="49.365" y="52.576" fill="#010101" width="8.986" height="35.127"/>
<rect x="55.901" y="56.66" fill="#BE9664" width="2.451" height="11.437"/>
<rect x="54.267" y="54.085" fill="#BE9664" width="6.536" height="2.576"/>
<rect x="54.267" y="56.66" fill="#BE9664" width="4.084" height="2.451"/>
<rect x="46.915" y="52.576" fill="#010101" width="4.084" height="32.677"/>
<rect x="45.281" y="50.125" fill="#010101" width="2.451" height="33.493"/>
<rect x="43.647" y="59.111" fill="#010101" width="2.451" height="19.606"/>
<rect x="55.084" y="72.182" fill="#010101" width="5.719" height="13.888"/>
<rect x="57.534" y="74.633" fill="#010101" width="4.902" height="8.985"/>
<rect x="62.436" y="73.816" fill="#010101" width="4.901" height="3.268"/>
<rect x="64.887" y="47.675" fill="#EBE0D5" width="9.803" height="11.437"/>
<rect x="63.253" y="50.125" fill="#EBE0D5" width="13.071" height="8.986"/>
<rect x="56.718" y="50.125" fill="#BE9664" width="6.536" height="4.084"/>
<rect x="60.802" y="54.21" fill="#EBE0D5" width="4.901" height="20.423"/>
<rect x="74.69" y="52.576" fill="#EBE0D5" width="4.084" height="22.057"/>
<rect x="77.958" y="56.66" fill="#EBE0D5" width="2.45" height="15.521"/>
<rect x="58.351" y="56.66" fill="#EBE0D5" width="2.451" height="15.521"/>
<rect x="64.887" y="63.196" fill="#EBE0D5" width="7.352" height="7.352"/>
<rect x="72.239" y="63.196" fill="#EBE0D5" width="2.451" height="7.352"/>
<rect x="64.887" y="70.548" fill="#010101" width="2.451" height="4.085"/>
<rect x="67.338" y="68.097" fill="#010101" width="4.901" height="2.451"/>
<rect x="67.338" y="61.821" fill="#010101" width="4.901" height="3.826"/>
<rect x="72.239" y="70.548" fill="#010101" width="2.451" height="4.085"/>
<rect x="64.887" y="59.111" fill="#010101" width="9.803" height="4.085"/>
<rect x="80.408" y="56.66" fill="#BE9664" width="2.451" height="11.437"/>
<rect x="68.971" y="64.829" fill="#010101" width="1.634" height="3.268"/>
<rect x="51.816" y="42.773" fill="#BE9664" width="4.901" height="2.451"/>
<rect x="82.859" y="42.773" fill="#BE9664" width="4.901" height="2.451"/>
<rect x="60.802" y="42.773" fill="#EBE0D5" width="2.451" height="2.451"/>
<rect x="76.324" y="42.773" fill="#EBE0D5" width="2.45" height="2.451"/>
<rect x="49.365" y="50.942" fill="#7C451D" width="2.451" height="3.268"/>
</svg>
