<?xml version="1.0" encoding="utf-8"?>
<!-- Generator: Adobe Illustrator 21.1.0, SVG Export Plug-In . SVG Version: 6.00 Build 0)  -->
<svg version="1.1" id="Layer_1" xmlns:sketch="http://www.bohemiancoding.com/sketch/ns"
	 xmlns="http://www.w3.org/2000/svg" xmlns:xlink="http://www.w3.org/1999/xlink" x="0px" y="0px" width="113px" height="106px"
	 viewBox="0 0 113 106" style="enable-background:new 0 0 113 106;" xml:space="preserve">
<style type="text/css">
	.st0{fill:#83CBC8;}
	.st1{fill:#FFFDF9;}
</style>
<title>sunlight park</title>
<desc>Created with Sketch.</desc>
<g id="Page-1" sketch:type="MSPage">
</g>
<g>
	<polygon class="st0" points="1.1,0.9 1.1,54.5 56.6,104.8 112.1,54.5 112.1,0.9 1.1,0.9 1.1,0.9 	"/>
	<path class="st1" d="M55,46.7c1.7-0.3,3.2-0.9,4.7-1.8c1.5-1,2.8-2.1,3.7-3.6c0.6-1.1,1-2.2,1-3.4c0-1-0.6-1.8-1.6-2
		c-0.6-0.2-1.3-0.1-1.9,0.1c-1.5,0.4-2.8,1.2-3.9,2.3c-0.9,0.9-1.8,1.8-2.7,2.7c-1.4,1.4-3.1,2.3-5.2,2.3c-0.6,0-0.8,0.6-0.5,1.1
		c0.8,1.3,1.9,2,3.1,2.3C52.9,46.8,54,46.9,55,46.7L55,46.7z M59.1,31c1.1,0.3,2.2,1,3,2.3c0.3,0.5,0,1-0.5,1c0,0-0.1,0-0.1,0
		c-1.3,0.1-2.5,0.4-3.6,1.1c-0.8,0.5-1.5,1.2-2.2,1.9c-0.9,0.9-1.7,1.8-2.7,2.6c-1,0.9-2.3,1.5-3.6,1.8c-0.6,0.1-1.2,0.1-1.8-0.1
		c-0.8-0.4-1.2-1.1-1.3-2c0-1.2,0.3-2.3,0.9-3.3c1-1.6,2.4-2.9,4-3.8c1.5-0.9,3.1-1.5,4.9-1.7C56.9,30.7,57.8,30.7,59.1,31L59.1,31z
		"/>
	<path class="st1" d="M33.8,26.3h43.7v25.5H33.8V26.3L33.8,26.3z M99.1,51.7H80V26.3h9.1c0.7,0,1.2-0.6,1.2-1.2
		c0-0.7-0.6-1.3-1.2-1.3h-32V13.2c0-0.7-0.6-1.2-1.3-1.2c-0.7,0-1.3,0.6-1.3,1.2v10.6H13.8c-0.7,0-1.2,0.6-1.2,1.3
		c0,0.7,0.6,1.2,1.2,1.2h17.5v25.5h-8.7c-0.7,0-1.3,0.6-1.3,1.3c0,0.7,0.6,1.2,1.3,1.2h32v10.2c0,0.7,0.6,1.2,1.3,1.2
		c0.7,0,1.3-0.6,1.3-1.2V54.2h42c0.7,0,1.2-0.6,1.2-1.2C100.3,52.3,99.8,51.7,99.1,51.7L99.1,51.7z"/>
	<path class="st1" d="M110.8,53.7l-54.2,49.1L2.4,53.7V2.4h108.3V53.7L110.8,53.7z M0.1,0.1v54.7l56.5,51.1l56.5-51.1V0.1H0.1
		L0.1,0.1z"/>
</g>
</svg>
