<?xml version="1.0" encoding="utf-8"?>
<!-- Generator: Adobe Illustrator 16.0.0, SVG Export Plug-In . SVG Version: 6.00 Build 0)  -->
<!DOCTYPE svg PUBLIC "-//W3C//DTD SVG 1.1//EN" "http://www.w3.org/Graphics/SVG/1.1/DTD/svg11.dtd">
<svg version="1.1" id="Layer_1" xmlns:sketch="http://www.bohemiancoding.com/sketch/ns"
	 xmlns="http://www.w3.org/2000/svg" xmlns:xlink="http://www.w3.org/1999/xlink" x="0px" y="0px" width="113.167px"
	 height="106.375px" viewBox="0 0 113.167 106.375" enable-background="new 0 0 113.167 106.375" xml:space="preserve">
<title>grandstand</title>
<desc>Created with Sketch.</desc>
<path id="Path_7_" sketch:type="MSShapeGroup" fill="#83CCC8" d="M1.203,0.787v53.667l55.496,50.217l55.496-50.217V0.787H1.203
	L1.203,0.787z"/>
<path fill="#FEFCF8" d="M59.182,30.962c1.067,0.28,2.214,1.047,2.979,2.332c0.279,0.469,0.025,0.957-0.516,1.015
	c-0.043,0.006-0.086,0.004-0.127,0.006c-1.309,0.055-2.514,0.425-3.609,1.145c-0.807,0.531-1.5,1.193-2.187,1.867
	c-0.882,0.864-1.743,1.75-2.669,2.565c-1.039,0.914-2.261,1.516-3.623,1.806c-0.621,0.131-1.234,0.112-1.818-0.142
	c-0.847-0.368-1.226-1.069-1.261-1.959c-0.048-1.203,0.334-2.299,0.938-3.319c0.972-1.642,2.367-2.853,3.97-3.844
	c1.493-0.922,3.095-1.548,4.852-1.736C57.023,30.599,57.928,30.64,59.182,30.962z M55.112,46.617
	c1.692-0.258,3.23-0.905,4.659-1.827c1.485-0.958,2.787-2.11,3.705-3.647c0.629-1.051,1.02-2.175,0.965-3.415
	c-0.043-1.033-0.61-1.755-1.564-2.025c-0.637-0.182-1.27-0.107-1.901,0.062c-1.517,0.404-2.79,1.226-3.909,2.292
	c-0.914,0.869-1.785,1.78-2.689,2.658c-1.445,1.402-3.124,2.297-5.19,2.348c-0.581,0.013-0.833,0.551-0.526,1.053
	c0.772,1.256,1.902,2.015,3.143,2.341C53.012,46.761,54.06,46.775,55.112,46.617z"/>
<path fill="#FEFCF8" d="M99.174,51.65H80.068V26.19h9.143c0.689,0,1.25-0.56,1.25-1.25s-0.561-1.25-1.25-1.25H57.214V13.086
	c0-0.69-0.56-1.25-1.25-1.25s-1.25,0.56-1.25,1.25V23.69H13.872c-0.69,0-1.25,0.56-1.25,1.25s0.56,1.25,1.25,1.25h17.532v25.46
	h-8.675c-0.69,0-1.25,0.562-1.25,1.252c0,0.688,0.56,1.249,1.25,1.249h31.985v10.193c0,0.689,0.56,1.25,1.25,1.25
	s1.25-0.561,1.25-1.25V54.152h41.961c0.69,0,1.25-0.562,1.25-1.249C100.424,52.211,99.865,51.65,99.174,51.65z M33.903,26.19h43.665
	v25.46H33.903V26.19z"/>
<path fill="#FEFCF8" d="M0.232,0v54.651l56.467,51.139l56.468-51.139V0H0.232z M110.867,53.629l-54.168,49.055L2.534,53.631V2.303
	h108.333V53.629z"/>
</svg>
