<?xml version="1.0" encoding="utf-8"?>
<!-- Generator: Adobe Illustrator 21.1.0, SVG Export Plug-In . SVG Version: 6.00 Build 0)  -->
<svg version="1.1" id="Layer_1" xmlns:sketch="http://www.bohemiancoding.com/sketch/ns"
	 xmlns="http://www.w3.org/2000/svg" xmlns:xlink="http://www.w3.org/1999/xlink" x="0px" y="0px" width="113px" height="106px"
	 viewBox="0 0 113 106" style="enable-background:new 0 0 113 106;" xml:space="preserve">
<style type="text/css">
	.st0{fill:#E4CE9B;}
	.st1{clip-path:url(#SVGID_2_);fill:#E4CE9B;}
	.st2{clip-path:url(#SVGID_4_);fill:#AFA18C;}
	.st3{enable-background:new    ;}
	.st4{fill:#0D2240;}
</style>
<title>sunlight park</title>
<desc>Created with Sketch.</desc>
<g>
	<polyline class="st0" points="0,0 0,53.4 56.1,104.5 113,53.2 113,36.8 113,0 0,0 	"/>
	<g>
		<g>
			<defs>
				<polyline id="SVGID_1_" points="76.6,74.1 40.4,74.1 40.4,18.8 76.6,18.8 76.6,74.1 				"/>
			</defs>
			<clipPath id="SVGID_2_">
				<use xlink:href="#SVGID_1_"  style="overflow:visible;"/>
			</clipPath>
			<rect x="40.4" y="18.8" class="st1" width="36.2" height="55.3"/>
		</g>
		<g>
			<defs>
				<polyline id="SVGID_3_" points="76.6,74.1 40.4,74.1 40.4,18.8 76.6,18.8 76.6,74.1 				"/>
			</defs>
			<clipPath id="SVGID_4_">
				<use xlink:href="#SVGID_3_"  style="overflow:visible;"/>
			</clipPath>
			<polygon class="st2" points="76.6,48.8 66.2,40.2 48.5,40.2 48.5,26.9 73.3,26.9 73.3,18.8 40.4,18.8 40.4,48.2 51,48.2 
				63.1,48.2 68.5,52.8 68.5,61.4 63.1,66 53.9,66 48.5,61.4 48.5,55.6 40.4,55.6 40.4,64.9 50.8,74.1 66.2,74.1 76.6,64.9 			"/>
		</g>
	</g>
	<g class="st3">
		<path class="st4" d="M72.5,61.4l-10.4,9.2H46.8l-10.5-9.2v-9.2h8.1V58l5.4,4.6h9.2l5.4-4.6v-8.6l-5.4-4.6H46.9H36.3V15.4h33v8.1
			H44.4v13.3h17.7l10.4,8.6V61.4z"/>
	</g>
</g>
</svg>
