<?xml version="1.0" encoding="utf-8"?>
<!-- Generator: Adobe Illustrator 21.1.0, SVG Export Plug-In . SVG Version: 6.00 Build 0)  -->
<svg version="1.1" id="Layer_1" xmlns:sketch="http://www.bohemiancoding.com/sketch/ns"
	 xmlns="http://www.w3.org/2000/svg" xmlns:xlink="http://www.w3.org/1999/xlink" x="0px" y="0px" width="113px" height="106px"
	 viewBox="0 0 113 106" style="enable-background:new 0 0 113 106;" xml:space="preserve">
<style type="text/css">
	.st0{fill:#B2B5B6;}
	.st1{fill:#004E59;}
	.st2{fill:#004E59;stroke:#004E59;stroke-miterlimit:10;}
	.st3{fill:none;stroke:#004E59;stroke-width:0.75;stroke-miterlimit:10;}
	.st4{fill:none;stroke:#264C59;stroke-miterlimit:10;}
	.st5{fill:none;stroke:#B2B5B6;stroke-width:2;stroke-miterlimit:10;}
	.st6{fill:none;stroke:#004E59;stroke-width:2;stroke-miterlimit:10;}
	.st7{fill:none;stroke:#264C59;stroke-width:2;stroke-miterlimit:10;}
</style>
<title>sunlight park</title>
<desc>Created with Sketch.</desc>
<g>
	<polygon class="st0" points="2,52.5 2,1.9 111,1.9 111,52.3 56.1,101.8 	"/>
	<path class="st0" d="M109,3.9l0,47.4L56.1,99.1L4,51.6V3.9H109 M113.1-0.1H0v53.4l56.1,51.1L113,53.1L113.1-0.1L113.1-0.1z"/>
</g>
<polygon class="st1" points="56.5,14.5 69.2,22.7 81.9,30.9 56.5,30.9 31.1,30.9 43.8,22.7 "/>
<rect x="32.7" y="30" class="st1" width="47.7" height="34.1"/>
<rect x="73.8" y="29.2" class="st2" width="8.2" height="3.1"/>
<rect x="31.1" y="29.7" class="st2" width="8.2" height="2.6"/>
<rect x="41" y="47.5" class="st0" width="31.2" height="21.4"/>
<path class="st0" d="M41,48c0-4.6,7-8.3,15.6-8.3s15.6,3.7,15.6,8.3H41z"/>
<polygon class="st0" points="51.9,28.2 52.8,31 55.7,31 53.3,32.6 54.2,35.4 51.9,33.7 49.6,35.4 50.5,32.6 48.2,31 51,31 "/>
<polygon class="st0" points="61.3,28.2 62.2,31 65.1,31 62.7,32.6 63.6,35.4 61.3,33.7 59,35.4 59.9,32.6 57.6,31 60.4,31 "/>
<g>
	<path class="st3" d="M42.1,50c2.1,2.1,5.1,2.9,7.4,1.1c1.9-1.4,2.3-4.1,0.9-5.9c-1.1-1.5-3.2-1.8-4.8-0.7c-1,0.8-1.4,2.1-0.9,3.2
		c0.4,1,1.5,1.6,2.6,1.4"/>
	<line class="st3" x1="42.1" y1="50" x2="39.2" y2="47.1"/>
	<path class="st3" d="M42.5,56c1.3-1.3,3.3-1.8,4.8-0.7c1.2,0.9,1.5,2.6,0.6,3.8c-0.7,1-2.1,1.2-3.1,0.5c-0.7-0.5-0.9-1.4-0.6-2.1
		c0.3-0.7,1-1,1.7-0.9"/>
	<line class="st3" x1="42.5" y1="56" x2="40.7" y2="57.9"/>
	<path class="st3" d="M70.7,56.5c-1.3-1.3-3.3-1.8-4.8-0.7c-1.2,0.9-1.5,2.6-0.6,3.8c0.7,1,2.1,1.2,3.1,0.5c0.7-0.5,0.9-1.4,0.6-2.1
		c-0.3-0.7-1-1-1.7-0.9"/>
	<line class="st3" x1="70.7" y1="56.5" x2="72.6" y2="58.4"/>
	<path class="st3" d="M71.1,50c-2.1,2.1-5.1,2.9-7.4,1.1c-1.9-1.4-2.3-4.1-0.9-5.9c1.1-1.5,3.2-1.8,4.8-0.7c1,0.8,1.4,2.1,0.9,3.2
		c-0.4,1-1.5,1.6-2.6,1.4"/>
	<line class="st3" x1="71.1" y1="50" x2="74" y2="47.1"/>
</g>
<rect x="79.4" y="63.1" transform="matrix(0.7071 -0.7071 0.7071 0.7071 -21.7691 75.692)" class="st0" width="2.1" height="2.1"/>
<rect x="71.2" y="63.1" transform="matrix(0.7071 -0.7071 0.7071 0.7071 -24.1903 69.8469)" class="st0" width="2.1" height="2.1"/>
<rect x="39.9" y="63.1" transform="matrix(0.7071 -0.7071 0.7071 0.7071 -33.3293 47.7833)" class="st0" width="2.1" height="2.1"/>
<rect x="31.7" y="63.1" transform="matrix(0.7071 -0.7071 0.7071 0.7071 -35.7505 41.9382)" class="st0" width="2.1" height="2.1"/>
<path class="st4" d="M73.8,34"/>
<polyline class="st5" points="35.5,32.8 39.2,32.8 39.2,30.1 56.5,18.5 74,30 74,32.7 77.7,32.7 "/>
<line class="st6" x1="56.6" y1="28" x2="56.6" y2="62.9"/>
<line class="st7" x1="38.7" y1="62.9" x2="74.5" y2="62.9"/>
<line class="st5" x1="36.5" y1="34.7" x2="36.5" y2="61.2"/>
<line class="st5" x1="76.8" y1="34.7" x2="76.8" y2="61.2"/>
</svg>
