<?xml version="1.0" encoding="utf-8"?>
<!-- Generator: Adobe Illustrator 16.0.0, SVG Export Plug-In . SVG Version: 6.00 Build 0)  -->
<!DOCTYPE svg PUBLIC "-//W3C//DTD SVG 1.1//EN" "http://www.w3.org/Graphics/SVG/1.1/DTD/svg11.dtd">
<svg version="1.1" id="Layer_1" xmlns="http://www.w3.org/2000/svg" xmlns:xlink="http://www.w3.org/1999/xlink" x="0px" y="0px"
	 width="113px" height="105.305px" viewBox="0 0 113 105.305" enable-background="new 0 0 113 105.305" xml:space="preserve">
<g>
	<polygon fill="#FFFBED" points="0,0 0,53.424 56.048,104.519 112.969,53.177 113,0 0,0 	"/>
	<path fill="#20AA4D" d="M20.215,15.099c0,1.861-1.509,3.37-3.37,3.37v38.194c1.861,0,3.37,1.509,3.37,3.37
		c0,0.077-0.018,0.149-0.023,0.225h72.615c-0.005-0.075-0.022-0.147-0.022-0.225c0-1.861,1.508-3.37,3.369-3.37V18.244
		c-1.861,0-3.369-1.509-3.369-3.37H20.192C20.198,14.95,20.215,15.022,20.215,15.099L20.215,15.099z"/>
	
		<line fill="none" stroke="#FFFBED" stroke-linecap="round" stroke-miterlimit="3" x1="70.547" y1="18.423" x2="70.547" y2="18.804"/>
	<polyline fill="none" stroke="#FFFBED" stroke-linecap="round" stroke-miterlimit="3" stroke-dasharray="0.8449,1.9881" points="
		70.547,20.591 70.547,33.775 70.547,55.342 	"/>
	
		<line fill="none" stroke="#FFFBED" stroke-linecap="round" stroke-miterlimit="3" x1="70.547" y1="56.236" x2="70.547" y2="56.616"/>
	<path fill="#FFFBED" d="M41.291,46.05c0.503-0.012,0.994-0.34,1.471-0.989c0.477-0.647,0.913-1.519,1.309-2.614
		c-0.125-0.199-0.278-0.333-0.459-0.402c-0.206-0.083-0.439-0.095-0.702-0.039c-0.263,0.056-0.527,0.175-0.792,0.354
		c-0.266,0.18-0.521,0.413-0.767,0.702c-0.246,0.287-0.454,0.615-0.626,0.98c-0.114,0.25-0.19,0.497-0.226,0.744
		c-0.037,0.248-0.035,0.464,0.005,0.652c0.04,0.187,0.127,0.337,0.262,0.449C40.9,46.001,41.076,46.054,41.291,46.05L41.291,46.05z
		 M46.874,40.733c-0.113,0.277-0.241,0.574-0.385,0.888c-0.143,0.315-0.286,0.63-0.428,0.943c-0.143,0.315-0.28,0.618-0.412,0.911
		c-0.131,0.292-0.249,0.548-0.352,0.768c-0.103,0.234-0.199,0.464-0.29,0.691c-0.091,0.227-0.158,0.431-0.202,0.613
		s-0.053,0.331-0.026,0.446c0.026,0.115,0.118,0.17,0.274,0.167c0.215-0.004,0.459-0.082,0.732-0.231
		c0.272-0.151,0.543-0.353,0.814-0.606c0.27-0.251,0.524-0.541,0.763-0.864c0.239-0.323,0.443-0.669,0.616-1.035
		c0.114-0.235,0.234-0.393,0.358-0.476c0.124-0.082,0.229-0.096,0.314-0.04c0.084,0.056,0.135,0.167,0.151,0.333
		c0.015,0.167-0.028,0.374-0.13,0.623c-0.194,0.453-0.48,0.927-0.859,1.421c-0.379,0.494-0.779,0.943-1.202,1.352
		c-0.423,0.408-0.844,0.747-1.264,1.017c-0.419,0.271-0.767,0.408-1.042,0.415c-0.396,0.009-0.734-0.085-1.013-0.282
		c-0.281-0.197-0.444-0.512-0.489-0.945c-0.256,0.339-0.562,0.639-0.915,0.9c-0.354,0.262-0.759,0.396-1.214,0.407
		c-0.467,0.011-0.86-0.136-1.179-0.44c-0.318-0.305-0.538-0.709-0.657-1.213c-0.119-0.504-0.125-1.076-0.021-1.716
		c0.106-0.64,0.349-1.289,0.73-1.95c0.357-0.616,0.766-1.128,1.224-1.537c0.458-0.408,0.92-0.698,1.384-0.868
		c0.464-0.169,0.913-0.211,1.346-0.127c0.434,0.085,0.811,0.312,1.131,0.68c0.091-0.204,0.174-0.369,0.25-0.494
		c0.076-0.125,0.16-0.225,0.254-0.299c0.094-0.075,0.204-0.132,0.329-0.17c0.125-0.04,0.277-0.083,0.456-0.13
		c0.191-0.033,0.37-0.06,0.538-0.077c0.167-0.019,0.299-0.003,0.396,0.044c0.097,0.049,0.153,0.142,0.168,0.279
		C47.037,40.269,46.987,40.469,46.874,40.733L46.874,40.733z"/>
	<path fill="#FFFBED" d="M58.674,43.184c0.114-0.234,0.234-0.392,0.358-0.475c0.124-0.082,0.228-0.096,0.313-0.04
		c0.085,0.056,0.136,0.167,0.151,0.333c0.016,0.167-0.028,0.374-0.13,0.623c-0.194,0.453-0.48,0.927-0.859,1.421
		c-0.378,0.493-0.779,0.943-1.201,1.352c-0.422,0.408-0.844,0.747-1.263,1.017c-0.42,0.27-0.767,0.407-1.043,0.414
		c-0.287,0.007-0.549-0.039-0.785-0.134s-0.425-0.254-0.568-0.477c-0.143-0.221-0.224-0.501-0.244-0.842
		c-0.019-0.34,0.055-0.75,0.225-1.231c0.136-0.366,0.312-0.779,0.529-1.24c0.218-0.461,0.406-0.889,0.565-1.284
		c0.159-0.394,0.25-0.721,0.275-0.983c0.024-0.261-0.09-0.382-0.341-0.362c-0.204,0.02-0.451,0.228-0.742,0.625
		c-0.291,0.398-0.591,0.889-0.902,1.475c-0.311,0.587-0.605,1.209-0.885,1.868c-0.279,0.657-0.508,1.257-0.688,1.796
		c-0.113,0.321-0.547,0.491-1.301,0.507c-0.18,0.003-0.305-0.051-0.373-0.166c-0.068-0.114-0.09-0.274-0.064-0.477
		c0.025-0.204,0.079-0.451,0.163-0.742c0.084-0.291,0.188-0.605,0.312-0.94c0.136-0.366,0.312-0.779,0.53-1.241
		c0.217-0.46,0.406-0.888,0.565-1.283c0.159-0.394,0.25-0.721,0.275-0.983c0.024-0.261-0.089-0.381-0.341-0.362
		c-0.204,0.02-0.463,0.228-0.778,0.626c-0.314,0.399-0.643,0.891-0.983,1.477c-0.34,0.587-0.663,1.21-0.965,1.869
		c-0.303,0.658-0.544,1.257-0.724,1.796c-0.101,0.321-0.189,0.548-0.264,0.679c-0.075,0.133-0.178,0.2-0.31,0.203l-0.449,0.01
		c-0.288,0.006-0.487-0.047-0.597-0.161s-0.127-0.337-0.051-0.672c0.089-0.335,0.171-0.649,0.249-0.94
		c0.078-0.29,0.179-0.604,0.303-0.939c0.157-0.483,0.3-0.917,0.429-1.304c0.129-0.386,0.252-0.744,0.372-1.072
		c0.118-0.329,0.235-0.635,0.348-0.92c0.114-0.285,0.222-0.566,0.324-0.844c0.102-0.277,0.208-0.497,0.318-0.659
		c0.11-0.161,0.229-0.291,0.359-0.388s0.269-0.165,0.418-0.206c0.149-0.039,0.325-0.075,0.529-0.108
		c0.311-0.036,0.478,0.04,0.5,0.227c0.022,0.188-0.052,0.516-0.221,0.983c0.339-0.398,0.685-0.725,1.039-0.979
		c0.354-0.254,0.717-0.385,1.088-0.393c0.959-0.022,1.4,0.411,1.324,1.296c0.339-0.399,0.685-0.726,1.04-0.979
		c0.354-0.255,0.716-0.386,1.088-0.394c0.455-0.011,0.785,0.113,0.988,0.37c0.204,0.255,0.311,0.598,0.319,1.024
		c0.011,0.427-0.069,0.908-0.237,1.438c-0.168,0.534-0.39,1.071-0.665,1.612c-0.116,0.22-0.221,0.443-0.318,0.669
		c-0.097,0.228-0.164,0.436-0.202,0.624c-0.038,0.189-0.041,0.341-0.008,0.457c0.032,0.115,0.126,0.17,0.282,0.167
		c0.229-0.005,0.475-0.083,0.742-0.232c0.266-0.151,0.534-0.353,0.805-0.605c0.271-0.252,0.525-0.54,0.763-0.864
		C58.297,43.896,58.502,43.551,58.674,43.184L58.674,43.184z"/>
	<path fill="#FFFBED" d="M59.762,43.594c0.394-0.096,0.801-0.26,1.222-0.494c0.419-0.234,0.779-0.608,1.081-1.122
		c0.208-0.352,0.258-0.632,0.151-0.84c-0.106-0.206-0.288-0.29-0.545-0.248c-0.257,0.042-0.553,0.24-0.887,0.595
		c-0.333,0.354-0.63,0.911-0.889,1.67L59.762,43.594L59.762,43.594z M62.702,43.181c-0.375,0.429-0.831,0.79-1.37,1.084
		s-1.083,0.499-1.631,0.612c0.066,0.318,0.194,0.558,0.384,0.72s0.394,0.262,0.61,0.3c0.312,0.066,0.659,0.033,1.04-0.099
		c0.381-0.131,0.76-0.328,1.138-0.589c0.378-0.263,0.74-0.579,1.085-0.949c0.346-0.369,0.646-0.774,0.898-1.215
		c0.14-0.22,0.277-0.368,0.414-0.444c0.136-0.075,0.246-0.084,0.331-0.029c0.086,0.057,0.13,0.164,0.134,0.324
		c0.004,0.159-0.058,0.355-0.185,0.591c-0.346,0.63-0.729,1.204-1.148,1.72c-0.42,0.516-0.86,0.956-1.319,1.322
		c-0.46,0.365-0.937,0.65-1.429,0.857c-0.493,0.207-0.979,0.315-1.459,0.326c-0.552,0.012-1.021-0.111-1.411-0.371
		c-0.391-0.259-0.679-0.614-0.869-1.067c-0.189-0.452-0.271-0.988-0.243-1.612c0.028-0.623,0.184-1.287,0.469-1.988
		c0.192-0.497,0.443-0.976,0.75-1.439c0.308-0.462,0.652-0.851,1.035-1.164c0.382-0.312,0.789-0.525,1.218-0.636
		c0.429-0.111,0.862-0.062,1.298,0.145c0.327,0.167,0.578,0.386,0.752,0.657c0.175,0.271,0.271,0.573,0.291,0.907
		c0.02,0.332-0.037,0.678-0.166,1.035C63.188,42.537,62.983,42.871,62.702,43.181L62.702,43.181z"/>
	<path fill="#FFFBED" d="M31.458,21.128c0.12-0.304,0.233-0.527,0.341-0.672c0.107-0.144,0.218-0.239,0.332-0.282
		c0.113-0.043,0.236-0.061,0.368-0.054c0.132,0.008,0.281,0.011,0.448,0.011c0.168,0,0.356,0.004,0.565,0.011
		s0.383,0.073,0.521,0.195c0.138,0.123,0.204,0.326,0.197,0.607c-0.006,0.282-0.134,0.697-0.386,1.246
		c-0.167,0.362-0.392,0.821-0.673,1.376c-0.281,0.557-0.583,1.146-0.906,1.767c-0.323,0.622-0.655,1.254-0.996,1.897
		c-0.341,0.643-0.655,1.232-0.942,1.767c-0.287,0.534-0.538,0.99-0.754,1.365c-0.215,0.376-0.359,0.615-0.431,0.715
		c-0.215,0.304-0.455,0.542-0.718,0.715c-0.263,0.173-0.581,0.26-0.951,0.26s-0.544-0.159-0.521-0.477
		c0.024-0.317,0.198-0.831,0.521-1.539c0.084-0.187,0.209-0.466,0.377-0.834c0.167-0.369,0.356-0.784,0.565-1.247
		c0.209-0.461,0.433-0.96,0.673-1.496c0.239-0.534,0.479-1.062,0.718-1.582c-0.239,0.073-0.497,0.108-0.771,0.108
		c-0.275,0-0.542-0.051-0.799-0.152c-0.257-0.101-0.496-0.268-0.718-0.498c-0.221-0.231-0.404-0.542-0.547-0.932
		c-0.215-0.607-0.218-1.272-0.009-1.994c0.209-0.722,0.598-1.388,1.167-1.994c0.568-0.607,1.307-1.102,2.216-1.485
		c0.909-0.382,1.962-0.531,3.159-0.445c1.328,0.087,2.398,0.441,3.212,1.063c0.814,0.621,1.391,1.405,1.732,2.351
		c0.341,0.947,0.464,2.005,0.368,3.176c-0.096,1.169-0.383,2.354-0.861,3.554c-0.407,1.04-0.934,2.012-1.58,2.916
		c-0.646,0.903-1.388,1.687-2.225,2.351c-0.837,0.666-1.762,1.189-2.772,1.572c-1.011,0.383-2.085,0.567-3.221,0.553
		c-0.73,0-1.409-0.148-2.037-0.444c-0.628-0.296-1.167-0.687-1.615-1.171c-0.449-0.484-0.792-1.037-1.032-1.659
		c-0.24-0.62-0.341-1.257-0.306-1.907c0.048-0.751,0.219-1.38,0.512-1.886c0.293-0.505,0.631-0.91,1.014-1.214
		c0.383-0.303,0.774-0.516,1.176-0.639c0.4-0.123,0.733-0.166,0.996-0.13c0.263,0.036,0.416,0.14,0.458,0.314
		c0.042,0.173-0.099,0.397-0.421,0.671c-0.359,0.304-0.644,0.676-0.853,1.116c-0.209,0.442-0.341,0.896-0.395,1.366
		c-0.054,0.47-0.033,0.936,0.062,1.398c0.096,0.463,0.263,0.875,0.503,1.236c0.239,0.361,0.553,0.65,0.942,0.867
		c0.388,0.217,0.852,0.318,1.39,0.304c0.694-0.015,1.37-0.192,2.028-0.531c0.658-0.34,1.283-0.788,1.875-1.344
		c0.592-0.556,1.133-1.203,1.624-1.939c0.49-0.737,0.909-1.518,1.256-2.341c0.479-1.128,0.811-2.182,0.996-3.165
		s0.2-1.843,0.045-2.58c-0.155-0.737-0.493-1.33-1.014-1.778c-0.521-0.448-1.248-0.693-2.18-0.736
		c-0.646-0.044-1.209,0.029-1.687,0.217c-0.479,0.188-0.871,0.437-1.176,0.748c-0.305,0.311-0.529,0.657-0.672,1.04
		c-0.144,0.383-0.21,0.752-0.198,1.105c0.012,0.354,0.102,0.676,0.269,0.965c0.167,0.289,0.407,0.484,0.718,0.585
		c0.239-0.521,0.446-0.99,0.619-1.41C31.228,21.663,31.362,21.345,31.458,21.128L31.458,21.128z"/>
	<path fill="#FFFBED" d="M41.651,30.08c0.502,0,0.999-0.317,1.489-0.954c0.491-0.636,0.945-1.496,1.364-2.58
		c-0.12-0.202-0.269-0.339-0.448-0.412c-0.204-0.087-0.437-0.104-0.7-0.054c-0.264,0.051-0.529,0.162-0.799,0.336
		c-0.269,0.173-0.529,0.401-0.781,0.683c-0.251,0.281-0.466,0.604-0.646,0.964c-0.12,0.246-0.2,0.491-0.242,0.737
		c-0.042,0.246-0.045,0.462-0.009,0.65c0.036,0.188,0.12,0.339,0.251,0.455C41.263,30.022,41.436,30.08,41.651,30.08L41.651,30.08z
		 M47.34,24.9c-0.12,0.274-0.254,0.567-0.404,0.877c-0.15,0.312-0.299,0.621-0.449,0.932c-0.15,0.312-0.293,0.611-0.431,0.899
		c-0.138,0.29-0.26,0.542-0.368,0.759c-0.107,0.231-0.209,0.459-0.305,0.683s-0.167,0.426-0.215,0.606s-0.06,0.329-0.036,0.444
		c0.024,0.116,0.113,0.173,0.269,0.173c0.215,0,0.46-0.072,0.736-0.216c0.275-0.144,0.55-0.34,0.826-0.585
		c0.275-0.246,0.535-0.528,0.781-0.845c0.245-0.318,0.458-0.657,0.637-1.019c0.12-0.231,0.242-0.386,0.368-0.466
		c0.125-0.079,0.23-0.09,0.314-0.033c0.083,0.058,0.131,0.17,0.144,0.336c0.012,0.167-0.036,0.372-0.144,0.618
		c-0.204,0.448-0.5,0.914-0.889,1.398s-0.798,0.925-1.229,1.322c-0.431,0.398-0.859,0.727-1.283,0.986
		c-0.425,0.261-0.774,0.391-1.05,0.391c-0.395,0-0.73-0.101-1.005-0.304c-0.275-0.202-0.431-0.521-0.467-0.954
		c-0.263,0.333-0.574,0.626-0.933,0.879c-0.359,0.252-0.766,0.379-1.221,0.379c-0.466,0-0.855-0.155-1.166-0.466
		c-0.312-0.311-0.521-0.719-0.628-1.225c-0.108-0.506-0.102-1.076,0.018-1.712c0.12-0.635,0.377-1.279,0.771-1.929
		c0.371-0.606,0.79-1.108,1.256-1.506c0.467-0.397,0.934-0.676,1.4-0.834c0.467-0.159,0.916-0.191,1.346-0.098
		s0.801,0.328,1.113,0.704c0.095-0.202,0.182-0.364,0.26-0.487c0.078-0.123,0.164-0.22,0.26-0.293
		c0.096-0.072,0.207-0.126,0.332-0.163c0.126-0.036,0.278-0.075,0.458-0.119c0.191-0.029,0.371-0.05,0.539-0.065
		c0.167-0.014,0.299,0.003,0.395,0.054c0.096,0.051,0.149,0.145,0.161,0.282C47.514,24.441,47.459,24.64,47.34,24.9L47.34,24.9z"/>
	<path fill="#FFFBED" d="M47.609,34.133c0.334,0,0.72-0.159,1.157-0.477c0.437-0.318,0.894-0.867,1.373-1.647
		c-0.359-0.087-0.721-0.13-1.086-0.13c-0.365,0-0.709,0.072-1.032,0.217c-0.382,0.159-0.669,0.35-0.861,0.574
		c-0.191,0.224-0.299,0.444-0.323,0.661s0.03,0.405,0.162,0.564C47.13,34.054,47.334,34.133,47.609,34.133L47.609,34.133z
		 M51.808,24.9c-0.634,1.069-1.113,1.944-1.436,2.622c-0.323,0.68-0.538,1.211-0.646,1.594c-0.107,0.383-0.129,0.647-0.063,0.791
		c0.066,0.145,0.171,0.217,0.314,0.217c0.227,0,0.434-0.079,0.619-0.238c0.185-0.159,0.365-0.368,0.538-0.629
		c0.173-0.26,0.341-0.56,0.502-0.9c0.162-0.338,0.326-0.689,0.494-1.051c0.143-0.375,0.275-0.718,0.395-1.029
		c0.12-0.311,0.245-0.618,0.377-0.921c0.108-0.274,0.207-0.491,0.296-0.65c0.09-0.159,0.186-0.281,0.288-0.368
		c0.101-0.087,0.215-0.148,0.341-0.185c0.125-0.036,0.29-0.075,0.493-0.119c0.191-0.029,0.371-0.05,0.539-0.065
		c0.167-0.014,0.299,0.003,0.395,0.054c0.096,0.051,0.149,0.145,0.161,0.282c0.012,0.138-0.042,0.336-0.161,0.596
		c-0.12,0.274-0.251,0.567-0.395,0.877c-0.144,0.312-0.287,0.621-0.431,0.932c-0.144,0.312-0.287,0.611-0.431,0.899
		c-0.144,0.29-0.269,0.542-0.377,0.759c-0.191,0.347-0.368,0.719-0.529,1.116s-0.326,0.806-0.494,1.224
		c0.646-0.304,1.265-0.7,1.857-1.191c0.592-0.492,1.146-1.128,1.661-1.908c0.119-0.188,0.248-0.321,0.385-0.401
		c0.138-0.079,0.252-0.098,0.341-0.054c0.089,0.043,0.137,0.141,0.143,0.292c0.006,0.151-0.062,0.358-0.206,0.618
		c-0.299,0.563-0.634,1.058-1.005,1.485c-0.372,0.427-0.763,0.802-1.176,1.127c-0.413,0.325-0.84,0.611-1.283,0.856
		s-0.885,0.455-1.328,0.628c-0.347,0.736-0.739,1.412-1.176,2.026s-0.99,1.065-1.66,1.355c-0.574,0.245-1.085,0.354-1.534,0.325
		c-0.449-0.029-0.832-0.145-1.148-0.347c-0.317-0.203-0.557-0.474-0.718-0.812c-0.161-0.339-0.236-0.698-0.224-1.073
		s0.116-0.744,0.314-1.105c0.197-0.362,0.5-0.679,0.907-0.954c0.287-0.174,0.592-0.326,0.915-0.456
		c-0.071-0.434-0.036-0.989,0.108-1.668c0.203-0.81,0.458-1.565,0.763-2.265c0.305-0.702,0.613-1.312,0.924-1.832
		c0.144-0.246,0.272-0.447,0.386-0.607c0.114-0.159,0.227-0.286,0.341-0.379s0.239-0.162,0.377-0.206
		c0.137-0.043,0.308-0.086,0.511-0.13c0.191-0.029,0.365-0.047,0.521-0.055c0.155-0.007,0.275,0.019,0.359,0.077
		c0.084,0.058,0.117,0.152,0.099,0.282S51.952,24.654,51.808,24.9L51.808,24.9z"/>
	<path fill="#FFFBED" d="M34.886,37.807c1.202-0.099,2.521-0.354,3.699-0.973c1.25-0.623,1.416-2.109,0.374-2.083
		C37.987,34.774,36.201,36.267,34.886,37.807L34.886,37.807z M31.833,51.406c-1.188,0.38-3.066,1.422-3.396,2.895
		c-0.09,0.373,0.014,0.717,0.356,0.701C29.89,54.951,31.255,52.541,31.833,51.406L31.833,51.406z M64.957,48.463
		c-2.417,1.457-4.999,2.466-10.036,5.675c-5.222-2.829-14.64-2.965-21.098-2.912c-0.952,2.002-2.259,3.736-3.855,5.046
		c-2.619,2.164-5.294-0.062-3.329-3.153c1.275-2.037,3.831-2.805,5.831-3.156c0.065-0.155,0.563-1.07,0.611-1.203
		c0.033-0.067,0.048-0.133,0.112-0.309c-0.702,0.401-1.498,0.721-2.144,0.75c-1.868,0.085-2.73-1.072-2.942-2.562
		c-0.296-2.161,0.722-4.708,2.273-6.996c-1.709,0.012-3.211-0.159-4.056-0.555l2.357-2.37c0.856,0.614,1.898,0.979,3.04,1.145
		c1.04-1.265,3.068-3.357,5.037-4.404c1.212-0.642,3.275-1.192,4.059,0.62c0.363,0.853,0.179,1.949-0.521,2.785
		c-1.314,1.561-4.638,2.473-6.633,2.542c-1.741,2.472-3.048,5.401-2.585,6.859c0.167,0.513,0.453,0.849,1.009,0.824
		c1.221-0.056,2.797-1.802,3.897-3.744l0.466-0.826l-1.706,0.078c0.484-0.849,1.063-1.94,1.21-2.272
		c0.3,0.247,0.947,0.239,1.54,0.212l1.994-0.091c-1.473,2.829-3.468,6.442-4.885,9.312L64.957,48.463L64.957,48.463z"/>
	<path fill="#FFFBED" d="M78.498,39.384c0-0.073,0.001-0.147,0.002-0.221c0.062-4.729,2.183-5.214,4.791-5.214
		c2.647,0,4.791,0.603,4.791,5.435c0,4.832-4.791,8.748-4.791,8.748S78.498,44.216,78.498,39.384L78.498,39.384z"/>
	<path fill="none" stroke="#20AA4D" stroke-width="0.8" stroke-miterlimit="10" d="M78.498,39.384c0-0.073,0.001-0.147,0.002-0.221
		c0.062-4.729,2.183-5.214,4.791-5.214c2.647,0,4.791,0.603,4.791,5.435c0,4.832-4.791,8.748-4.791,8.748
		S78.498,44.216,78.498,39.384L78.498,39.384z"/>
	<polygon fill="#FFFBED" points="84.09,29.97 82.532,29.97 82.532,25.584 84.09,25.584 84.09,29.97 	"/>
	<polygon fill="none" stroke="#20AA4D" stroke-width="0.8" stroke-miterlimit="10" points="84.09,29.97 82.532,29.97 82.532,25.584 
		84.09,25.584 84.09,29.97 	"/>
	<path fill="#FFFBED" d="M87.501,39.749c-0.012-0.038-0.023-0.075-0.035-0.113c-0.779-2.409-1.619-2.361-2.558-1.998
		c-0.951,0.367-1.627,0.973-0.854,3.442c0.773,2.47,3.125,3.806,3.125,3.806S88.274,42.218,87.501,39.749L87.501,39.749z"/>
	<path fill="none" stroke="#20AA4D" stroke-width="0.8" stroke-miterlimit="10" d="M87.501,39.749
		c-0.012-0.038-0.023-0.075-0.035-0.113c-0.779-2.409-1.619-2.361-2.558-1.998c-0.951,0.367-1.627,0.973-0.854,3.442
		c0.773,2.47,3.125,3.806,3.125,3.806S88.274,42.218,87.501,39.749L87.501,39.749z"/>
	<path fill="#FFFBED" d="M78.999,39.749c0.013-0.038,0.023-0.075,0.035-0.113c0.779-2.409,1.62-2.361,2.558-1.998
		c0.953,0.367,1.626,0.973,0.854,3.442c-0.771,2.47-3.123,3.806-3.123,3.806S78.226,42.218,78.999,39.749L78.999,39.749z"/>
	<path fill="none" stroke="#20AA4D" stroke-width="0.8" stroke-miterlimit="10" d="M78.999,39.749
		c0.013-0.038,0.023-0.075,0.035-0.113c0.779-2.409,1.62-2.361,2.558-1.998c0.953,0.367,1.626,0.973,0.854,3.442
		c-0.771,2.47-3.123,3.806-3.123,3.806S78.226,42.218,78.999,39.749L78.999,39.749z"/>
	<path fill="#FFFBED" d="M89.004,36.189c-0.021-0.048-0.043-0.096-0.065-0.145c-1.411-3.079-2.559-2.841-3.797-2.16
		c-1.257,0.692-2.101,1.647-0.69,4.811c1.412,3.163,4.83,4.474,4.83,4.474S90.415,39.352,89.004,36.189L89.004,36.189z"/>
	<path fill="none" stroke="#20AA4D" stroke-width="0.8" stroke-miterlimit="10" d="M89.004,36.189
		c-0.021-0.048-0.043-0.096-0.065-0.145c-1.411-3.079-2.559-2.841-3.797-2.16c-1.257,0.692-2.101,1.647-0.69,4.811
		c1.412,3.163,4.83,4.474,4.83,4.474S90.415,39.352,89.004,36.189L89.004,36.189z"/>
	<path fill="#FFFBED" d="M77.619,35.923c0.022-0.048,0.043-0.096,0.066-0.145c1.41-3.079,2.558-2.842,3.796-2.16
		c1.257,0.692,2.101,1.647,0.69,4.811c-1.411,3.163-4.83,4.474-4.83,4.474S76.208,39.086,77.619,35.923L77.619,35.923z"/>
	<path fill="none" stroke="#20AA4D" stroke-width="0.8" stroke-miterlimit="10" d="M77.619,35.923
		c0.022-0.048,0.043-0.096,0.066-0.145c1.41-3.079,2.558-2.842,3.796-2.16c1.257,0.692,2.101,1.647,0.69,4.811
		c-1.411,3.163-4.83,4.474-4.83,4.474S76.208,39.086,77.619,35.923L77.619,35.923z"/>
	<path fill="#FFFBED" d="M80.481,37.222c0-0.048,0.001-0.097,0.001-0.145c0.036-3.112,1.28-3.43,2.809-3.43
		c1.55,0,2.808,0.396,2.808,3.575c0,3.178-2.808,5.754-2.808,5.754S80.481,40.4,80.481,37.222L80.481,37.222z"/>
	<path fill="none" stroke="#20AA4D" stroke-width="0.8" stroke-miterlimit="10" d="M80.481,37.222c0-0.048,0.001-0.097,0.001-0.145
		c0.036-3.112,1.28-3.43,2.809-3.43c1.55,0,2.808,0.396,2.808,3.575c0,3.178-2.808,5.754-2.808,5.754S80.481,40.4,80.481,37.222
		L80.481,37.222z"/>
	<path fill="#FFFBED" d="M76.774,32.969c0.021-0.048,0.043-0.096,0.064-0.145c1.411-3.079,2.56-2.842,3.799-2.16
		c1.257,0.692,2.099,1.647,0.688,4.811c-1.41,3.163-4.828,4.474-4.828,4.474S75.363,36.132,76.774,32.969L76.774,32.969z"/>
	<path fill="none" stroke="#20AA4D" stroke-width="0.8" stroke-miterlimit="10" d="M76.774,32.969
		c0.021-0.048,0.043-0.096,0.064-0.145c1.411-3.079,2.56-2.842,3.799-2.16c1.257,0.692,2.099,1.647,0.688,4.811
		c-1.41,3.163-4.828,4.474-4.828,4.474S75.363,36.132,76.774,32.969L76.774,32.969z"/>
	<path fill="#FFFBED" d="M89.736,32.969c-0.021-0.048-0.042-0.096-0.063-0.145c-1.411-3.079-2.56-2.842-3.799-2.16
		c-1.256,0.692-2.099,1.647-0.688,4.811s4.829,4.474,4.829,4.474S91.148,36.132,89.736,32.969L89.736,32.969z"/>
	<path fill="none" stroke="#20AA4D" stroke-width="0.8" stroke-miterlimit="10" d="M89.736,32.969
		c-0.021-0.048-0.042-0.096-0.063-0.145c-1.411-3.079-2.56-2.842-3.799-2.16c-1.256,0.692-2.099,1.647-0.688,4.811
		s4.829,4.474,4.829,4.474S91.148,36.132,89.736,32.969L89.736,32.969z"/>
	<path fill="#FFFBED" d="M79.166,32.488c0.022-0.048,0.043-0.097,0.064-0.145c1.411-3.079,2.56-2.842,3.799-2.16
		c1.257,0.691,2.099,1.647,0.689,4.81c-1.412,3.163-4.83,4.474-4.83,4.474S77.755,35.65,79.166,32.488L79.166,32.488z"/>
	<path fill="none" stroke="#20AA4D" stroke-width="0.8" stroke-miterlimit="10" d="M79.166,32.488
		c0.022-0.048,0.043-0.097,0.064-0.145c1.411-3.079,2.56-2.842,3.799-2.16c1.257,0.691,2.099,1.647,0.689,4.81
		c-1.412,3.163-4.83,4.474-4.83,4.474S77.755,35.65,79.166,32.488L79.166,32.488z"/>
	<path fill="#FFFBED" d="M87.801,32.488c-0.023-0.048-0.044-0.097-0.066-0.145c-1.41-3.079-2.559-2.842-3.798-2.16
		c-1.256,0.691-2.099,1.647-0.689,4.81c1.411,3.163,4.829,4.474,4.829,4.474S89.211,35.65,87.801,32.488L87.801,32.488z"/>
	<path fill="none" stroke="#20AA4D" stroke-width="0.8" stroke-miterlimit="10" d="M87.801,32.488
		c-0.023-0.048-0.044-0.097-0.066-0.145c-1.41-3.079-2.559-2.842-3.798-2.16c-1.256,0.691-2.099,1.647-0.689,4.81
		c1.411,3.163,4.829,4.474,4.829,4.474S89.211,35.65,87.801,32.488L87.801,32.488z"/>
	<path fill="#FFFBED" d="M89.325,30.129c-0.029-0.038-0.058-0.074-0.089-0.109c-1.789-2.171-10.001-2.203-11.851,0.041
		c-0.03,0.037-0.059,0.073-0.089,0.109c-1.934,2.397-1.416,5.762-1.416,5.762s2.771-0.397,4.763-2.084
		c0.703,2.436,2.64,4.154,2.64,4.154s1.889-1.811,2.641-4.243c1.997,1.728,4.818,2.132,4.818,2.132S91.259,32.526,89.325,30.129
		L89.325,30.129z"/>
	<path fill="none" stroke="#20AA4D" stroke-width="0.8" stroke-miterlimit="10" d="M89.325,30.129
		c-0.029-0.038-0.058-0.074-0.089-0.109c-1.789-2.171-10.001-2.203-11.851,0.041c-0.03,0.037-0.059,0.073-0.089,0.109
		c-1.934,2.397-1.416,5.762-1.416,5.762s2.771-0.397,4.763-2.084c0.703,2.436,2.64,4.154,2.64,4.154s1.889-1.811,2.641-4.243
		c1.997,1.728,4.818,2.132,4.818,2.132S91.259,32.526,89.325,30.129L89.325,30.129z"/>
</g>
</svg>
