<?xml version="1.0" encoding="utf-8"?>
<!-- Generator: Adobe Illustrator 21.1.0, SVG Export Plug-In . SVG Version: 6.00 Build 0)  -->
<svg version="1.1" id="Layer_1" xmlns:sketch="http://www.bohemiancoding.com/sketch/ns"
	 xmlns="http://www.w3.org/2000/svg" xmlns:xlink="http://www.w3.org/1999/xlink" x="0px" y="0px" width="113px" height="106px"
	 viewBox="0 0 113 106" style="enable-background:new 0 0 113 106;" xml:space="preserve">
<style type="text/css">
	.st0{fill:#20AA4D;}
	.st1{fill:#FFFBF4;}
	.st2{clip-path:url(#SVGID_2_);fill:none;stroke:#20AA4D;stroke-width:14;stroke-miterlimit:10;stroke-dasharray:3.1037,1.7521;}
	.st3{fill:none;stroke:#FFFBF4;stroke-miterlimit:10;}
	.st4{fill:none;stroke:#20AA4D;stroke-width:2;stroke-miterlimit:10;}
	.st5{fill:none;stroke:#FFFBF4;stroke-width:2;stroke-miterlimit:10;}
	.st6{fill:none;stroke:#FFFBF4;stroke-width:1.25;stroke-linecap:round;stroke-miterlimit:10;}
	.st7{fill:none;stroke:#FFFBF4;stroke-linecap:round;stroke-miterlimit:10;}
	.st8{fill:none;stroke:#FFFEFB;stroke-miterlimit:10;}
	.st9{fill:#FFFEFB;}
</style>
<title>sunlight park</title>
<desc>Created with Sketch.</desc>
<g id="Page-1" sketch:type="MSPage">
</g>
<g>
	<polygon class="st0" points="1.3,52.7 1.3,1.3 111.1,1.3 111.1,52.4 55.8,102.4 1.3,52.7 	"/>
	<path class="st1" d="M112.5,0H0v53.3l55.8,50.9L112.4,53L112.5,0L112.5,0L112.5,0z M109.8,2.7l0,49.1l-54,48.8L2.7,52.1V2.7H109.8"
		/>
	<path class="st1" d="M67.1,26.6c2.8,7.5-1,15.9-8.5,18.7c-7.5,2.8-15.9-1-18.7-8.5c-2.8-7.5,1-15.9,8.5-18.7
		C55.9,15.2,64.3,19,67.1,26.6L67.1,26.6z"/>
	<g>
		<defs>
			<rect id="SVGID_1_" y="0" width="112.5" height="104.2"/>
		</defs>
		<clipPath id="SVGID_2_">
			<use xlink:href="#SVGID_1_"  style="overflow:visible;"/>
		</clipPath>
		<path class="st2" d="M67.1,26.6c2.8,7.5-1,15.9-8.5,18.7c-7.5,2.8-15.9-1-18.7-8.5c-2.8-7.5,1-15.9,8.5-18.7
			C55.9,15.2,64.3,19,67.1,26.6L67.1,26.6z"/>
	</g>
	<path class="st1" d="M19.5,30c0,0,5.8,1.8,6,1.3c0.4-1.1,4.5,0.9,4.5,0.9V30v-2.2c0,0-5.2-0.2-5.2,1.1C24.7,29.4,19.5,30,19.5,30
		L19.5,30z"/>
	<polygon class="st0" points="84.4,40.4 83.4,40.4 83.4,36.7 84.4,36.7 84.4,40.4 	"/>
	<path class="st0" d="M84.4,55.5c0,3.3-12.3,5.9-27.4,5.9c-15.2,0-27.4-2.7-27.4-5.9c0-3.3,12.3-5.9,27.4-5.9
		C72.1,49.6,84.4,52.3,84.4,55.5L84.4,55.5z"/>
	<path class="st3" d="M84.4,55.5c0,3.3-12.3,5.9-27.4,5.9c-15.2,0-27.4-2.7-27.4-5.9c0-3.3,12.3-5.9,27.4-5.9
		C72.1,49.6,84.4,52.3,84.4,55.5L84.4,55.5z"/>
	<path class="st0" d="M84.4,50.6c0,3.3-12.3,5.9-27.4,5.9c-15.2,0-27.4-2.7-27.4-5.9c0-3.3,12.3-5.9,27.4-5.9
		C72.1,44.6,84.4,47.3,84.4,50.6L84.4,50.6z"/>
	<path class="st3" d="M84.4,50.6c0,3.3-12.3,5.9-27.4,5.9c-15.2,0-27.4-2.7-27.4-5.9c0-3.3,12.3-5.9,27.4-5.9
		C72.1,44.6,84.4,47.3,84.4,50.6L84.4,50.6z"/>
	<path class="st0" d="M84.5,45.4c0,3.3-12.3,5.9-27.4,5.9c-15.2,0-27.4-2.7-27.4-5.9c0-3.3,12.3-5.9,27.4-5.9
		C72.2,39.5,84.5,42.2,84.5,45.4L84.5,45.4z"/>
	<path class="st3" d="M84.5,45.4c0,3.3-12.3,5.9-27.4,5.9c-15.2,0-27.4-2.7-27.4-5.9c0-3.3,12.3-5.9,27.4-5.9
		C72.2,39.5,84.5,42.2,84.5,45.4L84.5,45.4z"/>
	<path class="st1" d="M84.4,38.7c0,3.3-12.2,5.9-27.2,5.9c-15,0-27.1-2.7-27.1-5.9c0-3.3,12.2-5.9,27.1-5.9
		C72.2,32.7,84.4,35.4,84.4,38.7L84.4,38.7z"/>
	<path class="st4" d="M84.4,38.7c0,3.3-12.2,5.9-27.2,5.9c-15,0-27.1-2.7-27.1-5.9c0-3.3,12.2-5.9,27.1-5.9
		C72.2,32.7,84.4,35.4,84.4,38.7L84.4,38.7z"/>
	<path class="st0" d="M84.4,39.5c0,3.3-12.2,5.9-27.2,5.9c-15,0-27.1-2.7-27.1-5.9c0-3.3,12.2-5.9,27.1-5.9
		C72.2,33.6,84.4,36.2,84.4,39.5L84.4,39.5z"/>
	<path class="st5" d="M84.4,39.5c0,3.3-12.2,5.9-27.2,5.9c-15,0-27.1-2.7-27.1-5.9c0-3.3,12.2-5.9,27.1-5.9
		C72.2,33.6,84.4,36.2,84.4,39.5L84.4,39.5z"/>
	<path class="st3" d="M40.8,44.6v15.2 M57.1,45.4v15.7 M72.3,44.6v15.5"/>
	<path class="st6" d="M29.8,58.1c0,0,23.8,9.2,54.8-0.1"/>
	<path class="st0" d="M38.1,59.8v-3.1c0-1.3,1.1-2.4,2.4-2.4l0,0c1.3,0,2.4,1.1,2.4,2.4v3.7L38.1,59.8L38.1,59.8z"/>
	<path class="st3" d="M38.1,59.8v-3.1c0-1.3,1.1-2.4,2.4-2.4l0,0c1.3,0,2.4,1.1,2.4,2.4v3.7L38.1,59.8L38.1,59.8z"/>
	<path class="st0" d="M74.9,59.8v-3.1c0-1.3-1.1-2.4-2.4-2.4l0,0c-1.3,0-2.4,1.1-2.4,2.4v3.7L74.9,59.8L74.9,59.8z"/>
	<path class="st3" d="M74.9,59.8v-3.1c0-1.3-1.1-2.4-2.4-2.4l0,0c-1.3,0-2.4,1.1-2.4,2.4v3.7L74.9,59.8L74.9,59.8z"/>
	<path class="st1" d="M83.4,43.2h-0.5c-0.1,0-0.2-0.1-0.2-0.2v-0.2c0-0.1,0.1-0.2,0.2-0.2h0.5c0.1,0,0.2,0.1,0.2,0.2V43
		C83.6,43.1,83.5,43.2,83.4,43.2L83.4,43.2z"/>
	<line class="st7" x1="30.1" y1="38.6" x2="30.1" y2="27.8"/>
	<path class="st1" d="M73.7,29.5c0,0,5.8,1.8,6,1.3c0.4-1.1,4.5,0.9,4.5,0.9v-2.2v-2.2c0,0-5.2-0.2-5.2,1.1
		C78.9,28.9,73.7,29.5,73.7,29.5L73.7,29.5z"/>
	<line class="st7" x1="84.3" y1="40.8" x2="84.3" y2="27.3"/>
	<path class="st1" d="M80.9,39.5c0-1.2-10.7-3.5-23.9-3.5c-13.2,0-23.8,2.4-23.8,3.5c0,1.2,10.5,3.6,23.7,3.6
		C70.1,43.1,80.9,40.6,80.9,39.5L80.9,39.5z"/>
	<polygon class="st0" points="49.1,43.3 49.9,43.1 47.8,36 47.1,36.2 49.1,43.3 	"/>
	<path class="st0" d="M74.2,41.4c0,1-7.6,1.9-17,1.9c-9.4,0-17-0.8-17-1.9c0-1,7.6-2.1,17-2.1C66.6,39.4,74.2,40.4,74.2,41.4
		L74.2,41.4z"/>
	<path class="st1" d="M30,58.6h-0.2c-0.5,0-1-0.4-1-1V38.4c0-0.5,0.4-1,1-1H30c0.5,0,1,0.4,1,1v19.3C31,58.2,30.6,58.6,30,58.6
		L30,58.6z"/>
	<path class="st1" d="M84.6,58.6h-0.2c-0.5,0-1-0.4-1-1V38.4c0-0.5,0.4-1,1-1h0.2c0.5,0,1,0.4,1,1l-0.3,19.2
		C85.3,58,85.3,58.5,84.6,58.6L84.6,58.6z"/>
	<path class="st1" d="M31.5,43.1h-0.4c-0.3,0-0.5-0.2-0.5-0.5v-0.1c0-0.3,0.2-0.5,0.5-0.5h0.4c0.3,0,0.5,0.2,0.5,0.5v0.1
		C32,42.9,31.8,43.1,31.5,43.1L31.5,43.1z"/>
	<path class="st8" d="M31.5,43.1h-0.4c-0.3,0-0.5-0.2-0.5-0.5v-0.1c0-0.3,0.2-0.5,0.5-0.5h0.4c0.3,0,0.5,0.2,0.5,0.5v0.1
		C32,42.9,31.8,43.1,31.5,43.1L31.5,43.1z"/>
	<path class="st1" d="M83.5,43h-0.4c-0.3,0-0.5-0.2-0.5-0.5v-0.1c0-0.3,0.2-0.5,0.5-0.5h0.4c0.3,0,0.5,0.2,0.5,0.5v0.1
		C84,42.8,83.7,43,83.5,43L83.5,43z"/>
	<path class="st1" d="M83.3,48.6h-0.4c-0.3,0-0.5-0.2-0.5-0.5v-0.1c0-0.3,0.2-0.5,0.5-0.5h0.4c0.3,0,0.5,0.2,0.5,0.5V48
		C83.8,48.3,83.6,48.6,83.3,48.6L83.3,48.6z"/>
	<path class="st1" d="M83.4,53.6H83c-0.3,0-0.5-0.2-0.5-0.5V53c0-0.3,0.2-0.5,0.5-0.5h0.4c0.3,0,0.5,0.2,0.5,0.5v0.1
		C83.9,53.4,83.7,53.6,83.4,53.6L83.4,53.6z"/>
	<path class="st1" d="M83.7,58.5h-0.4c-0.3,0-0.5-0.2-0.5-0.5v-0.1c0-0.3,0.2-0.5,0.5-0.5h0.4c0.3,0,0.5,0.2,0.5,0.5v0.1
		C84.3,58.2,84,58.5,83.7,58.5L83.7,58.5z"/>
	<path class="st9" d="M31.2,48.6h-0.4c-0.3,0-0.5-0.2-0.5-0.5V48c0-0.3,0.2-0.5,0.5-0.5h0.4c0.3,0,0.5,0.2,0.5,0.5v0.1
		C31.8,48.4,31.5,48.6,31.2,48.6L31.2,48.6z"/>
	<path class="st9" d="M31.2,53.6h-0.4c-0.3,0-0.5-0.2-0.5-0.5V53c0-0.3,0.2-0.5,0.5-0.5h0.4c0.3,0,0.5,0.2,0.5,0.5v0.1
		C31.7,53.4,31.5,53.6,31.2,53.6L31.2,53.6z"/>
	<polygon class="st0" points="63.5,42.3 62.8,42.1 64.9,35 65.6,35.2 63.5,42.3 	"/>
</g>
</svg>
