<?xml version="1.0" encoding="utf-8"?>
<!-- Generator: Adobe Illustrator 16.0.0, SVG Export Plug-In . SVG Version: 6.00 Build 0)  -->
<!DOCTYPE svg PUBLIC "-//W3C//DTD SVG 1.1//EN" "http://www.w3.org/Graphics/SVG/1.1/DTD/svg11.dtd">
<svg version="1.1" id="Layer_1" xmlns="http://www.w3.org/2000/svg" xmlns:xlink="http://www.w3.org/1999/xlink" x="0px" y="0px"
	 width="113px" height="105.305px" viewBox="0 0 113 105.305" enable-background="new 0 0 113 105.305" xml:space="preserve">
<g>
	<polyline fill="#20AA4D" points="0.396,0 0.396,52.385 55.354,102.487 111.168,52.143 111.198,0 0.396,0 	"/>
	<path fill="#FFFBED" d="M20.218,14.805c0,1.825-1.479,3.305-3.305,3.305v37.452c1.825,0,3.305,1.479,3.305,3.305l-0.022,0.22
		h71.204l-0.023-0.22c0-1.825,1.479-3.305,3.305-3.305V17.89c-1.825,0-3.305-1.479-3.305-3.305h-71.18L20.218,14.805"/>
	<polyline fill="#FEFAED" points="69.571,55.516 69.571,18.065 69.571,33.118 69.571,55.516 	"/>
	
		<line fill="none" stroke="#20AA4D" stroke-linecap="round" stroke-miterlimit="3" x1="69.571" y1="18.065" x2="69.571" y2="18.439"/>
	<polyline fill="none" stroke="#20AA4D" stroke-linecap="round" stroke-miterlimit="3" stroke-dasharray="0.8449,1.9881" points="
		69.571,20.191 69.571,33.118 69.571,54.266 	"/>
	
		<line fill="none" stroke="#20AA4D" stroke-linecap="round" stroke-miterlimit="3" x1="69.571" y1="55.142" x2="69.571" y2="55.516"/>
	<path fill="#20AA4D" d="M40.884,45.154c0.494-0.011,0.974-0.333,1.442-0.97c0.468-0.634,0.895-1.49,1.283-2.563
		c-0.123-0.195-0.272-0.327-0.45-0.395c-0.202-0.081-0.431-0.093-0.688-0.038s-0.517,0.171-0.777,0.348
		c-0.261,0.176-0.511,0.404-0.751,0.688c-0.241,0.281-0.445,0.604-0.614,0.961c-0.112,0.244-0.186,0.487-0.222,0.729
		c-0.036,0.243-0.034,0.456,0.005,0.64c0.039,0.183,0.125,0.331,0.257,0.44C40.501,45.107,40.673,45.159,40.884,45.154
		L40.884,45.154z M46.358,39.941c-0.111,0.272-0.237,0.563-0.377,0.871c-0.14,0.309-0.28,0.618-0.42,0.925
		c-0.14,0.309-0.275,0.605-0.404,0.893c-0.128,0.287-0.244,0.538-0.345,0.753c-0.101,0.23-0.195,0.455-0.284,0.678
		c-0.089,0.222-0.155,0.422-0.198,0.601c-0.043,0.179-0.052,0.325-0.025,0.437c0.025,0.113,0.115,0.167,0.269,0.164
		c0.21-0.004,0.45-0.08,0.717-0.227c0.267-0.148,0.533-0.346,0.798-0.594c0.265-0.247,0.514-0.53,0.748-0.848
		c0.234-0.317,0.435-0.656,0.604-1.015c0.112-0.23,0.229-0.386,0.351-0.466c0.122-0.08,0.225-0.094,0.308-0.039
		c0.083,0.055,0.132,0.165,0.148,0.326c0.015,0.164-0.027,0.367-0.127,0.611c-0.19,0.444-0.471,0.909-0.842,1.393
		c-0.372,0.484-0.764,0.925-1.178,1.325c-0.415,0.4-0.828,0.732-1.239,0.998c-0.411,0.265-0.752,0.4-1.022,0.406
		c-0.388,0.008-0.719-0.083-0.993-0.276c-0.275-0.193-0.435-0.501-0.479-0.927c-0.252,0.332-0.551,0.626-0.897,0.883
		c-0.347,0.256-0.744,0.389-1.191,0.399c-0.458,0.01-0.843-0.133-1.156-0.432c-0.312-0.298-0.527-0.695-0.644-1.189
		c-0.117-0.494-0.123-1.055-0.02-1.682c0.104-0.627,0.342-1.264,0.716-1.912c0.35-0.604,0.751-1.106,1.201-1.507
		c0.45-0.4,0.902-0.684,1.356-0.851c0.455-0.166,0.895-0.208,1.32-0.125c0.425,0.083,0.794,0.306,1.109,0.667
		c0.089-0.2,0.17-0.361,0.245-0.483c0.074-0.123,0.157-0.221,0.249-0.293c0.093-0.073,0.2-0.129,0.323-0.167
		c0.123-0.039,0.272-0.082,0.447-0.127c0.187-0.033,0.363-0.059,0.527-0.076c0.164-0.018,0.293-0.002,0.389,0.044
		c0.096,0.048,0.15,0.139,0.165,0.273C46.519,39.487,46.47,39.683,46.358,39.941L46.358,39.941z"/>
	<path fill="#20AA4D" d="M57.929,42.344c0.112-0.23,0.23-0.385,0.352-0.466c0.122-0.08,0.224-0.094,0.307-0.039
		c0.084,0.055,0.134,0.165,0.149,0.326c0.016,0.164-0.027,0.367-0.128,0.611c-0.189,0.444-0.471,0.909-0.842,1.394
		c-0.371,0.483-0.765,0.925-1.178,1.325c-0.414,0.4-0.827,0.732-1.239,0.998c-0.412,0.264-0.752,0.399-1.023,0.405
		c-0.282,0.007-0.539-0.038-0.77-0.132S53.14,46.517,53,46.3c-0.14-0.217-0.22-0.491-0.239-0.825
		c-0.019-0.334,0.054-0.736,0.22-1.208c0.133-0.359,0.307-0.764,0.519-1.216c0.213-0.452,0.398-0.872,0.555-1.259
		c0.156-0.386,0.245-0.707,0.27-0.964c0.023-0.256-0.088-0.374-0.334-0.355c-0.2,0.02-0.442,0.224-0.727,0.613
		c-0.285,0.39-0.58,0.872-0.885,1.446c-0.305,0.576-0.594,1.186-0.868,1.832c-0.273,0.645-0.498,1.232-0.674,1.761
		c-0.111,0.315-0.536,0.481-1.276,0.498c-0.176,0.003-0.298-0.05-0.366-0.163c-0.067-0.112-0.088-0.269-0.063-0.467
		c0.025-0.2,0.078-0.442,0.16-0.728c0.083-0.285,0.184-0.593,0.306-0.922c0.133-0.359,0.306-0.764,0.519-1.217
		c0.213-0.451,0.398-0.871,0.555-1.258c0.155-0.386,0.246-0.707,0.269-0.963c0.024-0.257-0.088-0.375-0.334-0.355
		c-0.199,0.019-0.453,0.224-0.762,0.613c-0.309,0.392-0.63,0.874-0.964,1.448c-0.334,0.576-0.65,1.187-0.947,1.833
		c-0.297,0.646-0.534,1.232-0.71,1.762c-0.099,0.315-0.186,0.537-0.259,0.666c-0.074,0.13-0.175,0.196-0.304,0.199l-0.44,0.011
		c-0.282,0.006-0.478-0.047-0.585-0.158c-0.108-0.111-0.125-0.331-0.05-0.659c0.087-0.329,0.167-0.636,0.243-0.922
		c0.077-0.285,0.176-0.593,0.297-0.921c0.154-0.474,0.294-0.898,0.421-1.278c0.127-0.379,0.248-0.73,0.365-1.052
		c0.116-0.323,0.23-0.622,0.341-0.902c0.112-0.28,0.217-0.555,0.317-0.828c0.1-0.271,0.204-0.487,0.312-0.646
		c0.108-0.158,0.225-0.286,0.352-0.38c0.127-0.095,0.264-0.162,0.41-0.202c0.146-0.038,0.319-0.074,0.519-0.106
		c0.305-0.035,0.468,0.04,0.49,0.223c0.021,0.185-0.051,0.506-0.217,0.964c0.333-0.391,0.672-0.71,1.019-0.96
		c0.348-0.25,0.703-0.377,1.067-0.385c0.94-0.021,1.373,0.403,1.298,1.271c0.333-0.392,0.672-0.712,1.02-0.96
		c0.347-0.25,0.703-0.378,1.067-0.386c0.445-0.01,0.769,0.111,0.969,0.362c0.2,0.25,0.305,0.586,0.313,1.004
		c0.01,0.419-0.068,0.89-0.232,1.411c-0.166,0.523-0.382,1.05-0.652,1.581c-0.114,0.216-0.217,0.435-0.312,0.656
		c-0.095,0.223-0.161,0.427-0.198,0.612c-0.038,0.186-0.04,0.334-0.008,0.447c0.032,0.113,0.124,0.167,0.276,0.164
		c0.224-0.005,0.466-0.081,0.728-0.228c0.261-0.148,0.524-0.346,0.789-0.594c0.265-0.247,0.515-0.529,0.748-0.847
		C57.559,43.042,57.761,42.704,57.929,42.344L57.929,42.344z"/>
	<path fill="#20AA4D" d="M58.995,42.747c0.387-0.094,0.786-0.256,1.198-0.485c0.411-0.229,0.765-0.596,1.06-1.1
		c0.204-0.345,0.253-0.62,0.149-0.824c-0.104-0.202-0.283-0.284-0.534-0.243c-0.253,0.041-0.543,0.235-0.869,0.583
		c-0.327,0.348-0.618,0.894-0.872,1.638L58.995,42.747L58.995,42.747z M61.879,42.342c-0.367,0.42-0.814,0.774-1.344,1.062
		c-0.528,0.289-1.062,0.49-1.6,0.601c0.065,0.312,0.191,0.547,0.377,0.706c0.187,0.158,0.386,0.256,0.599,0.294
		c0.306,0.065,0.646,0.033,1.02-0.097c0.373-0.128,0.745-0.321,1.116-0.577c0.37-0.257,0.726-0.567,1.063-0.931
		c0.339-0.361,0.633-0.759,0.881-1.191c0.138-0.216,0.272-0.36,0.405-0.436c0.134-0.073,0.242-0.083,0.326-0.028
		c0.083,0.056,0.127,0.161,0.131,0.318c0.003,0.156-0.058,0.348-0.182,0.579c-0.339,0.618-0.715,1.181-1.126,1.687
		s-0.844,0.937-1.294,1.296c-0.45,0.358-0.918,0.638-1.4,0.841c-0.483,0.203-0.961,0.309-1.432,0.319
		c-0.54,0.012-1-0.108-1.383-0.363c-0.383-0.254-0.666-0.602-0.853-1.046c-0.186-0.443-0.265-0.969-0.238-1.581
		c0.028-0.611,0.181-1.262,0.459-1.949c0.189-0.487,0.435-0.957,0.736-1.412c0.301-0.454,0.64-0.834,1.015-1.141
		c0.375-0.306,0.773-0.515,1.194-0.624s0.845-0.062,1.272,0.142c0.321,0.164,0.567,0.379,0.738,0.645
		c0.171,0.266,0.265,0.562,0.284,0.889c0.02,0.325-0.036,0.665-0.162,1.015C62.355,41.71,62.154,42.038,61.879,42.342L61.879,42.342
		z"/>
	<path fill="#20AA4D" d="M31.243,20.718c0.117-0.298,0.229-0.517,0.334-0.659c0.105-0.141,0.214-0.234,0.326-0.276
		c0.111-0.042,0.231-0.06,0.361-0.053c0.129,0.008,0.275,0.011,0.439,0.011c0.165,0,0.349,0.003,0.554,0.01
		c0.206,0.007,0.376,0.071,0.51,0.191c0.135,0.121,0.2,0.319,0.194,0.596s-0.132,0.683-0.378,1.222
		c-0.164,0.354-0.384,0.805-0.66,1.349c-0.275,0.546-0.572,1.123-0.889,1.732c-0.317,0.609-0.642,1.23-0.977,1.86
		c-0.334,0.63-0.642,1.208-0.924,1.732c-0.282,0.524-0.528,0.971-0.739,1.339c-0.211,0.368-0.352,0.602-0.423,0.701
		c-0.211,0.298-0.446,0.531-0.704,0.701s-0.569,0.255-0.933,0.255s-0.534-0.156-0.51-0.467c0.023-0.312,0.193-0.815,0.51-1.509
		c0.082-0.184,0.205-0.457,0.37-0.817c0.164-0.362,0.349-0.769,0.554-1.223c0.205-0.453,0.425-0.941,0.66-1.466
		c0.234-0.524,0.469-1.042,0.704-1.552c-0.235,0.072-0.487,0.107-0.757,0.107c-0.27,0-0.531-0.05-0.783-0.149
		c-0.252-0.099-0.486-0.263-0.704-0.489c-0.217-0.227-0.396-0.532-0.537-0.914c-0.211-0.595-0.214-1.247-0.009-1.955
		c0.205-0.708,0.586-1.361,1.144-1.955c0.557-0.596,1.282-1.081,2.173-1.456c0.892-0.375,1.924-0.521,3.097-0.437
		c1.302,0.085,2.352,0.433,3.149,1.042c0.798,0.609,1.364,1.378,1.698,2.306c0.334,0.929,0.455,1.966,0.361,3.114
		c-0.094,1.147-0.375,2.309-0.845,3.485c-0.399,1.02-0.915,1.973-1.548,2.859c-0.634,0.885-1.361,1.654-2.182,2.305
		c-0.821,0.652-1.728,1.166-2.719,1.542c-0.991,0.375-2.044,0.556-3.159,0.542c-0.715,0-1.381-0.146-1.997-0.436
		c-0.616-0.291-1.145-0.674-1.584-1.148c-0.44-0.475-0.777-1.017-1.012-1.626c-0.235-0.608-0.334-1.232-0.299-1.87
		c0.047-0.737,0.214-1.353,0.501-1.85c0.288-0.496,0.619-0.893,0.994-1.19c0.375-0.297,0.759-0.506,1.153-0.626
		c0.393-0.121,0.718-0.163,0.977-0.127c0.258,0.035,0.407,0.138,0.449,0.308c0.041,0.169-0.097,0.39-0.414,0.658
		c-0.352,0.298-0.631,0.663-0.836,1.095c-0.205,0.433-0.334,0.878-0.387,1.339s-0.032,0.917,0.062,1.371s0.258,0.858,0.493,1.211
		c0.234,0.354,0.542,0.638,0.924,0.851c0.381,0.212,0.835,0.312,1.363,0.297c0.681-0.015,1.343-0.188,1.989-0.521
		c0.645-0.334,1.258-0.773,1.839-1.318c0.581-0.545,1.111-1.179,1.592-1.902c0.481-0.723,0.891-1.488,1.231-2.295
		c0.469-1.106,0.795-2.14,0.977-3.104c0.181-0.964,0.196-1.807,0.044-2.529c-0.152-0.723-0.484-1.304-0.994-1.743
		c-0.51-0.439-1.223-0.68-2.138-0.722c-0.633-0.043-1.185,0.028-1.654,0.212c-0.47,0.185-0.854,0.429-1.153,0.733
		c-0.299,0.305-0.519,0.645-0.66,1.02c-0.141,0.376-0.206,0.738-0.193,1.084c0.011,0.347,0.099,0.663,0.264,0.946
		c0.164,0.283,0.399,0.475,0.704,0.574c0.235-0.511,0.437-0.971,0.607-1.382C31.017,21.241,31.148,20.93,31.243,20.718
		L31.243,20.718z"/>
	<path fill="#20AA4D" d="M41.237,29.495c0.493,0,0.979-0.312,1.46-0.936c0.481-0.623,0.927-1.466,1.337-2.529
		c-0.118-0.198-0.264-0.333-0.44-0.403c-0.2-0.085-0.428-0.103-0.686-0.053c-0.258,0.05-0.519,0.159-0.783,0.33
		c-0.264,0.169-0.519,0.393-0.766,0.669c-0.246,0.276-0.457,0.592-0.633,0.946c-0.117,0.241-0.197,0.482-0.237,0.723
		c-0.042,0.241-0.044,0.454-0.009,0.638c0.035,0.184,0.118,0.333,0.247,0.446C40.856,29.439,41.026,29.495,41.237,29.495
		L41.237,29.495z M46.815,24.415c-0.117,0.27-0.25,0.556-0.396,0.861c-0.147,0.305-0.293,0.609-0.44,0.914
		c-0.146,0.306-0.287,0.599-0.422,0.882c-0.135,0.284-0.255,0.532-0.361,0.744c-0.105,0.227-0.205,0.45-0.299,0.67
		c-0.094,0.219-0.165,0.417-0.211,0.594c-0.047,0.178-0.059,0.323-0.035,0.436c0.023,0.114,0.111,0.17,0.264,0.17
		c0.211,0,0.451-0.07,0.722-0.212c0.27-0.141,0.539-0.333,0.809-0.574c0.27-0.241,0.525-0.517,0.766-0.829s0.449-0.645,0.625-0.999
		c0.117-0.227,0.237-0.378,0.36-0.457c0.123-0.078,0.226-0.088,0.308-0.032c0.082,0.057,0.129,0.167,0.141,0.33
		c0.012,0.164-0.035,0.365-0.141,0.606c-0.2,0.438-0.49,0.896-0.871,1.371c-0.381,0.475-0.783,0.907-1.206,1.296
		c-0.422,0.391-0.842,0.713-1.258,0.967c-0.417,0.256-0.76,0.383-1.029,0.383c-0.387,0-0.716-0.099-0.985-0.298
		c-0.271-0.198-0.423-0.51-0.458-0.936c-0.258,0.326-0.562,0.614-0.915,0.861c-0.352,0.248-0.751,0.372-1.197,0.372
		c-0.458,0-0.839-0.152-1.144-0.457c-0.305-0.305-0.51-0.705-0.616-1.202c-0.105-0.496-0.1-1.055,0.018-1.679
		c0.118-0.623,0.37-1.254,0.757-1.892c0.363-0.595,0.774-1.087,1.231-1.477c0.458-0.39,0.915-0.663,1.373-0.818
		s0.897-0.188,1.32-0.096c0.422,0.092,0.786,0.322,1.091,0.69c0.094-0.198,0.178-0.357,0.255-0.478
		c0.076-0.12,0.161-0.216,0.255-0.287c0.094-0.071,0.202-0.124,0.325-0.159c0.124-0.036,0.273-0.074,0.449-0.117
		c0.188-0.028,0.364-0.049,0.528-0.063c0.165-0.014,0.293,0.003,0.387,0.053c0.094,0.05,0.146,0.142,0.159,0.276
		C46.985,23.966,46.933,24.161,46.815,24.415L46.815,24.415z"/>
	<path fill="#20AA4D" d="M47.08,33.469c0.328,0,0.707-0.156,1.134-0.467c0.428-0.312,0.877-0.85,1.347-1.615
		c-0.352-0.085-0.707-0.127-1.064-0.127c-0.358,0-0.695,0.07-1.012,0.212c-0.375,0.156-0.657,0.344-0.845,0.563
		c-0.188,0.219-0.293,0.436-0.316,0.648s0.029,0.396,0.158,0.553C46.61,33.392,46.81,33.469,47.08,33.469L47.08,33.469z
		 M51.197,24.415c-0.622,1.049-1.091,1.906-1.408,2.571c-0.317,0.667-0.528,1.188-0.634,1.563c-0.105,0.375-0.126,0.634-0.062,0.775
		c0.065,0.142,0.167,0.212,0.308,0.212c0.223,0,0.425-0.077,0.607-0.233c0.182-0.156,0.357-0.362,0.527-0.617
		c0.17-0.255,0.334-0.549,0.493-0.882c0.159-0.333,0.32-0.677,0.484-1.031c0.141-0.367,0.27-0.704,0.387-1.009
		c0.117-0.305,0.24-0.606,0.37-0.903c0.105-0.27,0.202-0.482,0.29-0.638s0.182-0.276,0.282-0.361
		c0.099-0.085,0.21-0.146,0.334-0.181c0.124-0.036,0.284-0.074,0.484-0.117c0.188-0.028,0.364-0.049,0.528-0.063
		c0.165-0.014,0.293,0.003,0.387,0.053c0.094,0.05,0.146,0.142,0.159,0.276c0.011,0.135-0.042,0.33-0.159,0.584
		c-0.117,0.27-0.247,0.556-0.387,0.861c-0.141,0.305-0.281,0.609-0.422,0.914c-0.141,0.306-0.282,0.599-0.423,0.882
		c-0.141,0.284-0.264,0.532-0.37,0.744c-0.188,0.34-0.36,0.705-0.519,1.095c-0.159,0.39-0.32,0.79-0.484,1.201
		c0.634-0.298,1.241-0.687,1.821-1.169c0.581-0.481,1.123-1.105,1.628-1.871c0.117-0.184,0.243-0.315,0.378-0.393
		c0.135-0.078,0.247-0.096,0.334-0.053c0.088,0.042,0.134,0.138,0.141,0.287c0.006,0.149-0.062,0.351-0.203,0.606
		c-0.293,0.552-0.621,1.038-0.985,1.456c-0.364,0.418-0.748,0.787-1.152,1.105s-0.824,0.599-1.258,0.84
		c-0.434,0.241-0.868,0.446-1.302,0.616c-0.34,0.722-0.725,1.384-1.152,1.987c-0.428,0.603-0.971,1.045-1.628,1.329
		c-0.563,0.24-1.064,0.347-1.504,0.318c-0.439-0.028-0.815-0.142-1.126-0.34c-0.311-0.199-0.545-0.464-0.704-0.797
		c-0.158-0.333-0.231-0.684-0.22-1.052s0.114-0.73,0.308-1.083c0.194-0.354,0.49-0.666,0.889-0.936
		c0.281-0.17,0.581-0.319,0.897-0.447c-0.07-0.425-0.035-0.97,0.106-1.636c0.199-0.793,0.448-1.534,0.748-2.221
		c0.299-0.688,0.601-1.287,0.906-1.796c0.141-0.241,0.267-0.439,0.378-0.596c0.111-0.156,0.223-0.279,0.334-0.372
		c0.111-0.092,0.234-0.159,0.37-0.202c0.134-0.042,0.301-0.084,0.501-0.127c0.188-0.028,0.358-0.045,0.51-0.053
		c0.152-0.007,0.27,0.018,0.352,0.075s0.115,0.149,0.097,0.276C51.417,23.99,51.337,24.175,51.197,24.415L51.197,24.415z"/>
	<path fill="#20AA4D" d="M34.604,37.072c1.178-0.096,2.472-0.347,3.626-0.953c1.225-0.611,1.388-2.068,0.366-2.043
		C37.645,34.097,35.894,35.562,34.604,37.072L34.604,37.072z M31.61,50.406c-1.165,0.373-3.007,1.394-3.33,2.838
		c-0.088,0.365,0.014,0.703,0.35,0.688C29.704,53.883,31.043,51.52,31.61,50.406L31.61,50.406z M64.09,47.521
		c-2.37,1.429-4.902,2.418-9.841,5.564c-5.12-2.774-14.355-2.907-20.688-2.854c-0.934,1.963-2.215,3.662-3.78,4.948
		c-2.568,2.122-5.191-0.062-3.264-3.092c1.25-1.997,3.757-2.75,5.718-3.094c0.063-0.152,0.552-1.049,0.599-1.18
		c0.033-0.065,0.047-0.13,0.11-0.303c-0.688,0.393-1.469,0.707-2.103,0.735c-1.831,0.083-2.677-1.051-2.885-2.513
		c-0.29-2.119,0.708-4.616,2.229-6.86c-1.676,0.012-3.148-0.156-3.978-0.543l2.312-2.324c0.839,0.603,1.861,0.96,2.98,1.123
		c1.02-1.241,3.009-3.292,4.939-4.318c1.189-0.63,3.211-1.169,3.98,0.607c0.356,0.836,0.176,1.912-0.511,2.731
		c-1.289,1.53-4.548,2.425-6.503,2.492c-1.708,2.423-2.989,5.296-2.535,6.725c0.164,0.503,0.443,0.832,0.989,0.808
		c1.198-0.055,2.743-1.767,3.821-3.671l0.457-0.81l-1.673,0.077c0.475-0.832,1.043-1.903,1.188-2.228
		c0.293,0.242,0.928,0.234,1.509,0.208l1.955-0.089c-1.444,2.773-3.4,6.316-4.79,9.13L64.09,47.521L64.09,47.521z"/>
	<path fill="#20AA4D" d="M77.367,38.618l0.002-0.216c0.062-4.638,2.141-5.112,4.697-5.112c2.597,0,4.699,0.591,4.699,5.329
		s-4.699,8.578-4.699,8.578S77.367,43.356,77.367,38.618L77.367,38.618z"/>
	<path fill="none" stroke="#FFFBED" stroke-width="0.8" stroke-miterlimit="10" d="M77.367,38.618l0.002-0.216
		c0.062-4.638,2.141-5.112,4.697-5.112c2.597,0,4.699,0.591,4.699,5.329s-4.699,8.578-4.699,8.578S77.367,43.356,77.367,38.618
		L77.367,38.618z"/>
	<polygon fill="#20AA4D" points="82.851,29.388 81.323,29.388 81.323,25.087 82.851,25.087 82.851,29.388 	"/>
	<polygon fill="none" stroke="#FFFBED" stroke-width="0.8" stroke-miterlimit="10" points="82.851,29.388 81.323,29.388 
		81.323,25.087 82.851,25.087 82.851,29.388 	"/>
	<path fill="#20AA4D" d="M86.196,38.976l-0.036-0.111c-0.763-2.362-1.587-2.315-2.507-1.959c-0.934,0.36-1.595,0.955-0.838,3.375
		c0.759,2.421,3.063,3.732,3.063,3.732S86.954,41.397,86.196,38.976L86.196,38.976z"/>
	<path fill="none" stroke="#FFFBED" stroke-width="0.8" stroke-miterlimit="10" d="M86.196,38.976l-0.036-0.111
		c-0.763-2.362-1.587-2.315-2.507-1.959c-0.934,0.36-1.595,0.955-0.838,3.375c0.759,2.421,3.063,3.732,3.063,3.732
		S86.954,41.397,86.196,38.976L86.196,38.976z"/>
	<path fill="#20AA4D" d="M77.858,38.976l0.035-0.111c0.764-2.362,1.588-2.315,2.508-1.959c0.934,0.36,1.594,0.955,0.837,3.375
		c-0.757,2.421-3.062,3.732-3.062,3.732S77.101,41.397,77.858,38.976L77.858,38.976z"/>
	<path fill="none" stroke="#FFFBED" stroke-width="0.8" stroke-miterlimit="10" d="M77.858,38.976l0.035-0.111
		c0.764-2.362,1.588-2.315,2.508-1.959c0.934,0.36,1.594,0.955,0.837,3.375c-0.757,2.421-3.062,3.732-3.062,3.732
		S77.101,41.397,77.858,38.976L77.858,38.976z"/>
	<path fill="#20AA4D" d="M87.669,35.486l-0.064-0.142c-1.383-3.019-2.509-2.786-3.723-2.118c-1.232,0.679-2.06,1.615-0.677,4.718
		c1.384,3.102,4.736,4.386,4.736,4.386S89.053,38.587,87.669,35.486L87.669,35.486z"/>
	<path fill="none" stroke="#FFFBED" stroke-width="0.8" stroke-miterlimit="10" d="M87.669,35.486l-0.064-0.142
		c-1.383-3.019-2.509-2.786-3.723-2.118c-1.232,0.679-2.06,1.615-0.677,4.718c1.384,3.102,4.736,4.386,4.736,4.386
		S89.053,38.587,87.669,35.486L87.669,35.486z"/>
	<path fill="#20AA4D" d="M76.506,35.225l0.064-0.142c1.383-3.019,2.509-2.786,3.723-2.118c1.232,0.678,2.06,1.615,0.677,4.717
		s-4.735,4.387-4.735,4.387S75.122,38.326,76.506,35.225L76.506,35.225z"/>
	<path fill="none" stroke="#FFFBED" stroke-width="0.8" stroke-miterlimit="10" d="M76.506,35.225l0.064-0.142
		c1.383-3.019,2.509-2.786,3.723-2.118c1.232,0.678,2.06,1.615,0.677,4.717s-4.735,4.387-4.735,4.387S75.122,38.326,76.506,35.225
		L76.506,35.225z"/>
	<path fill="#20AA4D" d="M79.312,36.499l0.001-0.142c0.036-3.052,1.255-3.363,2.753-3.363c1.521,0,2.754,0.389,2.754,3.505
		c0,3.116-2.754,5.643-2.754,5.643S79.312,39.615,79.312,36.499L79.312,36.499z"/>
	<path fill="none" stroke="#FFFBED" stroke-width="0.8" stroke-miterlimit="10" d="M79.312,36.499l0.001-0.142
		c0.036-3.052,1.255-3.363,2.753-3.363c1.521,0,2.754,0.389,2.754,3.505c0,3.116-2.754,5.643-2.754,5.643
		S79.312,39.615,79.312,36.499L79.312,36.499z"/>
	<path fill="#20AA4D" d="M75.677,32.328l0.064-0.142c1.384-3.019,2.509-2.787,3.725-2.118c1.231,0.678,2.058,1.615,0.674,4.717
		c-1.383,3.101-4.734,4.387-4.734,4.387S74.294,35.43,75.677,32.328L75.677,32.328z"/>
	<path fill="none" stroke="#FFFBED" stroke-width="0.8" stroke-miterlimit="10" d="M75.677,32.328l0.064-0.142
		c1.384-3.019,2.509-2.787,3.725-2.118c1.231,0.678,2.058,1.615,0.674,4.717c-1.383,3.101-4.734,4.387-4.734,4.387
		S74.294,35.43,75.677,32.328L75.677,32.328z"/>
	<path fill="#20AA4D" d="M88.388,32.328l-0.062-0.142c-1.384-3.019-2.51-2.787-3.725-2.118c-1.231,0.678-2.059,1.615-0.676,4.717
		c1.383,3.101,4.735,4.387,4.735,4.387S89.772,35.43,88.388,32.328L88.388,32.328z"/>
	<path fill="none" stroke="#FFFBED" stroke-width="0.8" stroke-miterlimit="10" d="M88.388,32.328l-0.062-0.142
		c-1.384-3.019-2.51-2.787-3.725-2.118c-1.231,0.678-2.059,1.615-0.676,4.717c1.383,3.101,4.735,4.387,4.735,4.387
		S89.772,35.43,88.388,32.328L88.388,32.328z"/>
	<path fill="#20AA4D" d="M78.022,31.856l0.063-0.142c1.384-3.019,2.51-2.787,3.725-2.118c1.232,0.678,2.059,1.615,0.676,4.717
		C81.103,37.414,77.75,38.7,77.75,38.7S76.64,34.957,78.022,31.856L78.022,31.856z"/>
	<path fill="none" stroke="#FFFBED" stroke-width="0.8" stroke-miterlimit="10" d="M78.022,31.856l0.063-0.142
		c1.384-3.019,2.51-2.787,3.725-2.118c1.232,0.678,2.059,1.615,0.676,4.717C81.103,37.414,77.75,38.7,77.75,38.7
		S76.64,34.957,78.022,31.856L78.022,31.856z"/>
	<path fill="#20AA4D" d="M86.489,31.856l-0.064-0.142c-1.383-3.019-2.51-2.787-3.725-2.118c-1.231,0.678-2.058,1.615-0.676,4.717
		c1.383,3.102,4.735,4.387,4.735,4.387S87.872,34.957,86.489,31.856L86.489,31.856z"/>
	<path fill="none" stroke="#FFFBED" stroke-width="0.8" stroke-miterlimit="10" d="M86.489,31.856l-0.064-0.142
		c-1.383-3.019-2.51-2.787-3.725-2.118c-1.231,0.678-2.058,1.615-0.676,4.717c1.383,3.102,4.735,4.387,4.735,4.387
		S87.872,34.957,86.489,31.856L86.489,31.856z"/>
	<path fill="#20AA4D" d="M87.984,29.544l-0.087-0.107c-1.755-2.129-9.808-2.16-11.62,0.04l-0.087,0.107
		c-1.896,2.351-1.39,5.65-1.39,5.65s2.717-0.39,4.671-2.044c0.689,2.389,2.588,4.074,2.588,4.074s1.853-1.775,2.59-4.161
		c1.958,1.694,4.724,2.09,4.724,2.09S89.88,31.894,87.984,29.544L87.984,29.544z"/>
	<path fill="none" stroke="#FFFBED" stroke-width="0.8" stroke-miterlimit="10" d="M87.984,29.544l-0.087-0.107
		c-1.755-2.129-9.808-2.16-11.62,0.04l-0.087,0.107c-1.896,2.351-1.39,5.65-1.39,5.65s2.717-0.39,4.671-2.044
		c0.689,2.389,2.588,4.074,2.588,4.074s1.853-1.775,2.59-4.161c1.958,1.694,4.724,2.09,4.724,2.09S89.88,31.894,87.984,29.544
		L87.984,29.544z"/>
</g>
<polygon fill="none" stroke="#FDF3CB" stroke-width="2" stroke-miterlimit="10" points="1,1.153 111.006,1.153 110.977,53.008 
	55.567,103.82 1,51.649 "/>
</svg>
