<?xml version="1.0" encoding="utf-8"?>
<!-- Generator: Adobe Illustrator 16.0.0, SVG Export Plug-In . SVG Version: 6.00 Build 0)  -->
<!DOCTYPE svg PUBLIC "-//W3C//DTD SVG 1.1//EN" "http://www.w3.org/Graphics/SVG/1.1/DTD/svg11.dtd">
<svg version="1.1" id="Layer_1" xmlns="http://www.w3.org/2000/svg" xmlns:xlink="http://www.w3.org/1999/xlink" x="0px" y="0px"
	 width="113px" height="105.305px" viewBox="0 0 113 105.305" enable-background="new 0 0 113 105.305" xml:space="preserve">
<polygon fill="#FFFBED" points="0,0 0,53.424 56.048,104.519 112.969,53.177 113,0 "/>
<g>
	<polygon fill="#043673" points="2,1.828 2,53.402 56.106,102.727 111.056,53.163 111.086,1.828 2,1.828 	"/>
	<path fill="#FDF7E7" d="M90.894,44.166c0,19.058-15.006,34.064-34.064,34.064c-19.058,0-34.951-15.007-34.951-34.064
		c0-19.059,15.893-34.951,34.951-34.951C75.888,9.215,90.894,25.108,90.894,44.166L90.894,44.166z"/>
	<path fill="none" stroke="#043673" stroke-width="2" stroke-miterlimit="10" d="M31.043,19.929l10.82,10.565 M39.393,28.023
		l-0.043,3.834 M39.435,28.066h3.919 M37.348,25.893l-0.042,3.834 M37.39,25.936h3.919 M35.175,23.89l-0.042,3.834 M35.217,23.933
		h3.919 M33.258,21.888l-0.043,3.834 M33.3,21.931h3.919 M31.34,20.056l-0.042,3.834 M31.383,20.099h3.919 M41.522,29.983
		l-0.043,3.834 M41.565,30.026h3.919 M81.006,19.35l-10.564,10.82 M72.912,27.7l-3.834-0.043 M72.869,27.742v3.92 M75.042,25.656
		l-3.834-0.043 M75,25.698v3.92 M77.045,23.483L73.21,23.44 M77.001,23.525v3.919 M79.047,21.565l-3.834-0.042 M79.004,21.608v3.919
		 M80.879,19.648l-3.834-0.042 M80.836,19.691v3.92 M70.953,29.83l-3.835-0.043 M70.909,29.873v3.919"/>
	
		<line fill="none" stroke="#043673" stroke-width="2.0414" stroke-miterlimit="10" x1="31.336" y1="68.679" x2="42.135" y2="57.651"/>
	<path fill="none" stroke="#043673" stroke-width="2" stroke-miterlimit="10" d="M39.665,60.12l3.834,0.044 M39.707,60.079v-3.92
		 M37.534,62.166l3.834,0.042 M37.576,62.123v-3.92 M35.532,64.338l3.834,0.044 M35.575,64.296v-3.919 M33.53,66.256l3.834,0.043
		 M33.573,66.213v-3.919 M31.697,68.173l3.834,0.042 M31.74,68.131v-3.92 M41.624,57.992l3.834,0.042 M41.667,57.948v-3.92
		 M81.547,68.207l-10.82-10.565 M73.197,60.114l0.043-3.835 M73.154,60.071h-3.919 M75.242,62.243l0.043-3.835 M75.199,62.2H71.28
		 M77.415,64.246l0.043-3.835 M77.373,64.202h-3.921 M79.332,66.248l0.043-3.835 M79.289,66.205H75.37 M81.249,68.079l0.043-3.833
		 M81.206,68.037h-3.919 M71.067,58.154l0.042-3.834 M71.024,58.111h-3.92"/>
	<path fill="#043673" d="M66.561,41.422l0.063,0.207c1.018-0.246,2.564-0.582,4.64-1.006c-0.198,0.553-0.455,0.986-0.77,1.299
		L70.35,42.1c-0.08,0.162-0.124,0.077-0.596,1.197c-0.277,0.382-0.473,0.821-0.586,1.315c0.288,0.16,0.666,0.219,1.136,0.176
		c0.732-0.039,1.125-0.067,1.175-0.088l-1.346,1.477l-1.011,1.532c0,0.332,0.28,0.667,0.84,1.004l-0.53,0.152
		c-0.876,0.068-1.018,0.647-3.421,1.473L65.97,50.55l1.573,1.59l0.493,0.275c-1.756-0.037-1.885,0.241-3.252,0.505
		c-1.591,0.33-2.586,0.513-2.985,0.552c-0.104,1.067-0.164,1.927-0.178,2.578l-0.978-0.879l-0.088-0.229l-1.438-1.292l0.039-0.264
		l-1.085-0.976l-0.102,0.059c-0.077,0.162-0.347,1.21-0.166,3.121c0.081,0.854-0.025,1.848-0.032,3.024
		c-0.239,0.117-0.517-0.066-0.784,0.157l-0.328,0.138l0.415-4.232l-0.084-2.391l-0.193-0.173c-0.625,0.732-2.049,2.057-4.272,3.974
		c-0.1-0.554-0.181-1.439-0.246-2.66c-1.332-0.401-2.995-0.767-4.987-1.099l-0.385-0.347c0.101-0.075,0.37-0.265,0.809-0.567
		c0.354-0.246,0.613-0.461,0.778-0.645l-0.063-0.207c-0.725-0.154-1.44-0.316-2.149-0.489c-0.868-0.216-1.522-0.522-1.962-0.918
		c-0.128-0.115-0.241-0.249-0.336-0.402l0.148-0.165l1.282-0.54l0.039-0.265c-1.834-1.65-2.787-2.622-2.854-2.916
		c0.088,0.013,0.712,0.076,1.871,0.189l0.125-0.137c-0.326-0.525-0.556-0.852-0.671-0.997l-0.085-0.2
		c-0.535-1.78-1.002-1.628-1.66-2.817l0.572,0.089c0.875,0.023,0.99-0.127,1.142,0.108l0.548-0.055
		c0.039,0.068,0.358,0.156,0.958,0.264c0.599,0.109,0.98,0.202,1.142,0.281c0.004-0.262-0.007-0.786-0.03-1.571l0.197-0.22
		c0.391,0.119,0.996,0.314,1.814,0.585l0.181-0.036l0.083-0.922l0.569,0.363c0.917,0.825,1.604,1.538,2.37,2.458l0.136,0.293
		c0.292,0.493,0.707,0.783,0.981,0.996l-0.021-0.182c-0.256-1.227-0.616-3.06-1.078-5.5c-0.143-0.495,0.124,0.062,0.569-0.204
		l-0.27-4.265l1.804,0.635l0.23-0.05c0.313-0.41,0.158-0.949,0.403-1.372l-0.011-0.209c0.293-0.4,0.702-1.26,1.227-2.582
		c0.458-1.248,0.879-2.047,1.262-2.4l0.089,0.326c0.094,0.623,0.822,1.041,1.544,2.786c0.783,1.934,1.262,3.044,1.435,3.332
		c0.105,0.03,0.091-0.1,0.73-0.313c0.424-0.142,0.631-0.7,0.733-0.74c0.121,0.972,0.018,2.784-0.296,4.793l1.079-0.306
		c-1.139,4.006-0.64,3.241-1.033,5.625l0.182-0.036l3.219-3.578l0.124,0.5l0.251,0.412c0.334,0.127,1.424,0.185,1.716-0.247"/>
</g>
</svg>
