<?xml version="1.0" encoding="utf-8"?>
<!-- Generator: Adobe Illustrator 21.1.0, SVG Export Plug-In . SVG Version: 6.00 Build 0)  -->
<svg version="1.1" id="Layer_1" xmlns:sketch="http://www.bohemiancoding.com/sketch/ns"
	 xmlns="http://www.w3.org/2000/svg" xmlns:xlink="http://www.w3.org/1999/xlink" x="0px" y="0px" width="113px" height="106px"
	 viewBox="0 0 113 106" style="enable-background:new 0 0 113 106;" xml:space="preserve">
<style type="text/css">
	.st0{fill:#043673;}
	.st1{fill:#FDF7E7;}
	.st2{fill:none;stroke:#043673;stroke-width:2;stroke-miterlimit:10;}
	.st3{fill:none;stroke:#043673;stroke-width:2.0414;stroke-miterlimit:10;}
</style>
<title>sunlight park</title>
<desc>Created with Sketch.</desc>
<g id="Page-1" sketch:type="MSPage">
</g>
<g>
	<polygon class="st0" points="0,-0.8 0,52.6 56,103.7 113,52.3 113,-0.8 0,-0.8 	"/>
	<path class="st1" d="M92.5,43c0,19.7-16,35.3-35.7,35.3c-19.7,0-35.7-15.5-35.7-35.3s16-36.2,35.7-36.2C76.5,6.8,92.5,23.3,92.5,43
		L92.5,43z"/>
	<path class="st2" d="M30.5,17.9l11.2,10.9 M39.2,26.3l0,4 M39.2,26.3h4.1 M37.1,24.1l0,4 M37.1,24.1h4.1 M34.8,22l0,4 M34.9,22.1
		h4.1 M32.8,19.9l0,4 M32.9,20h4.1 M30.9,18l0,4 M30.9,18.1H35 M41.4,28.3l0,4 M41.4,28.4h4.1 M82.3,17.3L71.4,28.5 M73.9,26l-4,0
		 M73.9,26v4.1 M76.1,23.8l-4,0 M76.1,23.9V28 M78.2,21.6l-4,0 M78.2,21.6v4.1 M80.3,19.6l-4,0 M80.2,19.7v4.1 M82.2,17.6l-4,0
		 M82.1,17.7v4.1 M71.9,28.2l-4,0 M71.8,28.2v4.1"/>
	<line class="st3" x1="30.8" y1="68.4" x2="42" y2="57"/>
	<path class="st2" d="M39.5,59.6l4,0 M39.5,59.5v-4.1 M37.3,61.7l4,0 M37.3,61.6v-4.1 M35.2,63.9l4,0 M35.2,63.9v-4.1 M33.1,65.9
		l4,0 M33.2,65.9v-4.1 M31.2,67.9l4,0 M31.3,67.8v-4.1 M41.5,57.3l4,0 M41.5,57.3v-4.1 M82.9,67.9L71.7,57 M74.2,59.5l0-4
		 M74.2,59.5h-4.1 M76.3,61.7l0-4 M76.3,61.7h-4.1 M78.6,63.8l0-4 M78.5,63.8h-4.1 M80.6,65.9l0-4 M80.5,65.9h-4.1 M82.6,67.8l0-4
		 M82.5,67.8h-4.1 M72,57.5l0-4 M72,57.5h-4.1"/>
	<path class="st0" d="M67.3,40.2l0.1,0.2c1.1-0.3,2.7-0.6,4.8-1c-0.2,0.6-0.5,1-0.8,1.3l-0.1,0.2c-0.1,0.2-0.1,0.1-0.6,1.2
		c-0.3,0.4-0.5,0.8-0.6,1.4c0.3,0.2,0.7,0.2,1.2,0.2c0.8,0,1.2-0.1,1.2-0.1L71,45.1l-1,1.6c0,0.3,0.3,0.7,0.9,1l-0.5,0.2
		c-0.9,0.1-1.1,0.7-3.5,1.5l0,0.2l1.6,1.6l0.5,0.3c-1.8,0-2,0.2-3.4,0.5c-1.6,0.3-2.7,0.5-3.1,0.6c-0.1,1.1-0.2,2-0.2,2.7l-1-0.9
		l-0.1-0.2l-1.5-1.3l0-0.3l-1.1-1l-0.1,0.1c-0.1,0.2-0.4,1.3-0.2,3.2c0.1,0.9,0,1.9,0,3.1c-0.2,0.1-0.5-0.1-0.8,0.2l-0.3,0.1
		l0.4-4.4l-0.1-2.5l-0.2-0.2c-0.6,0.8-2.1,2.1-4.4,4.1c-0.1-0.6-0.2-1.5-0.3-2.8c-1.4-0.4-3.1-0.8-5.2-1.1L47,51.1
		c0.1-0.1,0.4-0.3,0.8-0.6c0.4-0.3,0.6-0.5,0.8-0.7l-0.1-0.2c-0.8-0.2-1.5-0.3-2.2-0.5c-0.9-0.2-1.6-0.5-2-1
		c-0.1-0.1-0.2-0.3-0.3-0.4l0.2-0.2l1.3-0.6l0-0.3c-1.9-1.7-2.9-2.7-3-3c0.1,0,0.7,0.1,1.9,0.2l0.1-0.1c-0.3-0.5-0.6-0.9-0.7-1
		l-0.1-0.2c-0.6-1.8-1-1.7-1.7-2.9l0.6,0.1c0.9,0,1-0.1,1.2,0.1l0.6-0.1c0,0.1,0.4,0.2,1,0.3c0.6,0.1,1,0.2,1.2,0.3
		c0-0.3,0-0.8,0-1.6l0.2-0.2c0.4,0.1,1,0.3,1.9,0.6l0.2,0l0.1-1l0.6,0.4c1,0.9,1.7,1.6,2.5,2.5l0.1,0.3c0.3,0.5,0.7,0.8,1,1l0-0.2
		c-0.3-1.3-0.6-3.2-1.1-5.7c-0.1-0.5,0.1,0.1,0.6-0.2l-0.3-4.4l1.9,0.7l0.2-0.1c0.3-0.4,0.2-1,0.4-1.4l0-0.2
		c0.3-0.4,0.7-1.3,1.3-2.7c0.5-1.3,0.9-2.1,1.3-2.5l0.1,0.3c0.1,0.6,0.9,1.1,1.6,2.9c0.8,2,1.3,3.2,1.5,3.5c0.1,0,0.1-0.1,0.8-0.3
		c0.4-0.1,0.7-0.7,0.8-0.8c0.1,1,0,2.9-0.3,5l1.1-0.3c-1.2,4.1-0.7,3.4-1.1,5.8l0.2,0l3.3-3.7l0.1,0.5l0.3,0.4
		c0.3,0.1,1.5,0.2,1.8-0.3"/>
</g>
<g>
	<g>
		<path class="st1" d="M111,2l0,50.3l-54.9,49.5L2,52.5V2H111 M113,0H0v53.4l56,51.1L113,53.2L113,0L113,0z"/>
	</g>
	<line class="st3" x1="30.8" y1="70" x2="42" y2="58.6"/>
</g>
</svg>
