<?xml version="1.0" encoding="utf-8"?>
<!-- Generator: Adobe Illustrator 16.0.0, SVG Export Plug-In . SVG Version: 6.00 Build 0)  -->
<!DOCTYPE svg PUBLIC "-//W3C//DTD SVG 1.0//EN" "http://www.w3.org/TR/2001/REC-SVG-20010904/DTD/svg10.dtd">
<svg version="1.0" id="Layer_1" xmlns="http://www.w3.org/2000/svg" xmlns:xlink="http://www.w3.org/1999/xlink" x="0px" y="0px"
	 width="98.125px" height="91.85px" viewBox="0 0 98.125 91.85" enable-background="new 0 0 98.125 91.85" xml:space="preserve">
<path fill="#3CD52E" d="M1,0.02v46.587l48.134,43.592l48.136-43.592V0.02H1z M95.31,45.735L49.136,87.55L2.963,45.736V1.982H95.31
	V45.735z"/>
<linearGradient id="SVGID_1_" gradientUnits="userSpaceOnUse" x1="35.3491" y1="65.4377" x2="64.4453" y2="16.7926">
	<stop  offset="0" style="stop-color:#FFFFFF"/>
	<stop  offset="0.0547" style="stop-color:#D8F7D5"/>
	<stop  offset="0.1163" style="stop-color:#B4EFAE"/>
	<stop  offset="0.1843" style="stop-color:#93E88C"/>
	<stop  offset="0.2582" style="stop-color:#78E26E"/>
	<stop  offset="0.3398" style="stop-color:#62DD57"/>
	<stop  offset="0.4324" style="stop-color:#51D944"/>
	<stop  offset="0.5425" style="stop-color:#45D738"/>
	<stop  offset="0.6871" style="stop-color:#3ED530"/>
	<stop  offset="1" style="stop-color:#3CD52E"/>
</linearGradient>
<path fill="url(#SVGID_1_)" d="M47.381,34.704l4.662-7.43l0.835,0.851l-4.446,7.086L47.381,34.704z M54.102,53.894l-11.99,8.414
	c0.445,0.182,0.879,0.346,1.306,0.5l11.428-8.021L54.102,53.894z M62.045,43.983l4.909-4.14c0.032-0.451,0.043-0.959,0.025-1.536
	l-8.142,6.865L62.045,43.983z M66.442,42.354c0.206-0.11,0.447-0.581,0.495-1.112l-1.834,1.629L66.442,42.354z M51.658,22.633
	l-0.931,1.641l0.843,0.861l2.513-4.427L51.658,22.633z M35.702,42.933l4.247-10.531l-1.046-0.505L34.619,42.52L35.702,42.933z
	 M38.851,44.132l5.019-9.835l-1.045-0.505l-5.065,9.925L38.851,44.132z M49.148,47.714L65.45,29.768
	c-0.15-0.527-0.287-0.962-0.396-1.291L47.95,47.308L49.148,47.714z M59.423,61.38l-6.08,2.27l0.432,0.059l-1.339,0.553
	C55.07,63.935,57.235,62.816,59.423,61.38z M49.415,22.934l0.427-0.339l4.575-8.966c-0.231-0.363-0.484-0.723-0.757-1.072
	l-4.935,9.672L49.415,22.934z M35.704,44.175l-3.558,7.809c0.189,0.479,0.394,0.957,0.619,1.436l4.024-8.831L35.704,44.175z
	 M50.623,48.216l0.944-0.352l14.687-14.794c-0.098-0.479-0.196-0.927-0.296-1.347l-16.11,16.229L50.623,48.216z M55.413,29.055
	l5.893-8.527c-0.237-0.404-0.454-0.758-0.657-1.089l-6.062,8.772L55.413,29.055z M55.587,33.197l0.986-1.3l-0.821-0.837l-3.08,4.062
	L55.587,33.197z M52.941,52.503l-11.542,8.889l11.129-9.383l-0.743-0.891l-11.132,9.389l10.718-9.885l-0.743-0.891l-10.755,9.916
	L50.16,49.284l-1.222-0.416l-9.888,9.961l9.247-10.178l-1.199-0.408l-8.911,9.811l8.316-10.012l-1.176-0.4l-8.032,9.67l7.477-9.859
	l-1.157-0.393l-7.238,9.541l6.715-9.719l-1.141-0.389l-6.534,9.457l6.04-9.625l-0.968-0.329l-0.158-0.059l-5.905,9.411l5.441-9.589
	l-1.096-0.417l-5.333,9.4c1.61,2.898,3.981,5.557,7.477,7.07c0.408,0.176,0.803,0.338,1.196,0.494l11.573-8.912L52.941,52.503z
	 M55.799,54.116l13.064-9.169c0.096-0.601,0.168-1.132,0.222-1.57l-14.032,9.847L55.799,54.116z M55.611,18.012l0.674-0.486
	c-0.135-0.361-0.477-1.249-0.721-1.778l-2.378,4.19L55.611,18.012z M53.513,27.115l5.949-9.481c-0.192-0.27-0.351-0.482-0.474-0.637
	l-0.87,0.596l-5.44,8.67L53.513,27.115z M37.23,44.757l-4.444,8.708c0.203,0.428,0.417,0.855,0.652,1.277l4.883-9.57L37.23,44.757z
	 M32.667,43.018l-1.758,4.985c0.15,0.637,0.328,1.297,0.535,1.971l2.308-6.542L32.667,43.018z M45.648,41.147l-3.01,4.356
	l1.142,0.388l4.459-6.456L45.648,41.147z M32.17,42.908l-1.083-0.287l-0.739,2.434c0.109,0.753,0.256,1.596,0.455,2.497
	L32.17,42.908z M56.887,33.728L46.122,46.687l1.176,0.399l12.929-15.562L56.887,33.728z M50.56,37.905l-6.206,8.182l1.158,0.393
	l7.964-10.499L50.56,37.905z M34.185,43.596l-2.667,6.616c0.173,0.547,0.366,1.1,0.582,1.654l3.169-7.858L34.185,43.596z
	 M41.717,43.546l-0.754,1.388l1.129,0.384l1.952-3.111L41.717,43.546z M56.241,46.135l10.574-9.75
	c-0.018-0.141-0.031-0.276-0.052-0.421c-0.049-0.334-0.102-0.649-0.154-0.965L53.38,47.195L56.241,46.135z M41.852,42.262
	l3.982-7.018l-1.046-0.505l-5.067,8.93L41.852,42.262z M57.003,55.562l11.159-7.117c0.136-0.557,0.252-1.09,0.357-1.605
	l-12.266,7.824L57.003,55.562z M45.532,39.834l2.28-3.634l-1.051-0.507l-3.566,5.684L45.532,39.834z M49.674,37.099l-0.922-0.445
	l-1.339,1.937L49.674,37.099z M33.236,29.247c-0.312,1.26-0.96,4.206-1.088,7.372l1.807-7.057L33.236,29.247z M39.968,44.588
	l0.478,0.152l0.536-0.781L39.968,44.588z M47.532,21.012l4.579-10.047c-0.309-0.248-0.63-0.473-0.973-0.661l-4.476,9.821
	L47.532,21.012z M34.137,42.336l3.839-10.887l-1.051-0.507l-3.873,10.982L34.137,42.336z M32.545,41.73l0.023,0.009l3.416-11.252
	l-0.924-0.446l0.001-0.002c-0.01-0.003-0.021-0.001-0.031-0.006l-0.107-0.047l-2.754,9.072
	C32.226,39.973,32.345,40.874,32.545,41.73z M40.384,31.323l4.556-11.3l-0.885-0.904l-4.717,11.698L40.384,31.323z M30.072,42.369
	c0.025,0.43,0.072,1.032,0.155,1.753l0.153,0.359l0.26-1.971L30.072,42.369z M58.222,57.023l8.896-5.137
	c0.2-0.555,0.383-1.107,0.549-1.656l-10.199,5.887L58.222,57.023z M57.28,30.963l5.45-7.186c-0.104-0.441-0.246-0.893-0.432-1.349
	l-5.838,7.697L57.28,30.963z M62.726,28.485c0.088-0.358,0.244-1.119,0.271-2.111l-3.554,4.278L62.726,28.485z M55.269,55.29
	l-11.81,7.535c0.48,0.172,0.951,0.332,1.408,0.477l11.15-7.113L55.269,55.29z M51.603,49.089l0.623,0.746l1.771-1.633L51.603,49.089
	z M45.414,18.85l3.336-8.273c-0.532,0.328-1.168,0.814-1.87,1.535l-2.352,5.833L45.414,18.85z M56.22,47.378l-3.548,2.992
	l0.742,0.891l6.017-5.072L56.22,47.378z M62.726,44.968l-8.866,6.827l0.745,0.893l11.787-9.077L62.726,44.968z M39.833,17.811
	c-1.857,1.711-4.218,9.992-4.487,11.093l0.979,0.459L39.833,17.811z M38.365,30.348l4.417-12.528l-0.601-0.613
	c-0.095-0.074-0.199-0.161-0.316-0.274l-4.551,12.908L38.365,30.348z M42.392,32.294l4.625-10.15l-0.869-0.888l-4.8,10.534
	L42.392,32.294z M57.646,58.14l-10.92,5.676c0.629,0.148,1.237,0.27,1.823,0.357l9.857-5.121L57.646,58.14z M50.478,36.199
	l4.264-6.172l-0.827-0.844l-4.494,6.505L50.478,36.199z M58.864,59.601l-9.945,4.621c0.672,0.086,1.319,0.135,1.936,0.135
	c0.193,0,0.381-0.01,0.567-0.02l8.213-3.814L58.864,59.601z M46.408,34.234l4.566-8.051l-0.844-0.861l-4.769,8.406L46.408,34.234z
	 M60.724,60.019l1.764-0.82c0.763-0.645,1.45-1.395,2.052-2.232l-4.586,2.129L60.724,60.019z M59.46,58.503l6.097-3.166
	c0.321-0.576,0.62-1.166,0.889-1.77l-7.746,4.025L59.46,58.503z M56.448,56.706l-11.484,6.627c0.538,0.166,1.058,0.311,1.565,0.436
	l10.673-6.158L56.448,56.706z M44.398,33.263l4.628-9.069l-0.856-0.875l-4.817,9.439L44.398,33.263z M37.271,43.531L41.91,33.35
	l-1.044-0.504l-4.68,10.271L37.271,43.531z M30.147,43.289c0,0,0.326,11.546,6.701,15.916c5.735,3.932,12.307,6.443,18.204,4.445
	c-1.063-0.064-11.986-1.674-17.108-6.605C32.33,51.644,30.106,43.295,30.147,43.289z"/>
</svg>
