<?xml version="1.0" encoding="utf-8"?>
<!-- Generator: Adobe Illustrator 21.1.0, SVG Export Plug-In . SVG Version: 6.00 Build 0)  -->
<svg version="1.1" id="Layer_1" xmlns:sketch="http://www.bohemiancoding.com/sketch/ns"
	 xmlns="http://www.w3.org/2000/svg" xmlns:xlink="http://www.w3.org/1999/xlink" x="0px" y="0px" width="113px" height="106px"
	 viewBox="0 0 113 106" style="enable-background:new 0 0 113 106;" xml:space="preserve">
<style type="text/css">
	.st0{fill:#3CD52E;}
	.st1{fill:url(#SVGID_1_);}
</style>
<path class="st0" d="M0,0v54.7l56.5,51.2L113,54.7V0H0z M110.7,53.7l-54.2,49.1L2.3,53.7V2.3h108.4V53.7z"/>
<linearGradient id="SVGID_1_" gradientUnits="userSpaceOnUse" x1="40.3179" y1="31.2141" x2="74.4705" y2="88.3129" gradientTransform="matrix(1 0 0 -1 0 108)">
	<stop  offset="0" style="stop-color:#FFFFFF"/>
	<stop  offset="5.470000e-02" style="stop-color:#D8F7D5"/>
	<stop  offset="0.1163" style="stop-color:#B4EFAE"/>
	<stop  offset="0.1843" style="stop-color:#93E88C"/>
	<stop  offset="0.2582" style="stop-color:#78E26E"/>
	<stop  offset="0.3398" style="stop-color:#62DD57"/>
	<stop  offset="0.4324" style="stop-color:#51D944"/>
	<stop  offset="0.5425" style="stop-color:#45D738"/>
	<stop  offset="0.6871" style="stop-color:#3ED530"/>
	<stop  offset="1" style="stop-color:#3CD52E"/>
</linearGradient>
<path class="st1" d="M54.4,40.7l5.5-8.7l1,1l-5.2,8.3L54.4,40.7z M62.3,63.2l-14.1,9.9c0.5,0.2,1,0.4,1.5,0.6l13.4-9.4L62.3,63.2z
	 M71.7,51.6l5.8-4.9c0-0.5,0.1-1.1,0-1.8L67.9,53L71.7,51.6z M76.8,49.7c0.2-0.1,0.5-0.7,0.6-1.3l-2.2,1.9L76.8,49.7z M59.5,26.5
	l-1.1,1.9l1,1l2.9-5.2L59.5,26.5z M40.7,50.4l5-12.4l-1.2-0.6l-5,12.5L40.7,50.4z M44.4,51.8l5.9-11.5l-1.2-0.6l-5.9,11.6L44.4,51.8
	z M56.5,56l19.1-21.1c-0.2-0.6-0.3-1.1-0.5-1.5L55.1,55.5L56.5,56z M68.6,72l-7.1,2.7l0.5,0.1l-1.6,0.6C63.5,75,66,73.7,68.6,72z
	 M56.8,26.9l0.5-0.4L62.7,16c-0.3-0.4-0.6-0.8-0.9-1.3L56,26.1L56.8,26.9z M40.7,51.8L36.6,61c0.2,0.6,0.5,1.1,0.7,1.7L42,52.3
	L40.7,51.8z M58.2,56.6l1.1-0.4l17.2-17.4c-0.1-0.6-0.2-1.1-0.3-1.6l-18.9,19L58.2,56.6z M63.9,34.1l6.9-10
	c-0.3-0.5-0.5-0.9-0.8-1.3l-7.1,10.3L63.9,34.1z M64.1,38.9l1.2-1.5l-1-1l-3.6,4.8L64.1,38.9z M61,61.6L47.4,72l13.1-11l-0.9-1
	L46.5,71l12.6-11.6l-0.9-1L45.6,70l12.1-12.2l-1.4-0.5L44.7,69l10.9-11.9l-1.4-0.5L43.6,68.1l9.8-11.8L52,55.9l-9.4,11.4l8.8-11.6
	L50,55.2l-8.5,11.2L49.4,55l-1.3-0.5l-7.7,11.1l7.1-11.3L46.4,54l-0.2-0.1l-6.9,11l6.4-11.3l-1.3-0.5l-6.3,11
	c1.9,3.4,4.7,6.5,8.8,8.3c0.5,0.2,0.9,0.4,1.4,0.6l13.6-10.5L61,61.6z M64.3,63.5l15.3-10.8c0.1-0.7,0.2-1.3,0.3-1.8L63.4,62.4
	L64.3,63.5z M64.1,21.1l0.8-0.6c-0.2-0.4-0.6-1.5-0.8-2.1l-2.8,4.9L64.1,21.1z M61.6,31.8l7-11.1c-0.2-0.3-0.4-0.6-0.6-0.7l-1,0.7
	l-6.4,10.2L61.6,31.8z M42.5,52.5l-5.2,10.2c0.2,0.5,0.5,1,0.8,1.5L43.8,53L42.5,52.5z M37.2,50.5l-2.1,5.9c0.2,0.7,0.4,1.5,0.6,2.3
	l2.7-7.7L37.2,50.5z M52.4,48.3l-3.5,5.1l1.3,0.5l5.2-7.6L52.4,48.3z M36.6,50.3L35.3,50l-0.9,2.9c0.1,0.9,0.3,1.9,0.5,2.9
	L36.6,50.3z M65.6,39.6L53,54.8l1.4,0.5L69.5,37L65.6,39.6z M58.2,44.5l-7.3,9.6l1.4,0.5l9.3-12.3L58.2,44.5z M39,51.1l-3.1,7.8
	c0.2,0.6,0.4,1.3,0.7,1.9l3.7-9.2L39,51.1z M47.8,51.1l-0.9,1.6l1.3,0.5l2.3-3.7L47.8,51.1z M64.8,54.1l12.4-11.4
	c0-0.2,0-0.3-0.1-0.5c-0.1-0.4-0.1-0.8-0.2-1.1L61.5,55.4L64.8,54.1z M48,49.6l4.7-8.2l-1.2-0.6l-5.9,10.5L48,49.6z M65.7,65.2
	l13.1-8.4c0.2-0.7,0.3-1.3,0.4-1.9l-14.4,9.2L65.7,65.2z M52.3,46.7l2.7-4.3l-1.2-0.6l-4.2,6.7L52.3,46.7z M57.1,43.5L56.1,43
	l-1.6,2.3L57.1,43.5z M37.8,34.3c-0.4,1.5-1.1,4.9-1.3,8.7l2.1-8.3L37.8,34.3z M45.7,52.3l0.6,0.2l0.6-0.9L45.7,52.3z M54.6,24.6
	L60,12.8c-0.4-0.3-0.7-0.6-1.1-0.8l-5.3,11.5L54.6,24.6z M38.9,49.7l4.5-12.8l-1.2-0.6l-4.5,12.9L38.9,49.7z M37,49L37,49l4-13.2
	L40,35.2l0,0c0,0,0,0,0,0l-0.1-0.1l-3.2,10.6C36.7,46.9,36.8,48,37,49z M46.2,36.7l5.3-13.3l-1-1.1L45,36.1L46.2,36.7z M34.1,49.7
	c0,0.5,0.1,1.2,0.2,2.1l0.2,0.4l0.3-2.3L34.1,49.7z M67.2,66.9l10.4-6c0.2-0.7,0.4-1.3,0.6-1.9l-12,6.9L67.2,66.9z M66.1,36.3
	l6.4-8.4c-0.1-0.5-0.3-1-0.5-1.6l-6.9,9L66.1,36.3z M72.5,33.4c0.1-0.4,0.3-1.3,0.3-2.5l-4.2,5L72.5,33.4z M63.7,64.9l-13.9,8.8
	c0.6,0.2,1.1,0.4,1.7,0.6l13.1-8.3L63.7,64.9z M59.4,57.6l0.7,0.9l2.1-1.9L59.4,57.6z M52.1,22.1l3.9-9.7c-0.6,0.4-1.4,1-2.2,1.8
	L51.1,21L52.1,22.1z M64.8,55.6l-4.2,3.5l0.9,1l7.1-6L64.8,55.6z M72.5,52.8l-10.4,8l0.9,1l13.8-10.7L72.5,52.8z M45.6,20.9
	c-2.2,2-5,11.7-5.3,13l1.1,0.5L45.6,20.9z M43.9,35.6L49,20.9l-0.7-0.7c-0.1-0.1-0.2-0.2-0.4-0.3L42.6,35L43.9,35.6z M48.6,37.9
	L54,26l-1-1l-5.6,12.4L48.6,37.9z M66.5,68.2l-12.8,6.7c0.7,0.2,1.5,0.3,2.1,0.4l11.6-6L66.5,68.2z M58.1,42.5l5-7.2l-1-1l-5.3,7.6
	L58.1,42.5z M67.9,69.9l-11.7,5.4c0.8,0.1,1.5,0.2,2.3,0.2c0.2,0,0.4,0,0.7,0l9.6-4.5L67.9,69.9z M53.3,40.2l5.4-9.5l-1-1l-5.6,9.9
	L53.3,40.2z M70.1,70.4l2.1-1c0.9-0.8,1.7-1.6,2.4-2.6l-5.4,2.5L70.1,70.4z M68.6,68.6l7.2-3.7c0.4-0.7,0.7-1.4,1-2.1l-9.1,4.7
	L68.6,68.6z M65.1,66.5l-13.5,7.8c0.6,0.2,1.2,0.4,1.8,0.5L66,67.6L65.1,66.5z M50.9,39l5.4-10.6l-1-1l-5.7,11.1L50.9,39z
	 M42.6,51.1l5.4-12l-1.2-0.6l-5.5,12.1L42.6,51.1z M34.2,50.8c0,0,0.4,13.6,7.9,18.7c6.7,4.6,14.4,7.6,21.4,5.2
	c-1.2-0.1-14.1-2-20.1-7.8C36.8,60.6,34.2,50.8,34.2,50.8z"/>
</svg>
