<svg version="1.1" xmlns="http://www.w3.org/2000/svg" xmlns:xlink="http://www.w3.org/1999/xlink" x="0px" y="0px" width="98px"
	 height="91.799px" viewBox="-555.348 -321.275 98 91.799" enable-background="new -555.348 -321.275 98 91.799"
	 xml:space="preserve">
		<path id="Path_1_" fill="#33006F" d="M-554.506-320.592v46.57l48.157,43.576l48.157-43.576v-46.57
			H-554.506L-554.506-320.592z"/>
		<path fill="#3CD52E" d="M-555.348-321.275v47.422l48.999,44.376l49.001-44.376v-47.422H-555.348z M-459.344-274.739
			l-47.003,42.567l-47.002-42.566v-44.54h94.005V-274.739z"/>
		<linearGradient id="SVGID_1_" gradientUnits="userSpaceOnUse" x1="-520.3813" y1="-254.6816" x2="-490.7624" y2="-304.2009">
			<stop  offset="0" style="stop-color:#FFFFFF"/>
			<stop  offset="0.0547" style="stop-color:#D8F7D5"/>
			<stop  offset="0.1163" style="stop-color:#B4EFAE"/>
			<stop  offset="0.1843" style="stop-color:#93E88C"/>
			<stop  offset="0.2582" style="stop-color:#78E26E"/>
			<stop  offset="0.3398" style="stop-color:#62DD57"/>
			<stop  offset="0.4324" style="stop-color:#51D944"/>
			<stop  offset="0.5425" style="stop-color:#45D738"/>
			<stop  offset="0.6871" style="stop-color:#3ED530"/>
			<stop  offset="1" style="stop-color:#3CD52E"/>
		</linearGradient>
		<path fill="url(#SVGID_1_)" d="M-508.134-285.968l4.746-7.563l0.85,0.867l-4.526,7.213L-508.134-285.968z M-501.293-266.433
			l-12.205,8.566c0.453,0.183,0.896,0.351,1.33,0.508l11.634-8.167L-501.293-266.433z M-493.207-276.522l4.997-4.214
			c0.033-0.459,0.044-0.977,0.025-1.564l-8.288,6.988L-493.207-276.522z M-488.729-278.181c0.208-0.111,0.454-0.591,0.503-1.132
			l-1.868,1.658L-488.729-278.181z M-503.781-298.256l-0.947,1.67l0.859,0.876l2.557-4.506L-503.781-298.256z M-520.023-277.591
			l4.323-10.72l-1.065-0.514l-4.36,10.814L-520.023-277.591z M-516.817-276.37l5.109-10.013l-1.064-0.514l-5.156,10.103
			L-516.817-276.37z M-506.336-272.723l16.596-18.269c-0.154-0.537-0.292-0.979-0.403-1.313l-17.413,19.168L-506.336-272.723z
			 M-495.875-258.811l-6.19,2.31l0.438,0.059l-1.363,0.561C-500.307-256.211-498.103-257.352-495.875-258.811z M-506.064-297.949
			l0.435-0.345l4.657-9.127c-0.234-0.369-0.493-0.736-0.77-1.091l-5.024,9.846L-506.064-297.949z M-520.021-276.327l-3.622,7.949
			c0.192,0.487,0.401,0.976,0.63,1.461l4.096-8.99L-520.021-276.327z M-504.834-272.213l0.961-0.356l14.951-15.062
			c-0.1-0.487-0.201-0.943-0.302-1.371l-16.399,16.521L-504.834-272.213z M-499.959-291.718l5.999-8.68
			c-0.241-0.412-0.46-0.772-0.669-1.109l-6.17,8.93L-499.959-291.718z M-499.781-287.502l1.004-1.324l-0.835-0.852l-3.137,4.135
			L-499.781-287.502z M-502.474-267.848l-11.749,9.048l11.329-9.552l-0.756-0.906l-11.332,9.556l10.91-10.06l-0.757-0.907
			l-10.948,10.093l10.472-10.55l-1.244-0.423l-10.065,10.14l9.413-10.361l-1.22-0.415l-9.072,9.986l8.466-10.192l-1.197-0.406
			l-8.176,9.843l7.611-10.035l-1.179-0.4l-7.367,9.713l6.836-9.894l-1.163-0.395l-6.651,9.626l6.147-9.797l-0.985-0.335
			l-0.161-0.061l-6.011,9.58l5.538-9.76l-1.115-0.425l-5.429,9.568c1.639,2.953,4.052,5.658,7.611,7.199
			c0.415,0.18,0.817,0.343,1.217,0.504l11.782-9.074L-502.474-267.848z M-499.565-266.205l13.3-9.335
			c0.097-0.612,0.17-1.152,0.224-1.599l-14.283,10.025L-499.565-266.205z M-499.755-302.959l0.686-0.495
			c-0.138-0.367-0.486-1.272-0.734-1.81l-2.42,4.266L-499.755-302.959z M-501.893-293.692l6.057-9.651
			c-0.195-0.274-0.357-0.491-0.481-0.649l-0.886,0.607l-5.538,8.826L-501.893-293.692z M-518.468-275.735l-4.523,8.863
			c0.207,0.437,0.425,0.872,0.664,1.301l4.971-9.741L-518.468-275.735z M-523.113-277.504l-1.79,5.075
			c0.153,0.648,0.334,1.32,0.545,2.006l2.349-6.661L-523.113-277.504z M-509.898-279.409l-3.064,4.435l1.162,0.395l4.54-6.571
			L-509.898-279.409z M-523.619-277.616l-1.102-0.292l-0.752,2.477c0.111,0.767,0.261,1.625,0.463,2.541L-523.619-277.616z
			 M-498.458-286.961l-10.958,13.191l1.197,0.407l13.16-15.841L-498.458-286.961z M-504.898-282.709l-6.317,8.328l1.178,0.4
			l8.107-10.688L-504.898-282.709z M-521.568-276.916l-2.715,6.735c0.176,0.556,0.373,1.119,0.592,1.685l3.226-8L-521.568-276.916z
			 M-513.9-276.967l-0.768,1.413l1.149,0.391l1.987-3.167L-513.9-276.967z M-499.115-274.332l10.765-9.925
			c-0.018-0.143-0.033-0.281-0.054-0.429c-0.049-0.34-0.103-0.661-0.156-0.983l-13.467,12.416L-499.115-274.332z M-513.763-278.274
			l4.054-7.143l-1.065-0.514l-5.158,9.089L-513.763-278.274z M-498.339-264.736l11.358-7.245c0.14-0.567,0.258-1.108,0.365-1.633
			l-12.486,7.963L-498.339-264.736z M-510.017-280.746l2.321-3.699l-1.07-0.517l-3.63,5.786L-510.017-280.746z M-505.801-283.529
			l-0.938-0.453l-1.363,1.972L-505.801-283.529z M-522.533-291.522c-0.318,1.282-0.979,4.281-1.108,7.504l1.839-7.184
			L-522.533-291.522z M-515.681-275.906l0.487,0.155l0.546-0.795L-515.681-275.906z M-507.98-299.905l4.66-10.228
			c-0.313-0.252-0.641-0.481-0.99-0.672l-4.556,9.997L-507.98-299.905z M-521.616-278.198l3.908-11.083l-1.07-0.517l-3.941,11.179
			L-521.616-278.198z M-523.237-278.815l0.025,0.009l3.477-11.454l-0.941-0.454l0.001-0.002c-0.01-0.004-0.021-0.001-0.031-0.006
			l-0.109-0.047l-2.804,9.234C-523.562-280.604-523.44-279.687-523.237-278.815z M-515.257-289.409l4.638-11.503l-0.901-0.92
			l-4.803,11.908L-515.257-289.409z M-525.754-278.166c0.025,0.438,0.073,1.051,0.158,1.786l0.156,0.365l0.264-2.006
			L-525.754-278.166z M-497.099-263.25l9.055-5.227c0.206-0.565,0.391-1.127,0.559-1.686l-10.382,5.992L-497.099-263.25z
			 M-498.057-289.776l5.548-7.315c-0.106-0.45-0.25-0.909-0.44-1.374l-5.942,7.836L-498.057-289.776z M-492.514-292.299
			c0.09-0.365,0.248-1.138,0.275-2.149l-3.617,4.355L-492.514-292.299z M-500.105-265.01l-12.022,7.667
			c0.489,0.177,0.968,0.34,1.434,0.487l11.351-7.239L-500.105-265.01z M-503.837-271.323l0.634,0.76l1.804-1.663L-503.837-271.323z
			 M-510.137-302.106l3.396-8.422c-0.542,0.334-1.188,0.829-1.903,1.563l-2.395,5.938L-510.137-302.106z M-499.136-273.065
			l-3.613,3.046l0.756,0.906l6.123-5.163L-499.136-273.065z M-492.514-275.52l-9.025,6.95l0.758,0.908l11.998-9.241L-492.514-275.52
			z M-515.817-303.164c-1.891,1.742-4.294,10.171-4.567,11.292l0.997,0.468L-515.817-303.164z M-517.312-290.402l4.497-12.753
			l-0.612-0.624c-0.097-0.075-0.202-0.164-0.321-0.28l-4.633,13.14L-517.312-290.402z M-513.213-288.422l4.708-10.332l-0.885-0.904
			l-4.886,10.723L-513.213-288.422z M-497.685-262.11l-11.117,5.776c0.64,0.153,1.26,0.277,1.855,0.366l10.035-5.214
			L-497.685-262.11z M-504.983-284.446l4.341-6.283l-0.842-0.859l-4.576,6.622L-504.983-284.446z M-496.444-260.623l-10.125,4.705
			c0.684,0.086,1.343,0.136,1.971,0.136c0.197,0,0.387-0.009,0.578-0.018l8.36-3.884L-496.444-260.623z M-509.125-286.446
			l4.649-8.195l-0.859-0.876l-4.854,8.557L-509.125-286.446z M-494.552-260.199l1.796-0.835c0.776-0.656,1.475-1.419,2.087-2.272
			l-4.667,2.168L-494.552-260.199z M-495.839-261.741l6.207-3.224c0.327-0.585,0.632-1.185,0.905-1.8l-7.886,4.098L-495.839-261.741
			z M-498.904-263.571l-11.69,6.748c0.547,0.169,1.077,0.316,1.593,0.443l10.865-6.271L-498.904-263.571z M-511.171-287.435
			l4.711-9.232l-0.873-0.89l-4.903,9.608L-511.171-287.435z M-518.426-276.982l4.723-10.364l-1.062-0.514l-4.765,10.456
			L-518.426-276.982z M-525.678-277.229c0,0,0.332,11.753,6.821,16.202c5.838,4.001,12.528,6.56,18.53,4.526
			c-1.082-0.065-12.2-1.706-17.415-6.724C-523.457-268.724-525.719-277.222-525.678-277.229z"/>
</svg>
