<?xml version="1.0" standalone="no"?>
<!DOCTYPE svg PUBLIC "-//W3C//DTD SVG 1.1//EN" "http://www.w3.org/Graphics/SVG/1.1/DTD/svg11.dtd" >
<svg xmlns="http://www.w3.org/2000/svg">
<metadata>
This is a custom SVG font generated by IcoMoon.
1
</metadata>
<defs>
<font id="icomoon" horiz-adv-x="512" >
<font-face units-per-em="512" ascent="480" descent="-32" />
<missing-glyph horiz-adv-x="512" />
<glyph unicode="&#x21;" d="M 512.00,382.791c-18.838-8.354-39.082-14.001-60.33-16.54c 21.686,13.00, 38.343,33.585, 46.186,58.115
	c-20.298-12.039-42.778-20.78-66.705-25.49c-19.16,20.415-46.461,33.17-76.673,33.17c-58.011,0.00-105.044-47.029-105.044-105.039
	c0.00-8.233, 0.929-16.25, 2.72-23.939c-87.30,4.382-164.701,46.20-216.509,109.753c-9.042-15.514-14.223-33.558-14.223-52.809
	c0.00-36.444, 18.544-68.596, 46.73-87.433c-17.219,0.546-33.416,5.271-47.577,13.139c-0.01-0.438-0.01-0.878-0.01-1.321
	c0.00-50.894, 36.209-93.348, 84.261-103.00c-8.813-2.40-18.094-3.686-27.674-3.686c-6.769,0.00-13.349,0.66-19.764,1.886
	c 13.368-41.73, 52.16-72.103, 98.126-72.948c-35.95-28.175-81.243-44.967-130.458-44.967c-8.479,0.00-16.84,0.497-25.058,1.47
	c 46.486-29.805, 101.701-47.197, 161.021-47.197c 193.211,0.00, 298.868,160.062, 298.868,298.872c0.00,4.554-0.103,9.084-0.305,13.59
	C 480.11,343.227, 497.918,361.727, 512.00,382.791z" />
<glyph unicode="&#x22;" d="M 287.935-32.00L 192.00-32.00 L 192.00,224.00 l-64.00,0.00 l0.00,88.225 l 64.00,0.029l-0.104,51.976C 191.896,436.206, 211.413,480.00, 296.195,480.00l 70.588,0.00 l0.00-88.242 l-44.115,0.00 
	c-33.016,0.00-34.603-12.328-34.603-35.342l-0.131-44.162l 79.345,0.00 l-9.352-88.225L 288.00,224.00L 287.935-32.00z" />
<glyph unicode="&#x23;" d="M 512.00,224.00L 256.00,480.00L 256.00,320.00L 0.001,320.00L0.00,128.00L 256.00,128.00L 256.00-32.00 z" />
<glyph unicode="&#x24;" d="M0.00,224.00L 256.00-32.00L 256.00,128.00L 511.999,128.00L 512.00,320.00L 256.00,320.00L 256.00,480.00 z" />
<glyph unicode="&#x25;" d="M 507.331,68.67c-0.002,0.002-0.004,0.004-0.006,0.005L 352.003,224.00l 155.322,155.325c 0.002,0.002, 0.004,0.003, 0.006,0.005
		c 1.672,1.673, 2.881,3.627, 3.656,5.708c 2.123,5.688, 0.912,12.341-3.662,16.915L 433.952,475.326c-4.574,4.573-11.225,5.783-16.914,3.66
		c-2.08-0.775-4.035-1.984-5.709-3.655c0.00-0.002-0.002-0.003-0.004-0.005L 256.001,320.00L 100.677,475.325
		c-0.002,0.002-0.003,0.003-0.005,0.005c-1.673,1.671-3.627,2.88-5.707,3.655c-5.69,2.124-12.341,0.913-16.915-3.66L 4.676,401.951
		c-4.574-4.574-5.784-11.226-3.661-16.914c 0.776-2.08, 1.985-4.036, 3.656-5.708c 0.002-0.001, 0.003-0.003, 0.005-0.005L 160.001,224.00
		L 4.676,68.674c-0.001-0.002-0.003-0.003-0.004-0.005c-1.671-1.673-2.88-3.627-3.657-5.707c-2.124-5.688-0.913-12.341, 3.661-16.915
		l 73.374-73.373c 4.575-4.574, 11.226-5.784, 16.915-3.661c 2.08,0.776, 4.035,1.985, 5.708,3.656c 0.001,0.002, 0.003,0.003, 0.005,0.005
		l 155.324,155.325l 155.324-155.325c 0.002-0.001, 0.004-0.003, 0.006-0.004c 1.674-1.672, 3.627-2.881, 5.707-3.657
		c 5.689-2.123, 12.342-0.913, 16.914,3.661l 73.373,73.374c 4.574,4.574, 5.785,11.227, 3.662,16.915
		C 510.212,65.043, 509.003,66.997, 507.331,68.67z" />
<glyph unicode="&#x26;" d="M 4.295-32.711L0.00-28.488l 12.698,12.92l 4.295-4.222L 4.295-32.711z M 25.474-11.171L 21.179-6.942l 12.704,12.92
	l 4.295-4.222L 25.474-11.171z M 46.658,10.382l-4.295,4.222l 12.698,12.92l 4.295-4.222L 46.658,10.382z M 67.837,31.928l-4.295,4.222
	l 12.704,12.92l 4.295-4.222L 67.837,31.928z M 89.016,53.474l-4.295,4.222l 12.698,12.92l 4.295-4.222L 89.016,53.474z M 110.194,75.02
	l-4.295,4.222l 12.704,12.926l 4.295-4.222L 110.194,75.02z M 131.379,96.566l-4.295,4.222l 12.704,12.92l 4.295-4.222L 131.379,96.566z
	 M 152.558,118.112l-4.295,4.222l 12.704,12.92l 4.295-4.222L 152.558,118.112z M 173.743,139.659l-4.295,4.222l 12.704,12.92l 4.295-4.222
	L 173.743,139.659z M 194.921,161.205l-4.295,4.222l 12.698,12.92l 4.295-4.222L 194.921,161.205z M 216.10,182.751l-4.295,4.222l 12.704,12.926
	l 4.295-4.222L 216.10,182.751z M 237.285,204.297L 232.99,208.52l 12.698,12.92l 4.295-4.222L 237.285,204.297z M 258.464,225.843l-4.295,4.222
	l 12.704,12.92l 4.295-4.222L 258.464,225.843z M 279.648,247.389l-4.295,4.222l 12.698,12.92l 4.295-4.222L 279.648,247.389z M 300.827,268.936
	l-4.295,4.222l 12.704,12.92l 4.295-4.222L 300.827,268.936z M 322.006,290.482l-4.295,4.222l 12.704,12.926l 4.295-4.222L 322.006,290.482z
	 M 343.191,312.028l-4.295,4.222l 12.704,12.92l 4.295-4.222L 343.191,312.028z M 364.369,333.574l-4.295,4.222l 12.704,12.92l 4.295-4.222
	L 364.369,333.574z M 385.554,355.126l-4.295,4.222l 12.698,12.92l 4.295-4.222L 385.554,355.126z M 406.733,376.672l-4.295,4.222l 12.704,12.92
	l 4.295-4.222L 406.733,376.672z M 427.918,398.213l-4.295,4.222l 12.698,12.926l 4.295-4.222L 427.918,398.213z M 449.096,419.765l-4.295,4.222
	l 12.704,12.92l 4.295-4.222L 449.096,419.765z M 470.275,441.311L 465.98,445.533l 12.698,12.92l 4.295-4.222L 470.275,441.311z M 491.454,462.857l-4.295,4.222
	L 499.863,480.00l 4.295-4.222L 491.454,462.857z" horiz-adv-x="505.9764705882353" />
<glyph unicode="&#x27;" d="M0.00,480.00c 74.213-21.167, 134.44-56.347, 208.573-77.608c0.00-24.253,0.00-48.505,0.00-72.744
	c-60.308-12.463-111.859-33.671-174.619-43.655c 5.43-18.338, 29.44-14.215, 43.655-19.402c 34.856-12.733, 81.448-36.231, 130.964-43.641c0.00-24.266,0.00-48.519,0.00-72.758
	C 148.938,140.288, 95.097,124.605, 33.954,116.211c 21.639-23.673, 57.843-26.772, 87.309-38.804c 29.009-11.83, 55.606-29.723, 87.309-33.954c0.00-25.869,0.00-51.739,0.00-77.608
	c-63.717,33.307-133.322,60.699-208.573,82.459c0.00,25.869,0.00,51.739,0.00,77.608c 64.189,6.966, 121.775,20.507, 179.469,33.954C 120.859,183.727, 66.695,212.008,0.00,227.773
	c0.00,21.032,0.00,42.038,0.00,63.07c 64.957,9.405, 114.419,34.331, 179.469,43.641c-7.047,15.697-28.982,17.974-43.655,24.253C 96.431,375.592, 45.123,394.375,0.00,412.106
	C0.00,434.742,0.00,457.364,0.00,480.00z" horiz-adv-x="202.10526315789474" />
<glyph unicode="&#x28;" d="M 406.292,206.946c0.00-81.881-66.521-148.401-148.401-148.401c-81.881,0.00-148.401,66.481-148.401,148.401
		c0.00,22.528, 5.081,43.874, 14.10,63.094L0.00,270.041 l0.00-203.618 C0.00,12.229, 44.111-32.00, 98.343-32.00l 312.674,0.00 c 54.193,0.00, 98.343,44.229, 98.343,98.422l0.00,203.618 L 392.231,270.041 
		C 401.211,250.86, 406.292,229.514, 406.292,206.946M 319.449,206.946c0.00,33.95-27.648,61.598-61.558,61.598c-33.989,0.00-61.598-27.648-61.598-61.598s 27.609-61.598, 61.598-61.598
		C 291.84,145.349, 319.449,172.997, 319.449,206.946M 464.03,373.898c0.00-9.531-7.798-17.29-17.369-17.29L 393.019,356.608 c-9.531,0.00-17.29,7.759-17.29,17.29L 375.729,427.50 
		c0.00,9.61, 7.759,17.369, 17.29,17.369l 53.642,0.00 c 9.57,0.00, 17.369-7.759, 17.369-17.369L 464.03,373.898 z M 411.018,480.00L 98.383,480.00 C 44.15,480.00,0.00,435.889,0.00,381.617l0.00-53.76 
		l 171.953,0.00 c 24.30,17.29, 53.918,27.451, 85.898,27.451c 32.02,0.00, 61.598-10.161, 85.937-27.451l 165.612,0.00 L 509.401,381.617 C 509.401,435.889, 465.211,480.00, 411.018,480.00" />
<glyph unicode="&#x29;" d="M 77.596,470.519L 96.559,470.519L 96.559-25.439L 77.596-25.439zM0.00,480.00L 189.63,480.00L 189.63,461.037L0.00,461.037z" horiz-adv-x="189.62962962962962" />
<glyph unicode="&#x2a;" d="M 12111.453-44.614L0.00-44.614L0.00,1.932L 11999.092,1.932L 11553.932,447.092L 11586.839,480.00 z" horiz-adv-x="12101.818181818182" />
<glyph unicode="&#x2b;" d="M 230.097,210.316c-54.784-32.931-126.092-15.104-158.999,39.587C 38.191,304.64, 55.994,375.971, 110.778,408.902
	c 54.737,32.884, 126.045,15.104, 158.929-39.657C 302.592,314.508, 284.812,243.177, 230.097,210.316 M 392.029,6.004l-115.782,170.054
	c 66.164,52.34, 84.852,147.13, 40.308,221.277c-48.431,80.593-153.367,106.775-233.937,58.321c-80.593-48.384-106.752-153.344-58.345-233.891
	c 43.636-72.681, 133.329-101.073, 209.548-70.47l 96.14-182.598c 2.956-5.655, 9.868-7.564, 15.383-4.352l 43.241,25.972
	C 394.10-6.33, 395.636,0.698, 392.029,6.004" horiz-adv-x="395.6363636363636" />
<glyph unicode="&#x2c;" d="M 11.205,275.284l0.00,36.763 l 363.486,0.00 l0.00-36.763 c-0.017-6.102-0.176-12.129-0.478-18.113L 11.675,257.171 
	C 11.382,263.155, 11.214,269.182, 11.205,275.284 M 11.205,421.128l 363.486,0.00 l0.00-54.398 L 11.205,366.73 L 11.205,421.128 z M 350.477,148.081L 35.412,148.081 
	c-7.151,17.475-12.741,35.613-16.72,54.398l 348.513,0.00 C 363.209,183.695, 357.636,165.556, 350.477,148.081 M 273.593,35.928L 112.296,35.928 
	c-3.886,3.76-7.798,7.73-11.692,11.868c-13.614,14.504-25.667,29.704-36.193,45.61l 257.074,0.00 c-10.542-15.914-22.612-31.148-36.234-45.652
	C 281.357,43.617, 277.479,39.68, 273.593,35.928 M 384.101,476.92c-0.688,0.94-1.586,1.695-2.543,2.191
	c-1.889,1.032-4.297,1.183-6.345,0.378L 7.949,479.488 c-2.308,0.00-4.482-1.041-5.993-2.887C 0.68,475.006,0.00,473.117,0.00,471.095l0.00-195.819 
	c 0.101-89.575, 32.063-170.89, 92.437-235.159c 44.208-47.054, 88.559-69.615, 97.188-73.736c 1.024-0.52, 2.14-0.781, 3.307-0.781
	c 1.108,0.00, 2.216,0.243, 3.223,0.722c 0.059,0.034, 0.118,0.067, 0.176,0.101l 0.008-0.008c 8.427,4.029, 52.812,26.548, 97.07,73.652
	c 60.391,64.269, 92.378,145.609, 92.479,235.209L 385.889,471.581 C 385.889,473.512, 385.242,475.392, 384.101,476.92" horiz-adv-x="386.09836065573774" />
<glyph unicode="&#x2d;" d="M 7.552,476.608c 76.384-0.448, 71.776-81.792, 126.72-103.68
	c 46.336,22.784, 55.712,82.528, 103.648,103.68c 62.272-10.688, 90.656-55.296, 115.232-103.68c 58.976,14.016, 73.152,72.768, 115.20,103.68
	c 75.456,9.728, 85.568-101.92, 126.72-103.68c 44.48-1.888, 56.512,72.576, 103.68,103.68c 61.856,25.568, 86.688-101.984, 126.72-103.68
	c 34.464-1.472, 74.304,105.952, 126.72,103.68c 39.968-1.696, 71.136-101.92, 103.68-103.68c 36.544-1.984, 71.264,105.44, 126.72,103.68
	c 55.04-1.728, 68.832-92.832, 115.20-103.68c 50.88,25.952, 51.808,101.824, 126.72,103.68c-3.296-73.504-52.128-101.44-92.16-138.24
	c 29.248-43.712, 73.856-72.096, 103.68-115.20c-18.624-54.304-65.92-80.032-103.68-115.20c 26.432-54.208, 90.912-70.368, 92.16-149.76
	c-67.904,8.864-87.04,66.56-126.72,103.68c-46.336-22.752-55.712-82.528-103.648-103.68c-62.624-35.84-72.416,101.344-126.72,103.68
	c-49.088,2.08-82.336-102.208-115.232-103.68c-41.056-1.824-83.968,102.336-115.20,103.68c-41.76,1.792-71.424-101.76-115.232-103.68
	c-42.40-1.888-84.448,102.368-115.20,103.68c-36.192,1.536-75.648-101.952-115.20-103.68c-45.248-1.984-92.992,102.72-115.232,103.68
	c-42.784,1.856-83.328-101.152-115.20-103.68c-62.56-4.992-88.544,64.928-115.232,103.68c-58.464-22.144-62.016-99.232-138.208-103.68
	c-39.84,67.712, 90.944,100.512, 92.16,138.24c 1.728,52.992-124.448,74.40-92.16,126.72c-7.584-12.288, 92.096,102.592, 92.16,103.68
	C 102.688,375.456-29.248,412.80, 7.552,476.608z M 145.76,142.528c 15.936,33.984, 53.216,46.656, 69.12,80.64c-39.136,14.656-43.616,63.904-92.16,69.12
	c-15.904-33.984-53.184-46.656-69.12-80.64C 92.736,197.024, 97.248,147.776, 145.76,142.528z M 330.112,108.00c-39.136,14.624-43.648,63.872-92.192,69.12
	c-15.904-33.984-53.184-46.656-69.088-80.64C 241.344,13.28, 284.32,0.448, 330.112,108.00z M 260.992,257.728c 15.904,33.984, 53.184,46.656, 69.12,80.64
	c-45.568,12.032-38.144,77.056-92.192,80.64c-5.216-48.544-54.464-53.024-69.088-92.16C 207.968,312.224, 212.448,262.976, 260.992,257.728z M 376.16,142.528
	c 15.936,33.984, 53.216,46.656, 69.12,80.64c-39.136,14.656-43.616,63.904-92.16,69.12c-15.936-33.984-53.216-46.656-69.12-80.64
	C 323.136,197.024, 327.648,147.776, 376.16,142.528z M 560.48,108.00c-39.136,14.624-43.616,63.872-92.16,69.12c-15.904-33.984-53.184-46.656-69.12-80.64
	C 471.776,13.28, 514.688,0.448, 560.48,108.00z M 491.392,246.208c 5.216,48.512, 54.464,53.024, 69.088,92.16c-66.176,105.28-100.544,72.768-161.28-11.52
	C 436.96,306.976, 453.632,266.08, 491.392,246.208z M 606.592,131.008c 5.216,48.544, 54.464,53.024, 69.12,92.16c-33.984,15.936-46.656,53.216-80.672,69.12
	C 518.848,239.328, 520.864,173.792, 606.592,131.008z M 721.76,246.208c 19.872,37.728, 60.768,54.432, 80.672,92.16c-37.76,19.872-54.432,60.80-92.16,80.64
	c-19.872-37.76-60.768-54.40-80.672-92.16C 667.36,306.976, 684.032,266.08, 721.76,246.208z M 721.76,15.808c 18.176,27.904, 41.216,50.944, 69.12,69.12
	c-11.20,46.40-50.304,64.864-80.64,92.16C 634.048,124.128, 636.032,58.624, 721.76,15.808z M 836.992,131.008c 18.144,27.904, 41.216,50.944, 69.12,69.12
	c-31.808,98.112-108.448,100.704-149.792,11.52C 794.784,196.352, 796.448,144.256, 836.992,131.008z M 952.16,15.808c 18.176,27.904, 41.216,50.944, 69.12,69.12
	c-11.20,46.40-50.336,64.864-80.672,92.16C 864.448,124.128, 866.464,58.624, 952.16,15.808z M 952.16,246.208c 95.04,80.32, 80.608,109.504-11.52,172.80
	C 862.656,364.48, 870.88,293.888, 952.16,246.208z M 1067.392,131.008c 18.144,27.904, 41.184,50.944, 69.088,69.12c-31.776,98.112-108.416,100.704-149.76,11.52
	C 1025.216,196.352, 1026.848,144.256, 1067.392,131.008z M 1182.592,15.808c 19.84,37.728, 60.768,54.432, 80.64,92.16c-39.136,14.624-43.616,63.872-92.16,69.12
	C 1094.848,124.128, 1096.864,58.624, 1182.592,15.808z M 1182.592,246.208c 95.04,80.32, 80.608,109.504-11.52,172.80c-18.656-35.104-57.856-49.696-69.12-92.16
	C 1142.464,313.60, 1144.096,261.504, 1182.592,246.208z M 1309.312,142.528c 15.904,33.984, 53.184,46.656, 69.12,80.64c-39.136,14.656-43.616,63.904-92.16,69.12
	c-15.936-33.984-53.216-46.656-69.12-80.64C 1256.256,197.024, 1260.768,147.776, 1309.312,142.528z" horiz-adv-x="1440" />
<glyph unicode="&#x2e;" d="M 42.65,202.65c 42.598-39.194, 67.251-96.282, 106.701-138.65l0.00,149.325 C 116.915,206.643, 57.446,226.995, 42.65,202.65
	 M 53.325,245.35l 96.026,0.00 C 142.49,288.256, 163.20,358.758, 138.675,384.00C 117.965,330.01, 74.906,298.445, 53.325,245.35 M 202.675,394.675l0.00-149.325 
	C 235.085,252.032, 294.528,231.68, 309.325,256.00C 272.102,300.544, 241.997,352.23, 202.675,394.675 M 202.675,213.325c 6.912-53.504-13.978-134.861, 10.65-170.65
	c 23.654,68.762, 78.771,106.086, 106.675,170.65L 202.675,213.325 z M 384.00,202.65c 48.666-33.101, 65.024-98.534, 106.65-138.65l0.00,149.325 
	C 458.214,206.643, 398.797,226.995, 384.00,202.65 M 394.65,245.35l 96.00,0.00 c-6.861,42.906, 13.875,113.408-10.675,138.65
	C 460.467,328.858, 421.376,293.274, 394.65,245.35 M 554.65,384.00l0.00-138.65 l 96.00,0.00 C 626.253,299.162, 589.414,340.557, 554.65,384.00 M 554.65,213.325
	c 6.886-46.438-13.901-120.55, 10.701-149.325c 31.258,50.483, 68.198,95.309, 95.949,149.325L 554.65,213.325 z M 725.299,213.325
	c 26.752-51.482, 57.754-98.688, 96.00-138.65l0.00,138.65 L 725.299,213.325 z M 725.299,245.35l 96.00,0.00 c-6.81,39.398, 13.798,106.24-10.65,127.974
	C 786.995,325.862, 755.558,286.208, 725.299,245.35 M 885.299,213.325c 6.938-49.971-13.952-127.718, 10.65-160.00c 23.885,61.491, 75.136,95.565, 96.00,160.00
	L 885.299,213.325 z M 885.299,384.00l0.00-138.65 c 32.435,6.682, 91.904-13.67, 106.65,10.65C 944.64,286.925, 930.893,351.386, 885.299,384.00 M 864.00-32.00
	c-62.848,18.995-108.058,138.291-160.00,202.65c-83.507-39.757-110.72-184.704-181.35-202.65c-78.694,49.28-99.763,156.186-170.65,213.325
	c-68.275-63.258-85.939-177.152-181.325-213.325C 136.986-26.675, 142.874,9.958, 128.00,32.00c-24.704,36.634-128.00,133.837-128.00,192.00c0.00,46.362, 56.576,96.358, 85.35,138.675
	C 115.686,407.322, 132.915,462.618, 181.35,480.00c 66.432-58.01, 111.616-137.242, 159.974-213.325c 86.682,44.877, 97.28,165.811, 181.325,213.325
	c 69.12-55.322, 113.203-135.706, 160.00-213.325c 68.506,55.936, 100.403,148.506, 160.00,213.325c 100.71-45.082, 124.749-166.81, 202.65-234.65L 1045.299,224.00 
	C 994.099,129.459, 939.29,38.451, 864.00-32.00" horiz-adv-x="1049.6000000000001" />
<glyph unicode="&#x2f;" d="M 110.82,14.066c 50.389,15.004, 96.768,41.842, 81.92,107.548C 138.937,113.664, 88.292,82.034, 110.82,14.066 M 100.58,270.08
	c 11.449,16.455, 2.816,48.228,0.00,66.56C 73.756,347.364, 55.893,367.061, 23.765,372.48C 2.318,312.007, 59.108,266.994, 100.58,270.08 M 85.22,49.934
	c 13.241,55.026, 54.073,82.46, 117.76,87.026c 24.348-72.491-19.868-114.276-76.80-133.106c-11.634-5.461, 14.706-15.531, 10.24-30.72
	c-20.352-0.54-35.413,29.099-51.20,51.20c-22.841,31.972-55.851,63.701-51.20,122.894c 3.257,41.344, 32.825,66.532, 51.20,102.40
	c-54.201,24.277-105.97,63.815-76.80,143.346c 44.644-21.916, 109.781-23.339, 112.64-87.026C 168.263,345.998, 170.553,435.228, 126.18,480.00
	c 33.408-1.991, 51.371-54.514, 51.20-87.04c-0.299-58.752-59.733-99.001-61.44-148.466C 51.527,218.923, 26.951,99.328, 85.22,49.934" horiz-adv-x="213.33333333333331" />
<glyph unicode="&#x30;" d="M 29.103,96.835c 23.296,5.807, 44.167,14.04, 72.758,14.552c-7.774-28.78-28.106-54.285-43.655-77.635
	C 43.021,10.995, 29.238-20.83,0.00-29.292c 13.352,46.471, 45.002,74.644, 67.907,111.562C 49.192,95.906, 28.066,70.535,0.00,77.42
	c 12.18,47.643, 47.077,72.556, 67.907,111.562C 51.011,202.617, 17.152,170.752,0.00,184.118c 12.827,47.01, 47.724,71.923, 67.907,111.576
	C 52.305,308.022, 15.01,279.606,0.00,290.829c 15.091,47.993, 49.651,76.463, 72.758,116.44C 47.697,403.20, 27.419,394.388,0.00,392.704C 7.181,432.397, 29.656,456.825, 53.356,480.00
	c 15.023-24.872-19.591-41.715-24.253-63.043c 27.621-0.135, 42.658,12.315, 72.758,9.688c-15.912-47.131-50.863-75.224-72.758-116.399
	c 24.293,1.415, 52.493,19.86, 72.758,9.701c-17.974-45.096-50.189-75.938-72.758-116.413c 26.26-0.539, 51.20,21.127, 72.758,9.701
	C 84.776,167.249, 49.772,139.21, 29.103,96.835" horiz-adv-x="107.78947368421052" />
<glyph unicode="&#x31;" d="M 22.718-15.031c 43.169,28.804, 96.373,47.572, 142.19,73.728c-53.467,18.491-98.875,45.056-147.456,68.462
	C 20.933,81.488, 10.459,21.892, 22.718-15.031 M 17.437,153.505c 49.796,22.162, 101.171,42.774, 142.19,73.713c-50.922,19.295-94.179,46.256-142.19,68.462
	L 17.437,153.505 z M 17.437,321.997c 52.151,18.081, 98.304,42.16, 142.19,68.476c-47.996,22.221-91.253,49.152-142.19,68.476L 17.437,321.997 z M 6.919,480.00
	c 64.965-26.317, 122.28-60.27, 184.32-89.527c-52.034-28.716-102.444-59.041-163.255-78.994c 45.685-40.331, 120.51-51.507, 163.255-94.779
	c-61.996-16.984-104.17-53.833-163.255-73.728c 45.744-36.791, 111.865-53.146, 163.255-84.261c-54.799-36.484-118.901-63.664-184.32-89.527
	C-2.297,139.227-2.297,309.957, 6.919,480.00" horiz-adv-x="190.17142857142858" />
<glyph unicode="&#x32;" d="M 119.808,42.24c 20.288,0.154, 34.675-29.619, 50.688-18.432c-23.13,12.186-27.648,43.008-55.296,50.688
	C 121.28,57.958, 114.906,57.613, 119.808,42.24 M 50.688,14.592c 11.366,17.139, 74.432,28.864, 41.472,59.904C 83.098,52.762, 45.594,35.149, 50.688,14.592
	 M 115.20,231.168c 18.893-7.219, 31.053-21.158, 50.688-27.648c-11.789,23.552-25.715,44.941-50.688,55.296C 119.347,245.325, 119.347,244.646, 115.20,231.168 M 50.688,198.912
	c 16.602,20.262, 57.626,16.102, 50.688,59.904C 77.53,248.806, 52.032,216.09, 50.688,198.912 M 115.20,410.88c 15.578-7.603, 39.974-30.515, 55.296-23.04
	c-22.374,8.422-32.128,53.786-55.296,46.08C 128.73,430.003, 109.21,422.323, 115.20,410.88 M 50.688,378.624C 63.014,393.946, 85.414,399.194, 101.376,410.88L 101.376,438.528 
	C 82.189,423.846, 50.47,397.363, 50.688,378.624 M 105.984,480.00c 20.07-19.955, 39.462-45.53, 59.904-69.12c 18.65-21.53, 47.501-40.038, 50.688-64.512
	c-31.795-1.946-65.933,31.859-96.768,46.093c 5.581-41.587-7.859-72.819,0.00-101.376c 11.238-40.806, 81.37-82.291, 101.376-119.808
	c-32.666-20.211-64.87,31.104-101.376,36.864c-1.574-17.037, 1.126-69.453,0.00-101.376c 24.998-48.742, 75.789-71.68, 96.768-124.416
	c-30.81-0.96-64.947,32.832-96.768,46.08c-4.16-11.405, 5.632-51.469-9.216-64.512c-19.891,3.149-4.237,41.843-9.229,59.904
	C 70.40,26.88, 33.498-22.989,0.00-17.664c 24.845,47.078, 68.89,80.00, 101.376,124.416l0.00,101.376 C 61.03,203.443, 36.019,160.499,0.00,166.656
	c 28.339,46.912, 67.507,83.021, 101.376,124.429L 101.376,387.84 C 58.931,385.254, 36.915,339.315,0.00,346.368C 27.379,398.861, 77.005,429.107, 105.984,480.00" horiz-adv-x="217.60000000000002" />
<glyph unicode="&#x33;" d="M0.00,480.00l 13.824,0.00 l0.00-161.28 l 119.795,0.00 c 10.675,21.581, 1.587,62.925, 4.595,92.16l-27.648,0.00 C 100.032,402.995, 108.902,375.718, 105.971,360.218L 46.08,360.218 L 46.08,480.00 
	l 152.064,0.00 c 7.642-64.768, 7.642-161.024,0.00-225.792L 13.824,254.208 l0.00-221.184 l 119.795,0.00 c 10.675,21.594, 1.587,62.925, 4.595,92.16L 115.20,125.184 c-19.418-0.563-4.57-35.354-9.229-50.688
	L 46.08,74.496 l0.00,119.821 c 50.918-2.867, 113.37,5.837, 156.672-4.621c-2.957-72.307, 5.99-156.506-4.608-221.184C 133.606-28.429, 56.832-37.606,0.00-26.88
	c 13.606,16.717, 56.474,9.216, 87.552,9.216l 96.768,0.00 l0.00,198.144 l-119.808,0.00 c-1.869-18.88-21.274-94.925, 13.824-92.16c 19.405,0.563, 4.582,35.366, 9.229,50.688
	c 15.002,5.338, 50.15,8.653, 64.499,0.00L 152.064,19.20 L0.00,19.20 L0.00,268.032 l 184.307,0.00 L 184.307,466.176 l-119.808,0.00 c-1.869-18.88-21.274-94.925, 13.824-92.134
	C 100.224,375.181, 77.901,420.518, 92.147,429.312c 19.635-1.869, 47.475,4.48, 59.904-4.582l0.00-119.821 L0.00,304.909 L0.00,480.00 z" horiz-adv-x="204.8" />
<glyph unicode="&#x34;" d="M 179.765,480.00c 10.988-160.715, 1.602-341.832, 4.726-510.425c-23.736-8.231-63.698-4.726-99.249-4.726
	c-31.718,0.00-74.988-10.503-85.071,14.178c 45.975,10.726, 111.629,1.799, 165.415,4.726l0.00,37.809 c-20.848,8.638-56.976,4.555-89.797,4.713
	c-29.066,0.171-68.083-10.227-75.618,14.178c 44.426,10.726, 108.465,1.799, 160.689,4.726c 10.778,6.551, 1.759,32.899, 4.726,47.262
	c-53.576,3.138-119.703-6.275-165.415,4.726c 13.535,17.355, 48.824,9.465, 75.618,9.465l 85.071,0.00 c 10.778,6.551, 1.759,32.886, 4.726,47.262
	c-53.576,3.111-119.703-6.288-165.415,4.713c 13.535,17.355, 48.824,9.452, 75.618,9.452l 85.071,0.00 c 10.778,6.551, 1.759,32.912, 4.726,47.275
	c-53.576,3.138-119.703-6.288-165.415,4.726c 13.535,17.329, 48.824,9.452, 75.618,9.452l 85.071,0.00 c 10.778,6.551, 1.759,32.899, 4.726,47.262
	c-26.243,0.118-59.339-0.158-89.797,0.00c-29.105,0.158-67.19-10.319-75.618,14.192c 44.426,10.713, 108.465,1.785, 160.689,4.713
	c 10.778,6.551, 1.759,32.899, 4.726,47.275c-53.576,3.125-119.703-6.288-165.415,4.713c 13.535,17.355, 48.824,9.465, 75.618,9.465l 85.071,0.00 
	c 10.778,6.551, 1.759,32.886, 4.726,47.248c-53.576,3.125-119.703-6.275-165.415,4.739c 13.535,17.342, 48.824,9.439, 75.618,9.439l 85.071,0.00 
	c 10.778,6.551, 1.759,32.912, 4.726,47.275c-53.576,3.138-119.703-6.288-165.415,4.713C-0.591,476.035, 1.208,478.963, 4.897,480.00L 179.765,480.00 z" horiz-adv-x="183.7948717948718" />
</font>
</defs>
</svg>
