<?xml version="1.0" encoding="utf-8"?>
<!-- Generator: Adobe Illustrator 21.1.0, SVG Export Plug-In . SVG Version: 6.00 Build 0)  -->
<svg version="1.1" id="Layer_1" xmlns:sketch="http://www.bohemiancoding.com/sketch/ns"
	 xmlns="http://www.w3.org/2000/svg" xmlns:xlink="http://www.w3.org/1999/xlink" x="0px" y="0px" width="113px" height="106px"
	 viewBox="0 0 113 106" style="enable-background:new 0 0 113 106;" xml:space="preserve">
<style type="text/css">
	.st0{fill:#0D2240;}
	.st1{fill:#FDF7E7;}
	.st2{fill:none;stroke:#FDF7E7;stroke-width:1.2873;stroke-miterlimit:10;}
	.st3{clip-path:url(#SVGID_4_);}
	.st4{clip-path:url(#SVGID_5_);}
	.st5{clip-path:url(#SVGID_6_);fill:#FDF7E7;}
	.st6{fill:none;stroke:#FDF7E7;stroke-miterlimit:10;}
</style>
<g>
	<g>
		<polygon class="st0" points="1,53.4 1,1 112,1 112,53.4 56,103.8 		"/>
		<path class="st1" d="M111,2l0,50.9l-54.9,49.6L2,52.9L2,2H111 M113,0H0l0,53.8l56,51.4L113,53.8L113,0L113,0z"/>
	</g>
	<polygon class="st2" points="58.7,15.5 56.4,17.8 54.1,15.5 56.4,13.2 58.7,15.5 	"/>
	<g>
		<defs>
			
				<rect id="SVGID_1_" x="21.5" y="13.6" transform="matrix(1 -3.819092e-03 3.819092e-03 1 -0.1836 0.2153)" width="69.6" height="69.2"/>
		</defs>
		<defs>
			
				<rect id="SVGID_2_" x="21.5" y="13.6" transform="matrix(1 -3.819433e-03 3.819433e-03 1 -0.1836 0.2153)" width="69.6" height="69.2"/>
		</defs>
		<defs>
			<polygon id="SVGID_3_" points="92,78.9 21.1,79.1 20.8,18.6 91.8,18.4 92,78.9 			"/>
		</defs>
		<clipPath id="SVGID_4_">
			<use xlink:href="#SVGID_1_"  style="overflow:visible;"/>
		</clipPath>
		<clipPath id="SVGID_5_" class="st3">
			<use xlink:href="#SVGID_2_"  style="overflow:visible;"/>
		</clipPath>
		<clipPath id="SVGID_6_" class="st4">
			<use xlink:href="#SVGID_3_"  style="overflow:visible;"/>
		</clipPath>
		<path class="st5" d="M59.9,78.2l-0.5-0.5c-0.8-0.8-1.9-1.3-3.1-1.3c-1.2,0-2.3,0.5-3.1,1.3l-0.5,0.5L26.4,52l0.5-0.5
			c0.8-0.8,1.3-1.9,1.3-3.1c0-1.2-0.5-2.3-1.3-3.1l-0.5-0.5l26.3-26.5l0.5,0.5c0.8,0.9,2,1.3,3.1,1.3c1.1,0,2.2-0.4,3-1.2l0.5-0.4
			l26.4,26.2l-0.5,0.5c-0.8,0.8-1.3,1.9-1.3,3.1c0,1.2,0.5,2.3,1.3,3.1l0.5,0.5L59.9,78.2L59.9,78.2z M28.2,52l24.7,24.5
			c1-0.8,2.2-1.2,3.5-1.2c1.3,0,2.5,0.4,3.5,1.2l24.5-24.7c-0.8-1-1.2-2.2-1.2-3.5c0-1.3,0.4-2.5,1.2-3.5L59.7,20.3
			c-1,0.8-2.2,1.2-3.5,1.2c-1.3,0-2.6-0.4-3.6-1.3L28.2,44.9c0.8,1,1.2,2.2,1.2,3.5C29.4,49.7,29,51,28.2,52"/>
		<polygon class="st5" points="86.5,48.2 88.8,50.5 91.1,48.2 88.8,46 86.5,48.2 		"/>
		<polygon class="st5" points="21.5,48.5 23.8,50.7 26,48.5 23.7,46.2 21.5,48.5 		"/>
		<line class="st5" x1="48.3" y1="48.4" x2="64.2" y2="48.3"/>
		<polygon class="st5" points="64.2,48.9 48.3,48.9 48.3,47.8 64.2,47.8 64.2,48.9 		"/>
		<polygon class="st5" points="52.7,44.4 53.7,44.4 53.7,41.5 52.7,42.2 52.7,41.1 53.7,40.4 54.8,40.4 54.8,44.4 55.7,44.4 
			55.7,45.3 52.7,45.3 52.7,44.4 		"/>
		<path class="st5" d="M59,43.2l-1.3,1.2l2.1,0l0,0.9l-3.5,0l0-0.9l2-1.8c0.2-0.2,0.4-0.5,0.4-0.7c0-0.4-0.3-0.6-0.6-0.6
			c-0.4,0-0.7,0.2-0.7,0.7l0,0.2l-1.1,0l0-1.8l0.8,0l0.2,0.4c0.3-0.3,0.7-0.5,1.1-0.5c0.7,0,1.4,0.5,1.4,1.5
			C59.7,42.4,59.4,42.8,59,43.2L59,43.2z"/>
		<path class="st5" d="M55.2,52.9c0-0.5-0.3-0.8-0.9-0.8c-0.5,0-0.9,0.3-0.9,0.8l0,1.5c0,0.5,0.3,0.8,0.9,0.8c0.5,0,0.9-0.3,0.9-0.8
			L55.2,52.9L55.2,52.9z M56.3,54.4c0,1.2-0.8,1.8-1.9,1.8c-1.2,0-1.9-0.6-1.9-1.8l0-1.5c0-1.2,0.8-1.8,1.9-1.8
			c1.2,0,1.9,0.6,1.9,1.8L56.3,54.4L56.3,54.4z"/>
		<polygon class="st5" points="59.2,52.1 57.9,52.2 57.9,52.8 56.8,52.8 56.8,51.2 60.5,51.2 60.5,52.1 58.1,55.1 59.4,55.1 
			59.4,54.5 60.5,54.5 60.5,56.1 56.8,56.1 56.8,55.1 59.2,52.1 		"/>
	</g>
	<polygon class="st0" points="55.7,73.2 31,48.8 55.5,24.1 80.1,48.6 55.7,73.2 	"/>
	<polygon class="st1" points="40.1,49 41.2,49 41.2,45.6 40.1,46.5 40.1,45.2 41.2,44.3 42.5,44.3 42.5,49 43.6,49 43.6,50.1 
		40.1,50.1 40.1,49 	"/>
	<path class="st1" d="M46.7,47.5c0-0.4-0.3-0.5-0.6-0.5c-0.3,0-0.5,0.1-0.5,0.4c0,0.2,0.1,0.4,0.7,0.5c1,0.2,1.4,0.5,1.4,1.3
		c0,0.7-0.6,1.1-1.2,1.1c-0.3,0-0.7-0.1-1-0.4l-0.1,0.3l-0.7,0l0-1.2l0.8,0c0,0.4,0.3,0.5,0.7,0.5c0.3,0,0.6-0.1,0.6-0.4
		c0-0.2-0.1-0.4-0.7-0.5c-1-0.2-1.4-0.5-1.4-1.3c0-0.7,0.6-1.1,1.2-1.1c0.3,0,0.7,0.1,0.9,0.3l0.1-0.3l0.7,0l0,1.2L46.7,47.5
		L46.7,47.5z"/>
	<polygon class="st1" points="49,49.4 49.5,49.4 49.5,47 49.1,47 49.1,47.5 48.3,47.5 48.3,46.3 51.6,46.3 51.6,47.5 50.8,47.5 
		50.8,47 50.4,47 50.4,49.4 50.9,49.4 50.9,50.1 49,50.1 49,49.4 	"/>
	<path class="st1" d="M57.1,48.3l-0.7,0c-0.3,0-0.6,0.2-0.6,0.5c0,0.3,0.2,0.5,0.6,0.5c0.4,0,0.7-0.2,0.7-0.5L57.1,48.3L57.1,48.3z
		 M57.1,46.9c0-0.3-0.2-0.5-0.6-0.5c-0.4,0-0.6,0.2-0.6,0.5c0,0.3,0.2,0.5,0.6,0.5l2.2,0l0,0.9l-0.6,0l0,1.8l-0.7,0l-0.2-0.4
		c-0.2,0.3-0.6,0.4-1.1,0.4c-0.8,0-1.3-0.6-1.3-1.2c0-0.5,0.3-0.9,0.7-1.1c-0.4-0.2-0.7-0.5-0.7-1.1c0-0.8,0.6-1.2,1.3-1.2
		c0.3,0,0.7,0.1,1,0.4l0.1-0.3l0.8,0l0,1.4L57.1,46.9L57.1,46.9L57.1,46.9z"/>
	<path class="st1" d="M64.7,47.1c0.6,0.2,0.9,0.7,0.9,1.3c0,1-0.7,1.6-2,1.6c-1.3,0-2.1-0.7-2.1-1.6l0-0.3l1.3,0l0,0.2
		c0,0.4,0.3,0.7,0.8,0.7c0.5,0,0.7-0.3,0.7-0.7c0-0.4-0.3-0.6-0.7-0.6l-0.5,0l0-1.1l0.5,0c0.5,0,0.7-0.3,0.7-0.6
		c0-0.4-0.2-0.7-0.7-0.7c-0.5,0-0.8,0.3-0.8,0.7v0.1l-1.3,0l0-1.9l1,0l0.2,0.4c0.3-0.3,0.8-0.5,1.2-0.5c0.9,0,1.7,0.6,1.7,1.6
		C65.6,46.5,65.3,46.9,64.7,47.1L64.7,47.1z"/>
	<path class="st1" d="M68.2,47.8l0.7,0c0.3,0,0.5-0.1,0.5-0.5c0-0.3-0.2-0.5-0.5-0.5l-0.7,0L68.2,47.8L68.2,47.8z M66.9,46.2l2,0
		c0.8,0,1.3,0.4,1.3,1.2c0,0.6-0.3,1-0.7,1.1l0.5,0.8l0.5,0l0,0.7l-1.1,0l-0.8-1.4l-0.4,0l0,0.7l0.4,0l0,0.7L67,50l0-0.7l0.4,0
		l0-2.3l-0.4,0L66.9,46.2L66.9,46.2z"/>
	<path class="st1" d="M73.7,47.6c0-0.4-0.3-0.6-0.7-0.6l-0.5,0l0,2.3l0.5,0c0.4,0,0.7-0.2,0.7-0.7L73.7,47.6L73.7,47.6z M73,46.2
		c0.9,0,1.5,0.5,1.5,1.4l0,1c0,0.9-0.6,1.4-1.5,1.4l-1.8,0l0-0.7l0.4,0l0-2.3l-0.4,0l0-0.7L73,46.2L73,46.2z"/>
	<polygon class="st6" points="54.2,79.1 58.6,79.1 58.6,81 56.4,82.9 54.2,81 54.2,79.1 	"/>
</g>
</svg>
