<?xml version="1.0" encoding="UTF-8" standalone="no"?>
<svg width="113px" height="106px" viewBox="0 0 113 106" version="1.1" xmlns="http://www.w3.org/2000/svg" xmlns:xlink="http://www.w3.org/1999/xlink" xmlns:sketch="http://www.bohemiancoding.com/sketch/ns">
    <!-- Generator: Sketch 3.5.2 (25235) - http://www.bohemiancoding.com/sketch -->
    <title>6-4-3</title>
    <desc>Created with Sketch.</desc>
    <defs></defs>
    <g id="Page-1" stroke="none" stroke-width="1" fill="none" fill-rule="evenodd" sketch:type="MSPage">
        <g id="6-4-3" sketch:type="MSArtboardGroup">
            <path d="M1,0 L1,53.6637369 L56.4950205,103.889999 L111.990041,53.6637369 L111.990041,0 L1,0 L1,0 Z" id="Path" fill="#00984C" sketch:type="MSShapeGroup"></path>
            <path d="M46.1987143,24.5125765 C46.7226429,25.2618164 47.2637143,26.0382027 47.0408571,26.903629 L46.9101429,27.4096374 L46.4012143,27.6680709 C46.1912143,27.7636261 45.9908571,27.7853432 45.8044286,27.7636261 C45.7294286,28.6637999 45.6255,29.4662467 45.5601429,29.9342501 C46.0176429,30.6053085 47.3815714,32.3893681 49.8726429,33.8216108 C50.103,33.9551709 50.2787143,34.149539 50.4790714,34.4514066 L51.0758571,34.4448915 L51.2955,34.5404468 C52.4451429,35.0388542 53.5133571,35.2951159 54.4583571,35.2940301 C54.7862143,35.2940301 55.0572857,35.2625403 55.2726429,35.2212778 C55.0508571,34.1430238 54.7047857,32.9789874 54.2076429,31.6281838 C53.7051429,30.26435 53.6655,29.4651608 54.0758571,28.8679406 C54.078,28.864683 54.0790714,28.8625113 54.0812143,28.8592538 C53.3247857,28.1306451 52.1890714,27.1859513 51.5912143,26.6886298 C50.9419286,26.1489599 50.4297857,25.7233047 50.1565714,25.4409824 C48.7401429,23.9870227 47.0987143,22.7860671 45.3222857,21.8598329 C45.4851429,22.4581389 45.6222857,23.0835914 45.7122857,23.7492205 C45.7487143,23.8675786 46.0305,24.2704308 46.1987143,24.5125765 L46.1987143,24.5125765 Z M29.9258571,27.816833 L30.4401429,29.5281404 C30.4412143,29.5324838 30.4915714,29.6953621 30.6051429,29.9939722 C30.6094286,30.0080883 30.6169286,30.0200327 30.6212143,30.0352346 C30.8140714,30.5379855 31.173,31.3882099 31.7590714,32.4784082 C31.9958571,32.9181795 32.0933571,33.6315862 32.2465714,34.8553447 C32.2583571,34.9541575 32.2722857,35.0638288 32.2872857,35.1789295 C32.4137143,35.1333235 32.5551429,35.107263 32.7137143,35.107263 C33.4433571,35.107263 33.888,35.7109984 34.0551429,35.9368562 C34.8201429,36.9771052 36.0094286,37.898996 36.6844286,38.3789439 C37.3455,37.9674049 38.6172857,37.0802614 40.2672857,35.4786254 C42.5719286,33.243936 43.3305,30.2144007 43.3894286,29.9679116 C43.4237143,29.7431397 43.6755,28.056807 43.7387143,26.4747163 C43.7515714,26.1945658 43.8426429,25.945905 43.9883571,25.7428501 C44.0612143,25.6407797 44.1437143,25.5463104 44.2455,25.4713864 C44.1212143,25.2878769 44.0065714,25.1011098 43.9037143,24.9121711 C43.7505,24.6298488 43.6294286,24.3410114 43.5887143,24.0424013 C43.4162143,22.7610925 43.0819286,21.6470053 42.6094286,20.7077408 C41.4201429,20.3070603 40.1944286,20.0106219 38.943,19.8586022 L38.9419286,19.8586022 C38.7908571,19.8586022 38.4094286,20.047541 38.1565714,20.1735002 C37.6476429,20.4254185 37.0690714,20.7120842 36.4165714,20.7142559 C35.7147857,20.7142559 35.1437143,20.4189034 34.6840714,20.182187 C34.4301429,20.0507986 34.143,19.9020364 33.9962143,19.9020364 C32.7715714,20.0736015 31.5951429,20.3830702 30.4508571,20.7794072 C30.1251429,21.193118 29.8915714,21.679581 29.7372857,22.2170792 C29.4094286,23.356141 29.4190714,24.6971718 29.5787143,25.9513343 C29.6633571,26.6158775 29.7887143,27.2500168 29.9258571,27.816833 L29.9258571,27.816833 Z M17.9997857,35.1604699 C18.9222857,35.1202933 20.2658571,34.9346121 21.9469286,34.3525938 L22.1151429,34.2939577 L22.7869286,34.2885284 L23.0183571,34.5198155 C23.2701429,34.0507262 23.4705,33.7488585 23.8122857,33.5707783 C26.1512143,32.3448481 27.6501429,30.4902079 28.2276429,29.6812459 C27.813,28.3825634 26.9119286,25.0109839 27.5708571,22.060716 C27.0769286,22.3343515 26.5851429,22.6123303 26.1115714,22.9326576 C25.3605,23.4397518 24.168,24.0141691 22.9069286,24.6233337 C22.533,24.8024997 22.0990714,25.0120697 21.6694286,25.2248973 C21.7765714,25.324796 21.8708571,25.4464117 21.9447857,25.6006031 C22.0465714,25.8145165 22.2308571,26.3813328 21.7347857,27.0143862 C19.8672857,29.4000095 18.588,32.1950001 17.9997857,35.1604699 L17.9997857,35.1604699 Z M35.6569286,18.2461077 C35.9387143,18.3916122 36.2290714,18.5425461 36.408,18.5425461 C36.5708571,18.5425461 36.9426429,18.3579507 37.2137143,18.2222189 C37.6508571,18.0061337 38.1555,17.7726749 38.688,17.7075236 L38.6687143,12.9601659 C38.6644286,11.7635537 37.7055,10.7971429 36.5269286,10.7971429 L36.5172857,10.7971429 C35.3333571,10.803658 34.3787143,11.7776699 34.383,12.9775396 L34.4022857,17.7813618 C34.8747857,17.8671443 35.3119286,18.0669416 35.6569286,18.2461077 L35.6569286,18.2461077 Z M28.5147857,44.1155155 C30.4208571,41.7505235 31.3144286,39.6950001 31.7322857,38.3441966 L31.6326429,38.340939 C30.5119286,38.266015 30.3640714,37.0846049 30.1208571,35.1278943 C30.0490714,34.5589063 29.9419286,33.6978233 29.8583571,33.4773948 C29.7597857,33.2949711 29.6751429,33.1277495 29.5883571,32.9550986 L25.0594286,42.6192074 C24.8762143,43.0101152 24.4905,43.2392306 24.0897857,43.2392306 C23.9355,43.2392306 23.7790714,43.2055691 23.6312143,43.1339027 C23.0965714,42.876555 22.8694286,42.2282997 23.1233571,41.6875439 L26.5433571,34.3927705 C26.0633571,34.7445875 25.5544286,35.0866318 24.9865714,35.3971863 C24.9158571,35.5177162 24.8365714,35.6805944 24.7455,35.8575888 C24.2172857,36.8793783 23.6194286,38.0368996 22.5544286,38.0368996 L22.0819286,38.0368996 L21.6758571,37.6470777 C21.453,37.4005886 21.3597857,37.1128371 21.3287143,36.8087977 C21.108,36.8685197 20.9022857,36.9108681 20.6933571,36.9575598 C20.5455,37.6253606 20.2219286,39.3920466 20.2969286,41.8460787 C20.4008571,45.1937695 21.4540714,47.824796 22.0412143,49.044211 C23.3247857,48.5436319 26.0269286,47.2026011 28.5147857,44.1155155 L28.5147857,44.1155155 Z M41.6301429,37.158443 C41.8390714,38.2421262 42.5837143,40.8622942 45.1926429,44.044935 C47.7040714,47.1081317 50.4137143,48.4274454 51.7047857,48.9204236 C52.2812143,47.6890641 53.3172857,45.0341488 53.3912143,41.7049176 C53.4351429,39.7395202 53.2251429,38.2084647 53.0612143,37.3321798 C52.6787143,37.2659426 52.2919286,37.1834177 51.8922857,37.0650595 C51.8526429,37.2757153 51.768,37.4679116 51.6072857,37.6438201 L51.2901429,37.9902079 L50.5647857,38.0010664 L50.3333571,37.8935668 C49.8672857,37.6633655 49.5865714,37.1975338 49.0894286,36.3212488 C48.9651429,36.1008203 48.7851429,35.7848365 48.6812143,35.6328168 C48.1240714,35.3048886 47.6333571,34.9639302 47.1726429,34.6186283 L50.1619286,41.2521161 C50.4083571,41.7961294 50.1715714,42.4400414 49.6337143,42.6887021 C49.4890714,42.7560252 49.3369286,42.7875149 49.1890714,42.7875149 C48.7819286,42.7875149 48.393,42.5518844 48.213,42.1522898 L44.3162143,33.5045411 C43.7387143,34.6392596 42.9105,35.9205684 41.7490714,37.0465999 C41.7083571,37.0867766 41.6708571,37.1182664 41.6301429,37.158443 L41.6301429,37.158443 Z M31.6219286,50.3070603 C31.1697857,49.4915833 30.7465714,48.565349 30.3587143,47.6239128 L29.5947857,50.3461511 C29.4608571,50.8228414 29.0322857,51.1355676 28.5651429,51.1355676 C28.4676429,51.1355676 28.3690714,51.1225374 28.2715714,51.0932193 C27.7026429,50.9292552 27.3715714,50.3287774 27.5344286,49.7521885 L28.113,47.6890641 C27.2590714,48.4730514 26.4255,49.1017614 25.6540714,49.6001688 C25.6872857,50.8825634 25.8715714,53.6786399 26.7983571,55.998026 C27.3705,57.4302687 27.7862143,58.3489019 28.0669286,58.9222333 C28.9358571,58.3326141 30.2558571,57.3292842 31.2190714,56.1076974 C32.0044286,55.1097967 32.7244286,54.0999516 33.3790714,53.123768 C32.8176429,52.3148061 32.2165714,51.3831426 31.6219286,50.3070603 L31.6219286,50.3070603 Z M38.7683571,54.9002267 C38.4115714,55.3573716 38.1190714,55.6885574 37.8897857,55.9252737 L37.9444286,59.9168765 C37.9519286,60.5162684 37.4794286,61.0092465 36.8890714,61.0179334 L36.873,61.0179334 C36.288,61.0179334 35.8101429,60.5423289 35.8015714,59.9472804 L35.7490714,56.1131266 C35.5465714,55.8959557 35.1940714,55.4996186 34.7451429,54.9458326 C34.173,55.7754258 33.5569286,56.619135 32.8937143,57.4628443 C32.6076429,57.8255199 32.298,58.1653925 31.9808571,58.4878914 C32.5894286,60.1405626 33.2151429,61.7411127 33.7090714,62.7781042 C34.6519286,64.7565319 36.0705,66.387486 36.8676429,67.218165 C37.5158571,66.6817527 38.5733571,65.6154431 39.5108571,63.7944644 C40.4312143,62.0017179 41.0815714,60.0993001 41.538,58.4031947 C41.2337143,58.0980695 40.9369286,57.7744847 40.6626429,57.4313545 C39.9833571,56.5843877 39.3533571,55.7330774 38.7683571,54.9002267 L38.7683571,54.9002267 Z M33.8237143,38.8469474 C33.4433571,40.1325996 32.7040714,41.9199169 31.2951429,43.9776119 C31.8726429,45.6900052 32.6397857,47.7064378 33.4905,49.2440084 C34.7033571,51.4352636 35.9740714,53.0749045 36.7412143,53.9805076 C37.2790714,53.3441966 38.1544286,52.1714732 39.3501429,50.1311518 C41.0033571,47.3111866 41.7147857,44.5389989 41.9751429,43.2794072 C40.8105,41.4801456 40.1676429,39.9165145 39.8215714,38.76768 C38.973,39.4593696 38.2937143,39.9230296 37.8222857,40.2172963 L37.8212143,47.398055 C37.8212143,47.9985328 37.3412143,48.4839099 36.7497857,48.4839099 C36.1572857,48.4839099 35.6783571,47.9974469 35.6783571,47.398055 L35.6794286,40.3150233 C35.2562143,40.0240141 34.5501429,39.5082331 33.8237143,38.8469474 L33.8237143,38.8469474 Z M45.3222857,50.5307464 C45.4112143,51.1236232 45.0083571,51.6774093 44.4233571,51.7675352 C44.3687143,51.7751362 44.3140714,51.7794796 44.2605,51.7794796 C43.7408571,51.7794796 43.2833571,51.395087 43.203,50.8575888 L42.7744286,47.9985328 C42.3640714,49.0203222 41.8476429,50.122465 41.1919286,51.2398097 C40.7933571,51.9195549 40.4290714,52.5070024 40.0915714,53.0260411 C40.7665714,54.0185125 41.5112143,55.0468171 42.3255,56.0631773 C43.2983571,57.2749914 44.628,58.2674628 45.5022857,58.8483952 C45.7755,58.2772355 46.1826429,57.3542588 46.7440714,55.915501 C47.6976429,53.467984 47.8283571,50.526403 47.8401429,49.3406494 C46.8747857,48.7021667 45.8194286,47.8628009 44.7597857,46.7812894 L45.3222857,50.5307464 Z M87.8183571,53.8143718 L87.2955,52.0661453 C87.2944286,52.0618019 87.2440714,51.8967519 87.1305,51.5992277 C87.1251429,51.5861974 87.1197857,51.574253 87.1155,51.5612228 C86.9226429,51.0584719 86.5637143,50.2082475 85.9776429,49.1158775 C85.7408571,48.6771921 85.6422857,47.9637854 85.4901429,46.738941 C85.4783571,46.6401282 85.4633571,46.5304569 85.4494286,46.4153563 C85.3240714,46.4609622 85.1815714,46.4870227 85.023,46.4870227 C84.2933571,46.4870227 83.8487143,45.8843732 83.6815714,45.6574295 C82.9165714,44.6182664 81.7272857,43.6952897 81.0522857,43.2164276 C80.3922857,43.6268808 79.1205,44.5129384 77.4694286,46.1167462 C75.2055,48.3123448 74.4308571,51.2778146 74.3483571,51.6144297 C74.3215714,51.7925099 74.0633571,53.5103324 73.9969286,55.1195694 C73.9851429,55.39972 73.8940714,55.6483807 73.7483571,55.8514356 C73.6755,55.953506 73.593,56.0490612 73.4912143,56.1239852 C73.6155,56.3064088 73.7301429,56.49209 73.833,56.6810288 C73.9872857,56.9633511 74.1072857,57.2511026 74.148,57.5518844 C74.3205,58.8331932 74.6547857,59.9472804 75.1272857,60.8876308 C76.3176429,61.2883112 77.5422857,61.5847496 78.7947857,61.7367693 L78.7958571,61.7367693 C78.9447857,61.7367693 79.3272857,61.5478306 79.5801429,61.4218714 C80.0890714,61.169953 80.6665714,60.8822015 81.318,60.8800298 C82.023,60.8800298 82.5940714,61.1764682 83.0526429,61.4120987 C83.3076429,61.544573 83.5947857,61.6922493 83.7415714,61.6922493 C84.9651429,61.5206842 86.1415714,61.2112155 87.2847857,60.8148785 C87.6105,60.4011678 87.8451429,59.9157906 87.9994286,59.3782924 C88.3262143,58.2403164 88.3165714,56.896028 88.1569286,55.6418656 C88.0733571,54.9925244 87.9522857,54.3714153 87.8183571,53.8143718 L87.8183571,53.8143718 Z M63.6608571,52.727431 C63.6587143,52.7296027 63.6576429,52.7328602 63.6555,52.735032 C64.4108571,53.4658123 65.5455,54.4061627 66.1422857,54.9034842 C66.7915714,55.44424 67.3058571,55.8720668 67.5801429,56.1543891 C68.9976429,57.6083489 70.638,58.8082186 72.4144286,59.7355387 C72.2515714,59.1361468 72.1144286,58.5117802 72.0244286,57.8450653 C71.9869286,57.7267071 71.7062143,57.3238549 71.538,57.0827951 C71.0140714,56.3335552 70.4719286,55.5571689 70.6958571,54.6906567 L70.8265714,54.1846483 L71.3344286,53.9262148 C71.5455,53.8317454 71.7469286,53.8143718 71.9333571,53.8306596 C72.0083571,52.9294 72.1112143,52.1269532 72.1765714,51.6600356 C71.7190714,50.9889772 70.3551429,49.2049176 67.863,47.7726749 C67.6337143,47.6391148 67.458,47.4458326 67.2565714,47.1428791 L66.6608571,47.1493942 L66.4412143,47.053839 C65.2915714,46.5554315 64.2233571,46.3002556 63.2772857,46.3002556 C62.9505,46.3002556 62.6794286,46.3317454 62.4619286,46.3730079 C62.6826429,47.4512619 63.0233571,48.595753 63.5290714,49.965016 C64.0326429,51.3299357 64.0690714,52.1302108 63.6608571,52.727431 L63.6608571,52.727431 Z M99.7369286,46.4349017 C98.8133571,46.4761641 97.4708571,46.6607595 95.7897857,47.2427777 L95.6215714,47.300328 L94.9487143,47.3057573 L94.7172857,47.0744702 C94.4665714,47.5435595 94.2662143,47.8454272 93.9255,48.0235074 C91.5865714,49.2494376 90.0865714,51.1040779 89.508,51.9130398 C89.9237143,53.2117223 90.8247857,56.5833018 90.1647857,59.5335697 C90.6587143,59.2599342 91.1505,58.9819554 91.6251429,58.6616282 C92.3762143,58.1545339 93.5676429,57.5801167 94.8297857,56.9720379 C95.2026429,56.7928718 95.6376429,56.582216 96.0662143,56.3693884 C95.9601429,56.2716615 95.8647857,56.147874 95.7919286,55.9936826 C95.6901429,55.7797692 95.5058571,55.2129529 96.0008571,54.5798995 C97.8694286,52.1942762 99.1476429,49.3992856 99.7369286,46.4349017 L99.7369286,46.4349017 Z M82.0797857,63.348178 C81.7990714,63.2026735 81.5076429,63.0517396 81.3287143,63.0517396 C81.1658571,63.0528255 80.7951429,63.2385067 80.523,63.3720668 C80.0847857,63.5903237 79.5919286,63.8216108 79.0487143,63.8835045 L79.0669286,68.6341198 C79.0733571,69.830732 80.0312143,70.7971429 81.2097857,70.7971429 L81.2194286,70.7971429 C82.4033571,70.7917136 83.3590714,69.8166159 83.3526429,68.6167462 L83.3344286,63.8129239 C82.8608571,63.7260556 82.4258571,63.5273441 82.0797857,63.348178 L82.0797857,63.348178 Z M89.2219286,37.479856 C87.2965714,39.8698227 86.4062143,41.9090583 85.9947857,43.2490033 L86.1040714,43.2533467 C87.2247857,43.3304424 87.3715714,44.5107667 87.6158571,46.4663914 C87.6876429,47.0353794 87.7947857,47.8964624 87.8783571,48.1168909 C87.9769286,48.2993146 88.0615714,48.4676221 88.1483571,48.6381013 L92.6772857,38.97725 C92.9312143,38.4343225 93.5697857,38.206293 94.1055,38.4625548 C94.6401429,38.7199024 94.8672857,39.3681578 94.6133571,39.9089135 L91.1944286,47.2026011 C91.6733571,46.8496982 92.1812143,46.5076539 92.7490714,46.1981853 C92.8187143,46.0776554 92.8990714,45.9147771 92.9912143,45.7366969 C93.5194286,44.7149074 94.1183571,43.5573861 95.1833571,43.5573861 L95.6537143,43.5573861 L96.0608571,43.947208 C96.2837143,44.1936971 96.3769286,44.4825345 96.408,44.785488 C96.6287143,44.725766 96.8344286,44.6834177 97.0433571,44.6367259 C97.1912143,43.9689251 97.5147857,42.2022391 97.4397857,39.748207 C97.3369286,36.4211475 96.2805,33.7770907 95.6922857,32.5511605 C94.4076429,33.0517396 91.7087143,34.3938563 89.2219286,37.479856 L89.2219286,37.479856 Z M65.8433571,44.5303121 C65.8840714,44.3185704 65.9676429,44.1274599 66.1294286,43.9515514 L66.4465714,43.6040779 L67.1751429,43.5943052 L67.4076429,43.7039765 C67.8694286,43.9298343 68.1490714,44.3967519 68.6472857,45.2741227 C68.7726429,45.4934654 68.9515714,45.8094492 69.0555,45.9614689 C69.6126429,46.2893971 70.1033571,46.6314414 70.563,46.9756574 L67.5737143,40.3432555 C67.3272857,39.7981563 67.5651429,39.1542443 68.103,38.9055836 C68.6419286,38.6536652 69.2772857,38.8958109 69.5237143,39.4419959 L73.4205,48.0897446 C73.998,46.9550262 74.8262143,45.6737173 75.9865714,44.5476858 C76.0283571,44.5075092 76.0647857,44.4760194 76.1065714,44.4369286 C75.8976429,43.3532454 75.153,40.7330774 72.5451429,37.5504366 C70.0122857,34.4633511 67.3176429,33.1548959 66.033,32.6706046 C65.4576429,33.9008782 64.4205,36.5579652 64.3455,39.8893681 C64.3015714,41.8547656 64.5115714,43.3879927 64.6755,44.2631918 C65.058,44.3294289 65.4458571,44.4119539 65.8433571,44.5303121 L65.8433571,44.5303121 Z M86.1147857,31.2883112 C86.5669286,32.1037883 86.9901429,33.0300225 87.378,33.9714588 L88.1408571,31.2481346 C88.3026429,30.6715456 88.8951429,30.3284155 89.4651429,30.5010664 C90.0340714,30.6650305 90.3640714,31.2655083 90.2022857,31.8420973 L89.6237143,33.9052216 C90.4776429,33.1212344 91.3112143,32.4936102 92.0826429,31.9952028 C92.0483571,30.7117223 91.8651429,27.91456 90.9394286,25.5962597 C90.3662143,24.1651029 89.9505,23.2453838 89.6687143,22.6720524 C88.7997857,23.2616716 87.4797857,24.2650016 86.5176429,25.4876742 C85.7312143,26.484489 85.0112143,27.4943341 84.3565714,28.4716035 C84.9190714,29.2805655 85.5190714,30.2111431 86.1147857,31.2883112 L86.1147857,31.2883112 Z M78.9672857,26.694059 C79.3240714,26.2369141 79.6176429,25.9057284 79.8469286,25.6700978 L79.7922857,21.6774093 C79.7826429,21.0780173 80.2562143,20.5850392 80.8487143,20.5763524 C81.4262143,20.6187007 81.9255,21.0476134 81.9351429,21.6470053 L81.9876429,25.4822449 C82.1901429,25.6983301 82.5426429,26.0946671 82.9926429,26.6484531 C83.5637143,25.8210317 84.1797857,24.9751507 84.843,24.1325272 C85.1290714,23.7698517 85.4387143,23.4288933 85.7558571,23.1063943 C85.1472857,21.454809 84.5215714,19.853173 84.0276429,18.8172674 C83.0847857,16.8399255 81.6662143,15.2067997 80.8690714,14.3772066 C80.2219286,14.912533 79.1633571,15.9799284 78.2258571,17.7998213 C77.3044286,19.5936536 76.6551429,21.4960715 76.1987143,23.191091 C76.5019286,23.4973021 76.7997857,23.8208869 77.0740714,24.164017 C77.7522857,25.0109839 78.3833571,25.8622942 78.9672857,26.694059 L78.9672857,26.694059 Z M72.4144286,31.0646251 C72.3265714,30.4717483 72.7283571,29.9190482 73.3133571,29.8289222 C73.8983571,29.7377104 74.4447857,30.144906 74.5337143,30.7377828 L74.9612143,33.5946671 C75.3726429,32.5739635 75.888,31.4707349 76.5437143,30.354476 C76.9422857,29.6747308 77.3076429,29.0872833 77.6451429,28.5693305 C76.9690714,27.5768591 76.2244286,26.5485545 75.4112143,25.5321943 C74.4383571,24.3203802 73.1087143,23.3268229 72.2355,22.7458905 C71.9612143,23.3181361 71.553,24.2411127 70.9915714,25.6809564 C70.038,28.1284734 69.9083571,31.0700544 69.8965714,32.2536363 C70.8619286,32.892119 71.9162143,33.7325707 72.9769286,34.815168 L72.4144286,31.0646251 Z M82.0572857,41.2792624 L82.0583571,34.1962307 C82.0583571,33.5968388 81.5783571,33.1103758 80.9869286,33.1103758 C80.3955,33.1103758 79.9155,33.595753 79.9155,34.1962307 L79.9144286,41.3769894 C79.443,41.6701702 78.7637143,42.1349161 77.9151429,42.8266057 C77.568,41.6788571 76.9240714,40.1130543 75.7605,38.3127068 C76.0176429,37.0574585 76.7247857,34.2961294 78.3865714,31.4631339 C79.5822857,29.4228125 80.4576429,28.2500891 80.9965714,27.6137782 C81.7626429,28.5193812 83.0333571,30.1590221 84.2462143,32.3513632 C85.0969286,33.8889338 85.8640714,35.9042805 86.4415714,37.6177596 C85.0326429,39.6743689 84.2933571,41.4616861 83.9119286,42.7473383 C83.1865714,42.0871385 82.4805,41.5702716 82.0572857,41.2792624 L82.0572857,41.2792624 Z" id="Fill-1" fill="#FDF7E7" sketch:type="MSShapeGroup"></path>
            <path d="M0,0 L0,54.6313333 L56.4956364,105.763212 L112.991273,54.6313333 L112.991273,0 L0,0 L0,0 Z M110.688242,53.6110909 L56.4956364,102.657576 L2.3030303,53.6110909 L2.3030303,2.3030303 L110.688242,2.3030303 L110.688242,53.6110909 L110.688242,53.6110909 Z" id="Shape" fill="#FDF7E7" sketch:type="MSShapeGroup"></path>
        </g>
    </g>
</svg>