<?xml version="1.0" encoding="utf-8"?>
<!-- Generator: Adobe Illustrator 21.1.0, SVG Export Plug-In . SVG Version: 6.00 Build 0)  -->
<svg version="1.1" id="Layer_1" xmlns:sketch="http://www.bohemiancoding.com/sketch/ns"
	 xmlns="http://www.w3.org/2000/svg" xmlns:xlink="http://www.w3.org/1999/xlink" x="0px" y="0px" width="113px" height="106px"
	 viewBox="0 0 113 106" style="enable-background:new 0 0 113 106;" xml:space="preserve">
<style type="text/css">
	.st0{fill:#C5AC97;}
	.st1{opacity:0.2;}
	.st2{fill:#0D2240;}
</style>
<title>sunlight park</title>
<desc>Created with Sketch.</desc>
<g id="Page-1" sketch:type="MSPage">
</g>
<polygon class="st0" points="0,0 0,54 55.4,105.6 111.8,53.7 111.8,0 "/>
<g>
	<g>
		<defs>
			<polygon id="SVGID_1_" points="0.2,0.2 112.1,0.2 112.1,53.8 55.7,105.6 0.2,54.1 			"/>
		</defs>
		<clipPath id="SVGID_2_">
			<use xlink:href="#SVGID_1_"  style="overflow:visible;"/>
		</clipPath>
	</g>
	<g class="st1">
		<path class="st2" d="M50.9,50v-8.7h15.8l11.2,9.3v15.7l-11.2,10h-19l-11.2-9.9v-9.9h8.7v6.2l5.8,5h12.4l5.8-5v-7.9L63.4,50H50.9
			l18.2-12.8v-7l-5.8-5H51l-5.8,5v6.2h-8.7v-9.9l11.2-9.9h19l11.2,9.9V41l-6,4.5L50.9,50z"/>
	</g>
	<g>
		<path class="st2" d="M48.4,47.4v-8.7h15.8L75.3,48v15.7l-11.2,10h-19L34,63.7v-9.9h8.7V60l5.8,5h12.4l5.8-5v-7.9l-5.8-4.6H48.4
			l18.2-12.8v-7l-5.8-5H48.5l-5.8,5v6.2H34v-9.9L45.2,14h19l11.2,9.9v14.5l-6,4.5L48.4,47.4z"/>
	</g>
</g>
</svg>
