<?xml version="1.0" encoding="UTF-8" standalone="no"?>
<svg width="113px" height="106px" viewBox="0 0 113 106" version="1.1" xmlns="http://www.w3.org/2000/svg" xmlns:xlink="http://www.w3.org/1999/xlink" xmlns:sketch="http://www.bohemiancoding.com/sketch/ns">
    <!-- Generator: Sketch 3.5.2 (25235) - http://www.bohemiancoding.com/sketch -->
    <title>bricks mortar</title>
    <desc>Created with Sketch.</desc>
    <defs>
        <path id="path-1" d="M0.887892473,0.618903226 L0.919806452,53.1116989 L56.0717204,103.248559 L112.121785,53.1116989 L112.15028,0.618903226 L0.887892473,0.618903226 Z"></path>
        <path id="path-3" d="M0.887892473,0.618903226 L0.919806452,53.1116989 L56.0717204,103.248559 L112.121785,53.1116989 L112.15028,0.618903226 L0.887892473,0.618903226 Z"></path>
        <path id="path-5" d="M0.887892473,0.618903226 L0.919806452,53.1116989 L56.0717204,103.248559 L112.121785,53.1116989 L112.15028,0.618903226 L0.887892473,0.618903226 Z"></path>
        <path id="path-7" d="M0.887892473,0.618903226 L0.919806452,53.1116989 L56.0717204,103.248559 L112.121785,53.1116989 L112.15028,0.618903226 L0.887892473,0.618903226 Z"></path>
    </defs>
    <g id="Page-1" stroke="none" stroke-width="1" fill="none" fill-rule="evenodd" sketch:type="MSPage">
        <g id="bricks-mortar" sketch:type="MSArtboardGroup">
            <g id="Page-1" sketch:type="MSLayerGroup" transform="translate(0.000000, -1.000000)">
                <path d="M0.887664516,0.618903226 L112.150052,0.618903226 L112.121557,53.1128387 L56.0714925,103.248559 L0.919578495,53.1128387 L0.887664516,0.618903226 Z" id="Fill-1" fill="#90D4D1" sketch:type="MSShapeGroup"></path>
                <path d="M0.893705376,10.8414065 L0.897124731,15.4108043 L17.3157269,15.4108043 L7.58994194,0.738352688 L0.893705376,10.8414065 Z" id="Fill-2" fill="#8FD1CC" sketch:type="MSShapeGroup"></path>
                <path d="M0.887436559,0.738466667 L0.894275269,10.8415204 L7.59051183,0.738466667 L0.887436559,0.738466667 Z" id="Fill-3" fill="#8ED6D3" sketch:type="MSShapeGroup"></path>
                <path d="M17.3145871,15.4105763 L36.7627376,15.4105763 L27.040372,0.738124731 L17.3145871,15.4105763 Z" id="Fill-4" fill="#83CCC8" sketch:type="MSShapeGroup"></path>
                <path d="M36.7628516,15.4105763 L56.2155613,15.4105763 L46.4886366,0.738124731 L36.7628516,15.4105763 Z" id="Fill-5" fill="#8FD1CC" sketch:type="MSShapeGroup"></path>
                <path d="M27.0402581,0.738466667 L36.7626237,15.4109183 L46.4884086,0.738466667 L27.0402581,0.738466667 Z" id="Fill-6" fill="#8ED6D3" sketch:type="MSShapeGroup"></path>
                <path d="M7.58994194,0.738466667 L17.3145871,15.4109183 L27.040372,0.738466667 L7.58994194,0.738466667 Z" id="Fill-7" fill="#90D4D1" sketch:type="MSShapeGroup"></path>
                <path d="M56.2152194,15.4105763 L75.6610903,15.4105763 L65.9375849,0.738124731 L56.2152194,15.4105763 Z" id="Fill-8" fill="#83CCC8" sketch:type="MSShapeGroup"></path>
                <path d="M75.6614323,15.4105763 L95.1141419,15.4105763 L85.3872172,0.738124731 L75.6614323,15.4105763 Z" id="Fill-9" fill="#8FD1CC" sketch:type="MSShapeGroup"></path>
                <path d="M65.9378129,0.738466667 L75.6613183,15.4109183 L85.3871032,0.738466667 L65.9378129,0.738466667 Z" id="Fill-10" fill="#8ED6D3" sketch:type="MSShapeGroup"></path>
                <path d="M46.4885226,0.738466667 L56.2131677,15.4109183 L65.9378129,0.738466667 L46.4885226,0.738466667 Z" id="Fill-11" fill="#90D4D1" sketch:type="MSShapeGroup"></path>
                <path d="M95.1117484,15.4105763 L112.142415,15.4105763 L112.144695,11.7644043 L104.836394,0.738124731 L95.1117484,15.4105763 Z" id="Fill-12" fill="#83CCC8" sketch:type="MSShapeGroup"></path>
                <path d="M104.836394,0.738466667 L112.144695,11.7670258 L112.150394,0.738466667 L104.836394,0.738466667 Z" id="Fill-13" fill="#8ED6D3" sketch:type="MSShapeGroup"></path>
                <path d="M85.3871032,0.738466667 L95.1106086,15.4109183 L104.836394,0.738466667 L85.3871032,0.738466667 Z" id="Fill-14" fill="#90D4D1" sketch:type="MSShapeGroup"></path>
                <path d="M0.905673118,29.918557 L7.59051183,29.918557 L0.898834409,19.8200624 L0.905673118,29.918557 Z" id="Fill-15" fill="#8FD1CC" sketch:type="MSShapeGroup"></path>
                <path d="M7.58994194,29.918557 L27.040372,29.918557 L17.3157269,15.242686 L7.58994194,29.918557 Z" id="Fill-16" fill="#83CCC8" sketch:type="MSShapeGroup"></path>
                <path d="M27.0382065,29.918557 L46.4886366,29.918557 L36.7628516,15.242686 L27.0382065,29.918557 Z" id="Fill-17" fill="#8FD1CC" sketch:type="MSShapeGroup"></path>
                <path d="M17.3145871,15.2423441 L27.0380925,29.9182151 L36.7627376,15.2423441 L17.3145871,15.2423441 Z" id="Fill-18" fill="#8ED6D3" sketch:type="MSShapeGroup"></path>
                <path d="M0.89644086,15.2423441 L0.899860215,19.8208602 L7.58925806,29.9182151 L17.315043,15.2423441 L0.89644086,15.2423441 Z" id="Fill-19" fill="#90D4D1" sketch:type="MSShapeGroup"></path>
                <path d="M46.4885226,29.918557 L65.9378129,29.918557 L56.2154473,15.242686 L46.4885226,29.918557 Z" id="Fill-20" fill="#83CCC8" sketch:type="MSShapeGroup"></path>
                <path d="M65.9378129,29.918557 L85.3905226,29.918557 L75.6613183,15.242686 L65.9378129,29.918557 Z" id="Fill-21" fill="#8FD1CC" sketch:type="MSShapeGroup"></path>
                <path d="M56.2152194,15.2423441 L65.9375849,29.9182151 L75.6610903,15.2423441 L56.2152194,15.2423441 Z" id="Fill-22" fill="#8ED6D3" sketch:type="MSShapeGroup"></path>
                <path d="M36.7628516,15.2423441 L46.4886366,29.9182151 L56.2155613,15.2423441 L36.7628516,15.2423441 Z" id="Fill-23" fill="#90D4D1" sketch:type="MSShapeGroup"></path>
                <path d="M85.3871032,29.918557 L104.836394,29.918557 L95.114028,15.242686 L85.3871032,29.918557 Z" id="Fill-24" fill="#83CCC8" sketch:type="MSShapeGroup"></path>
                <path d="M104.835368,29.918557 L112.134551,29.918557 L112.140249,18.8956968 L104.835368,29.918557 Z" id="Fill-25" fill="#8FD1CC" sketch:type="MSShapeGroup"></path>
                <path d="M95.1117484,15.2423441 L104.835254,29.9182151 L112.140135,18.8953548 L112.142415,15.2423441 L95.1117484,15.2423441 Z" id="Fill-26" fill="#8ED6D3" sketch:type="MSShapeGroup"></path>
                <path d="M75.6614323,15.2423441 L85.3849376,29.9182151 L95.1118624,15.2423441 L75.6614323,15.2423441 Z" id="Fill-27" fill="#90D4D1" sketch:type="MSShapeGroup"></path>
                <path d="M0.887322581,0.618447312 L0.887322581,0.66403871 L7.59039785,0.66403871 L7.55962366,0.618447312 L0.887322581,0.618447312 Z" id="Fill-28" fill="#8FD1CC" sketch:type="MSShapeGroup"></path>
                <path d="M7.62048817,0.618447312 L7.58971398,0.66403871 L27.0401441,0.66403871 L27.0093699,0.618447312 L7.62048817,0.618447312 Z" id="Fill-29" fill="#83CCC8" sketch:type="MSShapeGroup"></path>
                <path d="M27.0687527,0.618447312 L27.0379785,0.66403871 L46.4884086,0.66403871 L46.4576344,0.618447312 L27.0687527,0.618447312 Z" id="Fill-30" fill="#8FD1CC" sketch:type="MSShapeGroup"></path>
                <path d="M27.0076602,0.618447312 L27.0384344,0.66403871 L27.0692086,0.618447312 L27.0076602,0.618447312 Z" id="Fill-31" fill="#8ED6D3" sketch:type="MSShapeGroup"></path>
                <path d="M7.55836989,0.618447312 L7.58914409,0.66403871 L7.61991828,0.618447312 L7.55836989,0.618447312 Z" id="Fill-32" fill="#90D4D1" sketch:type="MSShapeGroup"></path>
                <path d="M46.5190688,0.618447312 L46.4882946,0.66403871 L65.9375849,0.66403871 L65.9068108,0.618447312 L46.5190688,0.618447312 Z" id="Fill-33" fill="#83CCC8" sketch:type="MSShapeGroup"></path>
                <path d="M65.9683591,0.618447312 L65.9375849,0.66403871 L85.3902946,0.66403871 L85.3595204,0.618447312 L65.9683591,0.618447312 Z" id="Fill-34" fill="#8FD1CC" sketch:type="MSShapeGroup"></path>
                <path d="M65.9072667,0.618447312 L65.9380409,0.66403871 L65.9688151,0.618447312 L65.9072667,0.618447312 Z" id="Fill-35" fill="#8ED6D3" sketch:type="MSShapeGroup"></path>
                <path d="M46.4579763,0.618447312 L46.4887505,0.66403871 L46.5195247,0.618447312 L46.4579763,0.618447312 Z" id="Fill-36" fill="#90D4D1" sketch:type="MSShapeGroup"></path>
                <path d="M85.4176495,0.618447312 L85.3868753,0.66403871 L104.836166,0.66403871 L104.805391,0.618447312 L85.4176495,0.618447312 Z" id="Fill-37" fill="#83CCC8" sketch:type="MSShapeGroup"></path>
                <path d="M104.865914,0.618447312 L104.83514,0.66403871 L112.15028,0.66403871 L112.15028,0.618447312 L104.865914,0.618447312 Z" id="Fill-38" fill="#8FD1CC" sketch:type="MSShapeGroup"></path>
                <path d="M104.804822,0.618447312 L104.835596,0.66403871 L104.86637,0.618447312 L104.804822,0.618447312 Z" id="Fill-39" fill="#8ED6D3" sketch:type="MSShapeGroup"></path>
                <path d="M85.3545054,0.618447312 L85.3852796,0.66403871 L85.4160538,0.618447312 L85.3545054,0.618447312 Z" id="Fill-40" fill="#90D4D1" sketch:type="MSShapeGroup"></path>
                <path d="M0.920148387,53.1120409 L7.53432043,59.1244065 L7.59016989,59.1244065 L0.917868817,49.0509871 L0.920148387,53.1120409 Z" id="Fill-41" fill="#8FD1CC" sketch:type="MSShapeGroup"></path>
                <path d="M7.58994194,59.1242925 L27.040372,59.1242925 L17.3157269,44.4450022 L7.58994194,59.1242925 Z" id="Fill-42" fill="#83CCC8" sketch:type="MSShapeGroup"></path>
                <path d="M27.0382065,59.1242925 L46.4886366,59.1242925 L36.7628516,44.4450022 L27.0382065,59.1242925 Z" id="Fill-43" fill="#8FD1CC" sketch:type="MSShapeGroup"></path>
                <path d="M17.3145871,44.4450022 L27.0380925,59.1242925 L36.7627376,44.4450022 L17.3145871,44.4450022 Z" id="Fill-44" fill="#8ED6D3" sketch:type="MSShapeGroup"></path>
                <path d="M0.914791398,44.4450022 L0.918210753,49.0520129 L7.58937204,59.1242925 L17.315157,44.4450022 L0.914791398,44.4450022 Z" id="Fill-45" fill="#90D4D1" sketch:type="MSShapeGroup"></path>
                <path d="M46.4885226,59.1242925 L65.9378129,59.1242925 L56.2154473,44.4450022 L46.4885226,59.1242925 Z" id="Fill-46" fill="#83CCC8" sketch:type="MSShapeGroup"></path>
                <path d="M65.9378129,59.1242925 L85.3905226,59.1242925 L75.6613183,44.4450022 L65.9378129,59.1242925 Z" id="Fill-47" fill="#8FD1CC" sketch:type="MSShapeGroup"></path>
                <path d="M56.2152194,44.4450022 L65.9375849,59.1242925 L75.6610903,44.4450022 L56.2152194,44.4450022 Z" id="Fill-48" fill="#8ED6D3" sketch:type="MSShapeGroup"></path>
                <path d="M36.7628516,44.4450022 L46.4886366,59.1242925 L56.2155613,44.4450022 L36.7628516,44.4450022 Z" id="Fill-49" fill="#90D4D1" sketch:type="MSShapeGroup"></path>
                <path d="M85.3871032,59.1242925 L104.836394,59.1242925 L95.114028,44.4450022 L85.3871032,59.1242925 Z" id="Fill-50" fill="#83CCC8" sketch:type="MSShapeGroup"></path>
                <path d="M104.835368,59.1242925 L105.400701,59.1242925 L112.122013,53.1119269 L112.124292,48.1230882 L104.835368,59.1242925 Z" id="Fill-51" fill="#8FD1CC" sketch:type="MSShapeGroup"></path>
                <path d="M95.1117484,44.4450022 L104.835254,59.1242925 L112.124178,48.1230882 L112.126458,44.4450022 L95.1117484,44.4450022 Z" id="Fill-52" fill="#8ED6D3" sketch:type="MSShapeGroup"></path>
                <path d="M75.6614323,44.4450022 L85.3849376,59.1242925 L95.1118624,44.4450022 L75.6614323,44.4450022 Z" id="Fill-53" fill="#90D4D1" sketch:type="MSShapeGroup"></path>
                <path d="M0.911941935,39.9966495 L0.91536129,44.5968215 L17.3145871,44.5968215 L7.58880215,29.918671 L0.911941935,39.9966495 Z" id="Fill-54" fill="#8FD1CC" sketch:type="MSShapeGroup"></path>
                <path d="M0.905673118,29.918557 L0.912511828,39.9965355 L7.58937204,29.918557 L0.905673118,29.918557 Z" id="Fill-55" fill="#8ED6D3" sketch:type="MSShapeGroup"></path>
                <path d="M17.3145871,44.5968215 L36.7627376,44.5968215 L27.040372,29.918671 L17.3145871,44.5968215 Z" id="Fill-56" fill="#83CCC8" sketch:type="MSShapeGroup"></path>
                <path d="M36.7628516,44.5968215 L56.2155613,44.5968215 L46.4886366,29.918671 L36.7628516,44.5968215 Z" id="Fill-57" fill="#8FD1CC" sketch:type="MSShapeGroup"></path>
                <path d="M27.0382065,29.918557 L36.7628516,44.5967075 L46.4886366,29.918557 L27.0382065,29.918557 Z" id="Fill-58" fill="#8ED6D3" sketch:type="MSShapeGroup"></path>
                <path d="M7.58891613,29.918557 L17.3124215,44.5967075 L27.0382065,29.918557 L7.58891613,29.918557 Z" id="Fill-59" fill="#90D4D1" sketch:type="MSShapeGroup"></path>
                <path d="M56.2131677,44.5968215 L75.6613183,44.5968215 L65.9378129,29.918671 L56.2131677,44.5968215 Z" id="Fill-60" fill="#83CCC8" sketch:type="MSShapeGroup"></path>
                <path d="M75.6593806,44.5968215 L95.1120903,44.5968215 L85.3851656,29.918671 L75.6593806,44.5968215 Z" id="Fill-61" fill="#8FD1CC" sketch:type="MSShapeGroup"></path>
                <path d="M65.9378129,29.918557 L75.6590387,44.5967075 L85.3848237,29.918557 L65.9378129,29.918557 Z" id="Fill-62" fill="#8ED6D3" sketch:type="MSShapeGroup"></path>
                <path d="M46.4885226,29.918557 L56.2131677,44.5967075 L65.9378129,29.918557 L46.4885226,29.918557 Z" id="Fill-63" fill="#90D4D1" sketch:type="MSShapeGroup"></path>
                <path d="M95.1107226,44.5968215 L112.126572,44.5968215 L112.128852,40.926714 L104.836508,29.918671 L95.1107226,44.5968215 Z" id="Fill-64" fill="#83CCC8" sketch:type="MSShapeGroup"></path>
                <path d="M104.835368,29.918557 L112.128852,40.9277398 L112.134551,29.918557 L104.835368,29.918557 Z" id="Fill-65" fill="#8ED6D3" sketch:type="MSShapeGroup"></path>
                <path d="M85.3850516,29.918557 L95.108557,44.5967075 L104.835482,29.918557 L85.3850516,29.918557 Z" id="Fill-66" fill="#90D4D1" sketch:type="MSShapeGroup"></path>
                <g id="Group-69">
                    <mask id="mask-2" sketch:name="Clip 68" fill="white">
                        <use xlink:href="#path-1"></use>
                    </mask>
                    <g id="Clip-68"></g>
                    <path d="M7.59005591,88.330028 L17.3158409,73.6530172 L27.040486,88.330028 L7.59005591,88.330028 Z" id="Fill-67" fill="#83CCC8" sketch:type="MSShapeGroup" mask="url(#mask-2)"></path>
                </g>
                <path d="M31.7831312,81.1685312 L39.6613247,88.3298 L46.4886366,88.3298 L36.7628516,73.6527892 L31.7831312,81.1685312 Z" id="Fill-70" fill="#8FD1CC" sketch:type="MSShapeGroup"></path>
                <path d="M23.5155871,73.6527892 L31.7835871,81.1685312 L36.7633075,73.6527892 L23.5155871,73.6527892 Z" id="Fill-71" fill="#8ED6D3" sketch:type="MSShapeGroup"></path>
                <path d="M46.4885226,88.330028 L65.9378129,88.330028 L56.2154473,73.6530172 L46.4885226,88.330028 Z" id="Fill-72" fill="#83CCC8" sketch:type="MSShapeGroup"></path>
                <path d="M65.9378129,88.330028 L72.7491677,88.330028 L80.6854903,81.2314473 L75.6613183,73.6530172 L65.9378129,88.330028 Z" id="Fill-73" fill="#8FD1CC" sketch:type="MSShapeGroup"></path>
                <path d="M56.2152194,73.6527892 L65.9375849,88.3298 L75.6610903,73.6527892 L56.2152194,73.6527892 Z" id="Fill-74" fill="#8ED6D3" sketch:type="MSShapeGroup"></path>
                <path d="M36.7628516,73.6527892 L46.4886366,88.3298 L56.2155613,73.6527892 L36.7628516,73.6527892 Z" id="Fill-75" fill="#90D4D1" sketch:type="MSShapeGroup"></path>
                <g id="Group-78">
                    <mask id="mask-4" sketch:name="Clip 77" fill="white">
                        <use xlink:href="#path-3"></use>
                    </mask>
                    <g id="Clip-77"></g>
                    <path d="M85.3875591,88.330028 L95.1133441,73.6530172 L104.83571,88.330028 L85.3875591,88.330028 Z" id="Fill-76" fill="#83CCC8" sketch:type="MSShapeGroup" mask="url(#mask-4)"></path>
                </g>
                <path d="M75.6614323,73.6527892 L80.6833247,81.2334989 L89.1576258,73.6527892 L75.6614323,73.6527892 Z" id="Fill-79" fill="#90D4D1" sketch:type="MSShapeGroup"></path>
                <path d="M7.56817204,59.1555226 L7.67189247,59.2501247 L7.58868817,59.1247484 L7.56817204,59.1555226 Z" id="Fill-80" fill="#8FD1CC" sketch:type="MSShapeGroup"></path>
                <path d="M7.53375054,59.1242925 L7.56794409,59.1550667 L7.58846022,59.1242925 L7.53375054,59.1242925 Z" id="Fill-81" fill="#8ED6D3" sketch:type="MSShapeGroup"></path>
                <path d="M19.7072237,70.1906925 L23.6793742,73.8015312 L36.7629656,73.8015312 L27.0406,59.1245204 L19.7072237,70.1906925 Z" id="Fill-82" fill="#83CCC8" sketch:type="MSShapeGroup"></path>
                <path d="M36.7628516,73.8015312 L56.2155613,73.8015312 L46.4886366,59.1245204 L36.7628516,73.8015312 Z" id="Fill-83" fill="#8FD1CC" sketch:type="MSShapeGroup"></path>
                <path d="M27.0382065,59.1242925 L36.7628516,73.8013032 L46.4886366,59.1242925 L27.0382065,59.1242925 Z" id="Fill-84" fill="#8ED6D3" sketch:type="MSShapeGroup"></path>
                <path d="M7.58891613,59.1242925 L7.67212043,59.2508086 L19.7059699,70.1893247 L27.0382065,59.1242925 L7.58891613,59.1242925 Z" id="Fill-85" fill="#90D4D1" sketch:type="MSShapeGroup"></path>
                <path d="M56.2131677,73.8015312 L75.6613183,73.8015312 L65.9378129,59.1245204 L56.2131677,73.8015312 Z" id="Fill-86" fill="#83CCC8" sketch:type="MSShapeGroup"></path>
                <path d="M75.6593806,73.8015312 L88.9914452,73.8015312 L92.8336602,70.3650796 L85.3851656,59.1245204 L75.6593806,73.8015312 Z" id="Fill-87" fill="#8FD1CC" sketch:type="MSShapeGroup"></path>
                <path d="M65.9378129,59.1242925 L75.6590387,73.8013032 L85.3848237,59.1242925 L65.9378129,59.1242925 Z" id="Fill-88" fill="#8ED6D3" sketch:type="MSShapeGroup"></path>
                <path d="M46.4885226,59.1242925 L56.2131677,73.8013032 L65.9378129,59.1242925 L46.4885226,59.1242925 Z" id="Fill-89" fill="#90D4D1" sketch:type="MSShapeGroup"></path>
                <path d="M104.015748,60.3626688 L105.046114,59.4405828 L104.836394,59.1237226 L104.015748,60.3626688 Z" id="Fill-90" fill="#83CCC8" sketch:type="MSShapeGroup"></path>
                <path d="M104.835368,59.1242925 L105.045088,59.4411527 L105.400701,59.1242925 L104.835368,59.1242925 Z" id="Fill-91" fill="#8ED6D3" sketch:type="MSShapeGroup"></path>
                <path d="M85.3850516,59.1242925 L92.8324065,70.3659914 L104.012557,60.3655183 L104.835482,59.1242925 L85.3850516,59.1242925 Z" id="Fill-92" fill="#90D4D1" sketch:type="MSShapeGroup"></path>
                <path d="M56.000028,103.183249 L56.0718344,103.248217 L56.3237269,103.02254 L56.2154473,102.858411 L56.000028,103.183249 Z" id="Fill-93" fill="#83CCC8" sketch:type="MSShapeGroup"></path>
                <path d="M56.2152194,102.858525 L56.3234989,103.022654 L56.5070043,102.858525 L56.2152194,102.858525 Z" id="Fill-94" fill="#8ED6D3" sketch:type="MSShapeGroup"></path>
                <path d="M55.6428194,102.858525 L55.999572,103.183363 L56.2149914,102.858525 L55.6428194,102.858525 Z" id="Fill-95" fill="#90D4D1" sketch:type="MSShapeGroup"></path>
                <g id="Group-98">
                    <mask id="mask-6" sketch:name="Clip 97" fill="white">
                        <use xlink:href="#path-5"></use>
                    </mask>
                    <g id="Clip-97"></g>
                    <path d="M17.3143591,103.008065 L27.0401441,88.329914 L36.7625097,103.008065 L17.3143591,103.008065 Z" id="Fill-96" fill="#83CCC8" sketch:type="MSShapeGroup" mask="url(#mask-6)"></path>
                </g>
                <path d="M43.9219548,92.2034731 L55.8076323,103.008634 L56.2156753,103.008634 L46.4887505,88.3304839 L43.9219548,92.2034731 Z" id="Fill-99" fill="#8FD1CC" sketch:type="MSShapeGroup"></path>
                <path d="M39.6609828,88.330028 L43.9214989,92.2030172 L46.4882946,88.330028 L39.6609828,88.330028 Z" id="Fill-100" fill="#8ED6D3" sketch:type="MSShapeGroup"></path>
                <path d="M56.2131677,103.008292 L56.3396839,103.008292 L68.4726946,92.1564 L65.9378129,88.3301419 L56.2131677,103.008292 Z" id="Fill-101" fill="#83CCC8" sketch:type="MSShapeGroup"></path>
                <g id="Group-104">
                    <mask id="mask-8" sketch:name="Clip 103" fill="white">
                        <use xlink:href="#path-7"></use>
                    </mask>
                    <g id="Clip-103"></g>
                    <path d="M75.6593806,103.008065 L85.3851656,88.329914 L95.1109505,103.008065 L75.6593806,103.008065 Z" id="Fill-102" fill="#8FD1CC" sketch:type="MSShapeGroup" mask="url(#mask-8)"></path>
                </g>
                <path d="M65.9378129,88.330028 L68.4715548,92.156286 L72.7491677,88.330028 L65.9378129,88.330028 Z" id="Fill-105" fill="#8ED6D3" sketch:type="MSShapeGroup"></path>
                <path d="M46.4885226,88.330028 L56.2131677,103.008178 L65.9378129,88.330028 L46.4885226,88.330028 Z" id="Fill-106" fill="#90D4D1" sketch:type="MSShapeGroup"></path>
                <path d="M109.966452,53.6756645 L56.3247527,102.222525 L2.68419355,53.6768043 L2.68419355,2.89026667 L109.966452,2.89026667 L109.966452,53.6756645 Z M0.404623656,0.610696774 L0.404623656,54.6843742 L56.3247527,105.296525 L112.244882,54.6843742 L112.244882,0.610696774 L0.404623656,0.610696774 Z" id="Fill-107" fill="#FEFCF9" sketch:type="MSShapeGroup"></path>
                <g id="Group-148" transform="translate(12.537634, 10.258065)" fill="#FEFCF9" sketch:type="MSShapeGroup">
                    <path d="M38.7972538,31.1236516 C38.7972538,31.1236516 38.7391247,30.2460172 39.6908452,30.2460172 L41.9578774,30.2460172 L41.9578774,3.37786667 L40.2026086,3.37786667 C40.2026086,3.37786667 38.7972538,3.37900645 38.7972538,2.06369462 L38.7972538,0.744963441 L43.8989312,0.744963441 C44.9965441,0.744963441 44.9897054,2.02836129 44.9897054,2.02836129 L44.9897054,30.247157 L47.2225441,30.247157 C48.1799634,30.247157 48.1514688,31.1247914 48.1514688,31.1247914 L48.1514688,32.8789204 L38.7972538,32.8789204 L38.7972538,31.1236516 Z" id="Fill-108"></path>
                    <path d="M25.2961591,31.1236516 C25.2961591,31.1236516 25.2380301,30.2460172 26.1886108,30.2460172 L28.4567828,30.2460172 L28.4567828,16.7350065 L26.7003742,16.7350065 C26.7003742,16.7350065 25.2961591,16.7361462 25.2961591,15.4219742 L25.2961591,14.1009634 L30.3966968,14.1009634 C31.4943097,14.1009634 31.487471,15.3832215 31.487471,15.3832215 L31.487471,30.2482968 L33.7225892,30.2482968 C34.6765892,30.2482968 34.6480946,31.1259312 34.6480946,31.1259312 L34.6480946,32.8800602 L25.2961591,32.8800602 L25.2961591,31.1236516 Z" id="Fill-110"></path>
                    <path d="M12.0372688,30.5515935 C9.6232043,30.5515935 7.82348387,29.6750989 6.41584946,28.4885828 L6.41584946,19.2722817 C7.95455914,17.6914 9.75427957,16.5060237 12.1683441,16.5060237 C15.6811613,16.5060237 18.3174839,19.2722817 18.2718925,23.4860667 C18.2297204,27.5676366 15.6811613,30.5515935 12.0372688,30.5515935 M12.6094409,13.8286688 C9.83178495,13.8286688 7.95683871,15.0744538 6.38735484,16.7978086 L6.38735484,15.3821957 C6.38735484,15.3821957 6.39419355,14.0999376 5.29658065,14.0999376 L0.196043011,14.0999376 L0.196043011,15.4209484 C0.196043011,16.7351204 1.60025806,16.7339806 1.60025806,16.7339806 L3.35666667,16.7339806 L3.35666667,43.1393785 L1.08849462,43.1393785 C0.137913978,43.1393785 0.196043011,44.0158731 0.196043011,44.0158731 L0.196043011,45.7722817 L9.54797849,45.7722817 L9.54797849,44.0158731 C9.54797849,44.0158731 9.57647312,43.1393785 8.62019355,43.1393785 L6.38735484,43.1393785 L6.38735484,26.3400882 L6.41584946,31.079314 C7.95455914,32.3969054 10.0175699,33.2323677 12.2127957,33.2323677 C17.7897634,33.2323677 21.4347957,28.7085613 21.4347957,23.4427548 C21.4347957,17.6914 17.5264731,13.8286688 12.6094409,13.8286688" id="Fill-112"></path>
                    <path d="M66.3473376,23.5292645 C66.3473376,19.4066624 63.7132946,16.4648774 59.8915957,16.4648774 C56.0733161,16.4648774 53.4415527,19.4066624 53.4415527,23.5292645 C53.4415527,27.7020172 56.0744559,30.597071 59.8915957,30.597071 C63.7144344,30.5959312 66.3473376,27.7008774 66.3473376,23.5292645 M50.2775097,23.5292645 C50.2775097,18.2634581 54.0992086,13.8285548 59.8938753,13.8285548 C65.6908215,13.8285548 69.5102409,18.2201462 69.5102409,23.5292645 C69.5102409,28.8406624 65.6908215,33.2333935 59.8938753,33.2333935 C54.0524774,33.2322538 50.2775097,28.885114 50.2775097,23.5292645" id="Fill-114"></path>
                    <path d="M75.2186258,31.036914 C74.8652925,30.3348065 74.7330774,29.4548925 74.7330774,28.4484624 L74.7330774,16.8579892 L71.263572,16.8579892 L71.263572,14.1783548 L74.7330774,14.1783548 L74.7330774,8.78945161 L77.7181742,8.47145161 L77.7181742,14.1783548 L83.4706688,14.1783548 L83.4706688,16.8579892 L77.7181742,16.8579892 L77.7181742,28.0096452 C77.7181742,28.6239892 77.8070774,29.0616667 78.0281957,29.4548925 C78.3769699,30.1136882 79.081357,30.4202903 80.2234215,30.4202903 C81.3210344,30.4202903 82.6830774,29.8937097 83.7362387,29.2805054 L83.3395935,32.1755591 C82.3730559,32.7044194 81.0577441,33.2321398 79.3435075,33.2321398 C77.3671204,33.2321398 75.9629054,32.4844409 75.2186258,31.036914" id="Fill-116"></path>
                    <path d="M27.1416989,6.97787742 C27.1416989,5.66256559 28.2814839,4.51936129 29.5990753,4.51936129 C30.8722151,4.51936129 31.969828,5.66256559 31.969828,6.97787742 C31.969828,8.29546882 30.8277634,9.39308172 29.5546237,9.39308172 C28.238172,9.39308172 27.1416989,8.29546882 27.1416989,6.97787742" id="Fill-118"></path>
                    <path d="M25.3679656,45.8263075 C24.0651914,45.8263075 23.4599656,44.4893398 23.4599656,42.8035978 C23.4599656,41.1007591 24.0822882,39.7558129 25.3839226,39.7558129 C26.3857935,39.7558129 26.8223312,40.396372 27.0491484,41.244372 L26.065514,41.5657914 C25.9139226,41.0255333 25.7554925,40.8089742 25.3679656,40.8089742 C24.8049118,40.8089742 24.5370624,41.5315978 24.5370624,42.7853613 C24.5370624,44.0379849 24.8128903,44.774286 25.3850624,44.774286 C25.747514,44.774286 25.9310194,44.5748237 26.1509978,43.9354043 L27.0594065,44.3217914 C26.7812989,45.288329 26.2683957,45.8263075 25.3679656,45.8263075" id="Fill-120"></path>
                    <path d="M29.7357355,40.8085183 C29.1042946,40.8085183 28.8615204,41.5322817 28.8615204,42.7849054 C28.8615204,44.037529 29.1225312,44.7738301 29.7516925,44.7738301 C30.3751548,44.7738301 30.617929,44.053486 30.617929,42.8031419 C30.6190688,41.5482387 30.3580581,40.8085183 29.7357355,40.8085183 M29.7357355,45.8258516 C28.365714,45.8258516 27.7855634,44.4888839 27.7855634,42.8031419 C27.7855634,41.101443 28.3828108,39.755357 29.7528323,39.755357 C31.1137355,39.755357 31.693886,41.0946043 31.693886,42.7849054 C31.693886,44.4820452 31.0977785,45.8258516 29.7357355,45.8258516" id="Fill-122"></path>
                    <path d="M33.8858065,40.8664194 L33.8858065,42.1714731 L35.2649462,42.1714731 L35.2649462,43.1904409 L33.8858065,43.1904409 L33.8858065,45.7344409 L32.8360645,45.7344409 L32.8360645,39.8497312 L35.9374194,39.8497312 L35.9374194,40.8664194 L33.8858065,40.8664194 Z" id="Fill-124"></path>
                    <path d="M38.043628,40.8664194 L38.043628,42.1714731 L39.421628,42.1714731 L39.421628,43.1904409 L38.043628,43.1904409 L38.043628,45.7344409 L36.993886,45.7344409 L36.993886,39.8497312 L40.0929613,39.8497312 L40.0929613,40.8664194 L38.043628,40.8664194 Z" id="Fill-126"></path>
                    <path d="M41.1507957,45.733871 L41.1507957,39.8503011 L44.1666667,39.8503011 L44.1666667,40.857871 L42.2005376,40.857871 L42.2005376,42.1025161 L43.5192688,42.1025161 L43.5192688,43.0975484 L42.2005376,43.0975484 L42.2005376,44.7251613 L44.2418925,44.7251613 L44.2418925,45.733871 L41.1507957,45.733871 Z" id="Fill-128"></path>
                    <path d="M45.4083484,45.733871 L45.4083484,39.8503011 L48.4242194,39.8503011 L48.4242194,40.857871 L46.4592301,40.857871 L46.4592301,42.1025161 L47.7791011,42.1025161 L47.7791011,43.0975484 L46.4592301,43.0975484 L46.4592301,44.7251613 L48.5005849,44.7251613 L48.5005849,45.733871 L45.4083484,45.733871 Z" id="Fill-130"></path>
                    <path d="M53.3733935,40.8764495 L52.9129204,40.8764495 L52.9129204,42.5154602 L53.4338022,42.5154602 C53.9706409,42.5154602 54.2487484,42.2373527 54.2487484,41.700514 C54.2464688,41.1716538 54.0036946,40.8764495 53.3733935,40.8764495 L53.3733935,40.8764495 Z M54.171243,45.7342129 L53.2559957,43.5013742 L52.9106409,43.5013742 L52.9106409,45.7342129 L51.8597591,45.7342129 L51.8597591,39.850643 L53.4224043,39.850643 C54.5667484,39.850643 55.2973505,40.4627075 55.2973505,41.6834172 C55.2973505,42.5086215 54.8779097,43.0215247 54.3068774,43.2882344 L55.3155871,45.7342129 L54.171243,45.7342129 Z" id="Fill-132"></path>
                    <path d="M58.0438903,40.8085183 C57.4135892,40.8085183 57.1685355,41.5322817 57.1685355,42.7849054 C57.1685355,44.037529 57.430686,44.7738301 58.0609871,44.7738301 C58.6833097,44.7738301 58.9249441,44.053486 58.9249441,42.8031419 C58.9272237,41.5482387 58.6662129,40.8085183 58.0438903,40.8085183 M58.0438903,45.8258516 C56.6750086,45.8258516 56.0937183,44.4888839 56.0937183,42.8031419 C56.0937183,41.101443 56.6909656,39.755357 58.0621269,39.755357 C59.4218903,39.755357 60.0020409,41.0946043 60.0020409,42.7849054 C60.0020409,44.4820452 59.4059333,45.8258516 58.0438903,45.8258516" id="Fill-134"></path>
                    <path d="M62.9937484,42.8298129 C62.8923075,42.3738989 62.7578129,41.6923075 62.7156409,41.3971032 C62.6734688,41.700286 62.5537914,42.3317269 62.4477914,42.8115763 L62.2859419,43.5250817 L63.1521785,43.5250817 L62.9937484,42.8298129 Z M63.6571032,45.7339849 L63.3789957,44.5075763 L62.0625441,44.5075763 L61.7832968,45.7339849 L60.7084796,45.7339849 L62.2107161,39.8504151 L63.2376624,39.8504151 L64.7398989,45.7339849 L63.6571032,45.7339849 Z" id="Fill-136"></path>
                    <path d="M67.0998237,45.8263075 C66.303114,45.8263075 65.7468989,45.4057269 65.3456946,44.9008022 L66.0580602,44.1371462 C66.4113935,44.5885011 66.7909419,44.8062 67.1419957,44.8062 C67.5808129,44.8062 67.797372,44.5657054 67.797372,44.1702 C67.797372,43.8351032 67.5876516,43.5672538 66.8980817,43.2139204 C66.0250065,42.760286 65.4950065,42.3134903 65.4950065,41.3378344 C65.4950065,40.4545011 66.1515226,39.7546731 67.1419957,39.7546731 C67.8748774,39.7546731 68.327372,40.0487376 68.7479527,40.5969742 L68.0504043,41.2945226 C67.7050495,40.9081355 67.5204043,40.7736409 67.1192,40.7736409 C66.7818237,40.7736409 66.5629849,40.9902 66.5629849,41.2865441 C66.5629849,41.6398774 66.7658667,41.8587161 67.405286,42.2029312 C68.4208344,42.750028 68.8676301,43.1557914 68.8676301,44.1439849 C68.8653505,45.1207806 68.1928774,45.8263075 67.0998237,45.8263075" id="Fill-138"></path>
                    <path d="M71.7124194,40.857529 L71.7124194,45.733529 L70.6615376,45.733529 L70.6615376,40.857529 L69.4453871,40.857529 L69.4453871,39.8499591 L72.9319892,39.8499591 L72.9319892,40.857529 L71.7124194,40.857529 Z" id="Fill-140"></path>
                    <path d="M73.9452581,45.733871 L73.9452581,39.8503011 L76.961129,39.8503011 L76.961129,40.857871 L74.9961398,40.857871 L74.9961398,42.1025161 L76.3160108,42.1025161 L76.3160108,43.0975484 L74.9961398,43.0975484 L74.9961398,44.7251613 L77.0374946,44.7251613 L77.0374946,45.733871 L73.9452581,45.733871 Z" id="Fill-142"></path>
                    <path d="M79.7187247,40.8764495 L79.2571118,40.8764495 L79.2571118,42.5154602 L79.7779935,42.5154602 C80.315972,42.5154602 80.5929398,42.2373527 80.5929398,41.700514 C80.5929398,41.1716538 80.3501656,40.8764495 79.7187247,40.8764495 L79.7187247,40.8764495 Z M80.5154344,45.7342129 L79.6001871,43.5013742 L79.2571118,43.5013742 L79.2571118,45.7342129 L78.2062301,45.7342129 L78.2062301,39.850643 L79.7688753,39.850643 C80.9120796,39.850643 81.6426817,40.4627075 81.6426817,41.6834172 C81.6426817,42.5086215 81.2232409,43.0215247 80.649929,43.2882344 L81.6609183,45.7342129 L80.5154344,45.7342129 Z" id="Fill-144"></path>
                    <path d="M84.1610366,45.8263075 C83.3631871,45.8263075 82.8081118,45.4057269 82.404628,44.9008022 L83.1192731,44.1371462 C83.4726065,44.5885011 83.8510151,44.8062 84.2032086,44.8062 C84.6397462,44.8062 84.8574452,44.5657054 84.8574452,44.1702 C84.8574452,43.8351032 84.6488645,43.5672538 83.9581548,43.2139204 C83.0862194,42.760286 82.5562194,42.3134903 82.5562194,41.3378344 C82.5562194,40.4545011 83.2127355,39.7546731 84.2032086,39.7546731 C84.9349505,39.7546731 85.3874452,40.0487376 85.8080258,40.5969742 L85.1116172,41.2945226 C84.7662624,40.9081355 84.5816172,40.7736409 84.1792731,40.7736409 C83.8418968,40.7736409 83.6241978,40.9902 83.6241978,41.2865441 C83.6241978,41.6398774 83.8270796,41.8587161 84.4642194,42.2029312 C85.4809075,42.750028 85.9277032,43.1557914 85.9277032,44.1439849 C85.9277032,45.1207806 85.2540903,45.8263075 84.1610366,45.8263075" id="Fill-146"></path>
                </g>
            </g>
        </g>
    </g>
</svg>