<?xml version="1.0" encoding="UTF-8" standalone="no"?>
<svg width="113px" height="106px" viewBox="0 0 113 106" version="1.1" xmlns="http://www.w3.org/2000/svg" xmlns:xlink="http://www.w3.org/1999/xlink" xmlns:sketch="http://www.bohemiancoding.com/sketch/ns">
    <!-- Generator: Sketch 3.5.2 (25235) - http://www.bohemiancoding.com/sketch -->
    <title>eephus</title>
    <desc>Created with Sketch.</desc>
    <defs></defs>
    <g id="Page-1" stroke="none" stroke-width="1" fill="none" fill-rule="evenodd" sketch:type="MSPage">
        <g id="eephus" sketch:type="MSArtboardGroup">
            <g id="Page-1" sketch:type="MSLayerGroup">
                <path d="M0.911190909,55.1503919 L56.000403,102.943685 L110.112565,54.2429677 L110.112565,0.976593939 L1.42368586,0.59650303 L0.911190909,55.1503919 Z" id="Fill-1" fill="#EF473C" sketch:type="MSShapeGroup"></path>
                <path d="M1.42402828,0.596388889 L0.911533333,55.1502778 L56.0007455,102.944712 L110.111766,54.2428535 L110.111766,0.977621212 L1.42402828,0.596388889 L1.42402828,0.596388889 Z" id="Stroke-2" stroke="#FEFEFE" sketch:type="MSShapeGroup"></path>
                <path d="M35.9785152,34.338303 C35.5128182,34.2561212 35.2012121,33.8121111 35.2833939,33.3464141 C35.3769899,32.8110909 35.4454747,32.2677778 35.4888485,31.7278889 C35.5253737,31.2553434 35.9385657,30.9186263 36.4099697,30.9391717 C36.8813737,30.9779798 37.2340707,31.3900303 37.1975455,31.8614343 C37.1507475,32.4572525 37.0742727,33.0553535 36.9715455,33.6420404 C36.8973535,34.0575152 36.5366667,34.3508586 36.1280404,34.3508586 C36.0778182,34.3508586 36.0287374,34.3462929 35.9785152,34.338303 L35.9785152,34.338303 Z M33.7664545,37.9851212 C34.0050101,37.502303 34.2241616,36.997798 34.418202,36.4887273 C34.5859899,36.0458586 35.0813636,35.8198586 35.5242323,35.9922121 C35.9659596,36.16 36.1885354,36.6542323 36.0196061,37.0982424 C35.807303,37.6563939 35.5664646,38.2111212 35.3039394,38.7441616 C35.1544141,39.0443535 34.850798,39.2201313 34.5346263,39.2201313 C34.4067879,39.2201313 34.2778081,39.191596 34.1568182,39.131101 C33.7322121,38.9233636 33.5575758,38.4097273 33.7664545,37.9851212 L33.7664545,37.9851212 Z M32.8407677,36.0481414 C32.7528788,36.0481414 32.6638485,36.0344444 32.5748182,36.0059091 C32.125101,35.8586667 31.879697,35.3747071 32.025798,34.9249899 C32.1935859,34.4102121 32.3385455,33.880596 32.4572525,33.3509798 C32.5611212,32.8898485 33.0188283,32.6022121 33.481101,32.7026566 C33.9433737,32.8053838 34.2332929,33.2642323 34.1294242,33.7265051 C33.999303,34.3074848 33.8395051,34.8896061 33.654596,35.4557475 C33.5370303,35.8187172 33.2014545,36.0481414 32.8407677,36.0481414 L32.8407677,36.0481414 Z M31.0076566,42.0120303 C31.3774747,41.6102525 31.7290303,41.1890707 32.0543333,40.7587576 C32.3396869,40.3820909 32.8772929,40.3090404 33.2539596,40.5943939 C33.6317677,40.8797475 33.7059596,41.4162121 33.4194646,41.7928788 C33.062202,42.2654242 32.6741212,42.7299798 32.2677778,43.1705657 C32.0999899,43.3566162 31.8694242,43.4479293 31.6377172,43.4479293 C31.4299798,43.4479293 31.2222424,43.3737374 31.0578788,43.2207879 C30.7097475,42.9011919 30.6869192,42.3590202 31.0076566,42.0120303 L31.0076566,42.0120303 Z M33.4365859,23.1250505 C33.6420404,23.6820606 33.8235253,24.2596162 33.9753333,24.8371717 C34.0951818,25.2948788 33.8212424,25.764 33.3635354,25.8849899 C33.2904848,25.9032525 33.2174343,25.9112424 33.1455253,25.9112424 C32.7654343,25.9112424 32.4184444,25.6578485 32.3168586,25.2720505 C32.1798889,24.747 32.0155253,24.2242323 31.8283333,23.716303 C31.6651111,23.2722929 31.8922525,22.779202 32.3362626,22.6171212 C32.7802727,22.453899 33.2733636,22.679899 33.4365859,23.1250505 L33.4365859,23.1250505 Z M32.8384848,28.4874141 C32.8076667,28.0160101 33.1660707,27.6085253 33.6386162,27.5765657 C34.112303,27.5571616 34.5175051,27.9041515 34.5483232,28.376697 C34.5745758,28.7830404 34.5882727,29.1882424 34.5882727,29.5945859 C34.5882727,29.7886263 34.5848485,29.9803838 34.5791414,30.1721414 C34.564303,30.6355556 34.1842121,31.0008081 33.7230808,31.0008081 L33.6956869,31.0008081 C33.2231414,30.9859697 32.8521818,30.5921818 32.8658788,30.1184949 C32.8715859,29.945 32.8738687,29.7692222 32.8738687,29.5945859 C32.8738687,29.2270505 32.8624545,28.8560909 32.8384848,28.4874141 L32.8384848,28.4874141 Z M36.8539798,26.5047778 C36.9761111,27.0880404 37.0719899,27.6861414 37.1393333,28.2773939 C37.190697,28.748798 36.8539798,29.173404 36.3825758,29.2259091 C36.3506162,29.2281919 36.3175152,29.2316162 36.2855556,29.2316162 C35.8563838,29.2316162 35.4842828,28.9063131 35.435202,28.4680101 C35.3758485,27.9315455 35.2879596,27.3893737 35.176101,26.8574747 C35.0779394,26.395202 35.3747071,25.9409192 35.8381212,25.8427576 C36.3015354,25.7491616 36.7558182,26.0436465 36.8539798,26.5047778 L36.8539798,26.5047778 Z M35.3244848,24.2059697 C35.2160505,24.2516263 35.1030505,24.2733131 34.9923333,24.2733131 C34.657899,24.2733131 34.3405859,24.0769899 34.2024747,23.749404 C33.993596,23.2517475 33.7561818,22.7575152 33.4982222,22.2781212 C33.434303,22.1582727 33.4091919,22.0327172 33.4046263,21.9060202 C33.3920707,21.5898485 33.5495859,21.2782424 33.8474949,21.1161616 C34.1476869,20.9540808 34.4958182,20.9963131 34.7526364,21.1835051 C34.8542222,21.257697 34.9443939,21.3478687 35.0083131,21.4665758 C35.2902424,21.9927677 35.5504848,22.5360808 35.7821919,23.0839596 C35.9659596,23.5199798 35.7616465,24.022202 35.3244848,24.2059697 L35.3244848,24.2059697 Z M29.8708081,39.3057374 C30.1755657,38.8594444 30.4643434,38.3914646 30.7268687,37.9166364 C30.9562929,37.502303 31.4779192,37.3516364 31.8922525,37.5799192 C32.3065859,37.8093434 32.4561111,38.3309697 32.2266869,38.7441616 C31.9379091,39.2680707 31.620596,39.7839899 31.2850202,40.2725152 C31.1195152,40.5156364 30.8512828,40.6457576 30.5773434,40.6457576 C30.410697,40.6457576 30.2429091,40.5966768 30.0945253,40.4962323 C29.7041616,40.228 29.6037172,39.696101 29.8708081,39.3057374 L29.8708081,39.3057374 Z M26.6326162,44.2469192 C26.5675556,44.202404 26.4967879,44.1647374 26.4442828,44.1008182 C26.2947576,43.9181919 26.2342626,43.6910505 26.2570909,43.471899 C26.2799192,43.2550303 26.3849293,43.0450101 26.5675556,42.8954848 C26.9864545,42.5553434 27.3950808,42.1889495 27.7831616,41.8065758 C28.1198788,41.4721414 28.6620505,41.4767071 28.9953434,41.8145657 C29.3274949,42.1524242 29.3229293,42.6934545 28.9862121,43.0256061 C28.5593232,43.4479293 28.1096061,43.8508485 27.6496162,44.2240909 C27.4909596,44.3553535 27.299202,44.4169899 27.1097273,44.4169899 C26.9373737,44.4169899 26.7764343,44.3473636 26.6326162,44.2469192 L26.6326162,44.2469192 Z M27.1131515,45.1885859 C27.1508182,45.1566263 27.1782121,45.1143939 27.2227273,45.0881414 C27.6861414,44.8096364 28.1438485,44.5060202 28.5810101,44.183 C28.9622424,43.9022121 29.4987071,43.9843939 29.7794949,44.3656263 C30.0591414,44.7468586 29.978101,45.2833232 29.5968687,45.5641111 C29.1151919,45.9179495 28.6129697,46.2523838 28.103899,46.5571414 C28.0719394,46.5765455 28.0354141,46.5719798 28.0011717,46.5845354 C27.891596,46.6336162 27.778596,46.6804141 27.6644545,46.6804141 C27.3722525,46.6804141 27.0891818,46.5320303 26.9282424,46.2626566 C26.7113737,45.9019697 26.8061111,45.4545354 27.1131515,45.1885859 L27.1131515,45.1885859 Z M109.718434,53.3131717 L101.420354,60.8236768 C83.2399091,40.6103737 63.9500101,32.7540202 60.1947576,31.3649192 C60.1593737,31.3512222 60.1217071,31.3557879 60.0863232,31.347798 C59.7073737,30.0819697 59.2028687,28.8446768 58.553404,27.6576061 C55.2410202,21.6103939 48.895899,17.854 41.9937677,17.854 C38.852596,17.854 35.7251212,18.6564141 32.9526263,20.1756364 C23.8315859,25.1704646 20.4746869,36.6542323 25.4695152,45.7764141 C28.781899,51.8236263 35.1258788,55.5800202 42.0268687,55.5800202 C45.1703232,55.5800202 48.2966566,54.7764646 51.0702929,53.2572424 C52.7025152,52.3635152 54.1692323,51.2506364 55.4419091,49.9619798 C58.0215051,51.1022525 72.9386465,58.1082525 87.3832424,73.5287576 L56.001202,101.931707 L2.28282828,53.3131717 L2.28282828,2.45518182 L109.718434,2.45518182 L109.718434,53.3131717 Z M95.4370606,66.2385455 L95.4370606,66.2385455 C80.356697,49.7108687 64.6816566,42.5633333 60.3990707,40.8226768 C60.9572222,38.3332525 61.0085859,35.8004545 60.5588687,33.3407071 C65.8550303,35.4409091 83.4522121,43.4045556 100.151101,61.9719394 L100.152242,61.9719394 L95.4370606,66.2385455 Z M55.5925758,31.5635253 C56.0274545,31.1594646 56.4908687,30.7713838 56.9668384,30.4084141 C57.2521919,30.190404 57.63,30.1812727 57.9210606,30.3536263 C58.0135152,30.4095556 58.0991212,30.4803232 58.1676061,30.5716364 C58.3433838,30.8010606 58.3696364,31.088697 58.2874545,31.3455152 C58.2360909,31.5087374 58.1516263,31.6605455 58.0055253,31.772404 C57.5717879,32.1022727 57.1517475,32.4549697 56.7556768,32.8202222 C56.5901717,32.9743131 56.3812929,33.0485051 56.1735556,33.0485051 C55.9429899,33.0485051 55.7135657,32.9560505 55.5446364,32.7734242 C55.2227576,32.4252929 55.2444444,31.8842626 55.5925758,31.5635253 L55.5925758,31.5635253 Z M55.0138788,29.1129091 C55.5046869,28.7739091 56.0171818,28.456596 56.5365253,28.1678182 C56.6244141,28.117596 56.7180101,28.0947677 56.8116061,28.0787879 C57.158596,28.0182929 57.5204242,28.1712424 57.7019091,28.4976869 C57.8925253,28.8389697 57.8137677,29.2453131 57.550101,29.5112626 C57.4953131,29.5649091 57.4428081,29.6231212 57.3720404,29.6630707 C56.8994949,29.9267374 56.4326566,30.2166566 55.9852222,30.5248384 C55.8368384,30.6264242 55.6679091,30.6755051 55.5001212,30.6755051 C55.2284646,30.6755051 54.9602323,30.5465253 54.7935859,30.3056869 C54.5253535,29.9153232 54.6235152,29.38 55.0138788,29.1129091 L55.0138788,29.1129091 Z M52.2117071,35.7319697 C52.5164646,35.2206162 52.8486162,34.7195354 53.2024545,34.2367172 C53.482101,33.853202 54.0185657,33.7721616 54.399798,34.0518081 C54.7821717,34.3314545 54.8643535,34.8679192 54.5858485,35.2491515 C54.2628283,35.6897374 53.9592121,36.146303 53.6829899,36.6097172 C53.5231919,36.8790909 53.2378384,37.0274747 52.9467778,37.0274747 C52.7972525,37.0274747 52.6454444,36.9875253 52.5073333,36.9064848 C52.1021313,36.6633636 51.9685859,36.1371717 52.2117071,35.7319697 L52.2117071,35.7319697 Z M51.0748586,32.7574444 C51.4492424,32.2940303 51.8521616,31.8431717 52.2676364,31.4185657 C52.5997879,31.0818485 53.143101,31.0772828 53.4798182,31.4082929 C53.8176768,31.7404444 53.8222424,32.2826162 53.4912323,32.6193333 C53.1122828,33.0051313 52.7470303,33.4137576 52.4068889,33.8372222 C52.2368182,34.0449596 51.9891313,34.1533939 51.7391616,34.1533939 C51.5508283,34.1533939 51.3602121,34.0906162 51.2004141,33.9639192 C50.8328788,33.6648687 50.7758081,33.1261212 51.0748586,32.7574444 L51.0748586,32.7574444 Z M51.8019394,41.1114545 C51.7014949,41.4972525 51.3545051,41.7529293 50.9732727,41.7529293 C50.9025051,41.7529293 50.8294545,41.7449394 50.7575455,41.7266768 C50.2998384,41.6068283 50.0247576,41.1399899 50.1434646,40.6822828 C50.2918485,40.1058687 50.4710505,39.5294545 50.6753636,38.9690202 C50.836303,38.5227273 51.3282525,38.2978687 51.7722626,38.4542424 C52.2174141,38.6163232 52.4479798,39.1094141 52.285899,39.5534242 C52.1009899,40.0647778 51.9377677,40.5875455 51.8019394,41.1114545 L51.8019394,41.1114545 Z M50.0007879,49.573899 C49.8957778,49.1127677 50.185697,48.6527778 50.6468283,48.5477677 C51.1079596,48.443899 51.5679495,48.7315354 51.6718182,49.1949495 C51.7779697,49.6617879 51.913798,50.1297677 52.059899,50.590899 C52.0781616,50.6491111 52.0895758,50.7096061 52.1089798,50.7666768 C52.2562222,51.2141111 52.013101,51.6992121 51.5633838,51.847596 C51.4743535,51.8772727 51.3841818,51.8909697 51.2940101,51.8909697 C51.0212121,51.8909697 50.7632525,51.7574242 50.6023131,51.5359899 C50.5520909,51.4675051 50.5087172,51.3887475 50.4813232,51.3031414 C50.2929899,50.7347172 50.1320505,50.1537374 50.0007879,49.573899 L50.0007879,49.573899 Z M48.6116869,50.2758687 C49.0522727,50.1046566 49.5487879,50.3249495 49.7188586,50.7689596 C49.8512626,51.1125253 50.0133434,51.4538081 50.1708586,51.7928081 C50.2427677,51.9491818 50.2998384,52.1089798 50.3763131,52.2619293 C50.5874747,52.6853939 50.4139798,53.1990303 49.9905152,53.4101919 C49.8683838,53.4718283 49.7382626,53.4992222 49.6092828,53.4992222 C49.2942525,53.4992222 48.9917778,53.3257273 48.8411111,53.0243939 C48.7612121,52.8623131 48.6995758,52.6922424 48.623101,52.5290202 C48.4473232,52.1489293 48.2681212,51.7688384 48.1197374,51.381899 C47.9496667,50.9413131 48.1699596,50.444798 48.6116869,50.2758687 L48.6116869,50.2758687 Z M47.7145354,45.2251111 C48.1893636,45.1988586 48.5991313,45.539 48.636798,46.0115455 C48.6801717,46.5525758 48.749798,47.0970303 48.8445354,47.6300707 C48.9278586,48.0957677 48.6162525,48.5397778 48.151697,48.623101 C48.1003333,48.6310909 48.0501111,48.6356566 47.9998889,48.6356566 C47.592404,48.6356566 47.2305758,48.344596 47.1575253,47.9279798 C47.0536566,47.3435758 46.9760404,46.7431919 46.928101,46.1485152 C46.8915758,45.6771111 47.2431313,45.2627778 47.7145354,45.2251111 L47.7145354,45.2251111 Z M48.2806768,40.1264141 C48.7440909,40.2234343 49.0408586,40.6765758 48.9449798,41.1399899 C48.8342626,41.6718889 48.7463737,42.215202 48.6881616,42.7516667 C48.6390808,43.1911111 48.2681212,43.5141313 47.8366667,43.5141313 C47.8058485,43.5141313 47.7727475,43.5118485 47.7419293,43.5095657 C47.2716667,43.4559192 46.9326667,43.0324545 46.9840303,42.5621919 C47.0502323,41.9709394 47.1449697,41.3739798 47.267101,40.7907172 C47.3641212,40.327303 47.8172626,40.0293939 48.2806768,40.1264141 L48.2806768,40.1264141 Z M49.1173333,38.5546869 C49.0077576,38.5546869 48.895899,38.533 48.7886061,38.4873434 C48.3514444,38.307 48.1448485,37.8036364 48.3274747,37.3676162 C48.5557576,36.8197374 48.8137172,36.2741414 49.0945051,35.7456667 C49.3159394,35.3279091 49.8352828,35.1703939 50.2530404,35.3929697 C50.670798,35.6132626 50.8294545,36.1326061 50.6068788,36.5526465 C50.351202,37.0320404 50.1160707,37.5285556 49.9083333,38.0262121 C49.7713636,38.3572222 49.4529091,38.5546869 49.1173333,38.5546869 L49.1173333,38.5546869 Z M51.2597677,45.9624646 C51.2746061,46.4350101 50.9025051,46.8299394 50.4299596,46.8447778 L50.4025657,46.8447778 C49.9414343,46.8447778 49.5613434,46.4795253 49.5465051,46.0161111 C49.540798,45.8197879 49.5373737,45.6234646 49.5373737,45.4271414 C49.5373737,45.0230808 49.5510707,44.621303 49.5761818,44.2206667 C49.6058586,43.7492626 50.0167677,43.4034141 50.4858889,43.4205354 C50.9572929,43.4524949 51.315697,43.8588384 51.2860202,44.3325253 C51.2631919,44.6943535 51.2506364,45.0607475 51.2506364,45.4271414 C51.2506364,45.6040606 51.2540606,45.7832626 51.2597677,45.9624646 L51.2597677,45.9624646 Z M88.6935859,72.3428283 L88.6924444,72.3428283 C75.0970606,57.7452828 61.1318586,50.6582424 56.6426768,48.6242424 C58.1059697,46.8265152 59.2199899,44.7525657 59.9470707,42.4902828 C64.3917374,44.3176869 79.5462929,51.3567879 94.1678081,67.3868081 L94.1689495,67.3868081 L88.6935859,72.3428283 Z M0,0.172353535 L0,54.3256061 L56.001202,105.010101 L112.001263,54.3256061 L112.001263,0.172353535 L0,0.172353535 Z" id="Fill-4" fill="#FDF7E7" sketch:type="MSShapeGroup"></path>
            </g>
        </g>
    </g>
</svg>