<?xml version="1.0" encoding="UTF-8" standalone="no"?>
<svg width="113px" height="106px" viewBox="0 0 113 106" version="1.1" xmlns="http://www.w3.org/2000/svg" xmlns:xlink="http://www.w3.org/1999/xlink" xmlns:sketch="http://www.bohemiancoding.com/sketch/ns">
    <!-- Generator: Sketch 3.5.2 (25235) - http://www.bohemiancoding.com/sketch -->
    <title>grandstand</title>
    <desc>Created with Sketch.</desc>
    <defs></defs>
    <g id="Page-1" stroke="none" stroke-width="1" fill="none" fill-rule="evenodd" sketch:type="MSPage">
        <g id="grandstand" sketch:type="MSArtboardGroup">
            <g id="grandstand-webicon-2" sketch:type="MSLayerGroup">
                <path d="M1,0 L1,53.6637369 L56.4950205,103.889999 L111.990041,53.6637369 L111.990041,0 L1,0 L1,0 Z" id="Path" fill="#FF5F00" sketch:type="MSShapeGroup"></path>
                <g id="Layer_2" fill="#FDF7E7" sketch:type="MSShapeGroup">
                    <path d="M0,0 L0,54.6313333 L56.4956364,105.763212 L112.991273,54.6313333 L112.991273,0 L0,0 L0,0 Z M110.688242,53.6110909 L56.4956364,102.657576 L2.3030303,53.6110909 L2.3030303,2.3030303 L110.688242,2.3030303 L110.688242,53.6110909 L110.688242,53.6110909 Z" id="Shape"></path>
                    <g id="Group" transform="translate(13.818182, 10.363636)">
                        <path d="M79.6272727,31.1968485 C79.6272727,31.195697 79.6272727,31.1945455 79.6261212,31.1933939 C79.6238182,31.16 79.6088485,31.1300606 79.6007879,31.0978182 C79.5938788,31.0690303 79.5938788,31.0367879 79.5823636,31.010303 C79.5800606,31.005697 79.5766061,31.0033939 79.5754545,30.9999394 C79.574303,30.9987879 79.5731515,30.9976364 79.572,30.9953333 C79.5685455,30.9884242 79.5685455,30.9815152 79.5639394,30.9746061 C79.5639394,30.9734545 79.5627879,30.972303 79.5616364,30.972303 C79.5501212,30.9481212 79.5282424,30.929697 79.5121212,30.9066667 C79.4913939,30.8778788 79.4764242,30.8456364 79.4487879,30.8214545 C79.4476364,30.820303 79.4464848,30.8168485 79.4453333,30.815697 C79.4441818,30.8145455 79.4418788,30.8133939 79.4395758,30.8122424 C79.4349697,30.8076364 79.4303636,30.8030303 79.4246061,30.7984242 C79.4050303,30.7811515 79.3808485,30.7742424 79.3589697,30.7615758 C79.3244242,30.7385455 79.2921818,30.7155152 79.2541818,30.6993939 C79.2484242,30.6982424 79.2449697,30.6936364 79.2403636,30.6924848 C79.2403636,30.6924848 79.2392121,30.6913333 79.2380606,30.6913333 C79.2334545,30.6901818 79.23,30.6878788 79.2265455,30.6867273 L52.326,21.6634545 C52.2695758,21.624303 52.2062424,21.5920606 52.1371515,21.5759394 L51.8446667,21.5033939 L51.2781212,21.3133939 C51.264303,21.3087879 51.2493333,21.3110909 51.2355152,21.3076364 C51.2067273,21.2995758 51.1767879,21.2984242 51.145697,21.2949697 C51.1007879,21.2903636 51.0570303,21.2869091 51.0132727,21.2926667 C51.0040606,21.2938182 50.9948485,21.2903636 50.9856364,21.2926667 L37.1605455,23.9860606 L37.1605455,23.9768485 L36.6400606,24.0873939 L1.596,30.9089697 C1.32309091,30.9619394 1.14230303,31.2049091 1.14115152,31.4743636 C1.13769697,31.4962424 1.12963636,31.5146667 1.12963636,31.537697 L1.12963636,39.935697 L1.01448485,39.9598788 C0.997212121,39.9633333 0.98569697,39.973697 0.969575758,39.9794545 L0.849818182,39.9725455 C0.548121212,39.9414545 0.261393939,40.1993939 0.245272727,40.5172121 C0.229151515,40.8350303 0.470969697,41.1056364 0.789939394,41.1217576 L49.8801818,43.7495152 C49.8986061,43.7518182 49.9135758,43.7610303 49.932,43.7621818 L50.464,43.7898182 L50.464,50.3937576 L0.880909091,45.0910303 C0.593030303,45.0553333 0.280969697,45.2856364 0.247575758,45.602303 C0.214181818,45.9178182 0.442181818,46.2022424 0.758848485,46.2356364 L50.9775758,51.6074545 C50.9971515,51.6097576 51.0167273,51.6109091 51.0374545,51.6109091 L51.0386061,51.6109091 L51.0570303,51.6109091 L78.3813333,50.7346061 C78.6991515,50.7242424 78.9490303,50.4582424 78.9386667,50.1404242 C78.9271515,49.8237576 78.6450303,49.5911515 78.3444848,49.5830909 L51.6143636,50.4398182 L51.6143636,43.849697 L51.984,43.8692727 C51.9943636,43.8704242 52.0047273,43.8704242 52.0139394,43.8704242 C52.0231515,43.8704242 52.0346667,43.8646667 52.0438788,43.8646667 L59.0853939,44.2412121 L59.1694545,44.2458182 C59.1809697,44.2469697 59.1913333,44.2469697 59.2005455,44.2469697 C59.2903636,44.2469697 59.3721212,44.2216364 59.4492727,44.1836364 C59.4584848,44.1790303 59.467697,44.1813333 59.4757576,44.1767273 L78.4746061,33.8338182 L78.4746061,45.1946667 C78.4746061,45.5124848 78.7325455,45.7704242 79.0503636,45.7704242 C79.3681818,45.7704242 79.6261212,45.5124848 79.6261212,45.1946667 L79.6261212,31.236 C79.6261212,31.2290909 79.6226667,31.2233333 79.6226667,31.2164242 C79.6226667,31.2095152 79.6272727,31.2037576 79.6272727,31.1968485 L79.6272727,31.1968485 Z M16.8973333,29.1033939 L16.9065455,30.435697 L15.5028485,29.3751515 L16.8973333,29.1033939 L16.8973333,29.1033939 Z M4.3550303,31.5457576 L6.18709091,31.1887879 L4.3550303,33.2638182 L4.3550303,31.5457576 L4.3550303,31.5457576 Z M3.20351515,40.0370303 L2.28115152,40.0047879 L2.28115152,32.0052121 L3.20351515,31.808303 L3.20351515,40.0370303 L3.20351515,40.0370303 Z M6.13757576,40.2558182 L5.15648485,40.2028485 C5.08624242,40.1084242 5.03442424,40.0024848 5.02521212,39.8769697 C4.99527273,39.5234545 5.26127273,39.216 5.61478788,39.1883636 C5.96945455,39.1618788 6.27575758,39.4244242 6.30569697,39.7790909 C6.31951515,39.9610303 6.25272727,40.130303 6.13757576,40.2558182 L6.13757576,40.2558182 Z M8.51430303,39.4175152 C8.48781818,39.061697 8.75151515,38.7553939 9.10848485,38.7266061 C9.462,38.7001212 9.76945455,38.9649697 9.79478788,39.3184848 C9.82127273,39.672 9.55642424,39.9806061 9.20290909,40.0093939 C8.85169697,40.0370303 8.53848485,39.7698788 8.51430303,39.4175152 L8.51430303,39.4175152 Z M10.526,40.4907273 L9.26393939,40.4227879 C9.28121212,40.1026667 9.51842424,39.8332121 9.84545455,39.8067273 C10.1989697,39.7825455 10.5075758,40.0439394 10.5375152,40.4009091 C10.5386667,40.432 10.528303,40.4607879 10.526,40.4907273 L10.526,40.4907273 Z M12.5895152,40.318 C12.233697,40.3456364 11.9239394,40.0819394 11.896303,39.7284242 C11.8721212,39.3749091 12.1358182,39.0651515 12.4904848,39.0398182 C12.844,39.0133333 13.150303,39.2758788 13.1767879,39.6293939 C13.2055758,39.9829091 12.9418788,40.2903636 12.5895152,40.318 L12.5895152,40.318 Z M14.3870303,40.6968485 L13.5061212,40.6496364 C13.4128485,40.5471515 13.3437576,40.4216364 13.3322424,40.2719394 C13.3034545,39.9195758 13.568303,39.6144242 13.9264242,39.5844848 C14.2764848,39.558 14.5827879,39.8228485 14.6138788,40.1752121 C14.627697,40.3824848 14.5344242,40.5678788 14.3870303,40.6968485 L14.3870303,40.6968485 Z M15.6640606,40.733697 C15.3059394,40.7601818 15.0030909,40.4976364 14.9708485,40.1441212 C14.9466667,39.7894545 15.2092121,39.482 15.5650303,39.4532121 C15.9208485,39.4267273 16.228303,39.6915758 16.2536364,40.0462424 C16.2824242,40.3986061 16.0164242,40.7072121 15.6640606,40.733697 L15.6640606,40.733697 Z M16.2329091,38.6598182 C15.8770909,38.686303 15.5719394,38.4214545 15.544303,38.0702424 C15.5155152,37.7155758 15.7803636,37.4069697 16.1338788,37.3816364 C16.4885455,37.3528485 16.7971515,37.617697 16.8247879,37.9712121 C16.8524242,38.3247273 16.5852727,38.6333333 16.2329091,38.6598182 L16.2329091,38.6598182 Z M14.8672121,36.9049091 C15.0572121,37.0039394 15.197697,37.1847273 15.2138182,37.4138788 C15.2414545,37.7673939 14.9777576,38.073697 14.6219394,38.1024848 C14.2695758,38.1289697 13.9632727,37.8664242 13.9356364,37.5106061 C13.9218182,37.3493939 13.9770909,37.2008485 14.0669091,37.0810909 L13.6247273,37.1789697 C13.753697,37.2860606 13.8412121,37.4426667 13.8561818,37.6234545 C13.8815152,37.9781212 13.6201212,38.2844242 13.2654545,38.3120606 C12.9096364,38.3385455 12.6033333,38.073697 12.578,37.7201818 C12.5676364,37.6015758 12.6021818,37.4944848 12.6493939,37.394303 L11.7938182,37.5831515 C11.8145455,37.6384242 11.8364242,37.6925455 11.8421818,37.7535758 C11.8686667,38.1070909 11.6061212,38.4145455 11.2491515,38.4421818 C10.9002424,38.4698182 10.5950909,38.2049697 10.5628485,37.8537576 L10.0481212,37.9677576 C10.0193333,38.2706061 9.78787879,38.5193333 9.47006061,38.5458182 C9.21787879,38.5642424 8.99333333,38.4306667 8.87357576,38.2268485 L7.60460606,38.5066667 C7.82224242,38.5953333 7.98690909,38.7968485 8.00648485,39.0490303 C8.0329697,39.403697 7.76812121,39.7088485 7.41690909,39.7364848 C7.06109091,39.7641212 6.75133333,39.5004242 6.72254545,39.1469091 C6.70872727,38.9603636 6.7789697,38.7887879 6.89757576,38.6632727 L4.35042424,39.2240606 L4.35042424,35.0049091 L8.03757576,30.8283636 L13.9759394,29.6722424 L16.9111515,31.8900606 L16.9410909,36.4477576 L14.8672121,36.9049091 L14.8672121,36.9049091 Z M18.128303,40.8776364 L18.0488485,28.920303 L18.9504848,28.730303 L19.0287879,40.9248485 L18.128303,40.8776364 L18.128303,40.8776364 Z M20.099697,28.4804242 L21.7797576,28.1533939 L20.1100606,29.982 L20.099697,28.4804242 L20.099697,28.4804242 Z M20.6040606,40.4124242 C20.441697,40.4250909 20.2954545,40.3721212 20.1768485,40.282303 L20.1699394,39.2747273 C20.2655152,39.1998788 20.3772121,39.142303 20.5084848,39.1319394 C20.859697,39.104303 21.1671515,39.3691515 21.1947879,39.7226667 C21.2212727,40.0784848 20.9575758,40.3847879 20.6040606,40.4124242 L20.6040606,40.4124242 Z M21.3663636,38.9361818 C21.0093939,38.9649697 20.7042424,38.7024242 20.674303,38.3477576 C20.6501212,37.9930909 20.9126667,37.6856364 21.2684848,37.658 C21.6231515,37.6292121 21.9294545,37.8963636 21.9570909,38.2487273 C21.9858788,38.6033939 21.7198788,38.912 21.3663636,38.9361818 L21.3663636,38.9361818 Z M22.9669697,40.9812727 C22.6169091,41.0100606 22.306,40.7452121 22.2795152,40.391697 C22.2553333,40.0358788 22.5155758,39.7284242 22.8690909,39.7019394 C23.2249091,39.674303 23.5312121,39.9368485 23.557697,40.2926667 C23.5841818,40.6484848 23.3227879,40.9547879 22.9669697,40.9812727 L22.9669697,40.9812727 Z M23.0061212,38.3719394 C22.6652727,38.3984242 22.3773939,38.1531515 22.3301818,37.8238182 C22.2956364,37.8330303 22.2645455,37.8491515 22.227697,37.8526061 C21.8741818,37.8802424 21.5632727,37.6130909 21.5367879,37.2618788 C21.5126061,36.9083636 21.771697,36.5986061 22.1298182,36.5709697 C22.4672121,36.5456364 22.7585455,36.7909091 22.8069091,37.1213939 C22.840303,37.1121818 22.8713939,37.0960606 22.9070909,37.0937576 C23.2617576,37.0649697 23.5680606,37.3298182 23.598,37.6821818 C23.6244848,38.038 23.3596364,38.3454545 23.0061212,38.3719394 L23.0061212,38.3719394 Z M24.4397576,39.1169697 C24.0873939,39.1434545 23.7810909,38.8797576 23.7511515,38.5273939 C23.7258182,38.1727273 23.9895152,37.8641212 24.3407273,37.8376364 C24.5998182,37.8169091 24.8324242,37.9562424 24.9510303,38.1692727 C25.0581212,38.0391515 25.2147273,37.9493333 25.3978182,37.9343636 C25.7513333,37.9067273 26.0587879,38.1715758 26.0887273,38.5250909 C26.1129091,38.8786061 25.8480606,39.1860606 25.4922424,39.213697 C25.234303,39.2344242 25.0028485,39.0950909 24.8865455,38.8820606 C24.778303,39.0133333 24.621697,39.104303 24.4397576,39.1169697 L24.4397576,39.1169697 Z M26.2384242,36.9152727 C26.2672121,37.2664848 26.0000606,37.5762424 25.6488485,37.6038788 C25.2941818,37.6303636 24.9844242,37.3655152 24.9579394,37.012 C24.9429697,36.8289091 25.0097576,36.6596364 25.1237576,36.5352727 C24.9982424,36.4270303 24.9107273,36.2715758 24.8980606,36.0930909 C24.8738788,35.7407273 25.1364242,35.4332727 25.4922424,35.4033333 C25.8480606,35.3791515 26.1555152,35.6428485 26.179697,35.9975152 C26.1946667,36.1794545 26.1278788,36.3475758 26.0127273,36.4730909 C26.1393939,36.5801818 26.2257576,36.7344848 26.2384242,36.9152727 L26.2384242,36.9152727 Z M25.766303,40.9927879 C25.419697,41.0192727 25.1099394,40.7578788 25.0846061,40.4032121 C25.0569697,40.049697 25.3183636,39.7422424 25.6718788,39.7134545 C26.0311515,39.6858182 26.3386061,39.9529697 26.3627879,40.3053333 C26.3869697,40.657697 26.1255758,40.9651515 25.766303,40.9927879 L25.766303,40.9927879 Z M28.0336364,37.43 C28.0048485,37.0741818 28.2708485,36.7644242 28.6278182,36.7390909 C28.9790303,36.7126061 29.2853333,36.976303 29.3164242,37.3309697 C29.3417576,37.6844848 29.0780606,37.9919394 28.7222424,38.0218788 C28.5863636,38.0310909 28.4631515,37.9884848 28.3549091,37.924 C28.3756364,37.9781212 28.3975152,38.0310909 28.4021212,38.0909697 C28.4297576,38.4421818 28.1626061,38.7519394 27.813697,38.7807273 C27.4578788,38.8049091 27.1492727,38.5423636 27.1227879,38.187697 C27.091697,37.8341818 27.3588485,37.5278788 27.7100606,37.5002424 C27.8482424,37.4887273 27.9726061,37.5313333 28.0808485,37.5969697 C28.0612727,37.5428485 28.0382424,37.4898788 28.0336364,37.43 L28.0336364,37.43 Z M27.132,38.7473333 C27.4855152,38.7208485 27.7929697,38.985697 27.8206061,39.3392121 C27.8493939,39.6927273 27.5845455,39.9978788 27.2264242,40.0278182 C26.8763636,40.054303 26.5677576,39.7906061 26.5424242,39.4359394 C26.5101818,39.0835758 26.7773333,38.7772727 27.132,38.7473333 L27.132,38.7473333 Z M27.7054545,41.4096364 L26.7301212,41.3578182 C26.6587273,41.2633939 26.6046061,41.1551515 26.5942424,41.0284848 C26.5689091,40.6749697 26.830303,40.3663636 27.1838182,40.3387273 C27.5384848,40.3133939 27.8447879,40.5782424 27.8747273,40.9329091 C27.8873939,41.1148485 27.8206061,41.2841212 27.7054545,41.4096364 L27.7054545,41.4096364 Z M28.8489091,41.4084848 C28.4919394,41.4372727 28.1867879,41.1724242 28.1591515,40.8200606 C28.1315152,40.4653939 28.3952121,40.1567879 28.7510303,40.130303 C29.105697,40.1038182 29.412,40.3663636 29.4396364,40.7198788 C29.4649697,41.0745455 29.2024242,41.3831515 28.8489091,41.4084848 L28.8489091,41.4084848 Z M29.2795758,36.4604242 C28.9237576,36.4869091 28.6186061,36.2232121 28.5886667,35.8685455 C28.5610303,35.5150303 28.8247273,35.2087273 29.1828485,35.1799394 C29.5340606,35.1534545 29.8415152,35.416 29.8714545,35.7706667 C29.8956364,36.1253333 29.6307879,36.4350909 29.2795758,36.4604242 L29.2795758,36.4604242 Z M32.3046061,36.5122424 C32.3333939,36.8657576 32.0662424,37.1743636 31.7127273,37.2008485 C31.3603636,37.2273333 31.0494545,36.9647879 31.0218182,36.6112727 C31.0160606,36.5283636 31.0298788,36.4489091 31.0517576,36.3752121 C30.739697,36.3510303 30.4771515,36.1138182 30.4541212,35.7948485 C30.4276364,35.4413333 30.6924848,35.1327273 31.046,35.1039394 C31.3995152,35.0797576 31.7069697,35.342303 31.7346061,35.6981212 C31.7403636,35.7798788 31.7265455,35.8593333 31.7046667,35.9330303 C32.0213333,35.9537576 32.2815758,36.1898182 32.3046061,36.5122424 L32.3046061,36.5122424 Z M30.3539394,35.3630303 C30.0027273,35.3872121 29.6929697,35.1246667 29.6653333,34.7688485 C29.64,34.4164848 29.903697,34.1101818 30.2560606,34.0813939 C30.6118788,34.0560606 30.9181818,34.3197576 30.9435152,34.6721212 C30.9711515,35.0256364 30.7074545,35.3342424 30.3539394,35.3630303 L30.3539394,35.3630303 Z M30.3815758,37.4737576 C30.7339394,37.4484242 31.0448485,37.7098182 31.0701818,38.0644848 C31.0943636,38.4191515 30.8318182,38.7254545 30.4806061,38.7530909 C30.1270909,38.7807273 29.8196364,38.5170303 29.792,38.1612121 C29.7643636,37.807697 30.0280606,37.5013939 30.3815758,37.4737576 L30.3815758,37.4737576 Z M30.6349091,40.9973939 C30.2802424,41.0238788 29.9727879,40.7578788 29.946303,40.4055152 C29.9186667,40.052 30.1812121,39.7445455 30.5370303,39.7157576 C30.8905455,39.6904242 31.1991515,39.9529697 31.2256364,40.3087879 C31.2521212,40.662303 30.9861212,40.9686061 30.6349091,40.9973939 L30.6349091,40.9973939 Z M31.8370909,40.5920606 C31.4847273,40.6162424 31.1749697,40.353697 31.1507879,39.9978788 C31.122,39.6466667 31.3833939,39.3392121 31.7392121,39.3115758 C32.0950303,39.2839394 32.4001818,39.5487879 32.4255152,39.9011515 C32.4577576,40.2569697 32.1917576,40.5655758 31.8370909,40.5920606 L31.8370909,40.5920606 Z M33.0266061,39.1872121 C32.6765455,39.213697 32.3679394,38.952303 32.338,38.5964848 C32.3138182,38.2452727 32.5786667,37.9355152 32.9298788,37.9101818 C33.285697,37.8813939 33.5931515,38.1485455 33.6207879,38.4997576 C33.6484242,38.8532727 33.3812727,39.1618788 33.0266061,39.1872121 L33.0266061,39.1872121 Z M33.3455758,36.2220606 C32.9920606,36.2485455 32.6869091,35.986 32.6569697,35.6324848 C32.6327879,35.2778182 32.8953333,34.9715152 33.2511515,34.9427273 C33.6069697,34.9162424 33.9098182,35.1799394 33.9386061,35.5346061 C33.9639394,35.8869697 33.7025455,36.1955758 33.3455758,36.2220606 L33.3455758,36.2220606 Z M33.9570303,33.7981212 L32.7606061,33.8810303 C32.7606061,33.8833333 32.7629091,33.8856364 32.7629091,33.8890909 C32.7859394,34.2414545 32.5268485,34.5512121 32.1733333,34.5788485 C31.8175152,34.6053333 31.5077576,34.3404848 31.4812727,33.9869697 C31.4812727,33.9812121 31.4835758,33.9754545 31.4835758,33.969697 L27.970303,34.2138182 C28.1372727,34.3186061 28.2604848,34.4878788 28.2754545,34.6997576 C28.3019394,35.0521212 28.0370909,35.3607273 27.6870303,35.3883636 C27.3289091,35.4125455 27.018,35.15 26.9915152,34.7987879 C26.9765455,34.5834545 27.0755758,34.3946061 27.2287273,34.2656364 L26.6529697,34.3059394 L24.7794545,34.7193333 C24.8462424,34.8114545 24.8980606,34.9150909 24.9072727,35.036 C24.9314545,35.3918182 24.6666061,35.6981212 24.3142424,35.7246061 C23.9584242,35.7533939 23.6544242,35.4908485 23.6256364,35.1350303 C23.6198788,35.076303 23.636,35.0221818 23.6452121,34.9680606 L23.0153333,35.1062424 C23.2318182,35.1960606 23.3930303,35.3941212 23.4137576,35.6428485 C23.4390909,35.9963636 23.1753939,36.3061212 22.8195758,36.3314545 C22.4695152,36.3602424 22.1586061,36.0930909 22.1286667,35.7418788 C22.116,35.5599394 22.1827879,35.3906667 22.2967879,35.2651515 L21.5678788,35.4263636 C21.6104848,35.5035152 21.6392727,35.5898788 21.6473333,35.684303 C21.6761212,36.0378182 21.4089697,36.3452727 21.0554545,36.3752121 C20.9840606,36.3798182 20.9195758,36.366 20.8539394,36.3498788 C20.7526061,36.444303 20.6259394,36.5133939 20.4750909,36.5237576 C20.3553333,36.5329697 20.2470909,36.4995758 20.1480606,36.4523636 L20.1411515,35.3135152 L20.1169697,31.6770303 L23.674,27.7860606 L30.6452727,26.4284242 L33.9547273,29.2381212 L33.9547273,33.7981212 L33.9570303,33.7981212 Z M33.9570303,27.7284848 L32.0938788,26.146303 L33.9570303,25.7835758 L33.9570303,27.7284848 L33.9570303,27.7284848 Z M36.0090303,41.8241818 L35.109697,41.7769697 L35.109697,25.5866667 L36.0090303,25.3966667 L36.0090303,41.8241818 L36.0090303,41.8241818 Z M49.3827273,37.9769697 C49.2917576,38.0414545 49.1892727,38.0898182 49.0706667,38.0990303 C48.7148485,38.1232121 48.4062424,37.8583636 48.3774545,37.506 C48.3532727,37.1524848 48.6204242,36.8427273 48.9716364,36.8162424 C49.1236364,36.8047273 49.2641212,36.8553939 49.3804242,36.936 L49.3827273,37.9769697 L49.3827273,37.9769697 Z M48.2001212,35.5852727 C48.5536364,35.5610909 48.8645455,35.8236364 48.8933333,36.1771515 C48.9198182,36.5295152 48.6526667,36.8381212 48.298,36.8657576 C47.9421818,36.8922424 47.6381818,36.6273939 47.6093939,36.2738788 C47.5852121,35.9226667 47.8454545,35.6140606 48.2001212,35.5852727 L48.2001212,35.5852727 Z M47.3422424,34.8770909 C47.3180606,34.5212727 47.5817576,34.2138182 47.9352727,34.1884848 C48.2864848,34.159697 48.5939394,34.4245455 48.6238788,34.7780606 C48.6503636,35.1304242 48.3855152,35.4390303 48.0331515,35.4666667 C47.6807879,35.494303 47.3687273,35.228303 47.3422424,34.8770909 L47.3422424,34.8770909 Z M49.3712121,22.7827273 L49.3735152,24.8761818 L47.6796364,23.1120606 L49.3712121,22.7827273 L49.3712121,22.7827273 Z M37.1605455,25.1606061 L39.6397576,24.6781212 L37.1605455,27.2149091 L37.1605455,25.1606061 L37.1605455,25.1606061 Z M37.1605455,28.8615758 L41.6284242,24.2889091 L46.3358182,23.3734545 L49.3758182,26.5401212 L49.3792727,32.7226061 L46.3726667,32.9333333 C46.2943636,33.1705455 46.0801818,33.3513333 45.8141818,33.3709091 C45.5458788,33.3927879 45.3052121,33.2442424 45.1900606,33.0150909 L40.2938182,33.3559394 C40.3030303,33.3893333 40.318,33.4204242 40.3214545,33.4561212 C40.3444848,33.8084848 40.0853939,34.1182424 39.7318788,34.1458788 C39.3760606,34.1723636 39.066303,33.9075152 39.0398182,33.554 C39.0375152,33.5148485 39.0501818,33.480303 39.0536364,33.4411515 L37.1605455,33.5735758 L37.1605455,28.8615758 L37.1605455,28.8615758 Z M42.6452121,35.8846667 C42.9987273,35.8593333 43.3096364,36.1230303 43.3361212,36.477697 C43.360303,36.8300606 43.0954545,37.1386667 42.7430909,37.1674545 C42.3872727,37.1916364 42.0809697,36.9290909 42.0544848,36.5732727 C42.025697,36.2197576 42.2905455,35.912303 42.6452121,35.8846667 L42.6452121,35.8846667 Z M41.762,33.9501212 C41.7332121,33.5966061 41.9980606,33.288 42.3527273,33.2615152 C42.7073939,33.2327273 43.013697,33.4998788 43.0436364,33.8510909 C43.0689697,34.2057576 42.8075758,34.5143636 42.4529091,34.539697 C42.0970909,34.5696364 41.7873333,34.3036364 41.762,33.9501212 L41.762,33.9501212 Z M41.4165455,36.4120606 C41.4441818,36.7644242 41.1770303,37.0718788 40.8292727,37.0995152 C40.472303,37.1271515 40.1648485,36.8634545 40.1372121,36.5099394 C40.1084242,36.1541212 40.3732727,35.8466667 40.7290909,35.8213333 C41.0826061,35.793697 41.3877576,36.0573939 41.4165455,36.4120606 L41.4165455,36.4120606 Z M39.2850909,37.0557576 C39.6386061,37.0281212 39.9483636,37.2929697 39.976,37.6464848 C40.0001818,37.9988485 39.7353333,38.3074545 39.3795152,38.3350909 C39.0248485,38.3615758 38.7208485,38.0990303 38.6909091,37.7455152 C38.6644242,37.389697 38.9304242,37.0810909 39.2850909,37.0557576 L39.2850909,37.0557576 Z M38.5538788,36.4961212 C38.1992121,36.5237576 37.8906061,36.2600606 37.8652727,35.9053939 C37.8399394,35.5530303 38.1013333,35.2455758 38.4548485,35.2179394 C38.8106667,35.1914545 39.1158182,35.454 39.1457576,35.8086667 C39.1733939,36.1621818 38.909697,36.4696364 38.5538788,36.4961212 L38.5538788,36.4961212 Z M37.1605455,34.0284242 C37.2676364,33.9052121 37.4207879,33.8211515 37.5969697,33.8096364 C37.9527879,33.7831515 38.2602424,34.045697 38.2855758,34.4015152 C38.3143636,34.7538788 38.0495152,35.0624848 37.693697,35.0924242 C37.4772121,35.1073939 37.2872121,35.0072121 37.1605455,34.8529091 L37.1605455,34.0284242 L37.1605455,34.0284242 Z M37.1605455,37.4369091 C37.2641818,37.3390303 37.3954545,37.2687879 37.5497576,37.2572727 C37.9055758,37.2307879 38.2107273,37.4933333 38.2372121,37.8468485 C38.2648485,38.2015152 38.002303,38.5078182 37.6464848,38.5354545 C37.4587879,38.5515758 37.2872121,38.4790303 37.1605455,38.3604242 L37.1605455,37.4369091 L37.1605455,37.4369091 Z M37.7604848,40.8926061 C37.5048485,40.9133333 37.280303,40.7786061 37.1605455,40.5747879 L37.1605455,39.9449091 C37.2630303,39.7652727 37.4380606,39.631697 37.6637576,39.6144242 C38.0161212,39.5879394 38.3247273,39.8504848 38.3512121,40.206303 C38.3765455,40.5575152 38.114,40.8638182 37.7604848,40.8926061 L37.7604848,40.8926061 Z M38.9016364,39.8274545 C38.8325455,39.8585455 38.76,39.8838788 38.6805455,39.8907879 C38.3235758,39.9172727 38.0149697,39.6524242 37.9896364,39.2977576 C37.964303,38.9453939 38.2291515,38.6356364 38.5815152,38.608 C38.9269697,38.5838182 39.2275152,38.838303 39.2643636,39.180303 C39.3334545,39.1480606 39.406,39.1227273 39.4854545,39.1158182 C39.8389697,39.0904848 40.1510303,39.3564848 40.1763636,39.71 C40.2005455,40.0612121 39.9368485,40.3686667 39.5867879,40.3986061 C39.2390303,40.4239394 38.9373333,40.1694545 38.9016364,39.8274545 L38.9016364,39.8274545 Z M41.7378182,42.1604242 L40.7774545,42.1097576 C40.7555758,42.0821212 40.7302424,42.0590909 40.7129697,42.0291515 C40.6876364,42.0579394 40.6519394,42.0775152 40.622,42.1005455 L39.7894545,42.0556364 C39.6812121,41.9508485 39.6063636,41.8138182 39.5948485,41.6526061 C39.5660606,41.2979394 39.8332121,40.9904848 40.1844242,40.964 C40.4446667,40.9432727 40.6784242,41.0837576 40.7947273,41.2967879 C40.9018182,41.1770303 41.0515152,41.0952727 41.2230909,41.0814545 C41.5789091,41.0561212 41.8863636,41.3186667 41.9128485,41.6744848 C41.9278182,41.8633333 41.8575758,42.0349091 41.7378182,42.1604242 L41.7378182,42.1604242 Z M41.5950303,39.5994545 C41.2392121,39.6247879 40.9340606,39.3599394 40.9041212,39.0087273 C40.8776364,38.6552121 41.1424848,38.3454545 41.498303,38.3178182 C41.8483636,38.2913333 42.1592727,38.5561818 42.1880606,38.909697 C42.2133939,39.2632121 41.9462424,39.5729697 41.5950303,39.5994545 L41.5950303,39.5994545 Z M42.9261818,41.4741212 C42.5726667,41.5006061 42.2652121,41.2380606 42.2398788,40.8845455 C42.2110909,40.5310303 42.4747879,40.2212727 42.8271515,40.1936364 C43.1829697,40.1671515 43.4892727,40.432 43.5169091,40.7855152 C43.5422424,41.1401818 43.279697,41.4464848 42.9261818,41.4741212 L42.9261818,41.4741212 Z M43.3522424,38.4513939 C42.9975758,38.4801818 42.6901212,38.2153333 42.6624848,37.8618182 C42.636,37.5071515 42.9008485,37.1985455 43.2532121,37.1720606 C43.6090303,37.1444242 43.9176364,37.4104242 43.9452727,37.7627879 C43.9717576,38.1174545 43.7092121,38.4237576 43.3522424,38.4513939 L43.3522424,38.4513939 Z M43.9740606,35.2156364 C43.9475758,34.8609697 44.2078182,34.5535152 44.5636364,34.5258788 C44.9171515,34.4993939 45.2257576,34.7630909 45.2545455,35.1177576 C45.2798788,35.4689697 45.0150303,35.7775758 44.6626667,35.8063636 C44.308,35.8328485 44.0005455,35.568 43.9740606,35.2156364 L43.9740606,35.2156364 Z M44.8158182,36.2646667 C45.0944848,36.2427879 45.3386061,36.4051515 45.448,36.6446667 C45.5550909,36.5099394 45.711697,36.4166667 45.8993939,36.401697 C46.2494545,36.3752121 46.5592121,36.6400606 46.5868485,36.9935758 C46.6144848,37.3470909 46.3507879,37.655697 45.9949697,37.6821818 C45.7174545,37.7017576 45.4744848,37.541697 45.3662424,37.3021818 C45.258,37.4369091 45.1013939,37.5301818 44.913697,37.5451515 C44.5613333,37.5693333 44.2573333,37.3067879 44.2273939,36.9555758 C44.2032121,36.6020606 44.462303,36.292303 44.8158182,36.2646667 L44.8158182,36.2646667 Z M44.2734545,38.6678788 C44.2469697,38.3132121 44.5118182,38.0057576 44.8664848,37.9781212 C45.2188485,37.9516364 45.5309091,38.2176364 45.5585455,38.57 C45.5827273,38.9235152 45.3167273,39.2321212 44.9643636,39.2586061 C44.609697,39.2850909 44.3033939,39.0225455 44.2734545,38.6678788 L44.2734545,38.6678788 Z M46.0007273,41.8921212 C45.6518182,41.9174545 45.3409091,41.6537576 45.3132727,41.3002424 C45.2890909,40.9467273 45.5493333,40.6369697 45.901697,40.6093333 C46.2552121,40.5851515 46.5661212,40.847697 46.5926061,41.2035152 C46.6213939,41.5570303 46.3565455,41.8644848 46.0007273,41.8921212 L46.0007273,41.8921212 Z M46.0214545,35.570303 C45.6656364,35.5990909 45.3593333,35.3342424 45.3328485,34.9807273 C45.3063636,34.6260606 45.5712121,34.3197576 45.9224242,34.2921212 C46.2759394,34.2633333 46.5833939,34.5281818 46.6133333,34.881697 C46.6398182,35.2375152 46.3749697,35.5449697 46.0214545,35.570303 L46.0214545,35.570303 Z M46.5672727,33.5712727 C46.5407879,33.2189091 46.8056364,32.9114545 47.1568485,32.8838182 C47.5103636,32.8573333 47.8224242,33.1221818 47.8477576,33.4733939 C47.8730909,33.8269091 47.6082424,34.1343636 47.2558788,34.1631515 C46.9035152,34.1919394 46.5937576,33.9282424 46.5672727,33.5712727 L46.5672727,33.5712727 Z M46.8873939,39.5165455 C46.8712727,39.3104242 46.9610909,39.1284848 47.1038788,38.9995152 C47.0198182,38.9004848 46.9564848,38.7818788 46.9461212,38.6413939 C46.9173333,38.2878788 47.1810303,37.9815758 47.5368485,37.9516364 C47.8915152,37.926303 48.1989697,38.1888485 48.2277576,38.5446667 C48.2438788,38.7496364 48.1540606,38.9315758 48.0112727,39.0605455 C48.0953333,39.1595758 48.1598182,39.2770303 48.1701818,39.4186667 C48.1955152,39.7710303 47.9318182,40.0784848 47.576,40.1061212 C47.2236364,40.1337576 46.9127273,39.8700606 46.8873939,39.5165455 L46.8873939,39.5165455 Z M48.3083636,42.5127879 L47.4550909,42.4667273 C47.3537576,42.3630909 47.2800606,42.2295152 47.2673939,42.0740606 C47.2409091,41.7205455 47.5057576,41.4107879 47.8569697,41.384303 C48.2081818,41.3566667 48.5225455,41.6215152 48.5501818,41.9750303 C48.5674545,42.1926667 48.4649697,42.3849697 48.3083636,42.5127879 L48.3083636,42.5127879 Z M48.9923636,41.0733939 C48.6411515,41.0998788 48.3302424,40.8350303 48.3037576,40.4815152 C48.2749697,40.125697 48.5444242,39.8205455 48.8933333,39.7929091 C49.0833333,39.7779394 49.2560606,39.8516364 49.3838788,39.9725455 L49.3850303,40.885697 C49.2802424,40.9881818 49.1478182,41.0607273 48.9923636,41.0733939 L48.9923636,41.0733939 Z M50.537697,42.6406061 L50.5227273,22.5892727 L50.9902424,22.4764242 L51.4243636,22.5858182 L51.4393333,42.6878182 L50.537697,42.6406061 L50.537697,42.6406061 Z M52.5758788,22.9623636 L76.1289697,30.8617576 L74.7471515,30.9573333 C74.8150909,31.0506061 74.8669091,31.1553939 74.8749697,31.2774545 C74.9037576,31.6344242 74.6366061,31.9384242 74.2865455,31.9672121 C73.9307273,31.9925455 73.6244242,31.73 73.5944848,31.3764848 C73.5852727,31.2509697 73.6232727,31.1358182 73.679697,31.0310303 L68.5635152,31.388 C68.5427879,31.7012121 68.3067273,31.9637576 67.979697,31.9879394 C67.6572727,32.0121212 67.3797576,31.7841212 67.3175758,31.4743636 L63.9735758,31.7069697 C64.070303,31.8094545 64.1405455,31.9384242 64.1509091,32.0892727 C64.1681818,32.2988485 64.0749091,32.4842424 63.9286667,32.6120606 C63.9459394,32.6097576 63.9574545,32.6005455 63.9747273,32.5993939 C64.3305455,32.5717576 64.6391515,32.8354545 64.6656364,33.1889697 C64.6921212,33.5424848 64.4272727,33.8499394 64.0726061,33.8775758 C63.7202424,33.9052121 63.4104848,33.6415152 63.384,33.2868485 C63.3678788,33.0784242 63.46,32.8953333 63.6039394,32.7675152 C63.5866667,32.7698182 63.5751515,32.7790303 63.5578788,32.7801818 C63.2101212,32.8043636 62.9015152,32.5441212 62.8715758,32.188303 C62.8589091,32.0328485 62.9107273,31.8923636 62.9936364,31.7749091 L62.4247879,31.8152121 C62.3787273,32.1019394 62.1507273,32.335697 61.8501818,32.3598788 C61.5427273,32.3829091 61.2824848,32.183697 61.1972727,31.9015758 L59.0197576,32.0524242 C59.0485455,32.1192121 59.0738788,32.1894545 59.0807879,32.2666061 C59.1084242,32.6178182 58.8424242,32.9252727 58.4889091,32.9529091 C58.1319394,32.9793939 57.8256364,32.7168485 57.7991515,32.3633333 C57.7922424,32.2850303 57.8049091,32.2078788 57.8256364,32.1364848 L52.5793333,32.5015152 L52.5758788,22.9623636 L52.5758788,22.9623636 Z M69.7461212,31.9902424 C69.7184848,31.6355758 69.9821818,31.3281212 70.340303,31.3027879 C70.6938182,31.2751515 71.0012727,31.5388485 71.0289091,31.8923636 C71.0553939,32.2447273 70.7882424,32.5533333 70.4381818,32.5809697 C70.0800606,32.6074545 69.7760606,32.3449091 69.7461212,31.9902424 L69.7461212,31.9902424 Z M69.9188485,33.7175152 C69.9476364,34.0698788 69.6827879,34.3796364 69.3281212,34.4072727 C68.9746061,34.4349091 68.6671515,34.1689091 68.6418182,33.8165455 C68.6130303,33.4618788 68.8767273,33.1532727 69.2302424,33.1267879 C69.5826061,33.098 69.8923636,33.366303 69.9188485,33.7175152 L69.9188485,33.7175152 Z M59.391697,36.8646061 C59.1475758,36.8841818 58.935697,36.7575152 58.8124848,36.5652121 C58.4981212,36.5456364 58.2355758,36.3072727 58.2125455,35.986 C58.1872121,35.6336364 58.4486061,35.3250303 58.8044242,35.2985455 C59.0462424,35.2789697 59.2604242,35.4033333 59.3836364,35.5944848 C59.6968485,35.6175152 59.9582424,35.8535758 59.9835758,36.1748485 C60.0112121,36.5283636 59.7463636,36.8358182 59.391697,36.8646061 L59.391697,36.8646061 Z M59.6277576,37.7052121 C59.6553939,38.0621818 59.3893939,38.3684848 59.0370303,38.3972727 C58.6835152,38.4237576 58.3772121,38.1589091 58.3495758,37.8053939 C58.3219394,37.4507273 58.5856364,37.1444242 58.938,37.1167879 C59.2938182,37.088 59.6035758,37.354 59.6277576,37.7052121 L59.6277576,37.7052121 Z M57.4064848,35.6140606 C57.4352727,35.9664242 57.1681212,36.2738788 56.8180606,36.3015152 C56.4633939,36.328 56.1536364,36.0654545 56.1271515,35.7107879 C56.1133333,35.5253939 56.1812727,35.3561212 56.2975758,35.2306061 C56.2342424,35.1396364 56.1858788,35.038303 56.1778182,34.919697 C56.1490303,34.5684848 56.4127273,34.2587273 56.769697,34.2310909 C57.1209091,34.2057576 57.4306667,34.4694545 57.4571515,34.8229697 C57.4721212,35.0083636 57.4030303,35.1776364 57.2878788,35.3031515 C57.3500606,35.3941212 57.3984242,35.4954545 57.4064848,35.6140606 L57.4064848,35.6140606 Z M53.4567879,37.470303 C53.0986667,37.4967879 52.7935152,37.2319394 52.7658788,36.8795758 C52.7382424,36.5249091 53.0019394,36.2174545 53.3600606,36.1898182 C53.7158788,36.1656364 54.0198788,36.4270303 54.0486667,36.7793939 C54.0751515,37.1352121 53.808,37.4426667 53.4567879,37.470303 L53.4567879,37.470303 Z M53.9669091,38.5792121 C53.9910909,38.9315758 53.7308485,39.2424848 53.3761818,39.2701212 C53.0180606,39.2954545 52.7140606,39.0317576 52.6841212,38.6759394 C52.6587879,38.3247273 52.9224848,38.0149697 53.278303,37.9873333 C53.6318182,37.9631515 53.9381212,38.228 53.9669091,38.5792121 L53.9669091,38.5792121 Z M53.7078182,33.5793333 C53.6790303,33.2235152 53.9461818,32.9160606 54.2985455,32.8884242 C54.6520606,32.8619394 54.9629697,33.1267879 54.9894545,33.480303 C55.0136364,33.8338182 54.7487879,34.1412727 54.3964242,34.1689091 C54.0417576,34.1953939 53.7308485,33.9328485 53.7078182,33.5793333 L53.7078182,33.5793333 Z M54.6727879,35.0210303 C55.0286061,34.995697 55.3383636,35.2593939 55.3648485,35.6140606 C55.3901818,35.9664242 55.1287879,36.2738788 54.7741212,36.3038182 C54.416,36.3291515 54.1131515,36.0654545 54.0855152,35.7107879 C54.0567273,35.3595758 54.3227273,35.0498182 54.6727879,35.0210303 L54.6727879,35.0210303 Z M55.0389697,33.6622424 C55.0147879,33.3064242 55.2784848,32.9978182 55.6331515,32.9713333 C55.9855152,32.9448485 56.2918182,33.209697 56.3217576,33.5632121 C56.3470909,33.9167273 56.0822424,34.2241818 55.7310303,34.2518182 C55.3729091,34.2794545 55.0677576,34.0157576 55.0389697,33.6622424 L55.0389697,33.6622424 Z M55.5721212,37.4553333 C55.6285455,37.4507273 55.6803636,37.465697 55.7344848,37.4749091 C55.819697,37.2549697 56.0246667,37.0868485 56.280303,37.0661212 C56.6338182,37.0407879 56.9435758,37.3044848 56.9677576,37.658 C56.9942424,38.0115152 56.7328485,38.3178182 56.3793333,38.3466061 C56.3217576,38.3512121 56.2676364,38.3362424 56.2135152,38.3258788 C56.126,38.5481212 55.9210303,38.7162424 55.667697,38.7346667 C55.3141818,38.7634545 55.0055758,38.4974545 54.9790909,38.1450909 C54.950303,37.7915758 55.2151515,37.4829697 55.5721212,37.4553333 L55.5721212,37.4553333 Z M57.263697,33.8453333 C57.2372121,33.4941212 57.5020606,33.1866667 57.8567273,33.1567273 C58.2113939,33.1302424 58.517697,33.3962424 58.5441818,33.7486061 C58.5706667,34.1032727 58.3081212,34.4118788 57.9546061,34.4383636 C57.5999394,34.463697 57.2924848,34.2 57.263697,33.8453333 L57.263697,33.8453333 Z M52.5850909,34.6133939 C52.6760606,34.5489091 52.7785455,34.4993939 52.898303,34.4913333 C53.2495152,34.4625455 53.5592727,34.7273939 53.5869091,35.0809091 C53.615697,35.4344242 53.3462424,35.7418788 52.9927273,35.7695152 C52.8407273,35.7810303 52.7013939,35.7303636 52.5850909,35.6497576 L52.5850909,34.6133939 L52.5850909,34.6133939 Z M53.3105455,42.139697 C52.9547273,42.1650303 52.6495758,41.8990303 52.6196364,41.5455152 C52.5931515,41.194303 52.8533939,40.8868485 53.2126667,40.8569091 C53.5615758,40.8327273 53.8713333,41.0952727 53.9001212,41.4510909 C53.9266061,41.8034545 53.6606061,42.1120606 53.3105455,42.139697 L53.3105455,42.139697 Z M55.3026667,42.0268485 C54.9514545,42.0544848 54.6428485,41.7919394 54.6129091,41.4372727 C54.608303,41.3854545 54.6244242,41.3382424 54.6313333,41.2887273 C54.5507273,41.3370909 54.4597576,41.3727879 54.3584242,41.3808485 C54.0037576,41.4073333 53.6997576,41.1424848 53.6698182,40.7889697 C53.6387273,40.4331515 53.9058788,40.125697 54.2593939,40.1003636 C54.6152121,40.0738788 54.9203636,40.3364242 54.950303,40.6922424 C54.9537576,40.7440606 54.9399394,40.7912727 54.9307273,40.8407879 C55.0136364,40.7912727 55.1034545,40.7555758 55.2059394,40.7475152 C55.5571515,40.7198788 55.8669091,40.9847273 55.895697,41.3393939 C55.9198788,41.6917576 55.6561818,42.0003636 55.3026667,42.0268485 L55.3026667,42.0268485 Z M57.0011515,40.6104848 C56.6626061,40.6358182 56.3701212,40.3928485 56.3217576,40.0600606 C56.2169697,40.2281818 56.0465455,40.353697 55.8335152,40.3698182 C55.477697,40.3974545 55.1713939,40.1337576 55.1414545,39.7802424 C55.1172727,39.4267273 55.3821212,39.1169697 55.7344848,39.0916364 C56.0764848,39.0651515 56.3678182,39.3104242 56.4150303,39.6420606 C56.5209697,39.4739394 56.6913939,39.3484242 56.9055758,39.3311515 C57.2556364,39.3035152 57.5642424,39.5683636 57.5907273,39.9218788 C57.6149091,40.2753939 57.3535152,40.5851515 57.0011515,40.6104848 L57.0011515,40.6104848 Z M58.5810303,43.0355758 C58.2286667,43.0632121 57.9200606,42.7995152 57.8901212,42.4448485 C57.8636364,42.0890303 58.1284848,41.7838788 58.4831515,41.7573939 C58.8366667,41.7297576 59.1452727,41.992303 59.1752121,42.3458182 C59.1982424,42.7004848 58.935697,43.0102424 58.5810303,43.0355758 L58.5810303,43.0355758 Z M58.8309091,40.6692121 C58.4785455,40.6968485 58.1687879,40.432 58.142303,40.0773333 C58.1158182,39.7261212 58.3829697,39.4175152 58.7353333,39.3898788 C59.0888485,39.3633939 59.3974545,39.6270909 59.4239394,39.9817576 C59.4481212,40.3352727 59.1832727,40.6438788 58.8309091,40.6692121 L58.8309091,40.6692121 Z M60.078,41.0284848 C59.7198788,41.0561212 59.4135758,40.7901212 59.3859394,40.4366061 C59.3606061,40.0830909 59.622,39.7756364 59.9743636,39.7468485 C60.3301818,39.7215152 60.6410909,39.9840606 60.6675758,40.3398788 C60.6917576,40.6933939 60.4292121,41.0008485 60.078,41.0284848 L60.078,41.0284848 Z M60.0135152,33.6265455 C59.9847273,33.2741818 60.2495758,32.9655758 60.607697,32.9379394 C60.9600606,32.9114545 61.2663636,33.1751515 61.2905455,33.5275152 C61.3250909,33.8833333 61.0556364,34.1907879 60.7055758,34.2184242 C60.3497576,34.2449091 60.0411515,33.9800606 60.0135152,33.6265455 L60.0135152,33.6265455 Z M61.7085455,38.3696364 C61.3538788,38.3961212 61.0441212,38.1324242 61.0176364,37.7777576 C60.9888485,37.4242424 61.256,37.1190909 61.6083636,37.090303 C61.9630303,37.0626667 62.2727879,37.3263636 62.2981212,37.6810303 C62.3246061,38.0345455 62.0620606,38.3454545 61.7085455,38.3696364 L61.7085455,38.3696364 Z M62.3165455,35.9952121 C62.2324848,36.0470303 62.1392121,36.0850303 62.0344242,36.0930909 C61.6820606,36.1207273 61.3734545,35.8581818 61.3435152,35.5023636 C61.3193333,35.1488485 61.5841818,34.8413939 61.937697,34.8137576 C61.9572727,34.8126061 61.9745455,34.8206667 61.9941212,34.8206667 C62.0781818,34.7688485 62.170303,34.7308485 62.2750909,34.7216364 C62.6297576,34.6974545 62.9372121,34.96 62.963697,35.3146667 C62.9924848,35.6670303 62.7230303,35.9733333 62.3729697,36.0021212 C62.3522424,36.0032727 62.3361212,35.9952121 62.3165455,35.9952121 L62.3165455,35.9952121 Z M63.0650303,40.2086061 C62.7138182,40.2362424 62.4052121,39.9713939 62.3787273,39.6178788 C62.3476364,39.2643636 62.6113333,38.9569091 62.9671515,38.9292727 C63.3241212,38.9027879 63.6304242,39.1664848 63.6580606,39.5211515 C63.685697,39.8723636 63.4208485,40.1821212 63.0650303,40.2086061 L63.0650303,40.2086061 Z M63.6154545,38.5193333 C63.2619394,38.5446667 62.9544848,38.2821212 62.9291515,37.926303 C62.9003636,37.5727879 63.1652121,37.2676364 63.5187273,37.24 C63.8722424,37.2112121 64.179697,37.4760606 64.2096364,37.8295758 C64.2338182,38.1830909 63.9712727,38.494 63.6154545,38.5193333 L63.6154545,38.5193333 Z M64.7128485,36.5076364 C64.7093939,36.4719394 64.7220606,36.439697 64.7255152,36.4051515 C64.5585455,36.2992121 64.4376364,36.1299394 64.4203636,35.9203636 C64.3938788,35.565697 64.6541212,35.2593939 65.0122424,35.2294545 C65.3657576,35.2029697 65.6755152,35.4666667 65.7031515,35.8213333 C65.7054545,35.8570303 65.6927879,35.8904242 65.6893333,35.9249697 C65.8551515,36.0297576 65.9760606,36.1990303 65.9933333,36.4097576 C66.0186667,36.7621212 65.7549697,37.0707273 65.3991515,37.0995152 C65.0456364,37.123697 64.7427879,36.8611515 64.7128485,36.5076364 L64.7128485,36.5076364 Z M65.780303,39.2321212 C65.4256364,39.2574545 65.1193333,38.9949091 65.0893939,38.6390909 C65.0629091,38.2878788 65.324303,37.9781212 65.6824242,37.9493333 C66.0359394,37.924 66.3433939,38.1888485 66.3687273,38.5423636 C66.3975152,38.8958788 66.1338182,39.2044848 65.780303,39.2321212 L65.780303,39.2321212 Z M66.7441212,33.8533939 C66.3894545,33.8798788 66.079697,33.6150303 66.0532121,33.2615152 C66.0267273,32.9068485 66.2915758,32.6005455 66.6462424,32.5752121 C66.996303,32.5464242 67.3083636,32.8089697 67.333697,33.1624848 C67.3590303,33.518303 67.0976364,33.8269091 66.7441212,33.8533939 L66.7441212,33.8533939 Z M68.098303,35.6912121 C67.7482424,35.717697 67.4396364,35.4551515 67.412,35.1016364 C67.3855152,34.7469697 67.6503636,34.4406667 67.9992727,34.4118788 C68.3585455,34.3853939 68.6648485,34.6490909 68.6947879,35.0026061 C68.7212727,35.3561212 68.4552727,35.6647273 68.098303,35.6912121 L68.098303,35.6912121 Z M69.9902424,37.1432727 L69.1150909,37.62 C68.9043636,37.5278788 68.7454545,37.3344242 68.7247273,37.0914545 C68.7005455,36.7367879 68.9630909,36.4281818 69.3189091,36.401697 C69.6724242,36.3752121 69.9798788,36.6400606 70.0098182,36.9924242 C70.0132727,37.0453939 69.9994545,37.0937576 69.9902424,37.1432727 L69.9902424,37.1432727 Z M70.8147273,34.7147273 C70.4612121,34.7412121 70.1537576,34.4763636 70.1238182,34.1228485 C70.0973333,33.7693333 70.3621818,33.4618788 70.718,33.4319394 C71.0692121,33.4066061 71.3789697,33.6726061 71.404303,34.0249697 C71.4330909,34.3796364 71.1682424,34.6882424 70.8147273,34.7147273 L70.8147273,34.7147273 Z M71.7359394,36.1932727 C71.7347879,36.1840606 71.7290303,36.176 71.7278788,36.1667879 C71.7013939,35.8144242 71.9650909,35.5058182 72.3197576,35.4758788 C72.4924848,35.4632121 72.653697,35.5230909 72.7769091,35.6267273 L71.7359394,36.1932727 L71.7359394,36.1932727 Z M73.7211515,33.3340606 C73.4701212,33.3524848 73.2467273,33.2212121 73.1246667,33.019697 C73.0348485,33.2361818 72.8356364,33.3973939 72.5869091,33.4181212 C72.2310909,33.442303 71.9224848,33.1797576 71.896,32.8273939 C71.8695152,32.4738788 72.1343636,32.1652727 72.4878788,32.1376364 C72.7412121,32.1180606 72.962303,32.2504848 73.0832121,32.4508485 C73.1730303,32.2343636 73.3733939,32.0731515 73.6221212,32.0535758 C73.9779394,32.0270909 74.2807879,32.2896364 74.3107273,32.644303 C74.3360606,32.9989697 74.0689091,33.3052727 73.7211515,33.3340606 L73.7211515,33.3340606 Z M74.4005455,34.7423636 C74.3233939,34.6444848 74.2635152,34.5316364 74.2531515,34.3980606 C74.2266667,34.0445455 74.4915152,33.7370909 74.8450303,33.7094545 C75.1455758,33.6864242 75.3977576,33.8775758 75.4898788,34.1481818 L74.4005455,34.7423636 L74.4005455,34.7423636 Z M76.2544848,33.7324848 C76.1531515,33.6288485 76.0794545,33.4952727 76.0667879,33.3375152 C76.0414545,32.9851515 76.3051515,32.677697 76.6609697,32.6500606 C76.9787879,32.6258788 77.254,32.8481212 77.3219394,33.1521212 L76.2544848,33.7324848 L76.2544848,33.7324848 Z" id="Shape"></path>
                        <path d="M79.9554545,25.6419394 L66.8834545,13.3967273 C66.8327879,13.3495152 66.7740606,13.3126667 66.7118788,13.2850303 L57.038,9.26393939 C57.0287879,9.26048485 57.0184242,9.26163636 57.0103636,9.25818182 C56.9838788,9.2489697 56.9585455,9.2489697 56.9320606,9.24321212 C56.8641212,9.22939394 56.7996364,9.22593939 56.7328485,9.23630303 C56.7167273,9.23975758 56.7017576,9.23054545 56.6856364,9.23515152 L51.8792121,10.3670909 L51.8792121,14.1417576 C51.8792121,14.9547273 51.3575758,15.4026667 50.7138788,15.4026667 C50.0701818,15.4026667 49.5485455,14.9547273 49.5485455,14.1417576 L49.5485455,10.9163636 L45.0737576,11.9711515 L45.0760606,9.11884848 L45.2269091,9.16030303 C45.2787273,9.17412121 45.3293939,9.1810303 45.3800606,9.1810303 C45.5988485,9.1810303 45.8061212,9.05551515 45.9028485,8.84709091 C46.0214545,8.59145455 45.9362424,8.28860606 45.7047879,8.12969697 L37.3125455,2.39975758 C37.2941212,2.38709091 37.2722424,2.39054545 37.2538182,2.38133333 C37.2330909,2.36866667 37.2204242,2.34793939 37.1962424,2.33872727 C37.1582424,2.32260606 37.1190909,2.33181818 37.0776364,2.32490909 C37.0350303,2.318 36.9981818,2.30763636 36.9555758,2.30993939 C36.8864848,2.31454545 36.8277576,2.33527273 36.7644242,2.36406061 C36.7367879,2.37557576 36.7045455,2.3709697 36.6792121,2.38824242 C36.6711515,2.394 36.667697,2.40436364 36.6596364,2.41127273 C36.6504242,2.41818182 36.6366061,2.4170303 36.6285455,2.42509091 L28.3065455,9.044 C28.0877576,9.21787879 28.0255758,9.52533333 28.160303,9.77175758 C28.2639394,9.96060606 28.459697,10.0711515 28.6646667,10.0711515 C28.7268485,10.0711515 28.7890303,10.0607879 28.8512121,10.0400606 L29.5950909,9.78557576 L29.5950909,11.7834545 L28.0393939,11.4184242 C28.0152121,11.4115152 27.9898788,11.4253333 27.965697,11.4218788 C27.9346061,11.4207273 27.9092727,11.3988485 27.8781818,11.4034545 C27.8493939,11.4046061 27.8286667,11.4253333 27.8010303,11.4299394 C27.7469091,11.4414545 27.7008485,11.4552727 27.6513333,11.4817576 C27.6018182,11.5082424 27.5615152,11.5381818 27.5200606,11.5773333 C27.4981818,11.5980606 27.4693939,11.6038182 27.4509697,11.628 C27.4348485,11.6487273 27.4371515,11.6752121 27.4244848,11.6970909 C27.4106667,11.7212727 27.3864848,11.7339394 27.3761212,11.7592727 L25.3805455,16.6117576 L9.95484848,20.2470909 L9.95484848,22.9819394 C9.95484848,23.7949091 9.43436364,24.2428485 8.78951515,24.2428485 C8.1469697,24.2428485 7.62418182,23.7949091 7.62418182,22.9819394 L7.62418182,20.7963636 L6.28727273,21.1107273 C6.15484848,21.1406667 6.03739394,21.2189697 5.95678788,21.3272121 L1.36569697,27.5212121 C1.22290909,27.7123636 1.21369697,27.9726061 1.34151515,28.1729697 C1.44860606,28.3410909 1.63284848,28.4389697 1.82745455,28.4389697 C1.86545455,28.4389697 1.90345455,28.4355152 1.94260606,28.4274545 L54.1350303,17.7909091 L79.3716364,26.6034545 C79.4349697,26.6264848 79.498303,26.635697 79.5616364,26.635697 C79.7585455,26.635697 79.9473939,26.5343636 80.0544848,26.3581818 C80.1949697,26.1267273 80.1535152,25.8284848 79.9554545,25.6419394 L79.9554545,25.6419394 Z M24.1265455,22.6917576 L27.9818182,13.3184242 L28.0762424,13.4911515 L32.1848485,21.0727273 L24.1265455,22.6917576 L24.1265455,22.6917576 Z M36.9774545,15.4798182 L34.5638788,13.0409091 C34.4878788,12.9637576 34.3911515,12.9096364 34.2840606,12.884303 L30.7477576,12.0678788 L30.7477576,9.40557576 L36.9774545,7.26490909 L36.9774545,15.4798182 L36.9774545,15.4798182 Z M43.9210909,12.2486667 L41.1194545,12.9027273 C41.0227273,12.9269091 40.9340606,12.9741212 40.8603636,13.0409091 L38.1289697,15.5638788 L38.1289697,7.21769697 L43.9245455,8.85054545 L43.9210909,12.2486667 L43.9210909,12.2486667 Z" id="Shape"></path>
                        <path d="M50.6908485,14.9869697 C51.0973333,14.9869697 51.4278182,14.6576364 51.4278182,14.25 L51.3184242,7.36509091 L51.2147879,0.771515152 C51.2147879,0.365030303 51.0961818,0.0356969697 50.6908485,0.0356969697 C50.2832121,0.0356969697 50.1657576,0.365030303 50.1657576,0.771515152 L50.0609697,7.40193939 L49.9538788,14.2488485 C49.9550303,14.6576364 50.2832121,14.9869697 50.6908485,14.9869697 L50.6908485,14.9869697 Z" id="Shape"></path>
                        <path d="M51.9609697,5.36375758 C51.9736364,5.35569697 53.4187879,4.46557576 54.6578182,4.47824242 C54.9249697,4.48169697 55.1656364,4.52775758 55.3671515,4.61527273 C55.7298788,4.76727273 55.748303,4.97339394 55.7724848,5.25666667 C55.7943636,5.53993939 55.8289091,5.96715152 56.4196364,6.09957576 C56.4599394,6.10878788 56.5025455,6.11454545 56.546303,6.11454545 C56.8641212,6.118 57.1888485,5.89115152 57.5653939,5.63206061 C58.0455758,5.30157576 58.5879394,4.92387879 59.2109091,4.93193939 C59.4930303,4.93654545 59.7636364,5.016 60.0503636,5.1829697 C60.4050303,5.38793939 60.5604848,5.41442424 60.6445455,5.41557576 C60.7458788,5.41557576 60.8115152,5.3810303 60.8483636,5.35109091 C60.9128485,5.2969697 60.9554545,5.21636364 60.9554545,5.12884848 C60.9623636,4.65442424 59.5425455,3.52478788 58.2401818,3.51212121 C57.8118182,3.50751515 57.4133939,3.61115152 57.0598788,3.82418182 C56.888303,3.92551515 56.7858182,3.94509091 56.7293939,3.94509091 C56.5140606,3.94278788 56.4115758,3.44533333 56.2987273,2.91909091 C56.0787879,1.87812121 55.746,0.304 53.9415758,0.284424242 C53.3554545,0.276363636 52.665697,0.432969697 51.8389091,0.75769697 C51.7721212,0.783030303 51.7237576,0.839454545 51.7041818,0.908545455 C51.6857576,0.976484848 51.6949697,1.05018182 51.7375758,1.10890909 C51.7410303,1.1169697 52.2730303,1.85163636 52.1624848,2.92254545 C52.0473333,4.04412121 51.6316364,5.07127273 51.6293333,5.08048485 C51.5901818,5.17490909 51.6166667,5.28084848 51.6949697,5.34418182 C51.7686667,5.40981818 51.8757576,5.41672727 51.9609697,5.36375758 L51.9609697,5.36375758 Z" id="Shape"></path>
                        <path d="M8.79066667,23.8927879 C9.19945455,23.8927879 9.52878788,23.5646061 9.52878788,23.1569697 L9.40672727,16.2121818 L9.31690909,11.0913939 C9.31690909,10.6837576 9.20060606,10.3555758 8.79181818,10.3555758 C8.38533333,10.3555758 8.26787879,10.6837576 8.26787879,11.0913939 L8.17806061,16.2110303 L8.05715152,23.1569697 C8.05484848,23.5646061 8.38418182,23.8927879 8.79066667,23.8927879 L8.79066667,23.8927879 Z" id="Shape"></path>
                        <path d="M9.80860606,15.7377576 C9.88,15.7838182 9.9709697,15.7711515 10.029697,15.7066667 C10.0412121,15.6974545 11.7604242,14.6046667 12.7714545,14.3881818 C12.9913939,14.3432727 13.1929091,14.3432727 13.3713939,14.3858788 C13.6834545,14.4618788 13.7272121,14.6472727 13.7801818,14.9052121 C13.832,15.162 13.9137576,15.5523636 14.4146667,15.5684848 C14.4480606,15.5684848 14.4860606,15.5661818 14.5206061,15.5569697 C14.784303,15.5028485 15.0169091,15.2322424 15.2967273,14.9213333 C15.6433333,14.5263636 16.0371515,14.0795758 16.5472727,13.9713333 C16.7798788,13.9229697 17.0170909,13.9471515 17.2669697,14.0473333 C17.5836364,14.171697 17.7126061,14.1670909 17.7805455,14.1532727 C17.86,14.1348485 17.9095152,14.0910909 17.9394545,14.0553939 C17.9866667,13.9955152 18.0085455,13.9114545 17.9981818,13.832 C17.9429091,13.3932727 16.641697,12.6067879 15.5753939,12.8313333 C15.2253333,12.9073333 14.9121212,13.0777576 14.6484242,13.340303 C14.5206061,13.4646667 14.4388485,13.5015152 14.3927879,13.5118788 C14.2189091,13.5498788 14.0703636,13.107697 13.9137576,12.6424848 C13.604,11.7155152 13.1318788,10.3198788 11.6556364,10.6342424 C11.1731515,10.7344242 10.6307879,11.0084848 9.99630303,11.4610303 C9.94793939,11.4955758 9.91454545,11.5577576 9.90648485,11.625697 C9.89842424,11.6936364 9.91684848,11.7558182 9.96175758,11.8030303 C9.96406061,11.8099394 10.0515758,12.3960606 10.1010909,13.4070909 C10.1471515,14.4687879 9.72339394,15.4959394 9.72339394,15.5074545 C9.70612121,15.6007273 9.73490909,15.6951515 9.80860606,15.7377576 L9.80860606,15.7377576 Z" id="Shape"></path>
                    </g>
                </g>
            </g>
        </g>
    </g>
</svg>