<?xml version="1.0" encoding="UTF-8" standalone="no"?>
<svg width="113px" height="106px" viewBox="0 0 113 106" version="1.1" xmlns="http://www.w3.org/2000/svg" xmlns:xlink="http://www.w3.org/1999/xlink" xmlns:sketch="http://www.bohemiancoding.com/sketch/ns">
    <!-- Generator: Sketch 3.5.2 (25235) - http://www.bohemiancoding.com/sketch -->
    <title>maris</title>
    <desc>Created with Sketch.</desc>
    <defs></defs>
    <g id="Page-1" stroke="none" stroke-width="1" fill="none" fill-rule="evenodd" sketch:type="MSPage">
        <g id="maris" sketch:type="MSArtboardGroup">
            <g id="grandstand-webicon-2" sketch:type="MSLayerGroup">
                <path d="M1,0 L1,53.6637369 L56.4950205,103.889999 L111.990041,53.6637369 L111.990041,0 L1,0 L1,0 Z" id="Path" fill="#0063A7" sketch:type="MSShapeGroup"></path>
                <g id="Layer_2" fill="#FDF7E7" sketch:type="MSShapeGroup">
                    <path d="M0,0 L0,54.6313333 L56.4956364,105.763212 L112.991273,54.6313333 L112.991273,0 L0,0 L0,0 Z M110.688242,53.6110909 L56.4956364,102.657576 L2.3030303,53.6110909 L2.3030303,2.3030303 L110.688242,2.3030303 L110.688242,53.6110909 L110.688242,53.6110909 Z" id="Shape"></path>
                </g>
            </g>
            <path d="M62.7905,65.7002 C62.6905,65.3982 62.4065,65.1902 62.0865,65.1902 L59.1885,65.1902 L58.2315,62.4322 C58.1265,62.1362 57.8455,61.9342 57.5315,61.9342 L57.5255,61.9342 C57.2085,61.9362 56.9295,62.1412 56.8295,62.4422 L55.9005,65.2412 L52.9745,65.2412 C52.6515,65.2412 52.3655,65.4522 52.2685,65.7592 C52.1715,66.0672 52.2855,66.4032 52.5505,66.5892 L54.9175,68.2482 L54.0495,71.0392 C53.9555,71.3432 54.0645,71.6732 54.3225,71.8602 C54.5815,72.0442 54.9295,72.0482 55.1875,71.8602 L57.5795,70.1432 L59.9205,71.8572 C60.0505,71.9522 60.2045,72.0002 60.3575,72.0002 C60.5105,72.0002 60.6645,71.9522 60.7935,71.8582 C61.0545,71.6692 61.1615,71.3332 61.0605,71.0282 L60.1495,68.2642 L62.5235,66.5282 C62.7825,66.3392 62.8905,66.0052 62.7905,65.7002 L62.7905,65.7002 Z M89.4575,38.9622 C89.3575,38.6602 89.0735,38.4522 88.7535,38.4522 L85.8555,38.4522 L84.8985,35.6942 C84.7935,35.3972 84.5125,35.1962 84.1985,35.1962 L84.1925,35.1962 C83.8755,35.1982 83.5965,35.4032 83.4965,35.7042 L82.5675,38.5032 L79.6415,38.5032 C79.3185,38.5032 79.0325,38.7142 78.9355,39.0202 C78.8385,39.3292 78.9525,39.6662 79.2175,39.8502 L81.5845,41.5092 L80.7165,44.3002 C80.6225,44.6042 80.7315,44.9342 80.9895,45.1232 C81.2485,45.3052 81.5965,45.3092 81.8545,45.1232 L84.2465,43.4052 L86.5875,45.1192 C86.7175,45.2142 86.8715,45.2612 87.0245,45.2612 C87.1775,45.2612 87.3315,45.2142 87.4605,45.1202 C87.7215,44.9302 87.8285,44.5952 87.7275,44.2912 L86.8165,41.5262 L89.1905,39.7912 C89.4495,39.6002 89.5575,39.2662 89.4575,38.9622 L89.4575,38.9622 Z M34.5555,38.9622 C34.4565,38.6602 34.1715,38.4522 33.8515,38.4522 L30.9545,38.4522 L29.9965,35.6942 C29.8925,35.3972 29.6105,35.1962 29.2965,35.1962 L29.2905,35.1962 C28.9745,35.1982 28.6945,35.4032 28.5945,35.7042 L27.6655,38.5032 L24.7395,38.5032 C24.4165,38.5032 24.1305,38.7142 24.0335,39.0202 C23.9365,39.3292 24.0505,39.6662 24.3155,39.8502 L26.6825,41.5092 L25.8145,44.3002 C25.7205,44.6042 25.8305,44.9342 26.0875,45.1232 C26.3465,45.3052 26.6945,45.3092 26.9525,45.1232 L29.3445,43.4052 L31.6865,45.1192 C31.8155,45.2142 31.9695,45.2612 32.1235,45.2612 C32.2755,45.2612 32.4295,45.2142 32.5585,45.1202 C32.8195,44.9302 32.9265,44.5952 32.8255,44.2912 L31.9155,41.5262 L34.2885,39.7912 C34.5475,39.6002 34.6555,39.2662 34.5555,38.9622 L34.5555,38.9622 Z M83.3765,62.8322 L80.3945,65.8152 L80.3455,66.0242 C80.3365,66.0602 80.3175,66.0922 80.3035,66.1252 L82.5895,68.3672 L85.7465,65.1492 L83.3795,62.8282 C83.3775,62.8282 83.3775,62.8302 83.3765,62.8322 L83.3765,62.8322 Z M73.6625,58.8222 L76.1065,61.2192 L77.0085,57.3692 L74.5635,54.9722 L73.6625,58.8222 Z M70.2585,55.4842 L72.7035,57.8812 L73.6045,54.0312 L71.1605,51.6342 L70.2585,55.4842 Z M80.8915,63.6932 L82.1615,62.4242 L81.3705,61.6482 L80.8915,63.6932 Z M48.4065,36.4342 L53.1675,40.2282 L53.3095,40.0632 L56.7495,35.9162 L53.1605,31.5892 L35.0695,13.8462 C34.4005,13.1912 33.5275,12.8682 32.6565,12.8782 C31.7875,12.8862 30.9225,13.2232 30.2655,13.8902 C28.9545,15.2282 28.9755,17.3842 30.3135,18.6972 L48.4065,36.4342 Z M66.8555,52.1462 L69.2995,54.5432 L70.2015,50.6932 L67.7575,48.2962 L66.8555,52.1462 Z M54.0665,40.9442 L54.0985,40.9712 L53.5605,41.6182 L49.8815,45.9322 L52.0845,48.1382 L56.4955,44.5142 L57.5205,43.6972 L57.5575,43.7262 L60.9725,41.0052 L60.9435,40.9712 L66.6365,36.4342 L84.7285,18.6972 C86.0665,17.3842 86.0875,15.2282 84.7765,13.8902 C84.1205,13.2232 83.2545,12.8862 82.3855,12.8782 C81.5135,12.8682 80.6415,13.1912 79.9715,13.8462 L61.8825,31.5892 L57.5205,36.8452 L57.4965,36.8142 L54.1875,40.8022 L54.0665,40.9442 Z M77.9675,58.3102 L77.0655,62.1602 L79.5095,64.5562 L80.4115,60.7092 L77.9675,58.3102 Z M34.6305,60.7092 L35.5325,64.5562 L37.9765,62.1602 L37.0755,58.3102 L34.6305,60.7092 Z M38.0345,57.3692 L38.9355,61.2192 L41.3795,58.8222 L40.4785,54.9712 L38.0345,57.3692 Z M41.4365,54.0312 L42.3385,57.8822 L44.7835,55.4842 L43.8815,51.6342 L41.4365,54.0312 Z M34.6475,65.8142 L31.6655,62.8322 C31.6645,62.8302 31.6635,62.8282 31.6625,62.8272 L29.2955,65.1492 L32.4515,68.3672 L34.7385,66.1252 C34.7245,66.0922 34.7055,66.0602 34.6965,66.0242 L34.6475,65.8142 Z M32.8805,62.4242 L34.1505,63.6932 L33.6715,61.6482 L32.8805,62.4242 Z M44.8395,50.6932 L45.7425,54.5442 L48.1865,52.1462 L47.2845,48.2962 L44.8395,50.6932 Z M61.7095,41.8862 L58.4785,44.4602 L58.5465,44.5142 L62.9575,48.1382 L65.1605,45.9312 L61.7095,41.8862 Z M66.0715,46.6442 L63.6855,49.0372 L65.8965,51.2052 L66.7985,47.3552 L66.0725,46.6422 C66.0715,46.6432 66.0715,46.6442 66.0715,46.6442 L66.0715,46.6442 Z M48.9715,46.6442 L51.3575,49.0372 L49.1455,51.2052 L48.2435,47.3552 L48.9695,46.6422 C48.9705,46.6422 48.9705,46.6442 48.9715,46.6442 L48.9715,46.6442 Z" id="Fill-1" fill="#FDF7E7" sketch:type="MSShapeGroup"></path>
        </g>
    </g>
</svg>