<?xml version="1.0" encoding="UTF-8" standalone="no"?>
<svg width="113px" height="106px" viewBox="0 0 113 106" version="1.1" xmlns="http://www.w3.org/2000/svg" xmlns:xlink="http://www.w3.org/1999/xlink" xmlns:sketch="http://www.bohemiancoding.com/sketch/ns">
    <!-- Generator: Sketch 3.5.2 (25235) - http://www.bohemiancoding.com/sketch -->
    <title>one off</title>
    <desc>Created with Sketch.</desc>
    <defs></defs>
    <g id="Page-1" stroke="none" stroke-width="1" fill="none" fill-rule="evenodd" sketch:type="MSPage">
        <g id="one-off" sketch:type="MSArtboardGroup">
            <path d="M1,53.6637369 L56.4950205,103.889999 L111.990041,53.6637369 L111.990041,0 L1,0 L1,53.6637369 Z" id="Path" fill="#0A213F" sketch:type="MSShapeGroup"></path>
            <g id="Group-2" sketch:type="MSLayerGroup" transform="translate(37.000000, 10.000000)" fill="#FDF7E7">
                <path d="M30.8002778,41.8092293 C29.7397222,41.9667293 28.7788889,41.6350626 26.8755556,40.278396 C24.8911111,38.758396 20.9888889,35.4525626 18.8016667,33.5325626 C19.7283333,31.318396 20.4941667,28.8722849 21.1133333,26.6200626 C26.6113889,25.8856182 30.4211111,23.4117293 32.9708333,20.7864515 C37.0761111,16.6275626 38.8627778,11.345896 38.7475,7.38895153 C38.5902778,1.88172931 35.1355556,-0.454659581 31.6102778,0.072562641 C23.8794444,1.22728486 20.3608333,11.1306182 17.2258333,21.0620071 C13.1308333,20.288396 12.7616667,16.7589515 12.7336111,15.7678404 C12.6194444,11.853396 15.1983333,10.2147849 15.2725,10.1611738 L12.255,5.81367375 C9.46611111,8.09006264 7.44972222,12.0211738 7.57833333,16.4970071 C7.7275,21.7020071 10.5775,25.4228404 15.5175,26.500896 C15.095,27.6461738 14.7097222,28.8270071 14.2858333,29.9267293 C12.5430556,28.8486738 10.7719444,28.203396 8.61166667,28.5264515 C4.06333333,29.205896 2.10083333,33.6920071 2.19194444,36.8320071 C2.27583333,39.7572849 4.24583333,43.3525626 9.36166667,42.5875626 C12.2408333,42.1581182 14.4030556,40.5828404 16.0166667,38.4389515 C19.6847222,41.6081182 21.7191667,43.5506182 24.0130556,45.2386738 C26.3827778,46.9586738 28.545,48.018396 31.045,47.6456182 C33.6619444,47.2536738 36.6869444,45.288396 39.3297222,41.913396 L35.7527778,37.9964515 C33.99,40.2470071 32.3933333,41.5661738 30.8025,41.8042293 L30.8002778,41.8092293 L30.8002778,41.8092293 Z M8.75333333,37.4100626 C7.73111111,37.563396 6.87777778,36.9997849 6.845,35.8795071 C6.81388889,34.8025626 7.50555556,33.7067293 8.64277778,33.5347849 C9.47638889,33.408396 10.5163889,33.8600626 11.8033333,34.9225626 C10.8919444,36.3114515 9.85416667,37.2445071 8.75527778,37.4103404 L8.75333333,37.4103404 L8.75333333,37.4100626 Z M30.7855556,7.02145153 C31.9994444,6.84034042 32.5897222,7.57450709 32.6313889,9.03672931 C32.6747222,10.5425626 31.8547222,13.7778404 29.425,16.6020071 C27.915,18.3428404 25.8294444,19.9064515 22.9205556,20.6439515 C25.5436111,12.5597849 28.17,7.41284042 30.7855556,7.02145153 L30.7855556,7.02145153 Z" id="Fill-3" sketch:type="MSShapeGroup"></path>
                <path d="M4.53972222,58.2742293 C4.53972222,59.580896 3.68416667,60.2497849 2.36194444,60.2497849 C1.05527778,60.2497849 0.199722222,59.580896 0.199722222,58.2742293 L0.199722222,56.6253404 C0.199722222,55.3186738 1.05527778,54.6497849 2.3775,54.6497849 C3.68416667,54.6497849 4.53972222,55.3186738 4.53972222,56.6253404 L4.53972222,58.2742293 L4.53972222,58.2742293 Z M3.33416667,56.6253404 C3.33416667,56.010896 2.95305556,55.6997849 2.3775,55.6997849 C1.78638889,55.6997849 1.40527778,56.010896 1.40527778,56.6253404 L1.40527778,58.2742293 C1.40527778,58.8886738 1.78638889,59.1997849 2.36194444,59.1997849 C2.95305556,59.1997849 3.33416667,58.8886738 3.33416667,58.2742293 L3.33416667,56.6253404 L3.33416667,56.6253404 Z" id="Shape" sketch:type="MSShapeGroup"></path>
                <path d="M7.845,59.1220071 L8.46722222,59.1220071 L8.46722222,60.1720071 L6.01722222,60.1720071 L6.01722222,59.1220071 L6.63944444,59.1220071 L6.63944444,55.7775626 L6.01722222,55.7775626 L6.01722222,54.7278404 L7.7675,54.7278404 L9.77416667,57.9556182 L9.77416667,55.7775626 L9.15194444,55.7775626 L9.15194444,54.7278404 L11.6019444,54.7278404 L11.6019444,55.7775626 L10.9797222,55.7775626 L10.9797222,60.1720071 L9.85194444,60.1720071 L7.845,56.9442293 L7.845,59.1220071 L7.845,59.1220071 Z" id="Shape" sketch:type="MSShapeGroup"></path>
                <path d="M13.3905556,55.7775626 L12.7686111,55.7775626 L12.7686111,54.7278404 L17.1861111,54.7278404 L17.1861111,56.4778404 L15.9805556,56.4778404 L15.9805556,55.7775626 L14.5963889,55.7775626 L14.5963889,56.920896 L16.3305556,56.920896 L16.3305556,57.970896 L14.5963889,57.970896 L14.5963889,59.1220071 L15.9805556,59.1220071 L15.9805556,58.4220071 L17.1861111,58.4220071 L17.1861111,60.1720071 L12.7686111,60.1720071 L12.7686111,59.1220071 L13.3905556,59.1220071 L13.3905556,55.7775626 L13.3905556,55.7775626 Z" id="Shape" sketch:type="MSShapeGroup"></path>
                <path d="M18.3527778,57.6597849 L20.1647222,57.6597849 L20.1647222,58.6320071 L18.3527778,58.6320071 L18.3527778,57.6597849 L18.3527778,57.6597849 Z" id="Shape" sketch:type="MSShapeGroup"></path>
                <path d="M25.905,58.2742293 C25.905,59.580896 25.0494444,60.2497849 23.7272222,60.2497849 C22.4208333,60.2497849 21.5652778,59.580896 21.5652778,58.2742293 L21.5652778,56.6253404 C21.5652778,55.3186738 22.4208333,54.6497849 23.7430556,54.6497849 C25.0494444,54.6497849 25.905,55.3186738 25.905,56.6253404 L25.905,58.2742293 L25.905,58.2742293 Z M24.6994444,56.6253404 C24.6994444,56.010896 24.3186111,55.6997849 23.7430556,55.6997849 C23.1516667,55.6997849 22.7708333,56.010896 22.7708333,56.6253404 L22.7708333,58.2742293 C22.7708333,58.8886738 23.1516667,59.1997849 23.7272222,59.1997849 C24.3186111,59.1997849 24.6994444,58.8886738 24.6994444,58.2742293 L24.6994444,56.6253404 L24.6994444,56.6253404 Z" id="Shape" sketch:type="MSShapeGroup"></path>
                <path d="M30.0661111,60.1720071 L27.3827778,60.1720071 L27.3827778,59.1220071 L28.005,59.1220071 L28.005,55.7775626 L27.3827778,55.7775626 L27.3827778,54.7278404 L31.8005556,54.7278404 L31.8005556,56.4778404 L30.595,56.4778404 L30.595,55.7775626 L29.2105556,55.7775626 L29.2105556,57.0375626 L30.945,57.0375626 L30.945,58.0875626 L29.2105556,58.0875626 L29.2105556,59.1220071 L30.0661111,59.1220071 L30.0661111,60.1720071 L30.0661111,60.1720071 Z" id="Shape" sketch:type="MSShapeGroup"></path>
                <path d="M35.8838889,60.1720071 L33.2005556,60.1720071 L33.2005556,59.1220071 L33.8227778,59.1220071 L33.8227778,55.7775626 L33.2005556,55.7775626 L33.2005556,54.7278404 L37.6183333,54.7278404 L37.6183333,56.4778404 L36.4127778,56.4778404 L36.4127778,55.7775626 L35.0283333,55.7775626 L35.0283333,57.0375626 L36.7627778,57.0375626 L36.7627778,58.0875626 L35.0283333,58.0875626 L35.0283333,59.1220071 L35.8838889,59.1220071 L35.8838889,60.1720071 L35.8838889,60.1720071 Z" id="Shape" sketch:type="MSShapeGroup"></path>
                <path d="M8.61111111,65.1106182 L7.98916667,65.1106182 L7.98916667,64.060896 L10.8980556,64.060896 C11.8547222,64.060896 12.4847222,64.550896 12.4847222,65.5075626 C12.4847222,66.1142293 12.2280556,66.5339515 11.7927778,66.7597849 C12.2747222,66.9775626 12.5625,67.420896 12.5625,68.0586738 C12.5625,69.0153404 11.9325,69.5053404 10.9758333,69.5053404 L7.98916667,69.5053404 L7.98916667,68.4553404 L8.61111111,68.4553404 L8.61111111,65.1106182 L8.61111111,65.1106182 Z M9.81694444,66.2539515 L10.6880556,66.2539515 C11.0769444,66.2539515 11.2402778,66.0517293 11.2402778,65.678396 C11.2402778,65.3050626 11.0691667,65.1106182 10.6880556,65.1106182 L9.81694444,65.1106182 L9.81694444,66.2539515 L9.81694444,66.2539515 Z M9.81694444,68.4550626 L10.7655556,68.4550626 C11.1469444,68.4550626 11.3177778,68.2606182 11.3177778,67.8872849 C11.3177778,67.5139515 11.1544444,67.3039515 10.7655556,67.3039515 L9.81694444,67.3039515 L9.81694444,68.4550626 L9.81694444,68.4550626 Z" id="Shape" sketch:type="MSShapeGroup"></path>
                <path d="M13.9625,64.060896 L16.8247222,64.060896 C17.9527778,64.060896 18.6916667,64.5895071 18.6916667,65.7564515 C18.6916667,66.6042293 18.3027778,67.1253404 17.6569444,67.3431182 L18.3025,68.4553404 L19.0336111,68.4553404 L19.0336111,69.5053404 L17.5244444,69.5053404 L16.3422222,67.4597849 L15.7902778,67.4597849 L15.7902778,68.4553404 L16.4122222,68.4553404 L16.4122222,69.5053404 L13.9625,69.5053404 L13.9625,68.4553404 L14.5844444,68.4553404 L14.5844444,65.1106182 L13.9625,65.1106182 L13.9625,64.060896 L13.9625,64.060896 Z M15.7902778,66.4097849 L16.7858333,66.4097849 C17.1902778,66.4097849 17.4469444,66.2228404 17.4469444,65.7561738 C17.4469444,65.2895071 17.1825,65.1106182 16.7858333,65.1106182 L15.7902778,65.1106182 L15.7902778,66.4097849 L15.7902778,66.4097849 Z" id="Shape" sketch:type="MSShapeGroup"></path>
                <path d="M20.8225,65.1106182 L20.2002778,65.1106182 L20.2002778,64.060896 L24.6180556,64.060896 L24.6180556,65.810896 L23.4125,65.810896 L23.4125,65.1106182 L22.0280556,65.1106182 L22.0280556,66.2539515 L23.7625,66.2539515 L23.7625,67.3039515 L22.0280556,67.3039515 L22.0280556,68.4550626 L23.4125,68.4550626 L23.4125,67.7550626 L24.6180556,67.7550626 L24.6180556,69.5050626 L20.2002778,69.5050626 L20.2002778,68.4550626 L20.8225,68.4550626 L20.8225,65.1106182 L20.8225,65.1106182 Z" id="Shape" sketch:type="MSShapeGroup"></path>
                <path d="M30.8788889,64.060896 L33.1733333,64.060896 L33.1733333,65.1106182 L32.59,65.1106182 L31.5319444,69.5050626 L30.1711111,69.5050626 L29.4091667,66.2695071 L28.6544444,69.5050626 L27.2933333,69.5050626 L26.2277778,65.1106182 L25.7069444,65.1106182 L25.7069444,64.060896 L28.0013889,64.060896 L28.0013889,65.1106182 L27.4258333,65.1106182 L28.0169444,67.9650626 L28.8491667,64.0606182 L30.0158333,64.0606182 L30.8402778,67.9650626 L31.4313889,65.1106182 L30.8791667,65.1106182 L30.8791667,64.060896 L30.8788889,64.060896 Z" id="Shape" sketch:type="MSShapeGroup"></path>
            </g>
            <path d="M0,0 L0,54.6313333 L56.4956364,105.763212 L112.991273,54.6313333 L112.991273,0 L0,0 L0,0 Z M110.688242,53.6110909 L56.4956364,102.657576 L2.3030303,53.6110909 L2.3030303,2.3030303 L110.688242,2.3030303 L110.688242,53.6110909 L110.688242,53.6110909 Z" id="Shape" fill="#FDF7E7" sketch:type="MSShapeGroup"></path>
        </g>
    </g>
</svg>