<?xml version="1.0" encoding="UTF-8" standalone="no"?>
<svg width="113px" height="106px" viewBox="0 0 113 106" version="1.1" xmlns="http://www.w3.org/2000/svg" xmlns:xlink="http://www.w3.org/1999/xlink" xmlns:sketch="http://www.bohemiancoding.com/sketch/ns">
    <!-- Generator: Sketch 3.5.2 (25235) - http://www.bohemiancoding.com/sketch -->
    <title>prospect</title>
    <desc>Created with Sketch.</desc>
    <defs></defs>
    <g id="Page-1" stroke="none" stroke-width="1" fill="none" fill-rule="evenodd" sketch:type="MSPage">
        <g id="prospect" sketch:type="MSArtboardGroup">
            <path d="M0,0 L0,54.6415196 L56.5056983,105.783855 L113.010804,54.6415196 L113.010804,0 L0,0 L0,0 Z" id="BACKGROUND_4_" fill="#FAF4E4" sketch:type="MSShapeGroup"></path>
            <g id="Group" sketch:type="MSLayerGroup" transform="translate(31.977654, 47.966480)">
                <path d="M5.76130726,11.7239553 L3.45595531,13.4211397 L4.54556425,16.6864134 L7.08127374,17.9749944 L7.78478212,18.2989162 L9.81773184,17.3928827 L5.76130726,11.7239553 Z" id="Shape" fill="#F8EFD5" sketch:type="MSShapeGroup"></path>
                <path d="M14.8577654,15.1467486 L16.3796648,12.8005363 L16.4477654,12.836067 L16.5016536,12.7525698 L9.44288268,9.1438324 L9.4227486,9.15922905 L5.78795531,11.755933 L9.81773184,17.3928827 L14.8577654,15.1467486 Z" id="Shape" fill="#FCF7EC" sketch:type="MSShapeGroup"></path>
                <path d="M2.74593296,5.6570838 L2.54932961,7.22517318 L5.76722905,11.7275084 L9.31793296,9.1242905 L2.74593296,5.6570838 Z" id="Shape" fill="#FCF7EC" sketch:type="MSShapeGroup"></path>
                <path d="M2.41549721,8.29346369 L2.25797765,9.49795531 L3.36772067,13.4856872 L5.76722905,11.7275084 L2.54932961,7.22517318 L2.41549721,8.29346369 Z" id="Shape" fill="#F8EFD5" sketch:type="MSShapeGroup"></path>
                <path d="M9.87339665,17.4716425 L9.81773184,17.3928827 L7.78478212,18.2989162 L7.76997765,18.3054302 L11.6505251,20.0949944 L11.7973855,20.1625028 L9.87339665,17.4716425 Z" id="Shape" fill="#F8EFD5" sketch:type="MSShapeGroup"></path>
                <path d="M27.5611844,5.34204469 L24.5055419,0.451832402 L24.4475084,0.357675978 L24.4469162,0.357083799 L24.4001341,0.429921788 L24.3805922,0.458938547 L21.2325698,5.37165363 L18.9876201,8.8732067 L16.5016536,12.7525698 L16.4477654,12.836067 L16.3796648,12.8005363 L14.8577654,15.1467486 L9.81773184,17.3928827 L9.87339665,17.4716425 L11.7973855,20.1625028 L13.8942905,21.1295307 L24.5055419,26.0215196 L24.5055419,11.4201676 L24.5055419,10.8481229 L24.5055419,9.08046927 L24.5055419,8.87083799 L24.5055419,0.657318436 L27.5019665,5.41014525 L29.5224804,8.6138324 L29.5870279,8.58481564 L27.5611844,5.34204469 Z" id="Shape" fill="#FAF4E4" sketch:type="MSShapeGroup"></path>
                <path d="M2.74593296,5.6570838 L9.31793296,9.1242905 L9.33865922,9.10948603 L2.74593296,5.65412291 L2.67191061,5.61503911 L2.67191061,5.618 L0.630670391,4.54141899 L2.54932961,7.22517318 L2.74593296,5.6570838 Z" id="Shape" fill="#FCF7EC" sketch:type="MSShapeGroup"></path>
                <path d="M0.630670391,4.54141899 L0.484994413,4.46443575 L2.31008939,9.62349721 L2.41549721,8.29346369 L2.54932961,7.22517318 L0.630670391,4.54141899 Z" id="Shape" fill="#F8EFD5" sketch:type="MSShapeGroup"></path>
            </g>
            <g id="Group" sketch:type="MSLayerGroup" transform="translate(56.256983, 48.558659)">
                <path d="M23.2092626,4.46384358 L18.4368939,11.1726369 L12.1627598,19.9925475 L12.4671397,19.8510168 L12.6477542,19.7675196 L17.834648,17.3644581 L19.6277654,16.5336313 L19.6668492,16.4027598 L20.0268939,15.2006369 L20.7090838,12.9237095 L20.9992514,11.9560894 L21.8744916,9.03309497 L21.8964022,9.22081564 L23.3590838,4.38626816 L23.2092626,4.46384358 Z" id="Shape" fill="#EDD99D" sketch:type="MSShapeGroup"></path>
                <path d="M21.4498994,5.37402235 L21.4546369,5.41843575 L21.4060782,5.39593296 L19.6313184,6.31381006 L19.593419,6.33335196 L15.1905698,8.67127374 L8.0867933,12.4428603 L5.30769832,7.99263687 L5.24315084,8.02165363 L3.22263687,4.81796648 L0.226212291,0.0651396648 L0.226212291,8.27865922 L0.0337541899,8.33136313 L0.265296089,25.5009944 L0.450055866,25.5009944 L10.8954972,20.5793966 L12.1627598,19.9925475 L18.4368939,11.1726369 L23.2092626,4.46384358 L21.4498994,5.37402235 Z" id="Shape" fill="#F3E4B1" sketch:type="MSShapeGroup"></path>
            </g>
            <path d="M50.5371285,1.20686034 L50.3387486,1.9666257 L50.9569832,1.9666257 L50.5371285,1.20686034 Z" id="Shape" sketch:type="MSShapeGroup"></path>
            <path d="M62.3540559,1.07598883 L62.5820447,1.9666257 L62.619352,1.9666257 L62.2764804,0.595139665 L61.5226369,1.9666257 L62.5820447,1.9666257 L62.3540559,1.07598883 Z" id="Shape" sketch:type="MSShapeGroup"></path>
            <path d="M36.1039553,42.5806145 L35.2287151,49.5766145 L35.271352,49.5955642 L36.1039553,42.5806145 Z" id="Shape" fill="#C4E86B" sketch:type="MSShapeGroup"></path>
            <path d="M43.1248268,35.404 L46.0626257,37.6678994 L43.1793073,35.3051061 L43.1248268,35.404 Z" id="Shape" fill="#C4E86B" sketch:type="MSShapeGroup"></path>
            <path id="Shape" fill="#C4E86B" sketch:type="MSShapeGroup" d="M39.7476313,66.2719106 L38.9541117,65.9065363 L38.9701006,65.9225251 L39.7286816,66.2802011 L39.7476313,66.2719106 Z"></path>
            <path id="Shape" fill="#C4E86B" sketch:type="MSShapeGroup" d="M38.1221006,65.5222123 L38.9701006,65.9225251 L38.9541117,65.9065363 L38.1221006,65.5222123 Z"></path>
            <path id="Shape" fill="#C4E86B" sketch:type="MSShapeGroup" d="M75.9144022,54.8724693 L75.8504022,54.9054693 L75.8504022,54.9054693 L75.9144022,54.8724693 Z"></path>
            <path d="M71.8828045,39.0222123 L72.0278883,38.8546257 L70.8636648,34.3055084 L70.7292402,34.4085475 L71.8828045,39.0222123 Z" id="Shape" fill="#C4E86B" sketch:type="MSShapeGroup"></path>
            <path d="M50.3405251,22.3511955 L52.5067151,18.3516201 L50.2972961,22.3683687 L51.3424916,23.8097318 L50.3405251,22.3511955 Z" id="Shape" fill="#C4E86B" sketch:type="MSShapeGroup"></path>
            <path d="M52.0004022,29.6284804 L52.0146145,29.6018324 L48.4123911,25.7941229 L48.4041006,25.807743 L52.0004022,29.6284804 Z" id="Shape" fill="#C4E86B" sketch:type="MSShapeGroup"></path>
            <path d="M70.7162123,34.354067 L70.7292402,34.4085475 L70.8636648,34.3055084 L67.7559106,22.1699888 L67.7026145,22.2256536 L70.725095,34.3469609 L70.7162123,34.354067 Z" id="Shape" fill="#C4E86B" sketch:type="MSShapeGroup"></path>
            <path d="M43.1793073,35.3051061 L42.0097542,34.3469609 L44.5590838,24.1218101 L41.8688156,34.4357877 L43.1248268,35.404 L43.1793073,35.3051061 Z" id="Shape" fill="#C4E86B" sketch:type="MSShapeGroup"></path>
            <path d="M48.4123911,25.7941229 L45.0505922,22.2398659 L45.0494078,22.243419 L48.4041006,25.807743 L48.4123911,25.7941229 Z" id="Shape" fill="#C4E86B" sketch:type="MSShapeGroup"></path>
            <path d="M67.6878101,22.2416425 L67.7026145,22.2256536 L67.7026145,22.2256536 L67.7559106,22.1699888 L66.4596313,17.1062682 L66.4181788,17.1613408 L67.6878101,22.2416425 Z" id="Shape" fill="#C4E86B" sketch:type="MSShapeGroup"></path>
            <path d="M77.2562346,60.5147486 L77.2876201,60.6408827 L78.1533855,57.7794749 L78.1314749,57.5917542 L77.2562346,60.5147486 Z" id="Shape" fill="#C4E86B" sketch:type="MSShapeGroup"></path>
            <path d="M56.5838659,74.0347821 L56.4831955,73.988 L56.4831955,74.1763128 L56.5850503,74.2242793 L67.1672849,69.1546369 L67.1524804,69.1380559 L56.5838659,74.0347821 Z" id="Shape" fill="#C4E86B" sketch:type="MSShapeGroup"></path>
            <path id="Shape" fill="#C4E86B" sketch:type="MSShapeGroup" d="M57.256581,74.5405028 L56.5850503,74.2242793 L56.531162,74.2503352 L57.256581,74.5405028 Z"></path>
            <path id="Shape" fill="#C4E86B" sketch:type="MSShapeGroup" d="M56.4831955,74.2579128 L56.4908939,74.2539128 L56.531162,74.2763128 L56.5850503,74.2411128 L56.4831955,74.1763128 L56.4831955,74.2579128 Z"></path>
            <path d="M75.4933184,34.8781453 L74.4125922,36.1264581 L75.4945028,34.8882123 L75.4933184,34.8781453 Z" id="Shape" fill="#C4E86B" sketch:type="MSShapeGroup"></path>
            <path id="Shape" fill="#C4E86B" sketch:type="MSShapeGroup" d="M76.966067,61.4823687 L77.0199553,61.5244134 L77.2876201,60.6408827 L77.2562346,60.5147486 L76.966067,61.4823687 Z"></path>
            <path d="M76.966067,61.4823687 L76.2838771,63.7592961 L76.3691508,63.6757989 L77.0199553,61.5244134 L76.966067,61.4823687 Z" id="Shape" fill="#C4E86B" sketch:type="MSShapeGroup"></path>
            <path d="M67.1524804,69.1380559 L67.1672849,69.1546369 L68.7241229,68.409676 L67.1524804,69.1380559 Z" id="Shape" fill="#C4E86B" sketch:type="MSShapeGroup"></path>
            <path d="M60.7261564,29.6367709 L64.2158659,25.9297318 L64.2046145,25.9095978 L60.704838,29.5965028 L60.7261564,29.6367709 Z" id="Shape" fill="#C4E86B" sketch:type="MSShapeGroup"></path>
            <path d="M53.1894972,53.3132626 L50.9178994,56.8177765 L50.9652737,56.8396872 L53.2102235,53.3381341 L53.1894972,53.3132626 Z" id="Shape" fill="#C4E86B" sketch:type="MSShapeGroup"></path>
            <path d="M66.2156536,53.1983799 L67.2691397,54.0096648 L67.2981564,53.9972291 L66.2156536,53.1983799 Z" id="Shape" fill="#C4E86B" sketch:type="MSShapeGroup"></path>
            <path d="M69.4519106,35.3933408 L70.7292402,34.4085475 L70.7162123,34.354067 L69.4394749,35.3702458 L69.4519106,35.3933408 Z" id="Shape" fill="#C4E86B" sketch:type="MSShapeGroup"></path>
            <path d="M67.6629385,22.2676983 L64.2046145,25.9095978 L64.2158659,25.9297318 L67.6629385,22.2676983 Z" id="Shape" fill="#C4E86B" sketch:type="MSShapeGroup"></path>
            <path d="M55.8726592,31.4837765 L54.9630726,32.7190615 L54.9672179,32.7237989 L55.8726592,31.4837765 Z" id="Shape" fill="#C4E86B" sketch:type="MSShapeGroup"></path>
            <path d="M57.7771061,32.6799777 L56.4044358,30.7867821 L56.3955531,30.7986257 L57.7729609,32.6847151 L57.7771061,32.6799777 Z" id="Shape" fill="#C4E86B" sketch:type="MSShapeGroup"></path>
            <path d="M54.9672179,32.7237989 L54.9630726,32.7190615 L49.4161341,40.2527598 L49.452257,40.28 L54.9672179,32.7237989 Z" id="Shape" fill="#C4E86B" sketch:type="MSShapeGroup"></path>
            <path d="M66.4596313,17.1062682 L64.1536872,8.10574302 L66.4181788,17.1613408 L66.4596313,17.1062682 Z" id="Shape" fill="#C4E86B" sketch:type="MSShapeGroup"></path>
            <path d="M46.7714637,52.870905 L50.360067,50.1060223 L50.3132849,50.0545028 L46.7714637,52.870905 Z" id="Shape" fill="#C4E86B" sketch:type="MSShapeGroup"></path>
            <path d="M50.9652737,56.8396872 L50.9178994,56.8177765 L48.3573184,60.7670168 L48.425419,60.8025475 L50.9652737,56.8396872 Z" id="Shape" fill="#C4E86B" sketch:type="MSShapeGroup"></path>
            <path d="M45.8227933,69.151676 L56.4831955,74.1763128 L56.4831955,73.988 L45.8719441,69.0960112 L45.8227933,69.151676 Z" id="Shape" fill="#C4E86B" sketch:type="MSShapeGroup"></path>
            <path d="M39.7476313,66.2719106 L39.7286816,66.2802011 L43.6003464,68.1047039 L43.6281788,68.0614749 L39.7476313,66.2719106 Z" id="Shape" fill="#C4E86B" sketch:type="MSShapeGroup"></path>
            <path d="M43.6281788,68.0614749 L43.6003464,68.1047039 L45.8227933,69.151676 L45.8719441,69.0960112 L43.6281788,68.0614749 Z" id="Shape" fill="#C4E86B" sketch:type="MSShapeGroup"></path>
            <path d="M75.8504022,54.8920112 L71.3989944,57.1926257 L71.4475531,57.229933 L75.8504022,54.8920112 L75.8504022,54.8920112 Z" id="Shape" fill="#C4E86B" sketch:type="MSShapeGroup"></path>
            <path d="M57.7771061,32.6799777 L57.7729609,32.6847151 L59.1112849,34.5186927 L57.7771061,32.6799777 Z" id="Shape" fill="#C4E86B" sketch:type="MSShapeGroup"></path>
            <path d="M53.2102235,53.3381341 L56.3582458,48.425419 L56.3582458,48.425419 L53.1894972,53.3132626 L53.2102235,53.3381341 Z" id="Shape" fill="#C4E86B" sketch:type="MSShapeGroup"></path>
            <path id="Shape" fill="#C4E86B" sketch:type="MSShapeGroup" d="M56.3912458,48.3964022 L56.3582458,48.4454022 L56.3582458,48.4454022 L56.3912458,48.3964022 Z"></path>
            <path d="M69.4519106,35.3933408 L69.4394749,35.3702458 L68.1698436,36.3822793 L69.4519106,35.3933408 Z" id="Shape" fill="#C4E86B" sketch:type="MSShapeGroup"></path>
            <path id="Shape" fill="#C4E86B" sketch:type="MSShapeGroup" d="M76.2838771,63.7592961 L75.9238324,64.961419 L75.9889721,64.9300335 L76.3691508,63.6757989 L76.2838771,63.7592961 Z"></path>
            <path id="Shape" fill="#C4E86B" sketch:type="MSShapeGroup" d="M63.8741788,6.98534078 L63.8688492,6.99422346 L64.1536872,8.10574302 L63.8741788,6.98534078 Z"></path>
            <path d="M63.8688492,6.99422346 L63.8741788,6.98534078 L62.619352,1.9666257 L62.5820447,1.9666257 L63.8688492,6.99422346 Z" id="Shape" fill="#C4E86B" sketch:type="MSShapeGroup"></path>
            <path d="M58.9401453,16.3944693 L56.2546145,11.5397877 L56.2173073,11.6084804 L58.9365922,16.4009832 L58.9401453,16.3944693 Z" id="Shape" fill="#C4E86B" sketch:type="MSShapeGroup"></path>
            <path id="Shape" fill="#C4E86B" sketch:type="MSShapeGroup" d="M59.2255754,16.910257 L58.9401453,16.3944693 L58.9365922,16.4009832 L59.2255754,16.910257 Z"></path>
            <g id="Group" sketch:type="MSLayerGroup" transform="translate(1.776536, 1.776536)" fill="#58A766">
                <path d="M71.5582905,14.5178547 L70.7025922,7.15351955 L64.683095,15.3297318 L65.9793743,20.3934525 L71.5582905,14.5178547 Z" id="Shape" sketch:type="MSShapeGroup"></path>
                <path d="M67.1282011,66.5496425 L66.9475866,66.6331397 L65.3907486,67.3781006 L54.808514,72.447743 L55.4800447,72.7639665 L57.4466704,73.5515642 L57.4472626,73.6907263 L60.9653966,75.349419 L67.0903017,69.3038659 L72.315095,64.146581 L67.1282011,66.5496425 Z" id="Shape" sketch:type="MSShapeGroup"></path>
                <path d="M51.4129609,51.5367263 L54.5817095,46.6488827 L53.3665587,44.721933 L50.8770391,46.64 L50.8486145,46.583743 L48.5835307,48.329486 L44.9949274,51.0943687 L43.3782793,52.380581 L49.1413631,55.0412402 L51.4129609,51.5367263 Z" id="Shape" sketch:type="MSShapeGroup"></path>
                <path d="M62.0692179,39.2282905 L62.0573743,39.2507933 L64.9128603,43.1881899 L66.3607374,41.5324581 L63.7474525,36.7121229 L63.7113296,36.7411397 L63.6846816,36.6919888 L61.4657877,38.4022011 L62.0692179,39.2282905 Z" id="Shape" sketch:type="MSShapeGroup"></path>
                <path d="M62.4280782,24.1330615 L60.6781899,20.9708268 L57.4934525,25.1510168 L57.4869385,25.1598994 L58.9283017,27.8199665 L62.4280782,24.1330615 Z" id="Shape" sketch:type="MSShapeGroup"></path>
                <path d="M53.1865363,30.9425251 L50.2380782,27.8252961 L50.2238659,27.8519441 L50.2451844,27.8744469 L45.5267039,36.8477318 L47.6395978,38.4762235 L53.1865363,30.9425251 Z" id="Shape" sketch:type="MSShapeGroup"></path>
                <path d="M54.4105698,9.7798324 L54.4407709,9.83194413 L54.4780782,9.7632514 L49.1804469,0.190089385 L48.5622123,0.190089385 L47.0651844,5.93126257 L51.7818883,14.6339218 L54.4105698,9.7798324 Z" id="Shape" sketch:type="MSShapeGroup"></path>
                <path d="M16.8889385,14.7790056 L0.322145251,2.01163128 L0.322145251,27.2745698 L10.0427598,36.9951844 L15.9011844,42.8530168 L30.6861117,50.6543799 L28.7550168,45.6315196 L16.8889385,14.7790056 Z" id="Shape" sketch:type="MSShapeGroup"></path>
                <path d="M51.9340782,78.8865028 L48.5118771,75.4643017 L39.8631061,79.5823128 L43.6625251,92.4302235 L54.6172402,81.6146704 L51.9340782,78.9528268 L51.9340782,78.8865028 Z" id="Shape" sketch:type="MSShapeGroup"></path>
            </g>
            <g id="Group" sketch:type="MSLayerGroup" transform="translate(1.776536, 1.776536)" fill="#00994B">
                <path d="M48.5207598,20.5918324 L46.6358547,24.0175866 L50.2380782,27.8252961 L51.6693743,25.0959441 L49.5659553,22.0331955 L48.5207598,20.5918324 Z" id="Shape" sketch:type="MSShapeGroup"></path>
                <path d="M61.6925922,39.9347598 L58.1484022,46.573676 L58.1401117,46.5896648 L54.5538771,43.8070168 L53.3665587,44.721933 L54.5817095,46.6488827 L54.6012514,46.6198659 L54.6480335,46.5470279 L54.6486257,46.5476201 L54.7066592,46.6417765 L57.7623017,51.5319888 L60.4229609,48.4579888 L60.353676,48.4058771 L60.4223687,48.3265251 L64.9128603,43.1881899 L62.0573743,39.2507933 L61.6925922,39.9347598 Z" id="Shape" sketch:type="MSShapeGroup"></path>
                <path d="M74.0738659,53.1154749 L74.1117654,53.095933 L75.8829721,52.1555531 L75.8865251,52.1780559 L75.9303464,52.1561453 L75.4358771,47.9025251 L73.2696872,48.8606704 L73.0357765,48.9637095 L65.5761006,52.2609609 L65.5216201,52.2206927 L65.4926034,52.2331285 L69.6224581,55.4160894 L74.0738659,53.1154749 Z" id="Shape" sketch:type="MSShapeGroup"></path>
                <path d="M56.0005698,30.9034413 L58.9283017,27.8199665 L57.4869385,25.1598994 L54.6278994,29.0102458 L56.0005698,30.9034413 Z" id="Shape" sketch:type="MSShapeGroup"></path>
                <path d="M42.9015754,41.8155196 L44.1421899,43.2260894 L47.6395978,38.4762235 L45.5267039,36.8477318 L45.5047933,36.8903687 L45.490581,36.8785251 L42.9015754,41.8155196 Z" id="Shape" sketch:type="MSShapeGroup"></path>
                <path d="M48.5622123,0.190089385 L43.9532849,0.190089385 L47.0651844,5.93126257 L48.5622123,0.190089385 Z" id="Shape" sketch:type="MSShapeGroup"></path>
                <path d="M57.4703575,78.7982682 L60.9653966,75.349419 L57.4472626,73.6907263 L57.4703575,78.7982682 Z" id="Shape" sketch:type="MSShapeGroup"></path>
                <path d="M64.7298771,0.190089385 L60.8428156,0.190089385 L62.0976425,5.20880447 L64.7298771,0.190089385 Z" id="Shape" sketch:type="MSShapeGroup"></path>
                <path d="M59.7461006,0.190089385 L49.1804469,0.190089385 L54.4780782,9.7632514 L59.7461006,0.190089385 Z" id="Shape" sketch:type="MSShapeGroup"></path>
                <path d="M76.3294749,62.139095 L74.2124358,63.1534972 L71.0075642,73.7434302 L69.3281453,79.2903687 L76.2607821,82.5580112 L77.6642458,81.2889721 L79.1571285,79.9370279 L80.4794637,78.7402346 L109.136771,52.8028045 L109.136771,46.4244469 L77.0495642,61.7950391 L76.3294749,62.139095 Z" id="Shape" sketch:type="MSShapeGroup"></path>
                <path d="M87.8597877,18.0620447 L79.3916313,46.0401229 L77.8395307,51.1683911 L93.8413855,42.8986145 L99.9277989,36.8909609 L109.136771,27.7998324 L109.136771,1.6652067 L87.8597877,18.0620447 Z" id="Shape" sketch:type="MSShapeGroup"></path>
                <path d="M75.8302682,0.190089385 L69.893676,0.190089385 L70.7025922,7.15351955 L75.8302682,0.190089385 Z" id="Shape" sketch:type="MSShapeGroup"></path>
                <path d="M93.2693408,0.190089385 L85.1624134,0.190089385 L71.5582905,14.5178547 L73.2750168,29.3015978 L84.4837765,20.6640782 L87.8597877,18.0620447 L88.4644022,16.0664022 L93.2693408,0.190089385 Z" id="Shape" sketch:type="MSShapeGroup"></path>
                <path d="M64.6416425,15.3848045 L62.3771508,6.3292067 L62.0923128,5.21768715 L57.1636089,14.617933 L57.4490391,15.1337207 L60.6604246,20.792581 L64.6416425,15.3848045 Z" id="Shape" sketch:type="MSShapeGroup"></path>
                <path d="M32.8730279,51.8049832 L32.9470503,51.844067 L33.4521788,47.8000782 L34.327419,40.8040782 L35.2304916,33.1969497 L35.2423352,33.1016089 L35.2843799,33.1495754 L38.8931173,37.2551508 L40.0922793,32.6592514 L35.7628603,29.3235084 L23.4200782,19.811933 L16.8889385,14.7790056 L28.7550168,45.6315196 L30.6861117,50.6543799 L32.8730279,51.8079441 L32.8730279,51.8049832 Z" id="Shape" sketch:type="MSShapeGroup"></path>
                <path d="M11.2780447,0.190089385 L6.10654749,0.190089385 L0.322145251,0.190089385 L0.322145251,2.01163128 L16.8889385,14.7790056 L15.2734749,10.5786816 L11.2780447,0.190089385 Z" id="Shape" sketch:type="MSShapeGroup"></path>
                <path d="M0.322145251,27.2745698 L0.322145251,32.5082458 L0.322145251,34.6329832 L15.9011844,42.8530168 L10.0427598,36.9951844 L0.322145251,27.2745698 Z" id="Shape" sketch:type="MSShapeGroup"></path>
                <path d="M43.2740559,20.4633296 L44.6366592,15.2385363 L38.5686034,6.87460335 L37.6175642,14.4841006 L43.2740559,20.4633296 Z" id="Shape" sketch:type="MSShapeGroup"></path>
                <path d="M39.4047598,0.190089385 L33.7186592,0.190089385 L38.5686034,6.87460335 L39.4047598,0.190089385 Z" id="Shape" sketch:type="MSShapeGroup"></path>
                <path d="M48.5118771,75.4643017 L42.3656536,69.3180782 L37.1935642,64.1459888 L36.3455642,63.745676 L34.6714749,62.9841341 L38.4081229,75.4086369 L38.4584581,75.3304693 L39.8530391,79.6024469 L48.5118771,75.4643017 Z" id="Shape" sketch:type="MSShapeGroup"></path>
                <path d="M33.5629162,59.6371397 L32.442514,55.8756201 L30.6861117,50.6543799 L15.9011844,42.8530168 L32.051676,59.0041006 L34.3990726,61.8696536 L33.5629162,59.6371397 Z" id="Shape" sketch:type="MSShapeGroup"></path>
            </g>
            <g id="Group" sketch:type="MSLayerGroup" transform="translate(1.776536, 1.776536)">
                <path d="M35.8392514,48.9631173 L33.485933,47.8817989 L33.4948156,47.8190279 L33.4521788,47.8000782 L32.9470503,51.844067 L39.5397765,55.2994302 L43.3078101,52.3953855 L38.8866034,50.3636201 L38.5105698,50.1907039 L35.8392514,48.9631173 Z" id="Shape" fill="#82B787" sketch:type="MSShapeGroup"></path>
                <path d="M41.8238101,66.3281676 L37.9521453,64.5036648 L37.1935642,64.1459888 L42.3656536,69.3180782 L48.5118771,75.4643017 L51.9103911,73.8358101 L51.9097989,73.6415754 L54.7066592,72.4601788 L54.7066592,72.3997765 L44.046257,67.3751397 L41.8238101,66.3281676 Z" id="Shape" fill="#82B787" sketch:type="MSShapeGroup"></path>
                <path d="M65.9793743,20.3934525 L69.0871285,32.5289721 L73.2750168,29.3015978 L71.5582905,14.5178547 L65.9793743,20.3934525 Z" id="Shape" fill="#82B787" sketch:type="MSShapeGroup"></path>
                <path d="M54.0961229,29.7072402 L54.4188603,29.2654749 L51.6735196,25.1018659 L51.6693743,25.0959441 L50.2380782,27.8252961 L53.1865363,30.9425251 L54.0961229,29.7072402 Z" id="Shape" fill="#82B787" sketch:type="MSShapeGroup"></path>
                <path d="M39.7784246,79.6764693 L38.1132179,74.1988156 L38.0611061,74.2592179 L34.5601453,62.8733966 L31.7307151,61.5711955 L0.322145251,46.769095 L0.322145251,52.8028045 L29.5224804,79.2311508 L31.9119218,81.3931955 L33.3722346,82.7155307 L43.873933,92.22 L39.733419,79.6977877 L39.7784246,79.6764693 Z" id="Shape" fill="#00783E" sketch:type="MSShapeGroup"></path>
                <path d="M99.9277989,36.8909609 L93.8413855,42.8986145 L109.136771,34.9930279 L109.136771,32.7877542 L109.136771,27.7998324 L99.9277989,36.8909609 Z" id="Shape" fill="#82B787" sketch:type="MSShapeGroup"></path>
                <path d="M38.5686034,6.87460335 L33.7186592,0.190089385 L24.0957542,0.190089385 L37.6175642,14.4841006 L38.5686034,6.87460335 Z" id="Shape" fill="#82B787" sketch:type="MSShapeGroup"></path>
            </g>
            <g id="Group" sketch:type="MSLayerGroup" transform="translate(13.027933, 1.776536)" fill="#00783E">
                <path d="M76.6083911,18.0620447 L73.2323799,20.6640782 L62.0236201,29.3015978 L57.8357318,32.5289721 L58.9999553,37.0780894 L61.3846592,34.3499218 L62.4653855,33.1016089 L62.4665698,33.111676 L62.4754525,33.1016089 L64.2188268,47.7876425 L64.2300782,47.8817989 L64.1844804,47.9025251 L64.6789497,52.1561453 L66.5881341,51.1683911 L68.1402346,46.0401229 L76.6083911,18.0620447 Z" id="Shape" sketch:type="MSShapeGroup"></path>
                <path d="M37.2604804,75.4643017 L40.6826816,78.8865028 L40.6589944,73.8358101 L37.2604804,75.4643017 Z" id="Shape" sketch:type="MSShapeGroup"></path>
                <path d="M37.285352,48.2779665 L37.3321341,48.329486 L39.5972179,46.583743 L35.8949162,39.2282905 L36.424324,38.5034637 L36.3882011,38.4762235 L32.8907933,43.2260894 L37.3125922,48.256648 L37.285352,48.2779665 Z" id="Shape" sketch:type="MSShapeGroup"></path>
                <path d="M54.2412067,52.2331285 L53.1877207,51.4218436 L49.1715642,48.4579888 L46.510905,51.5319888 L48.5367486,54.7747598 L51.3158436,59.2249832 L58.4196201,55.4533966 L58.3710615,55.4160894 L54.2412067,52.2331285 Z" id="Shape" sketch:type="MSShapeGroup"></path>
                <path d="M32.1268827,52.380581 L32.0889832,52.4101899 L32.0564134,52.3953855 L28.2883799,55.2994302 L35.3293855,58.9904804 L37.8899665,55.0412402 L32.1268827,52.380581 Z" id="Shape" sketch:type="MSShapeGroup"></path>
                <path d="M50.8409162,5.21768715 L49.5541117,0.190089385 L48.4947039,0.190089385 L43.2266816,9.7632514 L45.9122123,14.617933 L50.8409162,5.21768715 Z" id="Shape" sketch:type="MSShapeGroup"></path>
                <path d="M73.9110168,0.190089385 L64.5788715,0.190089385 L59.4511955,7.15351955 L60.3068939,14.5178547 L73.9110168,0.190089385 Z" id="Shape" sketch:type="MSShapeGroup"></path>
                <path d="M46.2189609,78.7982682 L46.2195531,78.9528268 L43.4854637,81.6886927 L43.4629609,81.7111955 L43.4552626,81.7040894 L43.4552626,102.025296 L43.4783575,102.04543 L54.0990838,92.4331844 L58.0767486,79.2903687 L49.714,75.349419 L46.2189609,78.7982682 Z" id="Shape" sketch:type="MSShapeGroup"></path>
                <path d="M66.5881341,51.1683911 L65.1254525,56.0029385 L64.2596872,58.8643464 L63.9920223,59.7478771 L63.3412179,61.8992626 L64.6860559,60.5710056 L65.5565587,59.7117542 L82.5899888,42.8986145 L66.5881341,51.1683911 Z" id="Shape" sketch:type="MSShapeGroup"></path>
                <path d="M39.4787821,16.5750838 L40.5304916,14.6339218 L35.8137877,5.93126257 L33.3852626,15.2385363 L37.2693631,20.5918324 L39.4787821,16.5750838 Z" id="Shape" sketch:type="MSShapeGroup"></path>
                <path d="M31.5311508,22.3452737 L32.0043017,20.4491173 L32.0214749,20.4668827 L32.0226592,20.4633296 L26.3661676,14.4841006 L12.8443575,0.190089385 L0.0266480447,0.190089385 L4.02207821,10.5786816 L5.6375419,14.7790056 L12.1686816,19.811933 L24.5114637,29.3235084 L28.8408827,32.6592514 L31.5311508,22.3452737 Z" id="Shape" sketch:type="MSShapeGroup"></path>
            </g>
            <g id="Group" sketch:type="MSLayerGroup" transform="translate(1.776536, 1.776536)" fill="#045E31">
                <path d="M60.6781899,20.9708268 L62.4280782,24.1330615 L65.8864022,20.491162 L65.9112737,20.4651061 L64.6416425,15.3848045 L60.6604246,20.792581 L60.7255642,20.908648 L60.6781899,20.9708268 Z" id="Shape" sketch:type="MSShapeGroup"></path>
                <path d="M44.2860894,35.8913631 L41.3482905,33.6274637 L40.0922793,32.6592514 L38.8931173,37.2551508 L42.9015754,41.8155196 L45.490581,36.8785251 L44.2860894,35.8913631 Z" id="Shape" sketch:type="MSShapeGroup"></path>
                <path d="M66.3933073,34.605743 L63.7474525,36.7121229 L66.3607374,41.5324581 L70.1062682,37.245676 L68.9527039,32.6320112 L67.6753743,33.6168045 L66.3933073,34.605743 Z" id="Shape" sketch:type="MSShapeGroup"></path>
                <path d="M63.6846816,36.6919888 L58.9365922,27.8744469 L58.9496201,27.8602346 L58.9283017,27.8199665 L56.0005698,30.9034413 L57.3347486,32.7421564 L61.4657877,38.4022011 L63.6846816,36.6919888 Z" id="Shape" sketch:type="MSShapeGroup"></path>
                <path d="M74.1082123,63.3157542 L72.315095,64.146581 L67.0903017,69.3038659 L60.9653966,75.349419 L69.3281453,79.2903687 L71.0075642,73.7434302 L74.2124358,63.1534972 L74.1472961,63.1848827 L74.1082123,63.3157542 Z" id="Shape" sketch:type="MSShapeGroup"></path>
                <path d="M102.207687,0.190089385 L93.2693408,0.190089385 L88.4644022,16.0664022 L87.8597877,18.0620447 L109.136771,1.6652067 L109.136771,0.190089385 L102.207687,0.190089385 Z" id="Shape" sketch:type="MSShapeGroup"></path>
                <path d="M76.2607821,82.5580112 L69.3281453,79.2903687 L65.3504804,92.4331844 L76.2607821,82.5580112 Z" id="Shape" sketch:type="MSShapeGroup"></path>
                <path d="M45.9027374,90.2184358 L43.873933,92.22 L48.1666369,96.1052849 L54.7066592,102.025296 L54.7066592,81.7040894 L54.6172402,81.6146704 L45.9027374,90.2184358 Z" id="Shape" sketch:type="MSShapeGroup"></path>
                <path d="M64.683095,15.3297318 L70.7025922,7.15351955 L69.893676,0.190089385 L64.7298771,0.190089385 L62.0976425,5.20880447 L62.3771508,6.3292067 L64.683095,15.3297318 Z" id="Shape" sketch:type="MSShapeGroup"></path>
                <path d="M76.8079553,59.7117542 L75.9374525,60.5710056 L74.5926145,61.8992626 L74.2124358,63.1534972 L76.3294749,62.139095 L77.0495642,61.7950391 L109.136771,46.4244469 L109.136771,34.9930279 L93.8413855,42.8986145 L76.8079553,59.7117542 Z" id="Shape" sketch:type="MSShapeGroup"></path>
                <path d="M46.6358547,24.0175866 L48.5207598,20.5918324 L44.6366592,15.2385363 L43.2740559,20.4633296 L46.6358547,24.0175866 Z" id="Shape" sketch:type="MSShapeGroup"></path>
                <path d="M47.0651844,5.93126257 L43.9532849,0.190089385 L39.4047598,0.190089385 L38.5686034,6.87460335 L44.6366592,15.2385363 L47.0651844,5.93126257 Z" id="Shape" sketch:type="MSShapeGroup"></path>
                <path d="M32.051676,59.0041006 L15.9011844,42.8530168 L0.322145251,34.6329832 L0.322145251,46.769095 L31.7307151,61.5711955 L34.3493296,62.6880447 L33.9075642,60.833933 L32.051676,59.0041006 Z" id="Shape" sketch:type="MSShapeGroup"></path>
            </g>
            <path d="M63.2269274,40.190581 L59.1112849,34.5186927 L57.7729609,32.6847151 L56.3487709,34.1841117 L62.5358547,40.7235419 L56.2818547,45.5432849 L59.9249385,48.3502123 L63.4691285,41.7112961 L63.8339106,41.0273296 L63.2269274,40.190581 Z" id="Shape" fill="#EDD99D" sketch:type="MSShapeGroup"></path>
            <path d="M57.256581,74.5405028 L56.8355419,74.2550726 L56.5826816,74.332648 L56.4073966,83.3462011 L59.2468939,80.5748045 L59.2237989,75.4672626 L57.256581,74.5405028 Z" id="Shape" fill="#EDD99D" sketch:type="MSShapeGroup"></path>
            <g id="Group" sketch:type="MSLayerGroup" transform="translate(34.938547, 21.910615)">
                <path d="M40.9497542,32.9618547 L42.724514,32.0439777 L42.7209609,32.0214749 L40.9497542,32.9618547 Z" id="Shape" fill="#FAF4E4" sketch:type="MSShapeGroup"></path>
                <path d="M17.7150279,26.5059218 L20.2045475,24.5878547 L21.3918659,23.6729385 L21.3433073,23.6326704 L15.1532626,18.8632626 L21.4102235,12.2734972 L20.0286704,10.8131844 L14.5137095,18.3693855 L13.9843017,19.0942123 L17.6866034,26.4496648 L17.7150279,26.5059218 Z" id="Shape" fill="#FAF4E4" sketch:type="MSShapeGroup"></path>
                <path d="M28.8953631,19.1167151 L28.9072067,19.0942123 L28.3037765,18.2681229 L24.1727374,12.6080782 L28.2883799,18.2799665 L28.8953631,19.1167151 Z" id="Shape" fill="#FAF4E4" sketch:type="MSShapeGroup"></path>
                <path d="M17.0618547,7.71786592 L12.3504804,16.7024022 L11.1240782,15.7572849 L12.3285698,16.7444469 L12.3427821,16.7562905 L12.3646927,16.7136536 L17.0831732,7.74036872 L17.0618547,7.71786592 Z" id="Shape" fill="#FAF4E4" sketch:type="MSShapeGroup"></path>
                <path d="M35.7776648,12.4434525 L35.7865475,12.4363464 L32.764067,0.315039106 L32.7492626,0.331027933 L32.7243911,0.357083799 L32.7492626,0.331620112 L35.7776648,12.4434525 Z" id="Shape" fill="#FAF4E4" sketch:type="MSShapeGroup"></path>
                <path d="M5.7127486,17.1927263 L9.71528492,21.7282235 L10.9517542,23.131095 L15.3747374,28.1438883 L15.4019777,28.1225698 L10.9801788,23.0920112 L9.73956425,21.6814413 L5.73110615,17.1210726 L2.12236872,13.0154972 L2.08032402,12.9675307 L2.06848045,13.0628715 L1.16540782,20.67 L2.10993296,13.1102458 L5.7127486,17.1927263 Z" id="Shape" fill="#FAF4E4" sketch:type="MSShapeGroup"></path>
                <path d="M5.34855866,30.0566257 L5.72459218,30.2295419 L10.1457989,32.2613073 L10.1783687,32.2761117 L10.2162682,32.2465028 L11.8329162,30.9602905 L10.1836983,32.2322905 L5.75538547,30.1886816 L5.37224581,30.0110279 L2.69145251,28.7739665 L0.332804469,27.6849497 L0.323921788,27.7477207 L2.67724022,28.8290391 L5.34855866,30.0566257 Z" id="Shape" fill="#FAF4E4" sketch:type="MSShapeGroup"></path>
                <path d="M21.544648,61.3929497 L21.6441341,52.4611173 L21.5926145,52.3397207 L21.5523464,52.3231397 L21.544648,52.3261006 L18.7477877,53.5074972 L18.7483799,53.7017318 L18.772067,58.7524246 L18.772067,58.8187486 L21.4552291,61.4805922 L21.544648,61.5700112 L21.5523464,61.5771173 L21.5748492,61.5546145 L24.3089385,58.8187486 L24.3083464,58.6641899 L21.544648,61.3929497 Z" id="Shape" fill="#F6EBC7" sketch:type="MSShapeGroup"></path>
                <path d="M22.3180335,52.6298883 L24.2852514,53.556648 L24.2846592,53.417486 L22.3180335,52.6298883 Z" id="Shape" fill="#FAF4E4" sketch:type="MSShapeGroup"></path>
            </g>
            <path d="M61.4782235,56.7105922 L59.4583017,53.5063128 L56.3102793,48.6155084 L56.2711955,56.9279218 L57.5822793,58.4462682 L59.9450726,61.1241006 L67.131162,69.2683352 L68.7022123,68.5399553 L68.8816425,68.4540894 L66.031486,63.9339888 L61.4782235,56.7105922 Z" id="Shape" fill="#EDD99D" sketch:type="MSShapeGroup"></path>
            <path d="M51.2465587,56.5104358 L53.2664804,53.3067486 L56.262905,48.5539218 L56.262905,56.7674413 L56.262905,56.9770726 L55.1425028,58.2461117 L52.7791173,60.9239441 L45.5936201,69.0681788 L44.0219777,68.3397989 L43.4374972,68.0472626 L51.2465587,56.5104358 Z" id="Shape" fill="#F8EFD5" sketch:type="MSShapeGroup"></path>
            <g id="Group" sketch:type="MSLayerGroup" transform="translate(61.586592, 34.346369)">
                <path d="M13.2049944,16.3115642 L13.4377207,16.207933 L15.6145698,15.2379441 L13.9085028,0.547765363 L10.9807709,7.41526257 L13.2049944,16.3115642 Z" id="Shape" fill="#EDD99D" sketch:type="MSShapeGroup"></path>
                <path d="M10.3015419,4.69656983 L10.9807709,7.41526257 L13.9085028,0.547765363 L13.9079106,0.541843575 L12.826,1.78008939 L10.4472179,4.52839106 L10.3015419,4.69656983 Z" id="Shape" fill="#F3E4B1" sketch:type="MSShapeGroup"></path>
                <path d="M8.6612067,12.8579777 L11.0530168,17.2703017 L13.2049944,16.3115642 L10.9807709,7.41526257 L8.6612067,12.8579777 Z" id="Shape" fill="#F3E4B1" sketch:type="MSShapeGroup"></path>
                <path d="M10.3015419,4.69656983 L6.57259218,9.00348603 L8.6612067,12.8579777 L10.9807709,7.41526257 L10.3015419,4.69656983 Z" id="Shape" fill="#FAF4E4" sketch:type="MSShapeGroup"></path>
                <path id="Shape" fill="#FAF4E4" sketch:type="MSShapeGroup" d="M13.9179106,0.535329609 L13.9079106,0.546329609 L13.9089106,0.556329609 L13.9179106,0.535329609 Z"></path>
                <path d="M6.57259218,9.00348603 L6.55068156,8.9626257 L5.10280447,10.6183575 L0.612312849,15.7566927 L0.543620112,15.8360447 L0.612905028,15.8881564 L4.62906145,18.8520112 L5.71156425,19.6508603 L5.75301676,19.6810615 L8.6612067,12.8579777 L6.57259218,9.00348603 Z" id="Shape" fill="#FAF4E4" sketch:type="MSShapeGroup"></path>
                <path d="M15.6601676,15.2178101 L13.9167933,0.531776536 L13.9138324,0.535329609 L13.9085028,0.547765363 L15.6145698,15.2379441 L13.4377207,16.207933 L13.2049944,16.3115642 L11.0530168,17.2703017 L8.6612067,12.8579777 L5.75301676,19.6810615 L5.76604469,19.6911285 L13.2257207,16.3938771 L13.4596313,16.290838 L15.6258212,15.3326927 L15.671419,15.3119665 L15.6601676,15.2178101 Z" id="Shape" fill="#F5E9C0" sketch:type="MSShapeGroup"></path>
            </g>
            <g id="Group" sketch:type="MSLayerGroup" transform="translate(34.938547, 34.938547)">
                <path d="M5.05128492,6.69991061 L2.69145251,15.7460335 L5.37224581,16.983095 L7.59173184,12.7507933 L5.05128492,6.69991061 Z" id="Shape" fill="#F3E4B1" sketch:type="MSShapeGroup"></path>
                <path d="M7.59173184,12.7507933 L9.71528492,8.7002905 L5.7127486,4.1647933 L5.05128492,6.69991061 L7.59173184,12.7507933 Z" id="Shape" fill="#F9F2DC" sketch:type="MSShapeGroup"></path>
                <path d="M2.42141899,0.434067039 L2.10993296,0.0823128492 L1.16540782,7.64206704 L0.332804469,14.6570168 L2.69145251,15.7460335 L5.05128492,6.69991061 L2.42141899,0.434067039 Z" id="Shape" fill="#F6EBC7" sketch:type="MSShapeGroup"></path>
                <path d="M5.7127486,4.1647933 L2.42141899,0.434067039 L5.05128492,6.69991061 L5.7127486,4.1647933 Z" id="Shape" fill="#FCF7EC" sketch:type="MSShapeGroup"></path>
                <path d="M5.37224581,16.983095 L5.75538547,17.1607486 L10.1836983,19.2043575 L10.271933,19.136257 L7.59173184,12.7507933 L5.37224581,16.983095 Z" id="Shape" fill="#F3E4B1" sketch:type="MSShapeGroup"></path>
                <path d="M15.3747374,15.1159553 L10.9517542,10.103162 L9.71528492,8.7002905 L7.59173184,12.7507933 L10.271933,19.136257 L11.8329162,17.9323575 L15.3747374,15.1159553 Z" id="Shape" fill="#F9F2DC" sketch:type="MSShapeGroup"></path>
            </g>
            <g id="Group" sketch:type="MSLayerGroup" transform="translate(50.335196, 11.251397)">
                <path d="M8.90992179,15.6518771 L12.0555754,11.3793073 L8.89037989,5.65886034 L8.60139665,5.14958659 L5.95435754,10.1985028 L8.90992179,15.6518771 Z" id="Shape" fill="#EDD99D" sketch:type="MSShapeGroup"></path>
                <path d="M5.90224581,10.2968045 L5.96501676,19.3920782 L5.97389944,19.6810615 L8.90992179,15.6518771 L5.95435754,10.1985028 L5.90224581,10.2968045 Z" id="Shape" fill="#F3E4B1" sketch:type="MSShapeGroup"></path>
                <path d="M3.1243352,15.6098324 L5.86316201,19.7829162 L6.07575419,19.5241341 L5.9833743,19.3849721 L5.90224581,10.2968045 L3.1243352,15.6098324 Z" id="Shape" fill="#F8EFD5" sketch:type="MSShapeGroup"></path>
                <path d="M3.23151955,5.17386592 L5.90106145,10.1007933 L5.83473743,0.442357542 L3.23151955,5.17386592 Z" id="Shape" fill="#F8EFD5" sketch:type="MSShapeGroup"></path>
                <path d="M5.90106145,10.1007933 L5.95435754,10.1985028 L8.60139665,5.14958659 L5.88211173,0.357083799 L5.83473743,0.442357542 L5.90106145,10.1007933 Z" id="Shape" fill="#F3E4B1" sketch:type="MSShapeGroup"></path>
                <path d="M12.1017654,11.3177207 L8.89037989,5.65886034 L12.0555754,11.3793073 L8.90992179,15.6518771 L6.05976536,19.5229497 L5.96501676,19.3920782 L5.9667933,19.6733631 L6.06035754,19.5472291 L6.06924022,19.5353855 L8.92827933,15.6850391 L8.9347933,15.6761564 L12.1195307,11.4959665 L12.166905,11.4337877 L12.1017654,11.3177207 Z" id="Shape" fill="#FAF4E4" sketch:type="MSShapeGroup"></path>
                <path id="Shape" fill="#FAF4E4" sketch:type="MSShapeGroup" d="M5.90106145,10.1007933 L5.90306145,10.2968045 L5.99106145,10.1985028 L5.90106145,10.1007933 Z"></path>
                <path id="Shape" fill="#FAF4E4" sketch:type="MSShapeGroup" d="M5.91514525,0.357083799 L5.86414525,0.304972067 L5.83414525,0.338134078 L5.83514525,0.442357542 L5.91514525,0.357083799 Z"></path>
                <path d="M3.1604581,15.5263352 L5.90224581,10.2968045 L5.90106145,10.1007933 L3.23151955,5.17386592 L5.83473743,0.442357542 L5.83414525,0.338134078 L3.22322905,5.15906145 L2.17151955,7.10022346 L0.00532960894,11.0997989 L1.00729609,12.5583352 L3.11071508,15.6210838 L3.11486034,15.6270056 L3.1604581,15.5263352 Z" id="Shape" fill="#FAF4E4" sketch:type="MSShapeGroup"></path>
            </g>
            <g id="Group" sketch:type="MSLayerGroup" transform="translate(41.452514, 21.910615)">
                <path d="M6.95158659,3.89712849 L3.71059218,0.454201117 L4.6947933,7.99974302 L5.82940782,16.6964804 L5.83651397,16.7024022 L10.5478883,7.71786592 L6.95158659,3.89712849 Z" id="Shape" fill="#FAF4E4" sketch:type="MSShapeGroup"></path>
                <path d="M4.6947933,7.99974302 L3.71059218,0.454201117 L3.59689385,0.332804469 L3.57972067,0.315039106 L3.10656983,2.21119553 L0.557240223,12.4363464 L1.7267933,13.3944916 L4.61011173,15.7572849 L5.82940782,16.6964804 L4.6947933,7.99974302 Z" id="Shape" fill="#F7EDCE" sketch:type="MSShapeGroup"></path>
            </g>
            <g id="Group" sketch:type="MSLayerGroup" transform="translate(60.402235, 21.910615)">
                <path d="M7.21510615,0.405642458 L3.81363128,4.01911732 L6.16517318,8.26918436 L7.21510615,0.405642458 Z" id="Shape" fill="#F3E4B1" sketch:type="MSShapeGroup"></path>
                <path d="M7.28557542,0.331620112 L7.26070391,0.357083799 L7.21510615,0.405642458 L6.16517318,8.26918436 L5.05839106,16.5573184 L5.05898324,16.5579106 L5.08563128,16.6070615 L5.12175419,16.5780447 L7.76760894,14.4716648 L9.03724022,13.4596313 L10.3139777,12.4434525 L7.28557542,0.331620112 Z" id="Shape" fill="#EDD99D" sketch:type="MSShapeGroup"></path>
                <path d="M3.81363128,4.01911732 L0.323921788,7.72615642 L0.310893855,7.74036872 L5.05839106,16.5573184 L6.16517318,8.26918436 L3.81363128,4.01911732 Z" id="Shape" fill="#F8EFD5" sketch:type="MSShapeGroup"></path>
            </g>
            <g id="Group" sketch:type="MSLayerGroup" transform="translate(49.743017, 30.793296)">
                <path id="Shape" sketch:type="MSShapeGroup" d="M6.60516201,3.39022346 L6.60516201,3.39222346 L6.60616201,3.39122346 L6.60516201,3.39022346 Z"></path>
                <path d="M0.348793296,9.98058101 L6.53883799,14.7499888 L6.56607821,14.7286704 L6.60516201,3.39140782 L0.348793296,9.98058101 Z" id="Shape" fill="#F8EFD5" sketch:type="MSShapeGroup"></path>
                <path d="M6.60575419,3.39081564 L6.60516201,3.39140782 L6.56607821,14.7286704 L12.792838,9.93024581 L6.60575419,3.39081564 Z" id="Shape" fill="#F3E4B1" sketch:type="MSShapeGroup"></path>
                <path d="M6.46126257,0.262927374 L6.45297207,0.251083799 L6.12964246,0.690480447 L5.22420112,1.93050279 L6.60516201,3.39022346 L6.61700559,0.0538882682 L6.46126257,0.262927374 Z" id="Shape" fill="#F8EFD5" sketch:type="MSShapeGroup"></path>
                <path d="M8.02994413,1.89141899 L7.96717318,1.80436872 L6.65253631,0.00532960894 L6.61700559,0.0538882682 L6.60516201,3.39022346 L6.60575419,3.39081564 L8.02994413,1.89141899 Z" id="Shape" fill="#F3E4B1" sketch:type="MSShapeGroup"></path>
            </g>
            <path d="M62.6542905,22.6484693 L64.252581,25.5377095 L67.4444246,22.1765028 L66.3181006,17.6729832 L62.6542905,22.6484693 Z" id="Shape" sketch:type="MSShapeGroup"></path>
            <path d="M51.9702011,29.2317207 L53.178838,26.9311061 L50.2659106,22.8841564 L48.6847933,25.7591844 L51.9702011,29.2317207 Z" id="Shape" sketch:type="MSShapeGroup"></path>
            <path d="M60.976648,29.6326257 L65.5695866,38.1061117 L70.4811173,34.3214972 L67.571743,22.6869609 L60.976648,29.6326257 Z" id="Shape" sketch:type="MSShapeGroup"></path>
            <path d="M60.754581,29.2222458 L63.9316201,25.8752514 L62.3641229,23.0422682 L59.5080447,26.9216313 L60.754581,29.2222458 Z" id="Shape" sketch:type="MSShapeGroup"></path>
            <path d="M66.4087039,44.9576201 L63.8611508,41.4833073 L60.2026704,48.2838883 L62.2131173,49.8336201 L66.4087039,44.9576201 Z" id="Shape" sketch:type="MSShapeGroup"></path>
            <path d="M68.1716201,42.9080894 L71.6246145,38.8960782 L70.5983687,34.791095 L65.7833631,38.5016872 L68.1716201,42.9080894 Z" id="Shape" sketch:type="MSShapeGroup"></path>
            <path d="M41.0071955,38.7942235 L44.6994302,43.0738994 L47.0089274,38.6763799 L42.0932514,34.8882123 L41.0824022,38.8131732 L41.0071955,38.7942235 Z" id="Shape" sketch:type="MSShapeGroup"></path>
            <path d="M45.0719106,53.9007039 L50.1066145,50.0213408 L37.2587039,35.1298212 L35.4715084,49.4273855 L45.0719106,53.9007039 Z" id="Shape" sketch:type="MSShapeGroup"></path>
            <path d="M41.2730838,56.8278436 L44.675743,54.205676 L35.4134749,49.8904693 L34.9628268,53.4980223 L41.2730838,56.8278436 Z" id="Shape" sketch:type="MSShapeGroup"></path>
            <path d="M37.3333184,34.5352737 L40.7152514,38.4560894 L41.7107039,34.5933073 L37.7117207,31.5116089 L37.3333184,34.5352737 Z" id="Shape" sketch:type="MSShapeGroup"></path>
            <path d="M48.2613855,60.5082346 L50.5673296,56.9510168 L45.129352,54.417676 L41.7047821,57.0558324 L48.2542793,60.5117877 L48.2613855,60.5082346 Z" id="Shape" sketch:type="MSShapeGroup"></path>
            <path d="M52.2787263,48.3478436 L48.8642235,41.3778994 L46.2728492,44.8966257 L50.4589609,49.7501229 L52.2787263,48.3478436 Z" id="Shape" sketch:type="MSShapeGroup"></path>
            <path d="M45.3520112,22.2357207 L48.3638324,25.4204581 L49.9787039,22.4850279 L46.523933,17.6836425 L45.3520112,22.2357207 Z" id="Shape" sketch:type="MSShapeGroup"></path>
            <path d="M47.2185587,38.2778436 L51.7516872,29.6474302 L48.203352,25.8965698 L45.2211397,22.7438101 L42.2134637,34.4209832 L47.2185587,38.2778436 Z" id="Shape" sketch:type="MSShapeGroup"></path>
            <path d="M56.3073184,30.5185251 L62.1278436,22.6141229 L56.2552067,12.0005028 L50.5033743,22.4536425 L56.3073184,30.5185251 Z" id="Shape" sketch:type="MSShapeGroup"></path>
            <path d="M56.2398101,45.3099665 C56.3250838,45.2975307 56.4222011,45.3389832 56.471352,45.4088603 L59.8461788,48.0097095 L63.5703911,41.0871397 L56.3404804,31.2244022 L55.0986816,32.9109274 L49.160905,40.9740335 L52.6381788,48.0707039 L56.0692626,45.4266257 C56.1024246,45.3632626 56.1657877,45.318257 56.2398101,45.3099665 L56.2398101,45.3099665 Z" id="Shape" sketch:type="MSShapeGroup"></path>
            <path d="M75.3174413,35.2849721 L62.5648715,50.1042458 L67.4136313,53.841486 L76.9832402,49.6316872 L75.3174413,35.2849721 Z" id="Shape" sketch:type="MSShapeGroup"></path>
            <path d="M79.4301229,52.7915531 L89.2223911,20.4390503 L75.2872402,31.1776201 L77.8898659,53.5880335 L79.4301229,52.7915531 Z" id="Shape" sketch:type="MSShapeGroup"></path>
            <path d="M94.4234972,45.5421006 L79.8008268,53.1000782 L76.8340112,62.9053743 L94.4234972,45.5421006 Z" id="Shape" sketch:type="MSShapeGroup"></path>
            <path d="M58.0122011,32.7545922 L63.2482458,39.8950838 L65.213095,38.3808827 L60.655095,29.971352 L58.0122011,32.7545922 Z" id="Shape" sketch:type="MSShapeGroup"></path>
            <path d="M54.9417542,32.3738212 L56.0313631,30.8945587 L53.4690056,27.3337877 L52.2929385,29.5728156 L54.9417542,32.3738212 Z" id="Shape" sketch:type="MSShapeGroup"></path>
            <path d="M45.9743911,44.5513855 L49.1093855,40.2948045 L47.3666034,38.9523352 L45.0115084,43.4357207 L45.9743911,44.5513855 Z" id="Shape" sketch:type="MSShapeGroup"></path>
            <path d="M49.372905,39.9365363 L54.6740894,32.7368268 L52.0744246,29.9891173 L47.5756425,38.5532067 L49.372905,39.9365363 Z" id="Shape" sketch:type="MSShapeGroup"></path>
            <path d="M65.4268715,38.7758659 L63.510581,40.253352 L66.7059777,44.6117877 L67.8619106,43.2687263 L65.4268715,38.7758659 Z" id="Shape" sketch:type="MSShapeGroup"></path>
            <path d="M57.7463128,32.3904022 L60.4330279,29.5609721 L59.2166927,27.3172067 L56.6158436,30.8495531 L57.7463128,32.3904022 Z" id="Shape" sketch:type="MSShapeGroup"></path>
            <path d="M70.9821006,34.4950056 L71.9787374,38.4839218 L75.2475642,34.685095 L74.8762682,31.4938436 L70.9821006,34.4950056 Z" id="Shape" sketch:type="MSShapeGroup"></path>
            <path d="M59.1012179,75.6555754 L56.5856425,74.4700335 L53.742,75.8320447 L53.742,80.3793855 L56.4180559,83.0560335 L59.1012179,80.4084022 L59.1012179,75.6555754 Z" id="Shape" sketch:type="MSShapeGroup"></path>
            <path d="M40.0301006,66.667486 L50.3346034,76.9719888 L56.067486,74.2260559 L40.0301006,66.667486 Z" id="Shape" sketch:type="MSShapeGroup"></path>
            <path d="M44.8605028,22.3630391 L39.5557654,16.7551061 L37.7750838,31.0005587 L41.8309162,34.1260782 L44.8605028,22.3630391 Z" id="Shape" sketch:type="MSShapeGroup"></path>
            <path d="M19.0776313,45.619676 L35.1250838,61.5812626 L32.3382905,52.6168603 L19.0776313,45.619676 Z" id="Shape" sketch:type="MSShapeGroup"></path>
            <path d="M37.3031173,31.197162 L19.1854078,17.2359553 L32.720838,52.3160335 L34.5429721,53.2771397 L37.3031173,31.197162 Z" id="Shape" sketch:type="MSShapeGroup"></path>
            <path d="M59.545352,75.8652067 L59.545352,79.9701899 L62.3599777,77.1916872 L59.545352,75.8652067 Z" id="Shape" sketch:type="MSShapeGroup"></path>
            <path d="M74.1443352,65.5672179 L75.8048045,64.7719218 L79.2512849,53.3849162 L71.3865587,57.4496313 L71.2847039,57.2524358 L71.3859665,57.4502235 L64.4207598,61.0246145 C64.4029944,61.0358659 64.3840447,61.0441564 64.3639106,61.0500782 C64.3431844,61.056 64.3230503,61.0589609 64.302324,61.0589609 C64.2170503,61.0589609 64.1371061,61.0115866 64.0997989,60.9316425 L56.3268603,48.8831732 L48.5296425,60.8659106 L48.2637542,61.0192849 L32.8949385,52.910581 L35.7989832,62.2516089 L35.8143799,62.2670056 L35.8060894,62.2752961 L36.5018994,64.514324 L56.5838659,73.977933 L74.1443352,65.5672179 L74.1443352,65.5672179 Z" id="Shape" sketch:type="MSShapeGroup"></path>
            <path d="M63.1244804,77.0614078 L70.9661117,80.7566034 L75.6301117,65.3475196 L74.3894972,65.9414749 L63.1244804,77.0614078 Z" id="Shape" sketch:type="MSShapeGroup"></path>
            <path d="M56.7325028,83.3704804 L67.0524022,93.6903799 L70.8370168,81.1871173 L62.7875307,77.3930279 L56.7325028,83.3704804 Z" id="Shape" sketch:type="MSShapeGroup"></path>
            <path d="M53.2978659,76.0446369 L50.6674078,77.3047933 L53.2978659,79.9352514 L53.2978659,76.0446369 Z" id="Shape" sketch:type="MSShapeGroup"></path>
            <path d="M38.8895642,66.1303799 L36.6807374,65.0893296 L41.6651061,81.1243464 L49.909419,77.1756983 L38.8771285,66.1428156 L38.8895642,66.1303799 Z" id="Shape" sketch:type="MSShapeGroup"></path>
            <path d="M57.1020223,74.2225028 L62.6969274,76.8594749 L73.1613184,66.5295084 L57.1020223,74.2225028 Z" id="Shape" sketch:type="MSShapeGroup"></path>
            <path d="M56.0005698,11.5403799 L50.6141117,1.80436872 L49.0933966,7.70779888 L53.5678994,15.9627709 L56.0005698,11.5403799 Z" id="Shape" sketch:type="MSShapeGroup"></path>
            <path d="M73.1021006,16.2174078 L72.3233855,9.51572067 L66.6597877,17.2087151 L67.8062458,21.7951397 L73.1021006,16.2174078 Z" id="Shape" sketch:type="MSShapeGroup"></path>
            <path d="M70.986838,57.1553184 L62.2752961,50.4417877 L59.7520223,53.3736648 L64.3798994,60.5461341 L70.986838,57.1553184 Z" id="Shape" sketch:type="MSShapeGroup"></path>
            <path d="M70.864257,34.0254078 L74.8164581,30.9792402 L73.1690168,16.7912291 L67.9341564,22.3050056 L70.864257,34.0254078 Z" id="Shape" sketch:type="MSShapeGroup"></path>
            <path d="M77.0365363,50.0918101 L67.8145363,54.1500112 L71.4226816,56.9308827 L77.4682346,53.8065475 L77.0365363,50.0918101 Z" id="Shape" sketch:type="MSShapeGroup"></path>
            <path d="M46.1863911,17.2140447 L40.4884469,9.2972067 L39.627419,16.1842458 L44.9913743,21.8543575 L46.1863911,17.2140447 Z" id="Shape" sketch:type="MSShapeGroup"></path>
            <path d="M54.9932737,46.8164693 L50.7497207,50.0864804 L53.1865363,52.9111732 L56.0627486,48.4733855 L54.9932737,46.8164693 Z" id="Shape" sketch:type="MSShapeGroup"></path>
            <path d="M61.9229497,50.1705698 L56.2824469,45.8233855 L55.3462123,46.5446592 L59.5015307,52.9846034 L61.9229497,50.1705698 Z" id="Shape" sketch:type="MSShapeGroup"></path>
            <path d="M50.3967821,50.3582905 L45.5255196,54.1121117 L50.8113073,56.5743911 L52.9348603,53.2996425 L50.3967821,50.3582905 Z" id="Shape" sketch:type="MSShapeGroup"></path>
            <path d="M59.1503687,16.3157095 L62.417419,22.220324 L66.1777542,17.1133743 L63.8001564,7.6041676 L59.214324,16.3488715 L59.1503687,16.3157095 Z" id="Shape" sketch:type="MSShapeGroup"></path>
            <path d="M53.3132626,16.4252626 L48.9311397,8.33906145 L46.6684246,17.1246257 L50.2161676,22.054514 L53.3132626,16.4252626 Z" id="Shape" sketch:type="MSShapeGroup"></path>
            <path d="M63.6378994,6.95632402 L62.1983128,1.19738547 L56.5074749,11.5397877 L58.9348156,15.926648 L63.6378994,6.95632402 Z" id="Shape" sketch:type="MSShapeGroup"></path>
            <path d="M111.545754,48.1447263 L111.353888,47.7444134 L76.3472402,64.5119553 L76.6006927,63.6740223 L76.6427374,63.7166592 L95.7505698,44.8557654 L112.348156,36.2768715 L112.143855,35.8824804 L96.8135307,43.8064246 L112.200704,28.6182235 L111.888626,28.3025922 L95.4864581,44.4927598 L79.980257,52.5078994 L89.8270056,19.9724134 L111.782626,3.05268156 L111.511408,2.70092737 L90.0478883,19.2416648 L95.5314637,1.12395531 L95.1062793,0.995452514 L89.4432737,19.7083017 L75.226838,30.6636089 L73.5669609,16.3725587 L88.0777095,1.08901676 L87.7561564,0.783452514 L73.5006369,15.7975531 L72.7100782,8.99223464 L77.903486,1.9387933 L77.5458101,1.67527374 L72.6348715,8.34498324 L71.7975307,1.1352067 L71.3563575,1.18613408 L72.2487709,8.87024581 L66.5200335,16.6508827 L64.1104581,7.01435754 L67.0997765,1.31345251 L66.7065698,1.1073743 L63.9487933,6.36651397 L62.4588715,0.408011173 L62.1112626,0.494469274 L62.0869832,0.481441341 L62.0745475,0.503944134 L62.0277654,0.515787709 L62.0402011,0.566122905 L56.2540223,11.0826257 L50.7751844,1.17784358 L50.8296648,0.967027933 L50.6301006,0.91550838 L50.4104022,0.518748603 L50.021933,0.733709497 L50.3008492,1.23824581 L48.7825028,7.13338547 L45.4414302,0.969988827 L45.0511844,1.18139665 L48.6196536,7.76524022 L46.3302905,16.6550279 L40.5689832,8.64995531 L41.545486,0.83852514 L41.104905,0.782860335 L40.1876201,8.11995531 L34.5382346,0.270625698 L34.1781899,0.53 L40.1064916,8.76779888 L39.2312514,15.7661676 L25.4305251,1.17665922 L25.1077877,1.48163128 L39.1607821,16.3376201 L37.3670726,30.6861117 L18.878067,16.4382905 L12.8171173,0.729564246 L12.4031844,0.889452514 L18.2012067,15.916581 L0.856882682,2.55169832 L0.585664804,2.90345251 L18.5085475,16.7142458 L32.1233296,51.9998101 L18.0016425,44.5490168 L1.0517095,27.6902793 L0.738446927,28.0047263 L16.6609497,43.8419553 L0.728972067,35.4359777 L0.521709497,35.8291844 L17.7369385,44.9126145 L35.4069609,62.4878883 L35.957095,64.2573184 L1.00374302,47.7834972 L0.81424581,48.1849944 L36.1353408,64.8317318 L41.2600559,81.318581 L34.1278547,84.7348603 L34.3203128,85.1351732 L41.3932961,81.7467263 L45.0689497,93.5719441 L45.4935419,93.4398883 L41.7983464,81.5524916 L50.2416313,77.5085028 L56.1018324,83.3687039 L44.8693855,94.456067 L45.1808715,94.7716983 L56.2611285,83.8353408 L56.2611285,103.326313 L56.7052626,103.326313 L56.7052626,83.9715419 L66.9061341,94.1730056 L66.8060559,94.5052179 L67.2312402,94.6337207 L71.2432514,81.3777989 L78.6774637,84.8817207 L78.8669609,84.4802235 L71.3723464,80.9484693 L76.1725475,65.0869609 L111.545754,48.1447263 L111.545754,48.1447263 Z M94.4234972,45.5421006 L76.833419,62.9047821 L79.8008268,53.099486 L94.4234972,45.5421006 L94.4234972,45.5421006 Z M89.2223911,20.4390503 L79.4301229,52.7921453 L77.8898659,53.5886257 L75.286648,31.1782123 L89.2223911,20.4390503 L89.2223911,20.4390503 Z M56.2552067,12.0005028 L62.1278436,22.6147151 L56.3079106,30.5191173 L50.5033743,22.4542346 L56.2552067,12.0005028 L56.2552067,12.0005028 Z M62.5648715,50.1042458 L75.3168492,35.2849721 L76.9832402,49.6316872 L67.4136313,53.841486 L62.5648715,50.1042458 L62.5648715,50.1042458 Z M52.6381788,48.0712961 L49.160905,40.9746257 L55.0980894,32.9109274 L56.3398883,31.2244022 L63.5697989,41.0865475 L59.8455866,48.0091173 L56.4707598,45.4082682 C56.4216089,45.3383911 56.3244916,45.2969385 56.2392179,45.3093743 C56.1651955,45.318257 56.1018324,45.3626704 56.0680782,45.4266257 L52.6381788,48.0712961 L52.6381788,48.0712961 Z M56.0313631,30.8945587 L54.9423464,32.3738212 L52.2929385,29.5734078 L53.4690056,27.3343799 L56.0313631,30.8945587 L56.0313631,30.8945587 Z M59.2166927,27.3172067 L60.4330279,29.5609721 L57.7463128,32.3904022 L56.6158436,30.8489609 L59.2166927,27.3172067 L59.2166927,27.3172067 Z M66.7059777,44.6117877 L63.510581,40.253352 L65.4268715,38.7764581 L67.8613184,43.2693184 L66.7059777,44.6117877 L66.7059777,44.6117877 Z M63.2482458,39.8950838 L58.0122011,32.754 L60.655095,29.971352 L65.2125028,38.3808827 L63.2482458,39.8950838 L63.2482458,39.8950838 Z M54.6740894,32.7368268 L49.372905,39.9365363 L47.5762346,38.5526145 L52.0750168,29.9885251 L54.6740894,32.7368268 L54.6740894,32.7368268 Z M49.1093855,40.2948045 L45.9749832,44.5513855 L45.0121006,43.4351285 L47.3671955,38.9523352 L49.1093855,40.2948045 L49.1093855,40.2948045 Z M48.8642235,41.3778994 L52.2793184,48.3478436 L50.4595531,49.7501229 L46.2728492,44.8972179 L48.8642235,41.3778994 L48.8642235,41.3778994 Z M63.8611508,41.4833073 L66.4081117,44.9576201 L62.2131173,49.8336201 L60.2026704,48.2838883 L63.8611508,41.4833073 L63.8611508,41.4833073 Z M71.9787374,38.4839218 L70.9815084,34.4950056 L74.875676,31.4938436 L75.2469721,34.6856872 L71.9787374,38.4839218 L71.9787374,38.4839218 Z M71.6246145,38.8960782 L68.1716201,42.9080894 L65.7833631,38.5016872 L70.5983687,34.791095 L71.6246145,38.8960782 L71.6246145,38.8960782 Z M65.5695866,38.1061117 L60.976648,29.6326257 L67.571743,22.6869609 L70.4811173,34.3214972 L65.5695866,38.1061117 L65.5695866,38.1061117 Z M64.252581,25.5377095 L62.6536983,22.6484693 L66.3175084,17.6729832 L67.4438324,22.1765028 L64.252581,25.5377095 L64.252581,25.5377095 Z M63.9316201,25.8752514 L60.7539888,29.2216536 L59.5074525,26.9210391 L62.3641229,23.041676 L63.9316201,25.8752514 L63.9316201,25.8752514 Z M53.178838,26.9311061 L51.9702011,29.2323128 L48.6847933,25.7597765 L50.2659106,22.8847486 L53.178838,26.9311061 L53.178838,26.9311061 Z M48.3638324,25.4204581 L45.3520112,22.2357207 L46.523933,17.6836425 L49.9787039,22.4844358 L48.3638324,25.4204581 L48.3638324,25.4204581 Z M48.203352,25.8965698 L51.7516872,29.6474302 L47.2185587,38.2772514 L42.2134637,34.4203911 L45.2211397,22.7432179 L48.203352,25.8965698 L48.203352,25.8965698 Z M47.0089274,38.6763799 L44.6994302,43.0738994 L41.0071955,38.7936313 L41.0824022,38.812581 L42.0932514,34.8876201 L47.0089274,38.6763799 L47.0089274,38.6763799 Z M40.7152514,38.4560894 L37.3333184,34.5352737 L37.7117207,31.5116089 L41.7107039,34.5933073 L40.7152514,38.4560894 L40.7152514,38.4560894 Z M37.2587039,35.1298212 L50.1066145,50.0213408 L45.0725028,53.9007039 L35.4715084,49.4273855 L37.2587039,35.1298212 L37.2587039,35.1298212 Z M35.4134749,49.8904693 L44.675743,54.205676 L41.2730838,56.8278436 L34.9622346,53.4980223 L35.4134749,49.8904693 L35.4134749,49.8904693 Z M45.129352,54.417676 L50.5673296,56.9510168 L48.2613855,60.5082346 L48.2542793,60.5117877 L41.7047821,57.0558324 L45.129352,54.417676 L45.129352,54.417676 Z M50.8113073,56.5743911 L45.5255196,54.1121117 L50.3973743,50.3582905 L52.9348603,53.2996425 L50.8113073,56.5743911 L50.8113073,56.5743911 Z M53.1865363,52.9111732 L50.7497207,50.0864804 L54.9938659,46.8164693 L56.0633408,48.4739777 L53.1865363,52.9111732 L53.1865363,52.9111732 Z M55.3462123,46.5446592 L56.2824469,45.8233855 L61.9229497,50.1705698 L59.5015307,52.9846034 L55.3462123,46.5446592 L55.3462123,46.5446592 Z M62.2752961,50.4417877 L70.986838,57.1553184 L64.3798994,60.5467263 L59.7520223,53.374257 L62.2752961,50.4417877 L62.2752961,50.4417877 Z M71.4226816,56.9308827 L67.8139441,54.1506034 L77.0365363,50.0918101 L77.4682346,53.8065475 L71.4226816,56.9308827 L71.4226816,56.9308827 Z M74.8164581,30.9792402 L70.864257,34.0254078 L67.9335642,22.3050056 L73.1684246,16.7912291 L74.8164581,30.9792402 L74.8164581,30.9792402 Z M72.3233855,9.51572067 L73.1021006,16.2168156 L67.8062458,21.7945475 L66.6597877,17.2081229 L72.3233855,9.51572067 L72.3233855,9.51572067 Z M66.1777542,17.1133743 L62.417419,22.220324 L59.1503687,16.3151173 L59.214324,16.3488715 L63.8001564,7.60357542 L66.1777542,17.1133743 L66.1777542,17.1133743 Z M62.1983128,1.19738547 L63.6378994,6.95632402 L58.9354078,15.9260559 L56.508067,11.5397877 L62.1983128,1.19738547 L62.1983128,1.19738547 Z M50.6141117,1.80436872 L56.0005698,11.5403799 L53.5678994,15.9627709 L49.0933966,7.70779888 L50.6141117,1.80436872 L50.6141117,1.80436872 Z M48.9311397,8.33906145 L53.3132626,16.4252626 L50.2161676,22.054514 L46.6684246,17.1246257 L48.9311397,8.33906145 L48.9311397,8.33906145 Z M40.4884469,9.2972067 L46.1863911,17.2140447 L44.9913743,21.8543575 L39.627419,16.1842458 L40.4884469,9.2972067 L40.4884469,9.2972067 Z M39.5557654,16.7551061 L44.8605028,22.3630391 L41.8309162,34.1260782 L37.7750838,31.0005587 L39.5557654,16.7551061 L39.5557654,16.7551061 Z M19.1854078,17.2359553 L37.3031173,31.1965698 L34.5423799,53.2765475 L32.7202458,52.3154413 L19.1854078,17.2359553 L19.1854078,17.2359553 Z M19.0776313,45.619676 L32.3382905,52.6162682 L35.125676,61.5812626 L19.0776313,45.619676 L19.0776313,45.619676 Z M35.8060894,62.2752961 L35.8143799,62.2670056 L35.7989832,62.2516089 L32.8949385,52.910581 L48.3887039,61.0879777 L48.5296425,60.8665028 L56.3268603,48.8837654 L64.0997989,60.9322346 C64.136514,61.0121788 64.2170503,61.0595531 64.302324,61.0595531 C64.3230503,61.0595531 64.3431844,61.0565922 64.3639106,61.0506704 C64.3840447,61.0447486 64.4029944,61.0364581 64.4207598,61.0252067 L71.3859665,57.4508156 L71.2847039,57.2530279 L71.3865587,57.4502235 L79.2512849,53.3855084 L75.8048045,64.772514 L74.1443352,65.5678101 L56.5838659,73.9791173 L36.5018994,64.5155084 L35.8060894,62.2752961 L35.8060894,62.2752961 Z M56.4180559,83.0560335 L53.7414078,80.3793855 L53.7414078,75.8314525 L56.5850503,74.4694413 L59.1006257,75.6549832 L59.1006257,80.4078101 L56.4180559,83.0560335 L56.4180559,83.0560335 Z M50.3346034,76.9719888 L40.0301006,66.667486 L56.0680782,74.2260559 L50.3346034,76.9719888 L50.3346034,76.9719888 Z M59.545352,75.8652067 L62.3599777,77.191095 L59.545352,79.9695978 L59.545352,75.8652067 L59.545352,75.8652067 Z M57.1020223,74.2225028 L73.1613184,66.5295084 L62.6969274,76.8594749 L57.1020223,74.2225028 L57.1020223,74.2225028 Z M41.6651061,81.1243464 L36.6807374,65.0893296 L38.8895642,66.1303799 L38.8771285,66.1428156 L49.909419,77.1756983 L41.6651061,81.1243464 L41.6651061,81.1243464 Z M53.2978659,76.0446369 L53.2978659,79.9352514 L50.6674078,77.3047933 L53.2978659,76.0446369 L53.2978659,76.0446369 Z M67.0524022,93.6903799 L56.7325028,83.3704804 L62.7881229,77.3930279 L70.8370168,81.1865251 L67.0524022,93.6903799 L67.0524022,93.6903799 Z M70.9661117,80.7566034 L63.1244804,77.0614078 L74.3894972,65.942067 L75.6301117,65.3475196 L70.9661117,80.7566034 L70.9661117,80.7566034 Z" id="Shape" fill="#045E31" sketch:type="MSShapeGroup"></path>
            <path d="M0,0 L0,54.6415196 L56.5056983,105.783855 L113.010804,54.6415196 L113.010804,0 L0,0 L0,0 Z M110.708413,53.6206034 L56.5056983,102.677877 L2.30357542,53.6206034 L2.30357542,2.30357542 L110.709006,2.30357542 L110.709006,53.6206034 L110.708413,53.6206034 Z" id="BORDER_2_" fill="#FAF4E4" sketch:type="MSShapeGroup"></path>
        </g>
    </g>
</svg>