<?xml version="1.0" encoding="UTF-8" standalone="no"?>
<svg width="113px" height="106px" viewBox="0 0 113 106" version="1.1" xmlns="http://www.w3.org/2000/svg" xmlns:xlink="http://www.w3.org/1999/xlink" xmlns:sketch="http://www.bohemiancoding.com/sketch/ns">
    <!-- Generator: Sketch 3.5.2 (25235) - http://www.bohemiancoding.com/sketch -->
    <title>resin bag</title>
    <desc>Created with Sketch.</desc>
    <defs></defs>
    <g id="Page-1" stroke="none" stroke-width="1" fill="none" fill-rule="evenodd" sketch:type="MSPage">
        <g id="resin-bag" sketch:type="MSArtboardGroup">
            <path d="M1,0 L1,53.6637369 L56.4950205,103.889999 L111.990041,53.6637369 L111.990041,0 L1,0 L1,0 Z" id="Path" fill="#95D600" sketch:type="MSShapeGroup"></path>
            <path d="M0,0 L0,54.6313333 L56.4956364,105.763212 L112.991273,54.6313333 L112.991273,0 L0,0 L0,0 Z M110.688242,53.6110909 L56.4956364,102.657576 L2.3030303,53.6110909 L2.3030303,2.3030303 L110.688242,2.3030303 L110.688242,53.6110909 L110.688242,53.6110909 Z" id="Shape" fill="#FDF7E7" sketch:type="MSShapeGroup"></path>
            <path d="M34.2214633,31.6169518 L35.5151129,34.8966364 L38.7959198,36.1914083 L35.5151129,37.4868534 L34.2214633,40.7656403 L32.9275892,37.4868534 L29.6467824,36.1914083 L32.9275892,34.8966364 L34.2214633,31.6169518 L34.2214633,31.6169518 Z M84.8149699,22.2436027 L86.6786872,26.9717979 L91.4068824,28.8355153 L86.6786872,30.7001304 L84.8149699,35.4283256 L82.9494571,30.7001304 L78.2230574,28.8355153 L82.9494571,26.9717979 L84.8149699,22.2436027 L84.8149699,22.2436027 Z M24.3377466,17.7889951 L25.1133977,19.7588707 L27.0823756,20.5333997 L25.1133977,21.3108463 L24.3377466,23.2784776 L23.5614221,21.3108463 L21.5931176,20.5333997 L23.5616465,19.7588707 L24.3377466,17.7889951 L24.3377466,17.7889951 Z M76.0565758,57.9495899 L76.0226859,57.8575711 C76.0217882,57.7146053 76.0179727,57.571864 76.0146062,57.4306936 C75.9636592,55.2462571 75.532293,52.9015733 74.6574411,50.054377 C74.5447742,49.6869751 74.4305362,49.3242863 74.3088919,48.9555378 L74.2213618,48.6839702 C74.1176723,48.3675153 74.0076986,48.0476938 73.9013159,47.7473983 L73.4717453,46.5217528 C73.2535934,45.9090423 73.0311772,45.2967806 72.8096588,44.6854167 C72.4065715,43.5740092 72.0046065,42.4679881 71.6284516,41.3682512 L71.4282546,40.7775354 C71.3656369,40.59462 71.3021215,40.4112557 71.2433193,40.2281159 L70.9690584,39.3514685 C70.6135516,38.1953982 70.1729835,37.1760094 69.7470038,36.1905105 C68.9044707,34.2401609 68.1761756,32.5550947 68.5516572,30.6404303 L68.6302098,30.20278 L68.3550512,29.8685946 C67.6081278,28.9598529 55.3873581,27.0819961 55.2800776,27.0819961 C54.6485144,27.0819961 54.344628,27.4929386 54.2775216,27.8414878 C53.8971024,29.7792691 52.721955,30.9988548 51.2352903,32.5418529 C50.5767948,33.2252608 49.8951824,33.9320101 49.2189564,34.7709522 L48.3755256,35.7824857 C48.0994692,36.1050004 47.8222906,36.4284128 47.5390523,36.7502542 C46.7564436,37.641041 45.9486981,38.5282369 45.1375861,39.4190238 L42.9028759,41.9001648 C42.754748,42.0662475 42.6063958,42.2325546 42.459839,42.4024528 C42.1265514,42.7891561 41.8011191,43.1758595 41.4788288,43.565705 C39.581895,45.8715615 38.2945295,47.8712871 37.4277573,49.8564243 C37.3438182,50.0483172 37.2616746,50.2424544 37.179531,50.4460179 C37.0453182,50.7909762 36.9158186,51.1375056 36.8033761,51.4914413 L36.57894,52.2518308 C36.4539291,52.7226977 36.3502396,53.2068063 36.2707893,53.6920372 C35.5952366,57.8411873 36.7896855,62.2307084 39.8204705,66.7391807 C42.3613116,70.5175623 46.9705556,73.3418661 52.4674445,74.4880613 C53.5252118,74.7077842 54.6036272,74.8588297 55.6748607,74.9373823 L55.7866299,74.9456865 C56.3154013,74.9811474 56.8443972,75 57.3722709,75 C61.2231454,75 64.7191864,74.0180921 67.4826681,72.1615567 C71.9615148,69.1496243 74.7054705,65.5391209 75.6391246,61.4319403 C75.7569536,60.9164106 75.8426882,60.4340975 75.9026126,59.9533553 L75.9937336,59.1725422 L75.9786964,59.1020692 C76.0020378,58.7892053 76.017075,58.4747704 76.0224615,58.1612331 L76.0565758,57.9495899 L76.0565758,57.9495899 Z M74.1935317,58.0907602 C74.189043,58.4000331 74.1740058,58.7108771 74.1499911,59.0194768 L74.1185701,59.1557095 L74.1371983,59.2416685 L74.0862513,59.7329591 C74.0353043,60.1465948 73.9594449,60.569208 73.8548577,61.0248133 C73.028484,64.6640445 70.5410587,67.8990664 66.4623816,70.6421244 C64.0016642,72.2957695 60.8586612,73.1697236 57.3722709,73.1697236 C56.8863667,73.1697236 56.3984427,73.1528909 55.9625878,73.1241631 C55.9098453,73.1181033 55.8571028,73.1145124 55.808849,73.1124924 C54.8179637,73.0393263 53.8189986,72.8999515 52.8406817,72.6963879 C47.8068045,71.6464759 43.6147872,69.1036149 41.3392296,65.7184453 C38.5764213,61.6085715 37.4784799,57.661414 38.0772754,53.9864973 C38.147075,53.5605176 38.2370739,53.1349868 38.3479453,52.7213511 L38.4980931,52.1977417 L38.5445513,52.0532048 C38.6453232,51.7349544 38.7624788,51.4229883 38.8803077,51.120224 C38.9516784,50.9424706 39.0268645,50.7665127 39.1045194,50.5905548 C39.9017164,48.7622984 41.1051427,46.8997032 42.890083,44.7303039 C43.2036202,44.3514558 43.5216462,43.9737299 43.845283,43.5973505 C43.9846578,43.4357565 44.1267259,43.2766313 44.2687939,43.1166084 L46.4898135,40.650729 C47.3081075,39.7518625 48.1239327,38.8559136 48.9121523,37.9588425 C49.1873109,37.6468763 49.4579809,37.3315436 49.7268553,37.0171087 L50.642779,35.920065 C51.2689557,35.1435161 51.921167,34.466168 52.5529546,33.8112635 C53.9431118,32.3683638 55.2645915,30.997957 55.879322,28.9706258 C58.0359284,29.2583529 64.5822804,30.5376386 66.6443993,31.0738164 C66.4605861,33.1976552 67.2431948,35.0095278 68.0668752,36.9161124 C68.4735534,37.8567241 68.8934734,38.8287568 69.2186813,39.8851775 L69.3901504,40.4390858 L69.4473816,40.7234463 L69.5108971,40.8199539 C69.5717192,41.0039915 69.6350102,41.188029 69.6976279,41.3720666 L69.8978249,41.9645779 C70.2773463,43.0714968 70.682229,44.1882908 71.089805,45.3104712 C71.3104257,45.9180197 71.5310463,46.526466 71.7483005,47.1340145 L72.1709136,48.3419296 C72.2781941,48.6449183 72.3825569,48.9521713 72.4853486,49.263913 L72.5722054,49.5303187 C72.6882388,49.88403 72.7991103,50.2361702 72.9079618,50.591677 C73.7327644,53.274586 74.1383205,55.4617158 74.1847787,57.4784985 C74.1899408,57.6445812 74.192634,57.8115617 74.1935317,57.9771955 L74.1935317,58.0907602 L74.1935317,58.0907602 Z M72.6058708,20.5933241 C72.0214392,20.0840786 71.3382557,19.8259771 70.5742753,19.8259771 C69.3252884,19.8259771 68.2280203,20.5342974 67.7185504,20.9241429 L67.7050842,20.9106768 C66.9812778,20.0109125 63.2567608,15.4999714 60.9782856,15.051997 C59.0205296,14.6634981 58.0190957,16.5368662 57.3363611,17.8477974 C57.2077592,18.0944527 57.0300058,18.4355955 56.8960175,18.6400568 C56.7234261,18.5509557 56.4877682,18.3999102 56.3133814,18.2890388 C55.6869802,17.8888692 54.9068404,17.3901722 54.0546565,17.3901722 C53.4509234,17.3901722 52.9012794,17.6404184 52.4663223,18.1157741 C51.2976835,19.3950598 51.921167,20.9524219 52.4144776,21.5974512 C52.7720043,22.0676448 53.340052,22.8724727 53.6535892,23.3568058 C53.882514,23.7096193 55.0937956,25.4815423 56.5090897,25.7591697 C57.6144374,25.9746284 64.9862654,27.4202213 64.9862654,27.4202213 C65.4122451,27.5032626 65.8207188,27.5461299 66.2002402,27.5461299 C67.6610948,27.5461299 68.5563703,26.9430701 69.3463854,26.4122788 L69.7896467,26.1209607 C71.453167,25.0515227 73.2363118,23.7827855 73.3465099,22.2736772 C73.3788287,21.829967 73.2769347,21.1775313 72.6058708,20.5933241 L72.6058708,20.5933241 Z M68.7998835,24.5826757 C68.6548978,24.6755923 68.5301113,24.7559404 68.4345015,24.8203535 L68.3254256,24.8944175 C67.6429154,25.3540626 67.1033711,25.7165269 66.2006891,25.7165269 C65.9389966,25.7165269 65.6485763,25.6851058 65.3386301,25.6245081 C65.3386301,25.6245081 57.9650066,24.1789152 56.8605566,23.963681 C56.3923829,23.8716622 55.5884528,22.9736934 55.1889566,22.3618806 C54.8493847,21.837149 54.2573223,20.9964114 53.8694968,20.4869414 C53.8488486,20.462029 53.377084,19.8320369 53.8167543,19.3512948 C53.9372765,19.2199997 54.0052806,19.2199997 54.0551054,19.2199997 C54.3733558,19.2199997 54.903025,19.5586737 55.3283314,19.8302414 C55.898399,20.1956234 56.4363724,20.5387862 57.0304547,20.5387862 C57.1770115,20.5387862 57.3199773,20.5163426 57.4548634,20.474373 C58.1436577,20.2575677 58.5218326,19.5328636 58.9594829,18.693697 C59.3982555,17.8529594 59.9761785,16.7130485 60.6268187,16.8477102 C61.8239608,17.0826947 64.6527534,20.0356004 66.3207624,22.1049012 L66.4055993,22.19692 C66.6843489,22.504173 67.0676857,22.9249907 67.6815184,22.9249907 C68.0309654,22.9249907 68.3660485,22.7829227 68.6759948,22.5032753 C68.9199568,22.2835524 69.7921155,21.6553557 70.5747241,21.6553557 C70.8927501,21.6553557 71.1553403,21.7572497 71.4037911,21.9724839 C71.5270065,22.0799888 71.5234155,22.1264471 71.5225178,22.1414843 C71.4980542,22.4714054 71.0058659,23.162893 68.7998835,24.5826757 L68.7998835,24.5826757 Z M56.5665453,46.2427788 C55.9904178,45.4734118 55.3274336,44.7433212 54.5858968,44.0697885 C55.6526415,42.5938967 57.1305532,41.3500719 58.9478123,40.4494099 C60.3370717,41.9309125 61.2904762,43.6085723 61.7748093,45.3652336 C60.8411552,45.7386953 59.9663033,46.1891385 59.1542935,46.7089325 C58.9852931,46.5338724 58.8210059,46.3558946 58.6387638,46.1880164 L58.0186468,45.6044825 L57.2322228,45.9332814 C57.0035224,46.0320333 56.7855949,46.1372938 56.5665453,46.2427788 L56.5665453,46.2427788 Z M51.0575369,43.8848532 C49.5895004,45.1820938 48.5622564,46.7466378 48.0137346,48.4548209 C49.1592564,49.1052367 50.2026598,49.8620352 51.1246433,50.6982841 C52.0484223,49.3821909 53.2617238,48.2342002 54.7073167,47.2852844 C53.7568298,45.994328 52.5273689,44.8382577 51.0575369,43.8848532 L51.0575369,43.8848532 Z M54.6947483,55.6392447 C55.0307291,55.5382485 55.3667099,55.445332 55.7114438,55.3638617 L56.279716,55.2325665 L56.7656201,55.5550812 C57.0605291,55.7516872 57.345563,55.9572707 57.6234149,56.1680162 C58.4883916,55.2664564 59.4817457,54.4730748 60.5949488,53.8157015 C60.2116119,51.7508894 59.1913254,49.7655277 57.5769566,48.0474694 C55.466584,49.0928927 53.8120411,50.5948191 52.7325035,52.395021 C53.5494509,53.3993725 54.1980712,54.4901319 54.6947483,55.6392447 L54.6947483,55.6392447 Z M66.3937041,51.7742308 C66.4740523,49.9812108 66.0595188,48.1565453 65.142024,46.4268164 C63.4291278,46.8065622 61.8728879,47.4598957 60.5345755,48.3372164 C61.5566574,49.7318623 62.2876458,51.2355841 62.6938751,52.790253 C63.8508432,52.3254458 65.0913015,51.985874 66.3937041,51.7742308 L66.3937041,51.7742308 Z M59.2853642,57.6127113 C60.1932082,58.5115779 60.9758168,59.4988723 61.6085022,60.5539463 C63.5792755,59.8954508 65.6842616,59.6034595 67.8339106,59.6631595 C68.2699899,57.7011391 68.0841568,55.6327361 67.2503767,53.6366015 C64.0259033,54.0962466 61.2269608,55.5025632 59.2853642,57.6127113 L59.2853642,57.6127113 Z M52.6328539,56.4104072 C51.5499497,53.7568992 49.4207245,51.4595714 46.5607353,49.9017604 C45.0830481,51.4775262 44.180815,53.3529142 43.9018409,55.343438 C45.9370274,56.038741 47.8097222,57.0464591 49.4270087,58.3544726 C50.3875952,57.5860034 51.4666839,56.9373831 52.6328539,56.4104072 L52.6328539,56.4104072 Z M52.5468948,69.3706939 L54.832552,69.7836563 C61.5496999,70.5233977 67.6518929,67.0906476 69.2207012,61.6880219 C66.5761707,61.4029881 63.974283,61.7551283 61.6334146,62.7199791 L60.5094386,63.1827663 L60.0073751,62.1604599 C59.1013266,60.3272659 57.6835637,58.6841692 55.8921148,57.3860309 C53.7575031,57.9747267 51.8554072,59.0176813 50.3651516,60.4204069 L49.5376557,61.1987512 L48.6477666,60.3759685 C46.7894357,58.6511771 44.4752751,57.4147587 41.8987488,56.7553654 C41.4790533,62.3651456 45.9969519,67.7143555 52.5468948,69.3706939 L52.5468948,69.3706939 Z" id="Shape" fill="#FDF7E7" sketch:type="MSShapeGroup"></path>
        </g>
    </g>
</svg>