<?xml version="1.0" encoding="UTF-8" standalone="no"?>
<svg width="113px" height="106px" viewBox="0 0 113 106" version="1.1" xmlns="http://www.w3.org/2000/svg" xmlns:xlink="http://www.w3.org/1999/xlink" xmlns:sketch="http://www.bohemiancoding.com/sketch/ns">
    <!-- Generator: Sketch 3.5.2 (25235) - http://www.bohemiancoding.com/sketch -->
    <title>sunlight park</title>
    <desc>Created with Sketch.</desc>
    <defs></defs>
    <g id="Page-1" stroke="none" stroke-width="1" fill="none" fill-rule="evenodd" sketch:type="MSPage">
        <g id="sunlight-park" sketch:type="MSArtboardGroup">
            <path d="M1,0 L1,53.6637369 L56.4950205,103.889999 L111.990041,53.6637369 L111.990041,0 L1,0 L1,0 Z" id="Path" fill="#FFDD00" sketch:type="MSShapeGroup"></path>
            <path d="M0,0 L0,54.6313333 L56.4956364,105.763212 L112.991273,54.6313333 L112.991273,0 L0,0 L0,0 Z M110.688242,53.6110909 L56.4956364,102.657576 L2.3030303,53.6110909 L2.3030303,2.3030303 L110.688242,2.3030303 L110.688242,53.6110909 L110.688242,53.6110909 Z" id="Shape" fill="#FDF7E7" sketch:type="MSShapeGroup"></path>
            <path d="M56.3720354,21.5753628 C66.94,21.5753628 76.6111504,27.3167788 81.7260177,36.4134159 C82.2973451,35.8091681 82.8129204,35.1804956 83.2637168,34.532177 C82.1125664,32.612708 80.7713274,30.8435044 79.2681416,29.2383717 L85.4470796,23.0583717 C85.8952212,22.6102301 85.8952212,21.8854513 85.4470796,21.4373097 C84.999469,20.9891681 84.2741593,20.9891681 83.8260177,21.4373097 L77.6412389,27.6236814 C75.1716814,25.3442124 72.360177,23.4698761 69.3033628,22.0856283 L72.6623009,13.9766018 C72.9038938,13.3909381 72.6256637,12.7197876 72.0415929,12.4781947 C71.459115,12.2376637 70.7858407,12.5137699 70.5431858,13.0983717 L67.180531,21.2164248 C64.080177,20.0758938 60.7753982,19.4275752 57.3729204,19.3197876 L57.3729204,10.4801416 C57.3729204,9.84615929 56.860531,9.33376991 56.2270796,9.33376991 C55.5930973,9.33376991 55.080177,9.84615929 55.080177,10.4801416 L55.080177,19.3298761 C51.6888496,19.4689912 48.3952212,20.1390796 45.3107965,21.3024425 L41.9109735,13.0983717 C41.6688496,12.5137699 40.9961062,12.2387257 40.4125664,12.4781947 C39.8290265,12.7197876 39.5507965,13.3909381 39.7923894,13.9766018 L43.1953982,22.1891681 C40.1688496,23.592531 37.3929204,25.4827965 34.9530973,27.7643894 L28.6254867,21.4373097 C28.1778761,20.9891681 27.4525664,20.9891681 27.0044248,21.4373097 C26.5573451,21.8854513 26.5573451,22.6102301 27.0044248,23.0583717 L33.3368142,29.3907611 C31.8893805,30.9576637 30.5938053,32.6748319 29.4782301,34.5353628 C29.9300885,35.1847434 30.4451327,35.811292 31.0169912,36.4166018 C36.1307965,27.3173097 45.8035398,21.5753628 56.3720354,21.5753628" id="Fill-1" fill="#FDF7E7" sketch:type="MSShapeGroup"></path>
            <path d="M85.0767257,37.9888673 C84.8829204,37.5502832 84.6630973,37.1281593 84.449646,36.7017876 C80.649469,41.5150619 73.8864602,45.3561239 65.9085841,47.1078053 L65.9085841,44.6955929 L65.9085841,41.9451504 L69.2542478,40.7212566 L65.9085841,39.4978938 L65.9085841,39.0986018 C65.9085841,38.4646195 65.3967257,37.9516991 64.7627434,37.9516991 C64.4393805,37.9516991 64.150531,38.0876283 63.9407965,38.3021416 C63.7390265,38.4024956 63.5983186,38.6058584 63.5983186,38.8474513 L63.5983186,45.1819646 L63.5983186,47.5527611 C61.6682301,47.8676283 59.6823894,48.0630265 57.6583186,48.1219646 L57.6583186,45.8302832 L57.6583186,40.2226726 L61.0862832,38.9929381 L57.6583186,37.7637345 L57.6583186,37.3686903 C57.6583186,36.7352389 57.1453982,36.2228496 56.5119469,36.2228496 C56.4662832,36.2228496 56.4269912,36.2435575 56.3834513,36.2478053 C56.3669912,36.2467434 56.3531858,36.2393097 56.3377876,36.2393097 C56.1652212,36.2393097 56.010708,36.3109912 55.8986726,36.4251504 C55.5848673,36.6279823 55.3661062,36.9651504 55.3661062,37.3686903 L55.3661062,45.8350619 L55.3661062,48.1283363 C53.1954867,48.0784248 51.0646903,47.8750619 49.0007965,47.5288673 L49.0007965,45.1559469 L49.0007965,41.9451504 L52.3448673,40.7212566 L49.0007965,39.4978938 L49.0007965,39.0986018 C49.0007965,38.4646195 48.4878761,37.9516991 47.8538938,37.9516991 C47.2204425,37.9516991 46.7075221,38.4646195 46.7075221,39.0986018 L46.7075221,44.6663894 L46.7075221,47.0796637 C38.7848673,45.314708 32.0738938,41.4922301 28.2928319,36.7049735 C28.0809735,37.1302832 27.8611504,37.5513451 27.6673451,37.9888673 C27.6662832,37.9920531 27.6662832,37.994177 27.6662832,37.994177 C25.9177876,41.9493982 25.0215044,46.154708 24.9997345,50.514531 C25.0310619,54.034354 26.6871681,57.4469204 29.789115,60.3853274 C30.1215044,60.6991327 30.609469,60.7878053 31.030531,60.6062124 C31.4515929,60.4246195 31.7234513,60.0099292 31.7234513,59.5522301 L31.7234513,54.6067434 C31.7234513,53.6578938 32.4949558,52.8874513 33.4427434,52.8874513 C34.3915929,52.8874513 35.1625664,53.6578938 35.1625664,54.6067434 L35.1625664,63.513823 C35.1625664,63.9433805 35.4020354,64.3373628 35.7838053,64.5322301 C37.6018584,65.4699292 39.5914159,66.2786018 41.6993805,66.9354159 C42.0482301,67.0474513 42.4268142,66.9800177 42.7204425,66.7649735 C43.0135398,66.5493982 43.1866372,66.2063894 43.1866372,65.8410796 L43.1866372,60.4814336 C43.1866372,59.533646 43.9586726,58.7621416 44.9064602,58.7621416 C45.8547788,58.7621416 46.6257522,59.533646 46.6257522,60.4814336 L46.6257522,67.2088673 C46.6257522,67.7679823 47.0282301,68.2447965 47.5788496,68.3393097 C49.4861062,68.6679823 51.4586726,68.8888673 53.4413274,68.9966549 C53.7604425,69.0157699 54.0625664,68.9026726 54.2919469,68.6860354 C54.5207965,68.4688673 54.650354,68.1683363 54.650354,67.8529381 L54.650354,60.4814336 C54.650354,59.533646 55.4218584,58.7621416 56.370177,58.7621416 C57.3179646,58.7621416 58.089469,59.533646 58.089469,60.4814336 L58.089469,67.8529381 C58.089469,68.1683363 58.2190265,68.4688673 58.4478761,68.6860354 C58.6618584,68.8878053 58.9438053,68.9998407 59.2358407,68.9998407 C59.2570796,68.9998407 59.2783186,68.9998407 59.2984956,68.9966549 C61.2912389,68.8878053 63.2638053,68.6679823 65.1620354,68.3393097 C65.7115929,68.2437345 66.1140708,67.7669204 66.1140708,67.2088673 L66.1140708,60.4814336 C66.1140708,59.533646 66.8850442,58.7621416 67.8333628,58.7621416 C68.7816814,58.7621416 69.5531858,59.533646 69.5531858,60.4814336 L69.5531858,65.8453274 C69.5531858,66.2101062 69.7262832,66.5525841 70.0209735,66.7681593 C70.3151327,66.9847965 70.6969027,67.0474513 71.0420354,66.9380708 C73.1569027,66.2764779 75.1459292,65.4678053 76.9560177,64.5354159 C77.3377876,64.3394867 77.5777876,63.9455044 77.5777876,63.5159469 L77.5777876,54.6067434 C77.5777876,53.6578938 78.3487611,52.8874513 79.2970796,52.8874513 C80.2448673,52.8874513 81.0169027,53.6578938 81.0169027,54.6067434 L81.0169027,59.5554159 C81.0169027,60.013646 81.2882301,60.4278053 81.709292,60.6083363 C82.1282301,60.7904602 82.6183186,60.7033805 82.949646,60.3885133 C86.0553097,57.453292 87.7130088,54.0386018 87.7443363,50.4991327 C87.7230973,46.154708 86.8262832,41.9493982 85.0788496,37.9984248 C85.0777876,37.994177 85.0777876,37.9920531 85.0767257,37.9888673" id="Fill-4" fill="#FDF7E7" sketch:type="MSShapeGroup"></path>
        </g>
    </g>
</svg>