<?xml version="1.0" encoding="UTF-8" standalone="no"?>
<svg width="113px" height="106px" viewBox="0 0 113 106" version="1.1" xmlns="http://www.w3.org/2000/svg" xmlns:xlink="http://www.w3.org/1999/xlink" xmlns:sketch="http://www.bohemiancoding.com/sketch/ns">
    <!-- Generator: Sketch 3.5.2 (25235) - http://www.bohemiancoding.com/sketch -->
    <title>sweet jesus</title>
    <desc>Created with Sketch.</desc>
    <defs></defs>
    <g id="Page-1" stroke="none" stroke-width="1" fill="none" fill-rule="evenodd" sketch:type="MSPage">
        <g id="sweet-jesus" sketch:type="MSArtboardGroup">
            <g sketch:type="MSLayerGroup">
                <path d="M0,0 L112.765032,0 L112.733643,53.0660556 L55.9314127,104.30169 L0,53.3126825 L0,0 Z" id="Shape" fill="#231F20" sketch:type="MSShapeGroup"></path>
                <g id="Group" transform="translate(15.246032, 12.555556)" sketch:type="MSShapeGroup">
                    <g id="Shape" stroke="#7EBAB5" stroke-width="1.6002" fill="#7EBAB5">
                        <path d="M12.1779921,12.142119 L12.1779921,12.4004048 C12.1779921,13.893619 11.5842937,15.3106032 10.5556349,16.3383651 C9.42384127,17.4701587 7.87861111,18.0889683 6.18002381,18.0889683 L5.97554762,18.0889683 C3.78639683,18.0118413 1.88153968,16.775119 0.981126984,14.8451508 C0.878888889,14.6406746 0.852880952,14.4083968 0.852880952,14.202127 C0.852880952,13.6362302 1.16138889,13.092754 1.72728571,12.8371587 C1.93445238,12.7340238 2.13892857,12.7098095 2.34519841,12.7098095 C2.91109524,12.7098095 3.47788889,13.0174206 3.73348413,13.5833175 C4.14602381,14.4864206 5.02222222,15.0523175 6.07688889,15.0783254 L6.20692857,15.0783254 C7.10734127,15.0783254 7.85439683,14.7949286 8.39428571,14.2550397 C8.90906349,13.7384683 9.19246032,13.0945476 9.19246032,12.4013016 L9.19246032,12.2981667 C9.11533333,11.115254 6.87596032,10.0587937 5.89662698,9.77539683 L5.79438889,9.72427778 C3.14247619,8.77274603 1.80351587,7.10016667 1.80351587,4.78366667 L1.80351587,4.57739683 C1.85553175,3.26354762 2.44743651,2.08063492 3.55501587,1.25465873 C4.48143651,0.535404762 5.74506349,0.0986507937 7.08312698,0.0986507937 L7.31361111,0.0986507937 C8.39428571,0.122865079 9.50186508,0.561412698 10.401381,1.23044444 C10.7888095,1.53984921 10.9950794,1.97660317 10.9950794,2.41335714 C10.9950794,2.7227619 10.8919444,3.05638095 10.6856746,3.31466667 C10.3771667,3.70030159 9.93861905,3.90657143 9.47675397,3.90657143 C9.16824603,3.90657143 8.85884127,3.8312381 8.57454762,3.62496825 C8.18980952,3.31556349 7.67592857,3.13530159 7.21047619,3.1110873 L7.05711905,3.1110873 C5.79528571,3.1110873 4.81595238,3.75411111 4.7917381,4.68053175 L4.7917381,4.78366667 C4.7917381,6.0455 5.7701746,6.50646825 6.77461905,6.91811111 C7.54409524,7.14769841 12.0237381,8.59069048 12.1779921,12.142119 L12.1779921,12.142119 Z"></path>
                        <path d="M36.2703095,1.61338889 C36.2703095,1.76853968 36.2703095,1.89678571 36.2182937,2.05014286 L31.7144365,17.057619 C31.5350714,17.7006429 30.941373,18.1391905 30.2723413,18.1391905 C29.6293175,18.1391905 29.0383095,17.7006429 28.8311429,17.057619 L25.7684841,6.83919048 L22.7049286,17.057619 C22.5237698,17.7006429 21.9327619,18.1391905 21.2628333,18.1391905 C20.6198095,18.1391905 20.0270079,17.7006429 19.8216349,17.057619 L15.3177778,2.05103968 C15.2666587,1.92369048 15.2666587,1.76943651 15.2666587,1.64119048 C15.2666587,0.996373016 15.6774048,0.379357143 16.3482302,0.172190476 C16.4764762,0.120174603 16.6307302,0.120174603 16.7589762,0.120174603 C17.402,0.120174603 17.9948016,0.532714286 18.1992778,1.20264286 L21.2628333,11.4210714 L24.3254921,1.20264286 C24.5317619,0.559619048 25.1254603,0.120174603 25.7684841,0.120174603 C26.436619,0.120174603 27.027627,0.558722222 27.2087857,1.20264286 L30.2723413,11.4210714 L33.3358968,1.20264286 C33.5412698,0.533611111 34.1582857,0.120174603 34.8022063,0.120174603 C34.9313492,0.120174603 35.0856032,0.120174603 35.214746,0.172190476 C35.8586667,0.379357143 36.2703095,0.970365079 36.2703095,1.61338889 L36.2703095,1.61338889 Z"></path>
                        <path d="M43.3731667,10.6228968 L43.3731667,15.1285476 L49.396246,15.1285476 C50.2204286,15.1285476 50.8903571,15.7975794 50.8903571,16.646873 C50.8903571,17.4692619 50.2204286,18.1400873 49.396246,18.1400873 L41.8808492,18.1400873 C41.0584603,18.1400873 40.3867381,17.4692619 40.3867381,16.646873 L40.3867381,1.61338889 C40.3867381,0.790103175 41.0575635,0.120174603 41.8808492,0.120174603 L49.396246,0.120174603 C50.2204286,0.120174603 50.8903571,0.789206349 50.8903571,1.61338889 C50.8903571,2.46447619 50.2204286,3.13171429 49.396246,3.13171429 L43.3731667,3.13171429 L43.3731667,7.63736508 L49.396246,7.63736508 C50.2204286,7.63736508 50.8903571,8.30639683 50.8903571,9.13057937 C50.8903571,9.9547619 50.2204286,10.6228968 49.396246,10.6228968 L43.3731667,10.6228968 L43.3731667,10.6228968 Z"></path>
                        <path d="M58.5079921,10.6228968 L58.5079921,15.1285476 L64.5319683,15.1285476 C65.355254,15.1285476 66.0251825,15.7975794 66.0251825,16.646873 C66.0251825,17.4692619 65.355254,18.1400873 64.5319683,18.1400873 L57.0156746,18.1400873 C56.1914921,18.1400873 55.5215635,17.4692619 55.5215635,16.646873 L55.5215635,1.61338889 C55.5215635,0.790103175 56.1914921,0.120174603 57.0156746,0.120174603 L64.5319683,0.120174603 C65.355254,0.120174603 66.0251825,0.789206349 66.0251825,1.61338889 C66.0251825,2.46447619 65.355254,3.13171429 64.5319683,3.13171429 L58.5079921,3.13171429 L58.5079921,7.63736508 L64.5319683,7.63736508 C65.355254,7.63736508 66.0251825,8.30639683 66.0251825,9.13057937 C66.0251825,9.9547619 65.355254,10.6228968 64.5319683,10.6228968 L58.5079921,10.6228968 L58.5079921,10.6228968 Z"></path>
                    </g>
                    <g transform="translate(3.587302, 25.111111)" id="Shape" stroke="#7EBAB5" stroke-width="1.6002" fill="#7EBAB5">
                        <path d="M0.863642857,17.0235397 C0.863642857,16.1724524 1.53177778,15.501627 2.35596032,15.501627 C4.39085714,15.501627 4.62044444,13.544754 4.62044444,13.2604603 L4.62044444,1.97839683 C4.62044444,1.15421429 5.29037302,0.48518254 6.11455556,0.48518254 C6.96295238,0.48518254 7.63288095,1.15421429 7.63288095,1.97839683 L7.63288095,13.2613571 C7.63288095,13.3887063 7.60776984,14.5734127 6.98985714,15.8128254 C6.11455556,17.566119 4.46798413,18.5176508 2.35596032,18.5176508 C1.53177778,18.516754 0.863642857,17.8477222 0.863642857,17.0235397 L0.863642857,17.0235397 Z"></path>
                        <path d="M24.5703254,17.0235397 C24.5703254,17.8477222 23.9012937,18.516754 23.052,18.516754 L14.8137619,18.516754 C13.9662619,18.516754 13.2945397,17.8477222 13.2945397,17.0235397 L13.2945397,1.97839683 C13.2945397,1.15421429 13.9662619,0.48518254 14.8137619,0.48518254 L23.052,0.48518254 C23.9012937,0.48518254 24.5703254,1.15421429 24.5703254,1.97839683 C24.5703254,2.82769048 23.9012937,3.49851587 23.052,3.49851587 L16.3069762,3.49851587 L16.3069762,8.00237302 L21.5578889,8.00237302 C22.3820714,8.00237302 23.052,8.67140476 23.052,9.4955873 C23.052,10.3197698 22.3829683,10.9896984 21.5578889,10.9896984 L16.3069762,10.9896984 L16.3069762,15.5025238 L23.052,15.5025238 C23.9012937,15.5025238 24.5703254,16.1724524 24.5703254,17.0235397 L24.5703254,17.0235397 Z"></path>
                        <path d="M45.8035635,15.013754 C45.0834127,13.4425159 45.0574048,11.9197063 45.0574048,11.736754 L45.0574048,1.97839683 C45.0574048,1.15421429 45.7273333,0.48518254 46.5515159,0.48518254 C47.3748016,0.48518254 48.0429365,1.15421429 48.0429365,1.97839683 L48.0429365,11.736754 C48.0429365,12.1232857 48.3523413,15.5025238 51.4419048,15.5025238 C54.3763175,15.5025238 54.8139683,12.3304524 54.8139683,11.736754 L54.8139683,1.97839683 C54.8139683,1.15421429 55.483,0.48518254 56.3062857,0.48518254 C57.1304683,0.48518254 57.7977063,1.15421429 57.7977063,1.97839683 L57.7977063,11.736754 C57.7977063,11.9197063 57.7977063,13.4425159 57.0784524,15.013754 C56.0228889,17.2827222 54.0148968,18.5176508 51.4419048,18.5176508 C48.867119,18.516754 46.859127,17.2827222 45.8035635,15.013754 L45.8035635,15.013754 Z"></path>
                        <path d="M74.2714921,12.5125079 L74.2714921,12.769 C74.2714921,14.2684921 73.6822778,15.6845794 72.6509286,16.7150317 C71.5182381,17.848619 69.9730079,18.4638413 68.2753175,18.4638413 L68.0699444,18.4638413 C65.8798968,18.3894048 63.9750397,17.1526825 63.0737302,15.2182302 C62.9714921,15.013754 62.9454841,14.7814762 62.9454841,14.5743095 C62.9454841,14.0075159 63.2548889,13.4685238 63.8216825,13.2102381 C64.0270556,13.1071032 64.2333254,13.0793016 64.4386984,13.0793016 C65.0054921,13.0793016 65.5713889,13.3896032 65.827881,13.9563968 C66.2395238,14.8603968 67.1157222,15.4280873 68.1712857,15.4531984 L68.3004286,15.4531984 C69.2017381,15.4531984 69.947,15.1689048 70.4868889,14.6272222 C71.0016667,14.1124444 71.2841667,13.4685238 71.2841667,12.7698968 L71.2841667,12.6685556 C71.2079365,11.4820556 68.9703571,10.4246984 67.9910238,10.1404048 L67.8878889,10.0883889 C65.2377698,9.13596032 63.8988095,7.46248413 63.8988095,5.14598413 L63.8988095,4.93971429 C63.9517222,3.62765873 64.5409365,2.44295238 65.647619,1.62056349 C66.5749365,0.899515873 67.8376667,0.461865079 69.1748333,0.461865079 L69.4080079,0.461865079 C70.4877857,0.487873016 71.5944683,0.924626984 72.4957778,1.59545238 C72.8823095,1.90306349 73.0876825,2.33981746 73.0876825,2.78015873 C73.0876825,3.08597619 72.9845476,3.42318254 72.7782778,3.6796746 C72.468873,4.06620635 72.032119,4.27068254 71.5675635,4.27068254 C71.2590556,4.27068254 70.9514444,4.19355556 70.6680476,3.98728571 C70.280619,3.6796746 69.7676349,3.50120635 69.3039762,3.47340476 L69.1497222,3.47340476 C67.8878889,3.47340476 66.9094524,4.11642857 66.8834444,5.04374603 L66.8834444,5.14688095 C66.8834444,6.40781746 67.8636746,6.87147619 68.8663254,7.28311905 C69.6393889,7.51360317 74.1163413,8.95300794 74.2714921,12.5125079 L74.2714921,12.5125079 Z"></path>
                    </g>
                    <path d="M6.47328571,42.0951905 C4.87065873,42.246754 2.3837619,41.8342143 2.3837619,38.2262857" id="Shape" stroke="#7EBAB5" stroke-width="4.9516" fill="#7EBAB5"></path>
                    <g transform="translate(69.055556, 0.000000)" id="Shape">
                        <g transform="translate(4.484127, 0.000000)">
                            <path d="M0.540785714,0.529126984 C0.540785714,0.239452381 0.778444444,0.00269047619 1.06811905,0.00269047619 L3.18373016,0.00269047619 C3.47250794,0.00269047619 3.71016667,0.239452381 3.71016667,0.529126984 L3.71016667,17.8297857 C3.71016667,18.1194603 3.47250794,18.3562222 3.18373016,18.3562222 L1.06811905,18.3562222 C0.778444444,18.3562222 0.540785714,18.1194603 0.540785714,17.8297857 L0.540785714,0.529126984 L0.540785714,0.529126984 Z" fill="#7EBAB5"></path>
                            <path d="M0.540785714,0.529126984 C0.540785714,0.239452381 0.778444444,0.00269047619 1.06811905,0.00269047619 L3.18373016,0.00269047619 C3.47250794,0.00269047619 3.71016667,0.239452381 3.71016667,0.529126984 L3.71016667,17.8297857 C3.71016667,18.1194603 3.47250794,18.3562222 3.18373016,18.3562222 L1.06811905,18.3562222 C0.778444444,18.3562222 0.540785714,18.1194603 0.540785714,17.8297857 L0.540785714,0.529126984 L0.540785714,0.529126984 Z" stroke="#7EBAB5" stroke-width="1.2755"></path>
                        </g>
                        <g transform="translate(0.000000, 9.865079)">
                            <path d="M1.38200794,3.9020873 C1.09323016,3.9020873 0.855571429,3.6653254 0.855571429,3.37565079 L0.855571429,1.11206349 C0.855571429,0.822388889 1.09323016,0.585626984 1.38200794,0.585626984 L11.8389921,0.585626984 C12.1277698,0.585626984 12.3654286,0.822388889 12.3654286,1.11206349 L12.3654286,3.37565079 C12.3654286,3.6653254 12.1277698,3.9020873 11.8389921,3.9020873 L1.38200794,3.9020873 L1.38200794,3.9020873 Z" fill="#7EBAB5"></path>
                            <path d="M1.38200794,3.9020873 C1.09323016,3.9020873 0.855571429,3.6653254 0.855571429,3.37565079 L0.855571429,1.11206349 C0.855571429,0.822388889 1.09323016,0.585626984 1.38200794,0.585626984 L11.8389921,0.585626984 C12.1277698,0.585626984 12.3654286,0.822388889 12.3654286,1.11206349 L12.3654286,3.37565079 C12.3654286,3.6653254 12.1277698,3.9020873 11.8389921,3.9020873 L1.38200794,3.9020873 L1.38200794,3.9020873 Z" stroke="#7EBAB5" stroke-width="1.2755"></path>
                        </g>
                    </g>
                    <g transform="translate(32.285714, 25.111111)" id="Shape">
                        <path d="M9.95207143,1.00892857 C10.0812143,0.733603175 10.0130556,0.686968254 9.80230159,0.904896825 L0.352452381,10.6551825 C0.140801587,10.8740079 0.216134921,11.0524762 0.521055556,11.0524762 L4.04737302,11.0524762 C4.35139683,11.0524762 4.50385714,11.2820635 4.38547619,11.561873 L1.67616667,18.0055635 C1.55778571,18.285373 1.63580952,18.3373889 1.84835714,18.1194603 L11.0569603,8.6938254 C11.2686111,8.47589683 11.1941746,8.2983254 10.889254,8.2983254 L7.09388889,8.2983254 C6.78986508,8.2983254 6.64637302,8.07322222 6.77551587,7.797 L9.95207143,1.00892857 L9.95207143,1.00892857 Z" fill="#7EBAB5"></path>
                        <path d="M9.95207143,1.00892857 C10.0812143,0.733603175 10.0130556,0.686968254 9.80230159,0.904896825 L0.352452381,10.6551825 C0.140801587,10.8740079 0.216134921,11.0524762 0.521055556,11.0524762 L4.04737302,11.0524762 C4.35139683,11.0524762 4.50385714,11.2820635 4.38547619,11.561873 L1.67616667,18.0055635 C1.55778571,18.285373 1.63580952,18.3373889 1.84835714,18.1194603 L11.0569603,8.6938254 C11.2686111,8.47589683 11.1941746,8.2983254 10.889254,8.2983254 L7.09388889,8.2983254 C6.78986508,8.2983254 6.64637302,8.07322222 6.77551587,7.797 L9.95207143,1.00892857 L9.95207143,1.00892857 Z" stroke="#7EBAB5" stroke-width="1.6002"></path>
                    </g>
                    <path d="M9.36465079,27.0895079 L5.6993254,27.0895079" id="Shape" stroke="#7EBAB5" stroke-width="4.9516" fill="#7EBAB5"></path>
                </g>
            </g>
        </g>
    </g>
</svg>