<?xml version="1.0" encoding="utf-8"?>
<!-- Generator: Adobe Illustrator 21.1.0, SVG Export Plug-In . SVG Version: 6.00 Build 0)  -->
<svg version="1.1" id="Layer_1" xmlns:sketch="http://www.bohemiancoding.com/sketch/ns"
	 xmlns="http://www.w3.org/2000/svg" xmlns:xlink="http://www.w3.org/1999/xlink" x="0px" y="0px" width="113px" height="106px"
	 viewBox="0 0 113 106" style="enable-background:new 0 0 113 106;" xml:space="preserve">
<style type="text/css">
	.st0{fill:#EDA39C;}
	.st1{fill:#B11A29;}
	.st2{fill:#EDA39C;stroke:#B11A29;stroke-miterlimit:10;}
	.st3{fill:#B11A29;stroke:#EDA39C;stroke-width:0.5;stroke-miterlimit:10;}
	.st4{fill:#B11A29;stroke:#EDA39C;stroke-width:0.25;stroke-miterlimit:10;}
	.st5{fill:none;stroke:#B11A29;stroke-width:3;stroke-miterlimit:10;}
</style>
<title>sunlight park</title>
<desc>Created with Sketch.</desc>
<g>
	<g>
		<polygon class="st0" points="1.4,53.2 1.4,2.2 111.5,2.2 111.5,52.9 56,103.3 		"/>
		<path class="st0" d="M110,3.7l0,48.5l-53.9,49L2.9,52.5V3.7H110 M113,0.7H-0.1v53.1L56,105.3l57-51.7L113,0.7L113,0.7z"/>
	</g>
</g>
<path class="st1" d="M67.7,25.5c-2.6-1.3-4.7-6.3-4.7-9.1v-1.1c0-0.8-0.6-1.4-1.4-1.4h-0.1l-1.5,3.5L58.7,14c0-0.1-0.2-0.2-0.3-0.2
	l0,0c-0.5,0-0.3,0-0.8,0.7l-1.5,2.8l-1.5-3.5h-0.3l-1.5,3.5l-1.5-3.5h-0.1c-0.8,0-1.4,0.6-1.4,1.4l0,1.1c0,2.8-2.1,7.9-4.7,9.1
	C36.3,29.9,30.3,39.3,31.1,50c0.8,12,11.6,22.8,23.5,23.7C69.5,74.8,81.9,63,81.9,48.3C81.9,38.3,76.1,29.6,67.7,25.5z"/>
<circle class="st2" cx="56.5" cy="48.7" r="21.9"/>
<g>
	<ellipse class="st3" cx="39.5" cy="46.4" rx="2.2" ry="2.7"/>
	<ellipse transform="matrix(0.5619 -0.8272 0.8272 0.5619 -29.9541 75.5154)" class="st3" cx="56.3" cy="66" rx="2.7" ry="2"/>
	<path class="st3" d="M61.1,32.6c-0.8,1.3-2.4,1.9-3.4,1.3s-1.2-2-0.4-3.3c0.8-1.3,2.4-1.9,3.4-1.3C61.7,29.8,61.9,31.3,61.1,32.6z"
		/>
	<path class="st3" d="M62.6,56.7c-0.9,1.2-2.4,1.8-3.4,1.2c-1-0.6-1.1-2-0.3-3.3c0.9-1.2,2.4-1.8,3.4-1.2
		C63.4,54,63.5,55.4,62.6,56.7z"/>
	<path class="st3" d="M60.6,59.9c0.5,1.4,0.1,3-0.9,3.5s-2.3-0.2-2.8-1.6c-0.5-1.4-0.1-3,0.9-3.5S60.1,58.5,60.6,59.9z"/>
	<path class="st3" d="M56.2,61.9c-0.1,1.8-1.3,3.2-2.6,3.3c-1.4,0.1-2.4-1.3-2.3-3.1s1.3-3.2,2.6-3.3S56.3,60.1,56.2,61.9z"/>
	<ellipse class="st3" cx="41.1" cy="41.5" rx="2.2" ry="2.7"/>
	<ellipse class="st3" cx="63.4" cy="33.2" rx="2.2" ry="2.7"/>
	<ellipse class="st3" cx="56.1" cy="55.1" rx="2.2" ry="2.7"/>
	<ellipse class="st3" cx="60.5" cy="41.4" rx="2.2" ry="2.7"/>
	<path class="st3" d="M50.5,34.2c-1.2,1-2.8,1.3-3.7,0.5c-0.9-0.7-0.6-2.2,0.6-3.2c1.2-1,2.8-1.3,3.7-0.5
		C51.9,31.7,51.6,33.2,50.5,34.2z"/>
	<path class="st3" d="M50.9,38.5c-1.2,0.8-2.8,0.8-3.4,0.1c-0.7-0.8-0.2-2.1,1-2.9c1.2-0.8,2.8-0.8,3.4-0.1
		C52.6,36.4,52.1,37.7,50.9,38.5z"/>
	<path class="st3" d="M54.9,36.7c-1.6,0.1-3-0.7-3.1-1.7c-0.1-1,1.2-1.9,2.9-2c1.6-0.1,3,0.7,3.1,1.7S56.6,36.6,54.9,36.7z"/>
	<path class="st3" d="M54.7,32.5c-1.3,0.2-2.6-0.3-2.8-1.1c-0.2-0.8,0.7-1.7,2.1-2c1.3-0.2,2.6,0.3,2.8,1.1
		C56.9,31.3,56,32.2,54.7,32.5z"/>
	<path class="st3" d="M64,39c-1.3,0.2-2.6-0.3-2.8-1.1c-0.2-0.8,0.7-1.7,2.1-2c1.3-0.2,2.6,0.3,2.8,1.1C66.3,37.9,65.3,38.7,64,39z"
		/>
	<path class="st3" d="M54.3,47.7C53.5,49,52,49.6,50.9,49s-1.2-2-0.4-3.3c0.8-1.3,2.4-1.9,3.4-1.3C55,45,55.2,46.4,54.3,47.7z"/>
	<path class="st3" d="M61.3,37.2c-0.7,1.1-2,1.5-2.8,1.1c-0.9-0.4-1-1.6-0.3-2.7c0.7-1.1,2-1.5,2.8-1.1C61.8,34.9,62,36.1,61.3,37.2
		z"/>
	<path class="st3" d="M61.6,66c0,1.1-0.7,1.9-1.5,2s-1.4-0.7-1.4-1.8c0-1.1,0.7-1.9,1.5-2C61,64.2,61.7,65,61.6,66z"/>
	<path class="st3" d="M45.6,46.6c-0.2,1.2-1.1,2.1-2.1,2.1s-1.7-1.2-1.6-2.4c0.2-1.2,1.1-2.1,2.1-2.1C45,44.3,45.7,45.4,45.6,46.6z"
		/>
	<path class="st3" d="M53.2,40.7c1,1.2,1,2.6,0.1,3.3c-1,0.6-2.6,0.2-3.6-1s-1-2.6-0.1-3.3C50.6,39.1,52.2,39.6,53.2,40.7z"/>
	<path class="st3" d="M56.9,37.7c1.4,0.9,1.9,2.2,1.2,3.1c-0.7,0.9-2.4,0.9-3.7,0c-1.4-0.9-1.9-2.2-1.2-3.1
		C53.8,36.8,55.5,36.8,56.9,37.7z"/>
	<path class="st3" d="M52.9,55c1.1,0.8,1.5,1.9,0.9,2.7s-2,0.7-3.2-0.1c-1.1-0.8-1.5-1.9-0.9-2.7C50.4,54.2,51.8,54.3,52.9,55z"/>
	<path class="st3" d="M44.9,52.1c0.2,1.1-0.4,2.1-1.3,2.2c-0.9,0.1-1.8-0.7-1.9-1.8c-0.2-1.1,0.4-2.1,1.3-2.2
		C43.9,50.2,44.8,51,44.9,52.1z"/>
	<ellipse class="st3" cx="40.8" cy="56.8" rx="2.2" ry="2.7"/>
	<path class="st3" d="M53.6,51c0.6,1.1,0.4,2.3-0.5,2.7c-0.9,0.4-2.2-0.2-2.8-1.3c-0.6-1.1-0.4-2.3,0.5-2.7
		C51.7,49.3,53,49.9,53.6,51z"/>
	<path class="st3" d="M54.1,48.9c0.4-1.4,1.6-2.3,2.7-1.8c1.1,0.4,1.6,2,1.2,3.4s-1.6,2.3-2.7,1.8C54.2,51.9,53.7,50.4,54.1,48.9z"
		/>
	<path class="st3" d="M58.7,43.3c0.7,1.3,0.5,2.8-0.6,3.2C57,47,55.5,46.3,54.8,45c-0.7-1.3-0.5-2.8,0.6-3.2
		C56.5,41.3,58,41.9,58.7,43.3z"/>
	<path class="st3" d="M49.1,62.7c1.1,0.9,1.5,2.2,0.8,2.9c-0.7,0.7-2.2,0.6-3.4-0.3c-1.1-0.9-1.5-2.2-0.8-2.9S47.9,61.9,49.1,62.7z"
		/>
	<path class="st3" d="M51.7,67.7c-1,0.3-1.9-0.1-2-0.8c-0.1-0.7,0.6-1.5,1.6-1.8s1.9,0.1,2,0.8C53.4,66.6,52.7,67.4,51.7,67.7z"/>
	<path class="st3" d="M62.5,60.8c-1.1-0.3-1.8-1.2-1.5-2c0.3-0.8,1.5-1.1,2.7-0.8c1.1,0.3,1.8,1.2,1.5,2
		C64.8,60.7,63.6,61.1,62.5,60.8z"/>
	<path class="st3" d="M59.3,50.7c0.8-0.8,1.8-0.8,2.3-0.2c0.5,0.6,0.2,1.8-0.6,2.5c-0.8,0.8-1.8,0.8-2.3,0.2
		C58.2,52.6,58.5,51.5,59.3,50.7z"/>
	<ellipse class="st3" cx="39.2" cy="51.9" rx="2.2" ry="2.7"/>
	<ellipse class="st3" cx="73.2" cy="46.6" rx="2.2" ry="2.7"/>
	<ellipse class="st3" cx="71.6" cy="41.7" rx="2.2" ry="2.7"/>
	<path class="st3" d="M67.2,47.3c0.2,1.2,1.1,2.1,2.1,2.1c1-0.1,1.7-1.2,1.6-2.4c-0.2-1.2-1.1-2.1-2.1-2.1
		C67.7,45,67,46.1,67.2,47.3z"/>
	<path class="st3" d="M67.8,52.3c-0.2,1.1,0.4,2.1,1.3,2.2c0.9,0.1,1.8-0.7,1.9-1.8c0.2-1.1-0.4-2.1-1.3-2.2S68,51.2,67.8,52.3z"/>
	<ellipse class="st3" cx="71.9" cy="57.1" rx="2.2" ry="2.7"/>
	<ellipse class="st3" cx="73.5" cy="52.1" rx="2.2" ry="2.7"/>
	<path class="st3" d="M62.6,48.2c-0.8,1.3-2.4,1.9-3.4,1.4s-1.2-2-0.4-3.3s2.4-1.9,3.4-1.4C63.3,45.4,63.5,46.9,62.6,48.2z"/>
	<path class="st3" d="M66.3,65.1c-0.9,1.4-2.5,2-3.7,1.4s-1.3-2.1-0.4-3.5s2.5-2,3.7-1.4C67,62.2,67.2,63.7,66.3,65.1z"/>
	<ellipse class="st4" cx="49.7" cy="59.9" rx="1.4" ry="1.7"/>
</g>
<path class="st5" d="M39.7,65.8c10.8-9.4,10.8-24.7,0-34.2"/>
<path class="st5" d="M73.2,32c-10.8,9.4-10.8,24.7,0,34.2"/>
</svg>
