<?xml version="1.0" encoding="UTF-8" standalone="no"?>
<svg width="95px" height="88px" viewBox="0 0 95 88" version="1.1" xmlns="http://www.w3.org/2000/svg" xmlns:xlink="http://www.w3.org/1999/xlink" xmlns:sketch="http://www.bohemiancoding.com/sketch/ns">
    <!-- Generator: Sketch 3.3.3 (12081) - http://www.bohemiancoding.com/sketch -->
    <title>643-colour</title>
    <desc>Created with Sketch.</desc>
    <defs></defs>
    <g id="Page-1" stroke="none" stroke-width="1" fill="none" fill-rule="evenodd" sketch:type="MSPage">
        <g id="643-colour" sketch:type="MSArtboardGroup">
            <g id="beer-643" sketch:type="MSLayerGroup">
                <path d="M46.834341,82.7470735 L4,43.9059853 L4,2 L89.6690783,2 L89.6690783,43.9059853 L46.834341,82.7470735" id="Imported-Layers" fill="#FDF8E6" sketch:type="MSShapeGroup"></path>
                <path d="M0,44.557 L47.062,87.152 L94.125,44.557 L94.125,0 L0,0 L0,44.557 L0,44.557 Z M67.923,59.791 L67.915,59.791 C66.815,59.791 65.92,58.901 65.915,57.799 L65.897,53.424 C66.404,53.367 66.865,53.155 67.274,52.953 C67.528,52.83 67.874,52.659 68.026,52.658 C68.192,52.658 68.464,52.797 68.727,52.931 C69.049,53.096 69.455,53.279 69.897,53.359 L69.915,57.783 C69.92,58.888 69.028,59.786 67.923,59.791 L67.923,59.791 Z M74.251,49.276 C74.107,49.77 73.889,50.217 73.585,50.598 C72.518,50.963 71.42,51.248 70.277,51.407 C70.141,51.407 69.872,51.27 69.635,51.149 C69.207,50.931 68.673,50.658 68.016,50.658 C67.407,50.66 66.869,50.925 66.394,51.157 C66.158,51.273 65.801,51.447 65.661,51.447 L65.66,51.447 C64.492,51.307 63.348,51.034 62.237,50.665 C61.796,49.799 61.485,48.774 61.323,47.593 C61.286,47.317 61.173,47.051 61.03,46.791 C60.934,46.617 60.827,46.446 60.711,46.278 C60.806,46.209 60.882,46.121 60.95,46.028 C61.087,45.84 61.172,45.611 61.183,45.354 C61.244,43.871 61.486,42.289 61.511,42.125 C61.588,41.815 62.311,39.084 64.424,37.062 C65.965,35.585 67.151,34.769 67.768,34.391 C68.398,34.832 69.507,35.682 70.222,36.639 C70.378,36.848 70.792,37.404 71.474,37.404 C71.621,37.404 71.754,37.379 71.871,37.337 C71.885,37.443 71.898,37.544 71.909,37.635 C72.052,38.763 72.144,39.42 72.364,39.824 C72.912,40.83 73.247,41.613 73.427,42.076 C73.43,42.088 73.436,42.099 73.441,42.111 C73.546,42.385 73.593,42.537 73.594,42.541 L74.083,44.151 C74.208,44.664 74.321,45.236 74.398,45.834 C74.548,46.99 74.557,48.227 74.251,49.276 L74.251,49.276 Z M67.707,25.084 L67.707,25.084 C67.155,25.084 66.707,25.532 66.707,26.084 L66.705,32.697 C66.265,32.967 65.631,33.396 64.839,34.032 C64.516,32.975 63.915,31.533 62.829,29.875 C63.069,28.719 63.729,26.176 65.28,23.567 C66.396,21.689 67.213,20.609 67.715,20.023 C68.431,20.857 69.617,22.367 70.749,24.385 C71.543,25.801 72.258,27.657 72.797,29.236 C71.483,31.129 70.793,32.776 70.437,33.959 C69.759,33.351 69.101,32.875 68.705,32.607 L68.707,26.084 C68.707,25.532 68.259,25.084 67.707,25.084 L67.707,25.084 Z M81.525,46.158 C81.593,46.3 81.681,46.414 81.781,46.504 C81.381,46.7 80.975,46.893 80.626,47.059 C79.449,47.619 78.337,48.149 77.635,48.615 C77.192,48.91 76.734,49.166 76.273,49.418 C76.888,46.701 76.047,43.596 75.659,42.4 C76.2,41.655 77.599,39.948 79.782,38.818 C80.101,38.654 80.287,38.376 80.522,37.945 L80.738,38.157 L81.365,38.153 L81.522,38.099 C83.091,37.563 84.345,37.393 85.206,37.356 C84.656,40.085 83.463,42.659 81.72,44.857 C81.257,45.439 81.429,45.961 81.525,46.158 L81.525,46.158 Z M83.062,31.197 C83.132,33.457 82.831,35.084 82.693,35.699 C82.497,35.742 82.306,35.781 82.1,35.836 C82.07,35.557 81.984,35.291 81.775,35.065 L81.396,34.705 L80.956,34.705 C79.962,34.705 79.404,35.771 78.91,36.712 C78.825,36.876 78.75,37.027 78.685,37.137 C78.154,37.422 77.68,37.737 77.233,38.062 L80.425,31.345 C80.661,30.847 80.449,30.25 79.951,30.013 C79.451,29.777 78.855,29.987 78.618,30.488 L74.391,39.384 C74.309,39.227 74.231,39.072 74.139,38.905 C74.061,38.701 73.96,37.908 73.894,37.384 C73.666,35.583 73.529,34.496 72.482,34.425 L72.38,34.421 C72.764,33.188 73.596,31.309 75.393,29.109 C77.713,26.266 80.233,25.03 81.432,24.57 C81.981,25.698 82.966,28.133 83.062,31.197 L83.062,31.197 Z M75.81,15.471 C76.073,15.999 76.46,16.846 76.995,18.164 C77.86,20.299 78.031,22.875 78.062,24.057 C77.342,24.516 76.565,25.094 75.768,25.817 L76.308,23.916 C76.459,23.385 76.15,22.832 75.619,22.681 C75.087,22.523 74.535,22.838 74.384,23.369 L73.671,25.877 C73.309,25.01 72.914,24.157 72.493,23.406 C71.937,22.414 71.377,21.557 70.852,20.812 C71.462,19.912 72.135,18.983 72.868,18.064 C73.767,16.938 74.999,16.014 75.81,15.471 L75.81,15.471 Z M65.129,10.984 C66.005,9.308 66.992,8.325 67.596,7.832 C68.34,8.596 69.664,10.1 70.544,11.921 C71.005,12.875 71.59,14.35 72.158,15.871 C71.861,16.168 71.573,16.482 71.306,16.817 C70.687,17.592 70.112,18.371 69.579,19.133 C69.159,18.623 68.829,18.258 68.64,18.059 L68.591,14.528 C68.583,13.975 68.117,13.58 67.577,13.541 C67.025,13.549 66.583,14.003 66.591,14.555 L66.643,18.233 C66.429,18.449 66.155,18.754 65.822,19.175 C65.276,18.409 64.688,17.625 64.055,16.845 C63.798,16.529 63.521,16.232 63.237,15.949 C63.663,14.388 64.27,12.636 65.129,10.984 L65.129,10.984 Z M58.378,18.242 C58.901,16.916 59.282,16.067 59.538,15.539 C60.354,16.075 61.594,16.99 62.503,18.106 C63.262,19.041 63.957,19.989 64.587,20.903 C64.272,21.379 63.932,21.92 63.56,22.546 C62.948,23.575 62.466,24.59 62.083,25.531 L61.683,22.9 C61.6,22.352 61.09,21.978 60.544,22.062 C59.998,22.145 59.623,22.654 59.706,23.2 L60.23,26.654 C59.241,25.657 58.256,24.883 57.356,24.295 C57.366,23.205 57.488,20.496 58.378,18.242 L58.378,18.242 Z M53.75,24.679 C54.949,25.125 57.463,26.33 59.827,29.173 C62.261,32.103 62.957,34.517 63.152,35.515 C63.113,35.551 63.079,35.58 63.04,35.617 C61.956,36.655 61.183,37.834 60.644,38.879 L57.007,30.915 C56.777,30.412 56.185,30.19 55.682,30.421 C55.18,30.65 54.958,31.243 55.188,31.745 L57.978,37.854 C57.548,37.536 57.09,37.221 56.57,36.919 C56.474,36.779 56.306,36.489 56.19,36.286 C55.725,35.478 55.463,35.048 55.032,34.84 L54.815,34.739 L54.136,34.748 L53.839,35.068 C53.689,35.23 53.611,35.406 53.573,35.601 C53.201,35.492 52.839,35.416 52.482,35.356 C52.33,34.549 52.134,33.137 52.175,31.327 C52.244,28.259 53.212,25.812 53.75,24.679 L53.75,24.679 Z M51.178,37.232 C52.061,37.232 53.058,37.466 54.13,37.925 L54.335,38.013 L54.892,38.007 C55.079,38.286 55.243,38.464 55.458,38.587 C57.783,39.906 59.057,41.549 59.483,42.167 C59.423,42.597 59.327,43.336 59.256,44.166 C59.082,44.151 58.895,44.167 58.698,44.254 L58.224,44.492 L58.102,44.958 C57.893,45.756 58.399,46.471 58.887,47.161 C59.044,47.383 59.307,47.754 59.342,47.863 C59.425,48.477 59.554,49.052 59.705,49.604 C58.048,48.75 56.516,47.646 55.194,46.306 C54.938,46.046 54.458,45.653 53.851,45.154 C53.294,44.696 52.236,43.83 51.53,43.157 C51.533,43.155 51.534,43.152 51.535,43.15 C51.917,42.6 51.882,41.863 51.412,40.607 C50.941,39.345 50.622,38.291 50.417,37.298 C50.619,37.26 50.872,37.232 51.178,37.232 L51.178,37.232 Z M11.063,33.129 C10.992,30.869 11.295,29.242 11.433,28.627 C11.627,28.584 11.819,28.545 12.025,28.49 C12.055,28.771 12.141,29.035 12.349,29.262 L12.729,29.621 L13.169,29.621 C14.163,29.621 14.721,28.555 15.214,27.614 C15.299,27.451 15.374,27.301 15.44,27.19 C15.97,26.905 16.444,26.589 16.892,26.265 L13.7,32.984 C13.464,33.482 13.676,34.078 14.175,34.315 C14.313,34.381 14.459,34.412 14.603,34.412 C14.977,34.412 15.336,34.201 15.507,33.841 L19.734,24.941 C19.816,25.1 19.894,25.254 19.986,25.422 C20.064,25.625 20.165,26.418 20.231,26.942 C20.459,28.744 20.597,29.832 21.643,29.902 L21.736,29.905 C21.346,31.149 20.511,33.041 18.733,35.219 C16.411,38.063 13.889,39.297 12.691,39.758 C12.143,38.635 11.159,36.212 11.063,33.129 L11.063,33.129 Z M26.418,39.242 C26.971,39.242 27.418,38.795 27.418,38.242 L27.42,31.629 C27.86,31.359 28.494,30.931 29.286,30.294 C29.609,31.352 30.209,32.792 31.295,34.45 C31.053,35.61 30.388,38.162 28.846,40.759 C27.73,42.638 26.912,43.718 26.41,44.304 C25.695,43.47 24.509,41.96 23.376,39.942 C22.582,38.526 21.866,36.669 21.327,35.092 C22.642,33.198 23.332,31.551 23.688,30.367 C24.365,30.976 25.024,31.451 25.42,31.719 L25.418,38.242 C25.418,38.794 25.865,39.242 26.418,39.242 L26.418,39.242 Z M18.315,48.856 C18.053,48.327 17.664,47.482 17.13,46.162 C16.265,44.027 16.094,41.451 16.063,40.27 C16.782,39.811 17.56,39.233 18.357,38.51 L17.817,40.41 C17.666,40.942 17.974,41.494 18.505,41.646 C18.597,41.672 18.689,41.684 18.78,41.684 C19.215,41.684 19.616,41.396 19.741,40.957 L20.454,38.45 C20.815,39.317 21.211,40.17 21.632,40.921 C22.188,41.912 22.748,42.771 23.273,43.515 C22.662,44.414 21.99,45.344 21.256,46.263 C20.357,47.388 19.126,48.313 18.315,48.856 L18.315,48.856 Z M28.995,53.342 C28.12,55.019 27.133,56.001 26.529,56.495 C25.784,55.731 24.46,54.227 23.581,52.406 C23.119,51.451 22.535,49.977 21.968,48.455 C22.264,48.158 22.553,47.845 22.819,47.511 C23.439,46.735 24.014,45.957 24.547,45.193 C24.967,45.703 25.296,46.068 25.485,46.268 L25.534,49.799 C25.542,50.347 25.988,50.785 26.533,50.785 L26.548,50.785 C27.1,50.777 27.541,50.323 27.534,49.772 L27.482,46.095 C27.697,45.877 27.97,45.573 28.303,45.152 C28.849,45.918 29.437,46.702 30.07,47.483 C30.327,47.798 30.604,48.096 30.888,48.377 C30.462,49.939 29.855,51.692 28.995,53.342 L28.995,53.342 Z M35.747,46.086 C35.223,47.411 34.842,48.261 34.587,48.787 C33.772,48.252 32.53,47.338 31.622,46.222 C30.863,45.286 30.167,44.339 29.538,43.425 C29.852,42.948 30.193,42.407 30.564,41.78 C31.177,40.751 31.659,39.737 32.042,38.795 L32.442,41.428 C32.517,41.923 32.943,42.278 33.429,42.278 C33.479,42.278 33.529,42.273 33.58,42.266 C34.127,42.183 34.502,41.673 34.419,41.127 L33.895,37.674 C34.884,38.67 35.869,39.444 36.769,40.031 C36.759,41.123 36.637,43.832 35.747,46.086 L35.747,46.086 Z M38.932,18.022 C39.187,18.281 39.665,18.673 40.271,19.17 C40.828,19.628 41.889,20.498 42.595,21.169 C42.593,21.172 42.591,21.174 42.589,21.177 C42.207,21.727 42.243,22.463 42.712,23.719 C43.177,24.963 43.5,26.035 43.706,27.028 C43.505,27.067 43.252,27.095 42.947,27.095 C42.064,27.096 41.068,26.86 39.994,26.402 L39.79,26.313 L39.233,26.32 C39.046,26.041 38.881,25.863 38.667,25.739 C36.342,24.42 35.068,22.778 34.642,22.159 C34.702,21.729 34.799,20.989 34.869,20.16 C35.043,20.18 35.23,20.16 35.427,20.073 L35.902,19.834 L36.024,19.368 C36.232,18.572 35.727,17.857 35.237,17.166 C35.081,16.944 34.817,16.572 34.783,16.463 C34.7,15.85 34.571,15.274 34.419,14.723 C36.077,15.576 37.609,16.682 38.932,18.022 L38.932,18.022 Z M37.118,33.411 C37.286,33.779 37.649,33.996 38.028,33.996 C38.167,33.996 38.308,33.967 38.443,33.905 C38.946,33.676 39.167,33.083 38.937,32.582 L36.147,26.473 C36.577,26.791 37.035,27.106 37.555,27.407 C37.652,27.547 37.819,27.838 37.936,28.041 C38.4,28.848 38.661,29.277 39.097,29.489 L39.313,29.588 L39.99,29.578 L40.286,29.259 C40.436,29.097 40.515,28.92 40.552,28.726 C40.924,28.835 41.286,28.911 41.643,28.972 C41.796,29.779 41.991,31.189 41.95,32.999 C41.881,36.066 40.915,38.51 40.376,39.644 C39.171,39.19 36.642,37.975 34.298,35.155 C31.863,32.223 31.168,29.81 30.973,28.812 C31.012,28.775 31.046,28.746 31.085,28.709 C32.169,27.672 32.942,26.492 33.481,25.447 L37.118,33.411 L37.118,33.411 Z M26.201,4.535 L26.21,4.535 C27.311,4.535 28.205,5.425 28.209,6.527 L28.228,10.9 C27.73,10.959 27.26,11.174 26.852,11.373 C26.599,11.498 26.251,11.668 26.099,11.668 C25.932,11.668 25.661,11.53 25.399,11.395 C25.076,11.23 24.668,11.046 24.228,10.967 L24.21,6.543 C24.205,5.439 25.097,4.541 26.201,4.535 L26.201,4.535 Z M19.873,15.052 C20.017,14.557 20.235,14.11 20.539,13.728 C21.607,13.363 22.706,13.078 23.849,12.92 C23.985,12.92 24.254,13.057 24.49,13.178 C24.919,13.397 25.452,13.668 26.108,13.668 C26.717,13.666 27.256,13.403 27.732,13.17 C27.968,13.054 28.323,12.88 28.465,12.88 C29.634,13.02 30.778,13.293 31.888,13.662 C32.329,14.528 32.641,15.553 32.801,16.734 C32.839,17.008 32.952,17.275 33.095,17.534 C33.191,17.708 33.299,17.88 33.414,18.049 C33.319,18.118 33.242,18.205 33.174,18.299 C33.038,18.486 32.953,18.715 32.942,18.973 C32.882,20.43 32.648,21.984 32.616,22.191 C32.561,22.417 31.852,25.207 29.702,27.265 C28.161,28.74 26.975,29.557 26.357,29.935 C25.727,29.494 24.618,28.645 23.904,27.688 C23.747,27.479 23.333,26.923 22.652,26.923 C22.503,26.923 22.371,26.947 22.253,26.989 C22.24,26.883 22.227,26.782 22.215,26.692 C22.073,25.564 21.981,24.907 21.76,24.502 C21.213,23.498 20.879,22.715 20.698,22.252 C20.694,22.239 20.688,22.227 20.683,22.214 C20.578,21.94 20.53,21.789 20.529,21.785 L20.05,20.209 C19.921,19.688 19.805,19.103 19.726,18.491 C19.577,17.336 19.568,16.101 19.873,15.052 L19.873,15.052 Z M12.6,18.168 C12.532,18.026 12.444,17.914 12.344,17.823 C12.744,17.626 13.149,17.433 13.499,17.267 C14.676,16.707 15.788,16.178 16.489,15.711 C16.932,15.416 17.391,15.16 17.852,14.908 C17.237,17.625 18.077,20.731 18.465,21.926 C17.925,22.671 16.526,24.379 14.344,25.508 C14.024,25.672 13.837,25.95 13.603,26.382 L13.387,26.169 L12.759,26.174 L12.602,26.228 C11.034,26.764 9.78,26.935 8.919,26.972 C9.468,24.242 10.661,21.667 12.405,19.47 C12.867,18.887 12.696,18.365 12.6,18.168 L12.6,18.168 Z" id="Imported-Layers" fill="#088F48" sketch:type="MSShapeGroup"></path>
            </g>
        </g>
    </g>
</svg>