<?xml version="1.0" encoding="utf-8"?>
<!-- Generator: Adobe Illustrator 21.1.0, SVG Export Plug-In . SVG Version: 6.00 Build 0)  -->
<svg version="1.1" id="Layer_1" xmlns:sketch="http://www.bohemiancoding.com/sketch/ns"
	 xmlns="http://www.w3.org/2000/svg" xmlns:xlink="http://www.w3.org/1999/xlink" x="0px" y="0px" width="113px" height="106px"
	 viewBox="0 0 113 106" style="enable-background:new 0 0 113 106;" xml:space="preserve">
<style type="text/css">
	.st0{fill:#67C5C9;}
</style>
<title>sunlight park</title>
<desc>Created with Sketch.</desc>
<g id="Page-1" sketch:type="MSPage">
</g>
<g>
	<polygon points="-0.6,-0.3 112.4,-0.3 112.4,53.1 55.5,104.5 -0.6,53.3 -0.6,-0.3 	"/>
	<path class="st0" d="M24.9,37L24.9,37h-0.2c0,0,0,0,0,0c-2.3-0.1-4.4-1.4-5.4-3.5c-0.1-0.3-0.2-0.6-0.2-1c0-1,0.5-1.8,1.4-2.2
		c0.4-0.2,0.8-0.2,1-0.2c1,0,1.8,0.6,2.2,1.4c0.2,0.4,0.6,0.7,1.1,0.7h0.1c0.5,0,0.9-0.1,1.2-0.4c0.3-0.3,0.4-0.6,0.4-0.9v0
		c-0.1-0.3-1-1-2.2-1.3l-0.1,0c0,0-0.1,0-0.1,0l-0.1,0c-1.2-0.4-2.1-1-2.8-1.7c-0.9-1-1.4-2.2-1.4-3.7l0-0.2c0,0,0,0,0,0
		c0.1-1.5,0.8-2.9,2-3.8c1-0.8,2.4-1.3,3.8-1.3l0.2,0c0,0,0,0,0,0c1.1,0,2.3,0.5,3.4,1.2c0,0,0,0,0,0l0,0c0,0,0,0,0,0
		c0.6,0.5,0.9,1.2,0.9,1.9c0,0.5-0.2,1.1-0.5,1.5c-0.5,0.6-1.2,0.9-1.9,0.9c-0.5,0-1-0.2-1.4-0.5c0,0,0,0,0,0l0,0c0,0,0,0,0,0
		c-0.1-0.1-0.4-0.2-0.6-0.2h-0.1c-0.6,0-0.9,0.2-0.9,0.3V24c0,0.3,0.1,0.5,1,0.9c1.3,0.4,5.4,1.9,5.5,5.6c0,0,0,0,0,0l0,0
		c0,0,0,0,0,0v0.2c0,1.6-0.6,3.2-1.8,4.3C28.3,36.3,26.7,37,24.9,37L24.9,37z"/>
	<path class="st0" d="M24.7,36.1h0.2c1.6,0,3-0.6,4-1.6c1-1,1.5-2.3,1.5-3.7l0-0.2c-0.1-3.1-3.8-4.5-4.9-4.8c0,0,0,0,0,0
		c-0.9-0.4-1.6-0.7-1.6-1.7v-0.1c0,0,0,0,0,0c0-0.7,0.8-1.2,1.8-1.2h0.1c0,0,0,0,0,0c0.4,0,0.8,0.2,1.1,0.4l0,0
		c0.3,0.2,0.6,0.3,0.9,0.3c0.5,0,0.9-0.2,1.2-0.6c0.2-0.3,0.3-0.6,0.3-0.9c0-0.5-0.2-0.9-0.6-1.2l0,0c-0.9-0.7-1.9-1-2.9-1h-0.2
		c-1.2,0-2.4,0.4-3.3,1.1c0,0,0,0,0,0c-1,0.7-1.6,1.9-1.6,3.1l0,0.2c0,1.2,0.4,2.2,1.2,3c0.6,0.6,1.4,1.2,2.5,1.5c0,0,0,0,0,0l0.1,0
		l0,0c1.2,0.4,2.7,1.3,2.8,2c0,0,0,0,0,0.1v0.1c0,0.6-0.2,1.1-0.7,1.5c-0.4,0.4-1.1,0.7-1.8,0.7h-0.1c0,0,0,0,0,0
		c-0.9,0-1.6-0.5-1.9-1.2c-0.2-0.5-0.8-0.9-1.4-0.9c-0.2,0-0.4,0-0.6,0.1c0,0,0,0,0,0c-0.5,0.3-0.9,0.8-0.9,1.4c0,0.3,0,0.5,0.1,0.7
		c0,0,0,0,0,0C20.9,34.9,22.7,36,24.7,36.1L24.7,36.1z"/>
	<path class="st0" d="M46.4,37c-1,0-2-0.7-2.3-1.7c0,0,0,0,0,0l0,0c0,0,0,0,0,0l-1.7-5.7l-1.7,5.6c-0.3,1-1.2,1.7-2.3,1.7
		c-1,0-2-0.7-2.3-1.7c0,0,0,0,0,0l0,0c0,0,0,0,0,0l-4-13.4c-0.1-0.3-0.1-0.6-0.1-0.7c0-1.1,0.7-2,1.7-2.3c0.3-0.1,0.6-0.1,0.7-0.1
		c1.1,0,2,0.7,2.3,1.7l1.7,5.7l1.7-5.7c0,0,0,0,0,0c0.3-1,1.3-1.7,2.3-1.7c1.1,0,2,0.7,2.3,1.7l1.7,5.6l1.7-5.7
		c0.3-1,1.3-1.7,2.3-1.7c0.2,0,0.4,0,0.7,0.1c1,0.3,1.7,1.3,1.7,2.3c0,0.2,0,0.4-0.1,0.7l-4,13.4C48.4,36.3,47.4,37,46.4,37L46.4,37
		z"/>
	<path class="st0" d="M44.9,35c0.2,0.6,0.8,1.1,1.5,1.1c0.7,0,1.3-0.5,1.5-1.1c0,0,0,0,0,0l4-13.4c0,0,0,0,0,0
		c0.1-0.2,0.1-0.3,0.1-0.4c0-0.7-0.4-1.3-1.1-1.5c0,0,0,0,0,0c-0.1-0.1-0.3-0.1-0.4-0.1c-0.7,0-1.3,0.4-1.5,1.1l-2.1,7.1
		c-0.1,0.2-0.2,0.3-0.4,0.3c-0.2,0-0.4-0.1-0.4-0.3l-2.1-7.1c0,0,0,0,0,0c-0.2-0.6-0.8-1.1-1.5-1.1c-0.7,0-1.3,0.5-1.5,1.1l-2.1,7.1
		c-0.1,0.2-0.2,0.3-0.4,0.3l0,0c-0.2,0-0.4-0.1-0.4-0.3l-2.1-7.1c-0.2-0.7-0.8-1.1-1.5-1.1c-0.1,0-0.3,0-0.4,0.1c0,0,0,0,0,0
		c-0.6,0.2-1.1,0.8-1.1,1.5c0,0.1,0,0.3,0.1,0.4c0,0,0,0,0,0l4,13.4c0.2,0.6,0.8,1.1,1.5,1.1c0.7,0,1.3-0.5,1.5-1.1c0,0,0,0,0,0
		l2.1-7.1c0.1-0.2,0.2-0.3,0.4-0.3c0.2,0,0.4,0.1,0.4,0.3L44.9,35L44.9,35z"/>
	<path class="st0" d="M63.4,37h-6.7c-1.3,0-2.4-1.1-2.4-2.4V21.2c0-1.3,1.1-2.4,2.4-2.4h6.7c1.3,0,2.4,1.1,2.4,2.4
		c0,1.3-1.1,2.4-2.4,2.4h-4.3v1.9h4.3c1.3,0,2.4,1.1,2.4,2.4c0,1.3-1.1,2.4-2.4,2.4h-4.3v1.9h4.3c1.3,0,2.4,1.1,2.4,2.4
		C65.8,35.9,64.8,37,63.4,37L63.4,37z"/>
	<path class="st0" d="M56.7,19.7c-0.8,0-1.5,0.7-1.5,1.5v13.4c0,0.8,0.7,1.5,1.5,1.5h6.7c0.8,0,1.5-0.7,1.5-1.5
		c0-0.9-0.7-1.6-1.5-1.6h-4.7c-0.2,0-0.4-0.2-0.4-0.4v-2.7c0-0.2,0.2-0.4,0.4-0.4h4.7c0.8,0,1.5-0.7,1.5-1.5c0-0.8-0.7-1.5-1.5-1.5
		h-4.7c-0.2,0-0.4-0.2-0.4-0.4v-2.7c0-0.2,0.2-0.4,0.4-0.4h4.7c0.8,0,1.5-0.7,1.5-1.6c0-0.8-0.7-1.5-1.5-1.5H56.7L56.7,19.7z"/>
	<path class="st0" d="M76.9,37h-6.7c-1.3,0-2.4-1.1-2.4-2.4V21.2c0-1.3,1.1-2.4,2.4-2.4h6.7c1.3,0,2.4,1.1,2.4,2.4
		c0,1.3-1.1,2.4-2.4,2.4h-4.3v1.9h4.3c1.3,0,2.4,1.1,2.4,2.4c0,1.3-1.1,2.4-2.4,2.4h-4.3v1.9h4.3c1.3,0,2.4,1.1,2.4,2.4
		C79.3,35.9,78.3,37,76.9,37L76.9,37z"/>
	<path class="st0" d="M70.2,19.7c-0.8,0-1.5,0.7-1.5,1.5v13.4c0,0.8,0.7,1.5,1.5,1.5h6.7c0.8,0,1.5-0.7,1.5-1.5
		c0-0.9-0.7-1.6-1.5-1.6h-4.7c-0.2,0-0.4-0.2-0.4-0.4v-2.7c0-0.2,0.2-0.4,0.4-0.4h4.7c0.8,0,1.5-0.7,1.5-1.5c0-0.8-0.7-1.5-1.5-1.5
		h-4.7c-0.2,0-0.4-0.2-0.4-0.4v-2.7c0-0.2,0.2-0.4,0.4-0.4h4.7c0.8,0,1.5-0.7,1.5-1.6c0-0.8-0.7-1.5-1.5-1.5H70.2L70.2,19.7z"/>
	<path class="st0" d="M24.7,59.7c-0.1,0-0.1,0-0.2,0c-1.4,0-2.7-0.5-3.6-1.4c-1.2-1.1-1.8-2.6-1.8-4.5c0-1.3,1.1-2.4,2.4-2.4
		c1.3,0,2.4,1.1,2.4,2.4c0,0.6,0.1,0.9,0.2,0.9c0,0,0.2,0.1,0.5,0.1h0c0,0,0,0,0,0c0.4,0,0.6-0.1,0.8-0.4c0.1-0.2,0.1-0.5,0.1-0.5
		v-7.6h-1.2c-1.3,0-2.4-1.1-2.4-2.4c0-1.3,1.1-2.4,2.4-2.4h3.3c0.1,0,0.1,0,0.2,0c0,0,0.1,0,0.1,0c1.3,0,2.4,1.1,2.4,2.4V54
		c0,0.1,0,1.4-0.7,2.8C28.8,58.7,27,59.7,24.7,59.7L24.7,59.7z"/>
	<path class="st0" d="M21.5,52.3c-0.8,0-1.5,0.7-1.5,1.5c0,1.7,0.5,3,1.5,3.9c0.8,0.7,1.9,1.1,3.1,1.1c0,0,0,0,0,0c0,0,0.1,0,0.1,0
		c2,0,3.5-0.9,4.3-2.5c0.6-1.2,0.6-2.2,0.6-2.4V43.9c0-0.8-0.7-1.5-1.6-1.5c0,0,0,0-0.1,0c0,0,0,0-0.1,0c-0.1,0-0.1,0-0.2,0h-3.3
		c-0.8,0-1.5,0.7-1.5,1.5c0,0.8,0.7,1.5,1.5,1.5h1.6c0.2,0,0.4,0.2,0.4,0.4V54c0,0,0,0,0,0c0,0.5-0.4,1.8-1.8,1.8l0,0c0,0,0,0,0,0
		c-0.4,0-0.8-0.1-1.1-0.3c-0.4-0.3-0.5-1.1-0.5-1.6C23,53,22.3,52.3,21.5,52.3L21.5,52.3z"/>
	<path class="st0" d="M43.1,59.7h-7.3c-1.3,0-2.4-1.1-2.4-2.4V43.9c0-1.3,1.1-2.4,2.4-2.4h7.3c1.3,0,2.4,1.1,2.4,2.4
		c0,1.4-1.1,2.4-2.4,2.4h-4.9v1.9h3.6c1.3,0,2.4,1.1,2.4,2.4c0,1.3-1.1,2.4-2.4,2.4h-3.6v1.9h4.9c1.4,0,2.4,1.1,2.4,2.4
		C45.6,58.7,44.5,59.7,43.1,59.7L43.1,59.7z"/>
	<path class="st0" d="M35.8,42.4c-0.9,0-1.6,0.7-1.6,1.5v13.4c0,0.8,0.7,1.5,1.6,1.5h7.3c0.9,0,1.6-0.7,1.6-1.5
		c0-0.9-0.7-1.6-1.6-1.6h-5.4c-0.2,0-0.4-0.2-0.4-0.4v-2.7c0-0.2,0.2-0.4,0.4-0.4h4c0.8,0,1.5-0.7,1.5-1.5c0-0.8-0.7-1.5-1.5-1.5h-4
		c-0.2,0-0.4-0.2-0.4-0.4v-2.7c0-0.2,0.2-0.4,0.4-0.4h5.4c0.9,0,1.6-0.7,1.6-1.6c0-0.8-0.7-1.5-1.6-1.5H35.8L35.8,42.4z"/>
	<path class="st0" d="M68.5,59.7c-1.4,0-2.6-0.3-3.6-1c-1-0.6-1.8-1.6-2.4-2.8c-0.7-1.6-0.8-3.2-0.8-3.4v-8.7c0-1.3,1.1-2.4,2.4-2.4
		c1.3,0,2.4,1.1,2.4,2.4v8.7c0,0.1,0,0.6,0.3,1.2c0.3,0.7,0.9,1.1,1.6,1.1c0.8,0,1.3-0.3,1.6-1.1c0.3-0.6,0.3-1.2,0.3-1.2v-8.7
		c0-1.3,1.1-2.4,2.4-2.4c1.3,0,2.4,1.1,2.4,2.4v8.7c0,0.4-0.1,1.9-0.7,3.4C73.3,58.4,71.2,59.7,68.5,59.7L68.5,59.7z"/>
	<path class="st0" d="M64.1,42.4c-0.8,0-1.5,0.7-1.5,1.5v8.7c0,0.2,0,1.6,0.7,3c0.5,1,1.2,1.8,2.1,2.4c0.9,0.6,1.9,0.8,3.1,0.8
		c1.2,0,2.3-0.3,3.1-0.8c0.9-0.6,1.6-1.4,2.1-2.4c0.6-1.3,0.7-2.6,0.7-3v-8.7c0-0.8-0.7-1.5-1.5-1.5c-0.8,0-1.5,0.7-1.5,1.5v8.7
		c0,0,0,0.8-0.4,1.6c-0.5,1-1.3,1.6-2.4,1.6c-1.1,0-2-0.6-2.5-1.6c-0.4-0.8-0.4-1.5-0.4-1.6v-8.7C65.6,43.1,64.9,42.4,64.1,42.4
		L64.1,42.4z"/>
	<path class="st0" d="M83.5,59.7L83.5,59.7h-0.2c0,0,0,0,0,0c-2.4-0.1-4.4-1.4-5.4-3.5c-0.1-0.3-0.2-0.6-0.2-1c0-1,0.5-1.8,1.4-2.2
		c0.4-0.2,0.8-0.2,1-0.2c1,0,1.8,0.6,2.2,1.4c0.2,0.4,0.6,0.7,1.1,0.7h0.1c0.5,0,0.9-0.1,1.2-0.4c0.3-0.3,0.4-0.6,0.4-0.9v0
		c-0.1-0.3-1-1-2.2-1.3l-0.1,0c0,0-0.1,0-0.1,0l-0.1,0c-1.2-0.4-2.1-1-2.8-1.7c-0.9-1-1.4-2.2-1.4-3.7l0-0.2c0,0,0,0,0,0
		c0.1-1.5,0.8-2.9,2-3.8c1-0.8,2.4-1.3,3.8-1.3l0.2,0c0,0,0,0,0,0c1.2,0,2.4,0.5,3.4,1.2c0,0,0,0,0,0l0,0c0,0,0,0,0,0
		c0.6,0.5,0.9,1.2,0.9,1.9c0,0.5-0.2,1.1-0.5,1.5c-0.5,0.6-1.2,0.9-1.9,0.9c-0.5,0-1-0.2-1.4-0.5c0,0,0,0,0,0l0,0c0,0,0,0,0,0
		c-0.1-0.1-0.4-0.2-0.6-0.2h-0.1c-0.6,0-0.9,0.2-0.9,0.3v0.1c0,0.3,0.1,0.5,1.1,0.9c1.3,0.4,5.4,1.9,5.5,5.6c0,0,0,0,0,0v0
		c0,0,0,0,0,0v0.2c0,1.6-0.6,3.2-1.8,4.3C86.9,59,85.3,59.7,83.5,59.7L83.5,59.7z"/>
	<path class="st0" d="M83.3,58.8h0.2c1.6,0,3-0.6,4-1.6c1-1,1.5-2.3,1.5-3.7l0-0.2c-0.1-3.1-3.8-4.5-4.9-4.8c0,0,0,0,0,0
		c-0.9-0.4-1.6-0.7-1.6-1.7v-0.1c0,0,0,0,0,0c0-0.7,0.8-1.2,1.8-1.2h0.1c0,0,0,0,0,0c0.4,0,0.8,0.2,1.1,0.4l0,0
		c0.3,0.2,0.6,0.3,0.9,0.3c0.5,0,0.9-0.2,1.2-0.6c0.2-0.3,0.3-0.6,0.3-0.9c0-0.5-0.2-0.9-0.6-1.2l0,0c-0.9-0.7-1.9-1-2.9-1h-0.2
		c-1.2,0-2.4,0.4-3.3,1.1c0,0,0,0,0,0c-1,0.7-1.6,1.9-1.6,3.1l0,0.2c0,1.2,0.4,2.2,1.2,3c0.6,0.6,1.4,1.2,2.5,1.5c0,0,0,0,0,0l0.1,0
		l0,0c1.2,0.4,2.7,1.3,2.8,2c0,0,0,0,0,0.1v0.1c0,0.6-0.2,1.1-0.7,1.5c-0.4,0.4-1.1,0.7-1.8,0.7h-0.1c0,0,0,0,0,0
		c-0.9,0-1.6-0.5-1.9-1.2c-0.2-0.5-0.8-0.9-1.4-0.9c-0.2,0-0.4,0-0.6,0.1c0,0,0,0,0,0c-0.5,0.3-0.9,0.8-0.9,1.4c0,0.3,0,0.5,0.1,0.7
		c0,0,0,0,0,0C79.5,57.6,81.3,58.7,83.3,58.8L83.3,58.8z"/>
	<path class="st0" d="M49.6,59.5L49.6,59.5c-0.4,0-0.7-0.2-0.9-0.5c-0.2-0.3-0.3-0.8-0.1-1.2l2-4.7h-2c-0.6,0-1-0.3-1.2-0.8
		c-0.2-0.5-0.1-1,0.3-1.4l8.4-8.7c0.1-0.1,0.4-0.5,0.9-0.5c0.4,0,0.7,0.2,0.9,0.5c0.2,0.4,0.2,0.8,0,1.2l-2.3,5h2.2
		c0.6,0,1,0.3,1.2,0.8c0.2,0.5,0.1,1-0.3,1.4l-8.2,8.4C50.5,59.2,50.2,59.5,49.6,59.5L49.6,59.5z"/>
	<path class="st0" d="M57.1,42.6c-0.1,0-0.2,0.1-0.3,0.2l-8.4,8.7c-0.1,0.1-0.2,0.3-0.1,0.5c0.1,0.2,0.3,0.2,0.4,0.2h2.7
		c0.1,0,0.3,0.1,0.4,0.2c0.1,0.1,0.1,0.3,0,0.4l-2.2,5.3c-0.1,0.1-0.1,0.3,0,0.4c0,0.1,0.1,0.1,0.2,0.1c0.1,0,0.2-0.1,0.3-0.2
		l8.2-8.4c0.1-0.1,0.2-0.3,0.1-0.5c-0.1-0.2-0.3-0.2-0.4-0.2H55c-0.2,0-0.3-0.1-0.4-0.2c-0.1-0.1-0.1-0.3,0-0.4l2.6-5.6
		c0.1-0.2,0.1-0.3,0-0.4C57.2,42.7,57.2,42.6,57.1,42.6L57.1,42.6z"/>
	<path class="st0" d="M86.5,37c-1.3,0-2.4-1.1-2.4-2.4v-11h-1.6c-1.3,0-2.4-1.1-2.4-2.4c0-1.3,1.1-2.4,2.4-2.4h8
		c1.3,0,2.4,1.1,2.4,2.4c0,1.3-1.1,2.4-2.4,2.4h-1.6v11C88.9,36,87.8,37,86.5,37L86.5,37z"/>
	<path class="st0" d="M82.4,19.7c-0.8,0-1.5,0.7-1.5,1.5c0,0.8,0.7,1.5,1.5,1.5h2.1c0.2,0,0.4,0.2,0.4,0.4v11.5
		c0,0.8,0.7,1.5,1.5,1.5c0.8,0,1.5-0.7,1.5-1.5V23.2c0-0.2,0.2-0.4,0.4-0.4h2c0.8,0,1.5-0.7,1.5-1.5c0-0.8-0.7-1.5-1.5-1.5H82.4
		L82.4,19.7z"/>
</g>
</svg>
