<?xml version="1.0" encoding="utf-8"?>
<!-- Generator: Adobe Illustrator 16.0.0, SVG Export Plug-In . SVG Version: 6.00 Build 0)  -->
<!DOCTYPE svg PUBLIC "-//W3C//DTD SVG 1.1//EN" "http://www.w3.org/Graphics/SVG/1.1/DTD/svg11.dtd">
<svg version="1.1" id="Layer_1" xmlns="http://www.w3.org/2000/svg" xmlns:xlink="http://www.w3.org/1999/xlink" x="0px" y="0px"
	 width="98.125px" height="91.85px" viewBox="0 0 98.125 91.85" enable-background="new 0 0 98.125 91.85" xml:space="preserve">
<polygon points="0,0 97.967,0 97.94,46.228 48.591,90.861 0,46.442 "/>
<g>
	<path fill="#66C5C9" d="M22.059,31.99L22.059,31.99h-0.181c-0.003,0-0.008,0-0.013,0c-2.037-0.071-3.828-1.235-4.674-3.039
		c-0.129-0.265-0.192-0.56-0.192-0.904c0-0.828,0.464-1.556,1.212-1.902c0.351-0.171,0.67-0.191,0.881-0.191
		c0.833,0,1.59,0.481,1.929,1.228c0.166,0.365,0.529,0.59,0.97,0.604h0.087c0.441,0,0.788-0.122,1.028-0.361
		c0.224-0.225,0.342-0.491,0.342-0.77v-0.008c-0.102-0.217-0.87-0.832-1.871-1.121L21.53,25.51
		c-0.022-0.006-0.044-0.014-0.065-0.024l-0.077-0.038c-1.004-0.368-1.819-0.878-2.425-1.514c-0.813-0.857-1.228-1.924-1.228-3.172
		l0.001-0.181c0-0.006,0-0.01,0-0.015c0.051-1.322,0.664-2.486,1.723-3.278c0.905-0.702,2.076-1.087,3.296-1.087l0.192,0
		c0.003,0,0.006,0,0.01,0c0.996,0.023,2.037,0.401,2.926,1.061c0.001,0.001,0.004,0.002,0.006,0.004l0.016,0.013
		c0.001,0,0.003,0.002,0.004,0.003c0.516,0.413,0.812,1.013,0.812,1.649c0,0.462-0.163,0.93-0.445,1.282
		c-0.413,0.516-1.021,0.811-1.668,0.811c-0.465,0-0.886-0.134-1.249-0.398c-0.002-0.002-0.006-0.003-0.007-0.006l-0.021-0.016
		c-0.003-0.001-0.005-0.003-0.007-0.005c-0.129-0.103-0.324-0.177-0.5-0.192h-0.089c-0.521,0-0.801,0.205-0.812,0.297v0.058
		c0,0.276,0.082,0.425,0.909,0.767c1.116,0.342,4.664,1.681,4.803,4.885c0,0.003,0,0.005,0,0.009l0.001,0.024
		c0,0.002,0,0.005,0,0.007v0.2c0,1.385-0.558,2.738-1.53,3.709C25.056,31.413,23.618,31.99,22.059,31.99z"/>
	<path fill="#66C5C9" d="M21.887,31.224h0.172c1.354,0,2.599-0.499,3.504-1.403c0.83-0.829,1.306-1.983,1.306-3.167l-0.001-0.21
		c-0.121-2.716-3.304-3.89-4.277-4.186c-0.011-0.004-0.022-0.008-0.034-0.013c-0.794-0.327-1.401-0.644-1.401-1.483v-0.07
		c0-0.005,0-0.01,0-0.016c0.025-0.6,0.689-1.036,1.58-1.036h0.104c0.008,0,0.017,0,0.025,0c0.333,0.023,0.684,0.156,0.936,0.357
		l0.013,0.01c0.23,0.166,0.498,0.249,0.795,0.249c0.414,0,0.804-0.19,1.069-0.522c0.176-0.22,0.276-0.512,0.276-0.803
		c0-0.401-0.189-0.783-0.52-1.049l-0.01-0.007c-0.761-0.564-1.641-0.885-2.479-0.907h-0.188c-1.052,0-2.056,0.33-2.828,0.928
		c-0.003,0.002-0.004,0.003-0.006,0.005c-0.871,0.649-1.374,1.604-1.418,2.688l-0.001,0.173c0,1.044,0.342,1.933,1.017,2.643
		c0.527,0.554,1.25,1.001,2.153,1.329c0.014,0.005,0.026,0.011,0.039,0.018l0.065,0.032l0.016,0.004
		c1.081,0.312,2.342,1.114,2.42,1.764c0.003,0.015,0.003,0.031,0.003,0.045v0.057c0,0.488-0.196,0.941-0.566,1.312
		c-0.39,0.389-0.919,0.586-1.571,0.586h-0.093c-0.004,0-0.008,0-0.011,0c-0.742-0.02-1.359-0.415-1.652-1.052
		c-0.214-0.474-0.697-0.778-1.23-0.778c-0.147,0-0.342,0.013-0.547,0.113c-0.003,0.002-0.006,0.003-0.009,0.004
		c-0.475,0.219-0.771,0.683-0.771,1.208c0,0.226,0.038,0.412,0.116,0.569c0.001,0.002,0.002,0.004,0.003,0.007
		C18.606,30.164,20.139,31.16,21.887,31.224z"/>
	<path fill="#66C5C9" d="M40.689,32.031c-0.902,0-1.729-0.612-2.009-1.488c0-0.001,0-0.003-0.001-0.003l-0.003-0.01
		c-0.001-0.001-0.001-0.002-0.001-0.003l-1.47-4.904l-1.468,4.896c-0.254,0.89-1.082,1.512-2.016,1.512
		c-0.903,0-1.729-0.612-2.008-1.488c-0.001-0.001-0.001-0.003-0.001-0.003l-0.003-0.009c0-0.001,0-0.002-0.001-0.004L28.233,18.95
		c-0.088-0.249-0.088-0.478-0.088-0.617c0-0.926,0.59-1.738,1.468-2.021c0.253-0.092,0.485-0.092,0.625-0.092
		c0.927,0,1.736,0.603,2.011,1.5l1.473,4.909l1.472-4.913c0.001-0.001,0.001-0.004,0.003-0.006c0.28-0.877,1.105-1.49,2.008-1.49
		c0.934,0,1.762,0.622,2.015,1.513l1.469,4.896l1.469-4.902c0.278-0.901,1.095-1.506,2.034-1.506c0.141,0,0.377,0,0.631,0.093
		c0.862,0.289,1.441,1.091,1.441,2c0,0.145,0,0.363-0.082,0.62L42.705,30.52C42.451,31.409,41.623,32.031,40.689,32.031z"/>
	<path fill="#66C5C9" d="M39.413,30.311c0.18,0.562,0.704,0.953,1.276,0.953c0.593,0,1.119-0.393,1.278-0.957
		c0.001-0.001,0.001-0.003,0.002-0.006l3.48-11.594c0-0.002,0.001-0.005,0.002-0.008c0.047-0.142,0.047-0.266,0.047-0.386
		c0-0.579-0.371-1.091-0.923-1.273c-0.005-0.001-0.009-0.003-0.013-0.004c-0.127-0.047-0.262-0.047-0.37-0.047
		c-0.6,0-1.123,0.386-1.299,0.96l-1.837,6.126c-0.048,0.162-0.198,0.274-0.367,0.274c-0.17,0-0.318-0.112-0.367-0.274l-1.836-6.125
		c0-0.002-0.001-0.004-0.001-0.005c-0.16-0.563-0.687-0.957-1.279-0.957c-0.571,0-1.097,0.391-1.277,0.952l-1.839,6.135
		c-0.049,0.162-0.197,0.274-0.367,0.274l0,0c-0.17,0-0.319-0.112-0.368-0.274l-1.838-6.133c-0.175-0.569-0.688-0.954-1.277-0.954
		c-0.108,0-0.241,0-0.368,0.047c-0.005,0.002-0.011,0.003-0.017,0.005c-0.562,0.181-0.941,0.701-0.941,1.294
		c0,0.107,0,0.24,0.045,0.365c0.003,0.007,0.004,0.014,0.006,0.021l3.48,11.592c0.18,0.562,0.705,0.953,1.277,0.953
		c0.593,0,1.119-0.393,1.277-0.957c0.001-0.001,0.002-0.003,0.002-0.006l1.836-6.124c0.048-0.163,0.198-0.274,0.368-0.274
		c0.169,0,0.318,0.112,0.368,0.274L39.413,30.311z"/>
	<path fill="#66C5C9" d="M55.479,32.031h-5.812c-1.154,0-2.093-0.939-2.093-2.093V18.313c0-1.153,0.939-2.093,2.093-2.093h5.812
		c1.154,0,2.094,0.94,2.094,2.093c0,1.166-0.939,2.113-2.094,2.113h-3.72v1.607h3.72c1.154,0,2.094,0.938,2.094,2.092
		c0,1.155-0.939,2.093-2.094,2.093h-3.72v1.606h3.72c1.154,0,2.094,0.947,2.094,2.113C57.572,31.092,56.633,32.031,55.479,32.031z"
		/>
	<path fill="#66C5C9" d="M49.667,16.988c-0.732,0-1.326,0.595-1.326,1.325v11.626c0,0.73,0.594,1.325,1.326,1.325h5.812
		c0.731,0,1.326-0.595,1.326-1.325c0-0.742-0.595-1.347-1.326-1.347h-4.104c-0.211,0-0.383-0.171-0.383-0.383v-2.374
		c0-0.212,0.172-0.383,0.383-0.383h4.104c0.731,0,1.326-0.595,1.326-1.326S56.21,22.8,55.479,22.8h-4.104
		c-0.211,0-0.383-0.172-0.383-0.384v-2.373c0-0.212,0.172-0.384,0.383-0.384h4.104c0.731,0,1.326-0.604,1.326-1.347
		c0-0.73-0.595-1.325-1.326-1.325H49.667z"/>
	<path fill="#66C5C9" d="M67.184,32.031h-5.812c-1.153,0-2.094-0.939-2.094-2.093V18.313c0-1.153,0.94-2.093,2.094-2.093h5.812
		c1.153,0,2.092,0.94,2.092,2.093c0,1.166-0.938,2.113-2.092,2.113h-3.72v1.607h3.72c1.153,0,2.092,0.938,2.092,2.092
		c0,1.155-0.938,2.093-2.092,2.093h-3.72v1.606h3.72c1.153,0,2.092,0.947,2.092,2.113C69.275,31.092,68.337,32.031,67.184,32.031z"
		/>
	<path fill="#66C5C9" d="M61.371,16.988c-0.731,0-1.326,0.595-1.326,1.325v11.626c0,0.73,0.595,1.325,1.326,1.325h5.812
		c0.731,0,1.325-0.595,1.325-1.325c0-0.742-0.594-1.347-1.325-1.347H63.08c-0.213,0-0.384-0.171-0.384-0.383v-2.374
		c0-0.212,0.171-0.383,0.384-0.383h4.104c0.731,0,1.325-0.595,1.325-1.326S67.915,22.8,67.184,22.8H63.08
		c-0.213,0-0.384-0.172-0.384-0.384v-2.373c0-0.212,0.171-0.384,0.384-0.384h4.104c0.731,0,1.325-0.604,1.325-1.347
		c0-0.73-0.594-1.325-1.325-1.325H61.371z"/>
	<path fill="#66C5C9" d="M21.875,51.732c-0.051,0-0.104-0.002-0.161-0.007c-1.253-0.03-2.347-0.438-3.162-1.179
		c-1.016-0.922-1.53-2.242-1.53-3.925c0-1.159,0.942-2.101,2.101-2.101s2.102,0.942,2.102,2.101c0,0.549,0.113,0.777,0.152,0.815
		c0.025,0.021,0.166,0.087,0.463,0.09h0.002c0.012-0.001,0.022-0.001,0.034-0.001c0.331,0,0.549-0.116,0.686-0.362
		c0.109-0.198,0.126-0.412,0.127-0.44v-6.608h-1.001c-1.158,0-2.1-0.942-2.1-2.101c0-1.158,0.942-2.1,2.1-2.1h2.834
		c0.064,0,0.13,0.002,0.195,0.008c0.022,0,0.043,0,0.065,0c1.167,0,2.114,0.938,2.114,2.092v8.719c0,0.122-0.016,1.23-0.596,2.39
		C25.457,50.805,23.886,51.732,21.875,51.732z"/>
	<path fill="#66C5C9" d="M19.122,45.287c-0.735,0-1.333,0.598-1.333,1.334c0,1.457,0.431,2.586,1.278,3.357
		c0.679,0.616,1.605,0.955,2.676,0.979c0.008,0,0.015,0.002,0.024,0.002c0.039,0.003,0.075,0.005,0.108,0.005
		c1.705,0,3.032-0.776,3.737-2.185c0.501-1.003,0.515-1.943,0.515-2.048v-8.719c0-0.73-0.604-1.325-1.347-1.325
		c-0.019,0-0.039,0-0.06,0.001c-0.019,0.001-0.039,0.001-0.058-0.001c-0.048-0.006-0.096-0.008-0.143-0.008h-2.834
		c-0.735,0-1.333,0.598-1.333,1.333c0,0.735,0.598,1.333,1.333,1.333h1.385c0.213,0,0.385,0.172,0.385,0.384v7
		c0,0.002,0,0.005,0,0.007c-0.009,0.434-0.309,1.556-1.581,1.556l-0.022,0.001c-0.004,0-0.008,0-0.012,0
		c-0.304-0.002-0.721-0.054-0.98-0.29c-0.334-0.303-0.404-0.92-0.404-1.383C20.456,45.885,19.857,45.287,19.122,45.287z"/>
	<path fill="#66C5C9" d="M37.879,51.732H31.51c-1.165,0-2.113-0.939-2.113-2.092V38.013c0-1.154,0.948-2.092,2.113-2.092h6.369
		c1.165,0,2.113,0.938,2.113,2.092c0,1.185-0.928,2.113-2.113,2.113h-4.277v1.606h3.123c1.154,0,2.093,0.939,2.093,2.093
		c0,1.155-0.939,2.094-2.093,2.094h-3.123v1.606h4.277c1.185,0,2.113,0.929,2.113,2.114C39.992,50.792,39.044,51.732,37.879,51.732z
		"/>
	<path fill="#66C5C9" d="M31.51,36.688c-0.743,0-1.346,0.595-1.346,1.325V49.64c0,0.729,0.603,1.325,1.346,1.325h6.369
		c0.742,0,1.345-0.596,1.345-1.325c0-0.756-0.591-1.347-1.345-1.347h-4.661c-0.211,0-0.383-0.173-0.383-0.383v-2.375
		c0-0.211,0.172-0.383,0.383-0.383h3.507c0.731,0,1.325-0.595,1.325-1.326c0-0.731-0.594-1.325-1.325-1.325h-3.507
		c-0.211,0-0.383-0.172-0.383-0.384v-2.374c0-0.211,0.172-0.383,0.383-0.383h4.661c0.754,0,1.345-0.59,1.345-1.346
		c0-0.73-0.603-1.325-1.345-1.325H31.51z"/>
	<path fill="#66C5C9" d="M59.834,51.732c-1.181,0-2.232-0.283-3.128-0.84c-0.897-0.559-1.599-1.369-2.082-2.408
		c-0.647-1.41-0.665-2.774-0.665-2.925v-7.545c0-1.154,0.939-2.092,2.093-2.092c1.154,0,2.094,0.938,2.094,2.092v7.538
		c0.002,0.046,0.031,0.56,0.27,1.057c0.294,0.617,0.758,0.917,1.419,0.917c0.652,0,1.109-0.3,1.401-0.917
		c0.236-0.497,0.266-1.011,0.268-1.057v-7.538c0-1.154,0.939-2.092,2.094-2.092s2.092,0.938,2.092,2.092v7.545
		c0,0.356-0.046,1.62-0.644,2.919C64.068,50.576,62.218,51.732,59.834,51.732z"/>
	<path fill="#66C5C9" d="M56.052,36.688c-0.731,0-1.326,0.595-1.326,1.325v7.545c0,0.133,0.019,1.344,0.595,2.603
		c0.42,0.9,1.022,1.602,1.791,2.08c0.771,0.48,1.688,0.724,2.723,0.724s1.951-0.243,2.722-0.724
		c0.771-0.479,1.373-1.182,1.795-2.086c0.529-1.156,0.572-2.28,0.572-2.597v-7.545c0-0.73-0.595-1.325-1.326-1.325
		s-1.326,0.595-1.326,1.325v7.545c0,0.006-0.015,0.666-0.325,1.344c-0.416,0.908-1.146,1.391-2.111,1.391
		c-0.974,0-1.709-0.481-2.129-1.391c-0.312-0.679-0.328-1.338-0.328-1.344v-7.545C57.377,37.283,56.782,36.688,56.052,36.688z"/>
	<path fill="#66C5C9" d="M72.851,51.692L72.851,51.692h-0.178c-0.005,0-0.009,0-0.013,0c-2.038-0.071-3.83-1.237-4.676-3.039
		c-0.129-0.265-0.191-0.561-0.191-0.905c0-0.826,0.464-1.555,1.211-1.902c0.35-0.171,0.671-0.191,0.882-0.191
		c0.832,0,1.59,0.481,1.93,1.228c0.167,0.363,0.529,0.59,0.97,0.604h0.087c0.442,0,0.788-0.121,1.028-0.361
		c0.224-0.225,0.342-0.49,0.342-0.77v-0.008c-0.102-0.216-0.872-0.832-1.871-1.121l-0.047-0.014
		c-0.023-0.006-0.045-0.016-0.064-0.026l-0.079-0.038c-1.003-0.368-1.818-0.877-2.424-1.514c-0.813-0.856-1.228-1.924-1.228-3.171
		l0.002-0.182c0-0.005,0-0.01,0-0.014c0.05-1.323,0.662-2.485,1.722-3.278c0.904-0.702,2.075-1.088,3.295-1.088l0.194,0
		c0.002,0,0.006,0,0.008,0c0.998,0.023,2.037,0.401,2.925,1.061c0.003,0.001,0.005,0.002,0.006,0.003l0.017,0.013
		c0.002,0.001,0.004,0.002,0.006,0.004c0.514,0.412,0.81,1.013,0.81,1.648c0,0.462-0.161,0.931-0.444,1.284
		c-0.412,0.515-1.02,0.81-1.667,0.81c-0.466,0-0.887-0.134-1.251-0.399c-0.002-0.001-0.004-0.003-0.006-0.004l-0.021-0.016
		c-0.003-0.001-0.005-0.003-0.007-0.006c-0.129-0.103-0.325-0.177-0.5-0.192h-0.088c-0.521,0-0.803,0.206-0.815,0.297v0.059
		c0,0.275,0.085,0.424,0.911,0.767c1.116,0.341,4.663,1.68,4.803,4.885c0,0.003,0,0.005,0,0.007v0.023c0,0.004,0,0.008,0,0.01v0.2
		c0,1.385-0.557,2.737-1.527,3.709C75.851,51.114,74.412,51.692,72.851,51.692z"/>
	<path fill="#66C5C9" d="M72.681,50.924h0.172c1.354,0,2.599-0.498,3.503-1.403c0.832-0.828,1.307-1.983,1.307-3.166l-0.002-0.21
		c-0.12-2.716-3.303-3.892-4.276-4.187c-0.012-0.004-0.022-0.008-0.033-0.012c-0.795-0.327-1.402-0.645-1.402-1.483v-0.07
		c0-0.006,0-0.011,0-0.016c0.024-0.601,0.69-1.036,1.581-1.036h0.102c0.008,0,0.018,0,0.027,0c0.333,0.023,0.681,0.156,0.935,0.357
		l0.013,0.01c0.229,0.166,0.496,0.249,0.796,0.249c0.412,0,0.802-0.19,1.068-0.522c0.174-0.219,0.275-0.512,0.275-0.804
		c0-0.4-0.189-0.782-0.52-1.047l-0.011-0.008c-0.76-0.564-1.641-0.886-2.479-0.907h-0.188c-1.052,0-2.056,0.33-2.826,0.929
		c-0.004,0.001-0.006,0.002-0.008,0.003c-0.868,0.649-1.372,1.604-1.417,2.689l-0.001,0.174c0,1.043,0.342,1.933,1.017,2.643
		c0.525,0.554,1.25,1,2.153,1.329c0.012,0.005,0.026,0.011,0.039,0.018l0.065,0.032l0.016,0.004
		c1.082,0.312,2.342,1.115,2.421,1.763c0.002,0.015,0.003,0.032,0.003,0.047v0.056c0,0.487-0.196,0.941-0.568,1.312
		c-0.387,0.39-0.916,0.587-1.569,0.587h-0.093c-0.004,0-0.006,0-0.011,0c-0.742-0.021-1.358-0.414-1.651-1.054
		c-0.215-0.473-0.697-0.778-1.231-0.778c-0.146,0-0.341,0.014-0.548,0.114c-0.002,0.002-0.005,0.003-0.008,0.004
		c-0.475,0.221-0.771,0.683-0.771,1.208c0,0.227,0.038,0.413,0.115,0.57c0.002,0.002,0.002,0.004,0.003,0.007
		C69.4,49.864,70.934,50.86,72.681,50.924z"/>
	<path fill="#66C5C9" d="M43.526,51.531L43.526,51.531c-0.325-0.002-0.625-0.16-0.803-0.431c-0.202-0.303-0.218-0.661-0.048-1.065
		l1.713-4.067h-1.741c-0.493,0-0.906-0.253-1.08-0.663c-0.172-0.408-0.067-0.882,0.276-1.235l7.308-7.539
		c0.094-0.098,0.379-0.393,0.818-0.393c0.33,0,0.632,0.167,0.809,0.444c0.199,0.312,0.203,0.674,0.014,1.079l-2.015,4.302h1.889
		c0.494,0,0.907,0.254,1.08,0.665c0.172,0.41,0.065,0.884-0.281,1.236l-7.121,7.28C44.251,51.24,43.966,51.531,43.526,51.531z"/>
	<path fill="#66C5C9" d="M49.971,36.906c-0.082,0-0.158,0.046-0.268,0.158l-7.308,7.54c-0.062,0.062-0.194,0.229-0.12,0.403
		c0.074,0.177,0.285,0.196,0.373,0.196h2.319c0.128,0,0.249,0.064,0.319,0.172c0.072,0.106,0.085,0.242,0.035,0.36l-1.938,4.6
		c-0.046,0.105-0.088,0.241-0.021,0.342c0.036,0.056,0.098,0.088,0.164,0.088c0.082,0,0.165-0.048,0.27-0.155l7.122-7.281
		c0.061-0.063,0.195-0.227,0.121-0.403c-0.072-0.174-0.284-0.194-0.372-0.194h-2.491c-0.132,0-0.254-0.067-0.323-0.178
		c-0.071-0.11-0.08-0.25-0.024-0.369l2.27-4.848c0.064-0.137,0.095-0.248,0.035-0.341C50.097,36.937,50.039,36.906,49.971,36.906z"
		/>
	<path fill="#66C5C9" d="M75.443,32.051c-1.143,0-2.071-0.929-2.071-2.07v-9.559h-1.408c-1.142,0-2.07-0.938-2.07-2.091
		c0-1.142,0.929-2.072,2.07-2.072h6.96c1.152,0,2.091,0.93,2.091,2.072c0,1.153-0.938,2.091-2.091,2.091h-1.389v9.559
		C77.535,31.122,76.597,32.051,75.443,32.051z"/>
	<path fill="#66C5C9" d="M71.964,17.028c-0.718,0-1.304,0.584-1.304,1.303c0,0.73,0.586,1.324,1.304,1.324h1.792
		c0.213,0,0.383,0.172,0.383,0.383v9.943c0,0.718,0.586,1.303,1.305,1.303c0.729,0,1.324-0.585,1.324-1.303v-9.943
		c0-0.211,0.172-0.383,0.384-0.383h1.772c0.729,0,1.324-0.593,1.324-1.324c0-0.719-0.595-1.303-1.324-1.303H71.964z"/>
</g>
</svg>
