<?xml version="1.0" encoding="utf-8"?>
<!-- Generator: Adobe Illustrator 21.1.0, SVG Export Plug-In . SVG Version: 6.00 Build 0)  -->
<svg version="1.1" id="Layer_1" xmlns:sketch="http://www.bohemiancoding.com/sketch/ns"
	 xmlns="http://www.w3.org/2000/svg" xmlns:xlink="http://www.w3.org/1999/xlink" x="0px" y="0px" width="113px" height="106px"
	 viewBox="0 0 113 106" style="enable-background:new 0 0 113 106;" xml:space="preserve">
<style type="text/css">
	.st0{fill:#023726;}
	.st1{fill:#FEBD36;}
	.st2{fill:none;stroke:#FEBD36;stroke-width:0.25;stroke-linecap:round;stroke-linejoin:round;stroke-miterlimit:10;}
	.st3{fill:none;stroke:#023726;stroke-width:0.75;stroke-miterlimit:10;}
</style>
<title>sunlight park</title>
<desc>Created with Sketch.</desc>
<g id="Page-1" sketch:type="MSPage">
</g>
<g>
	<polygon class="st0" points="1.3,52.8 1.3,1.3 111.7,1.3 111.6,52.6 56.1,102.7 1.3,52.8 	"/>
	<path class="st1" d="M113,0H0v53.4l56,51.1L113,53.2L113,0L113,0L113,0z M110.3,2.7l0,49.3l-54.2,48.9L2.7,52.2V2.7H110.3"/>
	<path class="st1" d="M43,21.4c-1.9,0-3.4-1.5-3.4-3.4c0,1.9-1.5,3.4-3.4,3.4c1.9,0,3.4,1.5,3.4,3.4C39.6,22.9,41.1,21.4,43,21.4
		L43,21.4z"/>
	<path class="st2" d="M43,21.4c-1.9,0-3.4-1.5-3.4-3.4c0,1.9-1.5,3.4-3.4,3.4c1.9,0,3.4,1.5,3.4,3.4C39.6,22.9,41.1,21.4,43,21.4
		L43,21.4z"/>
	<path class="st1" d="M80.6,53.7c-2.2,0-4-1.8-4-4c0,2.2-1.8,4-4,4c2.2,0,4,1.8,4,4C76.6,55.5,78.4,53.7,80.6,53.7L80.6,53.7z"/>
	<path class="st2" d="M80.6,53.7c-2.2,0-4-1.8-4-4c0,2.2-1.8,4-4,4c2.2,0,4,1.8,4,4C76.6,55.5,78.4,53.7,80.6,53.7L80.6,53.7z"/>
	<path class="st1" d="M78,21.5c-1.4,0-2.5-1.1-2.5-2.5c0,1.4-1.1,2.5-2.5,2.5c1.4,0,2.5,1.1,2.5,2.5C75.5,22.6,76.6,21.5,78,21.5
		L78,21.5z"/>
	<path class="st2" d="M78,21.5c-1.4,0-2.5-1.1-2.5-2.5c0,1.4-1.1,2.5-2.5,2.5c1.4,0,2.5,1.1,2.5,2.5C75.5,22.6,76.6,21.5,78,21.5
		L78,21.5z"/>
	<path class="st1" d="M75.5,33.6c-0.7,0.4-1.6,0.2-2-0.5c-0.4-0.7-0.2-1.6,0.5-2c0.7-0.4,1.6-0.2,2,0.5
		C76.5,32.3,76.2,33.2,75.5,33.6L75.5,33.6z"/>
	<path class="st1" d="M71.2,64c-0.7,0.4-1.6,0.2-2-0.5c-0.4-0.7-0.2-1.6,0.5-2c0.7-0.4,1.6-0.2,2,0.5C72.1,62.7,71.9,63.6,71.2,64
		L71.2,64z"/>
	<path class="st1" d="M35.7,31c-0.7,0.4-1.6,0.2-2-0.5c-0.4-0.7-0.2-1.6,0.5-2c0.7-0.4,1.6-0.2,2,0.5C36.6,29.7,36.4,30.6,35.7,31
		L35.7,31z"/>
	<path class="st1" d="M55.2,68.9c-0.7,0.4-1.6,0.2-2-0.5c-0.4-0.7-0.2-1.6,0.5-2c0.7-0.4,1.6-0.2,2,0.5
		C56.1,67.7,55.9,68.5,55.2,68.9L55.2,68.9z"/>
	<path class="st1" d="M47.9,25.8c-0.3,0.2-0.7,0.1-0.9-0.2c-0.2-0.3-0.1-0.7,0.2-0.9c0.3-0.2,0.7-0.1,0.9,0.2
		C48.4,25.2,48.3,25.6,47.9,25.8L47.9,25.8z"/>
	<path class="st1" d="M29.1,44.3c-0.3,0.2-0.7,0.1-0.9-0.2c-0.2-0.3-0.1-0.7,0.2-0.9c0.3-0.2,0.7-0.1,0.9,0.2
		C29.6,43.7,29.4,44.1,29.1,44.3L29.1,44.3z"/>
	<path class="st1" d="M61.5,71.1c-0.3,0.2-0.7,0.1-0.9-0.2c-0.2-0.3-0.1-0.7,0.2-0.9c0.3-0.2,0.7-0.1,0.9,0.2
		C62,70.5,61.9,70.9,61.5,71.1L61.5,71.1z"/>
	<path class="st1" d="M66.9,28.8c-0.3,0.2-0.7,0.1-0.9-0.2c-0.2-0.3-0.1-0.7,0.2-0.9c0.3-0.2,0.7-0.1,0.9,0.2
		C67.3,28.2,67.2,28.7,66.9,28.8L66.9,28.8z"/>
	<path class="st1" d="M78.6,43.3c-0.3,0.2-0.7,0.1-0.9-0.2c-0.2-0.3-0.1-0.7,0.2-0.9c0.3-0.2,0.7-0.1,0.9,0.2
		C79,42.7,78.9,43.1,78.6,43.3L78.6,43.3z"/>
	<path class="st1" d="M63.7,21.6c-0.3,0.2-0.7,0.1-0.9-0.2c-0.2-0.3-0.1-0.7,0.2-0.9c0.3-0.2,0.7-0.1,0.9,0.2
		C64.1,21,64,21.4,63.7,21.6L63.7,21.6z"/>
	<path class="st1" d="M56.8,23.3c-0.7,0.4-1.6,0.2-2-0.5c-0.4-0.7-0.2-1.6,0.5-2c0.7-0.4,1.6-0.2,2,0.5C57.7,22,57.5,22.9,56.8,23.3
		L56.8,23.3z"/>
	<path class="st1" d="M59.2,51.4c-3.7-3.7-9.6-3.7-13.3,0c3.7-3.7,3.7-9.6,0-13.3c3.7,3.7,9.6,3.7,13.3,0
		C55.5,41.7,55.5,47.7,59.2,51.4L59.2,51.4z M51.6,52.6l-1.7,1.6c-0.2,0.1-0.4,0.1-0.6,0c-0.2-0.1-0.2-0.4,0-0.5l1.7-1.6
		c0.2-0.1,0.4-0.1,0.6,0C51.7,52.2,51.7,52.4,51.6,52.6L51.6,52.6z M44.7,53l-1,1c-0.1,0.1-0.4,0.1-0.5,0c-0.1-0.2-0.1-0.4,0-0.6
		l1-1c0.1-0.1,0.4-0.1,0.5,0C44.8,52.6,44.8,52.8,44.7,53L44.7,53z M44.8,46.1l-1,1c-0.2,0.2-0.4,0.2-0.5,0c-0.2-0.2-0.2-0.4,0-0.5
		l1-1c0.2-0.2,0.4-0.2,0.5,0C44.9,45.7,44.9,46,44.8,46.1L44.8,46.1z M66.6,40.2c-2.5-6.8-9.4-11-16.6-10.1
		c-9.4,1.2-15.4,10.2-13.2,19.2c0.2,1,0.6,1.9,0.9,2.7l4.5-4.5c0.1-0.1,0.3-0.1,0.4,0v0c0.1,0.1,0.4,0.4,0.1,0.7l-4.6,4.6
		c0.6,1.3,1.2,2.1,2.1,3.1l1.5-1.4c0.1-0.1,0.4,0,0.5,0.1c0.1,0.1,0.3,0.3,0.1,0.5L41,56.6c1,1,1.8,1.7,3,2.4l4-4
		c0.2-0.2,0.4-0.1,0.5,0.1c0.1,0.1,0.3,0.3,0.1,0.5l-3.9,3.9c3.3,1.8,7.1,2.3,11,1.3C64.6,58.6,69.9,49.1,66.6,40.2L66.6,40.2z"/>
	<path class="st1" d="M34.2,55.6c-0.1,0.1-0.1,0.3,0,0.5c0.1,0.1,0.3,0.1,0.5,0l2.7-2.7c-0.1-0.2-0.2-0.4-0.3-0.6L34.2,55.6
		L34.2,55.6z"/>
	<path class="st1" d="M33.6,56.8c-0.1-0.1-0.4-0.2-0.5,0l-2,2c-0.1,0.1-0.2,0.4,0,0.5c0.1,0.1,0.4,0.2,0.5,0l2-2
		C33.7,57.1,33.7,56.9,33.6,56.8L33.6,56.8z"/>
	<path class="st1" d="M35.9,60.4c-0.1,0.1-0.1,0.3,0,0.5c0.1,0.1,0.3,0.1,0.5,0l3.7-3.7c-0.2-0.2-0.3-0.3-0.5-0.5L35.9,60.4
		L35.9,60.4z"/>
	<path class="st1" d="M39.8,63.3c-0.1,0.1-0.1,0.3,0,0.5c0.1,0.1,0.3,0.1,0.5,0l3.6-3.6c-0.2-0.1-0.4-0.2-0.6-0.3L39.8,63.3
		L39.8,63.3z"/>
	<path class="st1" d="M34.5,61.7l-2.1,2c-0.2,0.2-0.2,0.4,0,0.6c0.2,0.2,0.4,0.2,0.6,0l2.1-2c0.2-0.2,0.2-0.4,0-0.6
		C34.9,61.5,34.7,61.5,34.5,61.7L34.5,61.7z"/>
	<path class="st1" d="M66.5,35.2c3.1-0.9,6.3,0.9,7.2,4c0.9,3.1-0.9,6.3-4,7.2c-3.1,0.9-6.3-0.9-7.2-4
		C61.6,39.3,63.4,36.1,66.5,35.2L66.5,35.2z"/>
	<path class="st3" d="M66.5,35.2c3.1-0.9,6.3,0.9,7.2,4c0.9,3.1-0.9,6.3-4,7.2c-3.1,0.9-6.3-0.9-7.2-4
		C61.6,39.3,63.4,36.1,66.5,35.2L66.5,35.2z"/>
</g>
</svg>
