<svg xmlns="http://www.w3.org/2000/svg" width="98.125" height="91.85" viewBox="0 0 98.125 91.85"><g fill="#FDF7E7"><path d="M0 0v47.443l49.062 44.405 49.062-44.405V0H0zm96.125 46.557L49.062 89.15 2 46.558V2h94.125v44.557z"/><path d="M72.438 35.96c.355-1.185 1.045-2.83 2.36-4.725-.54-1.578-1.254-3.436-2.048-4.852a27.308 27.308 0 0 0-3.034-4.36c-.502.585-1.32 1.665-2.436 3.544a21.152 21.152 0 0 0-2.45 6.308c1.086 1.658 1.687 3.1 2.01 4.157a18.253 18.253 0 0 1 1.866-1.335v-6.613a1 1 0 0 1 2 0v6.523a16.68 16.68 0 0 1 1.732 1.352zM61.706 25.2a1 1 0 0 1 1.978-.3l.4 2.63c.382-.94.864-1.956 1.477-2.984.372-.626.712-1.167 1.027-1.644a44.91 44.91 0 0 0-2.084-2.797c-.907-1.116-2.15-2.03-2.964-2.566-.257.526-.638 1.376-1.162 2.702-.89 2.254-1.01 4.962-1.022 6.053a17.68 17.68 0 0 1 2.875 2.36l-.524-3.455zM67.822 21.175c.332-.42.605-.726.82-.94l-.052-3.68a1 1 0 0 1 .986-1.014c.54.04 1.006.436 1.014.987l.05 3.53c.188.2.518.564.938 1.074a43.397 43.397 0 0 1 1.73-2.314c.266-.334.554-.648.85-.945-.567-1.52-1.15-2.995-1.613-3.95-.88-1.82-2.204-3.323-2.948-4.09-.604.495-1.592 1.48-2.467 3.154-.86 1.65-1.466 3.403-1.893 4.965.285.28.562.58.818.895.633.78 1.222 1.564 1.767 2.33zM74.493 25.406c.42.75.815 1.604 1.178 2.47l.714-2.507a.993.993 0 0 1 1.235-.69 1 1 0 0 1 .687 1.235l-.54 1.9c.798-.723 1.575-1.3 2.294-1.76-.03-1.183-.202-3.76-1.065-5.894-.535-1.316-.924-2.164-1.186-2.69-.813.542-2.044 1.467-2.942 2.593a44.893 44.893 0 0 0-2.018 2.747 29.24 29.24 0 0 1 1.643 2.596zM55.573 37.6a1.05 1.05 0 0 1 .266-.53l.296-.32.68-.01.217.1c.43.21.692.64 1.157 1.447.117.202.283.493.38.633.52.303.978.617 1.407.936l-2.79-6.108a1 1 0 1 1 1.82-.83l3.636 7.964c.54-1.045 1.312-2.225 2.396-3.262.038-.037.07-.065.11-.103-.194-.998-.89-3.41-3.324-6.343-2.364-2.844-4.878-4.048-6.077-4.493a16.768 16.768 0 0 0-1.576 6.648c-.04 1.81.154 3.222.307 4.028.36.06.722.136 1.093.245zM77.393 31.108c-1.797 2.2-2.627 4.08-3.013 5.312l.103.004c1.045.07 1.184 1.158 1.412 2.96.065.523.166 1.316.244 1.52.09.168.17.322.25.48l4.23-8.897a1 1 0 0 1 1.807.857l-3.19 6.717c.446-.323.92-.64 1.45-.924.065-.11.14-.262.227-.426.492-.94 1.052-2.007 2.046-2.007h.438l.38.36c.208.226.294.49.325.77.205-.055.396-.094.592-.137.14-.615.44-2.243.37-4.502a16.76 16.76 0 0 0-1.63-6.628c-1.203.464-3.722 1.7-6.042 4.542zM70.727 54.93c-.263-.134-.533-.27-.7-.27-.15 0-.5.17-.753.294-.408.2-.87.414-1.375.47l.017 4.376a1.998 1.998 0 0 0 2 1.992h.008a2 2 0 0 0 1.992-2.008L71.9 55.36c-.444-.08-.85-.264-1.173-.43zM87.207 39.355c-.86.037-2.115.208-3.684.743l-.157.054-.628.005-.217-.213c-.232.432-.42.71-.737.874-2.183 1.13-3.583 2.837-4.123 3.582.388 1.195 1.23 4.3.613 7.018.46-.252.92-.508 1.362-.803.7-.467 1.813-.996 2.99-1.557.35-.165.755-.358 1.156-.556-.1-.09-.187-.204-.256-.346-.094-.197-.267-.72.195-1.302a17.673 17.673 0 0 0 3.487-7.5zM53.536 45.15a.03.03 0 0 1-.005.007c.706.672 1.765 1.54 2.32 1.997.608.498 1.09.892 1.343 1.15a17.785 17.785 0 0 0 4.513 3.3c-.15-.553-.28-1.128-.363-1.74-.034-.11-.298-.48-.454-.703-.49-.688-.997-1.404-.788-2.202l.123-.466.475-.238a1.11 1.11 0 0 1 .558-.088c.07-.83.167-1.568.228-2-.426-.617-1.7-2.26-4.025-3.58-.213-.122-.377-.3-.565-.58l-.557.008-.205-.09c-1.072-.458-2.068-.69-2.95-.69-.308 0-.56.027-.763.064.205.993.523 2.048.995 3.31.467 1.255.502 1.992.12 2.542zM76.083 46.15l-.49-1.61c0-.003-.047-.154-.153-.43l-.014-.034a19.832 19.832 0 0 0-1.062-2.252c-.222-.404-.312-1.062-.455-2.188l-.04-.3a1.17 1.17 0 0 1-.395.067c-.683 0-1.097-.556-1.252-.765-.716-.957-1.824-1.808-2.455-2.248-.615.378-1.803 1.193-3.344 2.67-2.113 2.022-2.836 4.755-2.913 5.063-.023.163-.266 1.746-.326 3.23a1.246 1.246 0 0 1-.472.924c.116.168.223.34.318.513.145.26.257.525.295.803.16 1.18.473 2.205.914 3.07 1.11.37 2.253.644 3.422.783.14 0 .497-.174.733-.29.475-.232 1.014-.497 1.62-.5.658 0 1.192.273 1.62.49.237.122.506.26.643.26a17.623 17.623 0 0 0 3.308-.81c.304-.382.522-.828.667-1.322.307-1.05.296-2.286.146-3.44-.08-.598-.192-1.17-.317-1.683zM36.42 43.127a1 1 0 1 1-1.978.302l-.4-2.635c-.383.94-.865 1.956-1.477 2.985a41.602 41.602 0 0 1-1.027 1.645 45.22 45.22 0 0 0 2.084 2.798c.908 1.115 2.15 2.03 2.965 2.564.255-.525.636-1.376 1.16-2.7.89-2.256 1.01-4.964 1.022-6.056-.9-.587-1.886-1.36-2.876-2.356l.525 3.453zM25.688 32.367c-.355 1.185-1.045 2.83-2.36 4.725.54 1.577 1.255 3.436 2.05 4.852a27.422 27.422 0 0 0 3.033 4.36c.503-.585 1.32-1.665 2.436-3.544 1.543-2.598 2.208-5.15 2.45-6.31-1.086-1.658-1.687-3.1-2.01-4.156a18.253 18.253 0 0 1-1.865 1.335v6.612a1 1 0 0 1-2 0V33.72a16.6 16.6 0 0 1-1.732-1.353zM30.303 47.15c-.333.422-.606.727-.82.944l.05 3.677a1 1 0 0 1-.985 1.015h-.015a1 1 0 0 1-1-.986l-.05-3.53c-.188-.2-.517-.565-.937-1.075a44.94 44.94 0 0 1-1.728 2.317 11.63 11.63 0 0 1-.852.943c.568 1.52 1.152 2.996 1.613 3.95.878 1.822 2.203 3.325 2.947 4.09.604-.494 1.592-1.477 2.467-3.153.86-1.65 1.466-3.4 1.893-4.965-.284-.28-.56-.58-.817-.895a46.39 46.39 0 0 1-1.767-2.33zM23.632 42.92c-.42-.75-.816-1.603-1.18-2.47l-.71 2.507a1.003 1.003 0 0 1-1.236.69 1 1 0 0 1-.688-1.235l.54-1.9c-.797.724-1.575 1.302-2.294 1.762.03 1.18.203 3.756 1.067 5.892.535 1.32.923 2.165 1.186 2.693.81-.544 2.043-1.47 2.94-2.594.734-.92 1.407-1.85 2.018-2.748a30.132 30.132 0 0 1-1.642-2.597zM32.974 30.812c.195.998.89 3.41 3.325 6.343 2.343 2.82 4.872 4.036 6.077 4.49a16.748 16.748 0 0 0 1.574-6.647c.042-1.81-.154-3.22-.307-4.026-.357-.062-.72-.138-1.09-.246-.038.193-.117.37-.267.532l-.296.32-.677.01-.216-.1c-.436-.212-.697-.642-1.16-1.448-.118-.203-.285-.494-.382-.634-.52-.302-.978-.617-1.408-.935l2.79 6.108a1 1 0 1 1-1.82.83l-3.636-7.964c-.538 1.045-1.31 2.225-2.395 3.262-.04.04-.073.07-.11.106zM20.733 37.22c1.78-2.18 2.613-4.07 3.003-5.315l-.093-.003c-1.046-.07-1.184-1.157-1.412-2.96-.065-.523-.166-1.316-.244-1.52-.092-.168-.17-.32-.25-.48l-4.23 8.9a1 1 0 1 1-1.805-.86l3.193-6.718c-.448.323-.922.64-1.453.926-.065.11-.14.26-.226.424-.493.94-1.05 2.007-2.045 2.007h-.44l-.38-.357c-.21-.228-.295-.49-.325-.77-.206.054-.397.093-.592.136-.138.614-.44 2.24-.37 4.5a16.675 16.675 0 0 0 1.628 6.63c1.2-.463 3.72-1.698 6.043-4.54zM27.4 13.396c.262.134.533.27.7.27.152 0 .5-.17.752-.294.408-.2.878-.414 1.376-.474l-.018-4.37a1.998 1.998 0 0 0-2-1.993h-.01a2 2 0 0 0-1.99 2.008l.017 4.424c.44.08.85.263 1.172.43zM10.92 28.972c.86-.037 2.114-.208 3.683-.744l.157-.055.627-.005.216.213c.234-.43.42-.71.74-.873 2.183-1.13 3.582-2.837 4.122-3.58-.387-1.196-1.228-4.303-.613-7.02-.46.252-.92.508-1.362.803-.7.468-1.813.996-2.99 1.558-.35.165-.755.357-1.156.555.1.09.188.204.256.346.095.196.267.72-.195 1.302a17.668 17.668 0 0 0-3.486 7.5zM22.05 22.21l.48 1.575c0 .004.047.154.153.43l.015.037c.18.463.515 1.246 1.062 2.25.22.405.312 1.062.455 2.19l.038.297c.118-.043.25-.067.398-.067.683 0 1.097.557 1.253.766.714.956 1.824 1.806 2.454 2.247.618-.38 1.804-1.195 3.344-2.67 2.152-2.06 2.86-4.85 2.916-5.075.032-.207.266-1.76.326-3.218a1.24 1.24 0 0 1 .473-.925 6.233 6.233 0 0 1-.32-.516c-.142-.26-.255-.526-.293-.8-.16-1.182-.473-2.207-.914-3.072a17.358 17.358 0 0 0-3.423-.782c-.14 0-.497.175-.733.29-.476.232-1.015.496-1.624.498-.655 0-1.188-.27-1.617-.49-.236-.12-.504-.258-.64-.258a17.568 17.568 0 0 0-3.31.81c-.305.38-.523.828-.667 1.323-.306 1.05-.296 2.283-.147 3.438.08.613.195 1.198.324 1.72zM37.238 19.166c.49.69.994 1.405.786 2.202l-.122.466-.475.238c-.197.088-.384.107-.558.088-.07.83-.168 1.568-.23 2 .427.617 1.7 2.26 4.026 3.58.214.122.378.3.565.58l.56-.007.203.088c1.073.46 2.07.695 2.952.694a4.1 4.1 0 0 0 .76-.066c-.207-.993-.53-2.065-.994-3.31-.468-1.257-.504-1.992-.122-2.542l.006-.01c-.706-.67-1.767-1.54-2.324-1.998-.605-.497-1.084-.89-1.34-1.147a17.76 17.76 0 0 0-4.51-3.298c.15.552.28 1.127.363 1.74.035.11.298.48.455.704z"/></g></svg>