<svg xmlns="http://www.w3.org/2000/svg" width="98.125" height="91.85" viewBox="0 0 98.125 91.85"><g fill="#FDF7E7"><path d="M0 0v47.443l49.062 44.405 49.062-44.405V0H0zm96.125 46.557L49.062 89.151 2 46.557V2h94.125v44.557z"/><path d="M72.438 35.959c.355-1.184 1.045-2.83 2.36-4.724-.539-1.578-1.254-3.436-2.048-4.852a27.308 27.308 0 0 0-3.034-4.361c-.502.586-1.319 1.666-2.436 3.545a21.152 21.152 0 0 0-2.451 6.308c1.087 1.658 1.688 3.101 2.011 4.157a18.253 18.253 0 0 1 1.866-1.335l.001-6.613a1 1 0 0 1 2 0l-.001 6.523a16.68 16.68 0 0 1 1.732 1.352zM61.706 25.2a1 1 0 1 1 1.978-.301l.399 2.631c.383-.94.865-1.956 1.478-2.984.371-.626.711-1.167 1.026-1.644a44.91 44.91 0 0 0-2.084-2.797c-.907-1.116-2.149-2.031-2.964-2.566-.256.527-.637 1.377-1.161 2.703-.89 2.254-1.011 4.962-1.022 6.053a17.679 17.679 0 0 1 2.875 2.359l-.525-3.454zM67.822 21.175c.332-.421.605-.726.82-.941l-.052-3.678a1.001 1.001 0 0 1 .986-1.015c.539.038 1.006.435 1.014.986l.05 3.531c.188.198.518.563.938 1.073a43.397 43.397 0 0 1 1.729-2.315c.267-.334.555-.648.852-.945-.568-1.521-1.152-2.996-1.614-3.95-.88-1.82-2.204-3.324-2.948-4.09-.604.494-1.592 1.478-2.467 3.153-.859 1.651-1.466 3.403-1.893 4.965.285.282.562.58.818.896.633.78 1.222 1.564 1.767 2.33zM74.493 25.406a24.43 24.43 0 0 1 1.178 2.471l.713-2.508a.993.993 0 0 1 1.235-.688c.531.15.839.704.688 1.234l-.539 1.9a17.173 17.173 0 0 1 2.293-1.76c-.031-1.183-.203-3.759-1.066-5.894-.535-1.317-.924-2.165-1.186-2.692-.812.543-2.043 1.468-2.941 2.594a44.893 44.893 0 0 0-2.018 2.747 29.239 29.239 0 0 1 1.643 2.596zM55.573 37.601a1.05 1.05 0 0 1 .266-.532l.297-.32.679-.009.218.101c.431.208.692.64 1.157 1.446.117.202.283.493.379.633.521.303.979.617 1.408.936l-2.789-6.108a1 1 0 0 1 1.818-.83l3.637 7.964c.539-1.045 1.312-2.225 2.396-3.262.039-.037.072-.065.111-.103-.194-.998-.891-3.411-3.324-6.343-2.364-2.844-4.878-4.048-6.077-4.493a16.768 16.768 0 0 0-1.575 6.647 19.537 19.537 0 0 0 .307 4.028c.358.06.721.136 1.092.245zM77.393 31.108c-1.797 2.2-2.627 4.079-3.013 5.312l.103.004c1.045.071 1.184 1.158 1.412 2.959.065.524.166 1.317.244 1.521.092.168.17.322.252.479l4.228-8.896a1 1 0 1 1 1.807.857l-3.19 6.717c.447-.324.92-.641 1.451-.925.065-.11.141-.262.227-.426.492-.939 1.052-2.007 2.046-2.007h.438l.381.359c.207.227.293.492.324.771.205-.055.396-.094.592-.137.139-.615.44-2.243.371-4.502a16.761 16.761 0 0 0-1.631-6.628c-1.203.464-3.722 1.7-6.042 4.542zM70.727 54.931c-.263-.135-.533-.272-.701-.272-.15.001-.498.171-.752.295-.408.201-.869.414-1.375.471l.018 4.375a1.998 1.998 0 0 0 2 1.992h.008a2 2 0 0 0 1.992-2.008l-.018-4.424c-.443-.081-.849-.264-1.172-.429zM87.207 39.355c-.861.037-2.115.208-3.684.743l-.157.054-.628.005-.217-.213c-.233.432-.42.71-.738.874C79.6 41.947 78.2 43.655 77.66 44.4c.388 1.195 1.229 4.301.613 7.018.461-.252.92-.508 1.362-.803.701-.467 1.813-.996 2.991-1.557.35-.165.754-.358 1.155-.556a1.113 1.113 0 0 1-.257-.346c-.094-.197-.267-.719.195-1.302a17.673 17.673 0 0 0 3.488-7.499zM53.536 45.15a.03.03 0 0 1-.005.007c.705.672 1.764 1.539 2.32 1.997.607.498 1.088.892 1.342 1.151a17.785 17.785 0 0 0 4.513 3.298 13.336 13.336 0 0 1-.363-1.74c-.034-.109-.298-.48-.454-.702-.49-.689-.996-1.405-.787-2.203l.123-.466.475-.238a1.11 1.11 0 0 1 .558-.088c.07-.83.167-1.568.228-1.999-.426-.618-1.7-2.261-4.025-3.58-.214-.123-.378-.301-.566-.58l-.557.007-.205-.089c-1.072-.459-2.068-.692-2.951-.692-.307 0-.56.028-.762.065.205.993.523 2.048.995 3.31.467 1.255.502 1.992.121 2.542zM76.083 46.151l-.489-1.611c-.001-.003-.048-.154-.154-.429-.004-.013-.01-.023-.014-.035a19.832 19.832 0 0 0-1.062-2.252c-.222-.404-.312-1.062-.455-2.188l-.038-.299a1.17 1.17 0 0 1-.396.066c-.683 0-1.097-.556-1.252-.765-.716-.957-1.824-1.808-2.455-2.248-.615.378-1.803 1.193-3.344 2.671-2.113 2.021-2.836 4.754-2.913 5.062-.024.163-.267 1.746-.327 3.229a1.246 1.246 0 0 1-.472.925c.116.168.223.339.318.513.145.261.257.525.295.803.16 1.181.473 2.205.914 3.071 1.111.369 2.254.643 3.423.782h.001c.14 0 .496-.174.732-.29.475-.232 1.014-.497 1.621-.499.657 0 1.191.272 1.619.49.237.121.506.258.643.258a17.623 17.623 0 0 0 3.308-.809c.304-.382.522-.828.667-1.322.307-1.049.296-2.286.146-3.441a16.074 16.074 0 0 0-.316-1.682zM36.419 43.127a1 1 0 0 1-1.977.302l-.4-2.634a22.237 22.237 0 0 1-1.477 2.985 41.602 41.602 0 0 1-1.027 1.645 45.22 45.22 0 0 0 2.084 2.798c.908 1.115 2.149 2.029 2.965 2.564.255-.525.636-1.376 1.159-2.701.891-2.255 1.012-4.963 1.023-6.055a17.796 17.796 0 0 1-2.875-2.357l.525 3.453zM25.688 32.367c-.355 1.185-1.045 2.83-2.36 4.725.539 1.577 1.255 3.436 2.049 4.852a27.422 27.422 0 0 0 3.034 4.361c.502-.586 1.319-1.666 2.435-3.545 1.543-2.598 2.208-5.149 2.45-6.311-1.086-1.657-1.687-3.098-2.009-4.155a18.253 18.253 0 0 1-1.866 1.335l-.001 6.613a1 1 0 1 1-2 0l.001-6.522a16.6 16.6 0 0 1-1.733-1.353zM30.303 47.151c-.333.421-.606.726-.82.943l.051 3.677a1.001 1.001 0 0 1-.986 1.014h-.015a1 1 0 0 1-1-.986l-.049-3.53a21.247 21.247 0 0 1-.938-1.074 44.939 44.939 0 0 1-1.728 2.317 11.63 11.63 0 0 1-.852.943c.568 1.521 1.152 2.996 1.613 3.951.879 1.821 2.204 3.324 2.948 4.089.604-.494 1.592-1.477 2.467-3.153.859-1.649 1.466-3.401 1.893-4.965-.284-.28-.561-.579-.817-.895a46.39 46.39 0 0 1-1.767-2.331zM23.632 42.921a24.432 24.432 0 0 1-1.179-2.471l-.712 2.507a1.003 1.003 0 0 1-1.235.69 1 1 0 0 1-.688-1.235l.54-1.899a17.276 17.276 0 0 1-2.294 1.761c.031 1.181.203 3.756 1.067 5.892.534 1.319.922 2.165 1.185 2.693.811-.543 2.043-1.468 2.941-2.593a45.076 45.076 0 0 0 2.017-2.748 30.132 30.132 0 0 1-1.642-2.597zM32.974 30.812c.195.998.89 3.411 3.325 6.343 2.344 2.82 4.873 4.036 6.078 4.489a16.748 16.748 0 0 0 1.574-6.646c.041-1.81-.155-3.22-.308-4.026a10.034 10.034 0 0 1-1.091-.246 1.043 1.043 0 0 1-.266.532l-.296.319-.677.01-.216-.099c-.436-.212-.697-.642-1.161-1.448-.117-.203-.284-.494-.381-.634-.52-.302-.978-.617-1.408-.935l2.791 6.107a1 1 0 1 1-1.82.83l-3.637-7.964c-.539 1.045-1.312 2.225-2.396 3.262-.039.04-.073.069-.111.106zM20.733 37.219c1.779-2.18 2.613-4.07 3.003-5.314l-.093-.003c-1.046-.069-1.184-1.157-1.412-2.959-.066-.524-.167-1.317-.245-1.521-.092-.168-.17-.321-.251-.479l-4.228 8.898a1 1 0 0 1-1.806-.858l3.192-6.719c-.448.323-.922.64-1.453.926-.065.109-.141.261-.226.424-.493.94-1.051 2.007-2.045 2.007h-.44l-.38-.358c-.208-.228-.294-.491-.324-.771-.206.055-.397.094-.592.137-.138.615-.44 2.242-.37 4.502a16.675 16.675 0 0 0 1.628 6.63c1.198-.464 3.72-1.699 6.042-4.542zM27.399 13.396c.263.134.534.271.701.271.152 0 .5-.171.752-.295.408-.199.878-.414 1.376-.474l-.018-4.371a1.998 1.998 0 0 0-2-1.992h-.009a2 2 0 0 0-1.992 2.008l.018 4.424c.441.079.85.263 1.172.429zM10.919 28.972c.861-.037 2.115-.208 3.684-.744l.157-.055.627-.005.216.213c.234-.432.421-.71.741-.874 2.182-1.129 3.581-2.837 4.121-3.581-.387-1.195-1.228-4.302-.613-7.019-.461.252-.92.508-1.362.803-.701.468-1.813.996-2.991 1.558-.349.165-.754.357-1.155.555.1.091.188.204.256.346.095.197.267.72-.195 1.303a17.668 17.668 0 0 0-3.486 7.5zM22.05 22.209l.479 1.576c.001.004.048.154.154.429.005.014.011.024.015.038.18.463.515 1.246 1.062 2.25.221.405.312 1.062.455 2.189l.038.298c.118-.042.25-.066.398-.066.682 0 1.096.557 1.252.766.714.957 1.824 1.807 2.454 2.248.618-.379 1.804-1.195 3.344-2.671 2.151-2.059 2.86-4.849 2.915-5.074a32.59 32.59 0 0 0 .326-3.218 1.239 1.239 0 0 1 .473-.925 6.233 6.233 0 0 1-.319-.515c-.143-.26-.256-.526-.294-.801-.161-1.181-.473-2.206-.914-3.071a17.358 17.358 0 0 0-3.423-.782c-.141 0-.497.175-.733.29-.476.232-1.015.496-1.624.498-.655 0-1.188-.271-1.617-.489-.237-.121-.505-.259-.642-.259a17.568 17.568 0 0 0-3.31.81 3.802 3.802 0 0 0-.666 1.323c-.306 1.049-.296 2.283-.147 3.438.079.612.195 1.197.324 1.718zM37.238 19.166c.489.69.994 1.405.786 2.202l-.122.466-.475.238c-.197.088-.384.107-.558.088-.07.829-.167 1.568-.228 1.999.426.618 1.7 2.261 4.025 3.58.214.123.378.301.565.58l.558-.006.204.088c1.073.459 2.07.694 2.952.693a4.1 4.1 0 0 0 .76-.066c-.207-.993-.529-2.065-.994-3.31-.469-1.257-.505-1.992-.123-2.542l.006-.009c-.706-.672-1.767-1.541-2.324-1.999-.605-.497-1.084-.889-1.339-1.147a17.76 17.76 0 0 0-4.512-3.299c.152.552.28 1.127.364 1.739.035.111.298.482.455.705z"/></g></svg>