<svg xmlns="http://www.w3.org/2000/svg" width="98.125" height="91.85" viewBox="0 0 98.125 91.85"><g fill="#FDF7E7"><path d="M0 0v47.443l49.062 44.405 49.062-44.405V0H0zm96.125 46.557L49.062 89.15 2 46.558V2h94.125v44.557z"/><path d="M72.438 35.96c.355-1.185 1.045-2.83 2.36-4.725-.54-1.578-1.254-3.436-2.048-4.852-1.132-2.02-2.318-3.527-3.034-4.36-.502.585-1.32 1.665-2.436 3.544-1.55 2.607-2.212 5.15-2.45 6.308 1.086 1.658 1.687 3.1 2.01 4.157.792-.637 1.426-1.065 1.866-1.335v-6.613c0-.553.45-1 1-1 .553 0 1 .448 1 1v6.523c.396.268 1.054.744 1.732 1.352zM61.706 25.2c-.083-.546.292-1.056.838-1.14s1.056.292 1.14.84l.4 2.63c.382-.94.864-1.956 1.477-2.984.372-.626.712-1.167 1.027-1.644-.63-.914-1.325-1.86-2.084-2.797-.907-1.116-2.15-2.03-2.964-2.566-.257.526-.638 1.376-1.162 2.702-.89 2.254-1.01 4.962-1.022 6.053.9.588 1.886 1.362 2.875 2.36l-.524-3.455zM67.822 21.175c.332-.42.605-.726.82-.94l-.052-3.68c-.008-.552.435-1.006.986-1.014.54.04 1.006.436 1.014.987l.05 3.53c.188.2.518.564.938 1.074.533-.76 1.107-1.54 1.73-2.314.266-.334.554-.648.85-.945-.567-1.52-1.15-2.995-1.613-3.95-.88-1.82-2.204-3.323-2.948-4.09-.604.495-1.592 1.48-2.467 3.154-.86 1.65-1.466 3.403-1.893 4.965.285.28.562.58.818.895.633.78 1.222 1.564 1.767 2.33zM74.493 25.406c.42.75.815 1.604 1.178 2.47l.714-2.507c.15-.532.703-.848 1.235-.69.53.15.838.705.687 1.235l-.54 1.9c.798-.723 1.575-1.3 2.294-1.76-.03-1.183-.202-3.76-1.065-5.894-.535-1.316-.924-2.164-1.186-2.69-.813.542-2.044 1.467-2.942 2.593-.733.918-1.406 1.848-2.018 2.747.527.747 1.088 1.604 1.643 2.596zM55.573 37.6c.038-.193.116-.37.266-.53l.296-.32.68-.01.217.1c.43.21.692.64 1.157 1.447.117.202.283.493.38.633.52.303.978.617 1.407.936l-2.79-6.108c-.228-.502-.007-1.095.495-1.324.502-.23 1.096-.01 1.324.494l3.637 7.964c.54-1.045 1.312-2.225 2.396-3.262.038-.037.07-.065.11-.103-.194-.998-.89-3.41-3.324-6.343-2.364-2.844-4.878-4.048-6.077-4.493-.54 1.134-1.507 3.58-1.576 6.648-.04 1.81.154 3.222.307 4.028.36.06.722.136 1.093.245zM77.393 31.108c-1.797 2.2-2.627 4.08-3.013 5.312l.103.004c1.045.07 1.184 1.158 1.412 2.96.065.523.166 1.316.244 1.52.09.168.17.322.25.48l4.23-8.897c.236-.5.832-.71 1.332-.475.5.236.71.834.474 1.332l-3.19 6.717c.447-.323.92-.64 1.45-.924.066-.11.142-.262.228-.426.492-.94 1.052-2.007 2.046-2.007h.438l.38.36c.208.226.294.49.325.77.205-.055.396-.094.592-.137.14-.615.44-2.243.37-4.502-.096-3.064-1.08-5.5-1.63-6.628-1.203.464-3.722 1.7-6.042 4.542zM70.727 54.93c-.263-.134-.533-.27-.7-.27-.15 0-.5.17-.753.294-.408.2-.87.414-1.375.47l.017 4.376c.005 1.104.898 1.992 2 1.992h.008c1.104-.005 1.997-.902 1.992-2.008L71.9 55.36c-.444-.08-.85-.264-1.173-.43zM87.207 39.355c-.86.037-2.115.208-3.684.743l-.157.054-.628.005-.217-.213c-.232.432-.42.71-.737.874-2.183 1.13-3.583 2.837-4.123 3.582.388 1.195 1.23 4.3.613 7.018.46-.252.92-.508 1.362-.803.7-.467 1.813-.996 2.99-1.557.35-.165.755-.358 1.156-.556-.1-.09-.187-.204-.256-.346-.094-.197-.267-.72.195-1.302 1.743-2.195 2.937-4.77 3.487-7.5zM53.536 45.15c0 .002-.003.005-.005.007.706.672 1.765 1.54 2.32 1.997.608.498 1.09.892 1.343 1.15 1.324 1.34 2.854 2.444 4.513 3.3-.15-.553-.28-1.128-.363-1.74-.034-.11-.298-.48-.454-.703-.49-.688-.997-1.404-.788-2.202l.123-.466.475-.238c.197-.087.384-.103.558-.088.07-.83.167-1.568.228-2-.426-.617-1.7-2.26-4.025-3.58-.213-.122-.377-.3-.565-.58l-.557.008-.205-.09c-1.072-.458-2.068-.69-2.95-.69-.308 0-.56.027-.763.064.205.993.523 2.048.995 3.31.467 1.255.502 1.992.12 2.542zM76.083 46.15l-.49-1.61c0-.003-.047-.154-.153-.43l-.014-.034c-.18-.463-.515-1.246-1.062-2.252-.222-.404-.312-1.062-.455-2.188l-.04-.3c-.116.043-.25.067-.395.067-.683 0-1.097-.556-1.252-.765-.716-.957-1.824-1.808-2.455-2.248-.615.378-1.803 1.193-3.344 2.67-2.113 2.022-2.836 4.755-2.913 5.063-.023.163-.266 1.746-.326 3.23-.012.257-.097.484-.232.673-.068.094-.145.182-.24.25.116.17.223.34.318.514.145.26.257.525.295.803.16 1.18.473 2.205.914 3.07 1.11.37 2.253.644 3.422.783.14 0 .497-.174.733-.29.475-.232 1.014-.497 1.62-.5.658 0 1.192.273 1.62.49.237.122.506.26.643.26 1.143-.16 2.24-.444 3.308-.81.304-.382.522-.828.667-1.322.307-1.05.296-2.286.146-3.44-.08-.598-.192-1.17-.317-1.683zM36.42 43.127c.082.546-.293 1.057-.84 1.14-.05.008-.102.012-.15.012-.487 0-.913-.355-.988-.85l-.4-2.635c-.383.94-.865 1.956-1.477 2.985-.372.626-.712 1.167-1.027 1.645.63.914 1.325 1.86 2.084 2.798.908 1.115 2.15 2.03 2.965 2.564.255-.525.636-1.376 1.16-2.7.89-2.256 1.01-4.964 1.022-6.056-.9-.587-1.886-1.36-2.876-2.356l.525 3.453zM25.688 32.367c-.355 1.185-1.045 2.83-2.36 4.725.54 1.577 1.255 3.436 2.05 4.852 1.132 2.018 2.317 3.527 3.033 4.36.503-.585 1.32-1.665 2.436-3.544 1.543-2.598 2.208-5.15 2.45-6.31-1.086-1.658-1.687-3.1-2.01-4.156-.79.638-1.425 1.064-1.865 1.335v6.612c0 .553-.448 1-1 1-.553 0-1-.448-1-1V33.72c-.396-.27-1.054-.744-1.732-1.353zM30.303 47.15c-.333.422-.606.727-.82.944l.05 3.677c.008.553-.433 1.007-.985 1.015h-.015c-.546 0-.992-.438-1-.986l-.05-3.53c-.188-.2-.517-.565-.937-1.075-.533.763-1.108 1.54-1.728 2.317-.267.334-.556.646-.852.943.568 1.52 1.152 2.996 1.613 3.95.878 1.822 2.203 3.325 2.947 4.09.604-.494 1.592-1.477 2.467-3.153.86-1.65 1.466-3.4 1.893-4.965-.284-.28-.56-.58-.817-.895-.633-.78-1.22-1.564-1.767-2.33zM23.632 42.92c-.42-.75-.816-1.603-1.18-2.47l-.71 2.507c-.126.44-.527.728-.962.728-.09 0-.183-.013-.274-.038-.53-.15-.84-.704-.688-1.235l.54-1.9c-.797.724-1.575 1.302-2.294 1.762.03 1.18.203 3.756 1.067 5.892.535 1.32.923 2.165 1.186 2.693.81-.544 2.043-1.47 2.94-2.594.734-.92 1.407-1.85 2.018-2.748-.525-.747-1.086-1.606-1.642-2.597zM32.974 30.812c.195.998.89 3.41 3.325 6.343 2.343 2.82 4.872 4.036 6.077 4.49.54-1.135 1.505-3.58 1.574-6.647.042-1.81-.154-3.22-.307-4.026-.357-.062-.72-.138-1.09-.246-.038.193-.117.37-.267.532l-.296.32-.677.01-.216-.1c-.436-.212-.697-.642-1.16-1.448-.118-.203-.285-.494-.382-.634-.52-.302-.978-.617-1.408-.935l2.79 6.108c.23.502.01 1.095-.493 1.324-.135.062-.276.09-.415.09-.38 0-.744-.216-.912-.584l-3.637-7.964c-.538 1.045-1.31 2.225-2.395 3.262-.04.04-.073.07-.11.106zM20.733 37.22c1.78-2.18 2.613-4.07 3.003-5.315l-.093-.003c-1.046-.07-1.184-1.157-1.412-2.96-.065-.523-.166-1.316-.244-1.52-.092-.168-.17-.32-.25-.48l-4.23 8.9c-.17.36-.53.57-.903.57-.144 0-.29-.03-.428-.097-.5-.237-.71-.834-.474-1.332l3.193-6.72c-.448.324-.922.64-1.453.927-.065.11-.14.26-.226.424-.493.94-1.05 2.007-2.045 2.007h-.44l-.38-.357c-.21-.228-.295-.49-.325-.77-.206.054-.397.093-.592.136-.138.614-.44 2.24-.37 4.5.097 3.084 1.08 5.508 1.628 6.63 1.2-.463 3.72-1.698 6.043-4.54zM27.4 13.396c.262.134.533.27.7.27.152 0 .5-.17.752-.294.408-.2.878-.414 1.376-.474l-.018-4.37c-.004-1.105-.9-1.993-2-1.993h-.01c-1.103.005-1.995.903-1.99 2.008l.017 4.424c.44.08.85.263 1.172.43zM10.92 28.972c.86-.037 2.114-.208 3.683-.744l.157-.055.627-.005.216.213c.234-.43.42-.71.74-.873 2.183-1.13 3.582-2.837 4.122-3.58-.387-1.196-1.228-4.303-.613-7.02-.46.252-.92.508-1.362.803-.7.468-1.813.996-2.99 1.558-.35.165-.755.357-1.156.555.1.09.188.204.256.346.095.196.267.72-.195 1.302-1.743 2.195-2.937 4.77-3.486 7.5zM22.05 22.21l.48 1.575c0 .004.047.154.153.43l.015.037c.18.463.515 1.246 1.062 2.25.22.405.312 1.062.455 2.19l.038.297c.118-.043.25-.067.398-.067.683 0 1.097.557 1.253.766.714.956 1.824 1.806 2.454 2.247.618-.38 1.804-1.195 3.344-2.67 2.152-2.06 2.86-4.85 2.916-5.075.032-.207.266-1.76.326-3.218.012-.26.097-.486.233-.675.068-.095.145-.182.24-.25-.116-.17-.223-.342-.32-.516-.142-.26-.255-.526-.293-.8-.16-1.182-.473-2.207-.914-3.072-1.11-.37-2.254-.643-3.423-.782-.14 0-.497.175-.733.29-.476.232-1.015.496-1.624.498-.655 0-1.188-.27-1.617-.49-.236-.12-.504-.258-.64-.258-1.144.158-2.243.443-3.31.81-.305.38-.523.828-.667 1.323-.306 1.05-.296 2.283-.147 3.438.08.613.195 1.198.324 1.72zM37.238 19.166c.49.69.994 1.405.786 2.202l-.122.466-.475.238c-.197.088-.384.107-.558.088-.07.83-.168 1.568-.23 2 .427.617 1.7 2.26 4.026 3.58.214.122.378.3.565.58l.56-.007.203.088c1.073.46 2.07.695 2.952.694.306 0 .56-.028.76-.066-.207-.993-.53-2.065-.994-3.31-.468-1.257-.504-1.992-.122-2.542l.006-.01c-.706-.67-1.767-1.54-2.324-1.998-.605-.497-1.084-.89-1.34-1.147-1.322-1.34-2.853-2.444-4.51-3.298.15.552.28 1.127.363 1.74.035.11.298.48.455.704z"/></g></svg>