<svg width="95" height="88" xmlns="http://www.w3.org/2000/svg"><g fill="none" fill-rule="evenodd"><path d="M46.834 82.747L4 43.906V2h85.67v41.906L46.833 82.747" fill="#FDF8E6"/><path d="M0 44.557l47.062 42.595 47.063-42.595V0H0v44.557zm67.923 15.234h-.008c-1.1 0-1.995-.89-2-1.992l-.018-4.375c.507-.057.968-.269 1.377-.471.254-.123.6-.294.752-.295.166 0 .438.139.701.273.322.165.728.348 1.17.428l.018 4.424a2 2 0 0 1-1.992 2.008zm6.328-10.515a3.806 3.806 0 0 1-.666 1.322 17.76 17.76 0 0 1-3.308.809c-.136 0-.405-.137-.642-.258-.428-.218-.962-.491-1.619-.491-.609.002-1.147.267-1.622.499-.236.116-.593.29-.733.29h-.001a17.461 17.461 0 0 1-3.423-.782c-.441-.866-.752-1.891-.914-3.072-.037-.276-.15-.542-.293-.802a6.04 6.04 0 0 0-.319-.513c.095-.069.171-.157.239-.25.137-.188.222-.417.233-.674.061-1.483.303-3.065.328-3.229.077-.31.8-3.041 2.913-5.063 1.541-1.477 2.727-2.293 3.344-2.671.63.441 1.739 1.291 2.454 2.248.156.209.57.765 1.252.765.147 0 .28-.025.397-.067l.038.298c.143 1.128.235 1.785.455 2.189a19.707 19.707 0 0 1 1.063 2.252c.003.012.009.023.014.035.105.274.152.426.153.43l.489 1.61c.125.513.238 1.085.315 1.683.15 1.156.159 2.393-.147 3.442zm-6.544-24.192a1 1 0 0 0-1 1l-.002 6.613c-.44.27-1.074.699-1.866 1.335-.323-1.057-.924-2.499-2.01-4.157.24-1.156.9-3.699 2.451-6.308 1.116-1.878 1.933-2.958 2.435-3.544a27.375 27.375 0 0 1 3.034 4.362c.794 1.416 1.509 3.272 2.048 4.851-1.314 1.893-2.004 3.54-2.36 4.723a16.68 16.68 0 0 0-1.732-1.352l.002-6.523a1 1 0 0 0-1-1zm13.818 21.074c.068.142.156.256.256.346-.4.196-.806.389-1.155.555-1.177.56-2.289 1.09-2.991 1.556-.443.295-.901.551-1.362.803.615-2.717-.226-5.822-.614-7.018.541-.745 1.94-2.452 4.123-3.582.319-.164.505-.442.74-.873l.216.212.627-.004.157-.054c1.569-.536 2.823-.706 3.684-.743a17.712 17.712 0 0 1-3.486 7.501c-.463.582-.291 1.104-.195 1.301zm1.537-14.961c.07 2.26-.231 3.887-.369 4.502-.196.043-.387.082-.593.137-.03-.279-.116-.545-.325-.771l-.379-.36h-.44c-.994 0-1.552 1.066-2.046 2.007-.085.164-.16.315-.225.425-.531.285-1.005.6-1.452.925l3.192-6.717a1 1 0 1 0-1.807-.857l-4.227 8.896c-.082-.157-.16-.312-.252-.479-.078-.204-.179-.997-.245-1.521-.228-1.801-.365-2.888-1.412-2.959l-.102-.004c.384-1.233 1.216-3.112 3.013-5.312 2.32-2.843 4.84-4.079 6.039-4.539a16.736 16.736 0 0 1 1.63 6.627zM75.81 15.471c.263.528.65 1.375 1.185 2.693.865 2.135 1.036 4.711 1.067 5.893a17.114 17.114 0 0 0-2.294 1.76l.54-1.901a1 1 0 0 0-.689-1.235.994.994 0 0 0-1.235.688l-.713 2.508a24.217 24.217 0 0 0-1.178-2.471 29.6 29.6 0 0 0-1.641-2.594c.61-.9 1.283-1.829 2.016-2.748.899-1.126 2.131-2.05 2.942-2.593zm-10.681-4.487c.876-1.676 1.863-2.659 2.467-3.152.744.764 2.068 2.268 2.948 4.089.461.954 1.046 2.429 1.614 3.95a11.33 11.33 0 0 0-.852.946 45.48 45.48 0 0 0-1.727 2.316c-.42-.51-.75-.875-.939-1.074l-.049-3.531c-.008-.553-.474-.948-1.014-.987a1 1 0 0 0-.986 1.014l.052 3.678c-.214.216-.488.521-.821.942a46.834 46.834 0 0 0-1.767-2.33 11.637 11.637 0 0 0-.818-.896c.426-1.561 1.033-3.313 1.892-4.965zm-6.751 7.258c.523-1.326.904-2.175 1.16-2.703.816.536 2.056 1.451 2.965 2.567a44.615 44.615 0 0 1 2.084 2.797 40 40 0 0 0-1.027 1.643 22.237 22.237 0 0 0-1.477 2.985l-.4-2.631a.999.999 0 1 0-1.977.3l.524 3.454a17.718 17.718 0 0 0-2.874-2.359c.01-1.09.132-3.799 1.022-6.053zm-4.628 6.437c1.199.446 3.713 1.651 6.077 4.494 2.434 2.93 3.13 5.344 3.325 6.342-.039.036-.073.065-.112.102-1.084 1.038-1.857 2.217-2.396 3.262l-3.637-7.964a.999.999 0 1 0-1.819.83l2.79 6.109c-.43-.318-.888-.633-1.408-.935-.096-.14-.264-.43-.38-.633-.465-.808-.727-1.238-1.158-1.446l-.217-.101-.679.009-.297.32a1.05 1.05 0 0 0-.266.533 9.366 9.366 0 0 0-1.091-.245 19.634 19.634 0 0 1-.307-4.029 16.769 16.769 0 0 1 1.575-6.648zm-2.572 12.553c.883 0 1.88.234 2.952.693l.205.088.557-.006c.187.279.351.457.566.58 2.325 1.319 3.599 2.962 4.025 3.58-.06.43-.156 1.169-.227 1.999a1.11 1.11 0 0 0-.558.088l-.474.238-.122.466c-.209.798.297 1.513.785 2.203.157.222.42.593.455.702.083.614.212 1.189.363 1.741a17.751 17.751 0 0 1-4.511-3.298c-.256-.26-.736-.653-1.343-1.152-.557-.458-1.615-1.324-2.321-1.997.003-.002.004-.005.005-.007.382-.55.347-1.287-.123-2.543-.471-1.262-.79-2.316-.995-3.309a4.12 4.12 0 0 1 .761-.066zm-40.115-4.103c-.071-2.26.232-3.887.37-4.502.194-.043.386-.082.592-.137.03.281.116.545.324.772l.38.359h.44c.994 0 1.552-1.066 2.045-2.007.085-.163.16-.313.226-.424.53-.285 1.004-.601 1.452-.925L13.7 32.984a1 1 0 0 0 1.807.857l4.227-8.9c.082.159.16.313.252.481.078.203.179.996.245 1.52.228 1.802.366 2.89 1.412 2.96l.093.003c-.39 1.244-1.225 3.136-3.003 5.314-2.322 2.844-4.844 4.078-6.042 4.539a16.651 16.651 0 0 1-1.628-6.629zm15.355 6.113a1 1 0 0 0 1-1l.002-6.613c.44-.27 1.074-.698 1.866-1.335.323 1.058.923 2.498 2.009 4.156-.242 1.16-.907 3.712-2.449 6.309-1.116 1.879-1.934 2.959-2.436 3.545a27.508 27.508 0 0 1-3.034-4.362c-.794-1.416-1.51-3.273-2.049-4.85 1.315-1.894 2.005-3.541 2.361-4.725a16.436 16.436 0 0 0 1.732 1.352l-.002 6.523a1 1 0 0 0 1 1zm-8.103 9.614a39.68 39.68 0 0 1-1.185-2.694c-.865-2.135-1.036-4.711-1.067-5.892a17.177 17.177 0 0 0 2.294-1.76l-.54 1.9a1 1 0 0 0 1.924.547l.713-2.507c.361.867.757 1.72 1.178 2.471a29.6 29.6 0 0 0 1.641 2.594 44.355 44.355 0 0 1-2.017 2.748c-.899 1.125-2.13 2.05-2.941 2.593zm10.68 4.486c-.875 1.677-1.862 2.659-2.466 3.153-.745-.764-2.069-2.268-2.948-4.089-.462-.955-1.046-2.429-1.613-3.951.296-.297.585-.61.851-.944a44.526 44.526 0 0 0 1.728-2.318c.42.51.749.875.938 1.075l.049 3.531a1 1 0 0 0 .999.986h.015a1 1 0 0 0 .986-1.013l-.052-3.677c.215-.218.488-.522.821-.943.546.766 1.134 1.55 1.767 2.331.257.315.534.613.818.894-.426 1.562-1.033 3.315-1.893 4.965zm6.752-7.256c-.524 1.325-.905 2.175-1.16 2.701-.815-.535-2.057-1.449-2.965-2.565a44.514 44.514 0 0 1-2.084-2.797 40.25 40.25 0 0 0 1.026-1.645 22.073 22.073 0 0 0 1.478-2.985l.4 2.633a1 1 0 1 0 1.977-.301l-.524-3.453c.989.996 1.974 1.77 2.874 2.357-.01 1.092-.132 3.801-1.022 6.055zm3.185-28.064c.255.259.733.651 1.339 1.148.557.458 1.618 1.328 2.324 1.999l-.006.008c-.382.55-.346 1.286.123 2.542.465 1.244.788 2.316.994 3.309a4.002 4.002 0 0 1-.759.067c-.883.001-1.879-.235-2.953-.693l-.204-.089-.557.007c-.187-.279-.352-.457-.566-.581-2.325-1.319-3.599-2.961-4.025-3.58.06-.43.157-1.17.227-1.999.174.02.361 0 .558-.087l.475-.239.122-.466c.208-.796-.297-1.511-.787-2.202-.156-.222-.42-.594-.454-.703a13.139 13.139 0 0 0-.364-1.74 17.74 17.74 0 0 1 4.513 3.299zm-1.814 15.389a1 1 0 0 0 1.819-.829l-2.79-6.109c.43.318.888.633 1.408.934.097.14.264.431.381.634.464.807.725 1.236 1.161 1.448l.216.099.677-.01.296-.319c.15-.162.229-.339.266-.533.372.109.734.185 1.091.246.153.807.348 2.217.307 4.027a16.746 16.746 0 0 1-1.574 6.645c-1.205-.454-3.734-1.669-6.078-4.489-2.435-2.932-3.13-5.345-3.325-6.343l.112-.103c1.084-1.037 1.857-2.217 2.396-3.262l3.637 7.964zM26.201 4.535h.009c1.101 0 1.995.89 1.999 1.992l.019 4.373c-.498.059-.968.274-1.376.473-.253.125-.601.295-.753.295-.167 0-.438-.138-.7-.273-.323-.165-.731-.349-1.171-.428l-.018-4.424a2 2 0 0 1 1.991-2.008zm-6.328 10.517c.144-.495.362-.942.666-1.324a17.72 17.72 0 0 1 3.31-.808c.136 0 .405.137.641.258.429.219.962.49 1.618.49.609-.002 1.148-.265 1.624-.498.236-.116.591-.29.733-.29 1.169.14 2.313.413 3.423.782.441.866.753 1.891.913 3.072.038.274.151.541.294.8.096.174.204.346.319.515a1.095 1.095 0 0 0-.24.25 1.224 1.224 0 0 0-.232.674 32.59 32.59 0 0 1-.326 3.218c-.055.226-.764 3.016-2.914 5.074-1.541 1.475-2.727 2.292-3.345 2.67-.63-.441-1.739-1.29-2.453-2.247-.157-.209-.571-.765-1.252-.765-.149 0-.281.024-.399.066a28.726 28.726 0 0 0-.038-.297c-.142-1.128-.234-1.785-.455-2.19a19.861 19.861 0 0 1-1.062-2.25c-.004-.013-.01-.025-.015-.038a8.044 8.044 0 0 1-.154-.429l-.479-1.576a15.431 15.431 0 0 1-.324-1.718c-.149-1.155-.158-2.39.147-3.439zM12.6 18.168a1.106 1.106 0 0 0-.256-.345c.4-.197.805-.39 1.155-.556 1.177-.56 2.289-1.089 2.99-1.556a18.07 18.07 0 0 1 1.363-.803c-.615 2.717.225 5.823.613 7.018-.54.745-1.939 2.453-4.121 3.582-.32.164-.507.442-.741.874l-.216-.213-.628.005-.157.054c-1.568.536-2.822.707-3.683.744a17.68 17.68 0 0 1 3.486-7.502c.462-.583.291-1.105.195-1.302z" fill="#088F48"/></g></svg>