<svg width="95" height="88" viewBox="0 0 95 88" xmlns="http://www.w3.org/2000/svg"><title>643-colour</title><g fill="none" fill-rule="evenodd"><path d="M46.834 82.747L4 43.907V2h85.67v41.906l-42.836 38.84" fill="#FDF8E6"/><path d="M0 44.557l47.062 42.595 47.063-42.595V0H0v44.557zM67.923 59.79h-.008c-1.1 0-1.995-.89-2-1.99l-.018-4.376c.507-.057.968-.27 1.377-.47.254-.124.6-.295.752-.296.166 0 .438.14.7.273.323.166.73.35 1.17.43l.02 4.423c.004 1.105-.888 2.003-1.993 2.008zm6.328-10.514c-.143.494-.36.94-.665 1.322-1.067.365-2.165.65-3.308.81-.136 0-.405-.138-.642-.26-.428-.217-.962-.49-1.62-.49-.608.002-1.146.267-1.62.5-.237.115-.594.29-.734.29-1.168-.14-2.312-.414-3.423-.783-.44-.866-.752-1.89-.914-3.072-.037-.276-.15-.542-.293-.802-.096-.173-.203-.344-.32-.512.096-.07.172-.157.24-.25.137-.188.222-.417.233-.674.06-1.483.303-3.065.328-3.23.078-.31.8-3.04 2.914-5.062 1.54-1.477 2.727-2.293 3.344-2.67.63.44 1.74 1.29 2.454 2.247.156.208.57.764 1.252.764.147 0 .28-.025.397-.067l.04.298c.142 1.128.234 1.785.454 2.19.548 1.005.883 1.788 1.063 2.25.003.013.01.024.014.036.106.275.153.427.154.43l.49 1.61c.124.514.237 1.086.314 1.684.15 1.156.16 2.393-.147 3.442zm-6.543-24.192c-.552 0-1 .448-1 1l-.002 6.613c-.44.27-1.074.7-1.866 1.335-.324-1.057-.925-2.5-2.01-4.157.24-1.156.9-3.7 2.45-6.308 1.116-1.878 1.933-2.958 2.435-3.544.716.834 1.902 2.344 3.034 4.362.793 1.416 1.508 3.272 2.047 4.85-1.314 1.894-2.004 3.54-2.36 4.724-.678-.61-1.336-1.085-1.732-1.353l.002-6.523c0-.552-.448-1-1-1zm13.818 21.074c.068.142.156.256.256.346-.4.196-.805.39-1.154.555-1.177.56-2.29 1.09-2.99 1.555-.444.295-.902.55-1.363.803.615-2.717-.226-5.822-.614-7.018.54-.745 1.94-2.452 4.122-3.582.32-.164.505-.442.74-.873l.216.212.627-.004.157-.054c1.57-.537 2.823-.707 3.684-.744-.55 2.73-1.743 5.303-3.486 7.5-.463.583-.29 1.105-.195 1.302zm1.537-14.96c.07 2.26-.23 3.886-.37 4.5-.195.044-.386.083-.592.138-.03-.28-.116-.545-.325-.77l-.38-.36h-.44c-.993 0-1.55 1.065-2.045 2.006-.085.164-.16.315-.225.425-.53.285-1.005.6-1.452.925l3.192-6.717c.236-.498.024-1.095-.474-1.332-.5-.236-1.095-.026-1.332.475l-4.227 8.896c-.08-.157-.16-.312-.25-.48-.08-.203-.18-.996-.246-1.52-.228-1.8-.365-2.888-1.412-2.96l-.102-.003c.384-1.232 1.216-3.11 3.013-5.31 2.32-2.844 4.84-4.08 6.04-4.54.548 1.128 1.533 3.563 1.63 6.627zM75.81 15.47c.263.53.65 1.376 1.185 2.694.865 2.135 1.036 4.71 1.067 5.893-.72.46-1.497 1.037-2.294 1.76l.54-1.9c.15-.532-.158-1.085-.69-1.236-.53-.157-1.083.158-1.234.69l-.713 2.507c-.36-.867-.756-1.72-1.177-2.47-.556-.993-1.116-1.85-1.64-2.595.61-.9 1.282-1.83 2.015-2.748.9-1.126 2.13-2.05 2.942-2.593zm-10.68-4.486c.875-1.676 1.862-2.66 2.466-3.152.744.764 2.068 2.268 2.948 4.09.46.953 1.046 2.428 1.614 3.95-.297.296-.585.61-.852.945-.62.775-1.194 1.554-1.727 2.316-.42-.51-.75-.875-.94-1.074l-.05-3.532c-.007-.553-.473-.948-1.013-.987-.552.01-.994.463-.986 1.015l.053 3.678c-.214.216-.488.52-.82.942-.547-.766-1.135-1.55-1.768-2.33-.257-.316-.534-.613-.818-.896.426-1.562 1.033-3.314 1.892-4.966zm-6.752 7.258c.523-1.326.904-2.175 1.16-2.703.816.535 2.056 1.45 2.965 2.566.76.935 1.454 1.883 2.084 2.797-.315.476-.655 1.017-1.027 1.643-.612 1.03-1.094 2.044-1.477 2.985l-.4-2.63c-.083-.548-.593-.922-1.14-.838-.545.083-.92.592-.837 1.138l.524 3.454c-.99-.997-1.974-1.77-2.874-2.36.01-1.09.132-3.798 1.022-6.052zM53.75 24.68c1.2.445 3.713 1.65 6.077 4.493 2.434 2.93 3.13 5.344 3.325 6.342-.04.036-.073.065-.112.102-1.084 1.038-1.857 2.217-2.396 3.262l-3.637-7.965c-.23-.503-.822-.725-1.325-.494-.502.23-.724.823-.494 1.325l2.79 6.11c-.43-.32-.888-.634-1.408-.936-.096-.14-.264-.43-.38-.634-.465-.808-.727-1.238-1.158-1.446l-.217-.1-.68.008-.296.32c-.15.162-.23.338-.267.533-.372-.108-.734-.184-1.09-.244-.153-.807-.35-2.22-.308-4.03.07-3.067 1.037-5.514 1.575-6.647zM51.178 37.23c.883 0 1.88.234 2.952.693l.205.088.557-.006c.187.28.35.457.566.58 2.325 1.32 3.6 2.962 4.025 3.58-.06.43-.156 1.17-.227 2-.174-.016-.36 0-.558.087l-.474.238-.122.466c-.21.798.297 1.513.785 2.203.157.223.42.594.455.703.083.614.212 1.19.363 1.74-1.657-.853-3.19-1.957-4.51-3.297-.257-.26-.737-.653-1.344-1.152-.556-.458-1.614-1.324-2.32-1.997.003-.002.004-.005.005-.007.382-.55.347-1.287-.123-2.543-.47-1.262-.79-2.316-.995-3.31.202-.037.455-.065.76-.065zM11.063 33.13c-.07-2.26.232-3.888.37-4.503.194-.043.386-.082.592-.137.03.28.116.545.324.772l.38.36h.44c.993 0 1.55-1.067 2.044-2.008.085-.163.16-.313.226-.424.53-.285 1.004-.6 1.452-.925l-3.192 6.72c-.236.497-.024 1.093.475 1.33.138.066.284.097.428.097.374 0 .733-.21.904-.57l4.227-8.9c.082.158.16.312.252.48.078.203.18.996.245 1.52.23 1.802.367 2.89 1.413 2.96l.093.003c-.39 1.244-1.225 3.136-3.003 5.314-2.322 2.843-4.844 4.077-6.042 4.538-.547-1.123-1.53-3.546-1.627-6.63zm15.355 6.112c.553 0 1-.447 1-1l.002-6.613c.44-.27 1.074-.7 1.866-1.336.323 1.058.923 2.498 2.01 4.156-.243 1.16-.908 3.712-2.45 6.31-1.116 1.878-1.934 2.958-2.436 3.544-.715-.834-1.9-2.344-3.034-4.362-.794-1.416-1.51-3.273-2.05-4.85 1.316-1.894 2.006-3.54 2.362-4.725.677.61 1.336 1.084 1.732 1.352l-.002 6.522c0 .552.447 1 1 1zm-8.103 9.614c-.262-.53-.65-1.374-1.185-2.694-.865-2.135-1.036-4.71-1.067-5.892.72-.46 1.497-1.037 2.294-1.76l-.54 1.9c-.15.532.157 1.084.688 1.236.092.026.184.038.275.038.435 0 .836-.288.96-.727l.714-2.507c.36.867.757 1.72 1.178 2.47.556.992 1.116 1.85 1.64 2.595-.61.9-1.282 1.83-2.016 2.748-.9 1.125-2.13 2.05-2.94 2.593zm10.68 4.486c-.875 1.677-1.862 2.66-2.466 3.153-.746-.764-2.07-2.268-2.95-4.09-.46-.954-1.045-2.428-1.612-3.95.296-.297.585-.61.85-.944.62-.775 1.196-1.553 1.73-2.317.42.51.748.875.937 1.075l.05 3.53c.007.55.453.987.998.987h.015c.552-.008.993-.462.986-1.013l-.052-3.677c.215-.218.488-.522.82-.943.547.766 1.135 1.55 1.768 2.33.257.316.534.614.818.895-.426 1.562-1.033 3.315-1.893 4.965zm6.752-7.256c-.524 1.325-.905 2.175-1.16 2.7-.815-.534-2.057-1.448-2.965-2.564-.76-.936-1.455-1.883-2.084-2.797.314-.477.655-1.018 1.026-1.645.613-1.03 1.095-2.043 1.478-2.985l.4 2.633c.075.495.5.85.987.85.05 0 .1-.005.15-.012.547-.083.922-.593.84-1.14l-.525-3.452c.99.996 1.974 1.77 2.874 2.357-.01 1.093-.133 3.802-1.023 6.056zm3.185-28.064c.255.26.733.65 1.34 1.148.556.458 1.617 1.328 2.323 2l-.006.007c-.383.55-.347 1.286.122 2.542.465 1.243.788 2.315.994 3.308-.2.04-.454.067-.76.067-.882 0-1.878-.235-2.952-.693l-.204-.09-.557.008c-.187-.28-.352-.457-.566-.58-2.325-1.32-3.6-2.962-4.025-3.58.06-.43.157-1.17.227-2 .173.02.36 0 .557-.087l.475-.24.122-.465c.208-.796-.297-1.51-.787-2.202-.156-.222-.42-.594-.454-.703-.083-.613-.212-1.19-.364-1.74 1.657.853 3.19 1.96 4.512 3.3zm-1.814 15.39c.168.367.53.584.91.584.14 0 .28-.03.415-.09.503-.23.724-.823.494-1.324l-2.79-6.11c.43.32.888.634 1.408.935.097.14.264.43.38.634.465.808.726 1.237 1.162 1.45l.216.098.677-.01.296-.32c.15-.16.23-.338.266-.532.372.11.734.185 1.09.246.154.807.35 2.217.308 4.027-.07 3.066-1.035 5.51-1.574 6.644-1.205-.454-3.734-1.67-6.078-4.49-2.435-2.93-3.13-5.344-3.325-6.342l.112-.103c1.084-1.038 1.857-2.218 2.396-3.263l3.638 7.964zM26.2 4.534h.01c1.1 0 1.995.89 2 1.992l.018 4.373c-.498.06-.968.274-1.376.473-.253.125-.6.295-.753.295-.168 0-.44-.138-.7-.273-.324-.165-.732-.35-1.172-.428l-.018-4.424c-.005-1.104.887-2.002 1.99-2.008zm-6.327 10.517c.144-.495.362-.942.666-1.324 1.067-.365 2.166-.65 3.31-.808.135 0 .404.137.64.258.43.22.962.49 1.618.49.61-.002 1.148-.265 1.624-.498.236-.116.59-.29.733-.29 1.17.14 2.313.413 3.423.782.44.866.753 1.89.913 3.072.04.274.152.54.295.8.096.174.204.346.32.515-.096.068-.173.155-.24.25-.137.186-.222.415-.233.673-.06 1.457-.294 3.01-.326 3.218-.055.227-.764 3.017-2.914 5.075-1.54 1.475-2.727 2.292-3.345 2.67-.63-.44-1.74-1.29-2.453-2.247-.157-.21-.57-.765-1.252-.765-.15 0-.28.024-.4.066-.012-.107-.025-.208-.037-.298-.142-1.128-.234-1.785-.455-2.19-.547-1.004-.88-1.787-1.062-2.25-.004-.013-.01-.025-.015-.038-.105-.274-.153-.425-.154-.43l-.48-1.575c-.13-.522-.245-1.107-.324-1.72-.15-1.154-.158-2.39.147-3.438zM12.6 18.168c-.068-.142-.156-.254-.256-.345.4-.197.805-.39 1.155-.556 1.176-.56 2.288-1.09 2.99-1.556.442-.294.9-.55 1.362-.802-.615 2.717.225 5.823.613 7.018-.54.745-1.94 2.453-4.12 3.582-.32.164-.508.442-.742.874l-.216-.213-.628.004-.158.054c-1.568.536-2.822.707-3.683.744.548-2.73 1.74-5.305 3.485-7.502.462-.583.29-1.105.195-1.302z" fill="#088F48"/></g></svg>