<?xml version="1.0" encoding="utf-8"?>
<!-- Generator: Adobe Illustrator 16.0.0, SVG Export Plug-In . SVG Version: 6.00 Build 0)  -->
<!DOCTYPE svg PUBLIC "-//W3C//DTD SVG 1.1//EN" "http://www.w3.org/Graphics/SVG/1.1/DTD/svg11.dtd">
<svg version="1.1" xmlns="http://www.w3.org/2000/svg" xmlns:xlink="http://www.w3.org/1999/xlink" x="0px" y="0px"
	 width="75.218px" height="39.567px" viewBox="0 0 75.218 39.567" enable-background="new 0 0 75.218 39.567" xml:space="preserve">
<g id="Background">
</g>
<g id="Dieline">
	<g>
		<path fill="#FFFFFF" d="M33.867,26.658c0,0-0.051-0.77,0.784-0.77c0.836,0,1.989,0,1.989,0V2.312h-1.54
			c0,0-1.233,0.001-1.233-1.153c0-0.898,0-1.158,0-1.158s3.513,0,4.476,0S39.3,1.126,39.3,1.126v24.763c0,0,1.121,0,1.959,0
			c0.84,0,0.814,0.77,0.814,0.77v1.54h-8.206V26.658z"/>
		<path fill="#FFFFFF" d="M22.022,26.658c0,0-0.051-0.77,0.783-0.77s1.99,0,1.99,0V14.03h-1.541c0,0-1.232,0.001-1.232-1.153
			c0-0.899,0-1.158,0-1.158s3.512,0,4.475,0s0.957,1.125,0.957,1.125v13.045c0,0,1.121,0,1.961,0c0.837,0,0.812,0.77,0.812,0.77
			v1.54h-8.205V26.658z"/>
		<g>
			<g>
				<path fill="#FFFFFF" d="M10.892,11.48c-2.437,0-4.082,1.093-5.459,2.604v-1.241c0,0,0.006-1.125-0.957-1.125s-4.475,0-4.475,0
					s0,0.259,0,1.158c0,1.154,1.232,1.153,1.232,1.153h1.541v23.174c0,0-1.156,0-1.99,0s-0.783,0.771-0.783,0.771v1.543h8.205
					v-1.543c0,0,0.025-0.771-0.814-0.771c-0.838,0-1.959,0-1.959,0V22.459l0.025,4.161c1.35,1.155,3.16,1.888,5.086,1.888
					c4.893,0,8.091-3.968,8.091-8.591C18.635,14.87,15.206,11.48,10.892,11.48z M10.39,26.157c-2.118,0-3.697-0.771-4.932-1.811
					v-8.09c1.35-1.387,2.929-2.427,5.047-2.427c3.082,0,5.395,2.427,5.355,6.125C15.822,23.537,13.587,26.157,10.39,26.157z"/>
			</g>
		</g>
		<path fill="#FFFFFF" d="M43.94,19.993c0-4.622,3.353-8.513,8.436-8.513c5.086,0,8.438,3.852,8.438,8.513s-3.352,8.515-8.438,8.515
			C47.253,28.508,43.94,24.693,43.94,19.993z M58.04,19.993c0-3.62-2.311-6.201-5.664-6.201c-3.35,0-5.66,2.581-5.66,6.201
			c0,3.661,2.311,6.202,5.66,6.202C55.729,26.195,58.04,23.654,58.04,19.993z"/>
		<path fill="#FFFFFF" d="M65.821,26.582c-0.309-0.617-0.425-1.389-0.425-2.273V14.138h-3.044v-2.35h3.044V7.061l2.619-0.279v5.007
			h5.047v2.35h-5.047v9.786c0,0.539,0.077,0.924,0.271,1.27c0.307,0.579,0.925,0.849,1.926,0.849c0.963,0,2.158-0.463,3.082-1
			l-0.347,2.541c-0.848,0.462-2.003,0.925-3.506,0.925C67.708,28.508,66.476,27.852,65.821,26.582z"/>
		<path fill="#FFFFFF" d="M23.642,5.47c0-1.154,1-2.157,2.156-2.157c1.117,0,2.08,1.003,2.08,2.157c0,1.156-1.002,2.119-2.119,2.119
			C24.604,7.589,23.642,6.626,23.642,5.47z"/>
		<g>
			<path fill="#FFFFFF" d="M22.086,39.567c-1.143,0-1.674-1.175-1.674-2.659c0-1.493,0.546-2.674,1.688-2.674
				c0.879,0,1.262,0.562,1.461,1.308l-0.863,0.281c-0.133-0.473-0.272-0.664-0.612-0.664c-0.494,0-0.729,0.635-0.729,1.735
				c0,1.102,0.242,1.75,0.744,1.75c0.318,0,0.479-0.177,0.672-0.738l0.797,0.339C23.325,39.094,22.876,39.567,22.086,39.567z"/>
			<path fill="#FFFFFF" d="M25.918,39.567c-1.202,0-1.711-1.175-1.711-2.659c0-1.493,0.524-2.674,1.726-2.674
				c1.194,0,1.703,1.176,1.703,2.66C27.636,38.384,27.112,39.567,25.918,39.567z M25.918,35.158c-0.554,0-0.767,0.635-0.767,1.735
				c0,1.102,0.229,1.75,0.781,1.75c0.547,0,0.76-0.636,0.76-1.735C26.692,35.808,26.464,35.158,25.918,35.158z"/>
			<path fill="#FFFFFF" d="M29.559,35.209v1.146h1.21v0.894h-1.21v2.237h-0.921v-5.169h2.721v0.892H29.559z"/>
			<path fill="#FFFFFF" d="M33.207,35.209v1.146h1.209v0.894h-1.209v2.237h-0.921v-5.169h2.719v0.892H33.207z"/>
			<path fill="#FFFFFF" d="M35.933,39.486v-5.169h2.646v0.884h-1.725v1.095h1.157v0.872h-1.157V38.6h1.791v0.886H35.933z"/>
			<path fill="#FFFFFF" d="M39.669,39.486v-5.169h2.646v0.884h-1.725v1.095h1.158v0.872h-1.158V38.6h1.791v0.886H39.669z"/>
			<path fill="#FFFFFF" d="M47.356,39.486l-0.803-1.964h-0.303v1.964h-0.922v-5.169H46.7c1.003,0,1.645,0.537,1.645,1.609
				c0,0.724-0.368,1.174-0.869,1.411l0.885,2.149H47.356z M46.655,35.217h-0.404v1.44h0.457c0.472,0,0.715-0.244,0.715-0.716
				C47.423,35.476,47.21,35.217,46.655,35.217z"/>
			<path fill="#FFFFFF" d="M50.755,39.567c-1.202,0-1.712-1.175-1.712-2.659c0-1.493,0.524-2.674,1.727-2.674
				c1.194,0,1.702,1.176,1.702,2.66C52.472,38.384,51.949,39.567,50.755,39.567z M50.755,35.158c-0.554,0-0.768,0.635-0.768,1.735
				c0,1.102,0.229,1.75,0.782,1.75c0.546,0,0.759-0.636,0.759-1.735C51.528,35.808,51.3,35.158,50.755,35.158z"/>
			<path fill="#FFFFFF" d="M55.679,39.486l-0.244-1.078h-1.156l-0.244,1.078h-0.943l1.319-5.169h0.9l1.319,5.169H55.679z
				 M55.097,36.932c-0.089-0.4-0.207-0.998-0.244-1.257c-0.037,0.266-0.141,0.82-0.236,1.241l-0.141,0.627h0.76L55.097,36.932z"/>
			<path fill="#FFFFFF" d="M58.699,39.567c-0.7,0-1.187-0.369-1.54-0.812l0.626-0.673c0.31,0.399,0.642,0.591,0.951,0.591
				c0.384,0,0.575-0.214,0.575-0.561c0-0.295-0.185-0.532-0.789-0.842c-0.767-0.399-1.231-0.79-1.231-1.646
				c0-0.776,0.575-1.39,1.445-1.39c0.642,0,1.04,0.259,1.409,0.739l-0.613,0.613c-0.302-0.34-0.464-0.458-0.817-0.458
				c-0.296,0-0.487,0.19-0.487,0.45c0,0.31,0.177,0.503,0.738,0.805c0.892,0.48,1.283,0.835,1.283,1.707
				C60.249,38.948,59.658,39.567,58.699,39.567z"/>
			<path fill="#FFFFFF" d="M62.747,35.201v4.285h-0.922v-4.285h-1.068v-0.884h3.06v0.884H62.747z"/>
			<path fill="#FFFFFF" d="M64.706,39.486v-5.169h2.646v0.884h-1.725v1.095h1.158v0.872h-1.158V38.6h1.792v0.886H64.706z"/>
			<path fill="#FFFFFF" d="M70.47,39.486l-0.803-1.964h-0.302v1.964h-0.922v-5.169h1.371c1.003,0,1.645,0.537,1.645,1.609
				c0,0.724-0.369,1.174-0.871,1.411l0.886,2.149H70.47z M69.771,35.217h-0.405v1.44h0.456c0.473,0,0.716-0.244,0.716-0.716
				C70.537,35.476,70.323,35.217,69.771,35.217z"/>
			<path fill="#FFFFFF" d="M73.668,39.567c-0.7,0-1.187-0.369-1.54-0.812l0.626-0.673c0.311,0.399,0.642,0.591,0.951,0.591
				c0.384,0,0.575-0.214,0.575-0.561c0-0.295-0.184-0.532-0.789-0.842c-0.766-0.399-1.231-0.79-1.231-1.646
				c0-0.776,0.576-1.39,1.445-1.39c0.642,0,1.04,0.259,1.408,0.739l-0.611,0.613c-0.302-0.34-0.465-0.458-0.818-0.458
				c-0.296,0-0.487,0.19-0.487,0.45c0,0.31,0.178,0.503,0.737,0.805c0.892,0.48,1.284,0.835,1.284,1.707
				C75.218,38.948,74.627,39.567,73.668,39.567z"/>
		</g>
	</g>
</g>
<g id="Brand_Copy">
	<polygon display="none" fill="none" stroke="#FFEFCF" stroke-miterlimit="10" points="-60.316,-13.655 -60.316,43.845 
		1.297,100.22 62.684,44.289 62.684,-13.655 	"/>
</g>
<g id="Brand_Icon">
</g>
<g id="Dimensions">
</g>
</svg>
