<svg xmlns="http://www.w3.org/2000/svg" xmlns:xlink="http://www.w3.org/1999/xlink" width="98.125" height="91.85" viewBox="0 0 98.125 91.85"><path fill="#90D4D1" d="M.424.007H98.04l-.025 46.056L48.84 90.05.452 46.063"/><defs><path id="a" d="M.424.007H98.04l-.025 46.056L48.84 90.05.452 46.063z"/></defs><clipPath id="b"><use xlink:href="#a" overflow="visible"/></clipPath><g clip-path="url(#b)"><path fill="#83CCC8" d="M-19.293 115.464l8.534-12.877 8.532 12.877"/><path fill="#8FD1CC" d="M-2.23 115.464l8.533-12.877 8.533 12.877"/><path fill="#8ED6D3" d="M6.303 102.587l-8.532 12.877-8.53-12.877"/><path fill="#90D4D1" d="M-10.76 102.587l-8.534 12.877-8.53-12.877"/><path fill="#83CCC8" d="M14.836 115.464l8.533-12.877 8.53 12.877"/><path fill="#8FD1CC" d="M31.9 115.464l8.532-12.877 8.534 12.877"/><path fill="#8ED6D3" d="M40.432 102.587L31.9 115.464l-8.533-12.877"/><path fill="#90D4D1" d="M23.367 102.587l-8.533 12.877-8.53-12.877"/><path fill="#83CCC8" d="M48.964 115.464l8.532-12.877 8.53 12.877"/><path fill="#8FD1CC" d="M66.025 115.464l8.534-12.877 8.532 12.877"/><path fill="#8ED6D3" d="M74.56 102.587l-8.535 12.877-8.53-12.877"/><path fill="#90D4D1" d="M57.496 102.587l-8.532 12.877-8.532-12.877M125.75 102.587l-8.532 12.877-8.53-12.877"/><path fill="#83CCC8" d="M83.09 115.464l8.534-12.877 8.53 12.877"/><path fill="#8FD1CC" d="M100.154 115.464l8.534-12.877 8.532 12.877"/><path fill="#8ED6D3" d="M108.688 102.587l-8.534 12.877-8.53-12.877"/><path fill="#90D4D1" d="M159.88 102.587l-8.535 12.877-8.53-12.877"/><path fill="#83CCC8" d="M117.218 115.464l8.532-12.877 8.533 12.877"/><path fill="#8FD1CC" d="M134.283 115.464l8.53-12.877 8.534 12.877"/><path fill="#8ED6D3" d="M142.814 102.587l-8.53 12.877-8.534-12.877"/><path fill="#90D4D1" d="M91.623 102.587l-8.533 12.877-8.53-12.877"/><g><path fill="#83CCC8" d="M151.344 115.464l8.535-12.877 8.53 12.877"/></g><g><path fill="#83CCC8" d="M-19.29 12.985L-10.76.112l8.533 12.873"/><path fill="#8FD1CC" d="M-2.228 12.985L6.304.112l8.533 12.873"/><path fill="#8ED6D3" d="M6.304.112l-8.532 12.873-8.53-12.873"/><path fill="#90D4D1" d="M-10.76.112l-8.533 12.873-8.53-12.873"/><path fill="#83CCC8" d="M14.836 12.985L23.37.112l8.53 12.873"/><path fill="#8FD1CC" d="M31.9 12.985L40.43.112l8.534 12.873"/><path fill="#8ED6D3" d="M40.432.112L31.9 12.985 23.37.112"/><path fill="#90D4D1" d="M23.37.112l-8.534 12.873L6.304.112"/><path fill="#83CCC8" d="M48.966 12.985L57.496.112l8.53 12.873"/><path fill="#8FD1CC" d="M66.027 12.985L74.56.112l8.534 12.873"/><path fill="#8ED6D3" d="M74.56.112l-8.533 12.873L57.497.112"/><path fill="#90D4D1" d="M57.496.112l-8.532 12.873L40.432.112M125.75.112l-8.532 12.873-8.53-12.873"/><path fill="#83CCC8" d="M83.092 12.985L91.624.112l8.532 12.873"/><path fill="#8FD1CC" d="M100.155 12.985L108.688.112l8.532 12.873"/><path fill="#8ED6D3" d="M108.688.112l-8.533 12.873L91.625.112"/><path fill="#90D4D1" d="M159.88.112l-8.533 12.873L142.814.112"/><path fill="#83CCC8" d="M117.22 12.985L125.752.112l8.532 12.873"/><path fill="#8FD1CC" d="M134.283 12.985l8.53-12.873 8.535 12.873"/><path fill="#8ED6D3" d="M142.814.112l-8.53 12.873L125.75.112"/><path fill="#90D4D1" d="M91.624.112L83.09 12.985 74.56.112"/><g><path fill="#83CCC8" d="M151.345 12.985L159.88.112l8.53 12.873"/></g></g><g><path fill="#83CCC8" d="M-27.823 25.713l8.533-12.876 8.53 12.876"/><path fill="#8FD1CC" d="M-10.76 25.713l8.533-12.876 8.53 12.876"/><path fill="#8ED6D3" d="M-2.227 12.837l-8.532 12.876-8.53-12.876"/><path fill="#90D4D1" d="M-19.29 12.837l-8.535 12.876-8.53-12.876"/><path fill="#83CCC8" d="M6.304 25.713l8.533-12.876 8.532 12.876"/><path fill="#8FD1CC" d="M23.367 25.713L31.9 12.837l8.532 12.876"/><path fill="#8ED6D3" d="M31.9 12.837l-8.533 12.876-8.53-12.876"/><path fill="#90D4D1" d="M14.836 12.837L6.303 25.713l-8.53-12.876"/><path fill="#83CCC8" d="M40.432 25.713l8.534-12.876 8.53 12.876"/><path fill="#8FD1CC" d="M57.496 25.713l8.53-12.876 8.536 12.876"/><path fill="#8ED6D3" d="M66.027 12.837l-8.53 12.876-8.53-12.876"/><path fill="#90D4D1" d="M48.966 12.837l-8.534 12.876L31.9 12.837M117.22 12.837l-8.532 12.876-8.532-12.876"/><path fill="#83CCC8" d="M74.56 25.713l8.534-12.876 8.53 12.876"/><path fill="#8FD1CC" d="M91.623 25.713l8.533-12.876 8.532 12.876"/><path fill="#8ED6D3" d="M100.156 12.837l-8.533 12.876-8.53-12.876"/><path fill="#90D4D1" d="M151.347 12.837l-8.533 12.876-8.53-12.876"/><path fill="#83CCC8" d="M108.688 25.713l8.532-12.876 8.53 12.876"/><path fill="#8FD1CC" d="M125.75 25.713l8.534-12.876 8.532 12.876"/><path fill="#8ED6D3" d="M134.284 12.837l-8.534 12.876-8.53-12.876"/><path fill="#90D4D1" d="M83.092 12.837L74.56 25.713l-8.533-12.876"/><g><path fill="#83CCC8" d="M142.814 25.713l8.533-12.876 8.532 12.876"/><path fill="#8ED6D3" d="M168.41 12.837l-8.53 12.876-8.535-12.876"/></g></g><g><path fill="#83CCC8" d="M-27.823.047l8.533-12.878L-10.76.046"/><path fill="#8FD1CC" d="M-10.76.047l8.533-12.878L6.303.046"/><path fill="#8ED6D3" d="M-2.227-12.83L-10.76.046l-8.53-12.878"/><path fill="#90D4D1" d="M-19.29-12.83L-27.826.046l-8.53-12.878"/><path fill="#83CCC8" d="M6.304.047l8.533-12.878L23.37.046"/><path fill="#8FD1CC" d="M23.367.047L31.9-12.83 40.43.046"/><path fill="#8ED6D3" d="M31.9-12.83L23.366.046l-8.53-12.878"/><path fill="#90D4D1" d="M14.836-12.83L6.303.046l-8.53-12.878"/><path fill="#83CCC8" d="M40.432.047l8.534-12.878L57.496.046"/><path fill="#8FD1CC" d="M57.496.047l8.53-12.878L74.563.046"/><path fill="#8ED6D3" d="M66.027-12.83L57.497.046l-8.53-12.878"/><path fill="#90D4D1" d="M48.966-12.83L40.432.046 31.9-12.83M117.22-12.83L108.688.046l-8.532-12.878"/><path fill="#83CCC8" d="M74.56.047l8.534-12.878L91.624.046"/><path fill="#8FD1CC" d="M91.623.047l8.533-12.878L108.688.046"/><path fill="#8ED6D3" d="M100.156-12.83L91.623.046l-8.53-12.878"/><path fill="#90D4D1" d="M151.347-12.83L142.814.046l-8.53-12.878"/><path fill="#83CCC8" d="M108.688.047l8.532-12.878L125.75.046"/><path fill="#8FD1CC" d="M125.75.047l8.534-12.878L142.816.046"/><path fill="#8ED6D3" d="M134.284-12.83L125.75.046l-8.53-12.878"/><path fill="#90D4D1" d="M83.092-12.83L74.56.046 66.026-12.83"/><g><path fill="#83CCC8" d="M142.814.047l8.533-12.878L159.88.046"/><path fill="#8ED6D3" d="M168.41-12.83L159.88.046l-8.535-12.878"/></g></g><g><path fill="#83CCC8" d="M-27.823 51.337l8.533-12.88 8.53 12.88"/><path fill="#8FD1CC" d="M-10.76 51.337l8.533-12.88 8.53 12.88"/><path fill="#8ED6D3" d="M-2.227 38.458l-8.532 12.88-8.53-12.88"/><path fill="#90D4D1" d="M-19.29 38.458l-8.535 12.88-8.53-12.88"/><path fill="#83CCC8" d="M6.304 51.337l8.533-12.88 8.532 12.88"/><path fill="#8FD1CC" d="M23.367 51.337l8.532-12.88 8.532 12.88"/><path fill="#8ED6D3" d="M31.9 38.458l-8.533 12.88-8.53-12.88"/><path fill="#90D4D1" d="M14.836 38.458l-8.533 12.88-8.53-12.88"/><path fill="#83CCC8" d="M40.432 51.337l8.534-12.88 8.53 12.88"/><path fill="#8FD1CC" d="M57.496 51.337l8.53-12.88 8.536 12.88"/><path fill="#8ED6D3" d="M66.027 38.458l-8.53 12.88-8.53-12.88"/><path fill="#90D4D1" d="M48.966 38.458l-8.534 12.88-8.533-12.88M117.22 38.458l-8.532 12.88-8.532-12.88"/><path fill="#83CCC8" d="M74.56 51.337l8.534-12.88 8.53 12.88"/><path fill="#8FD1CC" d="M91.623 51.337l8.533-12.88 8.532 12.88"/><path fill="#8ED6D3" d="M100.156 38.458l-8.533 12.88-8.53-12.88"/><path fill="#90D4D1" d="M151.347 38.458l-8.533 12.88-8.53-12.88"/><path fill="#83CCC8" d="M108.688 51.337l8.532-12.88 8.53 12.88"/><path fill="#8FD1CC" d="M125.75 51.337l8.534-12.88 8.532 12.88"/><path fill="#8ED6D3" d="M134.284 38.458l-8.534 12.88-8.53-12.88"/><path fill="#90D4D1" d="M83.092 38.458l-8.533 12.88-8.533-12.88"/><g><path fill="#83CCC8" d="M142.814 51.337l8.533-12.88 8.532 12.88"/><path fill="#8ED6D3" d="M168.41 38.458l-8.53 12.88-8.535-12.88"/></g></g><g><path fill="#83CCC8" d="M-19.293 38.59l8.534-12.877 8.532 12.878"/><path fill="#8FD1CC" d="M-2.23 38.59l8.533-12.877 8.533 12.878"/><path fill="#8ED6D3" d="M6.303 25.713L-2.23 38.59l-8.53-12.877"/><path fill="#90D4D1" d="M-10.76 25.713l-8.534 12.878-8.53-12.877"/><path fill="#83CCC8" d="M14.836 38.59l8.533-12.877L31.9 38.59"/><path fill="#8FD1CC" d="M31.9 38.59l8.532-12.877 8.534 12.878"/><path fill="#8ED6D3" d="M40.432 25.713L31.9 38.59l-8.533-12.877"/><path fill="#90D4D1" d="M23.367 25.713L14.834 38.59l-8.53-12.877"/><path fill="#83CCC8" d="M48.964 38.59l8.532-12.877 8.53 12.878"/><path fill="#8FD1CC" d="M66.025 38.59l8.534-12.877L83.09 38.59"/><path fill="#8ED6D3" d="M74.56 25.713L66.024 38.59l-8.53-12.877"/><path fill="#90D4D1" d="M57.496 25.713L48.964 38.59l-8.532-12.877M125.75 25.713l-8.532 12.878-8.53-12.877"/><path fill="#83CCC8" d="M83.09 38.59l8.534-12.877 8.53 12.878"/><path fill="#8FD1CC" d="M100.154 38.59l8.534-12.877 8.532 12.878"/><path fill="#8ED6D3" d="M108.688 25.713l-8.534 12.878-8.53-12.877"/><path fill="#90D4D1" d="M159.88 25.713l-8.535 12.878-8.53-12.877"/><path fill="#83CCC8" d="M117.218 38.59l8.532-12.877 8.533 12.878"/><path fill="#8FD1CC" d="M134.283 38.59l8.53-12.877 8.534 12.878"/><path fill="#8ED6D3" d="M142.814 25.713l-8.53 12.878-8.534-12.877"/><path fill="#90D4D1" d="M91.623 25.713L83.09 38.59l-8.53-12.877"/><g><path fill="#83CCC8" d="M151.344 38.59l8.535-12.877 8.53 12.878"/></g></g><g><path fill="#83CCC8" d="M-27.823 76.96l8.533-12.876 8.53 12.877"/><path fill="#8FD1CC" d="M-10.76 76.96l8.533-12.876 8.53 12.877"/><path fill="#8ED6D3" d="M-2.227 64.084L-10.76 76.96l-8.53-12.876"/><path fill="#90D4D1" d="M-19.29 64.084l-8.535 12.877-8.53-12.876"/><path fill="#83CCC8" d="M6.304 76.96l8.533-12.876L23.37 76.96"/><path fill="#8FD1CC" d="M23.367 76.96L31.9 64.085 40.43 76.96"/><path fill="#8ED6D3" d="M31.9 64.084L23.366 76.96l-8.53-12.876"/><path fill="#90D4D1" d="M14.836 64.084L6.303 76.96l-8.53-12.876"/><path fill="#83CCC8" d="M40.432 76.96l8.534-12.876 8.53 12.877"/><path fill="#8FD1CC" d="M57.496 76.96l8.53-12.876 8.536 12.877"/><path fill="#8ED6D3" d="M66.027 64.084l-8.53 12.877-8.53-12.876"/><path fill="#90D4D1" d="M48.966 64.084L40.432 76.96 31.9 64.085M117.22 64.084l-8.532 12.877-8.532-12.876"/><path fill="#83CCC8" d="M74.56 76.96l8.534-12.876 8.53 12.877"/><path fill="#8FD1CC" d="M91.623 76.96l8.533-12.876 8.532 12.877"/><path fill="#8ED6D3" d="M100.156 64.084L91.623 76.96l-8.53-12.876"/><path fill="#90D4D1" d="M151.347 64.084l-8.533 12.877-8.53-12.876"/><path fill="#83CCC8" d="M108.688 76.96l8.532-12.876 8.53 12.877"/><path fill="#8FD1CC" d="M125.75 76.96l8.534-12.876 8.532 12.877"/><path fill="#8ED6D3" d="M134.284 64.084L125.75 76.96l-8.53-12.876"/><path fill="#90D4D1" d="M83.092 64.084L74.56 76.96l-8.533-12.876"/><g><path fill="#83CCC8" d="M142.814 76.96l8.533-12.876 8.532 12.877"/><path fill="#8ED6D3" d="M168.41 64.084l-8.53 12.877-8.535-12.876"/></g></g><g><path fill="#83CCC8" d="M-19.293 64.214l8.534-12.877 8.532 12.877"/><path fill="#8FD1CC" d="M-2.23 64.214l8.533-12.877 8.533 12.877"/><path fill="#8ED6D3" d="M6.303 51.337L-2.23 64.214l-8.53-12.877"/><path fill="#90D4D1" d="M-10.76 51.337l-8.534 12.877-8.53-12.877"/><path fill="#83CCC8" d="M14.836 64.214l8.533-12.877 8.53 12.877"/><path fill="#8FD1CC" d="M31.9 64.214l8.532-12.877 8.534 12.877"/><path fill="#8ED6D3" d="M40.432 51.337L31.9 64.214l-8.533-12.877"/><path fill="#90D4D1" d="M23.367 51.337l-8.533 12.877-8.53-12.877"/><path fill="#83CCC8" d="M48.964 64.214l8.532-12.877 8.53 12.877"/><path fill="#8FD1CC" d="M66.025 64.214l8.534-12.877 8.532 12.877"/><path fill="#8ED6D3" d="M74.56 51.337l-8.535 12.877-8.53-12.877"/><path fill="#90D4D1" d="M57.496 51.337l-8.532 12.877-8.532-12.877M125.75 51.337l-8.532 12.877-8.53-12.877"/><path fill="#83CCC8" d="M83.09 64.214l8.534-12.877 8.53 12.877"/><path fill="#8FD1CC" d="M100.154 64.214l8.534-12.877 8.532 12.877"/><path fill="#8ED6D3" d="M108.688 51.337l-8.534 12.877-8.53-12.877"/><path fill="#90D4D1" d="M159.88 51.337l-8.535 12.877-8.53-12.877"/><path fill="#83CCC8" d="M117.218 64.214l8.532-12.877 8.533 12.877"/><path fill="#8FD1CC" d="M134.283 64.214l8.53-12.877 8.534 12.877"/><path fill="#8ED6D3" d="M142.814 51.337l-8.53 12.877-8.534-12.877"/><path fill="#90D4D1" d="M91.623 51.337L83.09 64.214l-8.53-12.877"/><g><path fill="#83CCC8" d="M151.344 64.214l8.535-12.877 8.53 12.877"/></g></g><g><path fill="#83CCC8" d="M-27.823 102.587l8.533-12.88 8.53 12.88"/><path fill="#8FD1CC" d="M-10.76 102.587l8.533-12.88 8.53 12.88"/><path fill="#8ED6D3" d="M-2.227 89.708l-8.532 12.88-8.53-12.88"/><path fill="#90D4D1" d="M-19.29 89.708l-8.535 12.88-8.53-12.88"/><path fill="#83CCC8" d="M6.304 102.587l8.533-12.88 8.532 12.88"/><path fill="#8FD1CC" d="M23.367 102.587l8.532-12.88 8.532 12.88"/><path fill="#8ED6D3" d="M31.9 89.708l-8.533 12.88-8.53-12.88"/><path fill="#90D4D1" d="M14.836 89.708l-8.533 12.88-8.53-12.88"/><path fill="#83CCC8" d="M40.432 102.587l8.534-12.88 8.53 12.88"/><path fill="#8FD1CC" d="M57.496 102.587l8.53-12.88 8.536 12.88"/><path fill="#8ED6D3" d="M66.027 89.708l-8.53 12.88-8.53-12.88"/><path fill="#90D4D1" d="M48.966 89.708l-8.534 12.88-8.533-12.88M117.22 89.708l-8.532 12.88-8.532-12.88"/><path fill="#83CCC8" d="M74.56 102.587l8.534-12.88 8.53 12.88"/><path fill="#8FD1CC" d="M91.623 102.587l8.533-12.88 8.532 12.88"/><path fill="#8ED6D3" d="M100.156 89.708l-8.533 12.88-8.53-12.88"/><path fill="#90D4D1" d="M151.347 89.708l-8.533 12.88-8.53-12.88"/><path fill="#83CCC8" d="M108.688 102.587l8.532-12.88 8.53 12.88"/><path fill="#8FD1CC" d="M125.75 102.587l8.534-12.88 8.532 12.88"/><path fill="#8ED6D3" d="M134.284 89.708l-8.534 12.88-8.53-12.88"/><path fill="#90D4D1" d="M83.092 89.708l-8.533 12.88-8.533-12.88"/><g><path fill="#83CCC8" d="M142.814 102.587l8.533-12.88 8.532 12.88"/><path fill="#8ED6D3" d="M168.41 89.708l-8.53 12.88-8.535-12.88"/></g></g><g><path fill="#83CCC8" d="M-19.293 89.84l8.534-12.88 8.532 12.88"/><path fill="#8FD1CC" d="M-2.23 89.84l8.533-12.88 8.533 12.88"/><path fill="#8ED6D3" d="M6.303 76.96L-2.23 89.84l-8.53-12.88"/><path fill="#90D4D1" d="M-10.76 76.96l-8.534 12.88-8.53-12.88"/><path fill="#83CCC8" d="M14.836 89.84l8.533-12.88 8.53 12.88"/><path fill="#8FD1CC" d="M31.9 89.84l8.532-12.88 8.534 12.88"/><path fill="#8ED6D3" d="M40.432 76.96L31.9 89.84l-8.533-12.88"/><path fill="#90D4D1" d="M23.367 76.96l-8.533 12.88-8.53-12.88"/><path fill="#83CCC8" d="M48.964 89.84l8.532-12.88 8.53 12.88"/><path fill="#8FD1CC" d="M66.025 89.84l8.534-12.88 8.532 12.88"/><path fill="#8ED6D3" d="M74.56 76.96l-8.535 12.88-8.53-12.88"/><path fill="#90D4D1" d="M57.496 76.96l-8.532 12.88-8.532-12.88M125.75 76.96l-8.532 12.88-8.53-12.88"/><path fill="#83CCC8" d="M83.09 89.84l8.534-12.88 8.53 12.88"/><path fill="#8FD1CC" d="M100.154 89.84l8.534-12.88 8.532 12.88"/><path fill="#8ED6D3" d="M108.688 76.96l-8.534 12.88-8.53-12.88"/><path fill="#90D4D1" d="M159.88 76.96l-8.535 12.88-8.53-12.88"/><path fill="#83CCC8" d="M117.218 89.84l8.532-12.88 8.533 12.88"/><path fill="#8FD1CC" d="M134.283 89.84l8.53-12.88 8.534 12.88"/><path fill="#8ED6D3" d="M142.814 76.96l-8.53 12.88-8.534-12.88"/><path fill="#90D4D1" d="M91.623 76.96L83.09 89.84l-8.53-12.88"/><g><path fill="#83CCC8" d="M151.344 89.84l8.535-12.88 8.53 12.88"/></g></g></g><g><path fill="#FEFCF8" d="M0 0v47.442l49.062 44.405 49.062-44.405V0H0zm96.125 46.557L49.062 89.15 2 46.558V2h94.125v44.557z"/></g><g><path fill="#FEFCF8" d="M44.684 35.77s-.05-.77.784-.77h1.99V11.43h-1.54s-1.234 0-1.234-1.153V9.117h4.476l.957 1.126v24.76h1.96c.84 0 .813.77.813.77v1.538h-8.206v-1.54zM32.84 35.77s-.052-.77.782-.77h1.99V23.148h-1.54s-1.233 0-1.233-1.153v-1.158h4.474l.957 1.125v13.043h1.962c.837 0 .812.77.812.77v1.54H32.84V35.77zM21.708 20.597c-2.437 0-4.082 1.093-5.46 2.604v-1.24s.007-1.125-.956-1.125h-4.475v1.158c0 1.154 1.232 1.153 1.232 1.153h1.54v23.167H11.6l-.783.768v1.542h8.205v-1.54s.025-.77-.814-.77h-1.96v-14.74l.026 4.16c1.35 1.156 3.16 1.888 5.086 1.888 4.893 0 8.09-3.968 8.09-8.59 0-5.044-3.428-8.433-7.742-8.433zm-.502 14.672c-2.118 0-3.697-.77-4.932-1.81V25.37c1.35-1.386 2.93-2.426 5.047-2.426 3.083 0 5.396 2.426 5.356 6.124-.037 3.58-2.273 6.2-5.47 6.2zM54.757 29.108c0-4.62 3.353-8.51 8.436-8.51 5.086 0 8.438 3.85 8.438 8.51s-3.35 8.513-8.437 8.513c-5.124 0-8.436-3.813-8.436-8.512zm14.1 0c0-3.618-2.312-6.2-5.665-6.2-3.35 0-5.66 2.582-5.66 6.2 0 3.66 2.31 6.2 5.66 6.2 3.354 0 5.664-2.54 5.664-6.2zM76.638 35.695c-.31-.617-.425-1.388-.425-2.272v-10.17H73.17v-2.35h3.043v-4.727l2.62-.28v5.008h5.046v2.35H78.83v9.784c0 .54.077.923.27 1.27.308.577.926.846 1.927.846.962 0 2.157-.462 3.08-1l-.346 2.54c-.848.463-2.003.926-3.506.926-1.734 0-2.966-.656-3.62-1.925zM34.458 14.586c0-1.154 1-2.157 2.156-2.157 1.117 0 2.08 1.002 2.08 2.156 0 1.156-1.002 2.12-2.12 2.12-1.154 0-2.116-.964-2.116-2.12z"/><g fill="#FEFCF8"><path d="M32.902 48.67c-1.143 0-1.674-1.173-1.674-2.652 0-1.493.546-2.674 1.688-2.674.88 0 1.262.562 1.46 1.307l-.862.282c-.133-.474-.272-.664-.612-.664-.494 0-.73.635-.73 1.734 0 1.1.243 1.745.745 1.745.318 0 .48-.175.672-.736l.796.34c-.244.848-.694 1.32-1.484 1.32zM36.734 48.67c-1.202 0-1.71-1.173-1.71-2.652 0-1.493.523-2.674 1.725-2.674 1.193 0 1.702 1.175 1.702 2.658 0 1.488-.523 2.668-1.718 2.668zm0-4.402c-.554 0-.767.635-.767 1.734 0 1.1.23 1.745.78 1.745.548 0 .76-.633.76-1.73.002-1.1-.227-1.75-.773-1.75zM40.375 44.32v1.143h1.21v.895h-1.21v2.23h-.92v-5.16h2.72v.89h-1.8zM44.023 44.32v1.143h1.21v.895h-1.21v2.23h-.92v-5.16h2.718v.89h-1.797zM46.75 48.59v-5.163h2.645v.884H47.67v1.094h1.157v.872H47.67v1.428h1.79v.885h-2.71zM50.485 48.59v-5.163h2.646v.884h-1.724v1.094h1.158v.872h-1.158v1.428h1.79v.885h-2.71zM58.173 48.59l-.803-1.96h-.303v1.96h-.922v-5.163h1.37c1.004 0 1.646.537 1.646 1.608 0 .724-.367 1.174-.868 1.41l.885 2.144h-1.004zm-.7-4.263h-.405v1.44h.457c.472 0 .715-.245.715-.717 0-.464-.214-.723-.768-.723zM61.57 48.67c-1.2 0-1.71-1.173-1.71-2.652 0-1.493.523-2.674 1.726-2.674 1.194 0 1.702 1.175 1.702 2.658 0 1.488-.522 2.668-1.717 2.668zm0-4.402c-.553 0-.767.635-.767 1.734 0 1.1.23 1.745.782 1.745.546 0 .76-.633.76-1.73 0-1.1-.23-1.75-.774-1.75zM66.495 48.59l-.244-1.077h-1.155l-.244 1.076h-.942l1.32-5.163h.9l1.318 5.162h-.95zm-.582-2.55c-.09-.4-.207-.997-.244-1.256-.038.266-.142.82-.237 1.242l-.14.626h.76l-.14-.61zM69.516 48.67c-.7 0-1.187-.37-1.54-.81l.626-.672c.31.396.642.588.95.588.385 0 .576-.212.576-.56 0-.293-.185-.528-.79-.838-.766-.398-1.23-.79-1.23-1.646 0-.775.575-1.39 1.445-1.39.642 0 1.04.26 1.41.74l-.614.613c-.303-.34-.465-.457-.818-.457-.296 0-.487.19-.487.45 0 .31.177.5.738.803.892.48 1.283.837 1.283 1.705 0 .856-.59 1.475-1.55 1.475zM73.563 44.31v4.28h-.922v-4.28h-1.067v-.883h3.06v.884h-1.07zM75.522 48.59v-5.163h2.646v.884h-1.725v1.094H77.6v.872h-1.157v1.428h1.792v.885h-2.713zM81.286 48.59l-.803-1.96h-.302v1.96h-.92v-5.163h1.37c1.004 0 1.646.537 1.646 1.608 0 .724-.37 1.174-.87 1.41l.885 2.144h-1.004zm-.7-4.263h-.404v1.44h.456c.473 0 .716-.245.716-.717 0-.464-.214-.723-.767-.723zM84.484 48.67c-.7 0-1.187-.37-1.54-.81l.626-.672c.31.396.642.588.95.588.385 0 .576-.212.576-.56 0-.293-.184-.528-.79-.838-.765-.398-1.23-.79-1.23-1.646 0-.775.576-1.39 1.445-1.39.643 0 1.04.26 1.41.74l-.612.613c-.302-.34-.465-.457-.818-.457-.296 0-.487.19-.487.45 0 .31.178.5.737.803.892.48 1.284.837 1.284 1.705 0 .856-.59 1.475-1.55 1.475z"/></g></g></svg>