<svg xmlns="http://www.w3.org/2000/svg" xmlns:xlink="http://www.w3.org/1999/xlink" width="98.125" height="91.85" viewBox="0 0 98.125 91.85"><path fill="#90D4D1" d="M.424.007h97.617l-.026 46.056L48.84 90.05.452 46.063z"/><defs><path id="a" d="M.424.007h97.617l-.026 46.056L48.84 90.05.452 46.063z"/></defs><clipPath id="b"><use xlink:href="#a" overflow="visible"/></clipPath><g clip-path="url(#b)"><path fill="#83CCC8" d="M-19.293 115.464l8.534-12.877 8.531 12.877z"/><path fill="#8FD1CC" d="M-2.229 115.464l8.532-12.877 8.533 12.877z"/><path fill="#8ED6D3" d="M6.303 102.587l-8.532 12.877-8.53-12.877z"/><path fill="#90D4D1" d="M-10.759 102.587l-8.535 12.877-8.531-12.877z"/><path fill="#83CCC8" d="M14.836 115.464l8.533-12.877 8.53 12.877z"/><path fill="#8FD1CC" d="M31.899 115.464l8.533-12.877 8.534 12.877z"/><path fill="#8ED6D3" d="M40.432 102.587l-8.533 12.877-8.532-12.877z"/><path fill="#90D4D1" d="M23.367 102.587l-8.533 12.877-8.531-12.877z"/><path fill="#83CCC8" d="M48.964 115.464l8.532-12.877 8.531 12.877z"/><path fill="#8FD1CC" d="M66.025 115.464l8.534-12.877 8.533 12.877z"/><path fill="#8ED6D3" d="M74.559 102.587l-8.534 12.877-8.529-12.877z"/><path fill="#90D4D1" d="M57.496 102.587l-8.532 12.877-8.532-12.877zM125.75 102.587l-8.532 12.877-8.53-12.877z"/><path fill="#83CCC8" d="M83.091 115.464l8.533-12.877 8.531 12.877z"/><path fill="#8FD1CC" d="M100.154 115.464l8.534-12.877 8.532 12.877z"/><path fill="#8ED6D3" d="M108.688 102.587l-8.534 12.877-8.531-12.877z"/><path fill="#90D4D1" d="M159.879 102.587l-8.534 12.877-8.531-12.877z"/><path fill="#83CCC8" d="M117.218 115.464l8.532-12.877 8.533 12.877z"/><path fill="#8FD1CC" d="M134.283 115.464l8.531-12.877 8.533 12.877z"/><path fill="#8ED6D3" d="M142.814 102.587l-8.531 12.877-8.533-12.877z"/><path fill="#90D4D1" d="M91.623 102.587l-8.533 12.877-8.531-12.877z"/><g><path fill="#83CCC8" d="M151.344 115.464l8.535-12.877 8.53 12.877z"/></g><g><path fill="#83CCC8" d="M-19.291 12.985L-10.759.112l8.532 12.873z"/><path fill="#8FD1CC" d="M-2.228 12.985L6.304.112l8.533 12.873z"/><path fill="#8ED6D3" d="M6.304.112l-8.532 12.873L-10.759.112z"/><path fill="#90D4D1" d="M-10.759.112l-8.534 12.873-8.53-12.873z"/><path fill="#83CCC8" d="M14.836 12.985L23.369.112l8.53 12.873z"/><path fill="#8FD1CC" d="M31.899 12.985L40.432.112l8.534 12.873z"/><path fill="#8ED6D3" d="M40.432.112l-8.533 12.873L23.369.112z"/><path fill="#90D4D1" d="M23.369.112l-8.533 12.873L6.304.112z"/><path fill="#83CCC8" d="M48.966 12.985L57.496.112l8.531 12.873z"/><path fill="#8FD1CC" d="M66.027 12.985L74.561.112l8.533 12.873z"/><path fill="#8ED6D3" d="M74.561.112l-8.534 12.873L57.496.112z"/><path fill="#90D4D1" d="M57.496.112l-8.532 12.873L40.432.112zM125.75.112l-8.532 12.873-8.53-12.873z"/><path fill="#83CCC8" d="M83.092 12.985L91.624.112l8.532 12.873z"/><path fill="#8FD1CC" d="M100.155 12.985L108.688.112l8.532 12.873z"/><path fill="#8ED6D3" d="M108.688.112l-8.533 12.873L91.624.112z"/><path fill="#90D4D1" d="M159.879.112l-8.532 12.873L142.814.112z"/><path fill="#83CCC8" d="M117.22 12.985L125.752.112l8.532 12.873z"/><path fill="#8FD1CC" d="M134.283 12.985L142.814.112l8.534 12.873z"/><path fill="#8ED6D3" d="M142.814.112l-8.531 12.873L125.75.112z"/><path fill="#90D4D1" d="M91.624.112l-8.533 12.873L74.561.112z"/><g><path fill="#83CCC8" d="M151.345 12.985L159.879.112l8.531 12.873z"/></g></g><g><path fill="#83CCC8" d="M-27.823 25.713l8.533-12.876 8.531 12.876z"/><path fill="#8FD1CC" d="M-10.759 25.713l8.532-12.876 8.531 12.876z"/><path fill="#8ED6D3" d="M-2.227 12.837l-8.532 12.876-8.532-12.876z"/><path fill="#90D4D1" d="M-19.291 12.837l-8.534 12.876-8.53-12.876z"/><path fill="#83CCC8" d="M6.304 25.713l8.533-12.876 8.532 12.876z"/><path fill="#8FD1CC" d="M23.367 25.713l8.532-12.876 8.533 12.876z"/><path fill="#8ED6D3" d="M31.899 12.837l-8.532 12.876-8.531-12.876z"/><path fill="#90D4D1" d="M14.836 12.837L6.303 25.713l-8.53-12.876z"/><path fill="#83CCC8" d="M40.432 25.713l8.534-12.876 8.53 12.876z"/><path fill="#8FD1CC" d="M57.496 25.713l8.531-12.876 8.535 12.876z"/><path fill="#8ED6D3" d="M66.027 12.837l-8.531 12.876-8.53-12.876z"/><path fill="#90D4D1" d="M48.966 12.837l-8.534 12.876-8.533-12.876zM117.22 12.837l-8.532 12.876-8.532-12.876z"/><path fill="#83CCC8" d="M74.561 25.713l8.533-12.876 8.53 12.876z"/><path fill="#8FD1CC" d="M91.623 25.713l8.533-12.876 8.532 12.876z"/><path fill="#8ED6D3" d="M100.156 12.837l-8.533 12.876-8.531-12.876z"/><path fill="#90D4D1" d="M151.347 12.837l-8.533 12.876-8.53-12.876z"/><path fill="#83CCC8" d="M108.688 25.713l8.532-12.876 8.53 12.876z"/><path fill="#8FD1CC" d="M125.75 25.713l8.534-12.876 8.532 12.876z"/><path fill="#8ED6D3" d="M134.284 12.837l-8.534 12.876-8.53-12.876z"/><path fill="#90D4D1" d="M83.092 12.837l-8.533 12.876-8.532-12.876z"/><g><path fill="#83CCC8" d="M142.814 25.713l8.533-12.876 8.532 12.876z"/><path fill="#8ED6D3" d="M168.41 12.837l-8.531 12.876-8.534-12.876z"/></g></g><g><path fill="#83CCC8" d="M-27.823.047l8.533-12.878L-10.759.047z"/><path fill="#8FD1CC" d="M-10.759.047l8.532-12.878L6.304.047z"/><path fill="#8ED6D3" d="M-2.227-12.831L-10.759.047l-8.532-12.878z"/><path fill="#90D4D1" d="M-19.291-12.831L-27.825.047l-8.53-12.878z"/><path fill="#83CCC8" d="M6.304.047l8.533-12.878L23.369.047z"/><path fill="#8FD1CC" d="M23.367.047l8.532-12.878L40.432.047z"/><path fill="#8ED6D3" d="M31.899-12.831L23.367.047l-8.531-12.878z"/><path fill="#90D4D1" d="M14.836-12.831L6.303.047l-8.53-12.878z"/><path fill="#83CCC8" d="M40.432.047l8.534-12.878L57.496.047z"/><path fill="#8FD1CC" d="M57.496.047l8.531-12.878L74.562.047z"/><path fill="#8ED6D3" d="M66.027-12.831L57.496.047l-8.53-12.878z"/><path fill="#90D4D1" d="M48.966-12.831L40.432.047l-8.533-12.878zM117.22-12.831L108.688.047l-8.532-12.878z"/><path fill="#83CCC8" d="M74.561.047l8.533-12.878L91.624.047z"/><path fill="#8FD1CC" d="M91.623.047l8.533-12.878L108.688.047z"/><path fill="#8ED6D3" d="M100.156-12.831L91.623.047l-8.531-12.878z"/><path fill="#90D4D1" d="M151.347-12.831L142.814.047l-8.53-12.878z"/><path fill="#83CCC8" d="M108.688.047l8.532-12.878L125.75.047z"/><path fill="#8FD1CC" d="M125.75.047l8.534-12.878L142.816.047z"/><path fill="#8ED6D3" d="M134.284-12.831L125.75.047l-8.53-12.878z"/><path fill="#90D4D1" d="M83.092-12.831L74.559.047l-8.532-12.878z"/><g><path fill="#83CCC8" d="M142.814.047l8.533-12.878L159.879.047z"/><path fill="#8ED6D3" d="M168.41-12.831L159.879.047l-8.534-12.878z"/></g></g><g><path fill="#83CCC8" d="M-27.823 51.337l8.533-12.879 8.531 12.879z"/><path fill="#8FD1CC" d="M-10.759 51.337l8.532-12.879 8.531 12.879z"/><path fill="#8ED6D3" d="M-2.227 38.458l-8.532 12.879-8.532-12.879z"/><path fill="#90D4D1" d="M-19.291 38.458l-8.534 12.879-8.53-12.879z"/><path fill="#83CCC8" d="M6.304 51.337l8.533-12.879 8.532 12.879z"/><path fill="#8FD1CC" d="M23.367 51.337l8.532-12.879 8.533 12.879z"/><path fill="#8ED6D3" d="M31.899 38.458l-8.532 12.879-8.531-12.879z"/><path fill="#90D4D1" d="M14.836 38.458L6.303 51.337l-8.53-12.879z"/><path fill="#83CCC8" d="M40.432 51.337l8.534-12.879 8.53 12.879z"/><path fill="#8FD1CC" d="M57.496 51.337l8.531-12.879 8.535 12.879z"/><path fill="#8ED6D3" d="M66.027 38.458l-8.531 12.879-8.53-12.879z"/><path fill="#90D4D1" d="M48.966 38.458l-8.534 12.879-8.533-12.879zM117.22 38.458l-8.532 12.879-8.532-12.879z"/><path fill="#83CCC8" d="M74.561 51.337l8.533-12.879 8.53 12.879z"/><path fill="#8FD1CC" d="M91.623 51.337l8.533-12.879 8.532 12.879z"/><path fill="#8ED6D3" d="M100.156 38.458l-8.533 12.879-8.531-12.879z"/><path fill="#90D4D1" d="M151.347 38.458l-8.533 12.879-8.53-12.879z"/><path fill="#83CCC8" d="M108.688 51.337l8.532-12.879 8.53 12.879z"/><path fill="#8FD1CC" d="M125.75 51.337l8.534-12.879 8.532 12.879z"/><path fill="#8ED6D3" d="M134.284 38.458l-8.534 12.879-8.53-12.879z"/><path fill="#90D4D1" d="M83.092 38.458l-8.533 12.879-8.532-12.879z"/><g><path fill="#83CCC8" d="M142.814 51.337l8.533-12.879 8.532 12.879z"/><path fill="#8ED6D3" d="M168.41 38.458l-8.531 12.879-8.534-12.879z"/></g></g><g><path fill="#83CCC8" d="M-19.293 38.591l8.534-12.878 8.531 12.878z"/><path fill="#8FD1CC" d="M-2.229 38.591l8.532-12.878 8.533 12.878z"/><path fill="#8ED6D3" d="M6.303 25.713l-8.532 12.878-8.53-12.878z"/><path fill="#90D4D1" d="M-10.759 25.713l-8.535 12.878-8.531-12.878z"/><path fill="#83CCC8" d="M14.836 38.591l8.533-12.878 8.53 12.878z"/><path fill="#8FD1CC" d="M31.899 38.591l8.533-12.878 8.534 12.878z"/><path fill="#8ED6D3" d="M40.432 25.713l-8.533 12.878-8.532-12.878z"/><path fill="#90D4D1" d="M23.367 25.713l-8.533 12.878-8.531-12.878z"/><path fill="#83CCC8" d="M48.964 38.591l8.532-12.878 8.531 12.878z"/><path fill="#8FD1CC" d="M66.025 38.591l8.534-12.878 8.533 12.878z"/><path fill="#8ED6D3" d="M74.559 25.713l-8.534 12.878-8.529-12.878z"/><path fill="#90D4D1" d="M57.496 25.713l-8.532 12.878-8.532-12.878zM125.75 25.713l-8.532 12.878-8.53-12.878z"/><path fill="#83CCC8" d="M83.091 38.591l8.533-12.878 8.531 12.878z"/><path fill="#8FD1CC" d="M100.154 38.591l8.534-12.878 8.532 12.878z"/><path fill="#8ED6D3" d="M108.688 25.713l-8.534 12.878-8.531-12.878z"/><path fill="#90D4D1" d="M159.879 25.713l-8.534 12.878-8.531-12.878z"/><path fill="#83CCC8" d="M117.218 38.591l8.532-12.878 8.533 12.878z"/><path fill="#8FD1CC" d="M134.283 38.591l8.531-12.878 8.533 12.878z"/><path fill="#8ED6D3" d="M142.814 25.713l-8.531 12.878-8.533-12.878z"/><path fill="#90D4D1" d="M91.623 25.713L83.09 38.591l-8.531-12.878z"/><g><path fill="#83CCC8" d="M151.344 38.591l8.535-12.878 8.53 12.878z"/></g></g><g><path fill="#83CCC8" d="M-27.823 76.961l8.533-12.877 8.531 12.877z"/><path fill="#8FD1CC" d="M-10.759 76.961l8.532-12.877 8.531 12.877z"/><path fill="#8ED6D3" d="M-2.227 64.084l-8.532 12.877-8.532-12.877z"/><path fill="#90D4D1" d="M-19.291 64.084l-8.534 12.877-8.53-12.877z"/><path fill="#83CCC8" d="M6.304 76.961l8.533-12.877 8.532 12.877z"/><path fill="#8FD1CC" d="M23.367 76.961l8.532-12.877 8.533 12.877z"/><path fill="#8ED6D3" d="M31.899 64.084l-8.532 12.877-8.531-12.877z"/><path fill="#90D4D1" d="M14.836 64.084L6.303 76.961l-8.53-12.877z"/><path fill="#83CCC8" d="M40.432 76.961l8.534-12.877 8.53 12.877z"/><path fill="#8FD1CC" d="M57.496 76.961l8.531-12.877 8.535 12.877z"/><path fill="#8ED6D3" d="M66.027 64.084l-8.531 12.877-8.53-12.877z"/><path fill="#90D4D1" d="M48.966 64.084l-8.534 12.877-8.533-12.877zM117.22 64.084l-8.532 12.877-8.532-12.877z"/><path fill="#83CCC8" d="M74.561 76.961l8.533-12.877 8.53 12.877z"/><path fill="#8FD1CC" d="M91.623 76.961l8.533-12.877 8.532 12.877z"/><path fill="#8ED6D3" d="M100.156 64.084l-8.533 12.877-8.531-12.877z"/><path fill="#90D4D1" d="M151.347 64.084l-8.533 12.877-8.53-12.877z"/><path fill="#83CCC8" d="M108.688 76.961l8.532-12.877 8.53 12.877z"/><path fill="#8FD1CC" d="M125.75 76.961l8.534-12.877 8.532 12.877z"/><path fill="#8ED6D3" d="M134.284 64.084l-8.534 12.877-8.53-12.877z"/><path fill="#90D4D1" d="M83.092 64.084l-8.533 12.877-8.532-12.877z"/><g><path fill="#83CCC8" d="M142.814 76.961l8.533-12.877 8.532 12.877z"/><path fill="#8ED6D3" d="M168.41 64.084l-8.531 12.877-8.534-12.877z"/></g></g><g><path fill="#83CCC8" d="M-19.293 64.214l8.534-12.877 8.531 12.877z"/><path fill="#8FD1CC" d="M-2.229 64.214l8.532-12.877 8.533 12.877z"/><path fill="#8ED6D3" d="M6.303 51.337l-8.532 12.877-8.53-12.877z"/><path fill="#90D4D1" d="M-10.759 51.337l-8.535 12.877-8.531-12.877z"/><path fill="#83CCC8" d="M14.836 64.214l8.533-12.877 8.53 12.877z"/><path fill="#8FD1CC" d="M31.899 64.214l8.533-12.877 8.534 12.877z"/><path fill="#8ED6D3" d="M40.432 51.337l-8.533 12.877-8.532-12.877z"/><path fill="#90D4D1" d="M23.367 51.337l-8.533 12.877-8.531-12.877z"/><path fill="#83CCC8" d="M48.964 64.214l8.532-12.877 8.531 12.877z"/><path fill="#8FD1CC" d="M66.025 64.214l8.534-12.877 8.533 12.877z"/><path fill="#8ED6D3" d="M74.559 51.337l-8.534 12.877-8.529-12.877z"/><path fill="#90D4D1" d="M57.496 51.337l-8.532 12.877-8.532-12.877zM125.75 51.337l-8.532 12.877-8.53-12.877z"/><path fill="#83CCC8" d="M83.091 64.214l8.533-12.877 8.531 12.877z"/><path fill="#8FD1CC" d="M100.154 64.214l8.534-12.877 8.532 12.877z"/><path fill="#8ED6D3" d="M108.688 51.337l-8.534 12.877-8.531-12.877z"/><path fill="#90D4D1" d="M159.879 51.337l-8.534 12.877-8.531-12.877z"/><path fill="#83CCC8" d="M117.218 64.214l8.532-12.877 8.533 12.877z"/><path fill="#8FD1CC" d="M134.283 64.214l8.531-12.877 8.533 12.877z"/><path fill="#8ED6D3" d="M142.814 51.337l-8.531 12.877-8.533-12.877z"/><path fill="#90D4D1" d="M91.623 51.337L83.09 64.214l-8.531-12.877z"/><g><path fill="#83CCC8" d="M151.344 64.214l8.535-12.877 8.53 12.877z"/></g></g><g><path fill="#83CCC8" d="M-27.823 102.587l8.533-12.879 8.531 12.879z"/><path fill="#8FD1CC" d="M-10.759 102.587l8.532-12.879 8.531 12.879z"/><path fill="#8ED6D3" d="M-2.227 89.708l-8.532 12.879-8.532-12.879z"/><path fill="#90D4D1" d="M-19.291 89.708l-8.534 12.879-8.53-12.879z"/><path fill="#83CCC8" d="M6.304 102.587l8.533-12.879 8.532 12.879z"/><path fill="#8FD1CC" d="M23.367 102.587l8.532-12.879 8.533 12.879z"/><path fill="#8ED6D3" d="M31.899 89.708l-8.532 12.879-8.531-12.879z"/><path fill="#90D4D1" d="M14.836 89.708l-8.533 12.879-8.53-12.879z"/><path fill="#83CCC8" d="M40.432 102.587l8.534-12.879 8.53 12.879z"/><path fill="#8FD1CC" d="M57.496 102.587l8.531-12.879 8.535 12.879z"/><path fill="#8ED6D3" d="M66.027 89.708l-8.531 12.879-8.53-12.879z"/><path fill="#90D4D1" d="M48.966 89.708l-8.534 12.879-8.533-12.879zM117.22 89.708l-8.532 12.879-8.532-12.879z"/><path fill="#83CCC8" d="M74.561 102.587l8.533-12.879 8.53 12.879z"/><path fill="#8FD1CC" d="M91.623 102.587l8.533-12.879 8.532 12.879z"/><path fill="#8ED6D3" d="M100.156 89.708l-8.533 12.879-8.531-12.879z"/><path fill="#90D4D1" d="M151.347 89.708l-8.533 12.879-8.53-12.879z"/><path fill="#83CCC8" d="M108.688 102.587l8.532-12.879 8.53 12.879z"/><path fill="#8FD1CC" d="M125.75 102.587l8.534-12.879 8.532 12.879z"/><path fill="#8ED6D3" d="M134.284 89.708l-8.534 12.879-8.53-12.879z"/><path fill="#90D4D1" d="M83.092 89.708l-8.533 12.879-8.532-12.879z"/><g><path fill="#83CCC8" d="M142.814 102.587l8.533-12.879 8.532 12.879z"/><path fill="#8ED6D3" d="M168.41 89.708l-8.531 12.879-8.534-12.879z"/></g></g><g><path fill="#83CCC8" d="M-19.293 89.839l8.534-12.878 8.531 12.878z"/><path fill="#8FD1CC" d="M-2.229 89.839l8.532-12.878 8.533 12.878z"/><path fill="#8ED6D3" d="M6.303 76.961l-8.532 12.878-8.53-12.878z"/><path fill="#90D4D1" d="M-10.759 76.961l-8.535 12.878-8.531-12.878z"/><path fill="#83CCC8" d="M14.836 89.839l8.533-12.878 8.53 12.878z"/><path fill="#8FD1CC" d="M31.899 89.839l8.533-12.878 8.534 12.878z"/><path fill="#8ED6D3" d="M40.432 76.961l-8.533 12.878-8.532-12.878z"/><path fill="#90D4D1" d="M23.367 76.961l-8.533 12.878-8.531-12.878z"/><path fill="#83CCC8" d="M48.964 89.839l8.532-12.878 8.531 12.878z"/><path fill="#8FD1CC" d="M66.025 89.839l8.534-12.878 8.533 12.878z"/><path fill="#8ED6D3" d="M74.559 76.961l-8.534 12.878-8.529-12.878z"/><path fill="#90D4D1" d="M57.496 76.961l-8.532 12.878-8.532-12.878zM125.75 76.961l-8.532 12.878-8.53-12.878z"/><path fill="#83CCC8" d="M83.091 89.839l8.533-12.878 8.531 12.878z"/><path fill="#8FD1CC" d="M100.154 89.839l8.534-12.878 8.532 12.878z"/><path fill="#8ED6D3" d="M108.688 76.961l-8.534 12.878-8.531-12.878z"/><path fill="#90D4D1" d="M159.879 76.961l-8.534 12.878-8.531-12.878z"/><path fill="#83CCC8" d="M117.218 89.839l8.532-12.878 8.533 12.878z"/><path fill="#8FD1CC" d="M134.283 89.839l8.531-12.878 8.533 12.878z"/><path fill="#8ED6D3" d="M142.814 76.961l-8.531 12.878-8.533-12.878z"/><path fill="#90D4D1" d="M91.623 76.961L83.09 89.839l-8.531-12.878z"/><g><path fill="#83CCC8" d="M151.344 89.839l8.535-12.878 8.53 12.878z"/></g></g></g><g><path fill="#FEFCF8" d="M0 0v47.442l49.062 44.405 49.062-44.405V0H0zm96.125 46.557L49.062 89.15 2 46.558V2h94.125v44.557z"/></g><g><path fill="#FEFCF8" d="M44.684 35.771s-.051-.77.784-.77h1.989V11.428h-1.54s-1.233.001-1.233-1.153V9.117h4.476c.963 0 .957 1.126.957 1.126v24.759h1.959c.84 0 .814.77.814.77v1.539h-8.206v-1.54zM32.839 35.771s-.051-.77.783-.77h1.99V23.147h-1.541s-1.232.001-1.232-1.153v-1.158h4.475c.963 0 .957 1.125.957 1.125v13.042h1.961c.837 0 .812.77.812.77v1.539h-8.205v-1.541zM21.708 20.597c-2.437 0-4.082 1.093-5.459 2.604V21.96s.006-1.125-.957-1.125h-4.475v1.158c0 1.154 1.232 1.153 1.232 1.153h1.541v23.167H11.6c-.834 0-.783.768-.783.768v1.541h8.205v-1.541s.025-.768-.814-.768h-1.959v-14.74l.025 4.159a7.878 7.878 0 0 0 5.086 1.888c4.893 0 8.091-3.968 8.091-8.589 0-5.045-3.429-8.434-7.743-8.434zm-.502 14.672c-2.118 0-3.697-.769-4.932-1.81v-8.087c1.35-1.386 2.929-2.426 5.047-2.426 3.082 0 5.395 2.426 5.355 6.124-.037 3.581-2.273 6.199-5.47 6.199zM54.757 29.108c0-4.62 3.353-8.511 8.436-8.511 5.086 0 8.438 3.852 8.438 8.511 0 4.66-3.352 8.513-8.438 8.513-5.124-.001-8.436-3.814-8.436-8.513zm14.099 0c0-3.618-2.311-6.199-5.664-6.199-3.35 0-5.66 2.581-5.66 6.199 0 3.661 2.311 6.201 5.66 6.201 3.354-.001 5.664-2.541 5.664-6.201zM76.638 35.695c-.309-.617-.425-1.388-.425-2.272V23.254h-3.044v-2.35h3.044v-4.728l2.619-.279v5.007h5.047v2.35h-5.047v9.784c0 .539.077.923.271 1.269.307.578.925.847 1.926.847.963 0 2.158-.462 3.082-1l-.347 2.54c-.848.463-2.003.926-3.506.926-1.734 0-2.966-.656-3.62-1.925zM34.458 14.586c0-1.154 1-2.157 2.156-2.157 1.117 0 2.08 1.003 2.08 2.157 0 1.156-1.002 2.119-2.119 2.119a2.137 2.137 0 0 1-2.117-2.119z"/><g fill="#FEFCF8"><path d="M32.902 48.67c-1.143 0-1.674-1.173-1.674-2.652 0-1.493.546-2.674 1.688-2.674.879 0 1.262.562 1.461 1.307l-.863.281c-.133-.474-.272-.664-.612-.664-.494 0-.729.635-.729 1.734s.242 1.745.744 1.745c.318 0 .479-.175.672-.736l.797.339c-.244.848-.694 1.32-1.484 1.32zM36.734 48.67c-1.202 0-1.711-1.173-1.711-2.652 0-1.493.524-2.674 1.726-2.674 1.194 0 1.703 1.175 1.703 2.658 0 1.488-.523 2.668-1.718 2.668zm0-4.402c-.554 0-.767.635-.767 1.734s.229 1.745.781 1.745c.547 0 .76-.633.76-1.729.001-1.101-.228-1.75-.774-1.75zM40.375 44.319v1.144h1.21v.895h-1.21v2.231h-.921v-5.162h2.721v.892h-1.8zM44.023 44.319v1.144h1.209v.895h-1.209v2.231h-.921v-5.162h2.719v.892h-1.798zM46.749 48.589v-5.162h2.646v.884H47.67v1.093h1.157v.872H47.67v1.428h1.791v.885h-2.712zM50.485 48.589v-5.162h2.646v.884h-1.725v1.093h1.158v.872h-1.158v1.428h1.791v.885h-2.712zM58.173 48.589l-.803-1.959h-.303v1.959h-.922v-5.162h1.371c1.003 0 1.645.537 1.645 1.608 0 .724-.368 1.174-.869 1.409l.885 2.145h-1.004zm-.701-4.262h-.404v1.439h.457c.472 0 .715-.244.715-.716-.001-.464-.214-.723-.768-.723zM61.571 48.67c-1.202 0-1.712-1.173-1.712-2.652 0-1.493.524-2.674 1.727-2.674 1.194 0 1.702 1.175 1.702 2.658 0 1.488-.522 2.668-1.717 2.668zm0-4.402c-.554 0-.768.635-.768 1.734s.229 1.745.782 1.745c.546 0 .759-.633.759-1.729.001-1.101-.228-1.75-.773-1.75zM66.495 48.589l-.244-1.076h-1.156l-.244 1.076h-.943l1.319-5.162h.9l1.319 5.162h-.951zm-.582-2.548c-.089-.4-.207-.998-.244-1.257-.037.266-.141.82-.236 1.242l-.141.626h.76l-.139-.611zM69.516 48.67c-.7 0-1.187-.369-1.54-.811l.626-.671c.31.396.642.588.951.588.384 0 .575-.212.575-.559 0-.294-.185-.529-.789-.839-.767-.398-1.231-.79-1.231-1.646 0-.775.575-1.389 1.445-1.389.642 0 1.04.258 1.409.739l-.613.613c-.302-.34-.464-.457-.817-.457-.296 0-.487.189-.487.449 0 .31.177.502.738.804.892.48 1.283.836 1.283 1.704-.001.856-.591 1.475-1.55 1.475zM73.563 44.311v4.278h-.922v-4.278h-1.068v-.884h3.06v.884h-1.07zM75.522 48.589v-5.162h2.646v.884h-1.725v1.093h1.158v.872h-1.158v1.428h1.792v.885h-2.713zM81.286 48.589l-.803-1.959h-.302v1.959h-.921v-5.162h1.371c1.003 0 1.645.537 1.645 1.608 0 .724-.369 1.174-.871 1.409l.886 2.145h-1.005zm-.699-4.262h-.405v1.439h.456c.473 0 .716-.244.716-.716 0-.464-.214-.723-.767-.723zM84.484 48.67c-.7 0-1.187-.369-1.54-.811l.626-.671c.311.396.642.588.951.588.384 0 .575-.212.575-.559 0-.294-.184-.529-.789-.839-.766-.398-1.231-.79-1.231-1.646 0-.775.576-1.389 1.445-1.389.642 0 1.04.258 1.408.739l-.611.613c-.302-.34-.465-.457-.818-.457-.296 0-.487.189-.487.449 0 .31.178.502.737.804.892.48 1.284.836 1.284 1.704 0 .856-.591 1.475-1.55 1.475z"/></g></g></svg>