<svg width="95" height="88" viewBox="0 0 95 88" xmlns="http://www.w3.org/2000/svg"><title>eephus-colour</title><g fill="none" fill-rule="evenodd"><path d="M47.325 86.73L2 45.494V1h90.65v44.493L47.325 86.73" fill="#FDF8E6"/><path d="M50.993 35.9c-.638 1.982-1.614 3.8-2.896 5.374 3.933 1.782 16.17 7.99 28.08 20.78l4.797-4.342c-12.81-14.044-26.088-20.21-29.98-21.813" fill="#DE443E"/><path d="M51.528 27.884c.395 2.155.35 4.374-.14 6.555 3.752 1.524 17.485 7.786 30.697 22.266l4.13-3.738C71.586 36.7 56.17 29.724 51.53 27.884" fill="#DE443E"/><path d="M47.046 42.446c-1.116 1.13-2.4 2.104-3.83 2.888-2.43 1.33-5.17 2.034-7.923 2.034-6.046 0-11.605-3.29-14.506-8.59-4.377-7.99-1.436-18.053 6.555-22.428 2.43-1.332 5.17-2.035 7.922-2.035 6.047 0 11.605 3.29 14.507 8.59.57 1.04 1.012 2.124 1.344 3.233.032.007.064.002.095.014 3.29 1.218 20.19 8.1 36.118 25.81l7.27-6.58V.825H.472v44.557l47.063 42.595L75.03 63.093c-12.656-13.51-25.724-19.65-27.984-20.647" fill="#DE443E"/><path d="M42.197 31.99c.183-.437.388-.872.613-1.293.195-.367.055-.822-.31-1.015-.367-.196-.822-.057-1.016.31-.246.462-.472.94-.672 1.42-.16.382.02.822.404.98.095.04.192.06.29.06.292 0 .57-.175.69-.462M43.8 28.596c.22 0 .437-.094.586-.278.3-.37.62-.728.95-1.066.29-.295.287-.77-.01-1.06-.295-.292-.77-.288-1.06.008-.366.372-.718.767-1.047 1.173-.262.322-.213.795.11 1.057.14.11.306.166.47.166M40.77 33.83c-.405-.086-.802.175-.887.58-.106.512-.19 1.034-.247 1.553-.046.412.25.783.663.83.027.002.055.004.082.004.378 0 .703-.283.746-.668.05-.47.13-.947.225-1.413.084-.406-.176-.803-.582-.888M40.275 38.296c-.413.033-.72.395-.688.81.042.52.11 1.045.2 1.558.065.364.382.62.74.62.042 0 .086-.004.13-.01.41-.074.68-.464.608-.872-.083-.466-.144-.943-.182-1.418-.033-.414-.39-.71-.808-.688M46.67 24.18c-.34.234-.428.703-.192 1.045.145.21.38.324.618.324.147 0 .296-.044.426-.132.392-.27.8-.525 1.214-.756.063-.035.11-.086.157-.134.23-.232.3-.588.133-.887-.16-.285-.477-.42-.78-.366-.083.014-.165.034-.24.077-.456.255-.905.533-1.336.83M41.06 42.72c-.386.15-.58.584-.43.97.13.338.288.67.44 1.005.068.143.122.292.193.434.13.262.396.415.673.415.112 0 .226-.025.334-.078.37-.185.522-.635.337-1.006-.066-.133-.117-.274-.18-.41-.138-.297-.28-.596-.396-.898-.148-.388-.583-.58-.97-.43M43.83 32.365c-.39-.138-.82.06-.96.45-.18.49-.337.996-.467 1.5-.104.402.137.812.54.915.062.017.125.024.187.024.334 0 .64-.225.727-.563.118-.458.26-.915.423-1.363.142-.39-.06-.82-.45-.962M42.845 41.207c-.405.092-.658.495-.567.9.115.506.256 1.016.42 1.514.026.076.063.145.107.205.14.194.367.31.607.31.078 0 .157-.01.235-.037.394-.13.608-.555.478-.948-.017-.05-.026-.102-.042-.153-.13-.404-.247-.815-.34-1.224-.092-.405-.494-.657-.898-.566M48.382 25.315c-.418.318-.823.658-1.205 1.012-.304.28-.323.755-.042 1.06.148.16.35.24.55.24.183 0 .367-.064.51-.2.348-.32.716-.628 1.096-.917.13-.098.204-.232.25-.374.07-.225.048-.477-.106-.677-.06-.082-.136-.145-.217-.193-.255-.15-.586-.142-.835.048M42.703 36.715c-.41-.015-.77.288-.797.7-.022.352-.033.704-.033 1.058 0 .17.002.343.007.515.013.406.347.727.75.727h.024c.415-.013.74-.36.727-.773-.004-.157-.006-.314-.006-.47 0-.32.01-.64.03-.958.027-.415-.287-.77-.7-.8M45.083 28.67c-.31.422-.6.86-.868 1.31-.213.354-.096.815.26 1.028.12.07.253.105.384.105.254 0 .504-.13.645-.365.242-.406.508-.806.79-1.192.245-.334.173-.804-.163-1.05-.333-.244-.803-.172-1.05.163M27.82 18.19c.227.42.434.855.617 1.29.12.288.4.46.693.46.097 0 .195-.02.29-.06.383-.16.562-.6.4-.983-.202-.48-.43-.955-.677-1.417-.055-.103-.134-.182-.223-.248-.226-.164-.53-.2-.793-.058-.262.14-.4.415-.39.692.006.11.028.22.083.325M29.518 23.615c.043.385.368.67.744.67.03 0 .057-.004.086-.006.412-.047.708-.42.662-.832-.058-.518-.143-1.042-.25-1.553-.085-.404-.483-.662-.89-.58-.405.085-.665.484-.58.89.098.465.175.94.228 1.41M29.595 30.207c-.388-.15-.82.047-.968.435-.17.446-.363.887-.57 1.31-.185.373-.032.823.34 1.005.107.053.22.078.33.078.278 0 .545-.154.675-.417.23-.468.44-.952.628-1.442.147-.39-.048-.822-.435-.97M26.556 34.383c-.286.377-.594.746-.918 1.097-.28.305-.26.78.044 1.06.144.134.327.198.508.198.203 0 .405-.08.552-.242.356-.387.697-.793 1.01-1.207.25-.33.185-.802-.145-1.052-.33-.25-.802-.185-1.05.145M30.372 25.78c-.413-.018-.776.277-.808.69-.037.473-.098.95-.18 1.42-.072.407.2.796.61.868.044.007.087.01.13.01.358 0 .675-.256.74-.62.09-.514.156-1.04.197-1.56.034-.413-.276-.774-.688-.808M24.402 38.593c.334-.246.406-.716.16-1.05-.246-.334-.716-.406-1.05-.16-.383.283-.783.55-1.19.793-.04.023-.063.06-.096.088-.27.233-.35.625-.16.94.14.236.388.366.643.366.1 0 .198-.04.295-.083.03-.012.06-.007.09-.024.446-.267.886-.56 1.307-.87M27.242 23.632c.02.323.032.648.032.97 0 .153-.002.307-.008.458-.012.416.314.76.727.774h.024c.404 0 .738-.32.75-.727.005-.167.008-.335.008-.505 0-.356-.012-.712-.035-1.067-.026-.414-.382-.718-.797-.7-.414.027-.727.384-.7.797M26.785 20.815c.09.337.394.56.726.56.064 0 .128-.007.192-.023.4-.106.64-.516.536-.92-.133-.504-.292-1.01-.472-1.5-.143-.388-.575-.586-.963-.444-.39.143-.59.574-.445.964.163.445.307.903.427 1.363M22.696 37.42c.404-.328.797-.682 1.17-1.05.297-.292.3-.766.01-1.062-.293-.296-.768-.3-1.063-.007-.34.336-.697.657-1.064.955-.16.13-.254.314-.273.505-.02.192.033.39.164.55.047.057.108.09.165.13.127.086.268.148.418.148.166 0 .334-.054.473-.17M27.805 27.325c-.404-.09-.806.165-.896.568-.105.464-.233.927-.38 1.38-.128.393.088.817.48.946.08.024.157.036.234.036.316 0 .61-.2.714-.52.162-.495.302-1.006.416-1.514.09-.406-.164-.806-.57-.897M26.707 32.618c.2-.362.07-.82-.294-1.02-.363-.2-.82-.068-1.02.294-.23.417-.484.827-.75 1.217-.235.342-.147.808.196 1.042.128.09.276.132.42.132.24 0 .477-.114.622-.327.293-.43.57-.88.825-1.34" fill="#DE443E"/></g></svg>