<svg width="95" height="88" viewBox="0 0 95 88" xmlns="http://www.w3.org/2000/svg"><title>eephus-colour</title><g fill="none" fill-rule="evenodd"><path d="M47.325 86.73L2 45.494V1h90.65v44.493L47.325 86.73" fill="#FDF8E6"/><path d="M50.993 35.9a16.482 16.482 0 0 1-2.896 5.374c3.933 1.782 16.17 7.99 28.08 20.78l4.797-4.342c-12.81-14.044-26.088-20.21-29.98-21.813" fill="#DE443E"/><path d="M51.528 27.884a16.37 16.37 0 0 1-.14 6.555c3.752 1.524 17.485 7.786 30.697 22.266l4.13-3.738C71.586 36.7 56.17 29.724 51.53 27.884" fill="#DE443E"/><path d="M47.046 42.446a16.582 16.582 0 0 1-11.753 4.922 16.53 16.53 0 0 1-14.506-8.59c-4.377-7.99-1.436-18.053 6.555-22.428a16.528 16.528 0 0 1 7.922-2.035c6.047 0 11.605 3.29 14.507 8.59.57 1.04 1.012 2.124 1.344 3.233.032.007.064.002.095.014 3.29 1.218 20.19 8.1 36.118 25.81l7.27-6.58V.825H.472v44.557l47.063 42.595L75.03 63.093c-12.656-13.51-25.724-19.65-27.984-20.647" fill="#DE443E"/><path d="M42.197 31.99c.183-.437.388-.872.613-1.293a.75.75 0 0 0-.31-1.015.75.75 0 0 0-1.016.31c-.246.462-.472.94-.672 1.42a.75.75 0 0 0 1.385.578M43.8 28.596c.22 0 .437-.094.586-.278.3-.37.62-.728.95-1.066a.75.75 0 0 0-.01-1.06.75.75 0 0 0-1.06.008c-.366.372-.718.767-1.047 1.173a.75.75 0 0 0 .58 1.223M40.77 33.83a.75.75 0 0 0-.887.58c-.106.512-.19 1.034-.247 1.553a.752.752 0 0 0 .746.834.75.75 0 0 0 .746-.668c.05-.47.13-.947.225-1.413a.75.75 0 0 0-.582-.888M40.275 38.296a.75.75 0 0 0-.688.81c.042.52.11 1.045.2 1.558a.752.752 0 0 0 .87.61.75.75 0 0 0 .608-.872 14.89 14.89 0 0 1-.182-1.418.754.754 0 0 0-.808-.688M46.67 24.18a.75.75 0 0 0 .852 1.238c.392-.27.8-.525 1.214-.756.063-.035.11-.086.157-.134.23-.232.3-.588.133-.887a.743.743 0 0 0-.78-.366.725.725 0 0 0-.24.077c-.456.255-.905.533-1.336.83M41.06 42.72a.75.75 0 0 0-.43.97c.13.338.288.67.44 1.005.068.143.122.292.193.434a.75.75 0 0 0 1.344-.67c-.066-.133-.117-.274-.18-.41-.138-.297-.28-.596-.396-.898a.75.75 0 0 0-.97-.43M43.83 32.365a.752.752 0 0 0-.96.45c-.18.49-.337.996-.467 1.5a.75.75 0 1 0 1.454.376c.118-.458.26-.915.423-1.363a.75.75 0 0 0-.45-.962M42.845 41.207a.753.753 0 0 0-.567.9c.115.506.256 1.016.42 1.514a.753.753 0 0 0 .948.477.75.75 0 0 0 .48-.947c-.018-.05-.027-.102-.043-.153-.13-.404-.247-.815-.34-1.224a.75.75 0 0 0-.898-.566M48.382 25.315c-.418.318-.823.658-1.205 1.012a.75.75 0 1 0 1.02 1.1c.346-.32.714-.628 1.094-.917a.735.735 0 0 0 .25-.374.734.734 0 0 0-.323-.87.748.748 0 0 0-.835.05M42.703 36.715a.76.76 0 0 0-.797.7 16.885 16.885 0 0 0-.026 1.573.752.752 0 0 0 .75.727h.024a.75.75 0 0 0 .727-.773 14.758 14.758 0 0 1 .024-1.428.752.752 0 0 0-.7-.8M45.083 28.67c-.31.422-.6.86-.868 1.31a.75.75 0 0 0 1.29.768c.242-.406.508-.806.79-1.192a.75.75 0 1 0-1.212-.887M27.82 18.19c.227.42.434.855.617 1.29a.75.75 0 0 0 1.384-.583 17.17 17.17 0 0 0-.677-1.417.75.75 0 0 0-.223-.248.742.742 0 0 0-.793-.058.748.748 0 0 0-.39.692c.006.11.028.22.083.325M29.518 23.615a.75.75 0 0 0 .744.67c.03 0 .057-.004.086-.006a.752.752 0 0 0 .662-.832 16.675 16.675 0 0 0-.25-1.553.75.75 0 0 0-1.47.31c.098.465.175.94.228 1.41M29.595 30.207a.747.747 0 0 0-.968.435c-.17.446-.363.887-.57 1.31a.748.748 0 0 0 .67 1.083.752.752 0 0 0 .675-.417c.23-.468.44-.952.628-1.442a.75.75 0 0 0-.435-.97M26.556 34.383a14.89 14.89 0 0 1-.918 1.097.75.75 0 1 0 1.104 1.016c.356-.387.697-.793 1.01-1.207a.75.75 0 1 0-1.196-.907M30.372 25.78a.762.762 0 0 0-.808.69c-.037.473-.098.95-.18 1.42a.75.75 0 0 0 1.48.258c.09-.514.156-1.04.197-1.56a.753.753 0 0 0-.688-.808M24.402 38.593a.75.75 0 0 0-.89-1.21c-.383.283-.783.55-1.19.793-.04.023-.063.06-.096.088a.74.74 0 0 0 .483 1.306c.1 0 .198-.04.295-.083.03-.012.06-.007.09-.024.446-.267.886-.56 1.307-.87M27.242 23.632a14.987 14.987 0 0 1 .024 1.428.752.752 0 0 0 .727.774h.024a.75.75 0 0 0 .75-.727 16.85 16.85 0 0 0-.027-1.572.756.756 0 0 0-.797-.7.753.753 0 0 0-.7.797M26.785 20.815a.753.753 0 0 0 .917.537c.4-.106.64-.516.536-.92a16.616 16.616 0 0 0-.472-1.5.75.75 0 0 0-1.408.52c.163.445.307.903.427 1.363M22.696 37.42c.404-.328.797-.682 1.17-1.05a.75.75 0 1 0-1.053-1.07c-.34.336-.697.657-1.064.955a.747.747 0 0 0-.273.505c-.02.192.033.39.164.55.047.057.108.09.165.13a.75.75 0 0 0 .418.148.738.738 0 0 0 .473-.17M27.805 27.325a.752.752 0 0 0-.896.568 15.28 15.28 0 0 1-.38 1.38.753.753 0 0 0 .714.983c.316 0 .61-.2.714-.52.162-.495.302-1.006.416-1.514a.75.75 0 0 0-.57-.897M26.707 32.618a.75.75 0 1 0-1.314-.726c-.23.417-.484.827-.75 1.217a.75.75 0 0 0 .618 1.174.75.75 0 0 0 .622-.327c.293-.43.57-.88.825-1.34" fill="#DE443E"/></g></svg>