<svg xmlns="http://www.w3.org/2000/svg" width="98.125" height="91.85" viewBox="0 0 98.125 91.85"><path fill="#FDF7E7" d="M0 0v47.443l49.063 44.405 49.062-44.405V0H0zm77.705 63.23c-11.91-12.79-24.146-19-28.08-20.78 1.282-1.575 2.258-3.393 2.895-5.375 3.895 1.603 17.172 7.77 29.98 21.812l-4.795 4.342zM44.91 40.115c.012.414-.313.76-.728.773h-.024c-.403 0-.737-.32-.75-.73-.005-.17-.008-.343-.008-.515 0-.354.012-.706.034-1.058.027-.412.386-.716.797-.7.414.027.728.384.702.8-.02.315-.03.637-.03.958 0 .158.002.315.007.47zm-1.878-6.49c-.097 0-.194-.02-.29-.06-.382-.157-.563-.598-.403-.98.2-.478.425-.957.67-1.42.195-.366.65-.505 1.016-.31.366.192.505.647.31 1.016-.223.42-.43.855-.61 1.292-.12.288-.4.463-.694.463zm-.733 1.378c.405.085.665.48.58.89-.096.465-.173.94-.224 1.41-.043.386-.368.67-.746.67-.027 0-.056-.003-.083-.005-.412-.05-.71-.42-.664-.83.058-.52.14-1.042.248-1.554.086-.406.483-.667.89-.582zm-.497 4.467c.417-.022.775.274.808.69.04.474.1.95.183 1.417.073.408-.2.798-.607.87-.044.008-.09.012-.132.012-.357 0-.674-.257-.738-.62-.09-.514-.16-1.038-.2-1.56-.034-.414.274-.776.687-.81zm.786 4.426c.385-.15.82.043.97.432.115.302.257.602.395.897.063.137.114.276.18.41.186.37.034.82-.337 1.007-.107.054-.222.078-.334.078-.276 0-.542-.152-.673-.416-.07-.143-.124-.29-.19-.436-.154-.333-.31-.666-.44-1.005-.15-.384.042-.82.43-.967zm1.216-.616c-.092-.403.162-.807.566-.898.404-.09.807.16.898.566.093.41.212.82.34 1.224.016.052.026.104.042.153.13.394-.084.817-.478.947-.078.025-.157.038-.235.038-.24 0-.466-.117-.607-.312-.044-.06-.082-.13-.106-.204-.165-.496-.306-1.006-.42-1.514zm1.578-7.414c-.088.338-.393.562-.727.562-.062 0-.125-.008-.188-.023-.402-.104-.644-.514-.54-.915.13-.505.287-1.01.466-1.5.14-.392.572-.59.96-.45.39.142.592.572.45.962-.16.447-.303.905-.422 1.364zm-.637-7.318c.33-.405.68-.8 1.045-1.173.29-.296.767-.3 1.062-.01.296.29.3.767.01 1.062-.332.338-.65.695-.95 1.065-.148.184-.365.277-.584.277-.166 0-.333-.057-.472-.167-.323-.26-.373-.733-.11-1.055zm.996 2.605c.267-.447.56-.887.868-1.31.247-.337.716-.407 1.05-.162.335.246.407.716.163 1.05-.283.386-.548.786-.79 1.19-.142.236-.39.366-.647.366-.13 0-.264-.034-.384-.104-.355-.212-.472-.673-.26-1.03zm2.455-5.8c.43-.296.88-.574 1.334-.827.077-.044.16-.063.24-.078.305-.053.622.08.78.367.168.3.098.655-.133.888-.05.048-.095.1-.157.134-.414.23-.823.484-1.215.755-.13.09-.278.133-.425.133-.238 0-.473-.113-.62-.324-.233-.342-.147-.81.195-1.046zm.507 2.15c.382-.355.787-.694 1.205-1.014.25-.19.58-.2.836-.05.08.05.156.112.216.19.154.202.177.454.104.68-.045.143-.12.275-.248.374-.38.29-.748.598-1.094.918-.146.135-.33.2-.51.2-.203 0-.404-.08-.552-.24-.28-.305-.262-.78.043-1.06zM83.613 57.88C70.4 43.4 56.668 37.14 52.916 35.614c.49-2.18.535-4.4.14-6.555 4.64 1.84 20.058 8.816 34.69 25.084l-4.133 3.74zm12.512-11.323l-7.27 6.58c-15.93-17.71-32.83-24.593-36.12-25.81-.03-.013-.062-.01-.095-.016-.332-1.108-.772-2.192-1.343-3.232-2.902-5.298-8.46-8.59-14.508-8.59-2.753 0-5.493.704-7.922 2.035-7.99 4.376-10.932 14.438-6.555 22.428 2.9 5.3 8.46 8.592 14.506 8.592 2.752 0 5.492-.704 7.92-2.035 1.432-.782 2.716-1.758 3.832-2.887 2.26.998 15.33 7.137 27.983 20.646L49.063 89.15 2 46.558V2h94.125v44.557zm-72.37-7.12c.032-.027.056-.063.095-.087.406-.244.807-.51 1.19-.793.334-.246.804-.175 1.05.16.246.334.174.804-.16 1.05-.42.31-.86.604-1.308.87-.028.017-.06.013-.09.023-.096.043-.195.083-.295.083-.255 0-.504-.13-.645-.365-.19-.315-.107-.706.162-.94zm-.422-.824c-.057-.04-.118-.07-.164-.128-.132-.16-.185-.358-.165-.55.02-.19.112-.375.272-.506.367-.3.725-.62 1.064-.955.296-.293.77-.29 1.063.007.29.296.288.77-.008 1.062-.374.37-.768.724-1.17 1.05-.14.115-.308.17-.474.17-.15 0-.29-.063-.417-.15zm2.837-4.33c.267-.39.52-.8.75-1.216.2-.362.658-.495 1.02-.295.364.2.495.658.294 1.02-.253.46-.53.91-.825 1.34-.146.214-.38.327-.62.327-.147 0-.294-.044-.424-.133-.342-.233-.43-.7-.196-1.043zm4.778-13.227c-.095.04-.194.06-.29.06-.294 0-.572-.173-.693-.46-.183-.436-.39-.87-.617-1.29-.056-.103-.078-.214-.082-.324-.01-.276.127-.55.388-.69.262-.144.567-.106.793.058.09.065.168.146.224.248.25.46.476.938.68 1.417.16.38-.02.82-.402.98zm1.34 2.013c.107.51.19 1.034.25 1.553.045.412-.25.784-.662.83-.03.003-.057.006-.085.006-.375 0-.7-.286-.744-.67-.053-.47-.13-.944-.227-1.41-.087-.405.173-.805.58-.89.404-.083.802.176.888.58zm-3.518 1.737c-.027-.413.287-.77.7-.8.416-.017.772.288.798.702.023.354.035.71.035 1.065 0 .17-.003.338-.008.506-.013.407-.346.728-.75.728h-.024c-.413-.013-.738-.357-.726-.772.005-.15.007-.306.007-.46 0-.322-.01-.646-.03-.97zm.524-4.7c.18.49.34.995.472 1.5.105.4-.135.813-.536.92-.064.016-.128.02-.19.02-.334 0-.638-.222-.727-.56-.12-.46-.264-.918-.428-1.362-.143-.39.056-.82.445-.964.39-.14.82.06.964.448zm-2.128 16.548c.324-.352.632-.72.917-1.098.25-.33.72-.396 1.05-.146.332.25.397.722.146 1.052-.314.414-.654.82-1.01 1.207-.147.162-.35.24-.552.24-.182 0-.364-.062-.508-.197-.305-.278-.325-.753-.044-1.058zm1.606-5.224c-.077 0-.155-.012-.233-.036-.395-.13-.61-.554-.482-.947.147-.45.274-.915.378-1.38.09-.402.492-.655.897-.566.405.09.66.492.568.897-.113.51-.253 1.02-.415 1.515-.103.317-.397.52-.713.52zm.81 1.698c.21-.424.402-.864.572-1.312.147-.388.58-.586.968-.436.387.146.582.58.435.97-.186.488-.397.975-.627 1.44-.13.265-.397.418-.674.418-.112 0-.225-.024-.33-.078-.373-.18-.526-.63-.343-1.002zm1.94-3.195c-.41-.072-.682-.46-.61-.87.082-.468.143-.944.18-1.417.032-.414.395-.71.808-.69.413.033.722.396.69.81-.042.52-.11 1.045-.2 1.56-.063.363-.38.62-.738.62-.044-.003-.087-.007-.13-.013z"/></svg>