<svg xmlns="http://www.w3.org/2000/svg" width="98.125" height="91.85" viewBox="0 0 98.125 91.85"><path fill="#FDF7E7" d="M0 0v47.443l49.063 44.405 49.062-44.405V0H0zm77.705 63.23c-11.91-12.79-24.146-19-28.08-20.78a16.456 16.456 0 0 0 2.895-5.375c3.895 1.603 17.172 7.77 29.98 21.812l-4.795 4.342zM44.91 40.115a.75.75 0 0 1-.728.773h-.024a.75.75 0 0 1-.75-.73 16.94 16.94 0 0 1 .026-1.574.76.76 0 0 1 .797-.7.753.753 0 0 1 .702.8 14.513 14.513 0 0 0-.023 1.43zm-1.878-6.49a.74.74 0 0 1-.29-.06.748.748 0 0 1-.403-.98c.2-.478.425-.957.67-1.42a.75.75 0 1 1 1.326.706c-.223.42-.43.855-.61 1.292a.752.752 0 0 1-.694.463zm-.733 1.378a.75.75 0 0 1 .58.89c-.096.465-.173.94-.224 1.41a.75.75 0 0 1-1.493-.165c.058-.52.14-1.042.248-1.554a.75.75 0 0 1 .89-.582zm-.497 4.467a.754.754 0 0 1 .808.69c.04.474.1.95.183 1.417a.75.75 0 1 1-1.477.262c-.09-.514-.16-1.038-.2-1.56a.75.75 0 0 1 .687-.81zm.786 4.426a.75.75 0 0 1 .97.432c.115.302.257.602.395.897.063.137.114.276.18.41a.75.75 0 1 1-1.344.67c-.07-.144-.124-.292-.19-.437-.154-.333-.31-.666-.44-1.005a.746.746 0 0 1 .43-.967zm1.216-.616a.75.75 0 1 1 1.464-.332c.093.41.212.82.34 1.224.016.052.026.104.042.153a.75.75 0 0 1-1.425.47 16.028 16.028 0 0 1-.42-1.515zm1.578-7.414a.752.752 0 0 1-1.454-.376c.13-.505.287-1.01.466-1.5a.752.752 0 0 1 .96-.45c.39.142.592.572.45.962-.16.447-.303.905-.422 1.364zm-.637-7.318c.33-.405.68-.8 1.045-1.173a.75.75 0 0 1 1.072 1.052c-.332.338-.65.695-.95 1.065a.745.745 0 0 1-.584.277.748.748 0 0 1-.583-1.22zm.996 2.605c.267-.447.56-.887.868-1.31a.75.75 0 1 1 1.212.887c-.282.387-.547.787-.79 1.192a.75.75 0 0 1-1.29-.767zm2.455-5.8c.43-.296.88-.574 1.334-.827a.74.74 0 0 1 .24-.078.74.74 0 0 1 .78.367.74.74 0 0 1-.133.888c-.05.048-.095.1-.157.134-.414.23-.823.484-1.215.755a.752.752 0 0 1-.85-1.238zm.507 2.15c.382-.355.787-.694 1.205-1.014a.752.752 0 0 1 1.052.14c.154.202.177.454.104.68a.73.73 0 0 1-.248.374c-.38.29-.748.598-1.094.918a.75.75 0 0 1-1.062-.04.748.748 0 0 1 .043-1.06zM83.613 57.88C70.4 43.4 56.668 37.14 52.916 35.614c.49-2.18.535-4.4.14-6.555 4.64 1.84 20.058 8.816 34.69 25.084l-4.133 3.74zm12.512-11.323l-7.27 6.58c-15.93-17.71-32.83-24.593-36.12-25.81-.03-.013-.062-.01-.095-.016a16.573 16.573 0 0 0-1.343-3.232 16.533 16.533 0 0 0-14.508-8.59c-2.753 0-5.493.704-7.922 2.035-7.99 4.376-10.932 14.438-6.555 22.428 2.9 5.3 8.46 8.592 14.506 8.592 2.752 0 5.492-.704 7.92-2.035a16.522 16.522 0 0 0 3.832-2.887c2.26.998 15.33 7.137 27.983 20.646L49.063 89.15 2 46.558V2h94.125v44.557zm-72.37-7.12c.032-.027.056-.063.095-.087.406-.244.807-.51 1.19-.793a.75.75 0 0 1 .89 1.21c-.42.31-.86.604-1.308.87-.028.017-.06.013-.09.023a.745.745 0 0 1-.295.083.738.738 0 0 1-.483-1.305zm-.422-.824c-.057-.04-.118-.07-.164-.128a.753.753 0 0 1 .108-1.056c.366-.3.724-.62 1.063-.954a.75.75 0 1 1 1.054 1.07c-.373.368-.767.723-1.17 1.05a.744.744 0 0 1-.473.17.746.746 0 0 1-.417-.152zm2.837-4.33c.267-.39.52-.8.75-1.216a.75.75 0 0 1 1.314.726c-.253.46-.53.91-.825 1.34a.745.745 0 0 1-1.044.194.75.75 0 0 1-.196-1.043zm4.778-13.227a.75.75 0 0 1-.983-.4c-.183-.436-.39-.87-.617-1.29a.73.73 0 0 1-.082-.324.746.746 0 0 1 .388-.69.74.74 0 0 1 .793.058c.09.065.168.146.224.248.25.46.476.938.68 1.417a.75.75 0 0 1-.402.98zm1.34 2.013c.107.51.19 1.034.25 1.553a.75.75 0 0 1-.662.83c-.03.003-.057.006-.085.006a.753.753 0 0 1-.744-.67c-.053-.47-.13-.944-.227-1.41a.752.752 0 0 1 .58-.89.756.756 0 0 1 .888.58zm-3.518 1.737a.753.753 0 0 1 .7-.8.755.755 0 0 1 .798.702 16.5 16.5 0 0 1 .027 1.57.75.75 0 0 1-.75.728h-.024a.75.75 0 0 1-.726-.772 14.962 14.962 0 0 0-.024-1.43zm.524-4.7c.18.49.34.995.472 1.5a.753.753 0 0 1-.536.92.752.752 0 0 1-.917-.54c-.12-.46-.264-.918-.428-1.362a.75.75 0 0 1 1.41-.517zm-2.128 16.548c.324-.352.632-.72.917-1.098a.75.75 0 1 1 1.196.905c-.314.414-.654.82-1.01 1.207a.737.737 0 0 1-.552.24.747.747 0 0 1-.552-1.256zm1.606-5.224a.753.753 0 0 1-.714-.984c.146-.45.273-.914.377-1.378a.753.753 0 0 1 .897-.567c.405.09.66.492.568.897-.113.51-.253 1.02-.415 1.515a.75.75 0 0 1-.713.52zm.81 1.698c.21-.424.402-.864.572-1.312a.752.752 0 1 1 1.403.534c-.186.488-.397.975-.627 1.44a.75.75 0 1 1-1.347-.662zm1.94-3.195a.75.75 0 0 1-.61-.87c.082-.468.143-.944.18-1.417a.76.76 0 0 1 .808-.69.752.752 0 0 1 .69.81c-.042.52-.11 1.045-.2 1.56a.752.752 0 0 1-.738.62 1.936 1.936 0 0 1-.13-.013z"/></svg>