<svg width="99" height="93" viewBox="0 0 99 93" xmlns="http://www.w3.org/2000/svg"><title>grandstand-colour</title><g fill="none" fill-rule="evenodd"><path d="M2.283 1.02l-.447 47.794 48.262 41.87L97.504 48.02V1.352L2.284 1.02" fill="#E15929"/><path d="M.61.648V48.09l49.06 44.405L98.733 48.09V.65H.61zm96.123 46.556L49.67 89.798 2.61 47.204V2.648h94.123v44.556z" fill="#E15929"/><path d="M81.76 36.74v-.004c-.003-.03-.016-.054-.024-.083-.006-.025-.006-.052-.016-.076 0-.004-.004-.006-.005-.01 0 0-.002 0-.003-.002-.003-.006-.003-.012-.007-.018l-.002-.002c-.01-.022-.03-.037-.043-.057-.017-.025-.03-.053-.055-.074l-.004-.005c0-.002 0-.003-.002-.004l-.012-.012c-.018-.014-.04-.02-.058-.032-.03-.02-.057-.04-.09-.053l-.01-.006-.004-.002-.01-.004-23.36-7.836c-.05-.034-.105-.062-.165-.076l-.255-.064-.492-.165c-.012-.004-.026-.002-.038-.005-.025-.006-.05-.008-.078-.01-.04-.004-.077-.007-.115-.002-.008 0-.016-.002-.025 0L44.88 30.477v-.007l-.452.095-30.433 5.924c-.237.045-.394.256-.395.49-.002.02-.01.036-.01.055v7.293l-.1.022c-.013.002-.025.01-.04.016l-.102-.006c-.262-.027-.512.198-.526.473-.014.275.196.51.473.525l42.63 2.283c.016.003.03.01.046.01l.462.026v5.735l-43.057-4.604c-.25-.032-.52.17-.55.444-.03.274.168.52.443.55l43.612 4.665c.016.002.034.003.052.003h.015l23.73-.76c.276-.01.493-.24.484-.517-.01-.274-.254-.475-.514-.483l-23.213.744v-5.72l.32.015h.027c.01 0 .018-.004.027-.004l6.115.328.073.004h.027c.08 0 .15-.02.216-.053.008-.005.016-.003.023-.007l16.5-8.983v9.866c0 .277.224.5.5.5.277 0 .5-.223.5-.5V36.773l-.002-.016.002-.018zM27.283 34.92l.008 1.157-1.218-.922 1.21-.236zm-10.89 2.12l1.59-.31-1.59 1.802v-1.492zm-1.002 7.374l-.8-.028V37.44l.8-.17v7.146zm2.55.19l-.852-.046c-.06-.08-.107-.173-.115-.283-.026-.306.206-.574.512-.597.308-.024.575.205.6.512.013.16-.046.305-.145.414zm2.062-.727c-.022-.31.207-.576.516-.6.307-.024.575.206.596.513.022.307-.207.575-.513.6-.304.023-.575-.208-.598-.514zm1.748.93l-1.096-.058c.014-.278.22-.512.505-.535.305-.022.574.206.6.515.002.028-.008.052-.01.08zm1.793-.15c-.31.025-.58-.205-.603-.512-.022-.306.208-.576.516-.597.307-.023.573.206.596.513.025.306-.203.574-.51.597zm1.56.33l-.764-.042c-.082-.09-.142-.198-.152-.328-.026-.305.204-.57.515-.597.304-.023.57.208.597.513.013.18-.07.342-.197.453zm1.11.032c-.312.023-.577-.206-.603-.512-.02-.308.207-.575.517-.6.306-.023.574.207.596.515.027.306-.205.573-.51.597zm.493-1.8c-.31.022-.574-.208-.598-.513-.024-.31.205-.577.51-.6.31-.024.578.206.6.513.025.307-.205.574-.512.598zm-1.187-1.526c.166.086.288.244.3.443.025.305-.205.572-.513.596-.305.024-.573-.205-.595-.513-.013-.14.036-.27.114-.373l-.383.085c.112.092.188.228.2.385.023.308-.205.574-.512.598-.308.023-.574-.207-.596-.514-.01-.102.02-.196.062-.283l-.743.165c.018.048.037.095.043.15.022.305-.206.573-.515.596-.302.026-.568-.205-.595-.51l-.447.1c-.026.262-.226.48-.502.5-.22.017-.414-.098-.518-.276l-1.1.243c.188.077.33.252.347.47.024.308-.207.574-.512.597-.308.025-.578-.205-.602-.51-.01-.163.05-.312.153-.42l-2.21.486v-3.664l3.2-3.627 5.16-1.005L27.3 37.34l.026 3.96-1.807.396zm2.83 3.45l-.067-10.383.783-.165.07 10.59-.785-.042zm1.714-10.765l1.46-.283-1.45 1.588-.01-1.304zm.438 10.362c-.14.01-.268-.035-.37-.113l-.007-.876c.084-.066.18-.115.293-.124.306-.024.573.206.595.513.024.31-.203.576-.51.6zm.662-1.28c-.31.024-.575-.204-.6-.512-.02-.307.205-.575.515-.598.307-.026.572.207.597.512.024.308-.207.576-.513.597zm1.39 1.774c-.302.026-.574-.205-.595-.51-.025-.31.203-.578.508-.6.31-.024.577.204.598.513.025.307-.203.574-.51.596zm.035-2.265c-.297.024-.547-.19-.588-.475-.03.008-.057.023-.09.026-.306.025-.576-.207-.6-.512-.02-.307.205-.576.516-.6.293-.022.547.192.588.478.03-.008.055-.023.086-.025.31-.024.575.206.6.512.023.31-.207.575-.513.6zm1.244.647c-.307.024-.573-.206-.6-.51-.02-.31.21-.578.513-.6.224-.018.427.102.53.288.092-.113.23-.19.39-.204.304-.024.572.207.598.514.02.306-.21.574-.518.597-.224.02-.425-.1-.526-.287-.093.114-.23.193-.386.204zm1.56-1.912c.026.305-.205.574-.51.598-.308.023-.578-.207-.6-.514-.013-.16.045-.307.144-.415-.11-.094-.185-.228-.198-.384-.02-.304.21-.572.517-.597.308-.022.576.208.597.515.012.158-.045.304-.145.413.11.094.185.23.195.385zm-.41 3.54c-.3.024-.568-.203-.59-.51-.025-.307.203-.575.508-.6.313-.024.58.21.6.514.022.305-.204.573-.517.596zm1.97-3.093c-.025-.308.206-.578.515-.6.304-.023.57.207.596.514.024.307-.206.575-.514.6-.12.008-.225-.03-.32-.085.018.048.037.094.04.146.026.304-.207.574-.51.598-.31.022-.576-.207-.6-.514-.027-.307.205-.574.51-.597.12-.01.228.027.323.084-.017-.047-.036-.093-.042-.145zm-.784 1.145c.308-.024.575.207.598.513.026.307-.205.573-.516.598-.303.024-.57-.206-.593-.514-.028-.305.203-.572.51-.597zm.498 2.31l-.846-.044c-.062-.082-.11-.175-.12-.286-.02-.306.207-.575.514-.598.307-.024.574.207.598.514.013.158-.045.305-.146.414zm.994 0c-.31.026-.576-.205-.598-.51-.025-.308.204-.576.513-.6.308-.022.573.206.598.513.022.307-.206.576-.513.597zm.373-4.297c-.308.024-.573-.205-.6-.513-.023-.307.207-.573.516-.598.307-.024.574.204.6.512.02.307-.208.576-.515.598zm2.628.046c.025.306-.207.575-.514.597-.306.024-.577-.205-.6-.512-.005-.07.006-.14.026-.204-.27-.02-.5-.226-.518-.504-.024-.306.206-.575.512-.6.308-.02.576.208.598.516.006.072-.006.14-.026.204.276.018.5.223.52.504zm-1.694-1c-.304.023-.575-.206-.598-.514-.023-.306.207-.573.513-.597.308-.022.575.207.596.513.026.307-.204.574-.51.6zm.023 1.834c.306-.022.575.206.598.513.02.308-.206.574-.51.598-.308.025-.576-.204-.598-.513-.025-.306.203-.572.51-.597zm.22 3.06c-.308.023-.576-.208-.598-.514-.024-.306.203-.574.513-.598.306-.023.575.206.598.514.024.307-.208.574-.513.598zm1.045-.352c-.307.022-.576-.207-.596-.515-.025-.305.202-.573.51-.596.31-.023.575.206.597.512.026.307-.205.575-.512.598zm1.032-1.22c-.304.024-.573-.203-.598-.512-.022-.305.21-.574.514-.596.307-.025.576.207.6.512.024.307-.21.574-.516.597zm.276-2.574c-.305.023-.57-.206-.597-.512-.023-.308.207-.574.515-.6.31-.022.573.207.597.515.022.306-.205.573-.516.597zm.532-2.106l-1.038.072.002.007c.02.306-.206.575-.513.6-.31.022-.58-.208-.6-.515v-.014l-3.05.21c.145.092.252.24.266.423.022.307-.207.576-.512.6-.31.02-.58-.208-.605-.513-.013-.186.073-.35.206-.463l-.5.036-1.627.36c.055.08.1.17.11.274.02.31-.21.575-.514.598-.308.025-.574-.203-.598-.512-.005-.05.008-.097.016-.144l-.547.12c.188.078.328.25.346.466.022.306-.207.576-.515.597-.303.025-.575-.208-.6-.513-.01-.158.047-.304.146-.414l-.632.14c.037.068.062.142.07.224.023.306-.21.574-.515.6-.06.003-.118-.008-.175-.023-.087.082-.197.142-.33.15-.102.01-.197-.02-.283-.06l-.006-.99-.022-3.16 3.088-3.378 6.055-1.178 2.873 2.44v3.96zm0-5.27l-1.618-1.374 1.618-.316v1.69zm1.782 12.24l-.783-.04v-14.06l.783-.166V45.97zm11.614-3.34c-.078.056-.168.098-.27.106-.308.022-.578-.21-.602-.514-.022-.307.212-.576.515-.6.132-.01.255.035.356.106v.902zm-1.026-2.077c.306-.02.577.208.6.515.025.305-.208.574-.515.597-.31.023-.574-.207-.598-.514-.022-.304.204-.573.513-.597zm-.745-.614c-.022-.31.208-.577.513-.598.307-.025.574.205.6.512.022.305-.208.574-.514.597-.306.024-.577-.207-.6-.51zm1.76-10.503l.003 1.818-1.47-1.53 1.468-.287zM44.88 31.497l2.153-.42-2.153 2.204v-1.783zm0 3.215l3.88-3.97 4.087-.796 2.64 2.75.003 5.37-2.61.182c-.07.206-.255.363-.486.38-.234.02-.443-.11-.543-.31l-4.25.297c.007.03.02.056.025.087.018.306-.207.575-.513.6-.31.022-.578-.208-.6-.515-.002-.034.007-.064.01-.097l-1.642.115v-4.093zm4.763 6.098c.307-.022.577.208.6.515.022.306-.21.574-.515.6-.308.02-.576-.208-.597-.517-.025-.306.206-.574.513-.598zm-.766-1.68c-.028-.306.204-.574.51-.597.31-.025.576.207.6.512.023.307-.204.576-.51.598-.31.025-.58-.205-.6-.512zm-.3 2.14c.023.304-.21.572-.51.595-.31.025-.578-.205-.602-.51-.025-.31.205-.578.514-.6.305-.024.572.206.596.514zm-1.852.557c.306-.024.576.206.6.513.022.306-.21.574-.517.598-.308.023-.574-.206-.598-.512-.025-.31.208-.576.515-.6zm-.634-.485c-.307.024-.576-.205-.597-.513-.022-.307.205-.574.51-.598.31-.023.576.206.6.513.025.307-.205.573-.512.597zm-1.21-2.144c.092-.107.225-.18.38-.19.306-.024.576.205.596.513.025.307-.206.576-.513.6-.19.014-.353-.073-.463-.207v-.715zm0 2.96c.09-.085.204-.146.337-.156.31-.023.576.205.597.512.025.307-.204.574-.514.597-.16.015-.31-.047-.42-.15v-.802zm.52 3c-.22.02-.416-.098-.52-.275v-.547c.09-.156.24-.273.436-.287.306-.025.575.204.597.513.023.305-.204.572-.512.596zm.993-.924c-.06.028-.124.05-.194.055-.31.023-.578-.208-.6-.516-.022-.305.21-.575.514-.598.3-.022.56.2.593.497.058-.03.123-.05.19-.056.31-.022.58.21.603.516.02.304-.21.572-.514.598-.3.023-.562-.2-.593-.496zm2.462 2.027l-.833-.043c-.02-.025-.042-.044-.057-.07-.022.025-.052.042-.078.062l-.723-.04c-.094-.09-.16-.21-.17-.35-.025-.307.207-.575.513-.597.225-.018.428.103.53.29.093-.105.223-.176.372-.188.307-.022.575.206.598.515.012.163-.05.31-.153.42zm-.125-2.224c-.307.023-.573-.208-.598-.513-.024-.306.207-.576.515-.6.304-.023.574.208.6.515.02.306-.212.576-.517.598zm1.157 1.628c-.306.024-.574-.205-.594-.512-.027-.306.203-.576.507-.6.31-.023.577.208.6.514.023.308-.206.575-.513.598zm.37-2.625c-.307.025-.576-.206-.598-.513-.025-.307.206-.576.512-.598.308-.026.578.206.6.51.023.31-.206.576-.514.6zm.54-2.81c-.022-.308.205-.576.512-.6.305-.023.575.207.6.514.02.305-.21.574-.514.598-.31.024-.576-.207-.598-.512zm.73.91c.242-.018.456.123.55.33.093-.116.23-.197.392-.21.302-.024.573.207.595.513.024.307-.205.576-.513.598-.24.018-.452-.12-.546-.33-.094.118-.23.2-.393.212-.305.02-.57-.207-.596-.512-.02-.306.204-.576.51-.6zm-.47 2.087c-.023-.307.207-.575.515-.598.306-.024.577.207.6.513.02.306-.21.575-.515.597-.307.024-.573-.205-.6-.513zm1.5 2.8c-.303.023-.573-.207-.596-.513-.02-.307.206-.576.51-.6.308-.02.58.207.6.516.027.306-.204.574-.512.597zm.018-5.49c-.31.026-.575-.205-.598-.512-.024-.307.208-.574.512-.597.306-.026.573.205.6.512.022.308-.207.576-.515.597zm.474-1.735c-.024-.306.207-.573.51-.597.307-.023.58.207.6.512.023.306-.207.574-.512.598-.306.025-.576-.204-.6-.513zm.277 5.163c-.014-.18.065-.337.186-.45-.072-.085-.127-.19-.135-.31-.027-.307.204-.573.512-.6.308-.02.575.208.6.516.014.18-.064.337-.187.45.074.085.13.188.137.31.023.305-.207.573-.515.597-.306.023-.576-.205-.598-.512zm1.235 2.6l-.742-.04c-.088-.088-.152-.205-.163-.34-.024-.306.207-.576.51-.598.306-.025.58.206.602.513.015.188-.073.355-.208.466zm.593-1.25c-.306.025-.575-.206-.598-.512-.026-.31.208-.574.51-.598.167-.013.318.05.428.156v.794c-.09.088-.205.152-.34.162zm1.342 1.363l-.013-17.413.406-.098.378.095.012 17.457-.783-.042zm1.77-17.09l20.453 6.86-1.2.084c.06.08.105.172.113.278.025.31-.207.575-.51.6-.31.022-.576-.207-.6-.514-.01-.11.024-.208.073-.3l-4.444.31c-.017.273-.222.5-.506.522-.28.02-.52-.177-.576-.447l-2.904.204c.084.09.144.2.154.332.016.18-.066.342-.193.454.015-.002.025-.01.04-.01.308-.025.577.204.6.51.023.307-.208.575-.515.598-.306.025-.575-.205-.598-.512-.013-.18.067-.34.19-.45-.013 0-.024.008-.038.01-.302.02-.572-.206-.596-.514-.01-.135.034-.257.106-.36l-.494.035c-.04.25-.238.453-.5.473-.265.02-.492-.153-.566-.398l-1.89.13c.025.058.046.12.052.186.024.305-.207.572-.514.596-.31.023-.576-.205-.6-.512-.004-.068.007-.135.025-.197l-4.557.317-.005-8.283zm14.91 7.84c-.023-.307.207-.574.517-.596.308-.024.574.205.6.512.02.305-.21.574-.515.597-.31.025-.577-.204-.602-.51zm.15 1.5c.026.306-.204.576-.513.6-.305.024-.573-.208-.596-.513-.024-.308.206-.577.512-.6.305-.024.575.208.598.514zm-9.142 2.733c-.21.018-.395-.092-.502-.26-.273-.015-.502-.222-.52-.502-.022-.305.204-.574.514-.596.21-.017.395.09.502.257.27.018.5.223.52.503.025.306-.206.574-.515.598zm.207.732c.024.31-.207.576-.513.6-.308.024-.574-.207-.598-.513-.024-.31.204-.576.51-.6.31-.024.577.207.6.512zm-1.93-1.817c.024.306-.208.573-.51.597-.31.023-.577-.205-.6-.513-.012-.162.046-.308.148-.418-.055-.08-.098-.167-.105-.27-.026-.304.204-.574.514-.597.304-.023.573.207.596.514.012.16-.047.306-.148.416.055.08.097.167.104.27zm-3.43 1.613c-.31.023-.576-.207-.6-.513-.024-.308.204-.575.515-.6.31-.02.574.207.6.513.02.31-.21.575-.516.6zm.443.962c.022.306-.206.577-.512.6-.31.023-.576-.207-.6-.516-.023-.304.205-.574.515-.597.306-.022.572.21.597.513zm-.225-4.34c-.025-.31.207-.578.513-.6.305-.025.577.206.6.513.02.306-.21.574-.515.597-.308.024-.58-.205-.598-.51zm.84 1.25c.308-.022.578.208.6.515.022.306-.206.573-.513.6-.31.02-.575-.208-.598-.516-.027-.305.203-.574.51-.6zm.316-1.18c-.02-.308.208-.576.516-.6.306-.022.572.208.597.515.023.307-.208.574-.513.598-.31.023-.575-.205-.6-.512zm.463 3.295c.048-.004.093.01.14.016.074-.19.25-.335.472-.354.308-.023.578.207.598.514.023.306-.203.573-.512.597-.05.004-.096-.01-.143-.017-.075.193-.253.34-.474.355-.305.026-.573-.206-.597-.512-.024-.306.207-.575.516-.598zm1.47-3.136c-.026-.306.206-.573.513-.6.308-.022.575.21.597.515.023.308-.205.576-.513.6-.307.02-.574-.207-.598-.516zm-4.065.666c.078-.056.168-.1.273-.106.304-.026.574.205.597.51.025.308-.21.576-.515.6-.132.01-.253-.035-.355-.105v-.9zm.63 6.536c-.308.023-.574-.21-.6-.515-.023-.305.204-.573.515-.598.303-.023.573.206.598.514.022.306-.21.575-.513.598zm1.73-.098c-.304.025-.573-.204-.598-.51-.004-.046.01-.087.016-.13-.07.042-.15.073-.24.08-.305.023-.57-.207-.596-.514-.027-.308.206-.576.513-.597.307-.024.573.205.6.513.002.045-.01.086-.018.13.073-.044.15-.075.24-.082.304-.024.575.206.598.514.02.306-.208.573-.515.596zm1.475-1.23c-.294.023-.548-.19-.59-.477-.09.146-.24.254-.424.268-.31.025-.575-.205-.6-.512-.02-.306.21-.576.515-.597.297-.024.55.19.59.477.093-.146.242-.255.427-.27.304-.024.573.207.595.513.02.307-.206.577-.512.598zm1.372 2.107c-.305.025-.574-.205-.6-.512-.023-.31.208-.574.516-.597.305-.023.575.205.6.512.02.308-.208.576-.516.6zm.217-2.054c-.307.024-.575-.206-.6-.514-.022-.304.21-.573.515-.596.308-.024.576.206.6.513.02.306-.21.573-.516.596zm1.082.31c-.312.026-.577-.206-.6-.512-.023-.307.205-.574.51-.6.31-.02.58.207.602.516.02.306-.208.574-.512.597zm-.056-6.426c-.025-.306.206-.575.516-.598.306-.023.572.206.594.512.03.308-.205.576-.51.6-.308.023-.576-.208-.6-.514zm1.472 4.12c-.308.022-.577-.207-.6-.515-.025-.307.207-.572.513-.597.308-.024.577.206.6.513.023.308-.206.577-.512.6zm.53-2.064c-.076.045-.156.078-.247.085-.304.026-.573-.203-.6-.51-.02-.308.21-.576.518-.6.016 0 .03.007.048.007.073-.045.154-.078.244-.086.308-.02.576.208.597.515.026.306-.208.573-.512.597-.017 0-.032-.006-.048-.006zm.65 3.66c-.308.024-.575-.207-.598-.513-.028-.307.203-.574.51-.598.31-.023.577.206.6.514.026.303-.204.572-.513.595zm.475-1.467c-.305.02-.573-.207-.594-.516-.027-.307.204-.572.51-.596.307-.025.575.205.6.512.022.307-.207.576-.517.6zm.954-1.748c-.002-.032.007-.06.01-.09-.143-.09-.25-.24-.264-.42-.023-.308.204-.574.513-.6.31-.023.578.206.602.514 0 .03-.01.06-.013.09.144.09.25.238.263.42.023.306-.206.575-.516.6-.305.02-.568-.208-.595-.514zm.927 2.366c-.307.022-.574-.206-.6-.515-.023-.305.205-.574.515-.598.306-.023.573.208.595.514.024.306-.204.573-.51.598zm.836-4.67c-.306.022-.576-.208-.6-.515-.023-.307.208-.574.516-.595.304-.026.576.203.598.51.02.308-.206.575-.514.6zm1.177 1.595c-.304.023-.572-.205-.597-.512-.022-.307.208-.573.51-.598.314-.023.58.206.604.513.023.307-.206.574-.517.598zm1.643 1.26l-.76.414c-.183-.08-.32-.248-.337-.46-.023-.306.207-.575.515-.597.306-.024.573.207.6.513.002.045-.01.087-.018.13zm.717-2.108c-.307.023-.576-.207-.6-.514-.025-.305.207-.573.515-.598.305-.023.574.21.596.514.025.308-.205.576-.51.6zm.8 1.283c-.002-.008-.007-.015-.01-.023-.02-.306.208-.574.516-.6.15-.01.29.04.397.13l-.904.493zm1.723-2.482c-.218.015-.413-.098-.518-.274-.078.188-.25.328-.467.346-.31.022-.577-.207-.6-.513-.022-.306.207-.575.515-.598.22-.017.41.097.516.272.078-.188.252-.33.468-.346.308-.023.57.206.598.513.022.308-.21.573-.512.6zm.59 1.222c-.068-.085-.12-.182-.127-.3-.025-.305.207-.573.513-.596.26-.02.48.145.56.38l-.946.516zm1.61-.877c-.088-.088-.152-.205-.162-.34-.023-.307.207-.575.514-.598.277-.02.515.172.575.436l-.927.503z" fill="#FFFDF7"/><path d="M82.044 31.915L70.692 21.28c-.044-.04-.094-.072-.15-.095l-8.4-3.493-.025-.004c-.024-.008-.045-.008-.068-.013-.06-.012-.116-.015-.173-.006-.015.002-.028-.006-.04-.002l-4.176.983v3.28c0 .706-.45 1.094-1.01 1.094s-1.014-.388-1.014-1.094v-2.802l-3.884.916.002-2.477.13.037c.046.01.09.017.134.017.19 0 .37-.108.452-.29.104-.22.032-.484-.17-.622l-7.288-4.976c-.016-.01-.035-.007-.05-.015-.02-.01-.03-.03-.05-.037-.034-.014-.07-.006-.104-.012-.037-.006-.07-.015-.107-.013-.058.004-.11.023-.165.047-.023.01-.05.006-.073.02-.007.005-.01.014-.017.02-.007.006-.02.005-.027.012l-7.227 5.748c-.188.15-.243.418-.125.632.09.164.26.26.437.26.055 0 .11-.01.164-.028l.645-.22v1.735l-1.35-.316c-.02-.006-.042.005-.064.002-.027 0-.048-.02-.076-.015-.025.002-.043.02-.068.024-.046.01-.086.023-.13.045-.042.022-.077.048-.113.082-.02.018-.045.024-.06.044-.015.018-.013.04-.024.06-.012.02-.034.032-.042.053l-1.734 4.213-13.396 3.158v2.376c0 .706-.45 1.094-1.01 1.094-.558 0-1.014-.388-1.014-1.094v-1.9l-1.16.275c-.115.027-.217.094-.287.19l-3.988 5.378c-.125.166-.132.392-.02.566.092.146.252.232.42.232.034 0 .068-.003.1-.01L59.622 25.1l21.917 7.652c.055.02.11.028.164.028.173 0 .337-.088.43-.24.122-.203.087-.463-.086-.625zm-48.482-2.56l3.347-8.14.08.15 3.57 6.583-6.998 1.406zm11.16-6.264l-2.095-2.117c-.067-.068-.152-.115-.244-.136l-3.072-.71v-2.312l5.41-1.86v7.136zm6.03-2.806l-2.434.57c-.084.02-.16.06-.224.12l-2.374 2.19v-7.248l5.034 1.418-.002 2.95z" fill="#FFFDF7"/><path d="M56.63 22.662c.352 0 .64-.286.64-.64l-.184-11.704c0-.352-.104-.638-.455-.638-.354 0-.455.286-.455.638l-.184 11.705c0 .353.286.64.64.64M57.733 14.306c.01-.007 1.267-.78 2.342-.77.233.004.442.044.616.12.317.132.332.31.353.557.018.246.05.617.56.732.037.008.074.013.112.013.276.003.558-.194.885-.42.416-.286.886-.614 1.428-.607.245.005.48.074.73.218.306.178.44.202.515.203.087 0 .145-.03.176-.055.054-.047.093-.117.093-.193.005-.412-1.23-1.393-2.36-1.405-.37-.004-.718.086-1.025.272-.15.087-.238.104-.287.104-.185-.002-.275-.433-.373-.89-.192-.905-.48-2.27-2.047-2.288-.51-.007-1.108.128-1.825.41-.06.023-.1.072-.118.132-.016.058-.007.123.028.173.004.008.467.646.37 1.577-.1.973-.46 1.866-.462 1.874-.035.083-.01.174.057.23.066.056.16.062.233.016M20.243 30.396c.354 0 .64-.285.64-.638l-.184-10.48c0-.352-.103-.637-.457-.637-.353 0-.456.286-.456.64l-.183 10.478c0 .353.286.638.64.638M21.127 23.315c.062.04.14.03.19-.028.012-.008 1.505-.957 2.382-1.144.192-.04.366-.04.52-.002.273.067.31.227.357.452.045.223.116.562.55.576.03 0 .063-.002.092-.01.227-.047.43-.282.673-.552.3-.342.642-.73 1.086-.825.2-.04.407-.02.623.068.277.108.388.104.447.092.07-.016.113-.054.138-.085.042-.052.06-.126.05-.195-.047-.38-1.177-1.064-2.103-.87-.303.067-.575.215-.804.443-.11.11-.18.14-.22.15-.15.033-.28-.35-.417-.755-.268-.805-.68-2.017-1.96-1.744-.42.087-.89.325-1.442.718-.04.03-.072.084-.077.142-.007.06.008.113.048.154.003.006.08.515.12 1.393.042.923-.327 1.816-.327 1.825-.016.08.01.162.074.2" fill="#FFFDF7"/></g></svg>