<svg xmlns="http://www.w3.org/2000/svg" width="99" height="93" viewBox="0 0 99 93"><title>grandstand-colour</title><path fill="#FF5F00" d="M2.283 1.02l-.447 47.794 48.262 41.87L97.504 48.02V1.353L2.284 1.02"/><path fill="#FF5F00" d="M.61.648V48.09l49.06 44.405L98.732 48.09V.65H.61zM96.73 47.204L49.67 89.798 2.61 47.204V2.648h94.123v44.556z"/><path fill="#FFFDF7" d="M81.76 36.74v-.004c-.003-.03-.016-.054-.023-.083-.006-.025-.006-.052-.016-.076 0-.004-.004-.006-.005-.01 0 0-.002 0-.003-.002-.003-.006-.003-.012-.007-.018l-.002-.002c-.01-.022-.03-.037-.043-.057-.018-.025-.03-.053-.055-.074l-.004-.005c0-.002 0-.003-.003-.004l-.012-.012c-.018-.014-.04-.02-.06-.032-.028-.02-.056-.04-.09-.053l-.007-.006-.006-.002-.01-.004-23.36-7.836a.483.483 0 0 0-.165-.076l-.254-.063-.492-.165c-.01-.004-.024-.002-.036-.005a.49.49 0 0 0-.078-.01.493.493 0 0 0-.115-.002c-.007.002-.015 0-.024 0L44.88 30.478v-.007l-.452.095-30.433 5.924a.496.496 0 0 0-.395.49c-.002.02-.01.036-.01.055v7.293l-.1.022c-.013.002-.025.01-.04.016l-.102-.006c-.262-.027-.512.198-.526.473a.5.5 0 0 0 .473.525l42.63 2.283c.017.003.03.01.046.01l.462.026v5.735l-43.057-4.603a.512.512 0 0 0-.55.443.5.5 0 0 0 .443.55l43.612 4.665a.44.44 0 0 0 .052.003h.016l23.73-.76a.5.5 0 0 0 .483-.517c-.01-.274-.254-.476-.514-.483l-23.213.744V47.73l.32.017h.025c.01 0 .02-.004.027-.004l6.115.328.073.004h.026c.08 0 .15-.02.216-.053.008-.005.016-.003.023-.007l16.5-8.983v9.866a.5.5 0 0 0 1.002 0V36.773c0-.005-.004-.01-.004-.016l.002-.018zM27.283 34.92l.008 1.157-1.218-.922 1.21-.236zm-10.89 2.12l1.59-.31-1.59 1.802v-1.492zm-1.002 7.374l-.8-.028V37.44l.8-.17v7.146zm2.55.19l-.852-.046a.53.53 0 0 1-.115-.283.56.56 0 1 1 1.113-.085.552.552 0 0 1-.146.414zm2.062-.727a.56.56 0 0 1 .516-.6.555.555 0 0 1 .596.513.56.56 0 0 1-.513.6.56.56 0 0 1-.598-.514zm1.748.93l-1.096-.058a.555.555 0 0 1 .505-.535.563.563 0 0 1 .6.515c.002.028-.008.052-.01.08zm1.793-.15a.558.558 0 0 1-.603-.512.558.558 0 1 1 1.112-.085.553.553 0 0 1-.51.597zm1.56.33l-.764-.042a.548.548 0 0 1-.152-.328.556.556 0 0 1 .515-.597.562.562 0 0 1 .597.513.55.55 0 0 1-.197.453zm1.11.032a.56.56 0 0 1-.603-.512.562.562 0 0 1 .517-.6.556.556 0 0 1 .596.515.554.554 0 0 1-.51.597zm.493-1.8a.557.557 0 1 1 .512-.6.555.555 0 0 1-.512.6zm-1.187-1.526c.166.086.288.244.3.443a.555.555 0 1 1-1.108.083.538.538 0 0 1 .114-.373l-.383.085a.555.555 0 1 1-.91.47.547.547 0 0 1 .063-.284l-.743.165c.018.048.037.095.043.15a.557.557 0 0 1-1.11.086l-.448.1a.55.55 0 0 1-.502.5.553.553 0 0 1-.518-.276l-1.1.243a.553.553 0 0 1-.165 1.067.55.55 0 0 1-.45-.93l-2.21.486v-3.664l3.202-3.627 5.158-1.005L27.3 37.34l.026 3.96-1.807.396zm2.83 3.45l-.067-10.383.783-.165.07 10.59-.785-.042zm1.714-10.765l1.46-.283-1.45 1.588-.01-1.304zm.438 10.362a.54.54 0 0 1-.37-.113l-.007-.876a.54.54 0 0 1 .293-.124.553.553 0 0 1 .595.513.554.554 0 0 1-.51.6zm.662-1.28a.556.556 0 0 1-.085-1.11.556.556 0 1 1 .084 1.11zm1.39 1.774a.553.553 0 0 1-.595-.51.554.554 0 0 1 .508-.6.552.552 0 0 1 .598.513.55.55 0 0 1-.51.596zm.035-2.265a.55.55 0 0 1-.588-.475c-.03.008-.057.023-.09.026a.56.56 0 0 1-.6-.512.56.56 0 0 1 .516-.6.556.556 0 0 1 .588.478c.03-.008.055-.023.086-.025a.556.556 0 1 1 .087 1.11zm1.244.647a.56.56 0 0 1-.6-.51.556.556 0 0 1 1.043-.31.558.558 0 0 1 .988.307.562.562 0 0 1-.518.597.548.548 0 0 1-.526-.287.552.552 0 0 1-.386.204zm1.56-1.912a.557.557 0 1 1-.966-.33.564.564 0 0 1-.198-.384.564.564 0 0 1 .517-.597.556.556 0 0 1 .452.928c.11.094.185.23.195.385zm-.41 3.54a.553.553 0 0 1-.59-.51.554.554 0 0 1 .508-.6.556.556 0 1 1 .083 1.11zm1.97-3.093a.558.558 0 1 1 .6.514.55.55 0 0 1-.323-.085c.018.048.037.094.04.146a.56.56 0 0 1-.51.598.558.558 0 1 1-.09-1.11c.12-.01.228.026.323.083-.017-.047-.036-.093-.042-.145zm-.784 1.145a.556.556 0 1 1-.51.597.554.554 0 0 1 .51-.597zm.498 2.31l-.846-.044a.552.552 0 0 1-.12-.286.56.56 0 0 1 .514-.598.56.56 0 0 1 .598.514.542.542 0 0 1-.146.414zm.994 0a.55.55 0 0 1-.598-.51.557.557 0 1 1 .598.51zm.373-4.297a.56.56 0 0 1-.6-.513.56.56 0 0 1 1.114-.085.558.558 0 0 1-.515.598zm2.628.046a.56.56 0 1 1-1.114.085.58.58 0 0 1 .026-.205.55.55 0 0 1-.518-.504.557.557 0 0 1 1.11-.084.53.53 0 0 1-.026.204c.276.018.5.223.52.504zm-1.694-1a.558.558 0 0 1-.084-1.112.557.557 0 1 1 .084 1.112zm.023 1.834a.558.558 0 0 1 .086 1.11.554.554 0 0 1-.598-.513.554.554 0 0 1 .51-.597zm.22 3.06a.557.557 0 1 1 .513-.598.558.558 0 0 1-.513.598zm1.045-.352a.555.555 0 0 1-.596-.515.552.552 0 0 1 .51-.596.554.554 0 0 1 .597.512.553.553 0 0 1-.512.598zm1.032-1.22a.558.558 0 0 1-.598-.512.56.56 0 1 1 1.113-.084.556.556 0 0 1-.515.597zm.276-2.574a.56.56 0 0 1-.597-.512.56.56 0 0 1 .515-.6.557.557 0 0 1 .08 1.11v.002zm.532-2.106l-1.038.072.002.007a.558.558 0 0 1-1.113.085v-.014l-3.05.21a.55.55 0 0 1 .266.423.56.56 0 0 1-.512.6.564.564 0 0 1-.605-.513.56.56 0 0 1 .206-.463l-.5.036-1.627.36c.055.08.1.17.11.274a.56.56 0 0 1-.514.598.553.553 0 0 1-.598-.512c-.005-.05.008-.097.016-.144l-.547.12c.188.078.328.25.346.466a.557.557 0 0 1-.515.597.56.56 0 0 1-.6-.513.56.56 0 0 1 .146-.414l-.632.14a.564.564 0 0 1 .07.224.56.56 0 0 1-.515.6.54.54 0 0 1-.175-.023.53.53 0 0 1-.33.15.556.556 0 0 1-.283-.06l-.006-.99-.022-3.16 3.088-3.378 6.055-1.178 2.873 2.44v3.96zm0-5.27l-1.618-1.374 1.618-.316v1.69zm1.782 12.24l-.783-.04v-14.06l.783-.166V45.97zm11.614-3.34a.535.535 0 0 1-.27.106.564.564 0 0 1-.602-.514.563.563 0 0 1 .515-.6.544.544 0 0 1 .356.106v.902zm-1.026-2.077a.562.562 0 0 1 .6.515.56.56 0 1 1-1.113.083.558.558 0 0 1 .513-.597zm-.745-.614a.558.558 0 0 1 1.114-.086.558.558 0 0 1-1.114.086zm1.76-10.503l.003 1.818-1.47-1.53 1.468-.287zM44.88 31.497l2.153-.42-2.153 2.204v-1.783zm0 3.215l3.88-3.97 4.088-.796 2.64 2.75.003 5.37-2.61.182a.554.554 0 0 1-1.027.07l-4.253.297c.007.03.02.056.025.087a.558.558 0 0 1-1.113.085c-.002-.034.007-.064.01-.097l-1.642.115v-4.093zm4.763 6.098a.56.56 0 0 1 .6.515.557.557 0 0 1-1.112.083.555.555 0 0 1 .512-.598zm-.766-1.68a.552.552 0 0 1 .51-.597.556.556 0 0 1 .088 1.11.554.554 0 0 1-.598-.512zm-.3 2.14a.557.557 0 1 1-.598-.514.555.555 0 0 1 .596.513zm-1.852.557a.56.56 0 0 1 .6.513.562.562 0 0 1-.517.598.557.557 0 1 1-.083-1.11zm-.634-.485a.557.557 0 1 1 0 0zm-1.21-2.144a.548.548 0 0 1 .38-.19.56.56 0 1 1 .084 1.113.547.547 0 0 1-.464-.207v-.715zm0 2.96a.547.547 0 0 1 .337-.156.553.553 0 0 1 .597.512.553.553 0 0 1-.934.445v-.802zm.52 3a.553.553 0 0 1-.52-.275v-.547a.546.546 0 0 1 .436-.287.555.555 0 0 1 .597.513.555.555 0 0 1-.512.596zm.993-.924a.565.565 0 0 1-.194.055.557.557 0 0 1-.6-.516.56.56 0 0 1 .514-.598c.3-.022.56.2.593.497a.535.535 0 0 1 .19-.056c.31-.022.58.21.603.516a.565.565 0 0 1-.514.598.556.556 0 0 1-.593-.496zm2.462 2.027l-.833-.043c-.02-.025-.042-.044-.057-.07-.022.025-.052.042-.078.062l-.723-.04a.533.533 0 0 1-.17-.35.555.555 0 0 1 1.042-.308.558.558 0 0 1 .373-.187.558.558 0 0 1 .598.515.55.55 0 0 1-.153.42zm-.125-2.224a.56.56 0 1 1 .516-.598.56.56 0 0 1-.516.598zm1.157 1.628a.55.55 0 0 1-.594-.512.553.553 0 0 1 .507-.6.558.558 0 0 1 .6.514.558.558 0 0 1-.513.598zm.37-2.625a.556.556 0 1 1-.086-1.11.556.556 0 1 1 .086 1.11zm.54-2.81a.556.556 0 0 1 .512-.6.56.56 0 0 1 .6.514.56.56 0 0 1-.513.598.555.555 0 0 1-.6-.512zm.73.91a.558.558 0 0 1 .55.33.553.553 0 0 1 .988.303.555.555 0 0 1-1.06.268.557.557 0 0 1-.392.212.558.558 0 0 1-.086-1.11zm-.468 2.087a.556.556 0 0 1 .513-.598.563.563 0 0 1 .6.513.56.56 0 0 1-.515.597.557.557 0 0 1-.6-.513zm1.5 2.8a.56.56 0 0 1-.09-1.113.56.56 0 0 1 .6.516.553.553 0 0 1-.51.597zm.015-5.49a.557.557 0 1 1-.087-1.11.555.555 0 0 1 .087 1.11zm.474-1.735a.558.558 0 1 1 1.112-.085.56.56 0 0 1-.513.598.556.556 0 0 1-.6-.513zm.277 5.163a.546.546 0 0 1 .187-.45.55.55 0 0 1-.136-.31.556.556 0 0 1 .513-.6.562.562 0 0 1 .6.516.544.544 0 0 1-.187.45c.074.085.13.188.137.31a.56.56 0 0 1-1.113.085zm1.235 2.6l-.742-.04a.55.55 0 0 1-.163-.34.556.556 0 0 1 .51-.598.56.56 0 0 1 .603.513.547.547 0 0 1-.208.466zm.592-1.25a.557.557 0 1 1-.086-1.11.555.555 0 0 1 .427.156v.794a.55.55 0 0 1-.34.162zm1.343 1.363l-.013-17.413.406-.098.377.095.012 17.457-.783-.042zm1.77-17.09l20.454 6.86-1.198.084a.53.53 0 0 1 .11.278.556.556 0 0 1-.51.6.56.56 0 0 1-.6-.514.54.54 0 0 1 .073-.3l-4.443.31a.55.55 0 0 1-.506.52.55.55 0 0 1-.576-.446l-2.904.203c.084.09.145.2.154.332a.54.54 0 0 1-.193.454c.016-.003.025-.01.04-.012a.555.555 0 1 1 .085 1.11.555.555 0 0 1-.598-.513.544.544 0 0 1 .19-.45c-.014 0-.024.008-.038.01a.56.56 0 0 1-.597-.514.546.546 0 0 1 .105-.36l-.494.036a.555.555 0 0 1-.498.473.55.55 0 0 1-.567-.4l-1.89.13c.024.06.046.12.052.187a.558.558 0 1 1-1.09-.113l-4.556.317-.002-8.28zm14.91 7.84a.555.555 0 0 1 .517-.596.558.558 0 0 1 .6.512.56.56 0 0 1-1.116.085zm.15 1.5a.556.556 0 1 1-1.11.087.556.556 0 1 1 1.11-.086zm-9.14 2.733a.543.543 0 0 1-.503-.26.546.546 0 0 1-.52-.502.555.555 0 0 1 .513-.596c.21-.017.396.09.503.257.27.018.5.223.52.503a.558.558 0 0 1-.514.598zm.206.732a.557.557 0 1 1 0 0zm-1.93-1.817a.558.558 0 0 1-1.112.084.55.55 0 0 1 .15-.418.534.534 0 0 1-.106-.27.56.56 0 1 1 1.112-.084.55.55 0 0 1-.15.418c.056.08.098.167.105.27zm-3.432 1.613a.555.555 0 0 1-.597-.513.56.56 0 0 1 1.113-.087.562.562 0 0 1-.515.6zm.445.962a.56.56 0 0 1-1.114.084.56.56 0 0 1 .518-.597.56.56 0 0 1 .597.513zm-.225-4.34a.557.557 0 1 1 .598.51.553.553 0 0 1-.598-.51zm.84 1.25a.56.56 0 0 1 .087 1.114.558.558 0 0 1-.088-1.114zm.316-1.18a.56.56 0 0 1 1.114-.086.558.558 0 0 1-1.114.087zm.463 3.295c.048-.004.093.01.14.016a.555.555 0 0 1 1.07.16.555.555 0 0 1-.51.597c-.05.004-.097-.01-.145-.017a.555.555 0 1 1-.556-.755zm1.47-3.136a.557.557 0 0 1 1.112-.084.557.557 0 0 1-1.113.083zm-4.065.666a.526.526 0 0 1 .272-.106.555.555 0 1 1 .082 1.11.547.547 0 0 1-.355-.105v-.9zm.63 6.536a.563.563 0 0 1-.6-.515.56.56 0 1 1 .6.515zm1.73-.098a.557.557 0 0 1-.598-.51c-.004-.046.01-.087.016-.13a.547.547 0 0 1-.238.08.56.56 0 0 1-.598-.514.56.56 0 1 1 1.113-.084c.004.045-.008.086-.016.13a.544.544 0 0 1 .24-.082.56.56 0 0 1 .598.514.562.562 0 0 1-.515.596zm1.474-1.23a.556.556 0 0 1-.59-.477.545.545 0 0 1-.425.268.557.557 0 1 1 .506-.632.553.553 0 0 1 .427-.27.557.557 0 1 1 .082 1.11zm1.372 2.107a.562.562 0 0 1-.6-.513.56.56 0 0 1 1.116-.086.56.56 0 0 1-.516.6zm.217-2.054zm1.082.31a.557.557 0 0 1-.09-1.11.56.56 0 0 1 .602.514.56.56 0 0 1-.512.597zm-.055-6.426a.556.556 0 0 1 .516-.598.553.553 0 0 1 .594.512.558.558 0 1 1-1.11.086zm1.47 4.12a.557.557 0 1 1 0 0zm.53-2.064a.548.548 0 0 1-.246.085.56.56 0 0 1-.6-.51.562.562 0 0 1 .52-.6c.015 0 .03.007.046.007a.562.562 0 0 1 .244-.086.557.557 0 1 1 .086 1.112c-.018 0-.033-.006-.05-.006zm.65 3.66a.556.556 0 1 1-.086-1.11.558.558 0 0 1 .6.513.555.555 0 0 1-.513.595zm.477-1.467a.554.554 0 0 1-.595-.516.553.553 0 0 1 .51-.596.557.557 0 1 1 .084 1.11zm.953-1.748c-.002-.032.008-.06.012-.09a.557.557 0 0 1-.267-.42.56.56 0 0 1 1.116-.086c0 .03-.01.06-.015.09.145.09.25.238.264.42a.56.56 0 0 1-.517.6.56.56 0 0 1-.596-.514zm.927 2.366a.557.557 0 1 1 0 0zm.836-4.67a.56.56 0 0 1-.6-.515.554.554 0 0 1 .516-.595.554.554 0 0 1 .598.51.56.56 0 0 1-.514.6zm1.177 1.595zm1.644 1.26l-.76.414a.548.548 0 0 1 .18-1.057.56.56 0 0 1 .598.513c.002.045-.01.087-.017.13zm.717-2.108a.56.56 0 0 1-.6-.514.56.56 0 1 1 .6.514zm.8 1.283l-.01-.023a.563.563 0 0 1 .516-.6c.15-.01.29.04.397.13l-.904.493zm1.723-2.482a.56.56 0 0 1-.52-.274.553.553 0 0 1-1.065-.167.558.558 0 0 1 .515-.598.55.55 0 0 1 .516.272.556.556 0 0 1 .468-.346.56.56 0 0 1 .6.513.563.563 0 0 1-.514.6zm.59 1.222a.54.54 0 0 1-.127-.3.557.557 0 0 1 .513-.596c.262-.02.48.145.56.38l-.945.516zm1.61-.877a.544.544 0 0 1-.162-.34.55.55 0 0 1 1.09-.16l-.928.5z"/><path fill="#FFFDF7" d="M82.044 31.915L70.69 21.28a.496.496 0 0 0-.147-.095l-8.4-3.493-.025-.004c-.024-.008-.045-.008-.068-.013a.476.476 0 0 0-.172-.006c-.016.002-.027-.006-.04-.002l-4.176.983v3.28c0 .706-.452 1.094-1.013 1.094-.56 0-1.013-.388-1.013-1.094v-2.802l-3.885.916.002-2.477.13.037a.498.498 0 0 0 .586-.273.498.498 0 0 0-.17-.622l-7.288-4.976c-.016-.01-.035-.007-.05-.015-.02-.01-.03-.03-.05-.037-.034-.014-.07-.006-.104-.012-.037-.006-.07-.015-.107-.013a.476.476 0 0 0-.165.047c-.023.01-.05.006-.073.02-.007.005-.01.014-.017.02-.007.006-.02.005-.027.012l-7.227 5.748a.5.5 0 0 0 .476.864l.645-.22v1.735l-1.35-.316c-.02-.006-.042.005-.064.002-.027 0-.048-.02-.076-.015-.025.002-.043.02-.068.024a.507.507 0 0 0-.13.045.512.512 0 0 0-.113.082c-.02.018-.045.024-.06.044-.015.018-.013.04-.024.06-.012.02-.034.032-.042.053l-1.734 4.213-13.396 3.158v2.376c0 .706-.45 1.094-1.01 1.094-.558 0-1.014-.388-1.014-1.094v-1.9l-1.16.275a.492.492 0 0 0-.287.19l-3.988 5.378a.5.5 0 0 0 .5.788L59.622 25.1l21.917 7.652a.5.5 0 0 0 .507-.837zm-48.482-2.56l3.347-8.14.08.15 3.57 6.583-6.998 1.406zm11.16-6.264l-2.095-2.117a.5.5 0 0 0-.244-.136l-3.072-.71v-2.312l5.41-1.86v7.136zm6.03-2.806l-2.434.57a.494.494 0 0 0-.224.12l-2.374 2.19v-7.248l5.034 1.418-.002 2.95z"/><path fill="#FFFDF7" d="M56.63 22.662a.64.64 0 0 0 .64-.64l-.184-11.704c0-.352-.104-.638-.455-.638-.354 0-.455.286-.455.638l-.184 11.705c0 .353.285.64.64.64M57.732 14.306c.012-.007 1.268-.78 2.343-.77.233.004.442.044.616.12.316.132.33.31.353.557.018.246.05.617.56.732a.518.518 0 0 0 .112.013c.276.003.56-.194.885-.42.416-.286.887-.614 1.428-.607.246.005.48.074.73.218.307.178.44.202.516.203a.28.28 0 0 0 .176-.055.26.26 0 0 0 .094-.193c.005-.412-1.23-1.393-2.36-1.405-.37-.004-.718.086-1.024.27-.15.09-.238.106-.287.106-.186-.002-.275-.433-.374-.89-.193-.905-.48-2.27-2.048-2.288-.51-.007-1.108.128-1.825.41-.06.023-.1.072-.118.132a.208.208 0 0 0 .027.173c.004.007.467.645.37 1.576-.1.973-.462 1.866-.462 1.874a.19.19 0 0 0 .057.228.19.19 0 0 0 .23.018M20.243 30.396a.64.64 0 0 0 .64-.638l-.184-10.48c0-.352-.103-.637-.457-.637-.353 0-.456.286-.456.64l-.183 10.478c0 .353.286.638.64.638M21.127 23.315c.062.04.14.03.19-.028.012-.008 1.505-.957 2.382-1.144.192-.04.366-.04.52-.002.273.067.31.227.357.452.045.223.116.562.55.576.03 0 .063-.002.092-.01.227-.047.43-.282.673-.552.3-.342.642-.73 1.086-.825a1.05 1.05 0 0 1 .623.068c.277.108.388.104.447.092a.247.247 0 0 0 .138-.085.262.262 0 0 0 .05-.195c-.047-.38-1.177-1.064-2.103-.87a1.613 1.613 0 0 0-.804.443c-.11.11-.18.14-.22.15-.15.033-.28-.35-.417-.755-.268-.805-.68-2.017-1.96-1.744-.42.087-.89.325-1.442.718a.203.203 0 0 0-.077.142.182.182 0 0 0 .048.154c.003.006.08.515.12 1.393.042.923-.327 1.816-.327 1.825-.016.08.01.162.074.2"/></svg>