<svg xmlns="http://www.w3.org/2000/svg" width="99" height="93" viewBox="0 0 99 93"><title>grandstand-colour</title><path fill="#FF5F00" d="M2.283 1.019l-.447 47.795 48.262 41.871L97.504 48.02V1.353L2.283 1.019"/><path fill="#FF5F00" d="M.609.648v47.443L49.67 92.495l49.062-44.404V.648H.609zm96.123 46.556L49.67 89.798 2.609 47.204V2.648h94.124v44.556h-.001z"/><path fill="#FFFDF7" d="M81.76 36.739l-.001-.003c-.002-.029-.015-.054-.022-.083-.006-.025-.006-.052-.016-.076l-.006-.009-.003-.003c-.003-.006-.003-.012-.007-.018l-.002-.002c-.01-.022-.029-.037-.043-.057-.018-.025-.031-.053-.055-.074l-.004-.005-.004-.003-.012-.012c-.018-.014-.039-.02-.059-.032-.029-.019-.057-.04-.09-.053-.004-.001-.008-.005-.008-.005l-.006-.002-.01-.004-23.361-7.836a.483.483 0 0 0-.164-.076l-.254-.063-.492-.165c-.012-.004-.025-.002-.037-.005a.489.489 0 0 0-.078-.01.493.493 0 0 0-.115-.002c-.008.001-.016-.002-.025 0L44.88 30.477v-.007l-.452.095-30.433 5.924a.496.496 0 0 0-.395.492c-.002.018-.009.035-.009.054v7.293l-.1.022c-.014.002-.026.011-.04.016l-.103-.006c-.262-.027-.512.198-.526.473a.5.5 0 0 0 .473.525l42.631 2.283c.016.002.029.01.045.01l.461.025v5.735l-43.057-4.604a.512.512 0 0 0-.551.443.5.5 0 0 0 .444.55l43.612 4.665a.44.44 0 0 0 .052.003h.016l23.729-.761a.5.5 0 0 0 .484-.516c-.011-.275-.255-.477-.515-.484l-23.213.744v-5.723l.32.017.025.001c.01 0 .019-.005.027-.005l6.115.327.073.004.026.001c.08 0 .15-.022.217-.054.008-.004.016-.002.023-.006L80.76 39.03v9.866a.501.501 0 0 0 1.002 0V36.773c0-.005-.004-.01-.004-.016l.002-.018zm-54.477-1.817l.008 1.157-1.219-.921 1.211-.236zm-10.891 2.12l1.59-.31-1.59 1.802v-1.492zm-1.001 7.374l-.8-.028V37.44l.8-.171v7.147zm2.549.19l-.852-.046a.53.53 0 0 1-.115-.283.56.56 0 0 1 1.113-.085.552.552 0 0 1-.146.414zm2.062-.727a.56.56 0 0 1 .516-.6.555.555 0 0 1 .596.514.561.561 0 0 1-.513.6.56.56 0 0 1-.599-.514zm1.748.932l-1.096-.059a.555.555 0 0 1 .505-.535.563.563 0 0 1 .601.515c.002.028-.008.052-.01.079zm1.793-.151a.558.558 0 0 1-.603-.512.558.558 0 0 1 1.112-.085.553.553 0 0 1-.509.597zm1.56.329l-.764-.041a.548.548 0 0 1-.151-.328.556.556 0 0 1 .515-.597.562.562 0 0 1 .597.513.55.55 0 0 1-.197.453zm1.109.033a.56.56 0 0 1-.602-.512.562.562 0 0 1 .517-.6.556.556 0 0 1 .596.515.554.554 0 0 1-.511.597zm.494-1.801a.557.557 0 1 1-.086-1.11.557.557 0 0 1 .086 1.11zm-1.187-1.525a.535.535 0 0 1 .301.443.555.555 0 1 1-1.108.084.538.538 0 0 1 .114-.373l-.383.085a.555.555 0 1 1-.909.469.547.547 0 0 1 .062-.283l-.743.164c.018.048.037.095.043.149a.557.557 0 0 1-1.111.087l-.447.098a.549.549 0 0 1-.502.502.553.553 0 0 1-.518-.277l-1.101.243a.553.553 0 0 1-.164 1.067.55.55 0 1 1-.45-.931l-2.211.487v-3.664l3.202-3.627 5.158-1.004 2.548 1.926.026 3.958-1.807.397zm2.832 3.45l-.068-10.383.783-.165.069 10.59-.784-.042zm1.713-10.765l1.459-.284-1.45 1.588-.009-1.304zm.438 10.361a.539.539 0 0 1-.371-.113l-.006-.875a.54.54 0 0 1 .293-.124.553.553 0 0 1 .595.513.554.554 0 0 1-.511.599zm.662-1.281a.556.556 0 1 1-.085-1.109.556.556 0 1 1 .085 1.109zm1.391 1.775a.553.553 0 0 1-.596-.511.554.554 0 0 1 .509-.599.552.552 0 0 1 .598.513.551.551 0 0 1-.511.597zm.034-2.265a.551.551 0 0 1-.587-.476c-.031.008-.057.023-.089.026a.56.56 0 0 1-.6-.513.56.56 0 0 1 .515-.6.556.556 0 0 1 .588.478c.029-.008.055-.023.086-.025a.556.556 0 1 1 .087 1.11zm1.245.646a.56.56 0 0 1-.6-.511.556.556 0 1 1 1.043-.311.558.558 0 0 1 .988.309.562.562 0 0 1-.518.597.548.548 0 0 1-.526-.288.552.552 0 0 1-.387.204zm1.561-1.912a.557.557 0 1 1-.967-.33.564.564 0 0 1-.198-.384.564.564 0 0 1 .517-.598.556.556 0 0 1 .452.928.544.544 0 0 1 .196.384zm-.41 3.541a.553.553 0 0 1-.591-.512.554.554 0 0 1 .508-.598.556.556 0 1 1 .083 1.11zm1.968-3.094a.558.558 0 1 1 .599.514.55.55 0 0 1-.32-.085c.018.047.037.093.041.145a.559.559 0 0 1-.51.598.558.558 0 0 1-.09-1.111c.12-.01.227.027.322.084-.017-.047-.036-.093-.042-.145zm-.783 1.145a.556.556 0 1 1 .086 1.11.556.556 0 0 1-.086-1.11zm.498 2.311l-.846-.045a.552.552 0 0 1-.119-.286.559.559 0 0 1 .513-.598.56.56 0 0 1 .598.515.542.542 0 0 1-.146.414zm.994-.001a.551.551 0 0 1-.598-.51.557.557 0 1 1 .598.51zm.373-4.297a.56.56 0 0 1-.6-.513.56.56 0 0 1 1.114-.085.558.558 0 0 1-.514.598zm2.628.046a.559.559 0 0 1-1.114.085.581.581 0 0 1 .027-.205.55.55 0 0 1-.518-.504.557.557 0 0 1 1.11-.084.53.53 0 0 1-.026.204.546.546 0 0 1 .521.504zm-1.694-.999a.558.558 0 0 1-.084-1.112.557.557 0 1 1 .084 1.112zm.024 1.833a.558.558 0 0 1 .086 1.111.554.554 0 0 1-.597-.514.554.554 0 0 1 .511-.597zm.22 3.06a.557.557 0 1 1-.085-1.111.557.557 0 0 1 .085 1.111zm1.045-.352a.555.555 0 0 1-.596-.515.552.552 0 0 1 .511-.596.554.554 0 0 1 .596.512.553.553 0 0 1-.511.599zm1.032-1.219a.558.558 0 0 1-.598-.513.559.559 0 0 1 1.113-.084.556.556 0 0 1-.515.597zm.276-2.575a.559.559 0 0 1-.597-.512.56.56 0 0 1 .516-.599.557.557 0 0 1 .081 1.111zm.532-2.106l-1.038.072.002.007a.558.558 0 0 1-1.113.085l.002-.014-3.051.211a.549.549 0 0 1 .266.422.559.559 0 0 1-.512.598.564.564 0 0 1-.605-.512.56.56 0 0 1 .207-.463l-.5.036-1.627.359c.056.08.101.17.111.275a.56.56 0 0 1-.514.598.553.553 0 0 1-.598-.512c-.005-.051.008-.097.016-.144l-.547.12c.188.078.328.25.346.466a.557.557 0 0 1-.515.597.56.56 0 0 1-.6-.512.559.559 0 0 1 .146-.414l-.632.14a.564.564 0 0 1 .069.224.56.56 0 0 1-.514.599.54.54 0 0 1-.175-.022.529.529 0 0 1-.329.151.556.556 0 0 1-.284-.062l-.005-.99-.022-3.158 3.088-3.379 6.055-1.178 2.873 2.44v3.96zm0-5.271l-1.618-1.373 1.618-.316v1.689zm1.782 12.242l-.783-.041V31.867l.783-.165v14.267zm11.614-3.341a.535.535 0 0 1-.271.106.564.564 0 0 1-.601-.514.563.563 0 0 1 .515-.599.544.544 0 0 1 .356.105l.001.902zm-1.026-2.077a.562.562 0 0 1 .601.514.559.559 0 0 1-1.114.083.558.558 0 0 1 .513-.597zm-.745-.615a.558.558 0 0 1 1.114-.086.558.558 0 1 1-1.114.086zm1.761-10.503l.002 1.818-1.471-1.532 1.469-.286zM44.88 31.497l2.153-.419-2.153 2.203v-1.784zm0 3.215l3.88-3.971 4.088-.795 2.639 2.75.004 5.369-2.611.183a.554.554 0 0 1-1.027.071l-4.253.296c.007.029.021.056.025.087a.558.558 0 1 1-1.113.085c-.002-.034.007-.064.011-.097l-1.643.115v-4.093zm4.763 6.098a.56.56 0 0 1 .6.515.557.557 0 1 1-1.112.083.555.555 0 0 1 .512-.598zm-.766-1.679a.552.552 0 0 1 .511-.598.556.556 0 1 1 .088 1.11.554.554 0 0 1-.599-.512zm-.301 2.138a.557.557 0 1 1-1.112.081.557.557 0 0 1 1.112-.081zm-1.851.558a.56.56 0 0 1 .6.513.562.562 0 0 1-.517.598.557.557 0 1 1-.083-1.111zm-.634-.485a.557.557 0 1 1 .513-.597.556.556 0 0 1-.513.597zm-1.211-2.144a.548.548 0 0 1 .379-.19.56.56 0 0 1 .084 1.113.547.547 0 0 1-.463-.208v-.715zm0 2.96a.547.547 0 0 1 .337-.156.553.553 0 0 1 .597.512.553.553 0 0 1-.934.445v-.801zm.521 3.001a.553.553 0 0 1-.521-.276v-.547a.546.546 0 0 1 .436-.287.555.555 0 0 1 .597.514.555.555 0 0 1-.512.596zm.992-.925a.565.565 0 0 1-.194.055.557.557 0 0 1-.599-.515.561.561 0 0 1 .514-.598c.3-.022.561.2.593.497a.535.535 0 0 1 .191-.056.563.563 0 0 1 .602.516.565.565 0 0 1-.514.598.556.556 0 0 1-.593-.497zm2.462 2.027l-.833-.044c-.02-.025-.042-.044-.057-.07-.022.025-.052.042-.078.062l-.723-.039a.533.533 0 0 1-.169-.35.555.555 0 1 1 1.042-.308.558.558 0 0 1 .372-.187.558.558 0 0 1 .599.515.55.55 0 0 1-.153.421zm-.125-2.225a.559.559 0 1 1 .516-.598.561.561 0 0 1-.516.598zm1.157 1.628a.55.55 0 0 1-.594-.512.553.553 0 0 1 .507-.599.558.558 0 0 1 .601.513.558.558 0 0 1-.514.598zm.371-2.625a.556.556 0 1 1-.086-1.11.556.556 0 1 1 .086 1.11zm.54-2.809a.556.556 0 0 1 .511-.599.56.56 0 0 1 .601.513.56.56 0 0 1-.513.598.555.555 0 0 1-.599-.512zm.729.911a.558.558 0 0 1 .55.33.553.553 0 0 1 .988.302.555.555 0 0 1-1.059.268.557.557 0 0 1-.393.211.558.558 0 0 1-.086-1.111zm-.468 2.086a.556.556 0 0 1 .514-.598.563.563 0 0 1 .601.514.56.56 0 0 1-.516.597.557.557 0 0 1-.599-.513zm1.5 2.8a.56.56 0 0 1-.088-1.113.56.56 0 0 1 .6.516.553.553 0 0 1-.512.597zm.016-5.49a.557.557 0 1 1 0 0zm.474-1.735a.558.558 0 0 1 1.113-.085.56.56 0 0 1-.513.598.556.556 0 0 1-.6-.513zm.278 5.163a.546.546 0 0 1 .187-.449.549.549 0 0 1-.136-.311.556.556 0 0 1 .513-.599.562.562 0 0 1 .6.515.544.544 0 0 1-.188.448.528.528 0 0 1 .137.311.559.559 0 0 1-1.113.085zm1.235 2.601l-.742-.04a.55.55 0 0 1-.163-.341.556.556 0 0 1 .511-.598.56.56 0 0 1 .602.513.547.547 0 0 1-.208.466zm.592-1.25a.557.557 0 1 1-.086-1.111.555.555 0 0 1 .427.156l.001.793a.551.551 0 0 1-.342.162zm1.343 1.362l-.013-17.413.406-.098.377.095.012 17.457-.782-.041zm1.771-17.089l20.453 6.86-1.199.083a.53.53 0 0 1 .111.278.556.556 0 0 1-.511.599.56.56 0 0 1-.601-.513.541.541 0 0 1 .074-.299l-4.443.309a.55.55 0 0 1-.506.521.55.55 0 0 1-.576-.447l-2.904.203a.537.537 0 0 1 .154.332.541.541 0 0 1-.193.454c.016-.002.025-.01.041-.011a.555.555 0 1 1 .084 1.109.555.555 0 0 1-.598-.512.544.544 0 0 1 .191-.451c-.015.001-.025.009-.039.01a.56.56 0 0 1-.597-.513.546.546 0 0 1 .106-.36l-.494.035a.555.555 0 0 1-.499.473.55.55 0 0 1-.567-.398l-1.891.13c.025.058.047.12.053.186a.558.558 0 1 1-1.09-.113l-4.556.317-.003-8.282zm14.91 7.84a.555.555 0 0 1 .516-.597.558.558 0 0 1 .6.512.56.56 0 0 1-1.116.085zm.15 1.5a.556.556 0 1 1-1.111.086.556.556 0 1 1 1.111-.086zm-9.142 2.732a.543.543 0 0 1-.502-.26.546.546 0 0 1-.521-.503.555.555 0 0 1 .514-.596.546.546 0 0 1 .503.257c.271.019.5.224.521.504a.558.558 0 0 1-.515.598zm.207.731a.557.557 0 1 1 0 0zm-1.931-1.817a.558.558 0 0 1-1.111.084.551.551 0 0 1 .148-.417.534.534 0 0 1-.105-.269.559.559 0 0 1 1.112-.084.551.551 0 0 1-.148.417.532.532 0 0 1 .104.269zm-3.431 1.613a.555.555 0 0 1-.598-.513.559.559 0 0 1 1.113-.087.562.562 0 0 1-.515.6zm.444.962a.56.56 0 1 1-1.114.084.56.56 0 0 1 .517-.597.56.56 0 0 1 .597.513zm-.225-4.341a.557.557 0 1 1 1.11-.09.557.557 0 0 1-1.11.09zm.839 1.251a.56.56 0 0 1 .088 1.114.558.558 0 1 1-.088-1.114zm.317-1.179a.56.56 0 0 1 1.114-.086.558.558 0 0 1-1.114.086zm.463 3.294c.049-.004.094.009.141.016a.555.555 0 0 1 1.071.159.555.555 0 0 1-.512.597c-.049.004-.096-.009-.144-.017a.555.555 0 1 1-.556-.755zm1.47-3.136a.557.557 0 1 1 1.112-.084.557.557 0 1 1-1.112.084zm-4.064.667a.526.526 0 0 1 .272-.106.555.555 0 1 1 .082 1.109.547.547 0 0 1-.354-.104v-.899zm.629 6.536a.563.563 0 0 1-.6-.515.559.559 0 1 1 .6.515zm1.731-.098a.557.557 0 0 1-.598-.511c-.004-.045.01-.086.016-.129a.547.547 0 0 1-.238.08.56.56 0 0 1-.598-.514.559.559 0 0 1 1.113-.084c.003.045-.009.086-.017.129a.544.544 0 0 1 .239-.081.56.56 0 0 1 .599.514.562.562 0 0 1-.516.596zm1.474-1.23a.556.556 0 0 1-.59-.477.545.545 0 0 1-.424.268.557.557 0 1 1 .506-.632.553.553 0 0 1 .426-.269.557.557 0 0 1 .082 1.11zm1.373 2.107a.562.562 0 0 1-.6-.514.56.56 0 1 1 1.116-.086.561.561 0 0 1-.516.6zm.217-2.055a.557.557 0 1 1-.085-1.11.557.557 0 0 1 .085 1.11zm1.083.311a.557.557 0 1 1-.091-1.112.56.56 0 0 1 .603.515.56.56 0 0 1-.512.597zm-.055-6.427a.556.556 0 0 1 .516-.598.553.553 0 0 1 .594.512.558.558 0 0 1-1.11.086zm1.471 4.119a.557.557 0 1 1 0 0zm.529-2.063a.548.548 0 0 1-.246.085.56.56 0 0 1-.6-.512.562.562 0 0 1 .518-.598c.016-.001.031.006.047.006a.562.562 0 0 1 .244-.086.557.557 0 0 1 .086 1.111c-.018.001-.033-.006-.049-.006zm.65 3.659a.556.556 0 1 1-.086-1.11.558.558 0 0 1 .6.514.555.555 0 0 1-.514.596zm.477-1.466a.554.554 0 0 1-.595-.515.553.553 0 0 1 .511-.596.557.557 0 1 1 .084 1.111zm.953-1.747c-.002-.032.008-.059.012-.089a.557.557 0 0 1-.266-.421.559.559 0 1 1 1.116-.086c0 .031-.01.059-.014.09.145.091.25.238.264.421a.559.559 0 0 1-.516.598.56.56 0 0 1-.596-.513zm.927 2.366a.557.557 0 1 1 0 0zm.836-4.671a.56.56 0 0 1-.6-.514.554.554 0 0 1 .516-.595.554.554 0 0 1 .598.509.56.56 0 0 1-.514.6zm1.177 1.596a.558.558 0 1 1-.081-1.113.558.558 0 0 1 .081 1.113zm1.644 1.26l-.76.414a.548.548 0 0 1 .178-1.057.561.561 0 0 1 .599.513c.002.045-.01.087-.017.13zm.716-2.108a.561.561 0 0 1-.601-.514.559.559 0 1 1 .601.514zm.799 1.283l-.008-.023a.563.563 0 0 1 .515-.6.554.554 0 0 1 .397.131l-.904.492zm1.724-2.482a.56.56 0 0 1-.519-.274.553.553 0 0 1-1.066-.167.558.558 0 0 1 .515-.598.551.551 0 0 1 .516.272.556.556 0 0 1 .468-.345.56.56 0 0 1 .599.513.563.563 0 0 1-.513.599zm.591 1.222a.54.54 0 0 1-.128-.299.557.557 0 0 1 .513-.597c.262-.02.48.145.561.381l-.946.515zm1.609-.877a.544.544 0 0 1-.162-.342.551.551 0 1 1 1.089-.161l-.927.503z"/><path fill="#FFFDF7" d="M82.044 31.915L70.691 21.281a.496.496 0 0 0-.148-.096l-8.4-3.493-.025-.004c-.024-.008-.045-.008-.068-.013a.476.476 0 0 0-.172-.006c-.016.003-.027-.005-.041-.001l-4.175.983v3.279c0 .706-.452 1.094-1.013 1.094-.558 0-1.012-.388-1.012-1.094v-2.802l-3.885.916.002-2.477.131.037a.498.498 0 0 0 .586-.273.498.498 0 0 0-.171-.623l-7.288-4.976c-.016-.01-.035-.007-.051-.015-.018-.011-.029-.029-.05-.037-.033-.014-.068-.006-.103-.012-.037-.006-.069-.015-.107-.013a.476.476 0 0 0-.166.047c-.023.01-.051.006-.073.021-.007.004-.011.013-.017.019-.007.006-.019.005-.027.012l-7.227 5.748a.5.5 0 0 0 .475.864l.645-.22v1.735l-1.35-.317c-.022-.006-.043.005-.065.002-.027-.001-.048-.019-.076-.015-.025.001-.043.018-.068.023a.507.507 0 0 0-.129.045.512.512 0 0 0-.114.083c-.019.018-.044.024-.06.044-.014.018-.012.041-.023.06-.012.02-.034.032-.042.053l-1.734 4.214-13.396 3.158v2.375c0 .706-.451 1.094-1.011 1.094-.557 0-1.013-.388-1.013-1.094v-1.899l-1.16.274a.492.492 0 0 0-.287.188l-3.988 5.379a.5.5 0 1 0 .501.788l45.325-9.237 21.916 7.653a.501.501 0 0 0 .507-.837zm-48.482-2.561l3.347-8.14.082.15 3.569 6.584-6.998 1.406zm11.159-6.263l-2.094-2.118a.499.499 0 0 0-.244-.136l-3.072-.709v-2.313l5.41-1.859v7.135zm6.031-2.807l-2.434.569a.494.494 0 0 0-.224.12l-2.374 2.191v-7.248l5.034 1.418-.002 2.95z"/><path fill="#FFFDF7" d="M56.631 22.662a.64.64 0 0 0 .639-.639l-.184-11.705c0-.352-.104-.638-.455-.638-.355 0-.456.286-.456.638l-.184 11.705c0 .353.284.639.64.639M57.732 14.306c.012-.007 1.268-.781 2.343-.769.233.003.442.043.616.119.315.132.33.311.352.557.018.246.049.617.561.732a.518.518 0 0 0 .111.013c.276.003.559-.194.885-.419.416-.287.887-.615 1.428-.608.246.004.481.073.729.217.308.178.442.202.517.203a.28.28 0 0 0 .176-.056.259.259 0 0 0 .094-.193c.005-.412-1.229-1.393-2.359-1.405a1.917 1.917 0 0 0-1.025.271c-.149.088-.238.105-.287.105-.186-.002-.275-.433-.374-.89-.192-.905-.479-2.271-2.047-2.288-.509-.007-1.108.128-1.825.411a.196.196 0 0 0-.118.131.208.208 0 0 0 .028.173c.004.007.467.645.369 1.576-.098.973-.461 1.866-.461 1.874a.191.191 0 0 0 .057.228.19.19 0 0 0 .23.018M20.243 30.396a.64.64 0 0 0 .641-.638l-.185-10.479c0-.353-.102-.638-.456-.638-.353 0-.456.285-.456.638l-.183 10.479c0 .353.286.638.639.638M21.127 23.315c.062.04.141.029.191-.028.011-.008 1.504-.957 2.381-1.144.193-.039.367-.039.522-.002.272.066.309.226.356.451.045.223.116.562.551.576a.353.353 0 0 0 .091-.01c.228-.047.431-.282.674-.552.301-.342.642-.731 1.086-.825a1.05 1.05 0 0 1 .624.067c.277.108.388.104.447.092a.247.247 0 0 0 .138-.085.262.262 0 0 0 .051-.195c-.048-.381-1.178-1.064-2.104-.869a1.613 1.613 0 0 0-.804.442c-.112.109-.182.14-.222.15-.15.033-.28-.351-.416-.755-.268-.805-.679-2.017-1.96-1.744-.42.087-.89.325-1.442.718a.203.203 0 0 0-.078.142.182.182 0 0 0 .048.154c.002.006.078.515.12 1.393.041.922-.328 1.815-.328 1.824-.016.08.01.162.074.2"/></svg>