<svg xmlns="http://www.w3.org/2000/svg" width="98.124" height="91.848" viewBox="0 0 98.124 91.848"><path fill="#FDF7E7" d="M0 0v47.443l49.062 44.404 49.062-44.404V0H0zm96.124 46.557L49.062 89.15 2 46.557V2h94.124v44.557z"/><g fill="#FDF7E7"><path d="M81.15 36.092v-.003c-.003-.03-.016-.056-.023-.084-.006-.025-.006-.053-.016-.076 0-.004-.004-.006-.005-.01 0 0-.002 0-.003-.003-.003-.006-.003-.012-.007-.018 0-.002 0-.003-.002-.003-.01-.02-.03-.037-.043-.057-.018-.025-.03-.053-.055-.074l-.003-.005s-.003 0-.005-.002l-.013-.012c-.017-.015-.038-.02-.057-.032-.03-.02-.058-.04-.09-.054-.006 0-.01-.005-.013-.006h-.002l-.01-.005-23.36-7.837a.483.483 0 0 0-.165-.076l-.254-.063-.492-.165c-.01-.005-.024-.003-.036-.006-.025-.007-.05-.008-.078-.01a.493.493 0 0 0-.115-.003c-.007.002-.015 0-.023 0L44.27 29.83v-.008l-.45.096-30.434 5.924a.495.495 0 0 0-.395.49c-.002.02-.01.036-.01.056v7.293l-.1.022c-.014.003-.024.012-.038.017l-.104-.007c-.262-.027-.51.197-.525.473s.196.51.473.525l42.63 2.283c.017.002.03.01.046.01l.462.025v5.735l-43.06-4.605a.512.512 0 0 0-.55.444.5.5 0 0 0 .445.55l43.61 4.665a.44.44 0 0 0 .052.003h.017l23.728-.76a.5.5 0 0 0 .484-.517c-.01-.275-.255-.477-.516-.484l-23.213.743V47.08l.32.017h.027c.007 0 .018-.004.026-.004l6.115.327.074.004h.027c.08 0 .15-.02.217-.054.008-.004.016-.002.023-.006l16.5-8.982v9.866a.5.5 0 0 0 1 0V36.126c0-.006-.004-.01-.004-.017s.004-.012.004-.018zm-54.476-1.818l.008 1.157-1.22-.92 1.212-.236zm-10.892 2.12l1.59-.31-1.59 1.803v-1.492zm-1 7.375l-.8-.03v-6.946l.8-.17v7.145zm2.548.19l-.852-.047a.535.535 0 0 1-.114-.283.555.555 0 0 1 .512-.598.56.56 0 0 1 .6.513.55.55 0 0 1-.146.414zm2.064-.73a.56.56 0 0 1 .516-.6.555.555 0 0 1 .596.515.558.558 0 1 1-1.112.086zm1.747.933l-1.095-.06a.556.556 0 0 1 .505-.534.563.563 0 0 1 .6.515c.002.027-.007.052-.01.078zm1.793-.15a.56.56 0 0 1-.602-.512.56.56 0 0 1 .517-.597.554.554 0 0 1 .596.512.554.554 0 0 1-.51.598zm1.56.33l-.764-.042a.548.548 0 0 1-.152-.327.557.557 0 0 1 .516-.597.56.56 0 0 1 .597.513c.013.18-.068.34-.196.452zm1.11.03a.56.56 0 0 1-.602-.51.562.562 0 0 1 .517-.6.556.556 0 0 1 .598.514.555.555 0 0 1-.512.597zm.494-1.8a.557.557 0 1 1 .514-.598.558.558 0 0 1-.513.598zM24.91 41.05a.54.54 0 0 1 .302.44.557.557 0 0 1-1.11.085.543.543 0 0 1 .114-.373l-.384.085a.557.557 0 1 1-.91.47.545.545 0 0 1 .063-.283l-.743.164c.018.048.037.095.042.148a.557.557 0 0 1-1.11.087l-.448.1a.55.55 0 0 1-.502.5.555.555 0 0 1-.518-.276l-1.102.243c.19.077.332.252.35.47a.56.56 0 0 1-1.115.085.55.55 0 0 1 .152-.42l-2.212.488V39.4l3.202-3.628 5.157-1.004 2.55 1.926.025 3.958-1.8.397zm2.833 3.45l-.07-10.385.784-.165.068 10.59-.782-.04zm1.712-10.767l1.46-.284-1.45 1.587-.01-1.304zm.438 10.362a.54.54 0 0 1-.37-.113l-.007-.875a.545.545 0 0 1 .294-.124.557.557 0 0 1 .083 1.112zm.662-1.282a.556.556 0 0 1-.085-1.11.556.556 0 1 1 .085 1.11zm1.39 1.776a.557.557 0 1 1 .513-.598.554.554 0 0 1-.513.597zm.034-2.267a.55.55 0 0 1-.588-.476c-.03.008-.057.022-.09.025a.56.56 0 0 1-.6-.513.555.555 0 0 1 1.103-.122c.03-.01.057-.023.088-.025a.558.558 0 0 1 .086 1.11zm1.244.647a.56.56 0 0 1-.598-.512.557.557 0 0 1 1.042-.31.56.56 0 0 1 .388-.205.56.56 0 0 1 .6.513.56.56 0 0 1-.518.598.55.55 0 0 1-.526-.288.552.552 0 0 1-.388.204zm1.562-1.912a.558.558 0 1 1-1.112.084.545.545 0 0 1 .144-.414.56.56 0 0 1-.196-.384.563.563 0 0 1 .516-.6.557.557 0 0 1 .452.93.55.55 0 0 1 .196.384zm-.41 3.54a.553.553 0 0 1-.592-.51.556.556 0 1 1 .592.51zm1.97-3.093a.556.556 0 0 1 .515-.6.56.56 0 0 1 .6.514.562.562 0 0 1-.517.6.547.547 0 0 1-.32-.086c.02.047.038.093.042.145a.56.56 0 0 1-.51.598.56.56 0 0 1-.6-.515.553.553 0 0 1 .51-.597.53.53 0 0 1 .32.084c-.016-.047-.036-.093-.04-.145zm-.784 1.144a.558.558 0 0 1 .082 1.11.555.555 0 0 1-.594-.513.554.554 0 0 1 .512-.598zm.498 2.31l-.847-.044a.546.546 0 0 1-.118-.286.558.558 0 0 1 .512-.6.562.562 0 0 1 .6.517.554.554 0 0 1-.147.414zm.993 0a.556.556 0 1 1-.085-1.11.556.556 0 0 1 .085 1.11zm.374-4.297a.557.557 0 0 1-.084-1.112.56.56 0 0 1 .598.512.56.56 0 0 1-.513.6zm2.627.045a.56.56 0 1 1-1.114.086.578.578 0 0 1 .026-.205.554.554 0 0 1-.52-.505.56.56 0 0 1 .515-.6.56.56 0 0 1 .6.516.575.575 0 0 1-.027.205c.275.018.5.223.52.503zm-1.694-.998a.56.56 0 0 1-.085-1.113.558.558 0 0 1 .085 1.113zm.024 1.833zm.22 3.06zm1.044-.352a.557.557 0 0 1-.596-.515c-.025-.305.202-.572.51-.596s.575.205.597.51a.552.552 0 0 1-.512.6zm1.033-1.22a.56.56 0 0 1-.597-.512.56.56 0 0 1 1.114-.084.556.556 0 0 1-.516.597zm.278-2.574a.558.558 0 0 1-.598-.512.56.56 0 0 1 .516-.6.556.556 0 0 1 .082 1.112zm.53-2.105l-1.038.073.002.007a.56.56 0 0 1-.512.6.56.56 0 0 1-.6-.515V38.5l-3.05.212c.145.09.252.238.265.422a.56.56 0 0 1-1.115.086.553.553 0 0 1 .206-.463l-.5.035-1.627.36c.057.08.102.17.11.274a.56.56 0 0 1-1.113.086c-.005-.05.01-.098.017-.145l-.547.12c.188.078.328.25.346.466a.558.558 0 0 1-.516.598.562.562 0 0 1-.6-.51.558.558 0 0 1 .146-.415l-.633.14a.56.56 0 0 1 .07.224.56.56 0 0 1-.515.6.564.564 0 0 1-.175-.023.534.534 0 0 1-.33.15.554.554 0 0 1-.283-.06l-.006-.99-.02-3.158 3.09-3.38 6.053-1.18 2.874 2.44v3.96zm0-5.27l-1.617-1.374 1.62-.315v1.69zm1.783 12.24l-.78-.04V31.22l.78-.165V45.32zm11.615-3.34a.538.538 0 0 1-.27.106.564.564 0 0 1-.603-.515.563.563 0 0 1 .516-.598.55.55 0 0 1 .355.104l.002.904zm-1.027-2.077a.564.564 0 0 1 .602.514.56.56 0 0 1-.517.598.558.558 0 0 1-.085-1.112zm-.745-.615a.558.558 0 0 1 1.113-.086.56.56 0 0 1-1.113.086zm1.762-10.503l.002 1.818-1.47-1.532 1.468-.285zM44.27 30.85l2.154-.42-2.153 2.204V30.85zm0 3.214l3.88-3.97 4.09-.796 2.64 2.75.002 5.37-2.61.182a.554.554 0 0 1-1.028.07l-4.252.297c.008.03.02.056.024.087a.56.56 0 0 1-.512.6.56.56 0 0 1-.6-.515c-.003-.035.008-.065.01-.1l-1.643.116v-4.092zm4.764 6.1a.56.56 0 0 1 .6.514.558.558 0 1 1-.6-.515zm-.767-1.68a.56.56 0 1 1 1.113-.086.556.556 0 0 1-.513.597.554.554 0 0 1-.6-.512zm-.3 2.137a.558.558 0 1 1-.597-.512.556.556 0 0 1 .597.513zm-1.85.56a.56.56 0 0 1 .6.513.562.562 0 0 1-.52.598.557.557 0 0 1-.08-1.11zm-.636-.486a.557.557 0 1 1 0 0zm-1.21-2.143a.55.55 0 0 1 .38-.19.56.56 0 1 1 .084 1.114.548.548 0 0 1-.463-.207v-.716zm0 2.96a.55.55 0 0 1 .936.357.555.555 0 0 1-.935.446v-.802zm.522 3.002a.552.552 0 0 1-.52-.276v-.547a.55.55 0 0 1 .436-.288.556.556 0 0 1 .084 1.11zm.99-.925a.59.59 0 0 1-.19.055.557.557 0 0 1-.6-.515.56.56 0 0 1 .513-.6c.3-.02.56.2.593.498a.568.568 0 0 1 .192-.056.56.56 0 0 1 .6.515.563.563 0 0 1-.512.598.556.556 0 0 1-.595-.496zm2.464 2.026l-.834-.044c-.02-.025-.04-.045-.056-.07-.022.024-.053.04-.08.06l-.722-.038a.537.537 0 0 1-.17-.35.556.556 0 0 1 1.043-.31.558.558 0 1 1 .82.75zm-.124-2.224a.56.56 0 0 1-.6-.514.56.56 0 0 1 1.115-.086.56.56 0 0 1-.515.6zm1.156 1.627a.554.554 0 0 1-.596-.512.556.556 0 0 1 1.11-.086.558.558 0 0 1-.514.597zm.37-2.625a.558.558 0 1 1-.085-1.11.558.558 0 0 1 .085 1.11zm.54-2.81a.556.556 0 0 1 .512-.6.56.56 0 0 1 .6.515.557.557 0 0 1-1.112.085zm.73.91a.557.557 0 0 1 .55.33.553.553 0 0 1 .99.304.556.556 0 0 1-1.06.268.557.557 0 0 1-.394.21.56.56 0 0 1-.596-.51.56.56 0 0 1 .51-.6zm-.47 2.088zm1.5 2.8a.56.56 0 0 1-.086-1.114.56.56 0 0 1 .6.516.556.556 0 0 1-.512.598zm.018-5.49a.557.557 0 1 1 .514-.598.556.556 0 0 1-.514.598zm.474-1.736zm.278 5.163a.544.544 0 0 1 .188-.45.54.54 0 0 1-.137-.31.557.557 0 0 1 1.112-.084.544.544 0 0 1-.188.448.54.54 0 0 1 .138.312.56.56 0 1 1-1.114.085zm1.234 2.602l-.74-.04a.552.552 0 0 1-.164-.342.558.558 0 1 1 1.114-.086.547.547 0 0 1-.21.467zm.594-1.25a.56.56 0 1 1-.086-1.113.554.554 0 0 1 .426.156v.793a.55.55 0 0 1-.34.163zm1.342 1.36l-.013-17.413.406-.098.378.094.013 17.457-.782-.04zm1.77-17.09l20.454 6.86-1.2.084a.53.53 0 0 1 .11.278.556.556 0 0 1-.51.6.56.56 0 0 1-.6-.514.545.545 0 0 1 .073-.3l-4.443.31a.55.55 0 0 1-.507.52.55.55 0 0 1-.575-.445l-2.904.202c.084.09.145.2.154.332a.542.542 0 0 1-.193.454c.015 0 .025-.01.04-.01a.556.556 0 0 1 .085 1.11.556.556 0 0 1-.598-.513.544.544 0 0 1 .19-.45c-.014 0-.024.01-.04.01a.56.56 0 0 1-.595-.514.542.542 0 0 1 .105-.36l-.494.036a.556.556 0 0 1-.498.472.55.55 0 0 1-.567-.398l-1.89.13c.024.06.046.12.052.187a.557.557 0 0 1-.514.597.555.555 0 0 1-.576-.71l-4.556.318-.002-8.284zm14.91 7.84a.554.554 0 0 1 .517-.596.556.556 0 0 1 .085 1.11.558.558 0 0 1-.6-.513zm.15 1.5a.557.557 0 1 1-.597-.512.557.557 0 0 1 .6.513zm-9.14 2.734a.545.545 0 0 1-.504-.26.548.548 0 0 1-.52-.503.557.557 0 0 1 .513-.596c.21-.017.396.09.503.257.272.02.5.226.52.505a.558.558 0 0 1-.513.6zm.204.73a.557.557 0 1 1-.6-.51.554.554 0 0 1 .6.51zm-1.93-1.816a.556.556 0 1 1-.962-.333.532.532 0 0 1-.104-.27.556.556 0 1 1 1.11-.084.55.55 0 0 1-.146.418.54.54 0 0 1 .103.27zm-3.43 1.612zm.444.963a.56.56 0 0 1-.513.6.56.56 0 0 1-.6-.516.56.56 0 0 1 .515-.598c.307-.022.573.208.598.513zm-.225-4.342a.557.557 0 1 1 .6.513.554.554 0 0 1-.6-.512zm.84 1.253a.56.56 0 0 1 .6.515.557.557 0 0 1-1.11.084.56.56 0 0 1 .51-.6zm.317-1.18a.56.56 0 0 1 .516-.6.56.56 0 0 1 .598.514.56.56 0 0 1-1.113.086zm.463 3.294c.05-.004.094.01.14.017a.557.557 0 0 1 .475-.355.557.557 0 0 1 .086 1.112c-.05.003-.097-.01-.144-.02a.555.555 0 0 1-1.072-.156.557.557 0 0 1 .515-.6zm1.47-3.135a.557.557 0 0 1 1.112-.084.556.556 0 0 1-1.113.084zm-4.064.667a.53.53 0 0 1 .272-.107.557.557 0 1 1 .082 1.11.547.547 0 0 1-.354-.104v-.9zm.63 6.535a.558.558 0 1 1 0 0zm1.73-.098a.56.56 0 0 1-.6-.512c-.003-.045.01-.086.017-.13a.543.543 0 0 1-.237.08.56.56 0 1 1-.086-1.11.56.56 0 0 1 .6.513c.003.045-.01.086-.017.13a.544.544 0 0 1 .24-.082.56.56 0 0 1 .598.514.56.56 0 0 1-.514.597zm1.475-1.23a.555.555 0 0 1-.59-.478.55.55 0 0 1-.423.268.56.56 0 0 1-.6-.512.56.56 0 0 1 .514-.598c.298-.023.55.19.592.478a.557.557 0 0 1 .426-.27.558.558 0 1 1 .083 1.11zm1.373 2.106a.556.556 0 0 1-.085-1.11.56.56 0 0 1 .6.51.56.56 0 0 1-.515.6zm.217-2.055zm1.083.312zm-.056-6.428a.556.556 0 1 1 1.11-.086.552.552 0 0 1-.51.6.56.56 0 0 1-.6-.514zm1.472 4.12a.558.558 0 1 1 .51-.6.555.555 0 0 1-.51.6zm.527-2.063a.544.544 0 0 1-.245.084.56.56 0 0 1-.6-.513.56.56 0 0 1 .516-.597c.017 0 .032.006.05.006a.553.553 0 0 1 .243-.087.56.56 0 0 1 .086 1.112c-.018 0-.032-.006-.05-.006zm.65 3.658a.556.556 0 0 1-.596-.513.558.558 0 1 1 .596.513zm.478-1.467a.555.555 0 0 1-.596-.514.558.558 0 1 1 1.112-.084.56.56 0 0 1-.517.6zm.953-1.746c-.003-.03.008-.06.01-.09a.552.552 0 0 1-.264-.42.558.558 0 0 1 1.114-.086c.002.03-.01.06-.012.09a.55.55 0 0 1 .264.42.56.56 0 0 1-.516.6.56.56 0 0 1-.596-.514zm.927 2.366a.56.56 0 0 1-.085-1.114.557.557 0 0 1 .596.515.555.555 0 0 1-.51.6zm.837-4.67a.56.56 0 0 1-.6-.515.555.555 0 0 1 .515-.596.557.557 0 1 1 .085 1.11zm1.176 1.595a.557.557 0 0 1-.086-1.11.56.56 0 0 1 .604.512.56.56 0 0 1-.518.598zm1.643 1.26l-.76.415a.555.555 0 0 1-.338-.46.56.56 0 0 1 1.116-.085c.003.046-.01.088-.017.13zm.717-2.108a.56.56 0 0 1-.6-.514.562.562 0 0 1 .516-.6.56.56 0 1 1 .084 1.114zm.8 1.284c0-.007-.006-.014-.007-.022a.56.56 0 0 1 .514-.6c.15-.01.29.04.397.13l-.903.493zm1.724-2.482a.558.558 0 0 1-.517-.273.556.556 0 0 1-.467.346.56.56 0 0 1-.6-.512.56.56 0 0 1 .514-.6.553.553 0 0 1 .517.273.554.554 0 0 1 1.066.17.562.562 0 0 1-.512.598zm.59 1.223a.55.55 0 0 1-.127-.298.558.558 0 0 1 .514-.598c.26-.02.48.146.56.38l-.946.517zm1.61-.876a.552.552 0 0 1-.162-.343.56.56 0 0 1 .516-.596.55.55 0 0 1 .574.436l-.927.504z"/><path d="M81.435 31.268L70.083 20.634a.538.538 0 0 0-.15-.097l-8.4-3.492c-.008-.003-.017-.002-.024-.005-.024-.008-.046-.008-.07-.013a.48.48 0 0 0-.172-.006c-.014.004-.027-.004-.04 0l-4.175.983v3.278c0 .707-.453 1.096-1.012 1.096s-1.01-.39-1.01-1.095v-2.8l-3.887.916.002-2.477.13.035a.5.5 0 0 0 .415-.895l-7.288-4.976c-.016-.01-.035-.008-.05-.016-.02-.01-.03-.03-.05-.037-.034-.013-.068-.005-.104-.01-.038-.007-.07-.016-.107-.014a.464.464 0 0 0-.166.047c-.024.01-.052.006-.074.02-.007.006-.01.015-.017.02-.008.007-.02.006-.027.013l-7.228 5.748a.5.5 0 0 0 .473.865l.646-.222v1.735l-1.35-.317c-.02-.006-.043.006-.064.003-.027-.002-.05-.02-.076-.017-.025 0-.043.02-.067.023a.467.467 0 0 0-.244.128c-.02.018-.045.023-.06.044-.015.018-.013.04-.024.06-.012.02-.033.032-.042.054l-1.733 4.214-13.395 3.157v2.375c0 .706-.452 1.095-1.012 1.095-.558 0-1.012-.39-1.012-1.095V27.06l-1.16.273a.496.496 0 0 0-.287.188l-3.987 5.38a.5.5 0 0 0 .5.787l45.326-9.237 21.916 7.653a.5.5 0 0 0 .593-.213.5.5 0 0 0-.086-.62zm-48.483-2.562l3.348-8.14.082.15L39.95 27.3l-6.998 1.406zm11.16-6.263l-2.096-2.118a.503.503 0 0 0-.243-.136l-3.07-.71v-2.312l5.41-1.86v7.135zm6.03-2.806l-2.433.568a.523.523 0 0 0-.226.12l-2.372 2.19V15.27l5.033 1.418-.003 2.95z"/><path d="M56.02 22.015a.64.64 0 0 0 .64-.64l-.094-5.98-.09-5.725c0-.353-.103-.64-.455-.64-.353 0-.455.287-.455.64l-.09 5.758-.094 5.946c.002.355.287.64.64.64zM57.124 13.658c.01-.007 1.266-.78 2.342-.77.232.004.44.044.616.12.315.132.33.31.352.557.02.246.05.617.562.732a.494.494 0 0 0 .11.013c.276.003.558-.194.885-.42.418-.286.89-.614 1.43-.607.245.004.48.073.73.218.307.18.442.202.515.203.088 0 .145-.03.177-.056a.255.255 0 0 0 .093-.193c.006-.412-1.227-1.393-2.358-1.404a1.917 1.917 0 0 0-1.025.27c-.15.09-.238.106-.287.106-.187-.002-.276-.434-.374-.89-.19-.905-.48-2.272-2.046-2.29-.51-.006-1.108.13-1.826.412a.194.194 0 0 0-.117.13.204.204 0 0 0 .03.175c.003.007.465.645.37 1.575-.1.974-.462 1.866-.464 1.874a.196.196 0 0 0 .057.23.192.192 0 0 0 .23.016zM19.634 29.75a.64.64 0 0 0 .64-.64l-.105-6.03-.08-4.448c0-.354-.1-.64-.455-.64-.353 0-.455.286-.455.64l-.078 4.446-.105 6.032a.635.635 0 0 0 .637.64zM20.518 22.667c.062.04.14.03.192-.027.01-.008 1.503-.957 2.38-1.145.192-.04.367-.04.522-.002.27.066.31.227.355.45.045.224.116.563.55.577.03 0 .063-.002.093-.01.23-.047.43-.282.674-.552.3-.343.643-.73 1.086-.825.202-.042.408-.02.625.066.275.107.387.103.446.09a.25.25 0 0 0 .14-.084.264.264 0 0 0 .05-.194c-.048-.38-1.178-1.064-2.104-.87a1.612 1.612 0 0 0-.805.443c-.11.108-.18.14-.22.15-.152.032-.28-.352-.417-.756-.27-.806-.68-2.018-1.96-1.745-.42.087-.89.325-1.442.718-.04.03-.07.084-.077.143s.01.113.048.154c.003.006.08.515.122 1.393.04.922-.328 1.814-.328 1.824-.015.08.01.163.074.2z"/></g></svg>