<svg xmlns="http://www.w3.org/2000/svg" width="98.124" height="91.848" viewBox="0 0 98.124 91.848"><path fill="#FDF7E7" d="M0 0v47.443l49.062 44.404 49.062-44.404V0H0zm96.124 46.557L49.062 89.15 2 46.557V2h94.124v44.557z"/><g fill="#FDF7E7"><path d="M81.15 36.092v-.003c-.003-.03-.016-.056-.023-.084-.006-.025-.006-.053-.016-.076 0-.004-.004-.006-.005-.01 0 0-.002 0-.003-.003-.003-.006-.003-.012-.007-.018 0-.002 0-.003-.002-.003-.01-.02-.03-.037-.043-.057-.018-.025-.03-.053-.055-.074l-.003-.005-.005-.002-.013-.012c-.017-.015-.038-.02-.057-.032-.03-.02-.058-.04-.09-.054-.006 0-.01-.005-.013-.006h-.002l-.01-.005-23.36-7.837c-.05-.034-.105-.062-.165-.076l-.254-.063-.492-.165c-.01-.005-.024-.003-.036-.006-.025-.007-.05-.008-.078-.01-.04-.005-.077-.008-.115-.003-.007.002-.015 0-.023 0L44.27 29.83v-.008l-.45.096-30.434 5.924c-.237.046-.394.257-.395.49-.002.02-.01.036-.01.056v7.293l-.1.022c-.014.003-.024.012-.038.017l-.104-.007c-.262-.027-.51.197-.525.473s.196.51.473.525l42.63 2.283c.017.002.03.01.046.01l.462.025v5.735l-43.06-4.605c-.25-.03-.52.17-.55.444-.028.274.17.52.445.55l43.61 4.665c.017.002.034.003.052.003h.017l23.728-.76c.276-.01.493-.24.484-.517-.01-.275-.255-.477-.516-.484l-23.213.743V47.08l.32.017h.027s.018-.004.026-.004l6.115.327.074.004h.027c.08 0 .15-.02.217-.054.008-.004.016-.002.023-.006l16.5-8.982v9.866c0 .276.223.5.5.5s.5-.224.5-.5V36.126c0-.006-.004-.01-.004-.017s.004-.012.004-.018zm-54.476-1.818l.008 1.157-1.22-.92 1.212-.236zm-10.892 2.12l1.59-.31-1.59 1.803v-1.492zm-1 7.375l-.8-.03v-6.946l.8-.17v7.145zm2.548.19l-.852-.047c-.06-.082-.106-.174-.114-.283-.026-.307.205-.574.512-.598.308-.023.574.205.6.513.012.158-.046.305-.146.414zm2.064-.73c-.023-.308.206-.574.516-.6.307-.022.574.208.596.515.023.307-.207.575-.514.6-.305.024-.577-.208-.598-.514zm1.747.933l-1.095-.06c.015-.277.22-.51.505-.534.307-.022.575.205.6.515.002.027-.007.052-.01.078zm1.793-.15c-.31.024-.578-.205-.602-.512-.02-.306.21-.575.517-.597.307-.023.573.205.596.512.025.307-.204.574-.51.598zm1.56.33l-.764-.042c-.082-.088-.142-.197-.152-.327-.025-.306.205-.57.516-.597.304-.023.57.207.597.513.013.18-.068.34-.196.452zm1.11.03c-.31.024-.574-.204-.602-.51-.02-.31.208-.576.517-.6.31-.024.576.206.598.514.025.306-.206.574-.512.597zm.494-1.8c-.31.023-.574-.207-.598-.512-.026-.307.204-.575.51-.597.31-.025.577.205.6.512s-.207.575-.513.598zM24.91 41.05c.166.085.288.242.302.44.024.308-.205.574-.514.6-.306.022-.572-.206-.596-.515-.012-.14.036-.27.114-.373l-.384.085c.112.093.188.23.2.386.023.308-.204.574-.512.598-.31.024-.575-.206-.597-.513-.01-.103.02-.196.062-.283l-.743.164c.018.048.037.095.042.148.023.307-.205.574-.515.598-.304.024-.57-.206-.597-.51l-.447.098c-.025.263-.226.48-.502.502-.22.016-.414-.1-.518-.277l-1.102.243c.19.077.332.252.35.47.022.31-.208.574-.513.598-.308.024-.577-.205-.602-.512-.012-.162.05-.31.152-.42l-2.212.487V39.4l3.202-3.628 5.157-1.004 2.55 1.926.025 3.958-1.8.397zm2.833 3.45l-.07-10.385.784-.165.068 10.59-.782-.04zm1.712-10.767l1.46-.284-1.45 1.587-.01-1.304zm.438 10.362c-.14.01-.268-.035-.37-.113l-.007-.875c.083-.065.18-.115.294-.124.305-.024.572.206.596.513.023.31-.206.575-.513.6zm.662-1.282c-.31.025-.575-.203-.6-.51-.022-.31.206-.576.515-.6.308-.025.574.207.598.513.025.308-.206.576-.513.597zm1.39 1.776c-.304.024-.574-.206-.597-.513-.02-.31.205-.576.512-.6.31-.023.575.205.598.514.023.31-.204.576-.513.6zm.034-2.267c-.297.023-.547-.19-.588-.476-.03.008-.057.022-.09.025-.306.024-.576-.208-.6-.513-.02-.308.205-.577.516-.6.293-.023.546.19.588.477.03-.008.056-.022.087-.024.308-.025.574.205.6.51.023.31-.207.577-.514.6zm1.244.647c-.306.023-.572-.206-.598-.512-.022-.308.207-.576.512-.6.225-.017.427.104.53.29.093-.114.23-.192.388-.205.307-.024.574.206.6.513.02.307-.21.574-.518.598-.224.018-.425-.103-.526-.288-.094.114-.23.193-.388.204zm1.562-1.912c.025.305-.207.574-.512.598-.308.023-.577-.207-.6-.514-.013-.16.045-.306.144-.414-.11-.094-.185-.23-.196-.384-.02-.306.207-.573.516-.6.31-.02.576.21.597.517.013.16-.045.305-.145.414.11.093.185.227.196.384zm-.41 3.54c-.3.024-.57-.203-.592-.51-.024-.308.203-.575.51-.6.312-.024.58.208.6.514.02.306-.206.573-.518.597zm1.97-3.093c-.026-.31.205-.578.515-.6.306-.023.572.206.6.514.02.306-.208.573-.517.6-.118.007-.225-.03-.32-.086.02.047.038.093.042.145.024.304-.208.573-.51.598-.31.02-.578-.207-.6-.515-.028-.307.204-.573.51-.597.12-.01.227.027.32.084-.016-.047-.036-.093-.04-.145zm-.784 1.144c.307-.024.574.206.598.513.025.307-.205.572-.516.598-.304.024-.572-.205-.594-.513-.028-.306.204-.572.512-.598zm.498 2.31l-.847-.044c-.062-.082-.11-.176-.118-.286-.022-.307.205-.575.512-.6.308-.02.574.21.6.517.01.158-.047.305-.147.414zm.993 0c-.31.025-.575-.205-.6-.51-.023-.31.206-.577.515-.6.308-.023.574.205.598.512.022.308-.206.576-.513.598zm.374-4.297c-.31.023-.574-.206-.6-.514-.024-.308.205-.574.516-.6.305-.022.572.206.598.514.022.308-.208.577-.513.6zm2.627.045c.025.307-.207.575-.514.598-.306.023-.576-.205-.6-.512-.005-.072.007-.14.026-.205-.27-.022-.5-.228-.52-.505-.022-.307.208-.575.515-.6.308-.02.575.207.6.516.004.072-.008.14-.027.205.275.018.5.223.52.503zm-1.694-.998c-.305.02-.574-.207-.598-.516-.022-.306.207-.572.513-.597.31-.022.575.207.597.513.024.307-.205.575-.512.6zm.024 1.833c.306-.022.576.205.598.513.02.308-.207.574-.512.598-.307.024-.574-.205-.598-.514-.024-.307.205-.573.512-.597zm.22 3.06c-.308.023-.575-.208-.598-.514-.024-.308.204-.575.513-.6.306-.022.574.206.597.515.023.307-.208.573-.513.598zm1.044-.352c-.306.022-.575-.206-.596-.515-.025-.305.202-.572.51-.596s.575.205.597.51c.027.31-.204.578-.512.6zm1.033-1.22c-.303.024-.57-.203-.597-.512-.02-.305.21-.574.514-.596.31-.025.576.207.6.512.024.307-.208.575-.516.597zm.278-2.574c-.307.023-.572-.205-.598-.512-.02-.308.207-.574.516-.6.31-.022.572.207.597.515.022.305-.205.573-.515.596zm.53-2.105l-1.038.073.002.007c.02.306-.205.575-.512.6-.31.022-.578-.208-.6-.515V38.5l-3.05.212c.145.09.252.238.265.422.023.306-.207.574-.51.598-.312.02-.582-.207-.605-.512-.013-.187.073-.35.206-.463l-.5.035-1.627.36c.057.08.102.17.11.274.02.31-.21.575-.515.598-.31.025-.573-.203-.598-.512-.005-.05.01-.098.017-.145l-.547.12c.188.078.328.25.346.466.022.307-.207.576-.516.598-.304.026-.574-.206-.6-.51-.01-.16.047-.306.146-.415l-.633.14c.037.067.062.142.07.224.024.306-.208.573-.515.6-.062.003-.118-.01-.175-.023-.088.082-.198.142-.33.15-.103.01-.197-.02-.283-.06l-.006-.99-.02-3.158 3.09-3.38 6.053-1.18 2.874 2.44v3.96zm0-5.27l-1.617-1.374 1.62-.315v1.69zm1.783 12.24l-.78-.04V31.22l.78-.165V45.32zm11.615-3.34c-.08.056-.168.098-.27.106-.31.02-.578-.21-.603-.515-.02-.306.21-.575.516-.598.132-.01.254.034.355.104l.002.904zm-1.027-2.077c.307-.02.577.207.602.514.023.306-.21.574-.517.598-.31.023-.573-.207-.598-.514-.02-.304.205-.572.513-.597zm-.745-.615c-.02-.31.208-.576.515-.598.305-.025.572.205.598.512.023.306-.207.574-.513.598s-.577-.207-.6-.512zm1.762-10.503l.002 1.818-1.47-1.532 1.468-.285zM44.27 30.85l2.154-.42-2.153 2.204V30.85zm0 3.214l3.88-3.97 4.09-.796 2.64 2.75.002 5.37-2.61.182c-.07.206-.255.363-.486.38-.233.02-.442-.11-.542-.31l-4.252.297c.008.03.02.056.024.087.02.306-.205.575-.512.6-.31.022-.578-.208-.6-.515-.003-.035.008-.065.01-.1l-1.643.116v-4.092zm4.764 6.1c.307-.023.577.206.6.514.02.306-.21.574-.515.6-.31.02-.576-.208-.6-.517-.024-.306.206-.573.514-.597zm-.767-1.68c-.025-.308.205-.576.513-.6.308-.024.574.208.6.513.022.308-.205.576-.513.598-.31.026-.578-.205-.6-.512zm-.3 2.137c.024.307-.208.574-.51.598-.31.024-.577-.205-.6-.512-.026-.31.204-.576.513-.598.307-.024.572.205.597.513zm-1.85.56c.306-.024.575.206.6.513.02.306-.21.574-.52.598-.307.024-.57-.204-.597-.51-.023-.31.208-.578.516-.6zm-.636-.486c-.307.024-.575-.205-.597-.513-.022-.305.205-.572.512-.596.31-.023.574.205.6.513.024.307-.205.574-.514.597zm-1.21-2.143c.094-.106.227-.18.38-.19.31-.022.576.206.598.515.025.306-.205.574-.514.6-.188.013-.353-.074-.463-.208v-.716zm0 2.96c.09-.084.205-.145.34-.155.308-.023.573.205.596.512.024.308-.204.574-.513.598-.163.014-.312-.05-.422-.152v-.802zm.522 3.002c-.222.018-.417-.1-.52-.276v-.547c.088-.157.24-.273.436-.288.306-.023.574.205.597.514.022.305-.206.57-.513.596zm.99-.925c-.06.027-.122.05-.19.055-.31.023-.58-.207-.6-.515-.023-.306.207-.575.513-.6.3-.02.56.2.593.498.06-.028.123-.05.192-.056.307-.023.578.208.6.515.02.305-.208.572-.512.598-.302.022-.564-.2-.595-.496zm2.464 2.026l-.834-.044c-.02-.025-.04-.045-.056-.07-.022.024-.053.04-.08.06l-.722-.038c-.094-.09-.16-.21-.17-.35-.024-.308.208-.575.513-.598.226-.018.43.104.53.29.093-.105.223-.176.372-.188.308-.022.575.206.598.515.013.165-.048.314-.152.423zm-.124-2.224c-.31.02-.574-.21-.6-.514-.023-.307.207-.576.516-.6.304-.023.574.207.6.514.02.307-.21.576-.516.6zm1.156 1.627c-.307.023-.574-.205-.596-.512-.025-.307.204-.576.51-.6.31-.023.575.207.6.514.02.307-.207.573-.514.597zm.37-2.625c-.308.025-.575-.205-.6-.512-.022-.308.208-.576.514-.6.31-.023.577.208.6.514.024.308-.204.574-.514.598zm.54-2.81c-.023-.308.203-.575.512-.6.307-.022.575.207.6.515.022.305-.208.573-.514.598-.308.023-.575-.207-.598-.513zm.73.91c.243-.018.455.123.55.33.093-.116.23-.197.392-.21.304-.023.573.207.597.514s-.205.575-.514.598c-.24.017-.452-.122-.546-.33-.094.117-.23.198-.393.21-.306.022-.57-.206-.596-.51-.02-.308.204-.577.51-.6zm-.47 2.088c-.023-.308.207-.575.515-.6.306-.022.577.21.6.515.022.307-.21.575-.515.598-.308.023-.574-.205-.6-.513zm1.5 2.8c-.303.022-.573-.207-.597-.514-.02-.307.206-.576.512-.6.307-.02.577.207.6.516.025.307-.205.574-.514.598zm.018-5.49c-.31.025-.575-.205-.598-.512-.023-.308.207-.574.512-.598.307-.025.574.205.6.512.023.31-.207.576-.514.598zm.474-1.736c-.023-.306.207-.573.512-.597.307-.023.578.207.6.512.022.306-.208.573-.514.598s-.575-.204-.598-.514zm.278 5.163c-.014-.18.064-.337.188-.45-.073-.085-.128-.188-.137-.31-.026-.307.203-.573.512-.6.308-.02.575.207.6.516.014.178-.064.336-.188.448.073.087.13.19.138.312.022.306-.207.573-.516.597-.306.023-.576-.206-.598-.513zm1.234 2.602l-.74-.04c-.09-.09-.153-.207-.164-.342-.023-.307.207-.576.512-.6.305-.023.578.207.602.514.015.19-.074.356-.21.467zm.594-1.25c-.305.022-.575-.208-.598-.515-.025-.31.21-.574.512-.598.165-.013.315.05.426.156v.793c-.09.09-.205.152-.34.163zm1.342 1.36l-.013-17.413.406-.098.378.094.013 17.457-.782-.04zm1.77-17.09l20.454 6.86-1.2.084c.06.08.104.172.11.278.026.31-.206.574-.51.6-.31.02-.575-.207-.6-.514-.01-.11.024-.21.073-.3l-4.443.31c-.018.272-.223.5-.507.52-.28.022-.52-.176-.575-.445l-2.904.202c.084.09.145.2.154.332.015.182-.066.343-.193.454.015 0 .025-.01.04-.01.31-.024.577.205.6.512.023.307-.207.574-.515.598-.306.024-.575-.205-.598-.513-.014-.18.066-.34.19-.45-.014 0-.024.01-.04.01-.3.02-.57-.205-.595-.514-.012-.135.033-.257.105-.36l-.494.036c-.04.248-.237.45-.498.472-.267.02-.493-.153-.567-.398l-1.89.13c.024.06.046.12.052.187.024.306-.207.573-.514.597-.31.023-.576-.205-.6-.512-.005-.068.006-.135.024-.197l-4.556.317-.002-8.284zm14.91 7.84c-.023-.307.206-.574.517-.596.307-.024.574.205.598.512.023.306-.21.574-.513.598-.31.023-.575-.205-.6-.513zm.15 1.5c.026.307-.204.576-.512.6-.307.024-.574-.207-.596-.513-.025-.308.204-.576.51-.6.307-.024.576.21.6.514zm-9.14 2.734c-.213.017-.397-.093-.504-.26-.273-.017-.5-.224-.52-.503-.023-.305.204-.573.513-.596.21-.017.396.09.503.257.272.02.5.226.52.505.025.307-.205.574-.513.6zm.204.73c.024.31-.207.576-.513.6-.308.024-.574-.206-.598-.513-.024-.307.205-.573.51-.597.31-.025.58.206.6.51zm-1.93-1.816c.026.306-.206.573-.51.597-.308.023-.577-.205-.6-.513-.012-.16.047-.308.148-.417-.055-.08-.097-.167-.104-.27-.025-.305.204-.574.514-.598.305-.022.574.207.597.514.013.162-.047.31-.147.418.054.08.096.167.103.27zm-3.43 1.612c-.31.023-.575-.207-.6-.513-.023-.308.206-.575.517-.6.308-.02.572.207.597.513.023.31-.21.576-.514.6zm.444.963c.02.306-.205.576-.513.6-.31.022-.575-.207-.6-.516-.023-.305.206-.574.515-.598.307-.022.573.208.598.513zm-.225-4.342c-.024-.308.208-.575.514-.6.307-.022.577.208.6.515.02.307-.21.574-.515.598-.31.023-.58-.205-.6-.512zm.84 1.253c.308-.022.577.207.6.515.022.306-.205.573-.513.6-.31.02-.574-.208-.598-.516-.026-.305.205-.574.51-.6zm.317-1.18c-.02-.31.208-.577.516-.6.306-.023.572.207.598.514.023.307-.207.574-.512.598-.31.024-.576-.205-.6-.512zm.463 3.294c.05-.004.094.01.14.017.075-.19.253-.337.475-.355.307-.023.576.206.597.513.023.307-.204.573-.51.598-.05.005-.098-.008-.145-.017-.076.193-.254.34-.474.355-.307.025-.575-.206-.598-.512-.025-.307.205-.575.515-.6zm1.47-3.135c-.024-.305.206-.572.514-.598.308-.023.574.208.597.514.024.308-.204.576-.51.6-.31.02-.576-.208-.6-.516zm-4.064.667c.08-.057.168-.1.272-.107.305-.025.574.205.598.512.025.307-.21.574-.516.598-.132.01-.253-.034-.354-.104v-.9zm.63 6.535c-.31.022-.574-.21-.6-.516-.023-.306.203-.573.515-.6.304-.02.573.208.598.517.023.306-.208.574-.512.598zm1.73-.098c-.305.024-.573-.204-.6-.512-.003-.045.01-.086.017-.13-.07.043-.15.074-.237.08-.308.024-.572-.206-.598-.513-.027-.31.205-.576.512-.598.31-.023.574.205.6.514.003.045-.01.086-.017.13.072-.044.15-.075.24-.082.304-.024.573.206.598.514.022.306-.207.574-.514.597zm1.475-1.23c-.293.022-.547-.19-.59-.478-.09.145-.238.254-.423.268-.31.024-.575-.205-.6-.512-.022-.307.208-.576.514-.598.298-.023.55.19.592.478.092-.146.24-.255.426-.27.304-.024.572.206.595.513.02.306-.206.575-.512.597zm1.373 2.106c-.306.024-.574-.205-.6-.513-.023-.31.207-.574.515-.597.307-.024.575.204.6.51.02.31-.207.578-.515.6zm.217-2.055c-.306.024-.575-.206-.598-.514-.023-.305.21-.573.515-.597.307-.023.575.206.598.514.02.308-.21.576-.515.598zm1.083.312c-.31.024-.577-.207-.6-.514-.023-.307.204-.574.51-.6.31-.02.58.207.602.516.02.307-.207.574-.512.598zm-.056-6.428c-.025-.306.205-.574.516-.598.306-.023.572.206.593.512.03.31-.204.576-.508.6-.31.023-.577-.207-.6-.514zm1.472 4.12c-.31.022-.578-.207-.6-.515-.026-.307.206-.572.512-.597.308-.024.577.205.6.513.022.307-.206.577-.513.598zm.527-2.063c-.073.044-.154.077-.245.084-.306.024-.574-.204-.6-.513-.02-.306.21-.573.516-.597.017 0 .032.006.05.006.072-.046.152-.08.243-.087.31-.02.576.207.6.515.024.306-.21.572-.514.597-.018 0-.032-.006-.05-.006zm.65 3.658c-.305.024-.573-.206-.596-.513-.026-.307.203-.574.512-.598.31-.023.576.206.6.514.024.306-.206.575-.515.598zm.478-1.467c-.307.023-.574-.205-.596-.514-.026-.307.204-.572.51-.596.308-.025.575.205.6.512.022.307-.206.577-.515.6zm.953-1.746c-.003-.03.008-.06.01-.09-.144-.09-.25-.238-.264-.42-.023-.308.203-.574.514-.6.307-.023.576.206.6.514.002.03-.01.06-.012.09.144.09.25.238.264.42.022.307-.207.575-.516.6-.307.02-.57-.207-.596-.514zm.927 2.366c-.308.022-.574-.206-.6-.515-.023-.305.204-.574.515-.6.307-.02.574.21.596.516.025.308-.204.576-.51.6zm.837-4.67c-.308.022-.577-.208-.6-.515-.023-.308.207-.574.515-.596.304-.026.575.202.597.51.022.308-.205.576-.512.6zm1.176 1.595c-.304.023-.572-.205-.596-.512-.023-.308.207-.574.51-.6.312-.022.578.207.604.514.023.307-.208.575-.518.598zm1.643 1.26l-.76.415c-.182-.08-.32-.248-.338-.46-.02-.307.207-.575.516-.598.307-.023.574.207.6.513.003.046-.01.088-.017.13zm.717-2.108c-.307.023-.574-.207-.6-.514-.023-.307.207-.574.516-.6.305-.022.574.21.596.515.024.308-.206.576-.513.6zm.8 1.284c0-.007-.006-.014-.007-.022-.023-.306.206-.574.514-.6.15-.01.29.04.397.13l-.903.493zm1.724-2.482c-.217.016-.41-.098-.517-.273-.078.188-.25.328-.467.346-.31.022-.577-.206-.6-.512-.023-.307.207-.575.514-.6.22-.016.412.1.517.273.078-.187.252-.327.468-.344.31-.023.572.205.598.513.022.307-.21.573-.512.598zm.59 1.223c-.066-.084-.118-.182-.127-.298-.023-.307.207-.574.514-.598.26-.02.48.146.56.38l-.946.517zm1.61-.876c-.087-.09-.15-.206-.162-.343-.022-.305.207-.572.516-.596.276-.02.515.172.574.436l-.927.504z"/><path d="M81.435 31.268L70.083 20.634c-.044-.04-.095-.073-.15-.097l-8.4-3.492c-.008-.003-.017-.002-.024-.005-.024-.008-.046-.008-.07-.013-.058-.012-.114-.015-.172-.006-.014.004-.027-.004-.04 0l-4.175.983v3.278c0 .707-.453 1.096-1.012 1.096s-1.01-.39-1.01-1.095v-2.8l-3.887.916.002-2.477.13.035c.046.012.09.018.134.018.19 0 .37-.11.453-.29.103-.222.03-.485-.172-.623l-7.287-4.976c-.016-.01-.035-.008-.05-.016-.02-.01-.03-.03-.05-.037-.034-.013-.068-.005-.104-.01-.038-.007-.07-.016-.107-.014-.06.004-.11.022-.166.047-.024.01-.052.006-.074.02-.007.006-.01.015-.017.02-.008.007-.02.006-.027.013l-7.228 5.748c-.19.15-.244.418-.127.632.09.164.26.26.438.26.054 0 .108-.01.162-.027l.646-.222v1.735l-1.35-.317c-.02-.006-.043.006-.064.003-.027-.002-.05-.02-.076-.017-.025 0-.043.02-.067.023-.047.01-.087.022-.13.045s-.078.05-.114.084c-.02.018-.045.023-.06.044-.015.018-.013.04-.024.06-.012.02-.033.032-.042.054l-1.733 4.214-13.395 3.157v2.375c0 .706-.452 1.095-1.012 1.095-.558 0-1.012-.39-1.012-1.095V27.06l-1.16.273c-.115.026-.217.094-.287.188l-3.987 5.38c-.124.166-.132.392-.02.566.092.146.252.23.42.23.034 0 .067-.002.1-.01l45.326-9.236 21.916 7.653c.055.02.11.028.165.028.17 0 .335-.087.428-.24.123-.2.087-.46-.085-.622zm-48.483-2.562l3.348-8.14.082.15L39.95 27.3l-6.998 1.406zm11.16-6.263l-2.096-2.118c-.066-.067-.15-.114-.243-.136l-3.07-.71v-2.312l5.41-1.86v7.135zm6.03-2.806l-2.433.568c-.085.02-.162.062-.226.12l-2.372 2.19V15.27l5.033 1.418-.003 2.95z"/><path d="M56.02 22.015c.354 0 .64-.286.64-.64l-.094-5.98-.09-5.725c0-.353-.103-.64-.455-.64-.353 0-.455.287-.455.64l-.09 5.758-.094 5.946c.002.355.287.64.64.64zM57.124 13.658c.01-.007 1.266-.78 2.342-.77.232.004.44.044.616.12.315.132.33.31.352.557.02.246.05.617.562.732.035.008.072.013.11.013.276.003.558-.194.885-.42.418-.286.89-.614 1.43-.607.245.004.48.073.73.218.307.18.442.202.515.203.088 0 .145-.03.177-.056.056-.047.093-.117.093-.193.006-.412-1.227-1.393-2.358-1.404-.372-.004-.718.086-1.025.27-.15.09-.238.106-.287.106-.187-.002-.276-.434-.374-.89-.19-.905-.48-2.272-2.046-2.29-.51-.006-1.108.13-1.826.412-.058.022-.1.07-.117.13-.015.06-.007.124.03.175.003.007.465.645.37 1.575-.1.974-.462 1.866-.464 1.874-.034.082-.01.174.057.23.064.056.157.062.23.016zM19.634 29.75c.355 0 .64-.286.64-.64l-.105-6.03-.08-4.448c0-.354-.1-.64-.455-.64-.353 0-.455.286-.455.64l-.078 4.446-.105 6.032c-.002.354.284.64.637.64zM20.518 22.667c.062.04.14.03.192-.027.01-.008 1.503-.957 2.38-1.145.192-.04.367-.04.522-.002.27.066.31.227.355.45.045.224.116.563.55.577.03 0 .063-.002.093-.01.23-.047.43-.282.674-.552.3-.343.643-.73 1.086-.825.202-.042.408-.02.625.066.275.107.387.103.446.09.07-.015.113-.053.14-.084.04-.052.06-.125.05-.194-.048-.38-1.178-1.064-2.104-.87-.304.067-.576.215-.805.443-.11.108-.18.14-.22.15-.152.032-.28-.352-.417-.756-.27-.806-.68-2.018-1.96-1.745-.42.087-.89.325-1.442.718-.04.03-.07.084-.077.143s.01.113.048.154c.003.006.08.515.122 1.393.04.922-.328 1.814-.328 1.824-.015.08.01.163.074.2z"/></g></svg>