<svg xmlns="http://www.w3.org/2000/svg" width="143.348" height="154.021" viewBox="0 0 143.348 154.021"><path fill="none" d="M98.68 24.834c24.08 9.81 41.167 34.008 41.167 62.253 0 6.754-.985 13.272-2.8 19.424 2.77-7.732 4.3-16.107 4.3-24.856 0-30.008-18.035-55.658-43.29-65.593.797 2.86 1 5.845.623 8.774z"/><path fill="none" d="M137.848 87.087c0-27.253-16.38-50.62-39.52-60.237-.717 3.197-2.137 6.266-4.29 8.94 23.98 8.045 41.31 30.712 41.31 57.363 0 9.626-2.243 18.73-6.216 26.83 5.53-9.654 8.716-20.896 8.716-32.896z"/><path fill="#EF483E" d="M84.864 153.224c33.04-5.137 58.483-35.27 58.483-71.57 0-31.465-19.31-58.262-46.12-68.034-1.073-2.61-2.663-5.057-4.78-7.174C88.29 2.29 82.763 0 76.884 0S65.477 2.29 61.32 6.446c-4.157 4.157-6.447 9.685-6.447 15.563s2.29 11.405 6.447 15.56c4.157 4.16 9.685 6.448 15.564 6.448 5.88 0 11.406-2.29 15.563-6.446.052-.052.094-.108.146-.16 23.607 7.532 40.755 29.668 40.755 55.74 0 31.41-24.586 57.15-55.414 58.77-1.023.05-2.05.082-3.086.082-.024 0-.045.013-.068.014-26.787-.03-49.698-17.384-58.767-41.75 1.754-.26 4.012-1.776 5.927-4.03 2.546-2.997 4.11-6.893 2.175-8.54-.43-.365-.992-.56-1.627-.56-1.81 0-4.34 1.606-6.447 4.09-.8.946-1.46 1.94-1.97 2.917-.39-1.478-.737-2.974-1.026-4.49.034 0 .06.01.094.01 1.776 0 4.25-1.236 6.455-3.226 2.92-2.635 4.987-6.29 3.287-8.18-.33-.363-.944-.797-2.012-.797-1.777 0-4.252 1.237-6.46 3.23-.886.8-1.646 1.666-2.27 2.532-.133-1.455-.21-2.927-.247-4.408.26.06.556.094.893.094 1.738 0 4.08-.92 6.268-2.467 3.212-2.27 5.697-5.654 4.232-7.73-.342-.484-1.04-1.06-2.428-1.06-1.74 0-4.083.922-6.27 2.47-.982.695-1.844 1.47-2.568 2.26.11-1.612.28-3.21.505-4.795.418.11.918.178 1.522.178 1.576 0 3.48-.453 5.358-1.276 3.6-1.577 6.715-4.392 5.7-6.72-.27-.615-1.076-1.646-3.446-1.646-1.576 0-3.48.454-5.358 1.277-.88.387-1.703.835-2.443 1.32.305-1.222.648-2.43 1.02-3.627.788.318 1.788.496 2.987.496 1.188 0 2.504-.174 3.806-.5 3.814-.957 7.354-3.213 6.738-5.678-.37-1.48-2.125-2.327-4.813-2.327-1.187 0-2.503.172-3.805.5-.853.213-1.66.492-2.414.81.55-1.26 1.14-2.5 1.766-3.72.825.776 2.273 1.212 4.215 1.212 1.15 0 2.42-.158 3.673-.458 3.825-.916 7.39-3.135 6.8-5.604-.36-1.513-2.157-2.38-4.925-2.38-1.15 0-2.42.157-3.672.457-.958.23-1.85.532-2.663.88.69-1.056 1.415-2.09 2.167-3.103.365.193.79.3 1.26.3 1.817 0 4.297-1.464 6.473-3.82.945-1.025 1.724-2.12 2.294-3.188 1.708-1.38 4.426-3.188 5.753-4.07.46-.305.585-.926.28-1.386-.306-.46-.926-.585-1.387-.28-1.25.832-2.51 1.682-3.654 2.494 0-.566-.112-1.006-.277-1.34 1.937-1.594 3.974-3.088 6.116-4.463.464-.3.6-.917.3-1.382-.298-.466-.917-.6-1.38-.302-2.347 1.506-4.576 3.147-6.685 4.908-.185-.036-.377-.06-.58-.06-.207 0-.425.024-.65.062 1.04-1.11 2.113-2.185 3.223-3.21.406-.374.43-1.007.057-1.412-.374-.405-1.006-.43-1.413-.058-2.56 2.362-4.953 4.96-7.115 7.72-.07.088-.108.187-.144.286-.143.146-.288.283-.428.436-2.082 2.257-3.58 5.08-3.252 7.03-.865 1.142-1.69 2.31-2.48 3.504-.104-.742-.25-1.502-.47-2.27-.907-3.2-2.943-6.644-5.27-6.644-.21 0-.415.028-.613.085-2.443.693-2.633 4.888-1.56 8.672.773 2.72 2.365 5.61 4.253 6.413-.62 1.206-1.205 2.432-1.752 3.675-.11-.804-.28-1.634-.526-2.47-.938-3.172-3.003-6.586-5.318-6.586-.218 0-.433.03-.638.092-2.435.723-2.58 4.92-1.463 8.69.938 3.17 3 6.58 5.317 6.58.07 0 .134-.022.202-.03l.015.04c-.42 1.283-.798 2.583-1.14 3.895-.227-.67-.51-1.36-.846-2.048C9.86 64.732 7.49 61.9 5.296 61.9c-.363 0-.705.077-1.015.23-2.282 1.116-1.726 5.278.003 8.81 1.372 2.807 3.74 5.64 5.935 5.64.147 0 .29-.022.428-.048-.206 1.347-.375 2.704-.5 4.072-.275-.43-.567-.86-.896-1.284-2.06-2.664-4.57-4.386-6.395-4.386-.576 0-1.097.168-1.506.485-2.01 1.555-.628 5.518 1.776 8.628 2.056 2.663 4.564 4.384 6.392 4.384.123 0 .242-.012.36-.026.02 1.084.064 2.16.135 3.232-.31-.375-.636-.748-.994-1.112-2.195-2.232-4.677-3.62-6.48-3.62-.938 0-1.513.373-1.827.685-1.812 1.782.03 5.553 2.784 8.357 2.19 2.232 4.672 3.62 6.476 3.62.398 0 .718-.076.992-.177.194 1.072.414 2.134.657 3.188-.303-.273-.614-.544-.945-.802-2.225-1.73-4.606-2.765-6.37-2.765-1.25 0-1.916.52-2.25.954-1.562 2.006.763 5.5 3.865 7.916 2.222 1.73 4.602 2.764 6.368 2.764.698 0 1.2-.167 1.577-.385 9.176 25.517 33.045 43.756 60.978 43.756 2.342 0 4.652-.135 6.93-.385.34-.035.675-.09 1.014-.132.694-.082 1.39-.164 2.074-.274zm-77.71-46.917c-3.08-2.396-3.86-4.668-3.516-5.11.085-.112.343-.18.67-.18 1.295 0 3.314.92 5.142 2.342 1.336 1.04 2.46 2.27 3.085 3.37.55.974.56 1.572.43 1.74-.086.11-.344.18-.673.18-1.295-.002-3.313-.92-5.14-2.343zm8.08.146c.386-1.206 1.236-2.64 2.332-3.93 1.884-2.222 3.902-3.384 4.92-3.384.11 0 .255.014.333.08.426.363.123 2.748-2.405 5.722-1.883 2.218-3.9 3.38-4.918 3.38-.108 0-.253-.016-.333-.083-.16-.136-.272-.722.07-1.787zM2.12 89.02c.095-.095.307-.108.424-.108 1.002 0 3.01.945 5.05 3.02 2.025 2.063 2.937 4.085 2.927 5.09 0 .208-.043.368-.118.44-.096.096-.308.11-.426.11-1.004 0-3.012-.946-5.05-3.022-2.733-2.782-3.208-5.137-2.806-5.53zm18.747.444c.256 0 .448.05.526.137.375.417-.242 2.74-3.14 5.355-2.076 1.872-4.065 2.71-5.116 2.71-.256 0-.447-.05-.527-.14-.14-.153-.174-.75.305-1.76.543-1.145 1.576-2.452 2.833-3.59 2.077-1.872 4.067-2.71 5.12-2.71zM9.802 86.37c-.07.055-.192.066-.282.066-.982 0-3-1.264-4.81-3.606-2.386-3.087-2.58-5.48-2.135-5.825.07-.055.192-.066.28-.066.98 0 3 1.264 4.813 3.607 1.766 2.287 2.432 4.402 2.303 5.4-.024.205-.085.36-.168.423zm11.845-6.504c.323.457-.565 2.69-3.752 4.944-1.806 1.276-3.813 2.1-5.113 2.1-.473 0-.72-.11-.794-.214-.12-.17-.084-.767.51-1.713.676-1.07 1.856-2.248 3.24-3.23 1.806-1.276 3.813-2.102 5.114-2.102.475.002.722.114.795.216zM5.162 63.93c.013-.007.053-.026.135-.026.778 0 2.632 1.437 4.14 4.52 1.27 2.597 1.497 4.803 1.17 5.753-.068.197-.16.335-.252.38-.013.008-.053.027-.136.027-.78 0-2.633-1.436-4.14-4.517-1.715-3.506-1.422-5.89-.918-6.138zm8.114 9.812c.877-.914 2.27-1.83 3.823-2.51 1.607-.705 3.267-1.11 4.554-1.11 1.04 0 1.534.27 1.612.45.224.51-1.095 2.52-4.67 4.085-1.607.704-3.268 1.108-4.555 1.108-1.037 0-1.53-.268-1.61-.45-.084-.19.072-.766.846-1.573zm-3.49-21.416c.673 0 2.385 1.722 3.4 5.153.48 1.623.68 3.276.546 4.536-.118 1.11-.46 1.603-.66 1.662-.583.184-2.417-1.58-3.47-5.14-1.107-3.74-.42-6.043.184-6.212zm16.678 9.57c.135.543-1.5 2.304-5.285 3.253-1.146.286-2.293.438-3.32.438-1.82 0-2.79-.485-2.87-.815-.052-.203.198-.746 1.095-1.412 1.017-.754 2.542-1.424 4.187-1.837 1.145-.287 2.292-.438 3.32-.438 1.82 0 2.79.485 2.872.812zm-11.16-19.36c.672 0 2.366 1.734 3.346 5.19.463 1.63.644 3.284.496 4.542-.13 1.11-.477 1.598-.68 1.655-.02.006-.042.01-.066.01-.672 0-2.365-1.733-3.346-5.187-1.065-3.754-.355-6.05.25-6.21zm16.574 9.755c.13.544-1.524 2.285-5.32 3.193-1.102.264-2.21.403-3.207.403-2.077 0-2.914-.58-2.978-.848-.023-.098.025-.256.134-.433.525-.856 2.372-2.085 5.185-2.758 1.104-.264 2.212-.403 3.208-.403 2.08 0 2.917.582 2.98.847zm-3.633-12.02c2.013-2.184 4.003-3.178 5-3.178.105 0 .293.012.384.096.153.142.242.733-.144 1.784-.437 1.19-1.345 2.586-2.493 3.832-2.015 2.184-4.005 3.178-5.002 3.178-.103 0-.29-.013-.382-.097-.41-.38-.01-2.746 2.637-5.614zm113.103 41.383c0 8.75-1.53 17.124-4.3 24.857 1.814-6.15 2.8-12.67 2.8-19.424 0-28.245-17.086-52.442-41.167-62.253.377-2.93.175-5.914-.623-8.773 25.256 9.935 43.29 35.586 43.29 65.593zm-75.663-47.07c-.44-.337-1.067-.25-1.4.188-.383.503-.795.993-1.226 1.46-.04.042-.058.096-.088.143-.077-.074-.16-.14-.237-.215-.207-.207-.39-.432-.586-.646.092.027.186.042.28.042.318 0 .63-.15.824-.433.396-.574.77-1.174 1.105-1.78.267-.484.093-1.093-.39-1.36-.483-.27-1.093-.094-1.36.39-.306.55-.644 1.095-1.003 1.617-.158.23-.206.5-.158.755-2.962-3.577-4.577-8.03-4.577-12.732 0-5.174 1.966-10.038 5.52-13.773.046.14.116.274.227.387.444.452.872.93 1.27 1.42.2.242.487.368.777.368.222 0 .446-.073.63-.225.43-.35.493-.98.145-1.407-.438-.538-.908-1.062-1.396-1.56-.104-.104-.226-.178-.355-.228C67.345 3.775 71.973 2 76.884 2c5.16 0 10.012 1.955 13.743 5.49-.097.05-.192.104-.272.185-.487.496-.957 1.02-1.396 1.56-.35.428-.285 1.058.144 1.406.186.152.41.226.63.226.29 0 .58-.126.777-.368.398-.49.826-.968 1.27-1.42.066-.067.104-.147.147-.227.237.272.474.543.693.824-.382-.097-.8.036-1.05.373-.414.56-.805 1.146-1.162 1.74-.284.475-.13 1.09.342 1.373.162.097.34.143.514.143.34 0 .67-.173.858-.485.324-.54.68-1.072 1.057-1.583.124-.17.17-.363.176-.56 4.897 7.114 4.67 16.702-.675 23.588-.314-.47-.62-.948-.89-1.44-.27-.48-.878-.657-1.36-.388-.483.268-.658.876-.39 1.36.337.606.71 1.206 1.105 1.78.06.09.15.142.23.203-.12.125-.223.26-.345.38-.024.025-.05.045-.074.068-.287-.33-.58-.656-.84-1-.335-.44-.963-.527-1.402-.19-.44.335-.524.963-.19 1.402.295.387.623.754.945 1.123-3.553 2.887-7.95 4.46-12.588 4.46-4.584 0-8.927-1.542-12.458-4.362.032-.027.07-.04.1-.07.474-.513.928-1.052 1.348-1.604.337-.44.253-1.067-.187-1.4zm28.353 1.208c2.153-2.675 3.573-5.743 4.29-8.94 23.14 9.616 39.52 32.984 39.52 60.237 0 12-3.187 23.242-8.716 32.897 3.973-8.1 6.216-17.205 6.216-26.83 0-26.652-17.33-49.32-41.31-57.363z"/><path fill="#FDF7E7" d="M64.527 37.587c-.03.03-.068.044-.1.07 3.53 2.82 7.872 4.362 12.457 4.362 4.64 0 9.035-1.573 12.587-4.46-.322-.368-.65-.735-.943-1.122-.334-.44-.25-1.067.19-1.4.438-.34 1.066-.25 1.4.187.262.345.554.672.84 1 .024-.022.05-.042.075-.066.122-.123.226-.257.344-.382-.08-.062-.168-.114-.23-.202-.395-.575-.768-1.175-1.104-1.782-.268-.483-.094-1.092.39-1.36.482-.27 1.09-.093 1.36.39.27.49.576.97.89 1.44 5.347-6.887 5.573-16.475.676-23.588-.006.195-.052.39-.177.56-.376.51-.73 1.042-1.056 1.582-.188.312-.52.485-.858.485-.175 0-.353-.046-.514-.143-.473-.284-.626-.898-.342-1.372.357-.595.75-1.18 1.163-1.74.25-.338.667-.47 1.05-.374-.22-.28-.457-.552-.694-.823-.044.08-.082.16-.148.228-.444.452-.872.93-1.27 1.42-.2.242-.487.368-.777.368-.222 0-.446-.073-.63-.225-.43-.348-.493-.978-.145-1.406.438-.538.908-1.062 1.396-1.56.08-.08.175-.135.272-.184C86.898 3.955 82.046 2 76.885 2c-4.91 0-9.54 1.775-13.192 4.992.13.05.25.123.355.23.487.495.957 1.02 1.396 1.558.35.43.285 1.06-.144 1.407-.186.15-.41.225-.63.225-.29 0-.58-.126-.777-.368-.4-.49-.827-.968-1.27-1.42-.11-.112-.18-.246-.228-.387-3.553 3.735-5.52 8.6-5.52 13.773 0 4.703 1.615 9.155 4.576 12.732-.047-.254 0-.525.16-.755.358-.522.696-1.066 1.002-1.618.268-.483.877-.66 1.36-.39.482.268.657.876.39 1.36-.338.606-.71 1.206-1.106 1.78-.194.282-.506.434-.824.434-.094 0-.188-.015-.28-.042.196.214.378.438.585.646.076.076.16.14.237.215.03-.047.048-.1.087-.144.432-.467.844-.957 1.226-1.46.334-.437.962-.524 1.4-.187.44.334.525.962.19 1.4-.422.553-.876 1.092-1.35 1.604zm4.395-7.08c-.247.65-.53 1.296-.84 1.922-.173.352-.527.556-.896.556-.15 0-.3-.033-.443-.104-.495-.245-.697-.846-.452-1.34.283-.57.54-1.157.763-1.745.196-.517.775-.78 1.29-.58.516.197.776.775.58 1.29zM65.08 21.37c-.035-.552.383-1.027.934-1.063.562-.02 1.027.383 1.062.935.03.47.045.942.045 1.414 0 .226-.002.453-.01.68-.016.542-.46.97-.998.97-.01 0-.02 0-.032-.002-.552-.017-.985-.48-.968-1.03.006-.205.01-.41.01-.615 0-.432-.015-.86-.042-1.29zm21.378-2.36c-.13.62-.23 1.254-.3 1.882-.056.51-.49.89-.992.89-.037 0-.074-.002-.11-.006-.55-.06-.946-.555-.885-1.104.078-.69.19-1.387.33-2.068.114-.54.64-.89 1.184-.774.54.11.887.64.774 1.18zm-.4 10.662c.515-.197 1.094.063 1.29.58.224.587.48 1.174.762 1.744.245.494.042 1.095-.452 1.34-.143.07-.294.104-.443.104-.37 0-.723-.204-.897-.557-.31-.626-.593-1.272-.84-1.92-.195-.517.064-1.095.58-1.29zm-.706-1.915c-.477 0-.9-.342-.984-.827-.12-.687-.21-1.386-.264-2.08-.043-.55.368-1.03.92-1.074.54-.03 1.03.368 1.074.92.05.63.13 1.265.24 1.89.095.543-.27 1.06-.813 1.157-.058.01-.116.014-.173.014zM89.63 30.6c-.104.034-.208.05-.31.05-.422 0-.814-.268-.952-.69-.215-.658-.4-1.338-.554-2.02-.12-.538.218-1.072.757-1.193.537-.124 1.075.216 1.195.757.14.62.31 1.237.504 1.836.17.524-.115 1.09-.64 1.26zm-.34-6.872c.018.552-.416 1.014-.968 1.03h-.032c-.538 0-.982-.426-1-.968-.006-.227-.01-.454-.01-.682 0-.47.016-.94.046-1.412.036-.55.508-.94 1.062-.935.55.036.97.512.934 1.063-.027.43-.04.858-.04 1.287-.002.208 0 .412.008.618zm-1.303-6.163c.174-.672.383-1.345.62-2 .19-.52.763-.787 1.282-.598.518.188.786.762.598 1.28-.216.597-.407 1.208-.565 1.82-.117.45-.522.748-.967.748-.083 0-.167-.01-.25-.032-.537-.137-.858-.683-.72-1.218zm.414-3.904c-.296.555-.57 1.132-.816 1.718-.16.384-.532.614-.923.614-.127 0-.258-.024-.384-.077-.51-.213-.75-.8-.537-1.31.27-.644.572-1.28.9-1.892.26-.486.867-.67 1.354-.407.486.262.67.868.407 1.355zM70.034 26.477c-.085.485-.507.827-.984.827-.058 0-.116-.005-.175-.015-.544-.096-.908-.614-.812-1.158.11-.624.19-1.26.24-1.89.042-.552.533-.958 1.074-.92.55.044.962.525.92 1.076-.055.694-.143 1.393-.264 2.08zm-.132-8.328c.143.682.254 1.378.33 2.068.062.55-.334 1.044-.883 1.104-.037.004-.074.006-.11.006-.504 0-.937-.38-.994-.89-.07-.628-.17-1.26-.3-1.88-.112-.542.235-1.07.776-1.184.54-.113 1.068.236 1.18.776zm-3.492-6.295c.485-.264 1.092-.08 1.354.407.328.61.63 1.248.9 1.893.214.51-.027 1.096-.536 1.31-.126.052-.257.076-.385.076-.39 0-.762-.23-.922-.615-.245-.586-.52-1.163-.817-1.717-.26-.488-.08-1.094.408-1.355zm-3.273.996c-.34 0-.67-.174-.858-.486-.324-.54-.68-1.072-1.057-1.583-.328-.442-.234-1.07.21-1.397.445-.328 1.07-.232 1.398.21.415.562.806 1.147 1.163 1.742.285.474.132 1.088-.34 1.372-.162.096-.34.142-.515.142zm.78 2.945c-.19-.52.08-1.093.598-1.28.518-.19 1.092.078 1.28.597.24.655.448 1.328.622 2 .14.534-.182 1.08-.717 1.22-.084.02-.168.03-.25.03-.446 0-.852-.298-.968-.748-.16-.612-.35-1.223-.566-1.82zm2.118 13.71c-.138.423-.53.69-.95.69-.104 0-.208-.016-.312-.05-.524-.17-.81-.735-.64-1.26.197-.6.366-1.218.505-1.837.12-.54.66-.875 1.194-.757.538.122.877.656.756 1.195-.152.682-.338 1.362-.553 2.02z"/><path fill="#EF483E" d="M86.318 32.883c.174.353.528.557.897.557.15 0 .3-.033.443-.104.495-.245.697-.846.452-1.34-.282-.57-.538-1.157-.762-1.745-.196-.515-.775-.775-1.29-.578-.516.196-.775.774-.58 1.29.248.648.53 1.295.84 1.92zM85.683 17.828c-.543-.114-1.07.234-1.183.774-.142.682-.253 1.378-.33 2.068-.06.55.335 1.044.884 1.104.037.004.074.006.11.006.504 0 .937-.38.994-.89.07-.628.17-1.26.3-1.88.113-.54-.234-1.07-.775-1.182zM86.338 26.584c-.11-.624-.19-1.26-.24-1.89-.042-.55-.535-.95-1.074-.92-.55.044-.962.525-.92 1.076.056.693.144 1.393.265 2.08.084.484.506.826.983.826.057 0 .115-.005.174-.015.543-.094.907-.612.81-1.156zM87.994 12.307c-.487-.263-1.093-.08-1.354.407-.328.61-.63 1.248-.9 1.893-.214.51.027 1.096.536 1.31.126.052.257.076.385.076.392 0 .764-.23.924-.614.245-.587.52-1.164.817-1.718.263-.488.08-1.094-.406-1.355zM89.766 27.503c-.12-.54-.66-.88-1.194-.757-.54.12-.878.655-.757 1.194.153.68.34 1.36.554 2.02.137.422.528.69.95.69.103 0 .207-.017.31-.05.526-.172.813-.736.64-1.262-.196-.598-.365-1.216-.504-1.835zM89.32 21.823c.036-.55-.382-1.026-.933-1.062-.554-.004-1.026.385-1.062.936-.03.47-.045.942-.045 1.412 0 .228.003.455.01.682.017.542.46.97 1 .97.01 0 .02 0 .03-.002.553-.017.986-.48.97-1.03-.007-.205-.01-.41-.01-.617 0-.428.014-.857.04-1.287zM88.955 18.816c.445 0 .85-.3.967-.75.16-.61.35-1.222.565-1.817.188-.52-.08-1.094-.6-1.282-.52-.19-1.092.08-1.28.598-.238.655-.447 1.328-.62 2-.14.534.18 1.08.716 1.22.085.02.17.03.252.03zM69.378 23.32c-.542-.038-1.032.368-1.075.92-.05.63-.13 1.266-.24 1.89-.095.544.27 1.062.813 1.158.06.01.117.015.174.015.477 0 .9-.342.984-.827.12-.687.21-1.386.264-2.08.042-.55-.37-1.032-.92-1.075zM66.817 14.924c.16.384.532.614.923.614.128 0 .26-.024.385-.077.51-.212.75-.798.537-1.308-.27-.645-.573-1.28-.9-1.893-.263-.488-.87-.672-1.355-.408-.487.262-.67.867-.408 1.354.297.555.572 1.132.817 1.718zM68.343 29.218c-.515-.2-1.094.062-1.29.58-.224.587-.48 1.174-.762 1.744-.244.494-.04 1.095.453 1.34.143.07.294.104.443.104.37 0 .723-.204.897-.557.31-.627.593-1.273.84-1.922.196-.516-.064-1.094-.58-1.29zM67.943 18.557c.13.62.23 1.253.3 1.88.056.512.49.89.992.89.037 0 .074 0 .11-.005.55-.06.946-.555.885-1.104-.077-.69-.188-1.387-.33-2.068-.113-.54-.642-.89-1.183-.774-.54.11-.886.64-.774 1.18zM66.08 24.304h.032c.538 0 .982-.426 1-.968.006-.227.01-.454.01-.68 0-.472-.016-.943-.046-1.414-.035-.552-.5-.956-1.062-.935-.55.035-.97.51-.934 1.062.027.43.04.857.04 1.288 0 .206-.002.41-.008.615-.018.552.416 1.014.968 1.03zM65.446 18.362c.083 0 .167-.01.25-.032.536-.14.856-.685.718-1.22-.174-.67-.383-1.344-.62-2-.19-.518-.764-.787-1.282-.597-.52.188-.787.762-.6 1.28.217.597.408 1.208.566 1.82.118.45.523.75.968.75zM65.83 26.292c-.536-.118-1.074.218-1.194.757-.14.618-.31 1.236-.504 1.835-.17.525.115 1.09.64 1.26.104.035.208.05.31.05.422 0 .814-.267.952-.688.215-.66.4-1.34.554-2.02.12-.54-.22-1.074-.758-1.195zM63.992 11.334c-.357-.595-.75-1.18-1.163-1.74-.33-.444-.955-.54-1.4-.212-.443.328-.537.955-.21 1.398.378.51.733 1.043 1.058 1.583.188.312.52.485.858.485.175 0 .353-.046.514-.143.473-.283.626-.897.342-1.37z"/><path fill="#FDF7E7" d="M25.61 45.885c.09.084.278.097.382.097.997 0 2.987-.994 5.002-3.178 1.148-1.246 2.057-2.643 2.493-3.832.385-1.05.296-1.643.143-1.784-.09-.084-.28-.096-.383-.096-.998 0-2.988.994-5 3.18-2.648 2.867-3.05 5.234-2.638 5.613zM18.4 53.933c.024 0 .045-.003.066-.01.203-.057.55-.544.68-1.654.147-1.26-.033-2.914-.496-4.544-.98-3.455-2.674-5.19-3.347-5.19-.604.162-1.314 2.457-.248 6.212.98 3.452 2.674 5.185 3.345 5.185zM20.507 54.606c-.108.177-.157.335-.134.433.063.266.9.847 2.98.847.995 0 2.104-.14 3.206-.403 3.795-.908 5.45-2.65 5.32-3.192-.064-.265-.902-.846-2.98-.846-.997 0-2.105.14-3.208.403-2.813.67-4.66 1.9-5.185 2.756zM13.07 63.68c.203-.06.544-.552.662-1.663.133-1.26-.066-2.913-.546-4.537-1.015-3.432-2.727-5.153-3.4-5.153-.605.17-1.29 2.472-.183 6.214 1.052 3.56 2.886 5.322 3.468 5.14zM16.086 63.36c-.897.667-1.147 1.21-1.096 1.413.082.33 1.05.815 2.87.815 1.028 0 2.175-.152 3.32-.44 3.786-.948 5.42-2.71 5.285-3.25-.082-.328-1.052-.813-2.873-.813-1.026 0-2.174.15-3.32.438-1.644.414-3.17 1.083-4.186 1.838zM10.22 74.583c.082 0 .122-.02.135-.026.093-.046.184-.184.252-.38.327-.95.1-3.157-1.17-5.753-1.508-3.084-3.362-4.52-4.14-4.52-.083 0-.122.02-.135.024-.503.247-.796 2.632.92 6.138 1.505 3.08 3.36 4.517 4.137 4.517zM12.43 75.316c.08.182.573.45 1.61.45 1.288 0 2.95-.405 4.557-1.11 3.574-1.564 4.893-3.573 4.67-4.085-.08-.18-.574-.447-1.613-.447-1.287 0-2.947.404-4.555 1.11-1.554.68-2.947 1.595-3.824 2.51-.774.806-.93 1.382-.846 1.573zM7.67 80.547c-1.813-2.344-3.833-3.608-4.813-3.608-.09 0-.21.01-.28.065-.445.344-.252 2.738 2.134 5.825 1.81 2.343 3.83 3.606 4.81 3.606.09 0 .21-.012.283-.066.083-.063.144-.218.17-.424.13-.997-.537-3.112-2.304-5.4zM12.5 84.983c-.596.946-.633 1.542-.512 1.713.074.104.32.215.794.215 1.3 0 3.307-.823 5.113-2.1 3.187-2.254 4.075-4.487 3.752-4.944-.073-.103-.32-.214-.794-.214-1.3 0-3.31.825-5.115 2.103-1.384.98-2.564 2.157-3.24 3.228zM9.976 97.57c.118 0 .33-.014.426-.108.075-.073.117-.233.12-.44.01-1.006-.902-3.027-2.927-5.09-2.04-2.075-4.048-3.02-5.05-3.02-.12 0-.33.013-.425.106-.4.395.073 2.75 2.807 5.53 2.036 2.077 4.045 3.022 5.05 3.022zM12.916 95.765c-.48 1.01-.445 1.607-.305 1.762.08.09.272.14.528.14 1.05 0 3.04-.84 5.115-2.71 2.898-2.615 3.515-4.94 3.14-5.355-.077-.087-.27-.137-.525-.137-1.05 0-3.042.84-5.12 2.713-1.257 1.135-2.29 2.443-2.832 3.587zM12.536 106.73c-.624-1.102-1.75-2.33-3.085-3.372-1.827-1.423-3.846-2.343-5.14-2.343-.33 0-.586.068-.67.18-.346.443.436 2.715 3.514 5.11 1.826 1.424 3.843 2.343 5.14 2.343.33 0 .586-.07.672-.18.13-.166.12-.765-.43-1.738zM15.497 108.32c1.02 0 3.035-1.16 4.918-3.378 2.527-2.974 2.83-5.358 2.404-5.722-.08-.066-.224-.08-.333-.08-1.02 0-3.038 1.16-4.92 3.382-1.097 1.292-1.947 2.725-2.334 3.93-.34 1.065-.23 1.652-.07 1.787.08.067.226.08.334.08z"/></svg>