<svg xmlns="http://www.w3.org/2000/svg" width="143.348" height="154.021" viewBox="0 0 143.348 154.021"><path fill="none" d="M98.68 24.834c24.08 9.81 41.167 34.008 41.167 62.253 0 6.754-.985 13.272-2.8 19.424a73.58 73.58 0 0 0 4.3-24.856c0-30.008-18.035-55.658-43.29-65.593.797 2.86 1 5.845.623 8.774z"/><path fill="none" d="M137.848 87.087c0-27.253-16.38-50.62-39.52-60.237a21.828 21.828 0 0 1-4.29 8.94c23.98 8.045 41.31 30.712 41.31 57.363 0 9.626-2.243 18.73-6.216 26.83 5.53-9.654 8.716-20.896 8.716-32.896z"/><path fill="#EF483E" d="M84.864 153.224c33.04-5.137 58.483-35.27 58.483-71.57 0-31.465-19.31-58.262-46.12-68.034a21.88 21.88 0 0 0-4.78-7.174C88.29 2.29 82.763 0 76.884 0S65.477 2.29 61.32 6.446c-4.157 4.157-6.447 9.685-6.447 15.563s2.29 11.405 6.447 15.56a21.864 21.864 0 0 0 15.564 6.448c5.88 0 11.406-2.29 15.563-6.446.052-.052.094-.108.146-.16 23.607 7.532 40.755 29.668 40.755 55.74 0 31.41-24.586 57.15-55.414 58.77a63.16 63.16 0 0 1-3.086.082c-.024 0-.045.013-.068.014-26.787-.03-49.698-17.384-58.767-41.75 1.754-.26 4.012-1.776 5.927-4.03 2.546-2.997 4.11-6.893 2.175-8.54-.43-.365-.992-.56-1.627-.56-1.81 0-4.34 1.606-6.447 4.09a16 16 0 0 0-1.97 2.917 65.55 65.55 0 0 1-1.026-4.49c.034 0 .06.01.094.01 1.776 0 4.25-1.236 6.455-3.226 2.92-2.635 4.987-6.29 3.287-8.18-.33-.363-.944-.797-2.012-.797-1.777 0-4.252 1.237-6.46 3.23a16.204 16.204 0 0 0-2.27 2.532 67.48 67.48 0 0 1-.247-4.408c.26.06.556.094.893.094 1.738 0 4.08-.92 6.268-2.467 3.212-2.27 5.697-5.654 4.232-7.73-.342-.484-1.04-1.06-2.428-1.06-1.74 0-4.083.922-6.27 2.47-.982.695-1.844 1.47-2.568 2.26.11-1.612.28-3.21.505-4.795.418.11.918.178 1.522.178 1.576 0 3.48-.453 5.358-1.276 3.6-1.577 6.715-4.392 5.7-6.72-.27-.615-1.076-1.646-3.446-1.646-1.576 0-3.48.454-5.358 1.277a16.84 16.84 0 0 0-2.443 1.32 65.5 65.5 0 0 1 1.02-3.627c.788.318 1.788.496 2.987.496 1.188 0 2.504-.174 3.806-.5 3.814-.957 7.354-3.213 6.738-5.678-.37-1.48-2.125-2.327-4.813-2.327-1.187 0-2.503.172-3.805.5-.853.213-1.66.492-2.414.81.55-1.26 1.14-2.5 1.766-3.72.825.776 2.273 1.212 4.215 1.212 1.15 0 2.42-.158 3.673-.458 3.825-.916 7.39-3.135 6.8-5.604-.36-1.513-2.157-2.38-4.925-2.38-1.15 0-2.42.157-3.672.457-.958.23-1.85.532-2.663.88a64.487 64.487 0 0 1 2.167-3.103c.365.193.79.3 1.26.3 1.817 0 4.297-1.464 6.473-3.82a15.643 15.643 0 0 0 2.294-3.188c1.708-1.38 4.426-3.188 5.753-4.07a1 1 0 1 0-1.107-1.665c-1.25.83-2.51 1.68-3.654 2.493 0-.566-.112-1.006-.277-1.34a64.395 64.395 0 0 1 6.116-4.463 1 1 0 1 0-1.08-1.684 66.347 66.347 0 0 0-6.685 4.908 2.935 2.935 0 0 0-.58-.06 3.92 3.92 0 0 0-.65.062 62.9 62.9 0 0 1 3.223-3.21 1 1 0 0 0-1.356-1.47 65.44 65.44 0 0 0-7.115 7.72 1 1 0 0 0-.144.286c-.143.146-.288.283-.428.436-2.082 2.257-3.58 5.08-3.252 7.03a66.707 66.707 0 0 0-2.48 3.504 16.896 16.896 0 0 0-.47-2.27c-.907-3.2-2.943-6.644-5.27-6.644-.21 0-.415.028-.613.085-2.443.693-2.633 4.888-1.56 8.672.773 2.72 2.365 5.61 4.253 6.413a66.808 66.808 0 0 0-1.752 3.675 16.85 16.85 0 0 0-.526-2.47c-.938-3.172-3.003-6.586-5.318-6.586-.218 0-.433.03-.638.092-2.435.723-2.58 4.92-1.463 8.69.938 3.17 3 6.58 5.317 6.58.07 0 .134-.022.202-.03l.015.04a67.983 67.983 0 0 0-1.14 3.895 17.22 17.22 0 0 0-.846-2.048C9.86 64.732 7.49 61.9 5.296 61.9c-.363 0-.705.077-1.015.23-2.282 1.116-1.726 5.278.003 8.81 1.372 2.807 3.74 5.64 5.935 5.64.147 0 .29-.022.428-.048a68.467 68.467 0 0 0-.5 4.072c-.275-.43-.567-.86-.896-1.284-2.06-2.664-4.57-4.386-6.395-4.386-.576 0-1.097.168-1.506.485-2.01 1.555-.628 5.518 1.776 8.628 2.056 2.663 4.564 4.384 6.392 4.384.123 0 .242-.012.36-.026.02 1.084.064 2.16.135 3.232-.31-.375-.636-.748-.994-1.112-2.195-2.232-4.677-3.62-6.48-3.62-.938 0-1.513.373-1.827.685-1.812 1.782.03 5.553 2.784 8.357 2.19 2.232 4.672 3.62 6.476 3.62a2.8 2.8 0 0 0 .992-.177 68.42 68.42 0 0 0 .657 3.188 17.33 17.33 0 0 0-.945-.802c-2.225-1.73-4.606-2.765-6.37-2.765-1.25 0-1.916.52-2.25.954-1.562 2.006.763 5.5 3.865 7.916 2.222 1.73 4.602 2.764 6.368 2.764.698 0 1.2-.167 1.577-.385 9.176 25.517 33.045 43.756 60.978 43.756 2.342 0 4.652-.135 6.93-.385.34-.035.675-.09 1.014-.132a50.24 50.24 0 0 0 2.074-.274zm-77.71-46.917c-3.08-2.396-3.86-4.668-3.516-5.11.085-.112.343-.18.67-.18 1.295 0 3.314.92 5.142 2.342 1.336 1.04 2.46 2.27 3.085 3.37.55.974.56 1.572.43 1.74-.086.11-.344.18-.673.18-1.295-.002-3.313-.92-5.14-2.343zm8.08.146c.386-1.206 1.236-2.64 2.332-3.93 1.884-2.222 3.902-3.384 4.92-3.384.11 0 .255.014.333.08.426.363.123 2.748-2.405 5.722-1.883 2.218-3.9 3.38-4.918 3.38-.108 0-.253-.016-.333-.083-.16-.136-.272-.722.07-1.787zM2.12 89.02c.095-.095.307-.108.424-.108 1.002 0 3.01.945 5.05 3.02 2.025 2.063 2.937 4.085 2.927 5.09 0 .208-.043.368-.118.44-.096.096-.308.11-.426.11-1.004 0-3.012-.946-5.05-3.022-2.733-2.782-3.208-5.137-2.806-5.53zm18.747.444c.256 0 .448.05.526.137.375.417-.242 2.74-3.14 5.355-2.076 1.872-4.065 2.71-5.116 2.71-.256 0-.447-.05-.527-.14-.14-.153-.174-.75.305-1.76.543-1.145 1.576-2.452 2.833-3.59 2.077-1.872 4.067-2.71 5.12-2.71zM9.802 86.37c-.07.055-.192.066-.282.066-.982 0-3-1.264-4.81-3.606-2.386-3.087-2.58-5.48-2.135-5.825.07-.055.192-.066.28-.066.98 0 3 1.264 4.813 3.607 1.766 2.287 2.432 4.402 2.303 5.4-.024.205-.085.36-.168.423zm11.845-6.504c.323.457-.565 2.69-3.752 4.944-1.806 1.276-3.813 2.1-5.113 2.1-.473 0-.72-.11-.794-.214-.12-.17-.084-.767.51-1.713.676-1.07 1.856-2.248 3.24-3.23 1.806-1.276 3.813-2.102 5.114-2.102.475.002.722.114.795.216zM5.162 63.93c.013-.007.053-.026.135-.026.778 0 2.632 1.437 4.14 4.52 1.27 2.597 1.497 4.803 1.17 5.753-.068.197-.16.335-.252.38a.282.282 0 0 1-.136.027c-.78 0-2.633-1.436-4.14-4.517-1.715-3.506-1.422-5.89-.918-6.138zm8.114 9.812c.877-.914 2.27-1.83 3.823-2.51 1.607-.705 3.267-1.11 4.554-1.11 1.04 0 1.534.27 1.612.45.224.51-1.095 2.52-4.67 4.085-1.607.704-3.268 1.108-4.555 1.108-1.037 0-1.53-.268-1.61-.45-.084-.19.072-.766.846-1.573zm-3.49-21.416c.673 0 2.385 1.722 3.4 5.153.48 1.623.68 3.276.546 4.536-.118 1.11-.46 1.603-.66 1.662-.583.184-2.417-1.58-3.47-5.14-1.107-3.74-.42-6.043.184-6.212zm16.678 9.57c.135.543-1.5 2.304-5.285 3.253-1.146.286-2.293.438-3.32.438-1.82 0-2.79-.485-2.87-.815-.052-.203.198-.746 1.095-1.412 1.017-.754 2.542-1.424 4.187-1.837 1.145-.287 2.292-.438 3.32-.438 1.82 0 2.79.485 2.872.812zm-11.16-19.36c.672 0 2.366 1.734 3.346 5.19.463 1.63.644 3.284.496 4.542-.13 1.11-.477 1.598-.68 1.655a.234.234 0 0 1-.066.01c-.672 0-2.365-1.733-3.346-5.187-1.065-3.754-.355-6.05.25-6.21zm16.574 9.755c.13.544-1.524 2.285-5.32 3.193-1.102.264-2.21.403-3.207.403-2.077 0-2.914-.58-2.978-.848-.023-.098.025-.256.134-.433.525-.856 2.372-2.085 5.185-2.758a14.04 14.04 0 0 1 3.208-.403c2.08 0 2.917.582 2.98.847zm-3.633-12.02c2.013-2.184 4.003-3.178 5-3.178.105 0 .293.012.384.096.153.142.242.733-.144 1.784-.437 1.19-1.345 2.586-2.493 3.832-2.015 2.184-4.005 3.178-5.002 3.178-.103 0-.29-.013-.382-.097-.41-.38-.01-2.746 2.637-5.614zm113.103 41.383c0 8.75-1.53 17.124-4.3 24.857a68.538 68.538 0 0 0 2.8-19.424c0-28.245-17.086-52.442-41.167-62.253.377-2.93.175-5.914-.623-8.773 25.256 9.935 43.29 35.586 43.29 65.593zm-75.663-47.07a.998.998 0 0 0-1.4.188c-.383.503-.795.993-1.226 1.46-.04.042-.058.096-.088.143-.077-.074-.16-.14-.237-.215-.207-.207-.39-.432-.586-.646a.997.997 0 0 0 1.105-.39 21.61 21.61 0 0 0 1.104-1.783.998.998 0 0 0-.39-1.36.997.997 0 0 0-1.36.39 19.862 19.862 0 0 1-1.003 1.617c-.158.23-.206.5-.158.755a19.857 19.857 0 0 1-4.577-12.732c0-5.174 1.966-10.038 5.52-13.773.046.14.116.274.227.387.444.452.872.93 1.27 1.42a1 1 0 1 0 1.552-1.264 22.61 22.61 0 0 0-1.396-1.56 1.006 1.006 0 0 0-.355-.228C67.345 3.775 71.973 2 76.884 2c5.16 0 10.012 1.955 13.743 5.49-.097.05-.192.104-.272.185a22.9 22.9 0 0 0-1.396 1.56 1 1 0 0 0 .775 1.63 1 1 0 0 0 .776-.367c.398-.49.826-.968 1.27-1.42.066-.067.104-.147.147-.227.237.272.474.543.693.824a.995.995 0 0 0-1.05.373c-.414.56-.805 1.146-1.162 1.74a1 1 0 0 0 1.714 1.03c.324-.54.68-1.07 1.057-1.582a.972.972 0 0 0 .176-.56c4.897 7.114 4.67 16.702-.675 23.588-.314-.47-.62-.948-.89-1.44a1 1 0 1 0-1.75.97c.337.608.71 1.208 1.105 1.783.06.088.15.14.23.202-.12.125-.223.26-.345.38-.024.025-.05.045-.074.068-.287-.33-.58-.656-.84-1a1 1 0 1 0-1.59 1.213c.293.386.62.753.943 1.122a19.854 19.854 0 0 1-12.588 4.46 19.86 19.86 0 0 1-12.458-4.362c.032-.027.07-.04.1-.07a22.05 22.05 0 0 0 1.348-1.604.996.996 0 0 0-.187-1.4zm28.353 1.208a21.834 21.834 0 0 0 4.29-8.94c23.14 9.616 39.52 32.984 39.52 60.237 0 12-3.187 23.242-8.716 32.897a60.764 60.764 0 0 0 6.216-26.83c0-26.652-17.33-49.32-41.31-57.363z"/><path fill="#FDF7E7" d="M64.527 37.587c-.03.03-.068.044-.1.07a19.856 19.856 0 0 0 12.457 4.362c4.64 0 9.035-1.573 12.587-4.46-.322-.368-.65-.735-.943-1.122a1 1 0 1 1 1.59-1.213c.262.345.554.672.84 1 .024-.022.05-.042.075-.066.122-.123.226-.257.344-.382-.08-.062-.168-.114-.23-.202a21.61 21.61 0 0 1-1.104-1.782.998.998 0 0 1 .39-1.36.998.998 0 0 1 1.36.39c.27.49.576.97.89 1.44 5.347-6.887 5.573-16.475.676-23.588a.967.967 0 0 1-.177.56 20.36 20.36 0 0 0-1.056 1.582 1 1 0 0 1-1.714-1.03c.357-.595.75-1.18 1.163-1.74a.996.996 0 0 1 1.05-.374c-.22-.28-.457-.552-.694-.823-.044.08-.082.16-.148.228-.444.452-.872.93-1.27 1.42a1 1 0 1 1-1.552-1.264 22.61 22.61 0 0 1 1.396-1.56c.08-.08.175-.135.272-.184C86.898 3.955 82.046 2 76.885 2c-4.91 0-9.54 1.775-13.192 4.992.13.05.25.123.355.23a22.9 22.9 0 0 1 1.396 1.558 1 1 0 0 1-.775 1.632 1 1 0 0 1-.777-.368c-.4-.49-.827-.968-1.27-1.42a.985.985 0 0 1-.228-.387c-3.553 3.735-5.52 8.6-5.52 13.773 0 4.703 1.615 9.155 4.576 12.732a1 1 0 0 1 .16-.755c.358-.522.696-1.066 1.002-1.618a1 1 0 1 1 1.75.97c-.338.606-.71 1.206-1.106 1.78a1 1 0 0 1-1.105.392c.198.214.38.438.587.646.076.076.16.14.237.215.03-.047.048-.1.087-.144.432-.467.844-.957 1.226-1.46a1 1 0 1 1 1.59 1.213 22.6 22.6 0 0 1-1.35 1.604zm4.395-7.08c-.247.65-.53 1.296-.84 1.922a.998.998 0 0 1-1.34.452 1 1 0 0 1-.45-1.34c.28-.57.537-1.157.76-1.745a1 1 0 1 1 1.87.71zM65.08 21.37a1 1 0 0 1 .934-1.063c.562-.02 1.027.383 1.062.935a22.23 22.23 0 0 1 .035 2.094 1 1 0 0 1-.998.97c-.01 0-.02 0-.032-.002a1 1 0 0 1-.968-1.03 20.556 20.556 0 0 0-.032-1.905zm21.378-2.36c-.13.62-.23 1.254-.3 1.882a1 1 0 0 1-1.987-.22c.078-.69.19-1.387.33-2.068a.997.997 0 0 1 1.184-.774c.54.11.887.64.774 1.18zm-.4 10.662a1 1 0 0 1 1.29.58c.224.587.48 1.174.762 1.744a1 1 0 0 1-.895 1.444.998.998 0 0 1-.897-.557 21.31 21.31 0 0 1-.84-1.92 1 1 0 0 1 .58-1.29zm-.706-1.915a1 1 0 0 1-.984-.827c-.12-.687-.21-1.386-.264-2.08a1 1 0 0 1 .92-1.074c.54-.03 1.03.368 1.074.92.05.63.13 1.265.24 1.89a1 1 0 0 1-.986 1.17zM89.63 30.6a1.002 1.002 0 0 1-1.262-.64c-.215-.658-.4-1.338-.554-2.02a1 1 0 1 1 1.95-.436c.14.62.31 1.237.505 1.836a.998.998 0 0 1-.64 1.26zm-.34-6.872a.998.998 0 0 1-.968 1.03h-.032a1 1 0 0 1-1-.968 22.216 22.216 0 0 1 .035-2.094c.037-.55.51-.94 1.063-.935a1 1 0 0 1 .934 1.063 20.51 20.51 0 0 0-.032 1.905zm-1.303-6.163c.174-.672.383-1.345.62-2a1 1 0 1 1 1.88.683 20.2 20.2 0 0 0-.564 1.818 1 1 0 1 1-1.936-.5zm.414-3.904c-.296.555-.57 1.132-.816 1.718a1 1 0 1 1-1.845-.772c.27-.645.572-1.28.9-1.893a1 1 0 1 1 1.76.948zM70.034 26.477a1 1 0 0 1-1.97-.346c.11-.624.19-1.26.24-1.89a1.008 1.008 0 0 1 1.074-.92 1 1 0 0 1 .92 1.076 21.768 21.768 0 0 1-.264 2.08zm-.132-8.328c.143.682.254 1.378.33 2.068a1 1 0 0 1-1.987.22c-.07-.628-.17-1.26-.3-1.88a1 1 0 0 1 1.958-.408zm-3.492-6.295a.997.997 0 0 1 1.354.407c.328.61.63 1.248.9 1.893a1 1 0 1 1-1.844.772A19.865 19.865 0 0 0 66 13.208a1 1 0 0 1 .408-1.355zm-3.273.996a1 1 0 0 1-.858-.486 20.08 20.08 0 0 0-1.057-1.583 1 1 0 1 1 1.608-1.186c.415.56.806 1.146 1.163 1.74a1 1 0 0 1-.855 1.515zm.78 2.945a1 1 0 1 1 1.88-.683c.237.655.446 1.328.62 2a1 1 0 1 1-1.935.502c-.16-.612-.35-1.223-.566-1.82zm2.118 13.71a1 1 0 1 1-1.902-.62c.197-.6.366-1.218.505-1.837a1 1 0 0 1 1.95.437 21.908 21.908 0 0 1-.553 2.022z"/><path fill="#EF483E" d="M86.318 32.883a.998.998 0 0 0 1.34.453 1 1 0 0 0 .452-1.34 20.035 20.035 0 0 1-.762-1.745 1 1 0 1 0-1.87.712c.248.648.53 1.295.84 1.92zM85.683 17.828a.998.998 0 0 0-1.183.774 22.348 22.348 0 0 0-.33 2.068 1 1 0 0 0 1.988.22c.07-.628.17-1.26.3-1.88a.997.997 0 0 0-.775-1.182zM86.338 26.584a20.08 20.08 0 0 1-.24-1.89c-.042-.55-.535-.95-1.074-.92a1 1 0 0 0-.92 1.076c.056.693.144 1.393.265 2.08a1 1 0 0 0 1.968-.346zM87.994 12.307a.998.998 0 0 0-1.354.407c-.328.61-.63 1.248-.9 1.893a1 1 0 1 0 1.844.772c.245-.587.52-1.164.817-1.718a1 1 0 0 0-.406-1.355zM89.766 27.503a1 1 0 1 0-1.95.437c.152.68.338 1.36.553 2.02a1 1 0 1 0 1.9-.622 19.646 19.646 0 0 1-.504-1.835zM89.32 21.823a1 1 0 0 0-.933-1.062c-.554-.004-1.026.385-1.062.936a22.216 22.216 0 0 0-.035 2.094 1 1 0 0 0 1 .97c.01 0 .02 0 .03-.002a1 1 0 0 0 .97-1.03 20.54 20.54 0 0 1 .032-1.905zM88.955 18.816a1 1 0 0 0 .967-.75c.16-.61.35-1.222.565-1.817a1 1 0 1 0-1.88-.684 22.108 22.108 0 0 0-.62 2 1 1 0 0 0 .968 1.25zM69.378 23.32a1.007 1.007 0 0 0-1.075.92c-.05.63-.13 1.266-.24 1.89a1 1 0 0 0 1.97.346c.122-.687.21-1.386.265-2.08a1.002 1.002 0 0 0-.92-1.075zM66.817 14.924a1 1 0 1 0 1.845-.772c-.27-.645-.573-1.28-.9-1.893a1 1 0 1 0-1.762.947c.297.554.572 1.13.817 1.717zM68.343 29.218a.996.996 0 0 0-1.29.58c-.224.587-.48 1.174-.762 1.744a1 1 0 0 0 .896 1.444c.37 0 .723-.204.897-.557.31-.627.593-1.273.84-1.922a1 1 0 0 0-.58-1.29zM67.943 18.557c.13.62.23 1.253.3 1.88a1 1 0 0 0 1.987-.22 22.294 22.294 0 0 0-.33-2.067.997.997 0 0 0-1.183-.774.998.998 0 0 0-.774 1.18zM66.08 24.304h.032a1 1 0 0 0 1-.968 22.23 22.23 0 0 0-.035-2.094c-.036-.552-.5-.956-1.063-.935a1 1 0 0 0-.934 1.062 20.525 20.525 0 0 1 .032 1.903 1 1 0 0 0 .968 1.03zM65.446 18.362a1 1 0 0 0 .968-1.25 22.108 22.108 0 0 0-.62-2 1 1 0 1 0-1.88.682 20.2 20.2 0 0 1 .564 1.818c.118.45.523.75.968.75zM65.83 26.292a1.003 1.003 0 0 0-1.194.757c-.14.618-.31 1.236-.504 1.835a1 1 0 0 0 1.902.622c.215-.66.4-1.34.554-2.02a1 1 0 0 0-.758-1.195zM63.992 11.334c-.357-.595-.75-1.18-1.163-1.74a1 1 0 1 0-1.608 1.187c.376.51.73 1.042 1.056 1.582a1 1 0 1 0 1.714-1.03z"/><path fill="#FDF7E7" d="M25.61 45.885c.09.084.278.097.382.097.997 0 2.987-.994 5.002-3.178 1.148-1.246 2.057-2.643 2.493-3.832.385-1.05.296-1.643.143-1.784-.09-.084-.28-.096-.383-.096-.998 0-2.988.994-5 3.18-2.648 2.867-3.05 5.234-2.638 5.613zM18.4 53.933a.234.234 0 0 0 .066-.01c.203-.057.55-.544.68-1.654.147-1.26-.033-2.914-.496-4.544-.98-3.455-2.674-5.19-3.347-5.19-.604.162-1.314 2.457-.248 6.212.98 3.452 2.674 5.185 3.345 5.185zM20.507 54.606c-.108.177-.157.335-.134.433.063.266.9.847 2.98.847.995 0 2.104-.14 3.206-.403 3.795-.908 5.45-2.65 5.32-3.192-.064-.265-.902-.846-2.98-.846-.997 0-2.105.14-3.208.403-2.813.67-4.66 1.9-5.185 2.756zM13.07 63.68c.203-.06.544-.552.662-1.663.133-1.26-.066-2.913-.546-4.537-1.015-3.432-2.727-5.153-3.4-5.153-.605.17-1.29 2.472-.183 6.214 1.052 3.56 2.886 5.322 3.468 5.14zM16.086 63.36c-.897.667-1.147 1.21-1.096 1.413.082.33 1.05.815 2.87.815 1.028 0 2.175-.152 3.32-.44 3.786-.948 5.42-2.71 5.285-3.25-.082-.328-1.052-.813-2.873-.813-1.026 0-2.174.15-3.32.438-1.644.414-3.17 1.083-4.186 1.838zM10.22 74.583c.082 0 .122-.02.135-.026.093-.046.184-.184.252-.38.327-.95.1-3.157-1.17-5.753-1.508-3.084-3.362-4.52-4.14-4.52-.083 0-.122.02-.135.024-.503.247-.796 2.632.92 6.138 1.505 3.08 3.36 4.517 4.137 4.517zM12.43 75.316c.08.182.573.45 1.61.45 1.288 0 2.95-.405 4.557-1.11 3.574-1.564 4.893-3.573 4.67-4.085-.08-.18-.574-.447-1.613-.447-1.287 0-2.947.404-4.555 1.11-1.554.68-2.947 1.595-3.824 2.51-.774.806-.93 1.382-.846 1.573zM7.67 80.547c-1.813-2.344-3.833-3.608-4.813-3.608-.09 0-.21.01-.28.065-.445.344-.252 2.738 2.134 5.825 1.81 2.343 3.83 3.606 4.81 3.606.09 0 .21-.012.283-.066.083-.063.144-.218.17-.424.13-.997-.537-3.112-2.304-5.4zM12.5 84.983c-.596.946-.633 1.542-.512 1.713.074.104.32.215.794.215 1.3 0 3.307-.823 5.113-2.1 3.187-2.254 4.075-4.487 3.752-4.944-.073-.103-.32-.214-.794-.214-1.3 0-3.31.825-5.115 2.103-1.384.98-2.564 2.157-3.24 3.228zM9.976 97.57c.118 0 .33-.014.426-.108.075-.073.117-.233.12-.44.01-1.006-.902-3.027-2.927-5.09-2.04-2.075-4.048-3.02-5.05-3.02-.12 0-.33.013-.425.106-.4.395.073 2.75 2.807 5.53 2.036 2.077 4.045 3.022 5.05 3.022zM12.916 95.765c-.48 1.01-.445 1.607-.305 1.762.08.09.272.14.528.14 1.05 0 3.04-.84 5.115-2.71 2.898-2.615 3.515-4.94 3.14-5.355-.077-.087-.27-.137-.525-.137-1.05 0-3.042.84-5.12 2.713-1.257 1.135-2.29 2.443-2.832 3.587zM12.536 106.73c-.624-1.102-1.75-2.33-3.085-3.372-1.827-1.423-3.846-2.343-5.14-2.343-.33 0-.586.068-.67.18-.346.443.436 2.715 3.514 5.11 1.826 1.424 3.843 2.343 5.14 2.343.33 0 .586-.07.672-.18.13-.166.12-.765-.43-1.738zM15.497 108.32c1.02 0 3.035-1.16 4.918-3.378 2.527-2.974 2.83-5.358 2.404-5.722-.08-.066-.224-.08-.333-.08-1.02 0-3.038 1.16-4.92 3.382-1.097 1.292-1.947 2.725-2.334 3.93-.34 1.065-.23 1.652-.07 1.787.08.067.226.08.334.08z"/></svg>