<svg xmlns="http://www.w3.org/2000/svg" width="143.348" height="154.021"><path fill="none" d="M98.68 24.834c24.081 9.811 41.167 34.008 41.167 62.253 0 6.754-.985 13.272-2.801 19.424a73.58 73.58 0 0 0 4.301-24.857c0-30.008-18.035-55.658-43.291-65.593.798 2.859 1 5.844.624 8.773z"/><path fill="none" d="M137.848 87.087c0-27.253-16.381-50.621-39.521-60.237a21.828 21.828 0 0 1-4.289 8.941c23.979 8.044 41.31 30.711 41.31 57.362a60.764 60.764 0 0 1-6.216 26.831c5.529-9.655 8.716-20.897 8.716-32.897z"/><path fill="#EF483E" d="M84.864 153.224c33.039-5.137 58.483-35.27 58.483-71.57 0-31.465-19.31-58.262-46.121-68.034a21.879 21.879 0 0 0-4.779-7.174C88.29 2.289 82.763 0 76.884 0S65.477 2.289 61.32 6.446s-6.447 9.685-6.447 15.563 2.29 11.406 6.447 15.562a21.864 21.864 0 0 0 15.564 6.447 21.865 21.865 0 0 0 15.563-6.446c.052-.052.094-.108.146-.161 23.607 7.533 40.755 29.669 40.755 55.741 0 31.409-24.586 57.149-55.414 58.769a63.16 63.16 0 0 1-3.086.083c-.024 0-.045.013-.068.014-26.787-.029-49.698-17.384-58.767-41.751 1.754-.26 4.012-1.775 5.927-4.03 2.546-2.996 4.111-6.892 2.175-8.54-.429-.364-.992-.558-1.627-.558-1.809 0-4.339 1.605-6.447 4.089a16.001 16.001 0 0 0-1.971 2.917 65.55 65.55 0 0 1-1.026-4.49c.034.001.059.01.094.01 1.776 0 4.25-1.236 6.455-3.226 2.92-2.634 4.987-6.288 3.287-8.178-.329-.364-.944-.798-2.012-.798-1.777 0-4.252 1.237-6.459 3.229a16.204 16.204 0 0 0-2.271 2.533 67.481 67.481 0 0 1-.247-4.408c.26.059.555.094.892.094 1.738 0 4.081-.922 6.268-2.468 3.211-2.271 5.696-5.654 4.231-7.73-.342-.484-1.041-1.061-2.428-1.061-1.739 0-4.083.923-6.271 2.471a16.152 16.152 0 0 0-2.567 2.26c.111-1.612.281-3.211.505-4.795.417.109.917.178 1.521.178 1.576 0 3.479-.453 5.358-1.276 3.601-1.577 6.715-4.392 5.699-6.72-.27-.615-1.075-1.646-3.445-1.646-1.576 0-3.479.454-5.358 1.277a16.84 16.84 0 0 0-2.443 1.318 65.5 65.5 0 0 1 1.021-3.626c.787.318 1.787.496 2.986.496 1.188 0 2.504-.173 3.806-.5 3.814-.956 7.354-3.212 6.738-5.677-.371-1.479-2.125-2.327-4.813-2.327-1.188 0-2.504.172-3.806.499-.853.214-1.661.493-2.414.81.549-1.26 1.138-2.5 1.765-3.72.825.777 2.273 1.213 4.215 1.213 1.15 0 2.42-.158 3.672-.458 3.825-.915 7.389-3.134 6.8-5.603-.361-1.513-2.157-2.381-4.925-2.381-1.15 0-2.42.158-3.672.458-.958.229-1.849.532-2.663.88a64.487 64.487 0 0 1 2.167-3.103c.365.193.789.301 1.261.301 1.816 0 4.296-1.465 6.472-3.822a15.643 15.643 0 0 0 2.294-3.187c1.708-1.379 4.426-3.188 5.753-4.069a1 1 0 0 0-1.107-1.666 151.937 151.937 0 0 0-3.654 2.493c.002-.566-.111-1.006-.276-1.341a64.395 64.395 0 0 1 6.116-4.462 1 1 0 0 0-1.08-1.684 66.347 66.347 0 0 0-6.684 4.908 2.935 2.935 0 0 0-.579-.061c-.208 0-.426.024-.65.062a62.9 62.9 0 0 1 3.222-3.209 1 1 0 0 0-1.356-1.471 65.441 65.441 0 0 0-7.115 7.72 1 1 0 0 0-.144.286c-.143.146-.288.283-.428.436-2.082 2.257-3.58 5.08-3.252 7.031a66.707 66.707 0 0 0-2.48 3.503 16.896 16.896 0 0 0-.469-2.271c-.908-3.199-2.944-6.643-5.271-6.643-.209 0-.415.028-.613.085-2.443.694-2.633 4.889-1.559 8.673.772 2.721 2.364 5.61 4.252 6.413a66.808 66.808 0 0 0-1.752 3.675 16.85 16.85 0 0 0-.527-2.47c-.938-3.172-3.003-6.586-5.318-6.586-.218 0-.433.031-.638.092-2.435.723-2.579 4.919-1.463 8.689.938 3.17 3.001 6.581 5.317 6.581.069 0 .134-.022.202-.029.005.013.009.026.015.038a67.983 67.983 0 0 0-1.139 3.896 17.22 17.22 0 0 0-.846-2.049C9.86 64.733 7.491 61.9 5.296 61.9c-.363 0-.705.077-1.015.229-2.283 1.117-1.727 5.279.002 8.812 1.372 2.806 3.739 5.638 5.935 5.638.147 0 .289-.021.428-.047a68.467 68.467 0 0 0-.501 4.072c-.274-.43-.566-.859-.895-1.284-2.059-2.664-4.569-4.386-6.395-4.386-.576 0-1.097.168-1.506.485-2.01 1.556-.627 5.519 1.777 8.629 2.056 2.663 4.564 4.384 6.392 4.384.123 0 .242-.012.36-.026a69.08 69.08 0 0 0 .135 3.232c-.31-.375-.636-.748-.994-1.112-2.194-2.232-4.676-3.619-6.478-3.619-.939 0-1.514.372-1.828.684-1.812 1.781.029 5.552 2.784 8.356 2.191 2.232 4.672 3.619 6.476 3.619a2.8 2.8 0 0 0 .992-.176 68.42 68.42 0 0 0 .657 3.188 17.331 17.331 0 0 0-.945-.802c-2.225-1.731-4.606-2.765-6.37-2.765-1.251 0-1.916.52-2.251.953-1.561 2.006.764 5.5 3.866 7.916 2.222 1.73 4.602 2.764 6.368 2.764.698 0 1.199-.167 1.577-.385 9.176 25.518 33.045 43.757 60.978 43.757 2.342 0 4.652-.135 6.931-.385.34-.036.674-.092 1.013-.133a50.24 50.24 0 0 0 2.075-.274zM7.153 106.307c-3.078-2.396-3.86-4.668-3.515-5.111.085-.111.343-.18.671-.18 1.294 0 3.313.92 5.141 2.343 1.336 1.041 2.461 2.271 3.085 3.372.551.973.56 1.571.43 1.738-.086.11-.344.18-.673.18-1.295-.001-3.313-.92-5.139-2.342zm8.08.146c.387-1.206 1.237-2.639 2.333-3.931 1.884-2.221 3.902-3.383 4.921-3.383.108 0 .254.015.332.081.427.363.124 2.748-2.404 5.722-1.883 2.218-3.899 3.379-4.918 3.379-.108 0-.253-.015-.333-.082-.16-.135-.272-.721.069-1.786zM2.12 89.019c.095-.094.307-.107.424-.107 1.002 0 3.011.945 5.051 3.021 2.024 2.062 2.936 4.084 2.926 5.089-.002.208-.044.368-.119.441-.096.095-.308.108-.426.108-1.004 0-3.012-.945-5.049-3.021-2.734-2.782-3.209-5.137-2.807-5.531zm18.747.445c.256 0 .448.05.526.137.375.416-.242 2.74-3.141 5.354-2.075 1.872-4.064 2.71-5.115 2.71-.256 0-.447-.05-.527-.139-.14-.154-.174-.752.305-1.762.543-1.144 1.576-2.451 2.833-3.588 2.077-1.873 4.067-2.712 5.119-2.712zM9.802 86.37c-.071.055-.192.066-.282.066-.982 0-3.001-1.264-4.81-3.606-2.386-3.087-2.579-5.481-2.135-5.825.071-.055.192-.066.281-.066.98 0 3 1.265 4.812 3.608 1.766 2.287 2.432 4.402 2.303 5.399-.025.206-.086.361-.169.424zm11.845-6.504c.323.457-.565 2.69-3.752 4.944-1.806 1.276-3.813 2.101-5.113 2.101-.473 0-.72-.11-.794-.215-.121-.171-.084-.767.511-1.713.675-1.071 1.855-2.248 3.238-3.229 1.807-1.277 3.814-2.103 5.115-2.103.475.001.722.113.795.215zM5.162 63.929c.013-.006.053-.025.135-.025.778 0 2.632 1.437 4.141 4.521 1.27 2.596 1.496 4.802 1.169 5.752-.068.197-.159.335-.252.381a.282.282 0 0 1-.136.026c-.778 0-2.632-1.436-4.138-4.517-1.716-3.506-1.423-5.891-.919-6.138zm8.114 9.813c.877-.914 2.271-1.829 3.823-2.51 1.608-.705 3.268-1.109 4.555-1.109 1.039 0 1.534.269 1.612.448.224.512-1.095 2.521-4.669 4.086-1.608.704-3.269 1.108-4.556 1.108-1.038 0-1.532-.268-1.611-.449-.084-.191.072-.767.846-1.574zm-3.49-21.416c.673 0 2.385 1.722 3.4 5.153.48 1.624.68 3.277.546 4.537-.118 1.111-.459 1.603-.661 1.662-.582.184-2.416-1.579-3.469-5.139-1.107-3.741-.421-6.044.184-6.213zm16.678 9.571c.135.542-1.5 2.303-5.285 3.252-1.145.287-2.292.439-3.319.439-1.82 0-2.789-.485-2.871-.815-.051-.203.199-.746 1.096-1.412 1.017-.755 2.542-1.425 4.187-1.838 1.145-.287 2.292-.438 3.319-.438 1.821 0 2.791.485 2.873.812zM15.303 42.536c.673 0 2.367 1.734 3.347 5.189.463 1.63.644 3.285.496 4.543-.13 1.11-.477 1.598-.68 1.655a.234.234 0 0 1-.066.009c-.672 0-2.365-1.732-3.346-5.186-1.065-3.754-.355-6.049.249-6.21zm16.575 9.755c.13.543-1.524 2.284-5.32 3.192a14.034 14.034 0 0 1-3.207.403c-2.078 0-2.915-.581-2.979-.848-.023-.098.025-.256.134-.433.525-.856 2.372-2.085 5.185-2.758a14.04 14.04 0 0 1 3.207-.403c2.079.001 2.917.582 2.98.847zm-3.633-12.02c2.013-2.185 4.003-3.179 5.001-3.179.104 0 .292.012.383.096.154.142.243.733-.143 1.784-.437 1.189-1.345 2.586-2.493 3.832-2.015 2.184-4.005 3.178-5.002 3.178-.104 0-.292-.013-.383-.097-.41-.379-.009-2.746 2.637-5.614zm113.103 41.382a73.556 73.556 0 0 1-4.301 24.857 68.538 68.538 0 0 0 2.801-19.424c0-28.245-17.086-52.442-41.167-62.253a22.146 22.146 0 0 0-.624-8.773c25.256 9.935 43.291 35.586 43.291 65.593zm-75.663-47.07a.998.998 0 0 0-1.401.188c-.382.502-.794.992-1.225 1.458-.04.043-.057.097-.087.144-.077-.074-.161-.139-.237-.215-.207-.207-.389-.432-.586-.646a.997.997 0 0 0 1.105-.391 21.61 21.61 0 0 0 1.105-1.782.998.998 0 0 0-.39-1.359.997.997 0 0 0-1.359.389 19.862 19.862 0 0 1-1.003 1.618c-.158.229-.206.501-.158.755a19.857 19.857 0 0 1-4.576-12.732c0-5.174 1.966-10.038 5.52-13.773a.968.968 0 0 0 .227.387c.444.452.872.93 1.271 1.42a1 1 0 0 0 1.551-1.264 22.61 22.61 0 0 0-1.396-1.559 1.006 1.006 0 0 0-.355-.229c3.653-3.217 8.281-4.993 13.192-4.993 5.161 0 10.012 1.956 13.743 5.491a1.008 1.008 0 0 0-.272.185 22.9 22.9 0 0 0-1.396 1.559 1 1 0 0 0 .775 1.632 1 1 0 0 0 .776-.368c.399-.49.827-.968 1.271-1.42.066-.067.104-.147.147-.227.237.271.474.542.693.823a.995.995 0 0 0-1.049.373 21.784 21.784 0 0 0-1.163 1.741 1 1 0 0 0 1.714 1.03c.324-.54.68-1.072 1.057-1.583a.972.972 0 0 0 .177-.559c4.897 7.113 4.671 16.701-.675 23.587-.315-.469-.62-.948-.892-1.439a1 1 0 0 0-1.749.97c.337.607.709 1.207 1.105 1.782.061.088.149.141.229.202-.118.125-.222.259-.344.381-.024.024-.051.044-.074.067-.287-.329-.579-.656-.841-1.001a1 1 0 1 0-1.59 1.213c.294.387.622.754.944 1.123a19.854 19.854 0 0 1-12.587 4.458 19.86 19.86 0 0 1-12.458-4.361c.032-.027.071-.04.101-.071a22.05 22.05 0 0 0 1.347-1.603.996.996 0 0 0-.187-1.401zm28.353 1.208a21.834 21.834 0 0 0 4.289-8.941c23.14 9.616 39.521 32.984 39.521 60.237 0 12-3.187 23.242-8.716 32.897a60.764 60.764 0 0 0 6.216-26.831c0-26.651-17.331-49.318-41.31-57.362z"/><path fill="#FDF7E7" d="M64.527 37.587c-.029.031-.068.044-.101.071a19.856 19.856 0 0 0 12.458 4.361c4.639 0 9.035-1.572 12.587-4.458-.323-.369-.65-.736-.944-1.123a1 1 0 0 1 1.59-1.213c.262.345.554.672.841 1.001.023-.023.05-.043.074-.067.122-.122.226-.256.344-.381-.081-.062-.168-.114-.229-.202a21.61 21.61 0 0 1-1.105-1.782.998.998 0 0 1 .39-1.359.998.998 0 0 1 1.359.389c.272.491.577.971.892 1.439 5.346-6.886 5.572-16.474.675-23.587a.967.967 0 0 1-.177.559 20.36 20.36 0 0 0-1.057 1.583 1 1 0 0 1-1.714-1.03c.357-.595.749-1.181 1.163-1.741a.996.996 0 0 1 1.049-.373c-.22-.281-.456-.552-.693-.823-.043.079-.081.159-.147.227-.444.452-.872.93-1.271 1.42a1 1 0 0 1-1.551-1.264 22.61 22.61 0 0 1 1.396-1.559c.08-.081.175-.136.272-.185-3.731-3.535-8.582-5.491-13.743-5.491-4.911 0-9.54 1.776-13.192 4.993.129.05.251.123.355.229a22.9 22.9 0 0 1 1.396 1.559 1 1 0 0 1-.775 1.632 1 1 0 0 1-.776-.368c-.399-.49-.827-.968-1.271-1.42a.985.985 0 0 1-.227-.387c-3.553 3.735-5.52 8.6-5.52 13.773 0 4.703 1.615 9.155 4.576 12.732a.999.999 0 0 1 .158-.755c.359-.522.697-1.066 1.003-1.618a1 1 0 0 1 1.749.97 21.884 21.884 0 0 1-1.105 1.782 1 1 0 0 1-1.105.391c.197.214.379.438.586.646.076.076.16.141.237.215.031-.047.048-.101.087-.144.431-.466.843-.956 1.225-1.458a1 1 0 1 1 1.59 1.213 22.6 22.6 0 0 1-1.349 1.603zm4.395-7.079a22.025 22.025 0 0 1-.839 1.921.998.998 0 0 1-1.34.453 1 1 0 0 1-.452-1.34c.282-.57.538-1.157.762-1.745a1 1 0 1 1 1.869.711zm-3.842-9.139a1 1 0 0 1 .934-1.062c.562-.021 1.027.383 1.062.935a22.231 22.231 0 0 1 .035 2.094 1 1 0 0 1-.999.969l-.032-.001a1 1 0 0 1-.968-1.03 20.556 20.556 0 0 0-.032-1.905zm21.378-2.358c-.129.62-.23 1.253-.299 1.881a1.001 1.001 0 0 1-1.988-.22c.077-.69.188-1.387.33-2.068a.997.997 0 0 1 1.183-.774c.54.11.887.64.774 1.181zm-.4 10.661a1 1 0 0 1 1.29.579c.224.588.48 1.175.762 1.745a1.001 1.001 0 0 1-.895 1.444.998.998 0 0 1-.897-.557 21.311 21.311 0 0 1-.839-1.921 1 1 0 0 1 .579-1.29zm-.706-1.915a1 1 0 0 1-.984-.827 22.117 22.117 0 0 1-.264-2.079 1 1 0 0 1 .919-1.075c.54-.03 1.032.368 1.075.919.049.63.13 1.266.239 1.89a1 1 0 0 1-.985 1.172zM89.63 30.6a1.002 1.002 0 0 1-1.262-.639 22.302 22.302 0 0 1-.554-2.02 1 1 0 1 1 1.951-.437c.139.619.309 1.237.504 1.836a.998.998 0 0 1-.639 1.26zm-.34-6.872a.998.998 0 0 1-.968 1.03l-.032.001a1 1 0 0 1-.999-.969 22.216 22.216 0 0 1 .035-2.094c.036-.551.508-.939 1.062-.935a1 1 0 0 1 .934 1.062 20.51 20.51 0 0 0-.032 1.905zm-1.303-6.163c.174-.672.383-1.345.621-2a.999.999 0 1 1 1.88.683 20.2 20.2 0 0 0-.565 1.818 1 1 0 0 1-1.936-.501zm.414-3.904a19.865 19.865 0 0 0-.817 1.717 1 1 0 1 1-1.845-.772c.27-.645.573-1.281.901-1.893a1 1 0 0 1 1.761.948zM70.033 26.476a1 1 0 0 1-1.97-.346c.109-.624.19-1.26.239-1.89a1.008 1.008 0 0 1 1.075-.919 1 1 0 0 1 .919 1.075 21.768 21.768 0 0 1-.263 2.08zm-.132-8.328c.142.682.253 1.378.33 2.068a.999.999 0 1 1-1.988.22 19.994 19.994 0 0 0-.299-1.881 1 1 0 1 1 1.957-.407zm-3.493-6.295a.997.997 0 0 1 1.354.407c.328.611.631 1.248.901 1.893a1.001 1.001 0 0 1-1.845.772 19.865 19.865 0 0 0-.817-1.717 1 1 0 0 1 .407-1.355zm-3.273.996a1 1 0 0 1-.858-.485 20.08 20.08 0 0 0-1.057-1.583 1 1 0 1 1 1.608-1.187c.415.561.806 1.146 1.163 1.741a1 1 0 0 1-.856 1.514zm.779 2.946a1 1 0 0 1 1.88-.683c.238.655.447 1.328.621 2a1 1 0 1 1-1.935.502c-.16-.612-.35-1.223-.566-1.819zm2.119 13.711a1 1 0 1 1-1.902-.622c.196-.599.365-1.217.504-1.836a1 1 0 1 1 1.951.437 21.908 21.908 0 0 1-.553 2.021z"/><path fill="#EF483E" d="M86.318 32.883a.998.998 0 0 0 1.34.453 1 1 0 0 0 .452-1.34 20.035 20.035 0 0 1-.762-1.745 1 1 0 1 0-1.869.711c.247.648.529 1.295.839 1.921zm-.635-15.055a.998.998 0 0 0-1.183.774 22.348 22.348 0 0 0-.33 2.068.999.999 0 1 0 1.988.22c.069-.628.17-1.261.299-1.881a.997.997 0 0 0-.774-1.181zm.655 8.756a20.08 20.08 0 0 1-.239-1.89c-.043-.551-.536-.949-1.075-.919a1 1 0 0 0-.919 1.075c.055.693.143 1.393.264 2.079a1 1 0 0 0 1.969-.345zm1.656-14.277a.998.998 0 0 0-1.354.407 21.885 21.885 0 0 0-.901 1.893 1.001 1.001 0 0 0 1.845.772c.245-.586.52-1.163.817-1.717a1 1 0 0 0-.407-1.355zm1.772 15.196a1 1 0 1 0-1.951.437c.153.681.339 1.36.554 2.02a1 1 0 1 0 1.902-.622 19.646 19.646 0 0 1-.505-1.835zm-.445-5.68a1 1 0 0 0-.934-1.062c-.554-.005-1.026.384-1.062.935a22.216 22.216 0 0 0-.035 2.094 1 1 0 0 0 .999.969l.032-.001a1 1 0 0 0 .968-1.03 20.541 20.541 0 0 1 .032-1.905zm-.366-3.007a1 1 0 0 0 .967-.749c.159-.611.349-1.223.565-1.818a1 1 0 0 0-1.88-.683 22.108 22.108 0 0 0-.621 2 1 1 0 0 0 .969 1.25zm-19.577 4.505a1.007 1.007 0 0 0-1.075.919 20.08 20.08 0 0 1-.239 1.89 1 1 0 1 0 1.97.346c.121-.687.209-1.386.264-2.079a1.002 1.002 0 0 0-.92-1.076zm-2.561-8.397a1 1 0 1 0 1.845-.772 22.026 22.026 0 0 0-.901-1.893 1 1 0 1 0-1.762.947c.298.555.573 1.132.818 1.718zm1.526 14.294a.996.996 0 0 0-1.29.579c-.224.588-.48 1.175-.762 1.745a1.001 1.001 0 0 0 .895 1.444.998.998 0 0 0 .897-.557c.311-.626.593-1.272.839-1.921a1 1 0 0 0-.579-1.29zm-.4-10.661c.129.62.23 1.253.299 1.881a1.001 1.001 0 0 0 1.988-.22 22.294 22.294 0 0 0-.33-2.068.997.997 0 0 0-1.183-.774.998.998 0 0 0-.774 1.181zm-1.863 5.747l.032.001a1 1 0 0 0 .999-.969 22.231 22.231 0 0 0-.035-2.094c-.035-.552-.5-.956-1.062-.935a1 1 0 0 0-.934 1.062 20.525 20.525 0 0 1 .032 1.904 1 1 0 0 0 .968 1.031zm-.634-5.942a1 1 0 0 0 .968-1.251 22.108 22.108 0 0 0-.621-2 .999.999 0 1 0-1.88.683 20.2 20.2 0 0 1 .565 1.818c.118.451.523.75.968.75zm.384 7.93a1.003 1.003 0 0 0-1.194.757 20.388 20.388 0 0 1-.504 1.836 1 1 0 0 0 1.902.622c.215-.659.401-1.339.554-2.02a1.001 1.001 0 0 0-.758-1.195zm-1.838-14.958a21.874 21.874 0 0 0-1.163-1.741 1 1 0 0 0-1.608 1.187 20.36 20.36 0 0 1 1.057 1.583 1 1 0 0 0 1.714-1.029z"/><path fill="#FDF7E7" d="M25.609 45.885c.09.084.279.097.383.097.997 0 2.987-.994 5.002-3.178 1.148-1.246 2.057-2.643 2.493-3.832.385-1.051.296-1.643.143-1.784-.091-.084-.279-.096-.383-.096-.998 0-2.988.994-5.001 3.179-2.647 2.868-3.048 5.235-2.637 5.614zM18.4 53.933a.234.234 0 0 0 .066-.009c.203-.058.55-.545.68-1.655.147-1.258-.033-2.913-.496-4.543-.98-3.455-2.674-5.189-3.347-5.189-.604.161-1.314 2.456-.248 6.211.981 3.452 2.674 5.185 3.345 5.185zm2.107.673c-.108.177-.157.335-.134.433.063.267.901.848 2.979.848.996 0 2.105-.14 3.207-.403 3.796-.908 5.45-2.649 5.32-3.192-.063-.265-.901-.846-2.98-.846-.996 0-2.104.14-3.207.403-2.813.672-4.66 1.901-5.185 2.757zm-7.436 9.073c.202-.06.543-.551.661-1.662.133-1.26-.066-2.913-.546-4.537-1.015-3.432-2.727-5.153-3.4-5.153-.605.169-1.291 2.472-.183 6.214 1.052 3.559 2.886 5.321 3.468 5.138zm3.015-.318c-.897.666-1.147 1.209-1.096 1.412.082.33 1.051.815 2.871.815 1.027 0 2.174-.152 3.319-.439 3.786-.949 5.42-2.71 5.285-3.252-.082-.327-1.052-.812-2.873-.812-1.026 0-2.174.151-3.319.438-1.645.414-3.17 1.083-4.187 1.838zm-5.867 11.222c.083 0 .123-.02.136-.026.093-.046.184-.184.252-.381.327-.95.1-3.156-1.169-5.752-1.509-3.084-3.363-4.521-4.141-4.521-.083 0-.122.02-.135.025-.503.247-.796 2.632.919 6.138 1.506 3.081 3.36 4.517 4.138 4.517zm2.211.733c.08.182.573.449 1.611.449 1.287 0 2.948-.404 4.556-1.108 3.574-1.565 4.893-3.574 4.669-4.086-.079-.18-.573-.448-1.612-.448-1.287 0-2.947.404-4.555 1.109-1.553.681-2.946 1.596-3.823 2.51-.774.807-.93 1.383-.846 1.574zm-4.761 5.231c-1.812-2.344-3.832-3.608-4.812-3.608-.089 0-.21.012-.281.066-.444.344-.251 2.738 2.135 5.825 1.809 2.343 3.828 3.606 4.81 3.606.089 0 .21-.012.282-.066.083-.063.144-.218.17-.424.129-.997-.537-3.112-2.304-5.399zm4.83 4.436c-.595.946-.632 1.542-.511 1.713.074.104.321.215.794.215 1.3 0 3.307-.824 5.113-2.101 3.187-2.254 4.075-4.487 3.752-4.944-.073-.103-.32-.214-.794-.214-1.301 0-3.309.825-5.115 2.103-1.384.98-2.564 2.157-3.239 3.228zM9.976 97.57c.118 0 .33-.014.426-.108.075-.073.117-.233.119-.441.01-1.005-.901-3.026-2.926-5.089-2.04-2.075-4.048-3.021-5.051-3.021-.118 0-.329.014-.424.107-.401.395.073 2.749 2.807 5.531 2.036 2.076 4.045 3.021 5.049 3.021zm2.94-1.805c-.479 1.01-.445 1.607-.305 1.762.08.089.271.139.527.139 1.051 0 3.04-.838 5.115-2.71 2.898-2.614 3.515-4.938 3.141-5.354-.078-.087-.27-.137-.526-.137-1.051 0-3.042.839-5.119 2.713-1.258 1.135-2.291 2.443-2.833 3.587zm-.38 10.965c-.624-1.102-1.749-2.331-3.085-3.372-1.828-1.423-3.847-2.343-5.141-2.343-.329 0-.586.068-.671.18-.345.443.437 2.715 3.515 5.111 1.826 1.423 3.843 2.342 5.139 2.342.33 0 .587-.069.673-.18.13-.166.121-.765-.43-1.738zm2.961 1.591c1.019 0 3.035-1.161 4.918-3.379 2.527-2.974 2.831-5.358 2.404-5.722-.078-.066-.223-.081-.332-.081-1.02 0-3.038 1.162-4.921 3.383-1.096 1.292-1.946 2.725-2.333 3.931-.341 1.064-.229 1.651-.069 1.786.08.068.225.082.333.082z"/></svg>