<svg xmlns="http://www.w3.org/2000/svg" width="143.348" height="154.021" viewBox="0 0 143.348 154.021"><path fill="#0D2240" d="M84.864 153.224c33.04-5.138 58.483-35.27 58.483-71.57 0-31.465-19.31-58.262-46.12-68.034-1.073-2.61-2.663-5.057-4.78-7.174C88.29 2.29 82.763 0 76.884 0S65.477 2.29 61.32 6.446c-4.156 4.157-6.446 9.685-6.446 15.562 0 5.88 2.29 11.406 6.446 15.562 4.157 4.158 9.686 6.447 15.564 6.447s11.406-2.29 15.562-6.446c.053-.05.095-.107.146-.16 23.607 7.533 40.755 29.67 40.755 55.74 0 31.41-24.586 57.15-55.414 58.77-1.022.05-2.05.083-3.086.083-.023 0-.045.014-.068.015-26.787-.03-49.698-17.385-58.768-41.75 1.754-.262 4.012-1.776 5.927-4.03 2.545-2.997 4.11-6.893 2.175-8.54-.43-.365-.992-.56-1.628-.56-1.81 0-4.34 1.605-6.446 4.09-.802.945-1.46 1.94-1.97 2.917-.392-1.48-.737-2.975-1.026-4.49.034 0 .06.01.094.01 1.776 0 4.25-1.235 6.455-3.226 2.92-2.635 4.987-6.29 3.287-8.18-.33-.363-.944-.798-2.012-.798-1.777 0-4.252 1.237-6.46 3.23-.887.8-1.646 1.666-2.27 2.532-.133-1.455-.21-2.928-.247-4.408.26.06.556.094.894.094 1.737 0 4.08-.922 6.268-2.468 3.21-2.27 5.696-5.654 4.23-7.73-.342-.483-1.04-1.06-2.428-1.06-1.738 0-4.083.922-6.27 2.47-.982.695-1.844 1.47-2.568 2.26.11-1.61.28-3.21.505-4.795.418.11.918.18 1.522.18 1.576 0 3.48-.454 5.357-1.277 3.6-1.577 6.715-4.392 5.698-6.72-.27-.615-1.075-1.646-3.445-1.646-1.575 0-3.48.454-5.357 1.277-.88.387-1.703.835-2.443 1.318.306-1.22.648-2.43 1.02-3.626.788.318 1.788.496 2.986.496 1.187 0 2.503-.173 3.806-.5 3.813-.956 7.354-3.212 6.737-5.677-.37-1.478-2.125-2.326-4.812-2.326-1.187 0-2.503.172-3.805.5-.854.213-1.66.492-2.414.81.55-1.26 1.14-2.5 1.766-3.72.825.776 2.273 1.213 4.215 1.213 1.15 0 2.42-.158 3.673-.458 3.825-.916 7.39-3.136 6.8-5.605-.36-1.513-2.156-2.38-4.925-2.38-1.15 0-2.42.157-3.672.457-.958.23-1.85.532-2.663.88.69-1.056 1.415-2.09 2.167-3.103.365.19.79.3 1.262.3 1.815 0 4.296-1.465 6.472-3.822.945-1.024 1.724-2.12 2.294-3.187 1.708-1.38 4.426-3.187 5.753-4.068.46-.306.586-.927.28-1.387s-.926-.585-1.387-.28c-1.25.832-2.51 1.682-3.653 2.494.002-.567-.11-1.007-.276-1.342 1.938-1.594 3.974-3.088 6.116-4.463.465-.3.6-.917.3-1.382-.297-.466-.916-.6-1.38-.302-2.346 1.507-4.575 3.148-6.684 4.91-.186-.038-.377-.063-.58-.063-.207 0-.426.024-.65.062 1.04-1.11 2.113-2.187 3.223-3.21.405-.375.43-1.008.057-1.413s-1.006-.43-1.413-.058c-2.56 2.36-4.953 4.958-7.115 7.72-.07.087-.11.186-.145.285-.144.146-.288.283-.43.436-2.08 2.258-3.58 5.08-3.25 7.032-.865 1.14-1.69 2.31-2.48 3.503-.104-.742-.25-1.502-.47-2.27-.907-3.2-2.943-6.644-5.27-6.644-.21 0-.415.03-.613.086-2.442.694-2.633 4.89-1.56 8.673.772 2.72 2.365 5.61 4.253 6.412-.62 1.206-1.205 2.433-1.752 3.675-.11-.804-.28-1.634-.527-2.47-.938-3.172-3.003-6.586-5.317-6.586-.22 0-.435.032-.64.093-2.435.724-2.58 4.92-1.463 8.69.938 3.17 3 6.58 5.317 6.58.068 0 .134-.022.202-.03l.015.04c-.417 1.283-.796 2.583-1.138 3.895-.228-.672-.51-1.36-.847-2.05C9.86 64.734 7.49 61.9 5.295 61.9c-.362 0-.704.077-1.015.23-2.282 1.116-1.727 5.278.003 8.81 1.37 2.807 3.738 5.64 5.935 5.64.147 0 .29-.022.428-.048-.206 1.347-.375 2.704-.5 4.072-.274-.43-.566-.86-.896-1.284-2.06-2.664-4.57-4.386-6.396-4.386-.576 0-1.097.168-1.506.484-2.01 1.557-.627 5.52 1.777 8.63C5.18 86.71 7.688 88.43 9.517 88.43c.123 0 .242-.013.36-.026.02 1.084.063 2.16.135 3.232-.31-.375-.636-.748-.994-1.112-2.193-2.232-4.676-3.62-6.478-3.62-.94 0-1.515.373-1.828.685-1.812 1.782.03 5.554 2.784 8.357 2.19 2.232 4.672 3.62 6.476 3.62.398 0 .718-.076.992-.177.194 1.07.414 2.134.657 3.188-.303-.272-.613-.544-.944-.802-2.225-1.73-4.606-2.765-6.37-2.765-1.25 0-1.916.52-2.25.953-1.562 2.007.763 5.5 3.865 7.916 2.223 1.73 4.603 2.764 6.37 2.764.696 0 1.197-.167 1.576-.386 9.176 25.52 33.045 43.758 60.978 43.758 2.342 0 4.652-.136 6.93-.386.342-.035.676-.092 1.015-.133.694-.08 1.39-.163 2.074-.273zm-77.71-46.917c-3.078-2.396-3.86-4.668-3.516-5.11.085-.112.343-.18.67-.18 1.295 0 3.314.92 5.143 2.342 1.337 1.04 2.462 2.27 3.086 3.37.55.974.56 1.57.43 1.738-.086.11-.344.18-.673.18-1.296 0-3.314-.92-5.14-2.34zm8.08.146c.387-1.206 1.236-2.64 2.332-3.93 1.885-2.223 3.902-3.384 4.92-3.384.11 0 .256.014.333.08.427.362.123 2.747-2.404 5.722-1.883 2.218-3.9 3.38-4.918 3.38-.108 0-.253-.016-.333-.083-.16-.136-.273-.722.068-1.787zM2.12 89.02c.095-.096.307-.108.424-.108 1.002 0 3.01.945 5.05 3.02 2.025 2.063 2.937 4.085 2.927 5.09 0 .208-.043.368-.118.44-.096.096-.308.108-.426.108-1.004 0-3.012-.945-5.05-3.02-2.733-2.782-3.208-5.137-2.806-5.53zm18.747.444c.256 0 .447.05.525.138.375.416-.242 2.74-3.14 5.354-2.076 1.872-4.065 2.71-5.116 2.71-.256 0-.447-.05-.527-.14-.14-.153-.175-.75.305-1.76.543-1.146 1.576-2.452 2.833-3.59 2.077-1.873 4.067-2.712 5.12-2.712zM9.802 86.37c-.07.055-.192.066-.282.066-.98 0-3-1.265-4.81-3.606-2.386-3.087-2.58-5.48-2.135-5.825.07-.055.19-.065.28-.065.98 0 3 1.265 4.812 3.607 1.766 2.287 2.432 4.402 2.303 5.4-.024.205-.085.36-.168.423zm11.845-6.504c.323.457-.564 2.69-3.752 4.944-1.806 1.275-3.812 2.1-5.112 2.1-.474 0-.72-.11-.795-.214-.12-.17-.084-.767.512-1.713.675-1.07 1.854-2.248 3.237-3.23 1.808-1.275 3.814-2.102 5.115-2.102.475.002.722.114.795.216zM5.162 63.93c.013-.008.053-.026.135-.026.778 0 2.632 1.437 4.14 4.52 1.272 2.598 1.497 4.804 1.17 5.753-.067.197-.158.336-.252.382-.013.006-.053.024-.136.024-.78 0-2.633-1.436-4.14-4.517-1.715-3.506-1.422-5.89-.918-6.138zm8.114 9.812c.877-.914 2.27-1.83 3.823-2.51 1.607-.705 3.268-1.11 4.554-1.11 1.04 0 1.534.27 1.612.45.225.51-1.095 2.52-4.67 4.085-1.607.704-3.268 1.108-4.555 1.108-1.037 0-1.53-.27-1.61-.45-.084-.19.072-.766.846-1.573zm-3.49-21.416c.673 0 2.385 1.722 3.4 5.153.48 1.623.68 3.275.545 4.536-.117 1.11-.458 1.603-.66 1.66-.582.186-2.416-1.577-3.47-5.138-1.105-3.74-.42-6.043.186-6.212zm16.678 9.57c.135.543-1.5 2.304-5.285 3.253-1.146.286-2.293.437-3.32.437-1.82 0-2.79-.484-2.87-.814-.052-.203.198-.746 1.096-1.412 1.017-.754 2.542-1.424 4.187-1.837 1.146-.287 2.292-.438 3.32-.438 1.82 0 2.79.485 2.87.812zm-11.16-19.36c.672 0 2.366 1.734 3.346 5.19.463 1.63.645 3.283.496 4.542-.13 1.11-.477 1.598-.68 1.654-.02.007-.042.01-.066.01-.672 0-2.364-1.732-3.346-5.187-1.065-3.753-.355-6.048.25-6.21zm16.574 9.755c.13.544-1.524 2.285-5.32 3.193-1.102.264-2.21.402-3.207.402-2.077 0-2.914-.58-2.978-.848-.023-.098.024-.256.134-.433.524-.856 2.372-2.085 5.185-2.758 1.105-.265 2.212-.403 3.208-.403 2.08.002 2.917.583 2.98.848zm-3.633-12.02c2.013-2.185 4.003-3.18 5-3.18.105 0 .293.014.384.098.153.142.242.732-.145 1.784-.437 1.188-1.345 2.586-2.492 3.832-2.016 2.184-4.006 3.178-5.002 3.178-.103 0-.29-.014-.383-.098-.41-.378-.008-2.745 2.638-5.613zm113.103 41.383c0 8.75-1.53 17.124-4.3 24.856 1.813-6.15 2.8-12.67 2.8-19.425 0-28.245-17.086-52.44-41.167-62.253.377-2.93.175-5.914-.623-8.772 25.256 9.935 43.29 35.586 43.29 65.593zm-75.663-47.07c-.438-.337-1.066-.25-1.4.188-.383.503-.794.993-1.226 1.46-.04.042-.058.096-.088.143-.077-.074-.16-.14-.237-.215-.207-.207-.39-.432-.586-.646.093.026.187.042.28.042.318 0 .63-.15.824-.434.396-.575.77-1.175 1.104-1.782.27-.482.095-1.092-.39-1.358-.482-.27-1.092-.095-1.36.39-.305.55-.643 1.095-1.002 1.617-.157.23-.206.5-.157.755-2.963-3.577-4.577-8.03-4.577-12.732 0-5.174 1.966-10.037 5.52-13.772.046.14.116.273.228.387.444.452.873.93 1.272 1.42.198.242.486.368.776.368.222 0 .445-.073.63-.225.43-.35.493-.98.145-1.407-.438-.537-.907-1.06-1.396-1.558-.104-.105-.227-.18-.355-.23C67.345 3.777 71.972 2 76.884 2c5.16 0 10.012 1.956 13.743 5.49-.098.05-.192.105-.272.186-.486.496-.957 1.02-1.396 1.56-.35.43-.286 1.06.143 1.407.187.15.41.225.63.225.29 0 .58-.126.777-.368.4-.49.827-.968 1.27-1.42.067-.067.105-.146.148-.227.237.27.474.542.693.822-.382-.097-.8.036-1.05.373-.414.562-.805 1.146-1.16 1.74-.285.476-.133 1.09.34 1.373.163.098.34.144.515.144.34 0 .67-.173.858-.484.323-.54.68-1.072 1.057-1.583.125-.17.17-.363.177-.56 4.897 7.113 4.67 16.7-.675 23.588-.314-.47-.62-.948-.892-1.44-.27-.48-.877-.657-1.36-.388-.482.268-.657.876-.39 1.358.338.607.71 1.207 1.105 1.782.062.088.15.14.23.202-.12.124-.224.258-.346.38-.024.024-.052.044-.074.067-.287-.33-.58-.656-.84-1-.336-.44-.964-.527-1.402-.19-.44.335-.524.963-.19 1.402.295.386.623.753.945 1.122-3.553 2.886-7.95 4.458-12.588 4.458-4.584 0-8.927-1.54-12.458-4.36.032-.028.07-.04.1-.072.475-.512.93-1.05 1.35-1.603.335-.44.25-1.068-.19-1.402zm28.353 1.208c2.152-2.675 3.572-5.743 4.29-8.94 23.14 9.616 39.52 32.984 39.52 60.237 0 12-3.187 23.242-8.716 32.897 3.973-8.1 6.216-17.205 6.216-26.83 0-26.652-17.33-49.32-41.31-57.363z"/><path fill="#0D2240" d="M86.318 32.883c.175.354.528.558.897.558.15 0 .3-.032.443-.103.494-.245.696-.846.45-1.34-.28-.57-.537-1.157-.76-1.745-.197-.516-.775-.775-1.29-.58s-.775.775-.58 1.29c.248.648.53 1.295.84 1.92zM85.683 17.828c-.543-.114-1.07.234-1.183.774-.143.682-.253 1.378-.33 2.067-.062.55.335 1.043.884 1.103.037.004.074.006.11.006.504 0 .937-.38.994-.89.068-.63.17-1.263.3-1.883.113-.538-.234-1.067-.775-1.18zM86.338 26.584c-.11-.624-.19-1.26-.24-1.89-.042-.55-.535-.95-1.074-.92-.55.044-.962.524-.92 1.076.057.692.145 1.393.266 2.08.085.483.507.825.983.825.058 0 .115-.005.174-.015.543-.094.907-.612.81-1.156zM87.994 12.307c-.487-.264-1.094-.08-1.354.406-.328.61-.63 1.248-.9 1.894-.214.51.027 1.096.536 1.31.126.052.258.076.386.076.39 0 .763-.23.923-.614.245-.587.52-1.164.816-1.718.263-.488.08-1.094-.406-1.355zM89.766 27.503c-.12-.54-.66-.88-1.194-.757-.538.12-.878.655-.757 1.194.153.68.34 1.36.555 2.02.138.422.528.69.95.69.104 0 .207-.018.312-.05.524-.173.812-.736.64-1.263-.198-.597-.367-1.215-.506-1.834zM89.32 21.823c.036-.55-.382-1.026-.933-1.062-.554-.004-1.026.386-1.062.937-.03.47-.046.942-.046 1.412 0 .227.003.454.01.68.017.543.46.97 1 .97h.03c.553-.018.985-.48.97-1.03-.007-.205-.012-.41-.01-.617 0-.43.014-.86.04-1.29zM88.955 18.816c.444 0 .85-.3.967-.75.16-.61.35-1.223.564-1.817.188-.52-.08-1.094-.6-1.282s-1.092.08-1.28.6c-.237.654-.446 1.327-.62 2-.14.533.182 1.08.717 1.218.085.02.17.03.252.03zM69.378 23.32c-.542-.038-1.032.368-1.075.92-.05.63-.13 1.266-.24 1.89-.095.544.27 1.062.813 1.158.06.01.117.015.174.015.477 0 .9-.342.984-.826.12-.688.21-1.387.264-2.08.042-.55-.37-1.033-.92-1.076zM66.817 14.924c.16.385.532.614.924.614.13 0 .26-.023.386-.077.51-.212.75-.798.537-1.308-.27-.646-.573-1.28-.9-1.894-.263-.486-.87-.67-1.355-.406-.487.262-.67.866-.408 1.354.297.554.572 1.132.817 1.718zM68.343 29.218c-.515-.2-1.094.062-1.29.58-.224.587-.48 1.175-.762 1.744-.244.494-.04 1.096.453 1.34.143.07.294.104.442.104.37 0 .724-.204.897-.557.31-.628.593-1.273.84-1.923.197-.515-.063-1.093-.58-1.29zM67.943 18.557c.13.62.23 1.253.3 1.88.057.512.49.89.992.89.037 0 .074 0 .11-.005.55-.062.946-.555.885-1.104-.077-.69-.188-1.387-.33-2.067-.112-.54-.642-.89-1.183-.773-.54.11-.886.64-.774 1.18zM66.08 24.304h.03c.54 0 .983-.427 1-.97.008-.226.012-.453.01-.68 0-.47-.015-.942-.044-1.413-.035-.55-.5-.955-1.062-.934-.55.034-.97.51-.934 1.062.026.43.04.858.04 1.29 0 .205-.002.41-.01.614-.016.553.418 1.015.97 1.032zM65.446 18.362c.083 0 .167-.01.25-.032.536-.14.856-.685.72-1.22-.175-.67-.384-1.344-.622-2-.19-.52-.764-.787-1.28-.597-.52.188-.788.762-.6 1.28.216.597.406 1.207.564 1.818.118.453.523.752.968.752zM65.83 26.292c-.536-.118-1.074.218-1.194.757-.14.618-.31 1.236-.504 1.835-.17.525.115 1.09.64 1.262.104.034.208.05.312.05.42 0 .812-.27.95-.69.216-.657.4-1.338.555-2.02.118-.54-.22-1.074-.76-1.195zM63.992 11.334c-.357-.595-.75-1.18-1.163-1.74-.33-.443-.955-.54-1.4-.212-.443.328-.537.955-.21 1.398.378.51.733 1.043 1.058 1.583.188.312.52.485.858.485.175 0 .354-.047.514-.144.473-.282.626-.896.342-1.37z"/></svg>