<svg xmlns="http://www.w3.org/2000/svg" width="216" height="167.889" viewBox="0 0 216 167.889"><g fill="#0D2240"><path d="M66.822 154.348l.177-.207-.115-.07zM55.133 145.412c.007.003.018.01.025.01-.013-.01-.02-.012-.025-.01M53.953 22.35a.247.247 0 0 0-.014.073c.088-.096.18-.192.28-.302l-.267.23zM152.92 15.19c-.13-.123-.27-.226-.5-.24l.5.24M151.462 14.1c-.75-.192-1.474-.357-2.17-.48a49.16 49.16 0 0 1 3.066 1.302l-.194-.37c-.262.098-.455-.206-.702-.453"/><path d="M152.37 14.944c.02 0 .032.005.05.006-.02-.01-.04-.02-.06-.028l.01.022z"/><path d="M152.418 14.95c-.017-.002-.03-.006-.048-.006l-.012-.02a48.572 48.572 0 0 0-3.066-1.304c.696.122 1.42.288 2.17.48.248.247.44.55.702.45l.194.372.06.027c.23.015.372.117.503.24l-.502-.24m-9.83-3.572c-3.602-1.08-7.308-1.963-11.752-2.056 3.325-.46 7.022-.55 10.487-.705a97.626 97.626 0 0 1 3.81 1.8 9.17 9.17 0 0 0-2.545.96m-16.59-2.31c-3.63-.238-6.88.547-10.632 1.094 5.01-1.844 9.932-3.562 14.017-5.7.834.146 2.016.494 2.842.47-.056.052 0 .14-.222.12.822.405.28-.36 1.214.17l-.277.082c.12.01.236.038.348.072-3.453.336-6.353 1.46-7.29 3.692m-15.64 2.216c-3.59.846-6.772 2.76-9.757 4.062 3.535-3.354 10.556-6.882 13.576-11.31-9.526 2.63-17.842 6.637-19.634 14.463-2.378 1.79-5.36 3.236-7.43 5.22 2.778-3.935 8.353-8.648 10.53-13.91-7.456 4-15.764 9.91-14.98 17.027-.334.312-1.483 1.274-2.3 2.02.324-.803 3.807-9.647 2.085-12.185-3.717 4.978-6.614 9.04-7.32 16.57-1.428.975-5.613 4.8-6.866 4.85 2.842-2.722 7.16-7.805 6.134-12.618-3.875 3.26-7.887 8.19-10.697 12.137-1.102 1.543-2.03 3.66-3.004 4.636.198-.226-.482.142-.712.234-3.666 1.454-6.285 2.155-4.734 1.112 7.857-5.4 8.976-12.476 9.505-12.894-.766.298-9.005 4.014-16.348 14.89-.384.11-.83.26-1.354.455-1.742.65-4.503.91-7.44.883 3.106-.958 10.02-3.797 11.404-6.32-3.08.44-6.212.982-9.46 1.76.027-.243.092-.522-.04-.525.526-.647.263.393.593.31-.012-.49.627-.687.484-1.1-.405.45-.134-.196-.192-.383.42-.625.06.187.443-.197.127-.292.127-.786-.212-.426.293-.332.287-.936.72-1.237.284-.05-.407.837-.13.68.578-.87-.17-.75.32-1.6-.332.277-.412-.266-.246-.73.698-.842-.165.464.292.278l.214-.378c.644-.276-.228 1.4.345 1.104l.16-.453c.028.146.1.378.29.28-.144-.247.564-.928.563-1.033-.12-.206-.164.35-.258.186.232-.44.066-.838.61-1.383-.116.435.328.05.33.265.283-.25-.14-.252.26-.614l.068.128c1.222-1.55 2.685-3.513 3.418-5.145.37-.087.778-.576 1.548-1.203-.35.268-.178-.14-.03-.34l.505-.172c.5-.32.834-1.036 1.095-1.527.1-.034.168-.007.235.02.464-.253.26-.488.355-.674l.362-.108-.07-.175c.298-.433.814-.878.962-.62.107-.182.21-.36-.028-.242.488-.226 1.458-1.232 2.09-1.907-.373.234-.404.146-.55.034-.102-.318.194-.095.353-.476.082.078.47-.11.192.25 1.183-.505 2.216-1.932 3.488-2.81.213-.232.108-.212.177-.37.947-.36 1.662-1.392 2.602-1.88-.264.033-.204-.455.266-.807.373-.583.407.14.955-.074.166-.267.583-.61.776-.73l.01.047c.205-.322.635-.68 1.044-.813l-.045.05c.297-.167.712-.25.998-.463.008-.29.81-.643.88-.94.048 0 .002.052.108.042l-.076-.19.66-.276c-.093.147-.083.238-.222.39.716-.268.124-.29.41-.587.385-.396.46-.21.72-.265-.137.198-.356.156-.452.255-.18.29.307-.105.373-.012.1-.05.022-.288.378-.444.3-.15.95-.604.97-.363.193-.247.494-.398.634-.596-.254.105-.712.31-.83.22.2-.152.598-.455.71-.41l-.147.15c.142-.158.81-.447.386-.445l.586.01c.093-.24.558-.47.916-.703.118.19-.07.572.65.25l.502-.518c.308-.187.412-.185.42-.04 1.133-.455.87-1.103 1.822-1.342-.262.416.057.293.478.18 0-.05 0-.147.157-.23-.16-.06-.157.277-.53.253-.158-.107.316-.268.476-.4.99.14 2.652-1.033 4.045-1.283-.2-.265.54-.32.763-.537.03.338.706-.344 1.133-.264l-.303-.24c.86-.1 1.148-.926 1.77-.723.48-.063-.08.28-.25.397.73.137 1.56-.877 2.184-.625.02-.144-.232-.297.285-.572.483.008 1.404-.08 1.34.002.343-.168.415-.3.84-.3-.013.094-.18.155-.298.23.653-.1 1.116-.4 1.652-.64.402.16 1.495-.228 2.252-.265.35-.398 1.208-.166 1.188-.558-.01.045.094.08.144.095.253-.165.43-.46.78-.542l-.066.28c-.02.318.874-.062 1.1.005-.232-.138.435-.06.43-.252l.4-.16c.65-.19.056-.144.867-.33.463-.08.2.276.037.27.41.08.795-.047 1.19-.157-.148.02-.203.01-.07-.067.014.032.056.047.11.055a3.77 3.77 0 0 1 .448-.1c-.003.005-.003.01-.005.014.193-.045.4-.095.584-.14.11-.04.215-.07.297-.07.24-.057.34-.07.095.02a.176.176 0 0 0-.095-.02l-.298.07c-.165.06-.337.145-.455.185a.938.938 0 0 1 .346.01l-.085.22c.286-.027 1.048-.364 1.014-.45 1.12-.003 2.943-.24 3.715-.418a.81.81 0 0 1 .242-.063c-.06.02-.144.042-.242.063-.12.055-.124.11.01.034.386-.07.815-.28.86-.15.376-.116.36.11.944.117.01.035.05-.116-.013-.164.987.244 2.203-.254 3.37-.1-.096.02-.228.14-.32.207.906-.137 1.766-.14 2.59-.376-.09.09-.066.18-.28.224.628.02 1.36-.006 1.663-.187-.426-.11-.035.11-.324.09-.445-.198.375-.358.79-.293l.01.044c.634.02.67-.094 1.303-.073.37.132-.336.046-.19.18.13.312 1.423.29 1.548.365.154-.056.373-.088.355-.18.5-.03.21.218.55.24l1.41-.454c.013-.015.036-.024.084-.027l-.083.028c-.062.082.41.326-.017.392 1.028.07 1.657-.246 2.323-.38.303.063 1.31.147 1.653.187.138.2-.286-.063-.384.058l.48.297c-.682-.098.038.323-.35.38.56-.012 1.824.35 2.623.555-.49-.477 1.12.023 1.153-.312.785.097.572.266.648.407-7.73.23-13.73 3.015-15.985 7.65m64.7 22.558a56.932 56.932 0 0 0-1.58-2.018c-.625-.774-1.25-1.54-1.732-2.19-.775-.914-1.554-1.834-2.344-2.75-3.416-3.96-7.035-7.832-11.42-10.868.215.293-.154.183-.44.01l-.02-.12-.52-.14a1.013 1.013 0 0 1-.11-.08c-.228-.196.044-.24.36-.053-2.152-1.45-4.027-2.828-6.2-4.102-.284.157-1.134-.662-1.353-.45-.072-.106.026-.063.116-.076-.77-.373-1.182-.585-1.55-.824-.386-.25-.722-.53-1.368-1.055a59.888 59.888 0 0 0-7.394-3.615c-3.653-1.49-7.41-2.644-11.243-3.604C121.67.377 115.018-.11 108.137.017c-1.043.492-2.495.27-3.712.762l.072-.144c-1.045.28-1.326.064-2.683.002 0 .16-.51.084-.296.33-.44.248-.87-.29-1.526-.083-.03-.085.035.153-.116.09-1.684.54.315-.187-1.906-.154-3.05.514-6.076 1.45-8.983 2.005.176-.054.31.13.02.202-.38-.334-.932.393-1.474.374.016-.096.25-.19.37-.267-1.334.225-2.36.736-3.614.99-1.09.567-2.54.67-3.23 1.162.122-.23-.547.086-.82.105-.633.814-2.274.706-3.155 1.48v-.094c-2.99 1.398-6.284 2.904-9.113 4.926-1.63 1.044-3.714 1.866-5.334 3.31-.28.288.034.193-.197.42-.442.307-.083-.132-.286-.058-.74.784-2.007 1.4-3.023 2.26-.072.162-.347.413-.177.43-1.376.628-2.59 2.325-3.875 3.14.684-.01-.524.75-.818 1.213-.226.192-.327.134-.318.01-.77.826-1.184 1.248-2.23 2.1-.403.484-.344.78-.904 1.28-.53.132-1.072 1.138-1.652 1.6.306.033-.16.874-.706 1.362l-.123-.418c-1.063 1.508-5.22 6.596-9.628 14.752A103.772 103.772 0 0 0 35.1 50.43l-.18-.037c-.19.71-.394 1.663-.72 2.502-.12.31-.257.604-.416.865.037.35-.305 1.412.07 1.015-.12.423-.385.156-.364.643l-.094-.486a40.635 40.635 0 0 0-.902 2.68l2.18-.42c.084-.16.193-.365.275-.717-.127-.34-.095.354-.31.294-.218.012-.043-.556.063-.98.255-.66.36-.254.6-.466-.014.14-.18.656-.28.558-.062.905.557-.195.515.43.35-.572.102-.647.153-.995-.098.183-.176-.174-.305-.063-.152-1.307.68-.53.978-1.6-.125.02-.177-.097-.203-.26 2.192.47 4.376.684 6.173.778 1.564.108 3.615.512 4.424-.34-2.957-1.63-5.99-2.964-9.08-4.15.238-.502.618-.796.637-.693l-.024.622c0-.483.17-.13.272-.572-.083-.18-.16-.524-.264-.74a.995.995 0 0 1 .188-.347h.302c.328-.003.654-.008.978-.016 3.006 3.444 8.38 5.163 16.06 4.42 0 .055 8.208-1.463 9.936-3.273-1.82-1.066-6.764-.434-8.847-.702 0 .05-7.628-.733-9.125-1.024 3.473-.165 6.067-1.227 9.182-1.885 8.626 4.455 19.665-2.922 25.343-7.58-7.55.88-14.13 3.91-19.63 4.88 3.04-1.155 5.45-2.88 8-4.523.014 0 .026-.004.026-.004l.177-.13c.36-.228.723-.46 1.092-.686 7.445 1.332 18.458-6.632 20.782-11.738-5.804 2.308-11.654 5.354-16.324 8.382 2.058-1.626 4.523-3.81 5.704-4.952 2.87-2.633 5.3-3.178 10.786-4.533 5.258-1.304 10.42-3.663 14.37-4.66-2.282-2.606-9.22-1.285-14.145.576 1.623-1.3 3.774-2.283 5.687-3.394 5.08 1.47 13.546-.324 21.16-.706-1.913-3.57-8.523-3.872-14.717-2.158 2.075-1.45 5.453-2.077 8.287-2.986 4.684 2.572 12.236 2.72 18.678 4.394-.26-4.04-6.716-5.45-12.486-5.44 2.74-1.11 6.517-.56 9.59-.805 4.035 4.086 10.812 6.162 16.76 9.415-.124-4.104-5.367-7.057-10.362-8.277 5.56.4 10.158 1.835 14.27 3.895-2.005 5.15 7.292 9.708 12.743 11.57-2.797-3.25-8.268-7.89-10.464-10.345 5.947 3.442 10.983 8.144 16.713 12.74 1.87 2.73 4.118 6.05 5.99 7.925.51.556-.06.45.157.702 1.127 1.285 2.032 2.957 2.948 4.52l1.25-.137c-1.366-2.534-2.69-5.024-4.298-7.578"/><path d="M35.69 55.312a1.12 1.12 0 0 0 .084-.28 1.02 1.02 0 0 0-.084.28M45.064 131.98c1.112-.692 2.3-1.306 3.492-1.817-1.38.35-2.688.75-3.937 1.193.23.044.33.32.444.623"/><path d="M157.154 148.48c-.396.058-.974.48-1.95 1.018.433-.235.148.173-.058.363l-.568.112c-.385.174-.742.528-1.062.878-.298.184-.597.366-.894.552-.053.033-.104.064-.156.098-.19.16-.14.343-.255.47l-.405.063.026.193c-.423.414-1.076.812-1.165.522-.158.17-.32.33-.035.252-.573.16-1.906.984-2.737 1.616.45-.193.457-.096.58.04.022.35-.228.073-.495.45-.062-.092-.52.046-.13-.288a3.768 3.768 0 0 0-.38.11c-1.285.433-2.654 1.548-4.107 2.157-.292.2-.176.198-.294.347-1.1.215-2.17 1.096-3.308 1.425.29.015.087.498-.513.77-.565.525-.396-.213-1.037-.094-.25.245-.807.477-1.05.56l.005-.05c-.318.268-.875.564-1.35.62l.063-.042c-.364.116-.83.124-1.196.287-.093.288-1.064.45-1.227.73-.053-.01.012-.05-.105-.067l.028.203-.79.142c.142-.13.156-.23.35-.35-.842.13-.217.268-.607.514-.526.324-.552.123-.845.13.205-.173.426-.09.555-.172.275-.262-.357.05-.4-.06-.122.03-.105.294-.534.372-.368.078-1.202.376-1.153.133-.28.2-.65.278-.86.44.305-.043.858-.138.96-.022-.262.104-.78.31-.887.238l.2-.113c-.2.113-1 .266-.546.35l-.625-.12c-.166.23-.736.358-1.19.496-.07-.215.245-.543-.63-.4l-.694.392c-.387.11-.497.083-.463-.062-1.357.188-1.264.905-2.363.9.407-.346.025-.303-.463-.29-.012.046-.04.14-.237.185.156.097.252-.23.646-.12.14.146-.42.188-.632.28-1.027-.372-3.174.35-4.752.258.136.302-.68.192-.986.32.066-.343-.868.125-1.307-.048l.257.312c-.958-.12-1.517.615-2.13.26-.54-.06.172-.253.39-.324-.747-.28-1.953.36-2.554-.01-.062.135.164.347-.477.483-.522-.13-1.547-.278-1.45-.346-.424.054-.54.156-1 .025.042-.086.242-.092.39-.126-.736-.106-1.326.022-1.98.127-.39-.256-1.69-.16-2.518-.39-.497.273-1.356-.234-1.452.164.024-.04-.077-.1-.13-.13-.32.092-.6.33-1.004.316l.154-.253c.115-.287-.953-.197-1.185-.337.2.2-.49-.09-.54.1l-.48.02c-.76-.03-.105.118-1.035.033-.527-.056-.135-.328.038-.272-.423-.193-.88-.172-1.342-.188.17.03.228.06.06.088-.005-.036-.045-.063-.1-.09a3.448 3.448 0 0 1-.515-.053c.007-.007.003-.01.007-.014l-.68-.06a1.122 1.122 0 0 1-.32-.03c-.28-.027-.398-.046-.105-.052.024.023.062.04.105.052.09.01.2.02.32.03.207-.004.428-.026.568-.023-.15-.033-.293-.07-.38-.128l.157-.182c-.316-.07-1.237 0-1.225.093-1.224-.36-3.284-.733-4.154-.826a.976.976 0 0 1-.257-.02c.066.002.156.01.257.02.165-.008.196-.063.023-.036-.437-.062-.962-.007-.973-.146-.437-.016-.35-.24-.977-.443 0-.038-.09.09-.036.158.024.014.052.024.075.04-.04-.006-.06-.02-.075-.04-.985-.585-2.45-.484-3.64-1.098.106.017.28-.042.397-.07-.994-.24-1.938-.483-2.89-.554.122-.057.124-.15.37-.118-.538-.174-1.134-.367-1.546-.42a.44.44 0 0 1 .082.028c.414.367-.503.196-.924-.03l.003-.046c-.664-.268-.734-.175-1.398-.444-.356-.273.367.09.254-.096-.038-.366-1.43-.815-1.54-.935-.182-.006-.424-.058-.433.035-.542-.16-.158-.287-.514-.437l-1.64-.104c-.017.007-.044.008-.095-.007l.094.006c.097-.052-.338-.468.136-.37-1.076-.45-1.805-.46-2.545-.606-.284-.213-1.352-.634-1.707-.808-.086-.24.29.166.43.087l-.427-.463c.7.35.055-.317.485-.23-.598-.2-1.805-1.088-2.582-1.61.37.657-1.172-.48-1.298-.188-.95-.562-.32-.538-.627-.832-1.013-.533-1.89-1.186-2.746-1.775 0 0 .012-.047.07-.032-.823-.485-2.015-1.482-2.956-1.818.076-.03.042-.13.27-.025-.734-.74-.4.23-1.207-.688l.31.042c-.667-.342-1.02-1.025-1.83-1.36.033-.09.195.005.317.043-.653-.418-1.27-1.044-1.9-1.31-.01-.15.127-.152.4-.007-.487-.612-.804-.332-1.255-.884-.125-.13-.285-.42-.256-.436-.373-.135-1.108-.853-1.408-1.08.002-.15-.173-.374-.405-.767-2.755-2.688-5.308-5.707-7.84-8.604-.007-.037-.01-.064-.012-.09l.136-.095.057-.037c3.12-2.127 5.99-4.285 7.905-6.876 3.194-.342 6.982-1.58 9.97-1.02-5.923 1.07-12.322 3.646-11.938 7.605 6.34-2.826 14.07-4.386 18.464-7.752 3.053.35 6.622.322 8.987 1.34-6.634-.5-13.37 1.03-14.76 4.844 7.876-1.057 16.855-.91 21.83-3.283 2.144.716 4.51 1.267 6.384 2.218-5.357-.877-12.687-.856-14.61 2.094 4.214.224 9.892 1.54 15.496 1.814 5.85.284 8.43.357 11.803 2.367 1.394.886 4.276 2.536 6.65 3.724-5.283-2.055-11.776-3.905-18.105-5.05 3.207 4.503 15.792 10.148 23.217 7.463.416.15.828.305 1.234.46l.2.094h.028c2.88 1.11 5.635 2.327 8.94 2.877-5.805.092-13.044-1.607-20.933-1.045 6.577 3.443 19.093 8.513 27.233 2.587 3.3.053 6.133.594 9.724.102-1.49.563-9.19 2.75-9.2 2.702-2.096.65-7.27.964-8.968 2.338 2.064 1.427 10.732 1.36 10.725 1.306 8-.72 13.24-3.39 15.77-7.286a59.677 59.677 0 0 0 4.982-1.006c-.337.384-.65.76-.913 1.124m-103.75-20.416c-3.345.68-6.208 1.697-8.89 2.872l-.013-.074c-.572-.277-.433-.786-1.017-1.22l.09.036a2.683 2.683 0 0 0-.247-.442c3.345-.474 6.85-1.006 10.077-1.172m126.464-8.82c-.388.475-.406.054-.406.054l.14-.5c-.378.572-.293.884-.61 1.535-.444-.01.44-1.07.33-1.425l-.48.34c-.5.984.184.434-.41 1.413l-.068-.19-.244.675c.13.083.4.057.655-.507.163.544-.21.53-.588 1.435.054.388.17-.38.375-.29.11.006.09.157.02.365-.19.37-.388.736-.585 1.104-.13.068-.205-.074-.385.062.04-.15.295-.716.377-.596.25-.99-.603.154-.43-.53-.46.605-.216.712-.333 1.105.13-.197.146.205.293.094-.085 1.476-.788.512-1.31 1.66.353-.024-.04.987.103 1.233.045.08.146.08.345-.06-.094.304-.207.687-.4.94-.05-.4-.383.233-.38-.138 0-.037.004-.082.01-.142l-.23.396.08-.77c-.395.35-1.002.955-1.25 1.112-.255.622.322-.03-.032.65.028-.303-.32.03-.496.317.447-.513.314.203.138.605-.356.574-.847.883-.843.762l.16-.68c-.107.53-.196.126-.403.595.037.2.044.59.1.84-.193.39-.523.523-.58.666l.258-.652c-.46.77-.436-.085-.873.727l.027.318c-.127.127-.254.145-.215-.045.035.205-.283.612-.37.83l-.144-.034c-.137.37-.204.935-.692 1.135.48-.083.29-.36.795-.794.432-.178-.203.665-.273.8-.248-.255-.623.763-.907 1.127-.26.133-.447.28-.603.362l.066.294c-.443-.154-.48.8-.932 1.1.065-.296-.094-.385-.377-.15.57-.153-.206.9.06.94-.69.638-.178-.457-.533-.404-.103.527-.78.677-.738 1.137-4.85.93-10.235 1.993-14.274 3.28 2.77 1.668 6.855 1.71 10.65 1.147-.125.273-.266.558-.692.865.23-.444-.328-.095-.274-.323-.355.226.082.283-.425.615l-.04-.145c-.322.3-.662.614-1.01.934-7.61-1.31-14.26-1.356-20.645-1.056 1.826 2.18 9.38 3.632 12.72 3.978-3.01.578-5.884.844-7.776.54a20.466 20.466 0 0 0-1.465-.185c-9.287-9.15-18.34-11.2-19.177-11.347.61.305 2.896 6.94 11.832 10.694 1.76.722-1.04.533-5.04-.187-.25-.047-1.005-.273-.77-.093-1.157-.764-2.448-2.64-3.827-3.927-3.52-3.29-8.43-7.31-12.932-9.74-.28 4.852 4.97 8.96 8.324 11.063-1.294.187-6.206-2.732-7.828-3.406-1.936-7.157-5.564-10.544-10.18-14.667-1.358 2.78 3.64 10.685 4.1 11.4-.958-.566-2.29-1.284-2.686-1.522-.338-7.033-9.817-11.197-18.112-13.67 3.082 4.684 9.562 8.202 13.046 11.488-2.445-1.532-5.736-2.373-8.468-3.66-3.097-7.238-12.276-9.556-22.475-10.315 3.81 3.718 11.583 5.816 15.75 8.4-3.274-.7-6.847-1.958-10.67-2.103-3.61-4.795-12.16-6.12-22.074-3.483 4.827 1.592 10.728 2.398 16.757 3.338-3.94.172-7.4.022-11.09.934-2.358-3.546-10.564-2.503-16.68-.135-.025.01-.05.02-.075.028-.22-.264-.417-.45-.55-.452-.005-.203.178-.186.305-.127-1.324-2.127-2.58-4.578-3.753-6.69a8.56 8.56 0 0 1-1.88.255c1.058 2.482 2.267 4.91 3.695 7.234-.114-.396.21-.104.433.208l-.023.127.15.136.3.27c.31.467-.013.395-.286.008.366.61.73 1.2 1.097 1.774.495.78.993 1.536 1.498 2.284a167.858 167.858 0 0 0 .866 1.27c.41.592.824 1.187 1.248 1.793.225-.013.567.542.853.866.135.154.258.257.35.223.04.14-.048.05-.14.02 1.308 1.52 1.414 1.595 2.317 3.236 3.45 4.424 7.395 8.193 11.64 11.58a104.194 104.194 0 0 0 5.156 3.846c6.386 4.3 13.308 7.396 20.732 9.71 1.267-.108 2.763.6 4.217.557l-.12.112c1.207.085 1.445.386 2.888.907.047-.153.575.092.416-.217.554-.115.86.542 1.625.564.01.092.01-.158.152-.047 1.975.043-.394.074 2.01.78 3.455.402 7.002.53 10.318.736-.206.007-.297-.206.038-.2.312.436 1.125-.088 1.707.098-.046.087-.326.107-.48.142 1.515.227 2.774-.13 4.21.043 1.35-.22 2.945-.018 3.84-.288-.203.182.62.095.918.127.928-.637 2.666-.137 3.852-.663l-.03.096c3.657-.604 7.636-1.416 11.278-2.778 2.058-.7 4.52-1.115 6.68-2.23.38-.24.02-.202.33-.39.557-.23.05.148.29.11 1-.68 2.544-1.034 3.864-1.734.12-.15.486-.356.31-.403 1.198-.285 2.457-1.182 3.67-1.877.39-.273.778-.55 1.165-.83.092-.133.396-.322.71-.517.718-.53 1.43-1.072 2.134-1.626l-.115.028c.008 0 .07-.026.16-.065a.402.402 0 0 1-.044.037c.416-.098.85-.206 1.297-.323.146-.087.3-.178.47-.275.552-.44.577-.746 1.31-1.167.605-.036 1.418-1.044 2.143-1.444-.316-.09.408-.883 1.12-1.3l.016.454c1.753-1.702 4.592-3.66 6.474-5.977.18-.156.33-.295.426-.4a.338.338 0 0 1-.12.01c.046-.06.095-.124.14-.187l.307-.007c.333-.386.67-.766 1.01-1.144.427-.477.854-.95 1.276-1.42 1.235-1.383 2.422-2.78 3.41-4.32.088-.14.182-.273.268-.416.59-.586 1.455-1.597 1.953-2.248.514-1.02.75-1.347.957-2.144.223-.355.504-.464.655-.552.855-1.115 1.784-2.128 2.125-3.265l.17.062c.456-1.05 1.04-2.593 1.852-3.58.053-.38.558-1.547.12-1.137.195-.463.41-.138.478-.684l.007.554c1.376-2.488 2.29-4.733 3.2-7.334.585-.615.97-2.438 1.62-3.855.16-.92.9-2.343.723-3.125l.18.013a152.29 152.29 0 0 0 1.33-4.285c.278-.896.024-.965.118-1.698h.184a2.89 2.89 0 0 0 .014-.31l-1.034.12a82.754 82.754 0 0 1-1.516 5.198c-.09.496-.166.986-.217 1.433-.244.782-.306-.154-.424.68a.172.172 0 0 0-.063-.05c-.114.32-.235.638-.353.957l.017-.016-.12.302a104.83 104.83 0 0 1-.718 1.86c-.17.457-.338.916-.504 1.36a.866.866 0 0 0 .052-.24c-.218.522-.437 1.046-.663 1.565a87.686 87.686 0 0 1-.938 2.074 4.22 4.22 0 0 0-.085.165c-.007.006.008.015-.378.49M29.006 78.073c.012.007.022.018.036.02-.01-.025-.022-.028-.036-.02M30.045 76.292l-.077-.074a.36.36 0 0 0 .077.074M186.4 100.434a.326.326 0 0 0-.06-.085l.06.084z"/><path d="M7.818 104.91c-1.218.183-2.235-.49-2.273-1.82-.037-1.282.786-2.59 2.14-2.79.993-.15 2.232.386 3.765 1.65-1.086 1.653-2.323 2.764-3.632 2.96m26.24-36.192c1.444-.216 2.15.657 2.2 2.4.052 1.793-.925 5.644-3.82 9.01-1.797 2.07-4.282 3.935-7.746 4.813 3.12-9.627 6.25-15.757 9.366-16.222m.02 41.43c-1.264.19-2.408-.207-4.676-1.822-2.364-1.81-7.01-5.747-9.615-8.034 1.103-2.635 2.016-5.55 2.754-8.235 6.548-.875 11.086-3.817 14.122-6.948 4.888-4.95 7.018-11.24 6.882-15.955-.19-6.56-4.304-9.342-8.502-8.715-9.206 1.375-13.397 13.17-17.135 25-4.876-.918-5.315-5.124-5.35-6.303-.133-4.664 2.937-6.615 3.026-6.68L11.99 67.28c-3.322 2.71-5.725 7.393-5.57 12.723.178 6.2 3.57 10.635 9.454 11.918-.504 1.363-.962 2.77-1.468 4.08-2.077-1.285-4.184-2.05-6.757-1.667-5.416.81-7.754 6.15-7.646 9.893.1 3.485 2.445 7.768 8.538 6.856 3.43-.512 6.004-2.39 7.925-4.94 4.37 3.772 6.793 6.087 9.525 8.1 2.824 2.047 5.4 3.31 8.378 2.863 3.114-.465 6.717-2.805 9.864-6.826l-4.26-4.665c-2.098 2.68-4.002 4.25-5.896 4.533"/><path d="M66.317 99.62c-.534 3.475-2.184 10.67-4.893 11.024-.677.1-.782-.4-.124-2.71l3.816-12.255c1.003.21 1.62 1.148 1.2 3.94M51.93 80.1c1.533-.23 1.302 1.193.76 2.82-.833 2.542-2.125 4.897-6.3 4.697 0 0 2.2-7.018 5.54-7.517m21.148-10.007c1.16-3.725 2.593-7.49 4.173-7.727.95-.14.645 1.912.326 3.4-.48 2.182-1.54 6.253-4.676 13.823-1.527 3.624-2.387 5.245-4.633 5.94l4.81-15.437zm21.958 10.102c-3.07 6.738-6.032 10.835-8.244 11.166-.993.148-2.006-.42-.054-6.58l5.097-16.51 3.566-.534 1.37-4.322-3.61.54 1.992-6.372-7.175 1.073-1.992 6.37-3.7.553-1.37 4.323 3.745-.56-4.686 15.06c-.13.42-.245.825-.353 1.222-2.54 4.39-5.477 6.6-9.33 7.175-1.805.27-3.09-.31-3.974-1.054l.75-2.324c5.86-1.083 7.688-3.673 9.85-8.834 3.565-8.407 4.675-13.926 5.107-16.204.87-4.4-.53-8.876-5.448-8.14-4.377.653-7.407 4.04-9.93 12.394L60.498 88.53c-2.944 4.867-6.84 7.782-10.622 8.347-5.732.857-4.577-4.668-4.577-4.668 8.383-.02 11.908-3.53 13.668-8.478C61.643 75.92 57.2 72.776 52.1 73.538c-9.656 1.443-13.866 14.168-13.67 20.984.163 5.586 3.287 8.62 9.56 7.682 3.934-.588 7.175-2.465 9.814-4.955l-2.68 8.674c-2.156 6.962.082 10.694 4.55 10.026 3.52-.526 5.887-3.3 7.512-6.68 1.45-3.152 2.294-6.882 2.57-9.907.135-1.564.003-2.986.003-2.986 3.548-.388 6.535-1.894 9.03-4.414.282 3.875 2.575 5.253 5.575 4.806 5.687-.85 10.11-7.74 13.257-14.9-.39-.923-1.635-1.714-2.586-1.675M138.202 66.642l-4.106.613 3.604-11.707c1.246-3.943 3.517-5.312 3.517-5.312l-1.436-4.212c-2.075.31-4.17 1.55-5.66 3.316-4.978 1.825-11.31-.832-17.222.05-7.13 1.067-10.187 6.67-10.034 11.897.17 5.895 4.37 8.51 8.567 7.883 3.973-.595 6.372-3.784 6.372-3.784l-3.03-4.54s-1.265 1.732-3.115 2.01c-1.4.21-2.872-.55-2.93-2.598-.057-1.897 1.15-4.084 4.49-4.583 3.564-.533 8.64 1.024 13.39.727l-3.688 11.926-4.018.6-1.37 4.323 4.016-.6-1.28 4.258c-2.372 7.354-5.175 12.303-9.237 12.91-2.165.322-4.384-1.2-4.47-4.12-.05-1.793.676-4.887 4.928-5.163l-.195-6.764c-6.923.417-11.052 6.542-10.87 12.845.168 5.79 3.854 11.005 11.39 9.88 4.107-.613 10.284-3.34 14.26-16.285l2.65-8.632 4.152-.62 1.327-4.316zM148.097 57.7c2.12-.316 3.91-2.694 3.84-5.103-.072-2.512-1.98-4.182-4.1-3.864-2.212.33-3.915 2.54-3.843 5.052.07 2.408 1.89 4.246 4.103 3.916M198.205 69.513s-1.924 3.994-4.45 4.372c-.902.136-1.462-.348-1.5-1.68-.095-3.28 2.97-13.363 6.534-13.897 1.985-.297 2.112 2.567 2.112 2.567l-2.697 8.638zm-34.262-6.15c1.534-.23 1.305 1.193.762 2.818-.834 2.545-2.125 4.9-6.3 4.7 0 0 2.198-7.02 5.538-7.518m49.47-.856c-3.066 6.79-6.03 10.835-7.837 11.105-.768.114-1.646-.475.263-6.627l8.458-27.204-7.177 1.07-4.478 14.36s-1.158-3.996-5.445-3.354c-6.235.93-9.947 10.4-11.324 17.437-2.54 5.037-4.94 8-6.47 8.23-.77.113-1.603-.483.304-6.636l8.416-27.197-7.176 1.07-8.004 25.748c-.115.373-.22.732-.318 1.086-2.957 4.984-6.902 7.972-10.735 8.543-5.73.857-4.576-4.67-4.576-4.67 8.384-.016 11.91-3.527 13.67-8.475 2.675-7.812-1.768-10.956-6.866-10.194-8.144 1.216-12.412 10.45-13.435 17.404-2.61 5.27-5.093 8.37-6.664 8.605-.768.114-1.602-.48.305-6.634l5.1-16.512-7.178 1.073-4.685 15.06c-3.026 9.77-.032 13.027 4.075 12.414 3.445-.515 6.518-3.607 9.152-7.806.975 3.882 4.01 5.84 9.216 5.062 4.96-.74 8.822-3.53 11.76-7.02.37 3.63 2.574 4.878 5.254 4.478 3.11-.465 5.915-3.03 8.37-6.61.465 2.898 2.215 5.028 5.17 4.588 4.015-.602 7.007-5.32 7.007-5.32s.71 4.167 5.447 3.46c5.46-.817 9.668-7.365 12.986-14.86-.39-.92-1.635-1.71-2.586-1.672M124.667 107.453l2.785-.416-.08-2.81-2.786.417.08 2.81zm-.148-5.146l2.782-.416-.08-2.808-2.785.416.082 2.81zm-2.665 2.027l-.584-.365.558-.543-.17-5.85 6.477-.97 1.777 1.064.11 3.878-1.014 1.248 1.08.96.11 3.884-1.7 1.576-6.476.97-.167-5.852zM135.954 100.6l2.813-.42-.082-2.818-2.813.42.082 2.817zm6.234 6.572l-2.906.435-2.456-4.793-.804.12.147 5.137-2.72.408-.365-12.61 6.514-.972 1.767 1.065.133 4.632-1.807 1.762 2.495 4.818zm-8.906-4.545l-.573-.366.546-.54.026.907zM152.485 105.634l-7.075 1.057-.17-5.85-.582-.365.556-.542-.17-5.85 7.02-1.05.066 2.327-4.307.644.082 2.81 3.71-.555.066 2.335-3.708.554.08 2.808 4.365-.652zM168.332 90.603l-2.094 12.976-2.766.413-1.428-5.26-1.125 5.64-2.765.414-2.814-12.244 2.777-.415 1.3 6.28 1.297-6.667 2.243-.334 1.664 6.23.926-6.617zM178.992 101.673l-7.075 1.057-.17-5.85-.58-.366.555-.542-.17-5.85 7.02-1.05.066 2.327-4.308.643.082 2.81 3.71-.555.067 2.336-3.71.554.08 2.81 4.363-.653zM184.707 93.314l2.813-.42-.08-2.816-2.813.42.08 2.816zm6.234 6.573l-2.905.434-2.455-4.79-.805.12.15 5.138-2.72.405-.366-12.608 6.513-.975 1.768 1.066.134 4.632-1.807 1.76 2.494 4.82zm-8.905-4.545l-.574-.366.55-.54.025.906zM200.03 93.862l.134 4.647-2.748.41-.135-4.663-3.482-7.46 2.785-.416 1.987 4.42 1.687-4.967 2.877-.43z"/></g><path fill="#0D2240" d="M411.5 204.668H451v39.5h-39.5z"/></svg>