<svg xmlns="http://www.w3.org/2000/svg" width="216" height="167.889" viewBox="0 0 216 167.889"><g fill="#0D2240"><path d="M66.822 154.348l.177-.207-.114-.071zM55.133 145.412l.025.011c-.013-.01-.021-.013-.025-.011M53.953 22.351a.247.247 0 0 0-.014.072l.281-.302-.267.23zM152.921 15.191c-.131-.124-.271-.227-.502-.241.168.079.336.16.502.241M151.462 14.099a30.054 30.054 0 0 0-2.17-.479 49.16 49.16 0 0 1 3.066 1.302l-.194-.371c-.262.099-.455-.205-.702-.452M152.371 14.944c.018 0 .031.005.048.006l-.06-.028.012.022z"/><path d="M152.418 14.949c-.017-.001-.03-.005-.048-.005l-.012-.021a48.572 48.572 0 0 0-3.066-1.303c.696.122 1.42.288 2.17.479.248.248.439.55.702.451l.194.372.06.027c.231.016.372.118.503.242-.167-.081-.334-.162-.503-.242m-9.83-3.571c-3.602-1.081-7.308-1.963-11.752-2.056 3.325-.459 7.022-.549 10.487-.705a97.626 97.626 0 0 1 3.809 1.8 9.17 9.17 0 0 0-2.544.961m-16.589-2.312c-3.632-.237-6.88.548-10.633 1.095 5.009-1.845 9.932-3.563 14.017-5.701.834.146 2.016.494 2.842.469-.056.053 0 .14-.222.121.822.405.28-.361 1.214.171l-.277.081c.121.01.236.038.348.072-3.453.336-6.353 1.459-7.289 3.692m-15.64 2.216c-3.592.846-6.773 2.761-9.758 4.062 3.534-3.354 10.555-6.882 13.575-11.31-9.526 2.631-17.842 6.637-19.634 14.463-2.378 1.789-5.36 3.236-7.431 5.221 2.779-3.936 8.354-8.649 10.532-13.91-7.457 3.998-15.765 9.909-14.98 17.026-.335.312-1.484 1.274-2.301 2.019.324-.802 3.807-9.646 2.085-12.184-3.717 4.979-6.614 9.04-7.32 16.571-1.428.975-5.613 4.801-6.866 4.851 2.841-2.723 7.158-7.806 6.133-12.619-3.875 3.261-7.887 8.191-10.697 12.137-1.102 1.544-2.029 3.662-3.004 4.637.198-.226-.482.142-.712.234-3.667 1.454-6.286 2.155-4.735 1.112 7.857-5.401 8.976-12.476 9.505-12.894-.767.298-9.006 4.014-16.349 14.891-.384.11-.83.258-1.354.454-1.742.649-4.503.91-7.44.883 3.106-.958 10.02-3.797 11.404-6.319-3.08.439-6.212.981-9.46 1.758.027-.242.092-.521-.041-.524.527-.648.264.392.594.308-.012-.489.627-.686.484-1.099-.404.45-.133-.196-.191-.383.421-.625.059.187.443-.197.126-.292.126-.786-.213-.426.293-.332.287-.936.721-1.237.283-.051-.408.837-.131.68.578-.871-.17-.749.32-1.6-.332.277-.412-.266-.246-.729.698-.843-.165.463.292.277l.214-.378c.644-.276-.228 1.399.345 1.104l.161-.454c.027.146.098.378.289.28-.144-.247.564-.928.563-1.033-.121-.206-.164.349-.258.186.232-.44.066-.838.61-1.383-.116.435.328.049.33.265.283-.249-.141-.252.259-.614l.069.128c1.222-1.55 2.685-3.513 3.418-5.145.37-.088.778-.577 1.548-1.204-.349.268-.178-.141-.03-.341l.505-.171c.499-.319.834-1.036 1.095-1.527.099-.034.168-.007.235.021.464-.254.26-.489.355-.675l.362-.108-.07-.175c.298-.434.814-.879.962-.622.107-.181.211-.359-.028-.241.488-.226 1.458-1.232 2.089-1.907-.372.233-.403.145-.549.033-.102-.318.194-.095.353-.476.081.078.469-.11.191.25 1.183-.505 2.216-1.932 3.488-2.809.213-.233.108-.213.177-.372.947-.36 1.662-1.391 2.602-1.88-.263.034-.203-.454.267-.806.373-.584.407.139.955-.075.165-.267.582-.61.775-.731l.009.048c.206-.322.636-.679 1.045-.813l-.045.051c.297-.168.712-.25.998-.464.008-.289.811-.643.879-.939.049-.002.003.051.109.041l-.077-.188.659-.277c-.092.147-.082.238-.221.39.716-.268.124-.29.411-.587.384-.396.458-.209.719-.265-.137.198-.356.156-.452.255-.179.291.307-.105.373-.012.1-.051.022-.288.378-.444.3-.15.948-.605.97-.364.192-.247.493-.398.633-.596-.254.104-.712.309-.831.218.202-.151.599-.454.71-.409l-.146.149c.142-.157.811-.446.386-.444l.586.009c.094-.238.559-.47.917-.702.118.191-.071.572.651.251l.501-.519c.308-.187.412-.185.419-.04 1.134-.455.872-1.103 1.823-1.342-.262.416.057.293.478.179-.001-.048-.001-.146.157-.229-.161-.059-.157.277-.529.253-.159-.107.315-.268.475-.4.989.139 2.651-1.033 4.044-1.283-.2-.265.541-.32.763-.537.03.338.706-.344 1.133-.264l-.304-.242c.859-.099 1.148-.925 1.769-.722.482-.063-.079.28-.25.397.731.137 1.561-.877 2.185-.625.018-.143-.233-.296.284-.571.483.008 1.404-.079 1.339.002.344-.168.416-.299.842-.3-.014.094-.182.155-.299.229.653-.098 1.116-.4 1.652-.64.403.162 1.496-.227 2.253-.264.35-.398 1.208-.166 1.188-.558-.01.045.094.08.144.095.253-.165.43-.459.78-.542l-.066.279c-.021.319.874-.061 1.099.006-.231-.138.436-.059.43-.252l.4-.16c.65-.189.057-.144.868-.33.463-.081.2.276.037.27.41.08.795-.047 1.19-.157-.148.02-.203.009-.07-.067.014.033.056.048.11.056.147-.041.296-.078.448-.101l-.005.015c.193-.044.399-.094.584-.139a.942.942 0 0 1 .298-.071c.239-.056.339-.07.095.021a.176.176 0 0 0-.095-.021l-.298.071c-.164.061-.336.145-.454.185a.938.938 0 0 1 .346.011l-.086.22c.286-.028 1.048-.365 1.014-.45 1.122-.004 2.944-.241 3.716-.419a.809.809 0 0 1 .242-.063c-.06.02-.144.042-.242.063-.121.055-.124.11.009.034.387-.071.816-.282.862-.152.375-.115.36.111.943.118.01.035.052-.116-.012-.164.987.244 2.203-.254 3.37-.1-.096.021-.228.139-.319.207.905-.137 1.765-.14 2.588-.376-.089.09-.065.18-.28.224.629.021 1.361-.006 1.664-.187-.426-.112-.035.109-.324.09-.445-.199.375-.359.791-.294l.01.044c.633.018.669-.095 1.302-.074.372.132-.335.046-.19.179.131.313 1.424.291 1.549.366.154-.056.373-.088.355-.179.5-.032.21.217.551.238l1.41-.453c.012-.015.035-.024.083-.027l-.083.027c-.062.082.409.326-.017.392 1.028.071 1.657-.246 2.323-.379.303.062 1.309.146 1.653.186.138.201-.286-.063-.384.058l.482.297c-.683-.098.037.323-.35.38.559-.012 1.823.351 2.622.555-.489-.477 1.121.023 1.153-.312.785.097.572.266.648.407-7.731.23-13.731 3.015-15.985 7.65M175.06 33.84a56.932 56.932 0 0 0-1.58-2.018c-.625-.774-1.25-1.54-1.732-2.189-.775-.915-1.554-1.835-2.344-2.751-3.416-3.959-7.035-7.832-11.42-10.868.215.293-.154.183-.441.01l-.018-.12-.522-.14a1.013 1.013 0 0 1-.108-.08c-.229-.196.043-.239.359-.053-2.152-1.45-4.027-2.829-6.201-4.103-.283.157-1.133-.662-1.352-.449-.073-.107.025-.064.115-.077-.771-.373-1.182-.585-1.551-.824-.385-.25-.721-.531-1.367-1.055a59.888 59.888 0 0 0-7.394-3.615c-3.653-1.49-7.411-2.644-11.243-3.604C121.67.377 115.017-.109 108.136.017c-1.043.492-2.495.269-3.712.762l.072-.143c-1.045.28-1.326.064-2.683.002 0 .159-.511.084-.296.329-.44.249-.871-.288-1.526-.082-.032-.085.034.153-.117.09-1.684.54.315-.187-1.906-.154-3.049.513-6.076 1.45-8.983 2.004.176-.054.309.131.019.202-.379-.334-.931.393-1.473.374.015-.097.248-.192.37-.268-1.335.225-2.36.736-3.615.989-1.09.568-2.541.671-3.231 1.163.123-.231-.546.086-.818.105-.634.814-2.275.706-3.156 1.48v-.094c-2.992 1.398-6.285 2.904-9.114 4.926-1.63 1.044-3.714 1.866-5.334 3.31-.28.288.034.193-.197.42-.442.307-.083-.132-.286-.058-.739.784-2.007 1.401-3.023 2.261-.072.161-.347.412-.177.428-1.376.629-2.591 2.326-3.875 3.142.684-.012-.524.749-.818 1.212-.226.192-.327.134-.318.009-.77.827-1.183 1.249-2.23 2.102-.402.483-.343.78-.903 1.279-.53.132-1.072 1.138-1.652 1.6.306.033-.16.874-.706 1.362l-.123-.417c-1.063 1.508-5.219 6.596-9.628 14.752a103.772 103.772 0 0 0-3.598 7.327l-.18-.038c-.189.71-.393 1.663-.719 2.502-.121.31-.257.604-.416.865.037.349-.305 1.412.071 1.015-.121.423-.386.156-.365.643l-.094-.486a40.635 40.635 0 0 0-.902 2.679l2.181-.419c.083-.159.192-.365.274-.717-.126-.341-.094.354-.309.294-.218.013-.043-.555.063-.979.255-.661.359-.254.601-.466-.015.139-.181.656-.281.558-.062.905.557-.195.515.431.351-.573.102-.648.153-.996-.099.183-.177-.174-.306-.063-.152-1.307.681-.529.978-1.601-.125.021-.177-.096-.203-.26 2.192.471 4.376.685 6.173.779 1.564.108 3.615.512 4.424-.341-2.957-1.628-5.989-2.963-9.081-4.148.239-.503.619-.797.638-.694l-.024.623c0-.483.169-.13.272-.572-.083-.18-.159-.524-.264-.741a.995.995 0 0 1 .188-.346h.302c.328-.003.654-.008.978-.016 3.006 3.444 8.381 5.163 16.059 4.421 0 .054 8.209-1.464 9.937-3.274-1.82-1.066-6.764-.434-8.847-.702 0 .051-7.628-.733-9.125-1.024 3.473-.165 6.067-1.227 9.182-1.885 8.626 4.455 19.665-2.922 25.343-7.58-7.549.879-14.13 3.909-19.631 4.879 3.04-1.154 5.452-2.879 8.002-4.522.013 0 .025-.004.025-.004l.176-.129c.36-.229.723-.46 1.092-.687 7.446 1.332 18.459-6.632 20.783-11.738-5.804 2.308-11.654 5.354-16.324 8.382 2.058-1.626 4.523-3.809 5.704-4.952 2.87-2.633 5.3-3.178 10.786-4.533 5.258-1.303 10.42-3.662 14.37-4.659-2.282-2.606-9.22-1.285-14.145.576 1.623-1.3 3.774-2.283 5.687-3.394 5.08 1.469 13.546-.324 21.159-.706-1.912-3.57-8.522-3.872-14.716-2.158 2.075-1.45 5.453-2.077 8.287-2.986 4.684 2.572 12.236 2.72 18.678 4.394-.26-4.041-6.716-5.451-12.486-5.44 2.739-1.109 6.517-.561 9.59-.805 4.035 4.085 10.812 6.161 16.76 9.414-.124-4.104-5.367-7.057-10.362-8.277 5.56.401 10.158 1.835 14.269 3.895-2.004 5.151 7.293 9.708 12.744 11.57-2.797-3.249-8.268-7.889-10.464-10.345 5.948 3.442 10.984 8.144 16.714 12.741 1.869 2.729 4.118 6.048 5.989 7.924.511.556-.06.449.158.702 1.127 1.285 2.032 2.957 2.948 4.52l1.25-.137c-1.366-2.534-2.691-5.024-4.298-7.578"/><path d="M35.69 55.312a1.12 1.12 0 0 0 .084-.28 1.02 1.02 0 0 0-.084.28M45.064 131.979a26.364 26.364 0 0 1 3.492-1.816 44.87 44.87 0 0 0-3.937 1.193c.232.044.331.319.445.623"/><path d="M157.154 148.48c-.396.058-.974.48-1.949 1.018.432-.235.147.173-.059.363l-.568.111c-.385.174-.742.528-1.062.878-.298.184-.597.366-.894.552-.053.033-.104.064-.156.098-.191.16-.141.343-.255.471l-.406.062.026.193c-.424.414-1.077.812-1.166.522-.158.169-.321.331-.035.252-.573.159-1.906.984-2.737 1.616.449-.193.457-.096.58.041.022.348-.228.072-.495.449-.062-.092-.52.046-.129-.288a3.768 3.768 0 0 0-.38.11c-1.286.433-2.655 1.548-4.108 2.157-.293.199-.177.198-.295.347-1.099.215-2.169 1.096-3.308 1.425.29.015.087.498-.513.771-.565.524-.396-.214-1.037-.095-.25.245-.807.477-1.049.559l.004-.05c-.318.269-.875.565-1.351.622l.064-.043c-.364.115-.83.123-1.196.286-.093.288-1.064.45-1.227.729-.053-.01.012-.05-.105-.066l.028.203-.789.142c.141-.131.155-.229.349-.351-.842.131-.217.269-.607.515-.525.325-.551.124-.844.132.205-.174.426-.091.555-.173.275-.262-.357.049-.4-.059-.122.03-.105.293-.534.371-.368.078-1.202.376-1.153.133-.281.2-.651.278-.86.439.305-.042.858-.137.96-.021-.262.103-.78.308-.887.237l.201-.113c-.201.113-1.002.266-.547.351l-.625-.12c-.166.229-.736.357-1.191.495-.07-.216.246-.544-.629-.401l-.694.392c-.388.109-.498.083-.464-.062-1.357.188-1.264.905-2.363.899.407-.345.025-.302-.463-.29-.013.047-.042.142-.238.186.156.097.252-.231.646-.119.14.145-.419.187-.631.278-1.027-.371-3.174.35-4.752.259.136.302-.68.192-.986.32.066-.343-.868.125-1.307-.048l.257.312c-.958-.121-1.517.615-2.13.261-.539-.06.172-.254.39-.325-.747-.281-1.953.359-2.554-.011-.062.136.164.348-.477.484-.521-.131-1.546-.278-1.449-.346-.424.054-.54.156-1.001.025.043-.086.243-.092.39-.126-.735-.105-1.325.023-1.979.128-.389-.256-1.689-.159-2.518-.39-.497.273-1.356-.234-1.452.164.024-.041-.077-.102-.129-.13-.321.091-.601.328-1.005.315l.154-.253c.115-.287-.953-.197-1.185-.337.199.2-.491-.089-.541.099l-.479.021c-.759-.031-.105.118-1.035.033-.527-.055-.135-.327.038-.271-.423-.193-.88-.172-1.342-.188.17.03.228.06.061.088-.006-.036-.046-.063-.101-.089a3.448 3.448 0 0 1-.515-.054c.006-.007.002-.009.006-.014l-.681-.062a1.122 1.122 0 0 1-.319-.029c-.28-.027-.398-.046-.105-.052.024.023.062.04.105.052.091.009.201.02.319.029.208-.003.429-.025.569-.022-.151-.033-.293-.07-.381-.128l.158-.181c-.316-.069-1.237.001-1.225.093-1.224-.361-3.284-.734-4.154-.827a.976.976 0 0 1-.257-.021c.066.003.156.011.257.021.165-.008.196-.063.023-.036-.437-.062-.962-.007-.973-.146-.437-.016-.351-.241-.977-.443-.001-.037-.089.09-.036.159.024.014.052.024.075.04-.039-.006-.061-.021-.075-.04-.985-.585-2.451-.484-3.641-1.098.107.017.282-.042.398-.07-.994-.241-1.938-.483-2.89-.554.122-.057.124-.149.37-.118-.538-.174-1.134-.367-1.546-.419a.44.44 0 0 1 .081.027c.414.367-.503.196-.924-.03l.003-.046c-.665-.268-.735-.175-1.399-.444-.356-.273.367.089.254-.096-.038-.366-1.431-.815-1.541-.935-.181-.006-.423-.058-.432.035-.542-.159-.158-.287-.514-.437l-1.64-.104c-.016.008-.043.009-.094-.006l.094.006c.098-.051-.337-.467.137-.368-1.076-.452-1.805-.462-2.545-.607-.285-.213-1.353-.634-1.708-.808-.086-.241.29.166.43.087l-.427-.463c.699.351.055-.317.485-.23-.599-.199-1.806-1.088-2.583-1.611.371.658-1.172-.48-1.298-.187-.95-.562-.32-.538-.627-.832-1.013-.533-1.89-1.186-2.746-1.775 0 0 .012-.047.071-.032-.824-.485-2.016-1.482-2.957-1.818.075-.029.041-.131.268-.025-.733-.74-.4.229-1.206-.688l.311.042c-.668-.342-1.022-1.025-1.83-1.361.032-.089.194.006.316.044-.653-.418-1.271-1.044-1.9-1.311-.01-.15.127-.151.401-.006-.488-.612-.805-.332-1.256-.884-.125-.129-.285-.42-.256-.436-.372-.135-1.107-.853-1.407-1.081.002-.15-.173-.373-.405-.766-2.755-2.688-5.308-5.707-7.84-8.604-.007-.036-.009-.063-.012-.09l.136-.094.056-.037c3.12-2.127 5.989-4.285 7.905-6.876 3.194-.342 6.982-1.579 9.971-1.02-5.924 1.071-12.323 3.646-11.939 7.605 6.34-2.826 14.07-4.386 18.464-7.752 3.053.35 6.622.322 8.987 1.339-6.634-.499-13.371 1.031-14.76 4.845 7.876-1.056 16.855-.909 21.83-3.282 2.144.716 4.509 1.267 6.384 2.218-5.356-.877-12.686-.856-14.608 2.094 4.213.225 9.891 1.541 15.495 1.815 5.85.284 8.431.357 11.803 2.367 1.395.885 4.277 2.535 6.651 3.723-5.283-2.055-11.776-3.905-18.105-5.051 3.207 4.504 15.792 10.149 23.217 7.464.416.15.828.305 1.234.461l.201.093.027-.002c2.88 1.111 5.635 2.328 8.939 2.878-5.804.092-13.043-1.607-20.932-1.045 6.576 3.443 19.092 8.513 27.232 2.587 3.301.054 6.133.595 9.724.103-1.489.563-9.19 2.751-9.2 2.702-2.096.651-7.271.964-8.968 2.338 2.065 1.427 10.733 1.359 10.726 1.306 8-.72 13.24-3.391 15.771-7.286a59.677 59.677 0 0 0 4.981-1.006c-.337.384-.65.76-.913 1.124M53.403 128.064c-3.344.679-6.207 1.697-8.889 2.872l-.013-.074c-.573-.277-.434-.786-1.018-1.22l.089.036a2.683 2.683 0 0 0-.246-.442c3.345-.474 6.849-1.006 10.077-1.172m126.464-8.819c-.388.474-.406.053-.406.053l.14-.5c-.379.572-.294.884-.61 1.535-.445-.009.439-1.071.328-1.425l-.479.341c-.5.983.184.433-.41 1.412l-.068-.191-.244.675c.129.083.4.057.655-.507.163.544-.21.531-.588 1.435.054.388.171-.379.375-.289.111.005.091.156.021.364-.191.37-.389.736-.586 1.104-.129.068-.205-.074-.385.062.039-.151.295-.716.377-.596.25-.991-.603.154-.43-.531-.46.606-.216.713-.333 1.106.13-.197.146.205.293.094-.085 1.476-.788.512-1.31 1.659.353-.023-.039.988.103 1.234.045.079.146.081.345-.059-.094.303-.207.686-.399.939-.052-.399-.384.233-.38-.138 0-.037.003-.082.01-.142l-.232.396.08-.771c-.394.351-1.001.956-1.248 1.113-.256.622.321-.031-.033.65.028-.303-.319.03-.496.317.447-.513.314.203.138.605-.356.574-.847.883-.843.762l.16-.681c-.107.53-.196.127-.403.596.038.201.045.591.101.839-.193.391-.523.524-.58.667l.258-.652c-.461.768-.436-.086-.873.726l.027.318c-.127.127-.254.145-.215-.045.035.205-.283.612-.371.83l-.143-.034c-.137.371-.204.935-.692 1.135.478-.084.29-.36.794-.795.432-.178-.203.665-.273.801-.248-.256-.623.762-.907 1.126-.261.133-.447.281-.603.362l.066.294c-.443-.153-.48.8-.932 1.102.065-.297-.094-.386-.377-.15.57-.154-.205.898.061.938-.691.639-.178-.456-.533-.403-.103.527-.781.677-.738 1.137-4.848.931-10.234 1.993-14.273 3.281 2.77 1.667 6.855 1.709 10.65 1.146-.125.273-.266.558-.692.865.229-.444-.328-.095-.274-.323-.355.226.082.283-.425.615l-.039-.145-1.01.934c-7.61-1.311-14.261-1.356-20.646-1.056 1.826 2.181 9.379 3.632 12.721 3.978-3.01.578-5.885.844-7.777.541a20.466 20.466 0 0 0-1.465-.186c-9.286-9.15-18.338-11.201-19.176-11.347.609.305 2.896 6.941 11.832 10.694 1.76.722-1.041.533-5.04-.187-.25-.047-1.005-.273-.769-.093-1.158-.764-2.449-2.639-3.828-3.927-3.521-3.29-8.431-7.31-12.932-9.74-.279 4.852 4.971 8.961 8.324 11.063-1.294.187-6.206-2.732-7.828-3.406-1.936-7.157-5.564-10.544-10.179-14.667-1.359 2.78 3.638 10.685 4.1 11.401-.959-.567-2.291-1.285-2.687-1.523-.338-7.034-9.817-11.198-18.112-13.67 3.082 4.683 9.562 8.201 13.046 11.487-2.445-1.532-5.736-2.373-8.468-3.66-3.097-7.238-12.276-9.556-22.475-10.315 3.81 3.718 11.583 5.816 15.749 8.4-3.273-.7-6.846-1.958-10.668-2.103-3.612-4.795-12.162-6.12-22.075-3.483 4.827 1.592 10.728 2.398 16.757 3.338-3.94.172-7.399.022-11.09.934-2.358-3.545-10.564-2.502-16.68-.134-.025.011-.05.019-.075.028-.22-.264-.417-.45-.551-.452-.004-.204.179-.187.306-.128-1.324-2.127-2.58-4.578-3.753-6.689a8.56 8.56 0 0 1-1.881.254c1.059 2.482 2.268 4.909 3.696 7.234-.114-.396.21-.104.433.208l-.023.127.149.136.301.271c.309.466-.013.394-.286.007.366.61.731 1.198 1.097 1.773.495.78.993 1.536 1.498 2.284l.167.248a278.254 278.254 0 0 0 1.946 2.815c.225-.014.567.541.853.865.135.154.258.257.349.223.04.142-.047.052-.14.021 1.309 1.519 1.415 1.595 2.318 3.236 3.45 4.424 7.395 8.193 11.641 11.579a104.194 104.194 0 0 0 5.155 3.847c6.386 4.3 13.308 7.396 20.732 9.71 1.267-.108 2.763.601 4.217.557l-.12.113c1.208.085 1.446.386 2.889.907.047-.152.575.093.416-.216.554-.115.859.542 1.625.564.011.092.01-.158.153-.047 1.975.043-.394.074 2.011.78 3.454.402 7.001.53 10.317.736-.206.007-.297-.206.038-.201.312.437 1.125-.087 1.707.099-.046.087-.326.107-.48.142 1.515.227 2.774-.13 4.209.043 1.351-.219 2.946-.017 3.841-.287-.203.182.619.095.918.127.928-.636 2.666-.136 3.852-.662l-.029.096c3.656-.604 7.635-1.416 11.277-2.778 2.058-.701 4.521-1.115 6.68-2.23.381-.241.02-.202.33-.39.557-.231.051.148.289.109 1.002-.68 2.545-1.033 3.865-1.733.121-.151.486-.357.309-.404 1.199-.285 2.458-1.182 3.672-1.877.389-.273.777-.55 1.164-.829.092-.134.396-.323.709-.518.719-.53 1.43-1.072 2.135-1.626l-.115.028a2.59 2.59 0 0 0 .16-.065.402.402 0 0 1-.045.037c.416-.098.85-.206 1.297-.323.146-.087.301-.178.469-.275.553-.44.578-.745 1.31-1.166.606-.036 1.419-1.044 2.144-1.444-.316-.088.408-.882 1.119-1.298l.017.453c1.753-1.702 4.592-3.66 6.474-5.977.18-.156.329-.295.426-.399a.338.338 0 0 1-.121.01c.047-.062.096-.125.142-.188l.306-.007c.334-.386.672-.766 1.012-1.144.426-.476.853-.948 1.275-1.42 1.235-1.382 2.422-2.779 3.409-4.319.089-.139.183-.273.269-.416.59-.586 1.455-1.597 1.953-2.248.514-1.021.75-1.347.957-2.144.223-.355.504-.464.655-.552.856-1.115 1.785-2.128 2.126-3.265l.171.062c.455-1.049 1.039-2.593 1.851-3.581.053-.379.558-1.546.121-1.136.194-.463.41-.138.477-.684l.007.554c1.376-2.488 2.289-4.733 3.201-7.334.584-.615.969-2.438 1.62-3.855.16-.92.9-2.344.722-3.126l.179.013c.385-1.163.873-2.742 1.33-4.285.279-.896.025-.965.119-1.698l.184.001a2.89 2.89 0 0 0 .014-.31l-1.035.12a82.754 82.754 0 0 1-1.516 5.197c-.09.496-.166.986-.217 1.433-.244.782-.306-.154-.424.679a.172.172 0 0 0-.062-.05c-.114.32-.235.639-.353.958l.017-.016c-.041.098-.082.202-.122.302a104.83 104.83 0 0 1-.717 1.86c-.17.458-.338.917-.504 1.362a.866.866 0 0 0 .052-.242c-.218.523-.437 1.047-.663 1.566a87.686 87.686 0 0 1-.938 2.074 4.22 4.22 0 0 0-.084.166c-.007.006.008.015-.378.49M29.006 78.073c.012.007.022.018.036.021-.011-.026-.022-.029-.036-.021M30.045 76.292l-.077-.074a.36.36 0 0 0 .077.074M186.4 100.434a.326.326 0 0 0-.06-.085l.06.085z"/><path d="M7.818 104.911c-1.218.182-2.235-.49-2.273-1.822-.037-1.281.786-2.588 2.14-2.79.993-.149 2.232.387 3.765 1.65-1.086 1.654-2.323 2.765-3.632 2.962m26.24-36.193c1.444-.216 2.149.657 2.2 2.399.052 1.794-.925 5.645-3.819 9.012-1.798 2.07-4.283 3.934-7.747 4.812 3.12-9.628 6.251-15.758 9.366-16.223m.02 41.43c-1.264.189-2.408-.207-4.676-1.822-2.364-1.81-7.01-5.747-9.615-8.034 1.103-2.635 2.016-5.551 2.754-8.235 6.547-.875 11.085-3.817 14.121-6.948 4.888-4.95 7.018-11.239 6.882-15.954-.19-6.56-4.304-9.342-8.502-8.715-9.206 1.375-13.397 13.17-17.135 25.001-4.876-.919-5.315-5.125-5.349-6.304-.134-4.664 2.936-6.615 3.025-6.68l-3.594-5.176c-3.321 2.71-5.724 7.392-5.57 12.722.179 6.201 3.571 10.635 9.455 11.918-.504 1.362-.962 2.768-1.468 4.079-2.077-1.285-4.184-2.051-6.757-1.667-5.415.81-7.753 6.151-7.645 9.893.101 3.485 2.445 7.768 8.538 6.856 3.43-.512 6.004-2.391 7.925-4.941 4.369 3.773 6.793 6.088 9.525 8.1 2.824 2.048 5.399 3.31 8.378 2.864 3.114-.465 6.717-2.805 9.864-6.826l-4.259-4.664c-2.099 2.679-4.003 4.251-5.897 4.533"/><path d="M66.317 99.619c-.534 3.476-2.184 10.672-4.893 11.025-.677.101-.782-.399-.124-2.71l3.816-12.255c1.003.212 1.619 1.149 1.201 3.94M51.929 80.1c1.534-.23 1.303 1.193.761 2.819-.833 2.543-2.125 4.898-6.3 4.698 0 .001 2.199-7.018 5.539-7.517m21.149-10.007c1.161-3.725 2.593-7.49 4.173-7.727.948-.141.644 1.912.325 3.4-.481 2.182-1.541 6.253-4.676 13.823-1.527 3.625-2.387 5.246-4.633 5.942l4.811-15.438zm21.958 10.102c-3.069 6.738-6.032 10.835-8.244 11.166-.993.147-2.006-.421-.054-6.581l5.097-16.511 3.566-.533 1.37-4.322-3.61.539 1.991-6.371-7.175 1.073-1.992 6.37-3.7.553-1.371 4.323 3.746-.561-4.686 15.061c-.13.42-.245.824-.353 1.221-2.541 4.39-5.478 6.599-9.331 7.175-1.805.271-3.091-.311-3.974-1.054l.749-2.324c5.861-1.082 7.689-3.672 9.852-8.833 3.564-8.407 4.674-13.926 5.106-16.204.87-4.401-.529-8.876-5.448-8.141-4.377.654-7.407 4.04-9.93 12.395l-6.147 19.893c-2.944 4.868-6.84 7.783-10.622 8.348-5.732.857-4.577-4.668-4.577-4.668 8.384-.018 11.909-3.53 13.669-8.477 2.675-7.812-1.767-10.956-6.867-10.194-9.657 1.443-13.867 14.168-13.67 20.984.162 5.586 3.286 8.619 9.559 7.682 3.934-.588 7.175-2.465 9.814-4.955l-2.681 8.675c-2.155 6.962.083 10.694 4.551 10.026 3.52-.526 5.887-3.299 7.512-6.681 1.45-3.151 2.294-6.881 2.569-9.906.136-1.564.004-2.986.004-2.986 3.549-.388 6.536-1.894 9.031-4.414.282 3.875 2.575 5.253 5.575 4.806 5.687-.85 10.111-7.738 13.257-14.9-.389-.922-1.635-1.713-2.586-1.674M138.202 66.642l-4.106.613 3.604-11.707c1.246-3.943 3.517-5.312 3.517-5.312l-1.436-4.212c-2.076.311-4.17 1.55-5.66 3.316-4.979 1.825-11.311-.832-17.223.051-7.131 1.066-10.187 6.67-10.034 11.896.17 5.895 4.37 8.51 8.567 7.883 3.972-.595 6.371-3.784 6.371-3.784l-3.031-4.539s-1.264 1.731-3.114 2.009c-1.399.209-2.872-.549-2.931-2.598-.056-1.897 1.15-4.084 4.49-4.583 3.565-.533 8.641 1.024 13.391.727l-3.688 11.926-4.017.601-1.371 4.322 4.017-.601-1.281 4.258c-2.371 7.354-5.174 12.303-9.236 12.909-2.166.323-4.385-1.198-4.471-4.119-.051-1.793.676-4.887 4.928-5.163l-.195-6.764c-6.923.416-11.052 6.541-10.87 12.844.168 5.791 3.854 11.005 11.391 9.879 4.106-.612 10.283-3.338 14.26-16.284l2.65-8.632 4.151-.62 1.327-4.316zM148.097 57.701c2.12-.317 3.91-2.695 3.84-5.104-.072-2.512-1.979-4.182-4.101-3.864-2.211.329-3.914 2.54-3.842 5.052.07 2.408 1.891 4.246 4.103 3.916M198.205 69.513s-1.924 3.994-4.45 4.372c-.902.136-1.462-.348-1.499-1.681-.096-3.28 2.968-13.362 6.533-13.896 1.986-.297 2.113 2.567 2.113 2.567l-2.697 8.638zm-34.262-6.151c1.534-.229 1.305 1.194.762 2.819-.834 2.544-2.125 4.898-6.301 4.699 0 0 2.199-7.019 5.539-7.518m49.471-.856c-3.067 6.789-6.032 10.835-7.838 11.105-.768.113-1.646-.476.263-6.628l8.459-27.204-7.177 1.072-4.479 14.359s-1.158-3.996-5.445-3.354c-6.235.931-9.947 10.401-11.324 17.437-2.539 5.037-4.939 8-6.471 8.229-.768.114-1.602-.482.305-6.635l8.416-27.197-7.176 1.071-8.004 25.747c-.115.373-.219.732-.318 1.086-2.957 4.984-6.902 7.972-10.735 8.543-5.729.857-4.576-4.669-4.576-4.669 8.384-.017 11.909-3.528 13.669-8.476 2.676-7.812-1.767-10.956-6.865-10.194-8.144 1.216-12.412 10.451-13.435 17.404-2.61 5.269-5.093 8.371-6.664 8.605-.767.114-1.601-.481.306-6.634l5.099-16.512-7.177 1.072-4.685 15.061c-3.026 9.769-.032 13.026 4.075 12.413 3.445-.515 6.518-3.607 9.152-7.806.976 3.881 4.011 5.839 9.217 5.061 4.961-.741 8.822-3.531 11.76-7.019.369 3.628 2.574 4.877 5.254 4.477 3.11-.465 5.915-3.03 8.369-6.61.466 2.898 2.216 5.028 5.17 4.588 4.016-.602 7.008-5.319 7.008-5.319s.709 4.166 5.447 3.458c5.461-.816 9.668-7.364 12.986-14.86-.389-.919-1.635-1.71-2.586-1.671M124.667 107.453l2.785-.416-.081-2.809-2.785.416.081 2.809zm-.148-5.146l2.783-.416-.08-2.809-2.785.416.082 2.809zm-2.664 2.027l-.584-.365.557-.542-.169-5.851 6.476-.968 1.777 1.063.111 3.877-1.015 1.248 1.079.959.112 3.885-1.7 1.576-6.477.969-.167-5.851zM135.954 100.599l2.813-.42-.082-2.817-2.813.42.082 2.817zm6.234 6.573l-2.906.435-2.456-4.793-.804.12.147 5.137-2.719.407-.365-12.609 6.514-.973 1.768 1.065.133 4.631-1.807 1.762 2.495 4.818zm-8.906-4.545l-.573-.366.547-.541.026.907zM152.485 105.634l-7.075 1.057-.169-5.851-.583-.365.556-.542-.169-5.851 7.019-1.049.066 2.327-4.307.644.082 2.809 3.709-.554.067 2.336-3.709.554.08 2.809 4.365-.652zM168.332 90.603l-2.094 12.976-2.766.414-1.428-5.26-1.125 5.641-2.764.413-2.814-12.244 2.776-.415 1.299 6.28 1.298-6.667 2.243-.335 1.664 6.231.925-6.618zM178.992 101.673l-7.075 1.057-.169-5.851-.582-.365.556-.542-.169-5.85 7.018-1.049.067 2.326-4.308.644.082 2.809 3.709-.554.068 2.336-3.71.554.081 2.81 4.363-.653zM184.707 93.314l2.813-.42-.081-2.816-2.812.42.08 2.816zm6.234 6.573l-2.906.434-2.455-4.792-.805.121.149 5.138-2.72.405-.365-12.608 6.514-.975 1.768 1.066.133 4.632-1.807 1.761 2.494 4.818zm-8.906-4.545l-.574-.366.549-.541.025.907zM200.029 93.862l.135 4.647-2.748.411-.135-4.663-3.483-7.46 2.785-.416 1.987 4.419 1.687-4.967 2.877-.431z"/></g><path fill="#0D2240" d="M411.5 204.668H451v39.5h-39.5z"/></svg>