<svg width="96" height="88" viewBox="0 0 96 88" xmlns="http://www.w3.org/2000/svg"><title>maris-colour</title><g fill="none" fill-rule="evenodd"><path d="M47.325 86.73L2 45.494V1h90.65v44.493L47.325 86.73" fill="#FDF8E6"/><path d="M0 0v44.557l47.062 42.595 47.063-42.595V0H0zm20.65 5.268c.656-.667 1.52-1.005 2.39-1.013.87-.01 1.745.314 2.414.97l18.09 17.74 3.59 4.328-3.44 4.148-.142.166-4.762-3.794-18.092-17.738c-1.34-1.313-1.36-3.47-.05-4.806zM17.266 36.5c-.258.187-.606.183-.865 0-.257-.188-.367-.518-.272-.823l.867-2.79-2.367-1.66c-.265-.184-.378-.52-.282-.83.097-.306.383-.517.706-.517h2.926l.93-2.8c.1-.3.38-.504.696-.507h.006c.314 0 .595.202.7.5l.957 2.756h2.896c.32 0 .605.207.704.51.1.304-.008.638-.267.828l-2.373 1.736.91 2.764c.1.304-.006.64-.267.83-.13.093-.283.14-.435.14-.154 0-.307-.047-.437-.142l-2.34-1.714-2.393 1.718zm7.267 18.57l-1.27-1.27.79-.774.48 2.044zm-1.7 4.674l-3.154-3.218 2.366-2.322.003.005 2.98 2.982.05.21c.008.036.028.067.042.1l-2.287 2.242zm3.082-3.81l-.902-3.848 2.445-2.398.9 3.85-2.444 2.396zm3.403-3.338l-.902-3.85 2.444-2.397.9 3.85-2.443 2.396zm3.402-3.337l-.9-3.85 2.443-2.4.902 3.852-2.445 2.397zm3.404-3.34l-.903-3.85 2.445-2.397.902 3.85-2.444 2.398zm3.403-3.338l-.903-3.85.726-.712s0 .002.002.002l2.386 2.392-2.21 2.168zm.736-5.272l3.678-4.315.538-.647-.032-.026.122-.143 3.308-3.99.024.032 4.362-5.256 18.09-17.742c.67-.655 1.54-.98 2.413-.97.868.01 1.734.347 2.39 1.014 1.31 1.337 1.29 3.493-.048 4.806L57.02 27.812l-5.692 4.536.028.034-3.415 2.722-.036-.03-1.025.818-4.412 3.624-2.202-2.206zm12.572 20.595l-2.373 1.737.91 2.763c.1.305-.006.64-.267.83-.13.094-.283.142-.435.142-.154 0-.308-.048-.438-.142l-2.34-1.715-2.393 1.717c-.258.188-.606.184-.864 0-.258-.187-.368-.517-.274-.82l.868-2.792-2.367-1.66c-.265-.185-.378-.52-.282-.83.098-.306.383-.517.707-.517h2.925l.93-2.8c.1-.3.38-.504.696-.506h.006c.314 0 .596.2.7.498l.958 2.758H52.4c.32 0 .606.208.705.51.1.304-.008.638-.267.827zM48.93 35.892l-.068-.055 3.23-2.574 3.452 4.046-2.203 2.206-4.41-3.624zm7.35 6.69l-2.21-2.168 2.385-2.392v-.002l.727.713-.902 3.85zm3.404 3.338l-2.445-2.396.9-3.85 2.445 2.397-.9 3.85zm3.403 3.338l-2.445-2.396.902-3.85 2.445 2.397-.903 3.848zm3.403 3.338L64.046 50.2l.902-3.85 2.444 2.396-.902 3.85zm.96.94l.9-3.848 2.445 2.398-.902 3.848-2.444-2.397zm5.524 6.208l-2.287-2.242c.015-.033.033-.064.042-.1l.048-.21 2.982-2.983.003-.005 2.367 2.32-3.156 3.22zm-1.7-4.674l.48-2.044.79.775-1.27 1.27zm8.23-23.902l-2.373 1.736.912 2.764c.1.304-.006.64-.267.83-.13.093-.283.14-.435.14-.154 0-.308-.047-.437-.142l-2.342-1.714-2.39 1.718c-.26.187-.607.183-.866 0-.257-.188-.367-.518-.272-.823l.867-2.79-2.368-1.66c-.265-.184-.378-.52-.282-.83.097-.306.383-.517.706-.517h2.926l.93-2.8c.1-.3.38-.504.696-.507h.005c.315 0 .596.202.7.5l.957 2.756h2.898c.32 0 .605.207.704.51.1.304-.008.638-.267.828z" fill="#1B5993"/></g></svg>