<svg xmlns="http://www.w3.org/2000/svg" width="98.125" height="91.85" viewBox="0 0 98.125 91.85"><g fill="#FDF7E7"><path d="M0 0v47.443l49.062 44.405 49.062-44.405V0H0zm96.125 46.557L49.062 89.15 2 46.558V2h94.125v44.557z"/><path d="M41.354 40.02l-.726.712.902 3.85 2.212-2.168-2.387-2.393zM58.456 40.02l-2.386 2.394 2.21 2.168.904-3.85-.727-.712zM54.094 35.263l-3.23 2.574.068.055 4.41 3.624 2.202-2.207zM37.224 44.07l.902 3.85 2.445-2.397-.902-3.85zM25.265 55.802l1.27 1.268-.48-2.045zM27.032 59.19l-2.982-2.98c0-.003-.002-.005-.003-.006l-2.366 2.322 3.157 3.218 2.287-2.242c-.015-.032-.034-.063-.042-.1l-.05-.21zM33.82 47.408l.903 3.85 2.444-2.397-.9-3.85zM30.418 50.746l.902 3.85 2.444-2.397-.9-3.85zM27.015 54.086l.902 3.848 2.444-2.397-.9-3.85zM70.352 51.688l-.902 3.85 2.445 2.396.9-3.848zM46.45 34.32l.033.027-.538.646-3.68 4.314 2.204 2.206 4.41-3.624 1.026-.818.035.03 3.417-2.724-.028-.033 5.69-4.536L77.114 12.07a3.405 3.405 0 0 0 .048-4.807 3.392 3.392 0 0 0-2.39-1.014 3.377 3.377 0 0 0-2.415.97L54.268 24.967l-4.36 5.257-.026-.03-3.308 3.987-.123.14zM59.24 45.523l2.444 2.397.902-3.85-2.443-2.397zM40.79 29.812l4.763 3.794.14-.165 3.442-4.146-3.59-4.327-18.09-17.743a3.39 3.39 0 0 0-2.414-.97c-.868.01-1.733.347-2.39 1.014a3.404 3.404 0 0 0 .048 4.807L40.79 29.812zM73.275 57.07l1.27-1.268-.79-.777zM62.643 48.86l2.444 2.398.902-3.85-2.445-2.397zM66.047 52.2l2.444 2.396.903-3.85-2.445-2.396zM75.76 56.21l-2.98 2.982-.05.21c-.007.035-.026.066-.042.1l2.287 2.242 3.157-3.218-2.366-2.32c-.004 0-.004 0-.005.003z"/></g><g fill="#FDF7E7"><path d="M26.94 32.34a.744.744 0 0 0-.704-.51H23.34l-.96-2.76a.745.745 0 0 0-.7-.497h-.005a.74.74 0 0 0-.697.508l-.928 2.8h-2.926a.742.742 0 0 0-.424 1.35l2.367 1.657-.868 2.79a.74.74 0 0 0 1.137.822l2.392-1.718 2.34 1.714a.74.74 0 0 0 1.14-.83l-.91-2.763 2.374-1.736a.74.74 0 0 0 .266-.828zM81.842 32.34a.744.744 0 0 0-.703-.51h-2.9l-.958-2.76a.745.745 0 0 0-.7-.497h-.006a.74.74 0 0 0-.697.508l-.93 2.8h-2.927a.74.74 0 0 0-.424 1.35l2.366 1.657-.866 2.79a.74.74 0 0 0 1.136.82l2.393-1.716 2.34 1.715a.742.742 0 0 0 1.143-.83l-.913-2.762 2.374-1.736a.74.74 0 0 0 .268-.828zM55.175 59.077a.744.744 0 0 0-.704-.51h-2.895l-.958-2.758a.745.745 0 0 0-.7-.5h-.006a.74.74 0 0 0-.696.51l-.93 2.798H45.36a.742.742 0 0 0-.425 1.348l2.367 1.658-.868 2.79a.74.74 0 0 0 1.138.823l2.392-1.717 2.342 1.714a.74.74 0 0 0 .874 0 .738.738 0 0 0 .268-.83l-.91-2.763 2.373-1.735a.746.746 0 0 0 .265-.828z"/></g></svg>