<svg width="96" height="88" viewBox="0 0 96 88" xmlns="http://www.w3.org/2000/svg"><title>maris-colour</title><g fill="none" fill-rule="evenodd"><path d="M47.325 86.731L2 45.493V1h90.65v44.493L47.325 86.73" fill="#FDF8E6"/><path d="M0 0v44.557l47.062 42.595 47.063-42.595V0H0zm20.649 5.268a3.388 3.388 0 0 1 2.391-1.013 3.386 3.386 0 0 1 2.414.969l18.09 17.742 3.59 4.327-3.441 4.148-.141.165-4.762-3.794-18.092-17.738a3.402 3.402 0 0 1-.049-4.806zM17.267 36.5a.743.743 0 0 1-.865 0 .745.745 0 0 1-.272-.823l.867-2.791-2.367-1.658a.742.742 0 0 1 .424-1.348h2.926l.929-2.799c.1-.301.38-.505.697-.508h.006c.314 0 .595.202.699.499l.958 2.757h2.897a.741.741 0 0 1 .437 1.339l-2.373 1.736.91 2.764a.737.737 0 0 1-.702.97.738.738 0 0 1-.437-.142l-2.342-1.714-2.392 1.718zm7.267 18.57l-1.269-1.269.79-.775.479 2.044zm-1.699 4.674l-3.155-3.218 2.366-2.322.003.005 2.982 2.983.049.21c.008.036.028.067.042.1l-2.287 2.242zm3.081-3.81l-.902-3.848 2.445-2.398.901 3.849-2.444 2.397zm3.403-3.338l-.901-3.85 2.444-2.397.901 3.85-2.444 2.397zm3.403-3.337l-.901-3.85 2.444-2.398.902 3.851-2.445 2.397zm3.404-3.338l-.903-3.85 2.445-2.398.902 3.851-2.444 2.397zm3.403-3.339l-.902-3.849.726-.713.002.002 2.386 2.392-2.212 2.168zm.737-5.272l3.678-4.315.538-.647-.032-.026.122-.143 3.308-3.988.024.031 4.362-5.256L70.355 5.224a3.386 3.386 0 0 1 2.414-.969 3.386 3.386 0 0 1 2.391 1.013 3.403 3.403 0 0 1-.048 4.806L57.02 27.812l-5.692 4.536.028.034-3.415 2.722-.037-.029-1.025.817-4.411 3.624-2.202-2.206zm12.572 20.595l-2.373 1.737.91 2.763a.74.74 0 0 1-1.14.83l-2.341-1.715-2.392 1.717a.739.739 0 0 1-1.138-.821l.868-2.791-2.367-1.659a.743.743 0 0 1-.282-.83.743.743 0 0 1 .707-.518h2.925l.929-2.799c.1-.3.38-.505.697-.507h.005c.314 0 .596.201.7.498l.958 2.758h2.897a.74.74 0 0 1 .437 1.337zM48.93 35.892l-.068-.055 3.231-2.574 3.451 4.046-2.203 2.207-4.411-3.624zm7.35 6.69l-2.211-2.168 2.386-2.392.001-.002.726.713-.902 3.849zm3.404 3.338l-2.445-2.396.902-3.851 2.444 2.398-.901 3.849zm3.403 3.338l-2.445-2.396.902-3.851 2.445 2.398-.902 3.849zm3.403 3.338l-2.444-2.397.902-3.849 2.444 2.396-.902 3.85zm.959.941l.902-3.849 2.444 2.398-.902 3.848-2.444-2.397zm5.525 6.207l-2.287-2.242c.015-.033.033-.064.042-.1l.049-.21 2.982-2.983.003-.004 2.367 2.321-3.156 3.218zm-1.699-4.674l.479-2.044.791.775-1.27 1.269zm8.23-23.902l-2.374 1.736.911 2.764a.737.737 0 0 1-.702.97.736.736 0 0 1-.437-.142l-2.342-1.714-2.392 1.718a.743.743 0 0 1-.865 0 .745.745 0 0 1-.272-.823l.867-2.791-2.367-1.658a.742.742 0 0 1 .424-1.348h2.926l.929-2.799c.1-.301.38-.505.697-.508h.005c.315 0 .596.202.7.499l.957 2.757h2.898a.741.741 0 0 1 .437 1.339z" fill="#1B5993"/></g></svg>