<svg xmlns="http://www.w3.org/2000/svg" width="98.125" height="91.85" viewBox="0 0 98.125 91.85"><g fill="#FDF7E7"><path d="M0 0v47.443l49.062 44.405 49.062-44.405V0H0zm96.125 46.557L49.062 89.151 2 46.557V2h94.125v44.557z"/><path d="M41.354 40.02l-.726.712.902 3.85 2.212-2.168-2.387-2.393zM58.456 40.021l-2.386 2.393 2.211 2.168.903-3.85-.727-.712zM54.094 35.263l-3.231 2.574.069.055 4.41 3.624 2.202-2.207zM37.224 44.07l.902 3.851 2.445-2.398-.903-3.85zM25.265 55.802l1.27 1.268-.479-2.045zM27.032 59.191l-2.982-2.982-.003-.005-2.366 2.322 3.156 3.218 2.287-2.242c-.015-.032-.034-.063-.042-.101l-.05-.21zM33.821 47.408l.902 3.851 2.444-2.398-.901-3.85zM30.418 50.746l.902 3.85 2.444-2.397-.901-3.85zM27.015 54.086l.902 3.848 2.444-2.397-.902-3.849zM70.352 51.688l-.902 3.849 2.445 2.397.9-3.848zM46.451 34.321l.032.026-.538.646-3.679 4.314 2.203 2.206 4.411-3.624 1.026-.817.035.029 3.416-2.723-.028-.033 5.692-4.536 18.092-17.737a3.405 3.405 0 0 0 .048-4.807 3.392 3.392 0 0 0-2.392-1.014 3.377 3.377 0 0 0-2.414.97L54.268 24.966l-4.361 5.257-.025-.03-3.308 3.987-.123.141zM59.24 45.523l2.444 2.397.902-3.85-2.443-2.397zM40.791 29.812l4.762 3.794.141-.165 3.441-4.147-3.59-4.327L27.454 7.224a3.39 3.39 0 0 0-2.413-.97 3.398 3.398 0 0 0-2.392 1.014 3.404 3.404 0 0 0 .049 4.807l18.093 17.737zM73.275 57.07l1.27-1.268-.79-.777zM62.643 48.861l2.444 2.397.902-3.85-2.444-2.397zM66.047 52.199l2.444 2.397.902-3.85-2.445-2.396zM75.761 56.209l-2.981 2.983-.049.209c-.008.036-.027.067-.043.101l2.287 2.242 3.157-3.218-2.366-2.321c-.004 0-.004.002-.005.004z"/></g><g fill="#FDF7E7"><path d="M26.94 32.339a.744.744 0 0 0-.704-.51h-2.897l-.958-2.758a.745.745 0 0 0-.7-.498h-.006a.74.74 0 0 0-.697.508l-.928 2.799h-2.926a.742.742 0 0 0-.424 1.349l2.367 1.658-.868 2.791a.74.74 0 0 0 1.138.821l2.392-1.717 2.342 1.714a.74.74 0 0 0 1.14-.829l-.911-2.764 2.374-1.736a.74.74 0 0 0 .266-.828zM81.842 32.339a.744.744 0 0 0-.703-.51H78.24l-.958-2.758a.745.745 0 0 0-.7-.498h-.006a.74.74 0 0 0-.697.508l-.929 2.799h-2.927a.741.741 0 0 0-.424 1.349l2.367 1.658-.866 2.79a.74.74 0 0 0 1.136.821l2.393-1.717 2.342 1.714a.742.742 0 0 0 1.142-.829l-.913-2.763 2.374-1.736a.741.741 0 0 0 .268-.828zM55.175 59.077a.744.744 0 0 0-.704-.51h-2.896l-.958-2.758a.745.745 0 0 0-.7-.498h-.006a.74.74 0 0 0-.697.508l-.929 2.799h-2.926a.742.742 0 0 0-.424 1.348l2.367 1.658-.868 2.791a.741.741 0 0 0 1.138.822l2.392-1.717 2.342 1.714a.741.741 0 0 0 .874.001.738.738 0 0 0 .268-.83l-.911-2.764 2.374-1.736a.746.746 0 0 0 .264-.828z"/></g></svg>