<svg xmlns="http://www.w3.org/2000/svg" width="98.125" height="91.85" viewBox="0 0 98.125 91.85"><g fill="#FDF7E7"><path d="M0 0v47.443l49.062 44.405 49.062-44.405V0H0zm96.125 46.557L49.062 89.15 2 46.558V2h94.125v44.557z"/><path d="M41.354 40.02l-.726.712.902 3.85 2.212-2.168-2.387-2.393M58.456 40.02l-2.386 2.394 2.21 2.168.904-3.85-.727-.712M54.094 35.263l-3.23 2.574.068.055 4.41 3.624 2.202-2.207M37.224 44.07l.902 3.85 2.445-2.397-.902-3.85M25.265 55.802l1.27 1.268-.48-2.045M27.032 59.19l-2.982-2.98c0-.003-.002-.005-.003-.006l-2.366 2.322 3.157 3.218 2.287-2.242c-.015-.032-.034-.063-.042-.1l-.05-.21zM33.82 47.408l.903 3.85 2.444-2.397-.9-3.85M30.418 50.746l.902 3.85 2.444-2.397-.9-3.85M27.015 54.086l.902 3.848 2.444-2.397-.9-3.85M70.352 51.688l-.902 3.85 2.445 2.396.9-3.848M46.45 34.32l.033.027-.538.646-3.68 4.314 2.204 2.206 4.41-3.624 1.026-.818.035.03 3.417-2.724-.028-.033 5.69-4.536L77.114 12.07c1.338-1.312 1.36-3.47.048-4.807-.655-.667-1.52-1.005-2.39-1.014-.874-.01-1.745.314-2.415.97L54.268 24.967l-4.36 5.257-.026-.03-3.308 3.987-.123.14zM59.24 45.523l2.444 2.397.902-3.85-2.443-2.397M40.79 29.812l4.763 3.794.14-.165 3.442-4.146-3.59-4.327-18.09-17.743c-.67-.655-1.543-.98-2.414-.97-.868.01-1.733.347-2.39 1.014-1.312 1.338-1.29 3.493.048 4.807L40.79 29.812zM73.275 57.07l1.27-1.268-.79-.777M62.643 48.86l2.444 2.398.902-3.85-2.445-2.397M66.047 52.2l2.444 2.396.903-3.85-2.445-2.396M75.76 56.21l-2.98 2.982-.05.21c-.007.035-.026.066-.042.1l2.287 2.242 3.157-3.218-2.366-2.32c-.004 0-.004 0-.005.003z"/></g><g fill="#FDF7E7"><path d="M26.94 32.34c-.1-.303-.384-.51-.704-.51H23.34l-.96-2.76c-.103-.296-.385-.497-.7-.497h-.005c-.317.002-.597.207-.697.508l-.928 2.8h-2.926c-.323 0-.61.21-.706.52-.097.308.017.644.282.83l2.367 1.657-.868 2.79c-.096.306.014.636.272.822.258.184.606.187.865 0l2.392-1.718 2.34 1.714c.13.095.284.143.438.143.152 0 .306-.05.436-.143.26-.188.368-.524.267-.83l-.91-2.764 2.374-1.736c.258-.19.366-.523.266-.828zM81.842 32.34c-.1-.303-.384-.51-.703-.51h-2.9l-.958-2.76c-.104-.296-.386-.497-.7-.497h-.006c-.317.002-.598.207-.697.508l-.93 2.8h-2.927c-.322 0-.608.21-.705.52-.098.308.017.644.28.83l2.368 1.657-.866 2.79c-.096.305.015.635.272.82.258.186.606.19.864 0l2.393-1.716 2.34 1.715c.132.095.284.143.44.143.15 0 .305-.048.435-.142.262-.188.368-.524.268-.83l-.913-2.763 2.374-1.736c.26-.19.367-.523.268-.828zM55.175 59.077c-.1-.302-.384-.51-.704-.51h-2.895l-.958-2.758c-.104-.298-.386-.5-.7-.5h-.006c-.316.003-.596.208-.696.51l-.93 2.798H45.36c-.324 0-.61.21-.707.52-.097.308.017.644.282.828l2.367 1.658-.868 2.79c-.095.307.015.636.273.823.258.184.606.188.865 0l2.392-1.717 2.342 1.714c.13.095.283.142.438.142.152 0 .306-.047.436-.14.262-.19.368-.526.268-.83l-.91-2.765 2.373-1.735c.257-.19.363-.523.265-.828z"/></g></svg>