<svg width="95" height="88" xmlns="http://www.w3.org/2000/svg"><g fill="none" fill-rule="evenodd"><path d="M47.325 86.731L2 45.493V1h90.65v44.493L47.325 86.73" fill="#FDF8E6"/><path d="M50.993 35.899a16.482 16.482 0 0 1-2.896 5.375c3.933 1.782 16.169 7.991 28.08 20.78l4.797-4.342c-12.811-14.044-26.088-20.21-29.981-21.813" fill="#DE443E"/><path d="M51.528 27.884a16.37 16.37 0 0 1-.14 6.555c3.752 1.525 17.485 7.787 30.697 22.267l4.131-3.738C71.585 36.701 56.168 29.724 51.528 27.884" fill="#DE443E"/><path d="M47.046 42.446a16.582 16.582 0 0 1-11.753 4.922 16.53 16.53 0 0 1-14.506-8.59c-4.377-7.991-1.436-18.053 6.555-22.428a16.528 16.528 0 0 1 7.922-2.035 16.532 16.532 0 0 1 14.507 8.589 16.706 16.706 0 0 1 1.343 3.234c.032.007.064.002.095.014 3.29 1.218 20.191 8.101 36.119 25.81l7.27-6.58V.825H.472v44.557l47.063 42.595L75.03 63.093C62.374 49.584 49.306 43.444 47.046 42.446" fill="#DE443E"/><path d="M42.197 31.99c.183-.437.388-.872.613-1.293a.75.75 0 0 0-.311-1.015.749.749 0 0 0-1.015.309c-.246.463-.472.941-.672 1.421a.75.75 0 1 0 1.385.578m1.604-3.394c.22 0 .436-.094.585-.278.299-.37.619-.728.95-1.066a.75.75 0 0 0-.01-1.061.75.75 0 0 0-1.061.009c-.365.372-.717.767-1.046 1.173a.751.751 0 0 0 .582 1.223m-3.03 5.233a.75.75 0 0 0-.888.582 16.927 16.927 0 0 0-.247 1.552.752.752 0 0 0 .746.834.75.75 0 0 0 .746-.668c.051-.47.129-.946.225-1.412a.751.751 0 0 0-.582-.888m-.496 4.467a.75.75 0 0 0-.688.809c.042.522.109 1.046.2 1.559a.752.752 0 0 0 .871.609.75.75 0 0 0 .607-.871 14.89 14.89 0 0 1-.182-1.418.754.754 0 0 0-.808-.688M46.67 24.18a.751.751 0 0 0 .852 1.238c.392-.271.8-.525 1.214-.756.063-.035.109-.086.157-.134.23-.232.3-.588.133-.887a.743.743 0 0 0-.781-.367.725.725 0 0 0-.24.077c-.455.254-.904.532-1.335.829m-5.609 18.541a.75.75 0 0 0-.431.969c.131.338.288.671.441 1.005.067.143.121.292.192.434a.75.75 0 0 0 1.344-.668c-.066-.134-.117-.275-.18-.411-.138-.297-.279-.596-.396-.898a.749.749 0 0 0-.97-.431m2.77-10.356a.752.752 0 0 0-.961.45c-.18.491-.337.996-.467 1.5a.75.75 0 1 0 1.454.376c.118-.459.261-.916.423-1.364a.75.75 0 0 0-.449-.962m-.986 8.842a.753.753 0 0 0-.567.899c.115.507.256 1.017.421 1.515a.753.753 0 0 0 .948.477.75.75 0 0 0 .478-.948c-.017-.049-.026-.102-.042-.153a15.357 15.357 0 0 1-.341-1.224.75.75 0 0 0-.897-.566m5.537-15.892c-.418.318-.823.658-1.205 1.012a.75.75 0 1 0 1.019 1.101c.347-.321.715-.629 1.095-.918a.735.735 0 0 0 .248-.374.734.734 0 0 0-.322-.869.748.748 0 0 0-.835.048m-5.679 11.4a.76.76 0 0 0-.797.701 16.885 16.885 0 0 0-.026 1.572.752.752 0 0 0 .75.727h.024a.75.75 0 0 0 .727-.773 14.758 14.758 0 0 1 .023-1.428.752.752 0 0 0-.701-.799m2.38-8.046a16.87 16.87 0 0 0-.868 1.31.75.75 0 1 0 1.29.769c.242-.406.508-.806.79-1.192a.75.75 0 1 0-1.212-.887M27.82 18.191c.227.42.434.854.617 1.289a.75.75 0 1 0 1.384-.583 17.17 17.17 0 0 0-.678-1.417.75.75 0 0 0-.223-.248.742.742 0 0 0-.793-.058.748.748 0 0 0-.389.692.755.755 0 0 0 .082.325m1.698 5.424a.751.751 0 0 0 .744.669c.029 0 .057-.003.086-.005a.752.752 0 0 0 .662-.831 16.675 16.675 0 0 0-.25-1.553.75.75 0 1 0-1.469.309c.097.466.174.941.227 1.411m.077 6.592a.747.747 0 0 0-.968.435c-.171.446-.363.887-.571 1.311a.748.748 0 0 0 .672 1.082.752.752 0 0 0 .674-.417c.23-.468.441-.952.628-1.442a.751.751 0 0 0-.435-.969m-3.039 4.176c-.286.377-.594.746-.918 1.097a.75.75 0 0 0 1.104 1.016c.356-.387.697-.793 1.01-1.207a.75.75 0 1 0-1.196-.906m3.816-8.603a.762.762 0 0 0-.808.691c-.037.472-.098.949-.18 1.418a.75.75 0 1 0 1.479.259c.09-.514.157-1.039.198-1.56a.753.753 0 0 0-.689-.808m-5.97 12.813a.751.751 0 1 0-.89-1.21c-.383.283-.783.549-1.19.793-.039.023-.063.06-.096.088a.739.739 0 0 0 .483 1.306.75.75 0 0 0 .296-.083c.029-.012.061-.007.089-.024a16.67 16.67 0 0 0 1.308-.87m2.84-14.961a14.987 14.987 0 0 1 .024 1.428.752.752 0 0 0 .727.774h.024a.75.75 0 0 0 .75-.727 16.849 16.849 0 0 0-.027-1.572.756.756 0 0 0-.797-.701.753.753 0 0 0-.701.798m-.457-2.817a.753.753 0 0 0 .917.537.753.753 0 0 0 .536-.919 16.616 16.616 0 0 0-.472-1.5.751.751 0 0 0-1.408.519c.163.445.307.903.427 1.363m-4.089 16.604c.404-.327.797-.681 1.171-1.05a.75.75 0 1 0-1.054-1.068c-.34.335-.697.656-1.064.954a.747.747 0 0 0-.272.505c-.02.192.033.39.164.551.046.056.107.088.164.128a.749.749 0 0 0 .418.149.738.738 0 0 0 .473-.169m5.109-10.094a.752.752 0 0 0-.896.568 15.28 15.28 0 0 1-.379 1.379.753.753 0 0 0 .714.984.75.75 0 0 0 .714-.52c.162-.495.302-1.006.416-1.514a.751.751 0 0 0-.569-.897m-1.098 5.293a.75.75 0 1 0-1.314-.726c-.23.417-.484.827-.75 1.217a.749.749 0 0 0 .618 1.175c.24 0 .476-.114.621-.327.293-.43.571-.88.825-1.339" fill="#DE443E"/></g></svg>