<svg xmlns="http://www.w3.org/2000/svg" width="98.139" height="91.85" viewBox="0 0 98.139 91.85"><path fill="#FEFCF8" d="M48.674 91.04L.288 47.247V0h96.77v47.247L48.674 91.04zM2.22 46.392l46.454 42.043 46.45-42.042V1.933H2.222v44.46z"/><path fill="#FEFCF8" d="M36.46 52.49c-1.038.155-1.907-.42-1.94-1.558-.032-1.094.672-2.21 1.828-2.383.85-.128 1.906.33 3.216 1.41-.928 1.412-1.984 2.362-3.103 2.53m22.41-30.913c1.233-.185 1.836.562 1.88 2.05.045 1.53-.79 4.82-3.262 7.695-1.534 1.768-3.657 3.36-6.615 4.11 2.664-8.223 5.338-13.458 7.998-13.855m.02 34.11c-1.08.16-2.058-.18-3.995-1.558-2.02-1.548-5.985-4.907-8.21-6.86.94-2.253 1.722-4.744 2.353-7.037 5.59-.748 9.466-3.26 12.058-5.934 4.176-4.228 5.995-9.6 5.88-13.626-.163-5.603-3.678-7.98-7.263-7.444-7.863 1.174-11.44 11.248-14.634 21.352-4.166-.785-4.54-4.377-4.57-5.383-.114-3.985 2.508-5.65 2.584-5.706l-3.07-4.42c-2.835 2.314-4.888 6.312-4.756 10.865.153 5.295 3.05 9.08 8.075 10.178-.43 1.162-.82 2.363-1.254 3.484-1.774-1.1-3.574-1.752-5.77-1.424-4.627.69-6.624 5.253-6.53 8.45.084 2.976 2.087 6.634 7.29 5.854 2.93-.438 5.13-2.04 6.77-4.22 3.73 3.224 5.8 5.198 8.134 6.92 2.412 1.747 4.612 2.825 7.156 2.444 2.658-.396 5.736-2.395 8.423-5.83l-3.636-3.982c-1.794 2.29-3.42 3.632-5.038 3.872"/></svg>