<svg xmlns="http://www.w3.org/2000/svg" width="98.125" height="91.85" viewBox="0 0 98.125 91.85"><path fill="#FDF7E7" d="M0 0v47.442l49.062 44.405 49.062-44.405V0H0zm96.125 46.557L49.062 89.15 2 46.558V2h94.125v44.557z"/><path fill="#FDF7E7" d="M58.296 44.756c-.975.145-1.858-.16-3.606-1.407-1.824-1.398-5.41-4.436-7.42-6.2.85-2.035 1.555-4.284 2.124-6.354 5.054-.675 8.555-2.95 10.9-5.362 3.77-3.823 5.414-8.677 5.308-12.314-.145-5.062-3.32-7.21-6.56-6.725-7.106 1.062-10.34 10.165-13.222 19.292-3.764-.71-4.103-3.956-4.13-4.866-.103-3.597 2.267-5.103 2.335-5.152l-2.773-3.996c-2.564 2.092-4.417 5.706-4.3 9.82.138 4.784 2.757 8.204 7.298 9.194-.39 1.053-.743 2.138-1.132 3.15-1.602-.992-3.23-1.585-5.215-1.288-4.18.624-5.984 4.748-5.9 7.633.077 2.69 1.887 5.992 6.59 5.29 2.645-.396 4.633-1.843 6.116-3.812 3.37 2.91 5.24 4.696 7.35 6.248 2.177 1.58 4.164 2.555 6.462 2.212 2.406-.36 5.187-2.167 7.615-5.268l-3.287-3.6c-1.62 2.068-3.088 3.28-4.55 3.5l-.004.006zm-20.264-4.043c-.94.14-1.724-.376-1.754-1.406-.028-.99.607-1.997 1.652-2.155.767-.116 1.722.3 2.905 1.276-.838 1.276-1.792 2.133-2.802 2.285zm20.25-27.93c1.116-.167 1.66.508 1.696 1.852.04 1.384-.713 4.358-2.946 6.954-1.388 1.6-3.305 3.037-5.98 3.714 2.413-7.43 4.827-12.16 7.23-12.52z"/><g fill="#FDF7E7"><path d="M34.16 59.89c0 1.2-.788 1.814-2.002 1.814-1.2 0-1.987-.615-1.987-1.815V58.37c0-1.2.787-1.815 2.002-1.815 1.2 0 1.987.615 1.987 1.815v1.517zm-1.11-1.518c0-.564-.35-.85-.878-.85-.543 0-.894.285-.894.85v1.517c0 .563.35.85.88.85.542 0 .893-.286.893-.85V58.37zM37.197 60.667h.572v.966h-2.253v-.966h.572v-3.074h-.573v-.965h1.61l1.843 2.967v-2.002h-.572v-.965h2.252v.965h-.572v4.04H39.04l-1.844-2.967v2zM42.294 57.593h-.572v-.965h4.06v1.608h-1.108v-.644h-1.272v1.05h1.594v.967h-1.594v1.057h1.272v-.643h1.108v1.608h-4.06v-.966h.572v-3.073zM46.855 59.323h1.665v.894h-1.665v-.894zM53.797 59.89c0 1.2-.787 1.814-2.002 1.814-1.2 0-1.987-.615-1.987-1.815V58.37c0-1.2.787-1.815 2.002-1.815 1.2 0 1.987.615 1.987 1.815v1.517zm-1.11-1.518c0-.564-.35-.85-.878-.85-.545 0-.895.285-.895.85v1.517c0 .563.35.85.88.85.543 0 .893-.286.893-.85V58.37zM57.62 61.633h-2.465v-.966h.572v-3.074h-.572v-.965h4.06v1.608H58.11v-.644h-1.272v1.158h1.594v.966h-1.594v.95h.786v.967zM62.97 61.633h-2.467v-.966h.57v-3.074h-.57v-.965h4.06v1.608h-1.108v-.644h-1.27v1.158h1.593v.966h-1.594v.95h.786v.967zM37.9 66.172h-.57v-.965h2.674c.88 0 1.458.45 1.458 1.33 0 .557-.236.942-.636 1.15.443.2.708.607.708 1.193 0 .88-.58 1.33-1.458 1.33H37.33v-.965h.572v-3.073zm1.11 1.05h.8c.358 0 .508-.186.508-.528s-.157-.52-.507-.52h-.8v1.05zm0 2.024h.872c.35 0 .508-.18.508-.522 0-.343-.15-.536-.508-.536h-.872v1.058zM42.82 65.207h2.63c1.037 0 1.716.485 1.716 1.56 0 .778-.357 1.257-.95 1.457l.592 1.022h.672v.964h-1.388l-1.086-1.88H44.5v.916h.572v.964H42.82v-.964h.57v-3.074h-.57v-.965zm1.68 2.16h.915c.372 0 .608-.173.608-.602 0-.43-.243-.594-.608-.594H44.5v1.196zM49.125 66.172h-.572v-.965h4.06v1.608h-1.107v-.644h-1.272v1.052h1.594v.965h-1.594v1.06h1.272V68.6h1.108v1.61h-4.06v-.965h.57v-3.073zM58.37 65.207h2.107v.965h-.536l-.972 4.038h-1.25l-.7-2.974-.694 2.974h-1.252l-.98-4.038h-.478v-.965h2.11v.965h-.53l.544 2.623.765-3.59h1.072l.758 3.59.543-2.623h-.507v-.965z"/></g></svg>