<svg xmlns="http://www.w3.org/2000/svg" width="397.465" height="373.92" viewBox="0 0 397.465 373.92"><path fill="#EA7167" d="M198.732 373.92L0 194.058V0h397.465v194.058L198.732 373.92"/><path fill="#FFF" d="M234.88 181.315c-3.817.567-7.276-.627-14.128-5.51-7.144-5.473-21.192-17.374-29.066-24.286 3.336-7.972 6.093-16.778 8.322-24.886 19.793-2.644 33.508-11.55 42.687-21 14.78-14.973 21.21-33.987 20.796-48.232-.565-19.826-13.002-28.237-25.693-26.34-27.83 4.158-40.498 39.81-51.784 75.563-14.742-2.785-16.07-15.49-16.172-19.06-.41-14.09 8.874-19.99 9.14-20.183l-10.862-15.65c-10.04 8.194-17.3 22.346-16.836 38.46.537 18.737 10.797 32.132 28.58 36.013-1.52 4.123-2.907 8.374-4.433 12.333-6.275-3.88-12.65-6.204-20.428-5.04-16.374 2.445-23.44 18.595-23.11 29.9.3 10.53 7.393 23.473 25.81 20.72 10.365-1.547 18.15-7.218 23.958-14.936 13.205 11.41 20.53 18.402 28.787 24.48 8.53 6.19 16.315 10.006 25.315 8.664 9.42-1.41 20.31-8.486 29.825-20.636l-12.877-14.1c-6.346 8.1-12.094 12.85-17.82 13.707l-.01.018zm-79.368-15.837c-3.68.552-6.752-1.477-6.87-5.51-.112-3.877 2.378-7.822 6.472-8.44 3-.456 6.745 1.17 11.378 4.995-3.28 5-7.017 8.36-10.973 8.956h-.008zm79.316-109.4c4.37-.65 6.495 1.992 6.645 7.256.156 5.42-2.796 17.068-11.543 27.235-5.436 6.266-12.944 11.895-23.416 14.55 9.443-29.103 18.898-47.632 28.314-49.04z"/><g fill="#FFF"><path d="M140.343 240.59c0 4.703-3.08 7.11-7.84 7.11-4.704 0-7.784-2.407-7.784-7.11v-5.937c0-4.704 3.08-7.112 7.84-7.112 4.703 0 7.783 2.41 7.783 7.113v5.936zm-4.34-5.937c0-2.212-1.372-3.332-3.444-3.332-2.13 0-3.5 1.12-3.5 3.333v5.936c0 2.21 1.37 3.33 3.443 3.33 2.128 0 3.5-1.12 3.5-3.33v-5.937zM152.242 243.64h2.24v3.78h-8.82v-3.78h2.24V231.6h-2.24v-3.778h6.3l7.225 11.62v-7.84h-2.24v-3.78h8.82v3.78h-2.24v15.82h-4.06l-7.225-11.62v7.84zM172.206 231.6h-2.24v-3.778h15.904v6.3h-4.34v-2.52h-4.983v4.115h6.243v3.78h-6.243v4.144h4.983v-2.52h4.34v6.3h-15.903v-3.78h2.24V231.6zM190.07 238.377h6.523v3.5h-6.523v-3.5zM217.258 240.59c0 4.703-3.08 7.11-7.84 7.11-4.703 0-7.783-2.407-7.783-7.11v-5.937c0-4.704 3.08-7.112 7.84-7.112 4.703 0 7.783 2.41 7.783 7.113v5.936zm-4.34-5.937c0-2.212-1.37-3.332-3.443-3.332-2.13 0-3.5 1.12-3.5 3.333v5.936c0 2.21 1.37 3.33 3.443 3.33 2.13 0 3.5-1.12 3.5-3.33v-5.937zM232.238 247.42h-9.66v-3.78h2.24V231.6h-2.24v-3.778h15.904v6.3h-4.34v-2.52h-4.984v4.535h6.244v3.78h-6.244v3.724h3.08v3.78zM253.182 247.42h-9.66v-3.78h2.24V231.6h-2.24v-3.778h15.904v6.3h-4.34v-2.52h-4.984v4.535h6.244v3.78h-6.244v3.724h3.08v3.78zM155 265.2h-2.24v-3.78h10.473c3.444 0 5.712 1.765 5.712 5.21 0 2.183-.924 3.694-2.49 4.507 1.734.784 2.77 2.38 2.77 4.676 0 3.444-2.268 5.208-5.712 5.208H152.76v-3.78H155V265.2zm4.34 4.116h3.137c1.4 0 1.988-.728 1.988-2.072s-.616-2.044-1.988-2.044h-3.136v4.116zm0 7.924h3.416c1.373 0 1.988-.7 1.988-2.044s-.588-2.1-1.988-2.1h-3.415v4.144zM174.265 261.42h10.304c4.06 0 6.72 1.904 6.72 6.105 0 3.052-1.4 4.928-3.725 5.712l2.324 4.004h2.63v3.78h-5.432l-4.256-7.363h-1.987v3.584h2.24v3.78h-8.82v-3.78h2.24V265.2h-2.24v-3.78zm6.58 8.457h3.584c1.455 0 2.38-.673 2.38-2.353s-.953-2.324-2.38-2.324h-3.585v4.677zM198.96 265.2h-2.24v-3.78h15.905v6.3h-4.34v-2.52H203.3v4.116h6.245v3.78H203.3v4.144h4.985v-2.52h4.34v6.3H196.72v-3.78h2.24V265.2zM235.164 261.42h8.26v3.78h-2.1l-3.81 15.82h-4.898l-2.743-11.648-2.717 11.648h-4.9l-3.836-15.82h-1.875v-3.78h8.26v3.78h-2.072l2.128 10.276 2.997-14.056h4.2l2.968 14.056 2.128-10.276h-1.988v-3.78z"/></g></svg>