<svg xmlns="http://www.w3.org/2000/svg" width="98.125" height="91.85"><path fill="#FDF7E7" d="M0 0v47.442l49.062 44.405 49.062-44.405V0H0zm96.125 46.557L49.062 89.151 2 46.557V2h94.125v44.557z"/><path fill="#FDF7E7" d="M58.296 44.756c-.975.145-1.858-.161-3.606-1.407-1.824-1.397-5.411-4.435-7.421-6.199.852-2.035 1.556-4.284 2.125-6.354 5.054-.675 8.555-2.949 10.899-5.362 3.772-3.823 5.415-8.677 5.309-12.314-.145-5.062-3.319-7.209-6.56-6.725-7.106 1.062-10.34 10.165-13.222 19.292-3.764-.711-4.103-3.956-4.129-4.866-.104-3.598 2.266-5.104 2.334-5.153l-2.773-3.996c-2.564 2.092-4.417 5.706-4.299 9.819.137 4.785 2.756 8.205 7.297 9.195-.389 1.053-.743 2.138-1.132 3.149-1.602-.991-3.23-1.584-5.215-1.287-4.181.624-5.984 4.748-5.901 7.633.078 2.688 1.888 5.991 6.59 5.288 2.646-.395 4.634-1.842 6.117-3.811 3.372 2.911 5.242 4.696 7.35 6.248 2.178 1.58 4.165 2.555 6.463 2.212 2.406-.36 5.187-2.167 7.615-5.268l-3.287-3.6c-1.62 2.068-3.088 3.28-4.551 3.499l-.003.007zm-20.264-4.043c-.94.141-1.724-.376-1.754-1.406-.028-.991.607-1.997 1.652-2.155.767-.116 1.722.299 2.905 1.276-.838 1.276-1.792 2.133-2.802 2.285h-.001zm20.25-27.93c1.116-.167 1.659.508 1.696 1.852.04 1.384-.713 4.358-2.946 6.954-1.388 1.6-3.305 3.038-5.979 3.715 2.412-7.43 4.826-12.161 7.229-12.521zM34.159 59.889c0 1.2-.787 1.815-2.001 1.815-1.201 0-1.987-.615-1.987-1.815v-1.517c0-1.2.786-1.815 2.001-1.815 1.201 0 1.987.615 1.987 1.815v1.517zm-1.108-1.517c0-.564-.351-.851-.879-.851-.543 0-.894.286-.894.851v1.517c0 .564.35.85.879.85.543 0 .894-.285.894-.85v-1.517zm4.146 2.295h.572v.966h-2.252v-.966h.572v-3.074h-.572v-.965h1.609l1.844 2.967v-2.002h-.572v-.965h2.252v.965h-.572v4.04h-1.037l-1.845-2.967v2.001h.001zm5.097-3.074h-.572v-.965h4.06v1.608h-1.108v-.644h-1.272v1.051h1.594v.966h-1.594v1.058h1.272v-.643h1.108v1.608h-4.06v-.966h.572v-3.073zm4.561 1.73h1.665v.894h-1.665v-.894zm6.942.566c0 1.2-.787 1.815-2.002 1.815-1.2 0-1.987-.615-1.987-1.815v-1.517c0-1.2.787-1.815 2.002-1.815 1.2 0 1.987.615 1.987 1.815v1.517zm-1.109-1.517c0-.564-.35-.851-.879-.851-.544 0-.894.286-.894.851v1.517c0 .564.35.85.879.85.544 0 .894-.285.894-.85v-1.517zm4.933 3.261h-2.466v-.966h.572v-3.074h-.572v-.965h4.061v1.608h-1.108v-.644h-1.272v1.158h1.594v.966h-1.594v.95h.786v.967h-.001zm5.348 0h-2.466v-.966h.571v-3.074h-.571v-.965h4.06v1.608h-1.108v-.644h-1.271v1.158h1.594v.966h-1.594v.95h.786v.967zm-25.068 4.539h-.571v-.965h2.674c.879 0 1.458.45 1.458 1.329 0 .558-.236.943-.636 1.151.443.2.708.607.708 1.193 0 .88-.579 1.329-1.458 1.329H37.33v-.964h.572v-3.073zm1.109 1.051h.801c.357 0 .507-.187.507-.529s-.157-.521-.507-.521h-.801v1.05zm0 2.023h.872c.351 0 .508-.179.508-.522s-.15-.536-.508-.536h-.872v1.058zm3.81-4.039h2.63c1.037 0 1.716.485 1.716 1.559 0 .779-.357 1.258-.951 1.458l.593 1.022h.672v.964h-1.388l-1.086-1.879H44.5v.915h.572v.964H42.82v-.964h.571v-3.074h-.571v-.965zm1.68 2.159h.915c.372 0 .608-.172.608-.601 0-.43-.243-.594-.608-.594H44.5v1.195zm4.625-1.194h-.572v-.965h4.061v1.608h-1.108v-.644h-1.272v1.051h1.594v.965h-1.594v1.059h1.272v-.645h1.108v1.608h-4.061v-.964h.572v-3.073zm9.244-.965h2.108v.965h-.536l-.973 4.038h-1.251l-.7-2.974-.693 2.974h-1.252l-.979-4.038h-.479v-.965h2.109v.965h-.529l.544 2.623.765-3.589h1.072l.758 3.589.543-2.623h-.507v-.965z"/></svg>