<svg xmlns="http://www.w3.org/2000/svg" width="397.465" height="373.92" viewBox="0 0 397.465 373.92"><path fill="#EA7167" d="M198.732 373.92L0 194.058V0h397.465v194.058L198.732 373.92"/><path fill="#FFF" d="M234.881 181.315c-3.818.567-7.277-.627-14.129-5.511-7.144-5.472-21.192-17.373-29.066-24.285 3.336-7.971 6.093-16.777 8.322-24.885 19.793-2.644 33.508-11.55 42.687-21.001 14.779-14.972 21.211-33.986 20.796-48.231-.566-19.826-13.003-28.237-25.694-26.339-27.831 4.157-40.498 39.809-51.784 75.562-14.742-2.785-16.071-15.491-16.172-19.059-.411-14.092 8.873-19.991 9.14-20.184l-10.863-15.651c-10.04 8.195-17.299 22.347-16.836 38.46.537 18.738 10.797 32.133 28.581 36.014-1.521 4.123-2.908 8.374-4.434 12.333-6.274-3.881-12.65-6.204-20.427-5.041-16.374 2.446-23.439 18.596-23.111 29.9.302 10.531 7.394 23.474 25.811 20.72 10.365-1.546 18.149-7.217 23.958-14.935 13.205 11.409 20.529 18.402 28.787 24.479 8.531 6.192 16.315 10.007 25.315 8.665 9.421-1.411 20.311-8.486 29.825-20.636l-12.877-14.101c-6.346 8.102-12.094 12.851-17.821 13.708l-.008.018zm-79.369-15.837c-3.68.552-6.752-1.477-6.87-5.51-.112-3.877 2.378-7.822 6.472-8.441 3.001-.455 6.745 1.171 11.378 4.996-3.281 5-7.017 8.359-10.973 8.956h-.007zm79.316-109.399c4.37-.652 6.495 1.991 6.645 7.255.156 5.421-2.796 17.068-11.543 27.235-5.436 6.267-12.944 11.896-23.416 14.551 9.443-29.103 18.898-47.632 28.314-49.041z"/><g fill="#FFF"><path d="M140.343 240.589c0 4.704-3.08 7.112-7.84 7.112-4.704 0-7.784-2.408-7.784-7.112v-5.936c0-4.704 3.08-7.112 7.84-7.112 4.704 0 7.784 2.408 7.784 7.112v5.936zm-4.34-5.936c0-2.212-1.372-3.332-3.444-3.332-2.128 0-3.5 1.12-3.5 3.332v5.936c0 2.212 1.372 3.332 3.444 3.332 2.128 0 3.5-1.12 3.5-3.332v-5.936zM152.242 243.641h2.24v3.78h-8.82v-3.78h2.24v-12.04h-2.24v-3.779h6.301l7.224 11.62v-7.841h-2.24v-3.779h8.82v3.779h-2.24v15.82h-4.06l-7.225-11.62v7.84zM172.206 231.601h-2.239v-3.779h15.903v6.3h-4.34v-2.521h-4.983v4.116h6.243v3.78h-6.243v4.144h4.983v-2.52h4.34v6.3h-15.903v-3.78h2.239v-12.04zM190.07 238.377h6.523v3.5h-6.523v-3.5zM217.258 240.589c0 4.704-3.08 7.112-7.84 7.112-4.703 0-7.783-2.408-7.783-7.112v-5.936c0-4.704 3.08-7.112 7.84-7.112 4.703 0 7.783 2.408 7.783 7.112v5.936zm-4.34-5.936c0-2.212-1.371-3.332-3.443-3.332-2.129 0-3.5 1.12-3.5 3.332v5.936c0 2.212 1.371 3.332 3.443 3.332 2.129 0 3.5-1.12 3.5-3.332v-5.936zM232.238 247.421h-9.66v-3.78h2.24v-12.04h-2.24v-3.779h15.904v6.3h-4.34v-2.521h-4.984v4.536h6.244v3.78h-6.244v3.724h3.08v3.78zM253.182 247.421h-9.66v-3.78h2.24v-12.04h-2.24v-3.779h15.904v6.3h-4.34v-2.521h-4.984v4.536h6.244v3.78h-6.244v3.724h3.08v3.78zM155 265.2h-2.239v-3.779h10.472c3.444 0 5.712 1.764 5.712 5.208 0 2.184-.924 3.695-2.491 4.508 1.735.784 2.771 2.38 2.771 4.676 0 3.444-2.268 5.208-5.712 5.208h-10.752v-3.78H155V265.2zm4.341 4.116h3.136c1.4 0 1.988-.728 1.988-2.072s-.616-2.044-1.988-2.044h-3.136v4.116zm0 7.924h3.415c1.373 0 1.988-.7 1.988-2.044s-.588-2.1-1.988-2.1h-3.415v4.144zM174.265 261.421h10.304c4.061 0 6.721 1.903 6.721 6.104 0 3.052-1.4 4.928-3.725 5.712l2.324 4.004h2.632v3.78h-5.433l-4.256-7.364h-1.987v3.584h2.239v3.78h-8.819v-3.78h2.239V265.2h-2.239v-3.779zm6.58 8.456h3.584c1.456 0 2.38-.673 2.38-2.353s-.952-2.324-2.38-2.324h-3.584v4.677zM198.961 265.2h-2.24v-3.779h15.904v6.3h-4.34V265.2h-4.984v4.116h6.244v3.78h-6.244v4.144h4.984v-2.52h4.34v6.3h-15.904v-3.78h2.24V265.2zM235.164 261.421h8.26v3.779h-2.1l-3.809 15.82h-4.899l-2.743-11.648-2.717 11.648h-4.9l-3.836-15.82h-1.875v-3.779h8.26v3.779h-2.072l2.128 10.276 2.996-14.056h4.2l2.968 14.056 2.128-10.276h-1.988v-3.779z"/></g></svg>