<svg width="99" height="94" viewBox="0 0 99 94" xmlns="http://www.w3.org/2000/svg"><title>oneoff-colour</title><g fill="none" fill-rule="evenodd"><path d="M49.367 93.21L.094 48.614V.5H98.64v48.114L49.367 93.21" fill="#0A213F"/><path d="M57.024 53.425c-1 .15-1.906-.163-3.7-1.443-1.873-1.433-5.553-4.55-7.615-6.36.873-2.09 1.594-4.395 2.18-6.52 5.183-.693 8.776-3.025 11.18-5.5 3.87-3.922 5.556-8.902 5.447-12.634-.148-5.194-3.406-7.397-6.73-6.9-7.29 1.09-10.608 10.428-13.565 19.793-3.86-.728-4.21-4.056-4.236-4.99-.107-3.692 2.325-5.237 2.395-5.288l-2.845-4.1c-2.63 2.147-4.532 5.854-4.41 10.074.14 4.91 2.828 8.417 7.486 9.434-.397 1.08-.76 2.193-1.16 3.23-1.643-1.016-3.313-1.625-5.35-1.32-4.29.64-6.14 4.872-6.054 7.832.08 2.76 1.936 6.15 6.76 5.428 2.715-.405 4.754-1.89 6.276-3.912 3.46 2.99 5.378 4.82 7.54 6.412 2.236 1.622 4.275 2.622 6.632 2.27 2.467-.37 5.32-2.222 7.812-5.406l-3.372-3.693c-1.662 2.124-3.168 3.367-4.668 3.592l-.002.003zm-20.79-4.148c-.964.144-1.77-.387-1.8-1.443-.03-1.015.623-2.05 1.695-2.21.785-.12 1.765.306 2.98 1.307-.86 1.31-1.84 2.19-2.875 2.347h-.002zM57.01 20.622c1.145-.172 1.7.52 1.74 1.9.04 1.42-.732 4.47-3.023 7.133-1.424 1.642-3.39 3.117-6.134 3.812 2.473-7.623 4.95-12.476 7.417-12.845z" fill="#FDF8E6"/></g></svg>