<svg width="144" height="155" viewBox="0 0 144 155" xmlns="http://www.w3.org/2000/svg"><g fill="#FEFCF8" fill-rule="evenodd"><path d="M84.875 153.224c33.04-5.138 58.483-35.27 58.483-71.57 0-31.465-19.31-58.262-46.12-68.034a21.88 21.88 0 0 0-4.78-7.174A21.865 21.865 0 0 0 76.895 0c-5.88 0-11.407 2.29-15.564 6.446a21.87 21.87 0 0 0-6.445 15.562c0 5.88 2.29 11.406 6.446 15.562a21.866 21.866 0 0 0 15.565 6.447c5.878 0 11.406-2.29 15.562-6.446.053-.05.095-.107.146-.16 23.607 7.533 40.755 29.67 40.755 55.74 0 31.41-24.586 57.15-55.414 58.77-1.022.05-2.05.083-3.086.083-.023 0-.045.014-.068.015-26.786-.03-49.697-17.385-58.767-41.75 1.754-.262 4.012-1.776 5.927-4.03 2.546-2.997 4.11-6.893 2.176-8.54-.43-.365-.992-.56-1.628-.56-1.81 0-4.34 1.605-6.446 4.09a15.94 15.94 0 0 0-1.972 2.917 65.818 65.818 0 0 1-1.025-4.49c.034 0 .06.01.094.01 1.775 0 4.25-1.235 6.454-3.226 2.92-2.635 4.987-6.29 3.287-8.18-.328-.363-.943-.798-2.01-.798-1.778 0-4.253 1.237-6.46 3.23a16.154 16.154 0 0 0-2.27 2.532 67.52 67.52 0 0 1-.248-4.408c.26.06.555.094.893.094 1.737 0 4.08-.922 6.268-2.468 3.21-2.27 5.696-5.654 4.23-7.73-.342-.483-1.04-1.06-2.428-1.06-1.738 0-4.083.922-6.27 2.47-.982.695-1.844 1.47-2.568 2.26.11-1.61.28-3.21.505-4.795.417.11.917.18 1.52.18 1.577 0 3.48-.454 5.358-1.277 3.602-1.577 6.716-4.392 5.7-6.72-.27-.615-1.076-1.646-3.446-1.646-1.575 0-3.48.454-5.357 1.277-.88.387-1.703.835-2.443 1.318.306-1.22.648-2.43 1.02-3.626.788.318 1.788.496 2.986.496 1.188 0 2.504-.173 3.807-.5 3.813-.956 7.354-3.212 6.737-5.677-.37-1.478-2.125-2.326-4.812-2.326-1.188 0-2.504.172-3.806.5-.854.213-1.66.492-2.414.81.55-1.26 1.138-2.5 1.765-3.72.825.776 2.273 1.213 4.215 1.213 1.15 0 2.42-.158 3.672-.458 3.825-.916 7.39-3.136 6.8-5.605-.36-1.513-2.156-2.38-4.925-2.38-1.15 0-2.42.157-3.673.457-.958.23-1.85.532-2.663.88a64.487 64.487 0 0 1 2.167-3.103c.366.19.79.3 1.263.3 1.815 0 4.296-1.465 6.472-3.822a15.643 15.643 0 0 0 2.294-3.187c1.707-1.38 4.425-3.187 5.752-4.068a1 1 0 0 0-1.108-1.666c-1.25.83-2.51 1.68-3.653 2.493.003-.567-.11-1.007-.275-1.342a64.357 64.357 0 0 1 6.116-4.463 1 1 0 1 0-1.08-1.684 66.347 66.347 0 0 0-6.683 4.91 2.943 2.943 0 0 0-.58-.063 3.91 3.91 0 0 0-.65.062 62.496 62.496 0 0 1 3.223-3.21 1 1 0 0 0-1.355-1.47 65.278 65.278 0 0 0-7.115 7.72 1 1 0 0 0-.144.285c-.144.146-.288.283-.43.436-2.08 2.258-3.58 5.08-3.25 7.032a67.285 67.285 0 0 0-2.48 3.503 16.896 16.896 0 0 0-.47-2.27c-.907-3.2-2.943-6.644-5.27-6.644-.21 0-.415.03-.613.086-2.442.694-2.633 4.89-1.56 8.673.772 2.72 2.365 5.61 4.253 6.412a67.157 67.157 0 0 0-1.752 3.675 16.85 16.85 0 0 0-.527-2.47c-.938-3.172-3.003-6.586-5.317-6.586-.22 0-.434.032-.64.093-2.434.724-2.578 4.92-1.462 8.69.938 3.17 3 6.58 5.317 6.58.068 0 .134-.022.202-.03l.015.04a67.983 67.983 0 0 0-1.14 3.895 17.47 17.47 0 0 0-.846-2.05C9.87 64.734 7.502 61.9 5.306 61.9c-.362 0-.704.077-1.015.23-2.28 1.116-1.726 5.278.004 8.81 1.37 2.807 3.738 5.64 5.935 5.64.146 0 .288-.022.427-.048a68.467 68.467 0 0 0-.5 4.072c-.274-.43-.566-.86-.896-1.284-2.06-2.664-4.568-4.386-6.395-4.386-.576 0-1.097.168-1.506.484-2.01 1.557-.628 5.52 1.776 8.63C5.192 86.71 7.7 88.43 9.528 88.43c.123 0 .242-.013.36-.026.02 1.084.063 2.16.135 3.232-.31-.375-.636-.748-.994-1.112-2.194-2.232-4.677-3.62-6.48-3.62-.938 0-1.514.373-1.827.685-1.812 1.782.03 5.554 2.784 8.357 2.19 2.232 4.672 3.62 6.476 3.62a2.8 2.8 0 0 0 .992-.177c.194 1.07.414 2.134.657 3.188a18.2 18.2 0 0 0-.945-.802c-2.225-1.73-4.606-2.765-6.37-2.765-1.25 0-1.916.52-2.25.953-1.562 2.007.763 5.5 3.865 7.916 2.222 1.73 4.602 2.764 6.368 2.764.697 0 1.198-.167 1.577-.386 9.176 25.52 33.045 43.758 60.978 43.758 2.342 0 4.652-.136 6.93-.386.342-.035.676-.092 1.015-.133.695-.08 1.39-.163 2.075-.273zm-77.71-46.917c-3.078-2.396-3.86-4.668-3.516-5.11.084-.112.342-.18.67-.18 1.294 0 3.313.92 5.142 2.342 1.336 1.04 2.46 2.27 3.085 3.37.55.974.56 1.57.43 1.738-.086.11-.344.18-.673.18-1.296 0-3.314-.92-5.14-2.34zm8.08.146c.387-1.206 1.236-2.64 2.332-3.93 1.885-2.223 3.902-3.384 4.92-3.384.11 0 .256.014.333.08.428.362.124 2.747-2.403 5.722-1.883 2.218-3.9 3.38-4.918 3.38-.11 0-.254-.016-.334-.083-.16-.136-.273-.722.068-1.787zM2.13 89.02c.096-.096.308-.108.425-.108 1.002 0 3.01.945 5.05 3.02 2.025 2.063 2.937 4.085 2.927 5.09-.002.208-.044.368-.12.44-.095.096-.307.108-.425.108-1.004 0-3.012-.945-5.05-3.02-2.733-2.782-3.208-5.137-2.806-5.53zm18.748.444c.256 0 .447.05.525.138.375.416-.242 2.74-3.14 5.354-2.076 1.872-4.065 2.71-5.116 2.71-.256 0-.447-.05-.527-.14-.14-.153-.174-.75.306-1.76.543-1.146 1.576-2.452 2.833-3.59 2.076-1.873 4.066-2.712 5.118-2.712zM9.813 86.37c-.07.055-.192.066-.282.066-.98 0-3-1.265-4.81-3.606-2.385-3.087-2.578-5.48-2.134-5.825.07-.055.19-.065.28-.065.98 0 3 1.265 4.812 3.607 1.766 2.287 2.432 4.402 2.303 5.4-.023.205-.084.36-.167.423zm11.845-6.504c.323.457-.564 2.69-3.752 4.944-1.806 1.275-3.812 2.1-5.112 2.1-.474 0-.72-.11-.795-.214-.12-.17-.085-.767.51-1.713.676-1.07 1.855-2.248 3.238-3.23 1.808-1.275 3.814-2.102 5.115-2.102.475.002.722.114.795.216zM5.173 63.93a.285.285 0 0 1 .135-.026c.778 0 2.632 1.437 4.14 4.52 1.272 2.598 1.497 4.804 1.17 5.753-.067.197-.158.336-.252.382a.287.287 0 0 1-.136.024c-.778 0-2.632-1.436-4.138-4.517-1.716-3.506-1.423-5.89-.92-6.138zm8.114 9.812c.877-.914 2.27-1.83 3.823-2.51 1.608-.705 3.27-1.11 4.555-1.11 1.04 0 1.534.27 1.612.45.225.51-1.095 2.52-4.67 4.085-1.607.704-3.268 1.108-4.555 1.108-1.038 0-1.532-.27-1.61-.45-.085-.19.07-.766.845-1.573zm-3.49-21.416c.673 0 2.385 1.722 3.4 5.153.48 1.623.68 3.275.545 4.536-.118 1.11-.46 1.603-.66 1.66-.583.186-2.417-1.577-3.47-5.138-1.106-3.74-.42-6.043.185-6.212zm16.678 9.57c.135.543-1.5 2.304-5.285 3.253-1.145.286-2.292.437-3.32.437-1.818 0-2.788-.484-2.87-.814-.05-.203.2-.746 1.097-1.412 1.017-.754 2.542-1.424 4.187-1.837 1.146-.287 2.292-.438 3.32-.438 1.82 0 2.79.485 2.87.812zm-11.16-19.36c.672 0 2.366 1.734 3.346 5.19.464 1.63.646 3.283.497 4.542-.13 1.11-.477 1.598-.68 1.654a.203.203 0 0 1-.066.01c-.67 0-2.363-1.732-3.345-5.187-1.065-3.753-.355-6.048.25-6.21zm16.574 9.755c.13.544-1.525 2.285-5.32 3.193a14.03 14.03 0 0 1-3.208.402c-2.078 0-2.915-.58-2.98-.848-.022-.098.025-.256.135-.433.524-.856 2.372-2.085 5.185-2.758a13.992 13.992 0 0 1 3.207-.403c2.078.002 2.916.583 2.98.848zm-3.634-12.02c2.013-2.185 4.003-3.18 5-3.18.105 0 .293.014.384.098.154.142.243.732-.144 1.784-.437 1.188-1.345 2.586-2.492 3.832-2.016 2.184-4.006 3.178-5.002 3.178-.104 0-.292-.014-.384-.098-.41-.378-.008-2.745 2.638-5.613zM141.36 81.654c0 8.75-1.53 17.124-4.302 24.856a68.57 68.57 0 0 0 2.8-19.425c0-28.245-17.085-52.44-41.166-62.253a22.14 22.14 0 0 0-.624-8.772c25.256 9.935 43.29 35.586 43.29 65.593zm-75.664-47.07a.997.997 0 0 0-1.4.188c-.383.503-.794.993-1.226 1.46-.04.042-.057.096-.087.143-.077-.074-.16-.14-.237-.215-.207-.207-.39-.432-.586-.646a.996.996 0 0 0 1.105-.392c.396-.575.77-1.175 1.104-1.782a.995.995 0 0 0-.39-1.358.996.996 0 0 0-1.36.39 19.862 19.862 0 0 1-1.003 1.617.997.997 0 0 0-.157.755 19.852 19.852 0 0 1-4.576-12.732c0-5.174 1.966-10.037 5.52-13.772.046.14.116.273.228.387.443.452.872.93 1.27 1.42a1 1 0 0 0 1.552-1.264 22.352 22.352 0 0 0-1.396-1.558 1 1 0 0 0-.355-.23C67.356 3.777 71.983 2 76.895 2c5.16 0 10.012 1.956 13.743 5.49a.993.993 0 0 0-.272.186c-.486.496-.957 1.02-1.396 1.56a.998.998 0 0 0 .775 1.632 1 1 0 0 0 .776-.368c.4-.49.828-.968 1.272-1.42.066-.067.104-.146.147-.227.236.27.473.542.692.822a.996.996 0 0 0-1.05.373 21.683 21.683 0 0 0-1.162 1.74 1 1 0 0 0 1.714 1.032c.323-.54.68-1.072 1.057-1.583a.973.973 0 0 0 .178-.56c4.897 7.113 4.67 16.7-.675 23.588a20.44 20.44 0 0 1-.892-1.44 1 1 0 1 0-1.748.97c.337.607.71 1.207 1.104 1.782.062.088.15.14.23.202-.12.124-.224.258-.346.38-.023.024-.05.044-.073.067-.287-.33-.58-.656-.84-1a1 1 0 1 0-1.59 1.213c.293.386.62.753.943 1.122a19.854 19.854 0 0 1-12.587 4.458 19.86 19.86 0 0 1-12.458-4.36c.032-.028.07-.04.1-.072.475-.512.93-1.05 1.35-1.603a.998.998 0 0 0-.19-1.402zM94.05 35.79a21.86 21.86 0 0 0 4.288-8.94c23.14 9.616 39.52 32.984 39.52 60.237 0 12-3.186 23.242-8.715 32.897a60.767 60.767 0 0 0 6.216-26.83c0-26.652-17.332-49.32-41.31-57.363zm-7.72-2.907a.998.998 0 1 0 1.79-.886c-.28-.57-.538-1.157-.762-1.745a1 1 0 0 0-1.87.71c.25.648.53 1.295.84 1.92zm-.636-15.055a.998.998 0 0 0-1.183.774 22.048 22.048 0 0 0-.33 2.067.998.998 0 0 0 .996 1.11 1 1 0 0 0 .993-.89c.067-.63.17-1.263.298-1.883a.995.995 0 0 0-.774-1.18zm.655 8.756a20.08 20.08 0 0 1-.24-1.89c-.043-.55-.536-.95-1.075-.92a1 1 0 0 0-.92 1.076c.057.692.145 1.393.266 2.08a1 1 0 0 0 1.97-.346zm1.655-14.277a.998.998 0 0 0-1.354.406 21.47 21.47 0 0 0-.9 1.894 1 1 0 1 0 1.846.772c.245-.587.52-1.164.816-1.718a1 1 0 0 0-.407-1.355zm1.772 15.196a1 1 0 1 0-1.95.437c.152.68.338 1.36.554 2.02a.998.998 0 0 0 1.263.64 1 1 0 0 0 .64-1.263 19.247 19.247 0 0 1-.506-1.834zm-.445-5.68a1 1 0 0 0-.934-1.062c-.554-.004-1.026.386-1.062.937a22.218 22.218 0 0 0-.035 2.094 1 1 0 0 0 1 .97h.03a1 1 0 0 0 .97-1.03 18.01 18.01 0 0 1-.01-.617c0-.43.015-.86.042-1.29zm-.366-3.007a1 1 0 0 0 .967-.75c.16-.61.35-1.223.564-1.817a1 1 0 0 0-1.88-.683 22.764 22.764 0 0 0-.62 2 1 1 0 0 0 .97 1.25zM69.39 23.32a1.007 1.007 0 0 0-1.076.92c-.05.63-.13 1.266-.24 1.89a1 1 0 0 0 1.97.347c.12-.688.21-1.387.265-2.08a1.002 1.002 0 0 0-.92-1.076zm-2.562-8.396a1 1 0 0 0 1.31.537 1 1 0 0 0 .536-1.308c-.27-.646-.573-1.28-.9-1.894a.997.997 0 0 0-1.355-.406 1 1 0 0 0-.41 1.354c.298.554.573 1.132.818 1.718zm1.526 14.294a.997.997 0 0 0-1.29.58c-.224.587-.48 1.175-.762 1.744a1 1 0 0 0 .894 1.444c.37 0 .724-.204.897-.557.31-.628.593-1.273.84-1.923a.997.997 0 0 0-.58-1.29zm-.4-10.66c.13.618.23 1.252.3 1.88a1 1 0 0 0 1.987-.22 22.273 22.273 0 0 0-.33-2.067.996.996 0 0 0-1.182-.773.996.996 0 0 0-.774 1.18zm-1.863 5.746h.032a1 1 0 0 0 1-.97 22.997 22.997 0 0 0-.034-2.094c-.036-.55-.5-.955-1.063-.934a1 1 0 0 0-.934 1.062 21.313 21.313 0 0 1 .032 1.904 1 1 0 0 0 .97 1.032zm-.633-5.942a1.002 1.002 0 0 0 .97-1.25 22.108 22.108 0 0 0-.622-2 1 1 0 1 0-1.88.682c.216.596.406 1.206.564 1.817.117.453.522.752.967.752zm.384 7.93a1.003 1.003 0 0 0-1.193.757c-.14.618-.31 1.236-.504 1.835a1 1 0 0 0 1.903.623c.215-.658.4-1.34.554-2.02.12-.54-.22-1.075-.76-1.196zm-1.837-14.958c-.357-.595-.75-1.18-1.163-1.74a1 1 0 0 0-1.608 1.187c.377.51.732 1.042 1.057 1.582a1.002 1.002 0 0 0 1.37.34.997.997 0 0 0 .343-1.37z"/><path d="M66.127 95.517c-.643.096-1.18-.258-1.2-.962-.02-.676.415-1.366 1.13-1.473.524-.078 1.178.205 1.987.872-.574.873-1.226 1.46-1.917 1.563m13.85-19.102c.76-.114 1.133.347 1.16 1.266.027.948-.49 2.98-2.016 4.757-.95 1.093-2.26 2.077-4.09 2.54 1.65-5.08 3.302-8.317 4.946-8.562m.01 21.866c-.667.1-1.27-.108-2.467-.96-1.25-.956-3.702-3.034-5.077-4.24.582-1.392 1.064-2.93 1.454-4.347 3.455-.462 5.85-2.016 7.453-3.667 2.58-2.613 3.704-5.933 3.632-8.42-.1-3.463-2.27-4.932-4.487-4.6-4.86.725-7.072 6.95-9.043 13.194-2.575-.484-2.806-2.704-2.824-3.327-.07-2.46 1.55-3.49 1.597-3.524l-1.898-2.734c-1.753 1.43-3.02 3.9-2.94 6.714.095 3.273 1.886 5.613 4.99 6.29-.265.72-.507 1.462-.774 2.154-1.096-.678-2.208-1.083-3.566-.88-2.86.427-4.093 3.247-4.035 5.22.053 1.84 1.29 4.1 4.506 3.62 1.81-.27 3.17-1.26 4.183-2.61 2.307 1.994 3.587 3.215 5.028 4.276 1.49 1.08 2.85 1.748 4.42 1.513 1.646-.246 3.548-1.48 5.208-3.603l-2.248-2.462c-1.107 1.415-2.112 2.244-3.112 2.393"/></g></svg>