<svg width="144" height="155" viewBox="0 0 144 155" xmlns="http://www.w3.org/2000/svg"><g fill="#FEFCF8" fill-rule="evenodd"><path d="M84.875 153.224c33.04-5.138 58.483-35.271 58.483-71.57 0-31.465-19.31-58.262-46.12-68.034a21.879 21.879 0 0 0-4.78-7.174A21.865 21.865 0 0 0 76.895 0a21.867 21.867 0 0 0-15.564 6.446 21.87 21.87 0 0 0-6.446 15.562c0 5.879 2.29 11.406 6.446 15.562a21.866 21.866 0 0 0 15.564 6.447 21.863 21.863 0 0 0 15.562-6.446c.053-.052.095-.108.146-.161 23.607 7.533 40.755 29.669 40.755 55.741 0 31.409-24.586 57.148-55.414 58.769a61.897 61.897 0 0 1-3.086.083c-.023 0-.045.014-.068.015-26.786-.029-49.697-17.385-58.767-41.751 1.754-.261 4.012-1.775 5.927-4.03 2.546-2.996 4.111-6.892 2.176-8.54-.43-.364-.992-.558-1.628-.558-1.809 0-4.339 1.604-6.446 4.089a15.94 15.94 0 0 0-1.972 2.917 65.818 65.818 0 0 1-1.025-4.49c.034.001.06.01.094.01 1.776 0 4.25-1.235 6.455-3.226 2.92-2.634 4.987-6.288 3.287-8.178-.329-.364-.944-.799-2.012-.799-1.777 0-4.252 1.237-6.459 3.229a16.154 16.154 0 0 0-2.27 2.533 67.52 67.52 0 0 1-.248-4.408c.26.059.555.094.893.094 1.737 0 4.08-.922 6.268-2.468 3.211-2.271 5.696-5.654 4.231-7.73-.343-.483-1.04-1.061-2.429-1.061-1.738 0-4.083.923-6.27 2.471a16.152 16.152 0 0 0-2.568 2.26c.111-1.611.281-3.211.505-4.795a5.99 5.99 0 0 0 1.521.179c1.576 0 3.48-.453 5.357-1.276 3.602-1.577 6.716-4.392 5.7-6.72-.27-.615-1.076-1.646-3.446-1.646-1.575 0-3.479.454-5.357 1.277-.88.386-1.703.834-2.443 1.317.306-1.221.648-2.43 1.021-3.626.787.318 1.787.496 2.985.496 1.188 0 2.504-.173 3.807-.5 3.813-.956 7.354-3.212 6.737-5.677-.37-1.479-2.125-2.327-4.812-2.327-1.188 0-2.504.172-3.806.499-.854.214-1.66.493-2.414.811a64.544 64.544 0 0 1 1.765-3.721c.825.777 2.273 1.214 4.215 1.214 1.15 0 2.42-.158 3.672-.458 3.825-.915 7.39-3.135 6.801-5.604-.36-1.513-2.157-2.381-4.926-2.381-1.149 0-2.42.158-3.672.458-.958.229-1.849.532-2.663.88a64.487 64.487 0 0 1 2.167-3.103c.365.192.79.301 1.262.301 1.815 0 4.296-1.465 6.472-3.822a15.643 15.643 0 0 0 2.294-3.187c1.708-1.38 4.426-3.188 5.753-4.069a1 1 0 0 0-1.108-1.666 149.868 149.868 0 0 0-3.653 2.493c.002-.566-.11-1.006-.276-1.341a64.357 64.357 0 0 1 6.116-4.463 1 1 0 0 0-1.08-1.684 66.347 66.347 0 0 0-6.684 4.908 2.943 2.943 0 0 0-.579-.062c-.208 0-.427.024-.65.062a62.496 62.496 0 0 1 3.222-3.209 1 1 0 0 0-1.355-1.471 65.278 65.278 0 0 0-7.115 7.72 1 1 0 0 0-.144.286c-.144.146-.288.283-.429.436-2.082 2.257-3.58 5.08-3.252 7.031a67.285 67.285 0 0 0-2.479 3.503 16.896 16.896 0 0 0-.469-2.271c-.908-3.198-2.944-6.643-5.27-6.643-.21 0-.416.028-.614.085-2.442.694-2.633 4.889-1.559 8.673.771 2.722 2.364 5.61 4.252 6.413a67.157 67.157 0 0 0-1.752 3.675 16.85 16.85 0 0 0-.527-2.47c-.938-3.172-3.003-6.586-5.317-6.586-.219 0-.434.031-.639.092-2.435.724-2.579 4.919-1.463 8.689.938 3.17 3.001 6.581 5.317 6.581.068 0 .134-.022.202-.029l.015.038a67.983 67.983 0 0 0-1.139 3.896 17.47 17.47 0 0 0-.847-2.049C9.871 64.733 7.502 61.9 5.307 61.9c-.363 0-.705.077-1.016.229-2.282 1.117-1.727 5.279.003 8.812 1.371 2.806 3.738 5.638 5.935 5.638.147 0 .29-.021.428-.047a68.467 68.467 0 0 0-.5 4.072 16.275 16.275 0 0 0-.896-1.284c-2.06-2.664-4.569-4.386-6.396-4.386-.576 0-1.097.168-1.506.484-2.01 1.557-.627 5.52 1.777 8.629 2.056 2.663 4.563 4.385 6.392 4.385.123 0 .242-.013.36-.026a67.74 67.74 0 0 0 .135 3.232c-.31-.375-.636-.748-.994-1.112-2.193-2.232-4.676-3.619-6.478-3.619-.939 0-1.515.372-1.828.684-1.812 1.781.03 5.553 2.784 8.356 2.19 2.232 4.672 3.619 6.476 3.619a2.8 2.8 0 0 0 .992-.176c.194 1.071.414 2.134.657 3.188a18.199 18.199 0 0 0-.945-.802c-2.225-1.731-4.606-2.765-6.37-2.765-1.25 0-1.916.52-2.25.952-1.562 2.007.763 5.5 3.865 7.916 2.222 1.73 4.602 2.765 6.368 2.765.697 0 1.198-.167 1.577-.386 9.176 25.519 33.045 43.758 60.978 43.758 2.342 0 4.652-.136 6.931-.386.341-.035.675-.092 1.014-.133.695-.081 1.39-.163 2.075-.273zm-77.71-46.917c-3.078-2.396-3.86-4.668-3.516-5.111.085-.111.343-.18.671-.18 1.294 0 3.313.92 5.142 2.343 1.336 1.041 2.461 2.271 3.085 3.372.551.973.56 1.57.43 1.737-.086.11-.344.181-.673.181-1.296-.001-3.314-.92-5.14-2.342zm8.08.146c.387-1.206 1.236-2.639 2.332-3.931 1.885-2.222 3.902-3.383 4.921-3.383.108 0 .255.015.332.081.428.362.124 2.747-2.403 5.722-1.883 2.218-3.899 3.379-4.918 3.379-.108 0-.253-.015-.333-.082-.16-.135-.273-.721.068-1.786zM2.13 89.019c.095-.095.307-.107.424-.107 1.002 0 3.011.945 5.051 3.021 2.024 2.062 2.936 4.084 2.926 5.089-.002.208-.044.368-.119.44-.096.096-.308.108-.426.108-1.004 0-3.012-.945-5.049-3.021-2.734-2.781-3.209-5.136-2.807-5.53zm18.747.445c.256 0 .447.051.525.138.375.416-.242 2.739-3.14 5.354-2.076 1.872-4.065 2.71-5.116 2.71-.256 0-.447-.05-.527-.139-.14-.154-.174-.752.306-1.762.543-1.145 1.576-2.451 2.833-3.589 2.077-1.873 4.067-2.712 5.12-2.712zM9.813 86.37c-.07.055-.192.066-.282.066-.98 0-3-1.265-4.81-3.606-2.386-3.087-2.579-5.48-2.135-5.825.07-.055.191-.065.28-.065.98 0 3 1.265 4.812 3.607 1.766 2.287 2.432 4.402 2.303 5.399-.024.206-.085.361-.168.424zm11.845-6.504c.323.457-.564 2.69-3.752 4.944-1.806 1.275-3.812 2.101-5.112 2.101-.474 0-.72-.11-.795-.215-.12-.171-.084-.767.512-1.713.675-1.071 1.854-2.248 3.237-3.229 1.808-1.276 3.814-2.103 5.115-2.103.475.001.722.113.795.215zM5.173 63.929a.285.285 0 0 1 .135-.025c.778 0 2.632 1.437 4.141 4.521 1.271 2.597 1.496 4.803 1.17 5.752-.068.197-.159.336-.253.382a.287.287 0 0 1-.136.025c-.778 0-2.632-1.436-4.138-4.517-1.716-3.506-1.423-5.891-.919-6.138zm8.114 9.813c.877-.914 2.271-1.829 3.823-2.51 1.608-.705 3.27-1.109 4.555-1.109 1.04 0 1.534.27 1.612.448.225.512-1.095 2.521-4.669 4.086-1.608.704-3.269 1.108-4.556 1.108-1.038 0-1.532-.269-1.61-.449-.085-.191.071-.767.845-1.574zm-3.49-21.416c.673 0 2.385 1.722 3.4 5.153.48 1.624.68 3.276.545 4.537-.118 1.11-.459 1.603-.66 1.661-.583.185-2.417-1.578-3.47-5.139-1.106-3.74-.42-6.043.185-6.212zm16.678 9.571c.135.542-1.5 2.303-5.285 3.252-1.145.287-2.292.438-3.319.438-1.819 0-2.789-.484-2.87-.814-.052-.203.198-.746 1.096-1.412 1.017-.755 2.542-1.425 4.187-1.838 1.146-.287 2.292-.438 3.32-.438 1.82 0 2.79.485 2.871.812zm-11.16-19.361c.672 0 2.366 1.734 3.346 5.189.463 1.63.645 3.284.496 4.543-.13 1.109-.477 1.598-.68 1.654a.203.203 0 0 1-.066.01c-.672 0-2.364-1.732-3.346-5.187-1.065-3.753-.355-6.048.25-6.209zm16.574 9.755c.13.543-1.524 2.284-5.32 3.192a14.03 14.03 0 0 1-3.207.402c-2.078 0-2.915-.58-2.979-.848-.023-.098.024-.256.134-.433.524-.856 2.372-2.085 5.185-2.758a13.992 13.992 0 0 1 3.207-.403c2.08.002 2.917.583 2.98.848zm-3.633-12.02c2.013-2.186 4.003-3.18 5.001-3.18.104 0 .292.013.383.097.154.142.243.732-.144 1.784-.437 1.188-1.345 2.586-2.492 3.832-2.016 2.184-4.006 3.178-5.002 3.178-.104 0-.292-.014-.384-.098-.409-.378-.008-2.745 2.638-5.613zM141.36 81.653a73.546 73.546 0 0 1-4.3 24.856 68.569 68.569 0 0 0 2.8-19.424c0-28.245-17.086-52.441-41.167-62.253a22.14 22.14 0 0 0-.624-8.772c25.256 9.935 43.291 35.586 43.291 65.593zm-75.663-47.07a.997.997 0 0 0-1.4.188c-.383.502-.794.992-1.226 1.458-.04.043-.057.097-.087.144-.077-.074-.16-.139-.237-.215-.207-.207-.389-.432-.586-.646a.996.996 0 0 0 1.105-.392c.396-.575.77-1.175 1.104-1.782a.995.995 0 0 0-.39-1.358.996.996 0 0 0-1.359.389 19.862 19.862 0 0 1-1.003 1.618.997.997 0 0 0-.157.755 19.852 19.852 0 0 1-4.576-12.732c0-5.174 1.966-10.037 5.52-13.772a.966.966 0 0 0 .228.387c.443.452.872.931 1.271 1.42a1 1 0 0 0 1.551-1.264 22.352 22.352 0 0 0-1.396-1.559 1.001 1.001 0 0 0-.355-.229C67.356 3.776 71.984 2 76.895 2c5.161 0 10.012 1.956 13.743 5.491a.993.993 0 0 0-.272.185 22.945 22.945 0 0 0-1.396 1.56.998.998 0 0 0 .775 1.632 1 1 0 0 0 .776-.368c.4-.49.827-.968 1.271-1.42.066-.067.104-.146.147-.227.237.271.474.542.693.822a.996.996 0 0 0-1.05.373 21.683 21.683 0 0 0-1.162 1.741 1 1 0 1 0 1.714 1.031c.323-.54.68-1.072 1.057-1.583a.973.973 0 0 0 .177-.56c4.897 7.113 4.671 16.701-.675 23.588-.314-.47-.62-.948-.892-1.439a1 1 0 0 0-1.749.969c.337.607.71 1.207 1.104 1.782.062.088.15.141.23.202-.119.125-.224.259-.346.381-.023.024-.05.044-.073.067-.287-.329-.579-.656-.84-1.001a1 1 0 1 0-1.59 1.213c.293.387.621.754.943 1.123a19.854 19.854 0 0 1-12.587 4.458 19.86 19.86 0 0 1-12.458-4.361c.032-.027.071-.04.101-.071.474-.512.928-1.051 1.348-1.603a.998.998 0 0 0-.188-1.402zm28.353 1.208a21.861 21.861 0 0 0 4.29-8.94c23.14 9.615 39.52 32.983 39.52 60.236 0 12-3.187 23.242-8.716 32.897a60.767 60.767 0 0 0 6.216-26.831c0-26.651-17.33-49.318-41.31-57.362zm-7.72-2.908a.998.998 0 1 0 1.791-.886 20.343 20.343 0 0 1-.762-1.745 1 1 0 0 0-1.869.711c.248.647.53 1.294.84 1.92zm-.635-15.055a.998.998 0 0 0-1.183.774 22.048 22.048 0 0 0-.33 2.067.998.998 0 0 0 .995 1.11c.503 0 .936-.379.993-.89.068-.628.17-1.262.3-1.882a.995.995 0 0 0-.775-1.179zm.655 8.756a20.08 20.08 0 0 1-.239-1.89c-.043-.551-.536-.949-1.075-.919a.999.999 0 0 0-.919 1.075c.056.692.144 1.393.265 2.079a1 1 0 0 0 1.968-.345zm1.656-14.277a.998.998 0 0 0-1.354.406 21.47 21.47 0 0 0-.9 1.894 1 1 0 1 0 1.845.772c.245-.586.52-1.163.816-1.717a1 1 0 0 0-.407-1.355zm1.772 15.196a1 1 0 0 0-1.951.437c.153.681.34 1.359.555 2.02a.998.998 0 0 0 1.262.639 1 1 0 0 0 .64-1.262 19.247 19.247 0 0 1-.506-1.834zm-.445-5.68a1 1 0 0 0-.934-1.062c-.554-.005-1.026.385-1.062.936a22.218 22.218 0 0 0-.035 2.094 1 1 0 0 0 1 .969l.03-.001a1 1 0 0 0 .97-1.029 18.011 18.011 0 0 1-.01-.617c0-.431.014-.86.041-1.29zm-.366-3.007a1 1 0 0 0 .967-.749c.16-.611.35-1.224.564-1.818a1 1 0 1 0-1.88-.682 22.764 22.764 0 0 0-.62 2 1 1 0 0 0 .97 1.249zM69.39 23.321a1.007 1.007 0 0 0-1.075.919 20.08 20.08 0 0 1-.239 1.89 1 1 0 0 0 1.97.347c.12-.688.21-1.387.264-2.079a1.002 1.002 0 0 0-.92-1.077zm-2.56-8.397a.999.999 0 0 0 1.308.537c.51-.213.75-.799.537-1.309a22.348 22.348 0 0 0-.9-1.894.997.997 0 0 0-1.355-.406.999.999 0 0 0-.408 1.354c.297.554.572 1.132.817 1.718zm1.525 14.294a.997.997 0 0 0-1.29.579 19.608 19.608 0 0 1-.762 1.745 1 1 0 0 0 .894 1.444.997.997 0 0 0 .897-.557 21.33 21.33 0 0 0 .84-1.922.997.997 0 0 0-.579-1.289zm-.4-10.661c.13.619.23 1.253.3 1.881a1 1 0 0 0 1.987-.22 22.273 22.273 0 0 0-.33-2.067.996.996 0 0 0-1.183-.774.996.996 0 0 0-.774 1.18zm-1.863 5.747l.031.001a1 1 0 0 0 1-.97 22.997 22.997 0 0 0-.034-2.094c-.036-.552-.5-.956-1.063-.935a1 1 0 0 0-.934 1.062 21.313 21.313 0 0 1 .031 1.904 1.001 1.001 0 0 0 .97 1.032zm-.634-5.942a1.002 1.002 0 0 0 .969-1.251 22.108 22.108 0 0 0-.62-2 1 1 0 1 0-1.88.682c.215.597.405 1.207.563 1.818.118.452.523.751.968.751zm.384 7.93a1.003 1.003 0 0 0-1.194.757 20.388 20.388 0 0 1-.504 1.836 1.001 1.001 0 0 0 1.903.623c.215-.658.4-1.339.554-2.02a1.003 1.003 0 0 0-.759-1.196zm-1.838-14.958a21.874 21.874 0 0 0-1.163-1.741 1 1 0 0 0-1.608 1.187 20.36 20.36 0 0 1 1.057 1.583 1.002 1.002 0 0 0 1.372.341.997.997 0 0 0 .342-1.37z"/><path d="M66.127 95.517c-.643.096-1.18-.258-1.2-.962-.02-.676.415-1.366 1.13-1.473.524-.078 1.178.205 1.987.872-.574.873-1.226 1.46-1.917 1.563m13.849-19.102c.762-.114 1.134.347 1.16 1.266.028.947-.488 2.98-2.015 4.756-.95 1.093-2.26 2.077-4.09 2.54 1.648-5.081 3.3-8.317 4.945-8.562m.01 21.866c-.667.1-1.27-.109-2.467-.962-1.248-.955-3.7-3.033-5.076-4.24.582-1.39 1.064-2.93 1.454-4.346 3.455-.462 5.85-2.016 7.453-3.667 2.58-2.613 3.704-5.933 3.632-8.421-.1-3.462-2.271-4.931-4.487-4.6-4.86.726-7.072 6.952-9.043 13.195-2.575-.484-2.806-2.704-2.824-3.327-.07-2.46 1.55-3.49 1.597-3.524l-1.898-2.733c-1.753 1.43-3.02 3.9-2.939 6.714.094 3.273 1.885 5.613 4.99 6.29-.266.72-.508 1.462-.775 2.154-1.096-.678-2.208-1.083-3.566-.88-2.859.427-4.093 3.247-4.035 5.221.053 1.84 1.29 4.1 4.506 3.62 1.81-.272 3.17-1.262 4.183-2.61 2.306 1.993 3.586 3.214 5.027 4.275 1.49 1.081 2.85 1.748 4.421 1.513 1.645-.246 3.547-1.481 5.207-3.603l-2.248-2.462c-1.107 1.415-2.112 2.244-3.112 2.393"/></g></svg>