<svg width="144px" height="155px" viewBox="0 0 144 155" version="1.1" xmlns="http://www.w3.org/2000/svg" xmlns:xlink="http://www.w3.org/1999/xlink">
    <g id="Page-1" stroke="none" stroke-width="1" fill="none" fill-rule="evenodd">
        <g id="About" transform="translate(-756.000000, -1322.000000)" fill="#FEFCF8">
            <g id="loader-simple" transform="translate(756.000000, 1322.000000)">
                <path d="M84.8751141,153.224 C117.914114,148.086 143.358114,117.953 143.358114,81.654 C143.358114,50.189 124.048114,23.392 97.2371141,13.62 C96.1651141,11.01 94.5751141,8.563 92.4581141,6.446 C88.3011141,2.289 82.7741141,0 76.8951141,0 C71.0161141,0 65.4881141,2.289 61.3311141,6.446 C57.1751141,10.603 54.8851141,16.131 54.8851141,22.008 C54.8851141,27.887 57.1751141,33.414 61.3311141,37.57 C65.4881141,41.728 71.0171141,44.017 76.8951141,44.017 C82.7731141,44.017 88.3011141,41.728 92.4571141,37.571 C92.5101141,37.519 92.5521141,37.463 92.6031141,37.41 C116.210114,44.943 133.358114,67.079 133.358114,93.151 C133.358114,124.56 108.772114,150.299 77.9441141,151.92 C76.9221141,151.971 75.8931141,152.003 74.8581141,152.003 C74.8351141,152.003 74.8131141,152.017 74.7901141,152.018 C48.0041141,151.989 25.0931141,134.633 16.0231141,110.267 C17.7771141,110.006 20.0351141,108.492 21.9501141,106.237 C24.4961141,103.241 26.0611141,99.345 24.1261141,97.697 C23.6961141,97.333 23.1341141,97.139 22.4981141,97.139 C20.6891141,97.139 18.1591141,98.743 16.0521141,101.228 C15.2491141,102.173 14.5911141,103.168 14.0801141,104.145 C13.6891141,102.666 13.3441141,101.17 13.0551141,99.655 C13.0891141,99.656 13.1141141,99.665 13.1491141,99.665 C14.9251141,99.665 17.3991141,98.43 19.6041141,96.439 C22.5241141,93.805 24.5911141,90.151 22.8911141,88.261 C22.5621141,87.897 21.9471141,87.462 20.8791141,87.462 C19.1021141,87.462 16.6271141,88.699 14.4201141,90.691 C13.5321141,91.493 12.7731141,92.358 12.1491141,93.224 C12.0161141,91.769 11.9401141,90.296 11.9021141,88.816 C12.1621141,88.875 12.4571141,88.91 12.7951141,88.91 C14.5321141,88.91 16.8751141,87.988 19.0631141,86.442 C22.2741141,84.171 24.7591141,80.788 23.2941141,78.712 C22.9511141,78.229 22.2531141,77.651 20.8651141,77.651 C19.1271141,77.651 16.7821141,78.574 14.5941141,80.122 C13.6131141,80.817 12.7511141,81.591 12.0271141,82.382 C12.1381141,80.771 12.3081141,79.171 12.5321141,77.587 C12.9491141,77.696 13.4491141,77.766 14.0531141,77.766 C15.6291141,77.766 17.5321141,77.313 19.4101141,76.49 C23.0121141,74.913 26.1261141,72.098 25.1091141,69.77 C24.8391141,69.155 24.0341141,68.124 21.6641141,68.124 C20.0891141,68.124 18.1851141,68.578 16.3071141,69.401 C15.4271141,69.787 14.6041141,70.235 13.8641141,70.718 C14.1701141,69.497 14.5121141,68.288 14.8851141,67.092 C15.6721141,67.41 16.6721141,67.588 17.8701141,67.588 C19.0581141,67.588 20.3741141,67.415 21.6771141,67.088 C25.4901141,66.132 29.0311141,63.876 28.4141141,61.411 C28.0441141,59.932 26.2891141,59.084 23.6021141,59.084 C22.4141141,59.084 21.0981141,59.256 19.7961141,59.583 C18.9421141,59.797 18.1351141,60.076 17.3821141,60.394 C17.9311141,59.133 18.5201141,57.894 19.1471141,56.673 C19.9721141,57.45 21.4201141,57.887 23.3621141,57.887 C24.5121141,57.887 25.7821141,57.729 27.0341141,57.429 C30.8591141,56.514 34.4241141,54.294 33.8351141,51.825 C33.4741141,50.312 31.6781141,49.444 28.9091141,49.444 C27.7601141,49.444 26.4891141,49.602 25.2371141,49.902 C24.2791141,50.131 23.3881141,50.434 22.5741141,50.782 C23.2651141,49.726 23.9891141,48.693 24.7411141,47.679 C25.1061141,47.871 25.5301141,47.98 26.0031141,47.98 L26.0031141,47.98 C27.8181141,47.98 30.2991141,46.515 32.4751141,44.158 C33.4201141,43.134 34.1991141,42.038 34.7691141,40.971 C36.4771141,39.591 39.1951141,37.783 40.5221141,36.902 C40.9821141,36.596 41.1071141,35.975 40.8011141,35.515 C40.4951141,35.055 39.8751141,34.93 39.4141141,35.236 C38.1651141,36.067 36.9051141,36.917 35.7611141,37.729 C35.7631141,37.163 35.6501141,36.723 35.4851141,36.388 C37.4231141,34.794 39.4591141,33.3 41.6011141,31.925 C42.0661141,31.626 42.2011141,31.008 41.9021141,30.543 C41.6041141,30.077 40.9851141,29.943 40.5211141,30.241 C38.1751141,31.747 35.9461141,33.388 33.8371141,35.149 C33.6511141,35.112 33.4601141,35.087 33.2581141,35.087 C33.0501141,35.087 32.8311141,35.111 32.6081141,35.149 C33.6481141,34.04 34.7201141,32.963 35.8301141,31.94 C36.2361141,31.565 36.2621141,30.932 35.8881141,30.527 C35.5141141,30.122 34.8821141,30.096 34.4751141,30.469 C31.9151141,32.83 29.5221141,35.428 27.3601141,38.189 C27.2911141,38.277 27.2521141,38.376 27.2161141,38.475 C27.0721141,38.621 26.9281141,38.758 26.7871141,38.911 C24.7051141,41.168 23.2071141,43.991 23.5351141,45.942 C22.6711141,47.083 21.8451141,48.252 21.0561141,49.445 C20.9521141,48.703 20.8051141,47.943 20.5871141,47.174 C19.6791141,43.976 17.6431141,40.531 15.3161141,40.531 C15.1071141,40.531 14.9011141,40.559 14.7031141,40.616 C12.2611141,41.31 12.0701141,45.505 13.1441141,49.289 C13.9151141,52.011 15.5081141,54.899 17.3961141,55.702 C16.7751141,56.908 16.1911141,58.135 15.6441141,59.377 C15.5331141,58.573 15.3641141,57.743 15.1171141,56.907 C14.1791141,53.735 12.1141141,50.321 9.80011408,50.321 C9.58111408,50.321 9.36611408,50.352 9.16111408,50.413 C6.72611408,51.137 6.58211408,55.332 7.69811408,59.102 C8.63611408,62.272 10.6991141,65.683 13.0151141,65.683 L13.0151141,65.683 C13.0831141,65.683 13.1491141,65.661 13.2171141,65.654 C13.2221141,65.667 13.2261141,65.68 13.2321141,65.692 C12.8141141,66.976 12.4351141,68.276 12.0931141,69.588 C11.8651141,68.916 11.5831141,68.229 11.2461141,67.539 C9.87111408,64.733 7.50211408,61.9 5.30711408,61.9 C4.94411408,61.9 4.60211408,61.977 4.29111408,62.129 C2.00911408,63.246 2.56411408,67.408 4.29411408,70.941 C5.66511408,73.747 8.03211408,76.579 10.2291141,76.579 C10.3761141,76.579 10.5181141,76.558 10.6571141,76.532 C10.4511141,77.879 10.2821141,79.236 10.1561141,80.604 C9.88311408,80.173 9.59111408,79.745 9.26111408,79.32 C7.20111408,76.656 4.69211408,74.934 2.86511408,74.934 C2.28911408,74.934 1.76811408,75.102 1.35911408,75.418 C-0.650885924,76.975 0.732114076,80.938 3.13611408,84.047 C5.19211408,86.71 7.69911408,88.432 9.52811408,88.432 L9.52811408,88.432 C9.65111408,88.432 9.77011408,88.419 9.88811408,88.406 C9.90911408,89.49 9.95111408,90.567 10.0231141,91.638 C9.71311408,91.263 9.38711408,90.89 9.02911408,90.526 C6.83611408,88.294 4.35311408,86.907 2.55111408,86.907 C1.61211408,86.907 1.03611408,87.279 0.723114076,87.591 C-1.08888592,89.372 0.752114076,93.144 3.50711408,95.947 C5.69711408,98.179 8.17911408,99.566 9.98311408,99.566 L9.98311408,99.566 C10.3811141,99.566 10.7011141,99.491 10.9751141,99.39 C11.1691141,100.461 11.3891141,101.524 11.6321141,102.578 C11.3281141,102.306 11.0181141,102.034 10.6871141,101.776 C8.46211408,100.045 6.08111408,99.011 4.31711408,99.011 C3.06611408,99.011 2.40111408,99.531 2.06611408,99.963 C0.505114076,101.97 2.83011408,105.463 5.93211408,107.879 C8.15411408,109.609 10.5341141,110.644 12.3001141,110.644 L12.3001141,110.644 C12.9971141,110.644 13.4981141,110.477 13.8771141,110.258 C23.0531141,135.777 46.9221141,154.016 74.8551141,154.016 C77.1971141,154.016 79.5071141,153.88 81.7861141,153.63 C82.1271141,153.595 82.4611141,153.538 82.8001141,153.497 C83.4951141,153.416 84.1901141,153.334 84.8751141,153.224 L84.8751141,153.224 Z M7.16411408,106.307 C4.08711408,103.911 3.30511408,101.639 3.64911408,101.196 C3.73411408,101.085 3.99211408,101.016 4.32011408,101.016 C5.61411408,101.016 7.63311408,101.936 9.46211408,103.359 C10.7981141,104.4 11.9231141,105.63 12.5471141,106.731 C13.0981141,107.704 13.1071141,108.301 12.9771141,108.468 C12.8911141,108.578 12.6331141,108.649 12.3041141,108.649 C11.0081141,108.648 8.99011408,107.729 7.16411408,106.307 L7.16411408,106.307 Z M15.2441141,106.453 C15.6321141,105.247 16.4811141,103.814 17.5771141,102.522 C19.4621141,100.3 21.4791141,99.139 22.4981141,99.139 C22.6061141,99.139 22.7531141,99.154 22.8301141,99.22 C23.2581141,99.582 22.9541141,101.967 20.4271141,104.942 C18.5441141,107.16 16.5281141,108.321 15.5091141,108.321 C15.4011141,108.321 15.2561141,108.306 15.1761141,108.239 C15.0151141,108.104 14.9031141,107.518 15.2441141,106.453 L15.2441141,106.453 Z M2.13111408,89.019 C2.22611408,88.924 2.43811408,88.912 2.55511408,88.912 C3.55711408,88.912 5.56611408,89.857 7.60611408,91.933 C9.63011408,93.995 10.5421141,96.017 10.5321141,97.022 C10.5301141,97.23 10.4881141,97.39 10.4131141,97.462 C10.3171141,97.558 10.1051141,97.57 9.98711408,97.57 C8.98311408,97.57 6.97511408,96.625 4.93811408,94.549 C2.20411408,91.768 1.72911408,89.413 2.13111408,89.019 L2.13111408,89.019 Z M20.8781141,89.464 C21.1341141,89.464 21.3251141,89.515 21.4031141,89.602 C21.7781141,90.018 21.1611141,92.341 18.2621141,94.956 C16.1871141,96.828 14.1981141,97.666 13.1471141,97.666 C12.8911141,97.666 12.7001141,97.616 12.6201141,97.527 C12.4801141,97.373 12.4461141,96.775 12.9261141,95.765 C13.4691141,94.62 14.5021141,93.314 15.7591141,92.176 C17.8361141,90.303 19.8261141,89.464 20.8781141,89.464 L20.8781141,89.464 Z M9.81311408,86.37 C9.74211408,86.425 9.62111408,86.436 9.53111408,86.436 C8.55011408,86.436 6.53011408,85.171 4.72111408,82.83 C2.33511408,79.743 2.14211408,77.35 2.58611408,77.005 C2.65611408,76.95 2.77711408,76.94 2.86611408,76.94 C3.84611408,76.94 5.86611408,78.205 7.67811408,80.547 C9.44411408,82.834 10.1101141,84.949 9.98111408,85.946 C9.95711408,86.152 9.89611408,86.307 9.81311408,86.37 L9.81311408,86.37 Z M21.6581141,79.866 C21.9811141,80.323 21.0941141,82.556 17.9061141,84.81 C16.1001141,86.085 14.0941141,86.911 12.7941141,86.911 C12.3201141,86.911 12.0731141,86.801 11.9991141,86.696 C11.8791141,86.525 11.9151141,85.929 12.5111141,84.983 C13.1861141,83.912 14.3651141,82.735 15.7481141,81.754 C17.5561141,80.478 19.5621141,79.651 20.8631141,79.651 C21.3381141,79.652 21.5851141,79.764 21.6581141,79.866 L21.6581141,79.866 Z M5.17311408,63.929 C5.18611408,63.922 5.22611408,63.904 5.30811408,63.904 C6.08611408,63.904 7.94011408,65.341 9.44911408,68.425 C10.7201141,71.022 10.9451141,73.228 10.6181141,74.177 C10.5511141,74.374 10.4601141,74.513 10.3661141,74.559 C10.3531141,74.566 10.3131141,74.584 10.2301141,74.584 C9.45211408,74.584 7.59811408,73.148 6.09211408,70.067 C4.37611408,66.561 4.66911408,64.176 5.17311408,63.929 L5.17311408,63.929 Z M13.2871141,73.742 C14.1641141,72.828 15.5581141,71.913 17.1101141,71.232 C18.7181141,70.527 20.3791141,70.123 21.6651141,70.123 C22.7041141,70.123 23.1991141,70.393 23.2771141,70.571 C23.5021141,71.083 22.1821141,73.092 18.6081141,74.657 C17.0001141,75.361 15.3391141,75.765 14.0521141,75.765 C13.0141141,75.765 12.5201141,75.496 12.4411141,75.316 C12.3571141,75.125 12.5131141,74.549 13.2871141,73.742 L13.2871141,73.742 Z M9.79711408,52.326 C10.4701141,52.326 12.1821141,54.048 13.1961141,57.479 C13.6761141,59.103 13.8771141,60.755 13.7421141,62.016 C13.6241141,63.126 13.2831141,63.619 13.0811141,63.677 C12.4991141,63.862 10.6651141,62.099 9.61211408,58.538 C8.50611408,54.798 9.19211408,52.495 9.79711408,52.326 L9.79711408,52.326 Z M26.4751141,61.897 C26.6101141,62.439 24.9751141,64.2 21.1901141,65.149 C20.0451141,65.436 18.8981141,65.587 17.8711141,65.587 C16.0521141,65.587 15.0821141,65.103 15.0001141,64.773 C14.9491141,64.57 15.1991141,64.027 16.0971141,63.361 C17.1141141,62.606 18.6391141,61.936 20.2841141,61.523 C21.4301141,61.236 22.5761141,61.085 23.6031141,61.085 C25.4231141,61.085 26.3931141,61.57 26.4751141,61.897 L26.4751141,61.897 Z M15.3141141,42.536 C15.9871141,42.536 17.6811141,44.27 18.6611141,47.725 C19.1241141,49.355 19.3061141,51.009 19.1571141,52.268 C19.0271141,53.377 18.6801141,53.866 18.4771141,53.922 C18.4561141,53.929 18.4351141,53.932 18.4111141,53.932 C17.7391141,53.932 16.0471141,52.2 15.0651141,48.745 C14.0001141,44.992 14.7101141,42.697 15.3141141,42.536 L15.3141141,42.536 Z M31.8891141,52.291 C32.0191141,52.834 30.3651141,54.575 26.5691141,55.483 C25.4671141,55.747 24.3581141,55.885 23.3621141,55.885 C21.2841141,55.885 20.4471141,55.305 20.3831141,55.037 C20.3601141,54.939 20.4071141,54.781 20.5171141,54.604 C21.0411141,53.748 22.8891141,52.519 25.7021141,51.846 C26.8061141,51.581 27.9131141,51.443 28.9091141,51.443 C30.9881141,51.445 31.8261141,52.026 31.8891141,52.291 L31.8891141,52.291 Z M28.2561141,40.271 C30.2691141,38.085 32.2591141,37.091 33.2571141,37.091 C33.3611141,37.091 33.5491141,37.104 33.6401141,37.188 C33.7941141,37.33 33.8831141,37.92 33.4961141,38.972 C33.0591141,40.16 32.1511141,41.558 31.0041141,42.804 C28.9881141,44.988 26.9981141,45.982 26.0021141,45.982 C25.8981141,45.982 25.7101141,45.968 25.6181141,45.884 C25.2091141,45.506 25.6101141,43.139 28.2561141,40.271 L28.2561141,40.271 Z M141.359114,81.653 C141.359114,90.402 139.830114,98.777 137.058114,106.509 C138.872114,100.359 139.859114,93.839 139.859114,87.085 C139.859114,58.84 122.773114,34.644 98.6921141,24.832 C99.0681141,21.903 98.8661141,18.918 98.0681141,16.06 C123.324114,25.995 141.359114,51.646 141.359114,81.653 L141.359114,81.653 Z M65.6961141,34.583 C65.2581141,34.246 64.6301141,34.333 64.2961141,34.771 C63.9131141,35.273 63.5021141,35.763 63.0701141,36.229 C63.0301141,36.272 63.0131141,36.326 62.9831141,36.373 C62.9061141,36.299 62.8221141,36.234 62.7461141,36.158 C62.5391141,35.951 62.3571141,35.726 62.1601141,35.512 C62.2541141,35.538 62.3481141,35.554 62.4411141,35.554 C62.7591141,35.554 63.0711141,35.403 63.2651141,35.12 C63.6611141,34.545 64.0341141,33.945 64.3691141,33.338 C64.6381141,32.856 64.4641141,32.246 63.9791141,31.98 C63.4971141,31.709 62.8871141,31.885 62.6201141,32.369 C62.3141141,32.921 61.9761141,33.465 61.6171141,33.987 C61.4601141,34.216 61.4111141,34.488 61.4601141,34.742 C58.4981141,31.165 56.8841141,26.713 56.8841141,22.01 C56.8841141,16.836 58.8501141,11.973 62.4041141,8.238 C62.4501141,8.379 62.5201141,8.511 62.6321141,8.625 C63.0751141,9.077 63.5041141,9.556 63.9031141,10.045 C64.1011141,10.287 64.3891141,10.413 64.6791141,10.413 C64.9011141,10.413 65.1241141,10.34 65.3101141,10.188 C65.7381141,9.838 65.8021141,9.209 65.4541141,8.781 C65.0161141,8.243 64.5471141,7.719 64.0581141,7.222 C63.9541141,7.117 63.8311141,7.042 63.7031141,6.993 C67.3561141,3.776 71.9841141,2 76.8951141,2 C82.0561141,2 86.9071141,3.956 90.6381141,7.491 C90.5401141,7.54 90.4461141,7.595 90.3661141,7.676 C89.8801141,8.172 89.4091141,8.697 88.9701141,9.236 C88.6201141,9.665 88.6851141,10.295 89.1141141,10.643 C89.3011141,10.793 89.5231141,10.868 89.7451141,10.868 C90.0351141,10.868 90.3231141,10.742 90.5211141,10.5 C90.9201141,10.01 91.3481141,9.532 91.7921141,9.08 C91.8581141,9.013 91.8961141,8.934 91.9391141,8.853 C92.1761141,9.124 92.4131141,9.395 92.6321141,9.675 C92.2491141,9.578 91.8301141,9.711 91.5821141,10.048 C91.1671141,10.61 90.7761141,11.194 90.4201141,11.789 C90.1361141,12.264 90.2881141,12.877 90.7621141,13.161 C90.9241141,13.258 91.1011141,13.304 91.2761141,13.304 C91.6151141,13.304 91.9471141,13.131 92.1341141,12.82 C92.4571141,12.28 92.8141141,11.748 93.1911141,11.237 C93.3161141,11.068 93.3611141,10.874 93.3681141,10.677 C98.2651141,17.79 98.0391141,27.378 92.6931141,34.265 C92.3791141,33.795 92.0731141,33.317 91.8011141,32.826 C91.5321141,32.344 90.9241141,32.168 90.4421141,32.437 C89.9591141,32.705 89.7841141,33.313 90.0521141,33.795 C90.3891141,34.402 90.7611141,35.002 91.1561141,35.577 C91.2181141,35.665 91.3051141,35.718 91.3851141,35.779 C91.2671141,35.904 91.1621141,36.038 91.0401141,36.16 C91.0171141,36.184 90.9891141,36.204 90.9671141,36.227 C90.6801141,35.898 90.3881141,35.571 90.1261141,35.226 C89.7911141,34.788 89.1631141,34.7 88.7251141,35.038 C88.2861141,35.372 88.2011141,36 88.5361141,36.439 C88.8301141,36.826 89.1581141,37.193 89.4801141,37.562 C85.9281141,40.448 81.5321141,42.02 76.8931141,42.02 C72.3091141,42.02 67.9661141,40.479 64.4351141,37.659 C64.4671141,37.632 64.5061141,37.619 64.5361141,37.588 C65.0101141,37.076 65.4641141,36.537 65.8841141,35.985 C66.2201141,35.545 66.1361141,34.917 65.6961141,34.583 L65.6961141,34.583 Z M94.0491141,35.791 C96.2011141,33.115 97.6211141,30.047 98.3381141,26.851 C121.478114,36.466 137.859114,59.834 137.859114,87.087 C137.859114,99.087 134.672114,110.329 129.143114,119.984 C133.116114,111.883 135.359114,102.779 135.359114,93.153 C135.359114,66.502 118.028114,43.835 94.0491141,35.791 Z M86.3291141,32.883 C86.5041141,33.237 86.8571141,33.441 87.2261141,33.441 C87.3751141,33.441 87.5261141,33.408 87.6691141,33.337 C88.1631141,33.092 88.3651141,32.491 88.1201141,31.997 C87.8391141,31.427 87.5821141,30.84 87.3581141,30.252 C87.1621141,29.736 86.5841141,29.477 86.0681141,29.673 C85.5521141,29.869 85.2941141,30.447 85.4891141,30.963 C85.7371141,31.61 86.0191141,32.257 86.3291141,32.883 Z M85.6941141,17.828 C85.1511141,17.714 84.6241141,18.062 84.5111141,18.602 C84.3681141,19.284 84.2581141,19.98 84.1811141,20.669 C84.1191141,21.219 84.5161141,21.713 85.0651141,21.773 C85.1021141,21.777 85.1391141,21.779 85.1761141,21.779 C85.6791141,21.779 86.1121141,21.4 86.1691141,20.889 C86.2371141,20.261 86.3391141,19.627 86.4681141,19.007 C86.5821141,18.469 86.2351141,17.94 85.6941141,17.828 Z M86.3491141,26.584 C86.2401141,25.96 86.1591141,25.324 86.1101141,24.694 C86.0671141,24.143 85.5741141,23.745 85.0351141,23.775 C84.4841141,23.818 84.0731141,24.298 84.1161141,24.85 C84.1721141,25.542 84.2601141,26.243 84.3811141,26.929 C84.4661141,27.413 84.8881141,27.755 85.3641141,27.755 C85.4221141,27.755 85.4791141,27.75 85.5381141,27.74 C86.0811141,27.646 86.4451141,27.128 86.3491141,26.584 Z M88.0051141,12.307 C87.5181141,12.043 86.9111141,12.228 86.6511141,12.713 C86.3231141,13.324 86.0201141,13.961 85.7511141,14.607 C85.5371141,15.117 85.7781141,15.703 86.2871141,15.916 C86.4131141,15.969 86.5451141,15.993 86.6731141,15.993 C87.0641141,15.993 87.4361141,15.764 87.5961141,15.379 C87.8411141,14.793 88.1161141,14.216 88.4121141,13.662 C88.6741141,13.174 88.4911141,12.568 88.0051141,12.307 Z M89.7771141,27.503 C89.6561141,26.962 89.1181141,26.622 88.5831141,26.746 C88.0451141,26.867 87.7051141,27.401 87.8261141,27.94 C87.9791141,28.621 88.1651141,29.299 88.3811141,29.96 C88.5191141,30.382 88.9091141,30.649 89.3311141,30.649 C89.4351141,30.649 89.5381141,30.632 89.6431141,30.599 C90.1671141,30.427 90.4551141,29.864 90.2831141,29.337 C90.0851141,28.74 89.9161141,28.122 89.7771141,27.503 Z M89.3321141,21.823 C89.3671141,21.272 88.9491141,20.797 88.3981141,20.761 C87.8441141,20.756 87.3721141,21.146 87.3361141,21.697 C87.3061141,22.168 87.2901141,22.639 87.2901141,23.109 C87.2901141,23.337 87.2941141,23.564 87.3011141,23.791 C87.3181141,24.333 87.7621141,24.76 88.3001141,24.76 C88.3111141,24.76 88.3211141,24.76 88.3311141,24.759 C88.8841141,24.742 89.3161141,24.28 89.3001141,23.73 C89.2941141,23.525 89.2891141,23.321 89.2901141,23.113 C89.2911141,22.682 89.3051141,22.253 89.3321141,21.823 Z M88.9661141,18.816 C89.4101141,18.816 89.8171141,18.517 89.9331141,18.067 C90.0921141,17.456 90.2821141,16.843 90.4971141,16.249 C90.6851141,15.729 90.4181141,15.156 89.8981141,14.968 C89.3781141,14.78 88.8051141,15.047 88.6171141,15.567 C88.3801141,16.222 88.1711141,16.895 87.9961141,17.567 C87.8571141,18.101 88.1791141,18.647 88.7141141,18.786 C88.7991141,18.807 88.8831141,18.816 88.9661141,18.816 Z M69.3891141,23.321 C68.8471141,23.282 68.3571141,23.688 68.3141141,24.24 C68.2651141,24.87 68.1841141,25.506 68.0751141,26.13 C67.9791141,26.674 68.3441141,27.192 68.8871141,27.288 C68.9461141,27.298 69.0041141,27.303 69.0611141,27.303 C69.5381141,27.303 69.9601141,26.961 70.0451141,26.477 C70.1651141,25.789 70.2541141,25.09 70.3091141,24.398 C70.3511141,23.846 69.9401141,23.364 69.3891141,23.321 Z M66.8281141,14.924 C66.9891141,15.309 67.3601141,15.538 67.7521141,15.538 C67.8801141,15.538 68.0111141,15.515 68.1371141,15.461 C68.6461141,15.248 68.8871141,14.662 68.6741141,14.152 C68.4031141,13.506 68.1011141,12.871 67.7731141,12.258 C67.5111141,11.772 66.9041141,11.587 66.4191141,11.852 C65.9321141,12.114 65.7491141,12.718 66.0111141,13.206 C66.3081141,13.76 66.5831141,14.338 66.8281141,14.924 Z M68.3541141,29.218 C67.8391141,29.019 67.2601141,29.28 67.0641141,29.797 C66.8401141,30.385 66.5851141,30.973 66.3021141,31.542 C66.0571141,32.036 66.2601141,32.638 66.7541141,32.882 C66.8971141,32.952 67.0481141,32.986 67.1961141,32.986 C67.5651141,32.986 67.9201141,32.782 68.0931141,32.429 C68.4041141,31.802 68.6861141,31.157 68.9321141,30.507 C69.1301141,29.992 68.8701141,29.414 68.3541141,29.218 Z M67.9541141,18.557 C68.0831141,19.176 68.1841141,19.81 68.2541141,20.438 C68.3111141,20.949 68.7431141,21.328 69.2461141,21.328 C69.2831141,21.328 69.3201141,21.326 69.3571141,21.322 C69.9061141,21.26 70.3021141,20.767 70.2411141,20.218 C70.1641141,19.529 70.0531141,18.831 69.9111141,18.151 C69.7991141,17.611 69.2691141,17.26 68.7281141,17.377 C68.1891141,17.486 67.8421141,18.016 67.9541141,18.557 Z M66.0911141,24.304 C66.1021141,24.305 66.1121141,24.305 66.1221141,24.305 C66.6601141,24.305 67.1041141,23.877 67.1211141,23.335 C67.1291141,23.108 67.1331141,22.881 67.1321141,22.655 C67.1321141,22.183 67.1161141,21.712 67.0871141,21.241 C67.0521141,20.689 66.5871141,20.285 66.0251141,20.306 C65.4741141,20.34 65.0561141,20.817 65.0911141,21.368 C65.1171141,21.798 65.1321141,22.226 65.1321141,22.657 C65.1321141,22.863 65.1291141,23.067 65.1221141,23.272 C65.1051141,23.825 65.5391141,24.287 66.0911141,24.304 Z M65.4571141,18.362 C65.5401141,18.362 65.6241141,18.352 65.7081141,18.33 C66.2431141,18.191 66.5631141,17.645 66.4261141,17.111 C66.2521141,16.439 66.0431141,15.766 65.8051141,15.111 C65.6161141,14.591 65.0411141,14.323 64.5241141,14.513 C64.0051141,14.701 63.7371141,15.275 63.9251141,15.793 C64.1411141,16.39 64.3311141,17 64.4891141,17.611 C64.6071141,18.063 65.0121141,18.362 65.4571141,18.362 Z M65.8411141,26.292 C65.3051141,26.174 64.7671141,26.51 64.6471141,27.049 C64.5081141,27.668 64.3381141,28.286 64.1431141,28.885 C63.9721141,29.41 64.2581141,29.976 64.7831141,30.147 C64.8871141,30.181 64.9911141,30.197 65.0951141,30.197 C65.5161141,30.197 65.9071141,29.928 66.0461141,29.508 C66.2611141,28.85 66.4461141,28.169 66.6001141,27.488 C66.7191141,26.947 66.3801141,26.413 65.8411141,26.292 Z M64.0031141,11.334 C63.6461141,10.739 63.2541141,10.153 62.8401141,9.593 C62.5121141,9.151 61.8861141,9.055 61.4421141,9.382 C60.9981141,9.71 60.9041141,10.337 61.2321141,10.78 C61.6091141,11.291 61.9641141,11.823 62.2891141,12.363 C62.4771141,12.675 62.8091141,12.848 63.1471141,12.848 C63.3221141,12.848 63.5011141,12.801 63.6611141,12.704 C64.1341141,12.422 64.2871141,11.808 64.0031141,11.334 Z" id="Combined-Shape"></path>
                <path d="M66.1265085,95.5168138 C65.4836767,95.6132386 64.9474851,95.2589336 64.927054,94.5553068 C64.9071213,93.8788383 65.3416557,93.1894136 66.0564947,93.082275 C66.5807266,93.0040388 67.2347706,93.2870842 68.0435428,93.9538354 C67.4702265,94.8266416 66.8176774,95.4136617 66.1265085,95.5168138 M79.975798,76.4147409 C80.7379773,76.3008749 81.1097235,76.7623186 81.1363836,77.6809702 C81.163542,78.6280259 80.6482798,80.6611686 79.1206821,82.4369294 C78.1711347,83.5299927 76.8603058,84.5144224 75.0314741,84.9771119 C76.6794159,79.8957502 78.3315935,76.6604123 79.975798,76.4147409 M79.9857643,98.2814892 C79.3190131,98.381153 78.7150502,98.1723573 77.5185856,97.3194838 C76.2707941,96.3642058 73.8180666,94.2862144 72.4434529,93.0792851 C73.0254898,91.6884759 73.5073645,90.149666 73.8965519,88.7331935 C77.3521469,88.2710023 79.7478169,86.717492 81.3504117,85.0658127 C83.9302106,82.4526264 85.0541697,79.1330725 84.9816643,76.6449644 C84.8820004,73.182642 82.7105742,71.7138459 80.4947975,72.0457266 C75.6356862,72.7712795 73.4233977,78.9967822 71.4515484,85.2404736 C68.877231,84.7558581 68.6460108,82.5358457 68.6280713,81.9131958 C68.5570608,79.4527444 70.1775951,78.4224692 70.2246863,78.3885835 L68.3273356,75.6560498 C66.5744976,77.0857278 65.3067733,79.5568931 65.3879994,82.3701546 C65.4824309,85.6433648 67.2726429,87.9834721 70.3779195,88.6599405 C70.1123153,89.3792644 69.869883,90.1217601 69.6032821,90.8139256 C68.5074781,90.1359622 67.3949803,89.7305795 66.0373094,89.9346412 C63.1784517,90.3607042 61.944364,93.1814405 62.0019199,95.1552832 C62.0549909,96.9943305 63.2925668,99.2547067 66.5082211,98.7743269 C68.318615,98.5032413 69.6772826,97.5125825 70.690864,96.1653764 C72.9970856,98.1576568 74.2765204,99.3785391 75.7184072,100.439959 C77.2088802,101.521312 78.5682952,102.188063 80.1394958,101.952856 C81.7839495,101.707185 83.6855358,100.471602 85.346434,98.3497589 L83.0982666,95.8878125 C81.9910011,97.3027901 80.9861403,98.1319934 79.9857643,98.2814892" id="Shape"></path>
            </g>
        </g>
    </g>
</svg>