<svg xmlns="http://www.w3.org/2000/svg" width="190.839" height="178.636"><path fill="#FAF4E4" d="M0 0v92.272l95.42 86.363 95.419-86.363V0H0z"/><path fill="#F8EFD5" d="M63.729 100.798l-3.893 2.866 1.84 5.514 4.282 2.176 1.188.547 3.433-1.53z"/><path fill="#FCF7EC" d="M79.09 106.578l2.57-3.962.115.06.091-.141-11.92-6.094-.034.026-6.138 4.385 6.805 9.519zM58.637 90.553l-.332 2.648 5.434 7.603 5.996-4.396z"/><path fill="#F8EFD5" d="M58.079 95.005l-.266 2.034 1.874 6.734 4.052-2.969-5.434-7.603zm12.594 15.499l-.094-.133-3.433 1.53-.025.011 6.553 3.022.248.114z"/><path fill="#FAF4E4" d="M100.542 90.021l-5.16-8.258-.098-.159-.001-.001-.079.123-.033.049-5.316 8.296-3.791 5.913-4.198 6.551-.091.141-.115-.06-2.57 3.962-8.511 3.793.094.133 3.249 4.544 3.541 1.633 17.919 8.261V82.11l5.06 8.026 3.412 5.41.109-.049z"/><path fill="#FCF7EC" d="M58.637 90.553l11.098 5.855.035-.025-11.133-5.835-.125-.066v.005l-3.447-1.818 3.24 4.532z"/><path fill="#F8EFD5" d="M55.065 88.669l-.246-.13 3.082 8.712.178-2.246.226-1.804z"/><path fill="#EDD99D" d="M134.193 89.538l-8.059 11.329-10.595 14.894.514-.239.305-.141 8.759-4.058 3.028-1.403.066-.221.608-2.03 1.152-3.845.49-1.634 1.478-4.936.037.317 2.47-8.164z"/><path fill="#F3E4B1" d="M131.222 91.075l.008.075-.082-.038-2.997 1.55-.064.033-7.435 3.948-11.996 6.369-4.693-7.515-.109.049-3.412-5.41-5.06-8.026v13.87l-.325.089.391 28.994h.312l17.639-8.311 2.14-.991 10.595-14.894 8.059-11.329z"/><path fill="none" d="M85.341 2.038l-.335 1.283h1.044zm19.955-.221l.385 1.504h.063l-.579-2.316-1.273 2.316h1.789z"/><path fill="#C4E86B" d="M60.968 71.905L59.49 83.719l.072.032zm11.856-12.119l4.961 3.823-4.869-3.99zm-5.703 52.126l-1.34-.617.027.027 1.281.604z"/><path fill="#C4E86B" d="M64.376 110.646l1.432.676-.027-.027zm63.775-17.984l-.064.033zm-6.764-26.766l.245-.283-1.966-7.682-.227.174zM85.009 37.744l3.658-6.754-3.731 6.783 1.765 2.434zm2.803 12.289l.024-.045-6.083-6.43-.014.023zm31.605 7.98l.022.092.227-.174-5.248-20.493-.09.094 5.104 20.469zm-46.501 1.606l-1.975-1.618 4.305-17.267-4.543 17.417 2.121 1.635zm8.837-16.061l-5.677-6.002-.002.006 5.665 6.019z"/><path fill="#C4E86B" d="M114.303 37.559l.025-.027.09-.094-2.189-8.551-.07.093zm16.158 64.631l.053.213 1.462-4.832-.037-.317zm-34.909 22.831l-.17-.079v.318l.172.081 17.87-8.561-.025-.028z"/><path fill="#C4E86B" d="M96.688 125.875l-1.134-.534-.091.044z"/><path fill="#C4E86B" d="M95.382 125.362l.013-.005.068.028.091-.044-.172-.081zm32.102-66.464l-1.825 2.108 1.827-2.091zm2.487 44.926l.091.071.452-1.492-.053-.213z"/><path fill="#C4E86B" d="M129.971 103.824l-1.152 3.845.144-.141 1.099-3.633zm-16.572 12.928l.025.028 2.629-1.258zm-10.852-66.705l5.893-6.26-.019-.034-5.91 6.226zM89.82 90.029l-3.836 5.918.08.037 3.791-5.913zm21.997-.194l1.779 1.37.049-.021zm5.465-30.067l2.157-1.663-.022-.092-2.156 1.716z"/><path fill="#C4E86B" d="M114.261 37.603l-5.84 6.15.019.034zm-19.91 15.563l-1.536 2.086.007.008zm3.216 2.02l-2.318-3.197-.015.02 2.326 3.185z"/><path fill="#C4E86B" d="M92.822 55.26l-.007-.008-9.367 12.722.061.046zm19.407-26.373l-3.894-15.199 3.824 15.292zM78.982 89.282l6.06-4.669-.079-.087zm7.082 6.702l-.08-.037-4.324 6.669.115.06zm-8.684 20.791l18.002 8.485v-.318l-17.919-8.261zm-10.259-4.863l-.032.014 6.538 3.081.047-.073z"/><path fill="#C4E86B" d="M73.674 114.934l-.047.073 3.753 1.768.083-.094zm54.413-22.239l-7.517 3.885.082.063 7.435-3.948zm-30.52-37.509l-.007.008 2.26 3.097zm-7.712 34.885l5.316-8.296-5.351 8.254zm5.349-8.345l-.033.049zm22.078-21.958l-.021-.039-2.144 1.709zm11.537 47.901l-.608 2.03.11-.053.642-2.118zm-20.956-95.873l-.009.015.481 1.877z"/><path fill="#C4E86B" d="M107.854 11.811l.009-.015-2.119-8.475h-.063zm-8.323 15.874l-4.535-8.198-.063.116 4.592 8.093zm.482.871l-.482-.871-.006.011z"/><path d="M123.839 27.516l-1.445-12.436-10.165 13.807 2.189 8.551zm-7.481 87.865l-.305.141-2.629 1.258-17.87 8.561 1.134.534 3.321 1.33.001.235 5.941 2.801 10.343-10.209 8.823-8.709zM89.82 90.029l5.351-8.254-2.052-3.254-4.204 3.239-.048-.095-3.825 2.948-6.06 4.669-2.73 2.172 9.732 4.493zm17.995-20.785l-.02.038 4.822 6.649 2.445-2.796-4.413-8.14-.061.049-.045-.083-3.747 2.888zm.606-25.491l-2.955-5.34-5.378 7.059-.011.015 2.434 4.492zM92.815 55.252l-4.979-5.264-.024.045.036.038-7.968 15.153 3.568 2.75zm2.067-35.737l.051.088.063-.116L86.05 3.321h-1.044l-2.528 9.695 7.965 14.696zM31.52 27.957L3.544 6.397v42.661l16.415 16.415 9.893 9.892 24.967 13.174-3.261-8.482zM90.7 136.214l-5.779-5.779-14.605 6.954 6.416 21.696 18.499-18.264-4.531-4.495z" fill="#58A766"/><g fill="#00994B"><path d="M84.936 37.773l-3.183 5.785 6.083 6.43 2.417-4.609-3.552-5.172zm22.243 32.664l-5.985 11.211-.014.027-6.056-4.699-2.005 1.545 2.052 3.254.033-.049.079-.123.001.001.098.159 5.16 8.258 4.493-5.191-.117-.088.116-.134 7.583-8.677-4.822-6.649zm20.908 22.258l.064-.033 2.991-1.588.006.038.074-.037-.835-7.183-3.658 1.618-.395.174-12.597 5.568-.092-.068-.049.021 6.974 5.375zm-30.52-37.509l4.944-5.207-2.434-4.492-4.828 6.502zm-22.12 18.427l2.095 2.382 5.906-8.021-3.568-2.75-.037.072-.024-.02zm9.559-70.292h-7.783l5.255 9.695zm15.043 132.744l5.902-5.824-5.941-2.801zM112.308 3.321h-6.564l2.119 8.475zm-8.416 0H86.05l8.946 16.166zm28.004 104.612l-3.575 1.713-5.412 17.883-2.836 9.367 11.707 5.518 2.37-2.143 2.521-2.283 2.233-2.021 48.393-43.8V81.396l-54.185 25.956zm19.471-74.432l-14.3 47.246-2.621 8.66 27.022-13.965 10.278-10.145 15.551-15.352V5.812zm-20.314-30.18h-10.025l1.366 11.759z"/><path d="M160.502 3.321h-13.69l-22.973 24.195 2.899 24.965 18.928-14.586 5.701-4.394 1.021-3.37zM112.159 28.98l-3.824-15.292-.481-1.877-8.323 15.874.482.871 5.423 9.556zM58.512 90.482l.125.066.853-6.829 1.478-11.814 1.525-12.846.02-.161.071.081 6.094 6.933 2.025-7.761-7.311-5.633-20.843-16.062-11.029-8.499 20.038 52.1 3.261 8.482 3.693 1.948zM22.045 3.321H3.544v3.076l27.976 21.56-2.728-7.093zM3.544 49.058v12.426l26.308 13.881-9.893-9.892zm72.532-11.502l2.301-8.823L68.13 14.609l-1.606 12.85zM69.542 3.321H59.94l8.19 11.288zm15.379 127.114l-10.379-10.379-8.734-8.734-1.432-.676-2.827-1.286 6.31 20.981.085-.132 2.355 7.214zm-25.244-26.727l-1.892-6.352-2.966-8.817-24.967-13.174 27.273 27.274 3.964 4.839z"/></g><path fill="#82B787" d="M63.521 85.683l-3.974-1.826.015-.106-.072-.032-.853 6.829 11.133 5.835 6.363-4.904-7.466-3.431-.635-.292zm10.106 29.324l-6.538-3.081-1.281-.604 8.734 8.734 10.379 10.379 5.739-2.75-.001-.328 4.723-1.995v-.102l-18.002-8.485zm40.791-77.569l5.248 20.493 7.072-5.45-2.899-24.965zM94.351 53.166l.545-.746-4.636-7.031-.007-.01-2.417 4.609 4.979 5.264z"/><path fill="#00783E" d="M70.173 137.548l-2.812-9.25-.088.102-5.912-19.227-4.778-2.199L3.544 81.978v10.189l49.31 44.629 4.035 3.651 2.466 2.233 17.734 16.05-6.992-21.146z"/><path fill="#82B787" d="M171.746 65.297l-10.278 10.145 25.829-13.35V49.945zM68.13 14.609L59.94 3.321H43.69l22.834 24.138z"/><g fill="#00783E"><path d="M151.367 33.501l-5.701 4.394-18.928 14.586-7.072 5.45 1.966 7.682 4.027-4.607 1.825-2.108.002.017.015-.017 2.944 24.8.019.159-.077.035.835 7.183 3.224-1.668 2.621-8.66zm-66.446 96.934l5.779 5.779-.04-8.529zm.042-45.909l.079.087 3.825-2.948-6.252-12.421.894-1.224-.061-.046-5.906 8.021 7.467 8.495zm28.633 6.679l-1.779-1.37-6.782-5.005-4.493 5.191 3.421 5.476 4.693 7.515 11.996-6.369-.082-.063zm-37.344.249l-.064.05-.055-.025-6.363 4.904 11.89 6.233 4.324-6.669zm31.602-79.643l-2.173-8.49h-1.789l-8.896 16.166 4.535 8.198zm38.958-8.49h-15.759l-8.659 11.759 1.445 12.436zm-46.763 132.744l.001.261-4.617 4.62-.038.038-.013-.012v34.316l.039.034 17.935-16.232 6.717-22.194-14.122-6.655z"/><path d="M134.446 89.407l-2.47 8.164-1.462 4.832-.452 1.492-1.099 3.633 2.271-2.243 1.47-1.451 28.764-28.392zM88.667 30.99l1.776-3.278-7.965-14.696-4.101 15.717 6.559 9.04zm-13.421 9.744l.799-3.202.029.03.002-.006-9.552-10.097L43.69 3.321H22.045l6.747 17.543 2.728 7.093 11.029 8.499 20.843 16.062 7.311 5.633z"/></g><path d="M105.466 38.413l2.955 5.34 5.84-6.15.042-.044-2.144-8.579-6.723 9.132.11.196zM77.785 63.609l-4.961-3.823-2.121-1.635-2.025 7.761 6.769 7.701 4.372-8.337zm37.332-2.171l-4.468 3.557 4.413 8.14 6.325-7.239-1.948-7.791-2.157 1.663zm-4.574 3.523l-8.018-14.89.022-.024-.036-.068-4.944 5.207 2.253 3.105 6.976 9.558zm17.602 44.959l-3.028 1.403-8.823 8.709-10.343 10.209 14.122 6.655 2.836-9.367 5.412-17.883-.11.053zM175.596 3.321h-15.094l-8.114 26.81-1.021 3.37 35.93-27.689V3.321zM131.78 142.414l-11.707-5.518-6.717 22.194zM80.515 155.35l-3.426 3.38 7.249 6.561 11.044 9.997v-34.316l-.151-.151zm31.714-126.463l10.165-13.807-1.366-11.759h-8.72l-4.445 8.475.472 1.892zm20.475 74.947l-1.47 1.451-2.271 2.243-.642 2.118 3.575-1.713 1.216-.581 54.185-25.956V62.092l-25.829 13.35zM81.753 43.558l3.183-5.785-6.559-9.04-2.301 8.823zm.725-30.542l-5.255-9.695h-7.681L68.13 14.609l10.247 14.124zm-25.353 89.623L29.852 75.365 3.544 61.484v20.494l53.039 24.996 4.422 1.886-.746-3.131z" fill="#045E31"/><path fill="#EDD99D" d="M106.77 67.869l-6.95-9.578-2.26-3.097-2.405 2.532 10.448 11.043-10.561 8.139 6.152 4.74 5.985-11.211.616-1.155zm-10.082 58.006l-.711-.482-.427.131-.296 15.221 4.795-4.68-.039-8.625z"/><path fill="#FAF4E4" d="M128.151 92.662l2.997-1.55-.006-.038zM88.915 81.76l4.204-3.239 2.005-1.545-.082-.068-10.453-8.054 10.566-11.128-2.333-2.466-9.313 12.76-.894 1.224 6.252 12.421zm18.88-12.478l.02-.038-1.019-1.395-6.976-9.558 6.95 9.578zM87.812 50.033l-7.956 15.172-2.071-1.596 2.034 1.667.024.02.037-.072 7.968-15.153zm31.605 7.98l.015-.012-5.104-20.469-.025.027-.042.044.042-.043zm-50.77 8.02l6.759 7.659 2.088 2.369 7.469 8.465.046-.036-7.467-8.495-2.095-2.382-6.769-7.701-6.094-6.933-.071-.081-.02.161-1.525 12.846 1.595-12.766zm-.615 21.723l.635.292 7.466 3.431.055.025.064-.05 2.73-2.172-2.785 2.148-7.478-3.451-.647-.3-4.527-2.089-3.983-1.839-.015.106 3.974 1.826z"/><path fill="#F6EBC7" d="M95.382 140.673l.168-15.083-.087-.205-.068-.028-.013.005-4.723 1.995.001.328.04 8.529v.112l4.531 4.495.151.151.013.012.038-.038 4.617-4.62-.001-.261z"/><path fill="#FAF4E4" d="M96.688 125.875l3.322 1.565-.001-.235z"/><path fill="#EDD99D" d="M103.817 95.766l-3.411-5.411-5.316-8.259-.066 14.037 2.214 2.564 3.99 4.522 12.135 13.753 2.653-1.23.303-.145-4.813-7.633z"/><path fill="#F8EFD5" d="M86.539 95.428l3.411-5.41 5.06-8.026v14.224l-1.892 2.143-3.991 4.522-12.134 13.753-2.654-1.23-.987-.494z"/><path fill="#EDD99D" d="M126.299 85.545l.393-.175 3.676-1.638-2.881-24.807-4.944 11.597z"/><path fill="#F3E4B1" d="M121.396 65.931l1.147 4.591 4.944-11.597-.001-.01-1.827 2.091-4.017 4.641zm-2.77 13.782l4.039 7.451 3.634-1.619-3.756-15.023z"/><path fill="#FAF4E4" d="M121.396 65.931l-6.297 7.273 3.527 6.509 3.917-9.191zm6.1-7.027l-.01.011.001.01z"/><path fill="#FAF4E4" d="M115.099 73.204l-.037-.069-2.445 2.796-7.583 8.677-.116.134.117.088 6.782 5.005 1.828 1.349.07.051 4.911-11.522z"/><path fill="#F5E9C0" d="M130.445 83.698l-2.944-24.8-.005.006-.009.021 2.881 24.807-3.676 1.638-.393.175-3.634 1.619-4.039-7.451-4.911 11.522.022.017 12.597-5.568.395-.174 3.658-1.618.077-.035z"/><path fill="#F3E4B1" d="M67.53 70.314L63.545 85.59l4.527 2.089 3.748-7.147z"/><path fill="#F9F2DC" d="M71.82 80.532l3.586-6.84-6.759-7.659-1.117 4.281z"/><path fill="#F6EBC7" d="M63.089 59.733l-.526-.594-1.595 12.766-1.406 11.846 3.983 1.839 3.985-15.276z"/><path fill="#FCF7EC" d="M68.647 66.033l-5.558-6.3 4.441 10.581z"/><path fill="#F3E4B1" d="M68.072 87.679l.647.3 7.478 3.451.149-.115-4.526-10.783z"/><path fill="#F9F2DC" d="M84.963 84.526l-7.469-8.465-2.088-2.369-3.586 6.84 4.526 10.783 2.636-2.033z"/><path fill="#EDD99D" d="M100.046 45.431l5.312-7.215-5.345-9.66-.488-.86-4.47 8.526z"/><path fill="#F3E4B1" d="M94.967 36.388l.106 15.359.015.488 4.958-6.804-4.991-9.209z"/><path fill="#F8EFD5" d="M90.276 45.36l4.625 7.047.359-.437-.156-.235-.137-15.347zm.181-17.623l4.508 8.32-.112-16.31z"/><path fill="#F3E4B1" d="M94.965 36.057l.09.165 4.47-8.526-4.592-8.093-.08.144z"/><path fill="#FAF4E4" d="M105.436 38.112l-5.423-9.556 5.345 9.66-5.312 7.215-4.813 6.537-.16-.221.003.475.158-.213.015-.02 4.828-6.502.011-.015 5.378-7.059.08-.105zm-10.471-2.055l.002.331.088-.166zm-.032-16.454l-.051-.088-.03.056.001.176z"/><path fill="#FAF4E4" d="M90.337 45.219l4.63-8.831-.002-.331-4.508-8.32 4.396-7.99-.001-.176-4.409 8.141-1.776 3.278-3.658 6.754 1.692 2.463 3.552 5.172.007.01zm-8.598-1.638l-5.473-5.814 1.662 12.742 1.916 14.686.012.01 7.956-15.172z"/><path fill="#F7EDCE" d="M77.928 50.509l-1.662-12.742-.192-.205-.029-.03-.799 3.202-4.305 17.267 1.975 1.618 4.869 3.99 2.059 1.586z"/><path fill="#F3E4B1" d="M114.184 37.685l-5.744 6.102 3.971 7.177z"/><path fill="#EDD99D" d="M114.303 37.56l-.042.043-.077.082-1.773 13.279-1.869 13.996.001.001.045.083.061-.049 4.468-3.557 2.144-1.709 2.156-1.716z"/><path fill="#F8EFD5" d="M108.44 43.787l-5.893 6.26-.022.024 8.017 14.889 1.869-13.996z"/><path fill="none" d="M95.154 57.725v.002l.001-.001z"/><path fill="#F8EFD5" d="M84.589 68.854l10.453 8.054.046-.036.066-19.145z"/><path fill="#F3E4B1" d="M95.155 57.726l-.001.001-.066 19.145 10.515-8.103z"/><path fill="#F8EFD5" d="M94.911 52.444l-.014-.02-.546.742-1.529 2.094 2.332 2.465.02-5.634z"/><path fill="#F3E4B1" d="M97.56 55.194l-.106-.147-2.22-3.038-.06.082-.02 5.634.001.001z"/><path fill="none" d="M105.803 38.246l2.699 4.879 5.39-5.676-1.902-7.605zM87.761 49.363l2.041-3.885-4.919-6.834-2.67 4.855zm15.209.677l7.756 14.309 8.294-6.391-4.913-19.647zm-.375-.693l5.365-5.652-2.647-4.784-4.823 6.551zm9.548 26.572l-4.302-5.867-6.178 11.484 3.395 2.617zm2.977-3.461l5.831-6.775-1.733-6.932-8.131 6.266zm-45.872-6.947l6.235 7.227 3.9-7.426-8.301-6.397-1.707 6.628zm6.864 25.51l8.502-6.551-21.696-25.147L59.9 83.467zm-6.415 4.943l5.746-4.428-15.641-7.287-.761 6.092zm-6.653-37.645l5.711 6.621 1.681-6.523-6.753-5.204zm18.454 43.86l3.894-6.007-9.183-4.278-5.783 4.455 11.06 5.836zm6.784-20.535l-5.766-11.77-4.376 5.942 7.069 8.196zM76.585 37.549l5.086 5.378 2.727-4.957-5.834-8.108zm3.152 27.09l7.655-14.574-5.992-6.334-5.036-5.324-5.079 19.719zm15.348-13.103l9.829-13.348-9.917-17.923-9.713 17.652zm-.114 24.978a.425.425 0 0 1 .391.167l5.699 4.392 6.289-11.69-12.209-16.655-2.097 2.848-10.027 13.616 5.872 11.984 5.794-4.465a.372.372 0 0 1 .288-.197zm32.216-16.929L105.652 84.61l8.188 6.311L130 83.812zm6.945 29.563l16.536-54.633-23.532 18.134 4.395 37.844zm25.319-12.242l-24.693 12.763-5.01 16.558zM97.964 55.312l8.842 12.058 3.318-2.557-7.697-14.201zm-5.185-.643l1.84-2.498-4.327-6.013-1.986 3.781zM77.636 75.233l5.294-7.188-2.943-2.267-3.977 7.571zm5.739-7.793l8.952-12.158-4.39-4.64-7.597 14.462zm27.11-1.96l-3.236 2.495 5.396 7.36 1.952-2.268zm-12.97-10.783l4.537-4.778-2.054-3.789-4.392 5.965zm22.351 3.554l1.683 6.736 5.52-6.415-.627-5.389zm-20.063 69.507l-4.248-2.002-4.802 2.3v7.679l4.519 4.52 4.531-4.471zM67.598 112.58l17.401 17.401 9.681-4.637zm8.157-74.816l-8.958-9.47L63.79 52.35l6.849 5.278zM32.216 77.037l27.099 26.954-4.706-15.138zm30.777-24.355L32.398 29.106l22.857 59.239 3.077 1.623zm37.56 75.43v6.932l4.753-4.692z"/><path fill="none" d="M125.206 110.722l2.804-1.343 5.82-19.229-13.281 6.864-.172-.333.171.334-11.762 6.036a.376.376 0 0 1-.542-.157L95.118 82.548l-13.167 20.235-.449.259-25.953-13.693 4.904 15.774.026.026-.014.014 1.175 3.781 33.912 15.981 29.654-14.203zm-18.609 19.41l13.242 6.24 7.876-26.021-2.095 1.003zm-10.794 10.654l17.427 17.427 6.391-21.114-13.593-6.407zm-5.8-12.371l-4.442 2.128 4.442 4.442zm-24.331-16.742l-3.73-1.758 8.417 27.078 13.922-6.668-18.63-18.631zm30.755 13.665l9.448 4.453 17.671-17.444zm-1.86-105.85L85.471 3.047l-2.568 9.969 7.556 13.94zm28.879 7.898l-1.315-11.317-9.564 12.991 1.936 7.745z"/><path fill="none" d="M119.874 96.517L105.163 85.18l-4.261 4.951 7.815 12.112zm-.207-39.059l6.674-5.144-2.782-23.959-8.84 9.311zm10.423 27.131l-15.573 6.853 6.093 4.696 10.209-5.276zm-52.096-55.52L68.372 15.7l-1.454 11.63 9.058 9.575zm14.872 49.989L85.7 84.58l4.115 4.77 4.857-7.494zm11.702 5.664l-9.525-7.341-1.581 1.218 7.017 10.875zm-19.464.317l-8.226 6.339 8.926 4.158 3.586-5.53zm14.782-57.487l5.517 9.971 6.35-8.624-4.015-16.058-7.744 14.767zm-9.857.185l-7.4-13.655-3.821 14.836 5.991 8.325zm17.435-15.99l-2.431-9.725-9.61 17.465 4.099 7.408z"/><path fill="#045E31" d="M188.365 81.301l-.324-.676-59.115 28.315.428-1.415.071.072 32.267-31.85L189.72 61.26l-.345-.666-25.888 13.381 25.984-25.648-.527-.533-27.698 27.34-26.185 13.535 16.628-54.942 37.076-28.572-.458-.594-36.245 27.932 9.26-30.595-.718-.217-9.563 31.6-24.007 18.5-2.803-24.133 24.504-25.809-.543-.516-24.073 25.354-1.335-11.492 8.77-11.911-.604-.445-8.293 11.263-1.414-12.175-.745.086 1.507 12.976-9.674 13.139-4.069-16.273 5.048-9.627-.664-.348-4.657 8.881L105.473.689l-.587.146-.041-.022-.021.038-.079.02.021.085-9.771 17.759-9.252-16.726.092-.356-.337-.087-.371-.67-.656.363.471.852-2.564 9.955-5.642-10.408-.659.357 6.026 11.118-3.866 15.012-9.729-13.518 1.649-13.191-.744-.094-1.549 12.39L58.324.457l-.608.438 10.011 13.911-1.478 11.818L42.944 1.987l-.545.515L66.13 27.589l-3.029 24.23-31.222-24.06L21.644 1.232l-.699.27 9.791 25.376L1.447 4.309l-.458.594 30.266 23.322 22.991 59.586-23.847-12.582L1.776 46.76l-.529.531 26.888 26.744L1.231 59.84l-.35.664 29.071 15.339 29.839 29.679.929 2.988L1.695 80.691l-.32.678 59.646 28.111 8.654 27.841-12.044 5.769.325.676 11.944-5.722 6.207 19.969.717-.223-6.24-20.074 14.258-6.829 9.896 9.896-18.968 18.723.526.533 18.711-18.468v32.914h.75v-32.684l17.226 17.227-.169.561.718.217 6.775-22.385 12.554 5.917.32-.678-12.656-5.964 8.106-26.785 59.734-28.61zm-28.914-4.395l-29.704 29.32 5.011-16.558 24.693-12.762zm-8.783-42.391l-16.536 54.634-2.601 1.345-4.396-37.844 23.533-18.135zm-55.671-14.25l9.917 17.924-9.828 13.348-9.802-13.619 9.713-17.653zm10.655 64.345l21.534-25.025L130 83.812l-16.16 7.109-8.188-6.311zm-16.763-3.433l-5.872-11.984 10.026-13.617 2.097-2.848 12.209 16.654-6.289 11.69-5.699-4.392a.425.425 0 0 0-.391-.167.377.377 0 0 0-.289.198l-5.792 4.466zm5.73-29.006l-1.839 2.498-4.474-4.729 1.986-3.781 4.327 6.012zm5.379-6.041l2.054 3.789-4.537 4.778-1.909-2.603 4.392-5.964zm12.647 29.205l-5.396-7.36 3.236-2.494 4.111 7.587-1.951 2.267zm-5.839-7.965l-8.842-12.059 4.463-4.699 7.696 14.201-3.317 2.557zM92.327 55.282L83.375 67.44l-3.034-2.337 7.597-14.462 4.389 4.641zM82.93 68.045l-5.293 7.188-1.626-1.885 3.977-7.57 2.942 2.267zm-.414 1.829l5.767 11.77-3.073 2.368-7.07-8.195 4.376-5.943zm25.325.178l4.301 5.867-7.084 8.234-3.395-2.617 6.178-11.484zm13.708-5.065l-1.684-6.736 6.576-5.068.627 5.39-5.519 6.414zm-.598.696l-5.831 6.775-4.033-7.441 8.131-6.266 1.733 6.932zm-10.225-1.334L102.97 50.04l11.137-11.729 4.913 19.647-8.294 6.391zm-2.224-21.224l-2.7-4.879 6.187-8.402 1.902 7.605-5.389 5.676zm-.542.57l-5.366 5.651-2.105-3.885 4.824-6.551 2.647 4.785zm-18.158 1.783l-2.041 3.886-5.548-5.864 2.67-4.855 4.919 6.833zm-8.131-2.551l-5.086-5.378 1.979-7.687 5.834 8.107-2.727 4.958zm-.271.804l5.992 6.334-7.655 14.573-8.452-6.513 5.079-19.719 5.036 5.325zm-2.017 21.581l-3.9 7.426-6.235-7.228.127.032 1.707-6.628 8.301 6.398zm-10.628-.372l-5.711-6.621.639-5.106 6.753 5.204-1.681 6.523zm-5.837-5.617L84.614 84.47l-8.501 6.551L59.9 83.467l3.018-24.144zm-3.116 24.926l15.641 7.287-5.746 4.428-10.657-5.623.762-6.092zm16.407 7.645l9.183 4.278-3.894 6.007-.012.006-11.06-5.836 5.783-4.455zm9.595 3.642l-8.926-4.158 8.227-6.339 4.285 4.967-3.586 5.53zm4.011-6.186L85.7 84.58l7.167-5.522 1.806 2.799-4.858 7.493zm3.647-10.751l1.581-1.218 9.525 7.341-4.089 4.752-7.017-10.875zm11.701 6.581l14.711 11.337-11.157 5.727-7.815-12.112 4.261-4.952zm15.447 10.958l-6.094-4.695 15.574-6.854.729 6.273-10.209 5.276zm5.731-43.824l-6.674 5.144-4.949-19.792 8.84-9.311 2.783 23.959zm-4.21-36.245l1.315 11.316-8.943 9.419-1.936-7.745 9.564-12.99zm-10.378 12.83l-6.35 8.624-5.517-9.972.108.057 7.744-14.768 4.015 16.059zm-6.72-26.877l2.431 9.725-7.941 15.147-4.099-7.407 9.609-17.465zM85.471 3.047l9.096 16.441-4.108 7.468-7.556-13.94 2.568-9.969zm-2.842 11.035l7.4 13.655-5.23 9.506-5.991-8.325 3.821-14.836zM68.372 15.7l9.622 13.369-2.018 7.836-9.058-9.575 1.454-11.63zm-1.575 12.594l8.958 9.47-5.116 19.864-6.849-5.278 3.007-24.056zm-34.399.812l30.595 23.575-4.662 37.286-3.077-1.623-22.856-59.238zm-.182 47.931l22.393 11.815 4.707 15.139-27.1-26.954zm28.249 28.126l.014-.014-.026-.026-4.904-15.774 26.164 13.809.238-.374 13.167-20.235 13.126 20.346a.374.374 0 0 0 .542.157l11.762-6.036-.171-.334.172.333 13.281-6.864-5.82 19.229-2.804 1.343-29.654 14.204-33.912-15.981-1.175-3.783zm34.807 35.092l-4.52-4.52v-7.68l4.802-2.3 4.248 2.002v8.026l-4.53 4.472zm-10.273-10.274L67.598 112.58l27.083 12.764-9.682 4.637zm15.554-1.869l4.753 2.239-4.753 4.692v-6.931zm-4.126-2.774l27.119-12.991-17.671 17.444-9.448-4.453zm-26.068 11.655l-8.417-27.078 3.73 1.758-.021.021 18.63 18.631-13.922 6.668zm19.644-8.578v6.57l-4.442-4.442 4.442-2.128zm23.227 29.798l-17.427-17.427 10.226-10.094 13.592 6.406-6.391 21.115zm6.609-21.841l-13.242-6.24 19.023-18.777 2.095-1.004-7.876 26.021z"/><path fill="#FAF4E4" d="M0 0v92.272l95.42 86.363 95.419-86.363V0H0zm186.951 90.548L95.42 173.39 3.89 90.548V3.89h183.062v86.658z"/></svg>