<svg width="98" height="93" viewBox="0 0 98 93" xmlns="http://www.w3.org/2000/svg"><title>prospect-colour</title><g fill="none" fill-rule="evenodd"><path d="M32.093 52.113l-2.068 1.524.977 2.93 2.276 1.156.63.29 1.825-.812-3.64-5.087" fill="#FAF1D2"/><path d="M40.257 55.185l1.366-2.105.06.03.048-.073-6.333-3.24-.018.015-3.263 2.33 3.616 5.06 4.524-2.017M29.387 46.668l-.176 1.408 2.89 4.04 3.185-2.335-5.898-3.112" fill="#FFF9EA"/><path d="M29.09 49.035l-.14 1.08.995 3.58 2.154-1.58-2.89-4.04-.12.96M35.784 57.27l-.05-.07-1.825.814-.014.006 3.483 1.605.13.06-1.726-2.414" fill="#FAF1D2"/><path d="M51.657 46.386l-2.742-4.39-.052-.083-.043.065-.018.026-7.07 11.033-.05.074-.06-.03-1.365 2.105-4.524 2.016.05.07 1.727 2.416 1.882.868 9.523 4.39V42.182l4.502 7.14.057-.026-1.817-2.91" fill="#FDF6E1"/><path d="M29.387 46.668l5.898 3.113.018-.013-5.916-3.1-.066-.036v.004l-1.83-.967 1.72 2.41.177-1.41" fill="#FFF9EA"/><path d="M27.49 45.667l-.132-.068 1.638 4.63.095-1.195.12-.96-1.72-2.408" fill="#FAF1D2"/><path d="M69.54 46.13l-9.914 13.935.436-.202 4.655-2.156 1.608-.746.036-.116.936-3.122.26-.87.786-2.622.02.17 1.313-4.34-.135.07" fill="#EAD698"/><path d="M67.96 46.946l.005.04-.043-.02-1.593.824-.035.017L55.97 53.29l-2.496-3.994-.057.026-4.502-7.14v7.37l-.173.048.207 15.41h.166l9.374-4.418 1.136-.527L69.54 46.13l-1.58.816" fill="#F2E4AD"/><path d="M30.626 36.76l-.785 6.277.04.017.746-6.295M36.927 30.32l2.636 2.03-2.588-2.12-.048.09M33.896 58.02l-.712-.328.014.014.68.32.018-.006M32.437 57.347l.76.36-.013-.015-.747-.345M66.33 47.79l-.035.017.034-.017M62.734 33.565l.13-.15-1.045-4.083-.12.093 1.034 4.14M43.402 18.605l1.944-3.59-1.983 3.605.938 1.294-.898-1.31M44.892 25.136l.012-.024-3.233-3.418-.005.013 3.227 3.43" fill="#BED76C"/><path d="M61.687 29.376l.012.05.12-.094-2.79-10.89-.047.05 2.712 10.877-.008.006M36.975 30.23l-1.05-.86 2.29-9.176L35.8 29.45l1.127.87.048-.09M41.67 21.694l-3.015-3.19v.004l3.01 3.2.006-.014" fill="#BED76C"/><path d="M58.97 18.506l.013-.014.048-.05-1.163-4.545-.036.05 1.14 4.56M67.557 52.853l.027.113.777-2.567-.018-.17-.785 2.623M49.005 64.986l-.09-.042v.17l.09.042 9.498-4.55-.013-.014-9.485 4.394M49.61 65.44l-.604-.284-.05.023.653.26" fill="#BED76C"/><path d="M48.915 65.167l.006-.002.037.014.05-.024-.092-.043v.054M65.975 29.847l-.97 1.12.97-1.11v-.01M67.296 53.722l.048.037.24-.794-.027-.113-.26.87" fill="#BED76C"/><path d="M67.296 53.722l-.612 2.043.077-.075.584-1.93-.048-.038M58.49 60.592l.013.015 1.396-.67-1.41.655M52.722 25.142l3.132-3.326-.01-.018-3.14 3.308.018.036M45.96 46.39l-2.04 3.146.043.02 2.015-3.143-.02-.022M57.65 46.287l.944.728.026-.01-.97-.718M60.553 30.308l1.146-.883-.013-.05-1.146.913.013.02" fill="#BED76C"/><path d="M58.947 18.53l-3.103 3.268.01.018 3.093-3.287M48.366 26.8l-.815 1.11.004.003.812-1.113M50.076 27.873l-1.232-1.698-.008.01 1.236 1.693.004-.005" fill="#BED76C"/><path d="M47.554 27.913l-.003-.004-4.977 6.76.032.024 4.95-6.78M57.867 13.897l-2.07-8.077 2.034 8.127.037-.05M40.2 45.994l3.22-2.482-.043-.046-3.178 2.528M43.963 49.555l-.043-.02-2.297 3.545.06.03 2.28-3.555M39.348 60.604l9.567 4.51v-.17l-9.523-4.39-.044.05M33.896 58.02l-.017.007 3.474 1.638.025-.04-3.484-1.605" fill="#BED76C"/><path d="M37.38 59.625l-.026.04 1.994.94.044-.05-2.013-.93M66.295 47.807L62.3 49.872l.044.033 3.95-2.098M50.076 27.873l-.004.005 1.2 1.646-1.196-1.65M45.978 46.413l2.824-4.41-2.843 4.388.018.023M48.82 41.978l-.018.026.018-.026M60.553 30.308l-.012-.02-1.137.908 1.15-.888M66.684 55.765l-.323 1.08.06-.03.34-1.125-.076.075M55.548 4.815l-.005.008.255.997-.25-1.005" fill="#BED76C"/><path d="M55.543 4.823l.005-.008L54.42.31h-.033l1.156 4.513M51.12 13.26L48.71 8.9l-.034.062 2.44 4.3.004-.005M51.375 13.72l-.255-.46-.003.005.258.456" fill="#BED76C"/><path d="M64.038 13.17l-.77-6.61-5.4 7.337 1.163 4.545 5.008-5.273M60.062 59.863l-.163.075-1.397.67-9.497 4.548.603.284 1.763.707v.125l3.158 1.488 10.187-10.053-4.655 2.156M45.96 46.39l2.842-4.386-1.09-1.73-2.234 1.722-.025-.05-5.254 4.048-1.45 1.154 5.17 2.388 2.04-3.145M55.522 35.345l-.01.02 2.562 3.533 1.3-1.485-2.346-4.326-.032.025-.024-.044-1.992 1.535.542.742M55.844 21.798l-1.57-2.838-2.858 3.75-.006.01 1.293 2.386 3.14-3.308M47.55 27.91l-2.646-2.798-.012.024.018.02-4.234 8.052 1.897 1.46 4.978-6.76M48.65 8.917l.026.047.034-.062-4.754-8.59H43.4l-1.343 5.15 4.233 7.81 2.36-4.355M14.976 13.403L.11 1.946v22.67L14.09 38.6l13.268 7-12.382-32.195M46.427 70.934l-3.07-3.07-7.764 3.694 3.41 11.53 9.832-9.705-2.408-2.39v-.06" fill="#539F61"/><path d="M43.363 18.62l-1.692 3.074 3.234 3.418 1.285-2.45-1.89-2.748-.937-1.294M55.184 35.978l-3.18 5.96-.008.012-3.22-2.497-1.064.82 1.09 1.73.018-.025.042-.066.053.085 2.742 4.39 2.388-2.76-.062-.046.06-.07 4.03-4.612-2.562-3.533-.326.613M66.295 47.807l.034-.017 1.588-.844.004.02.04-.02-.445-3.817-1.944.86-.21.09-6.694 2.96-.05-.036-.026.01 3.706 2.858 3.995-2.065M50.076 27.873l2.627-2.767-1.293-2.386-2.566 3.455 1.232 1.698M38.32 37.667l1.114 1.265 3.14-4.263-1.898-1.462-.02.04-.012-.012-2.323 4.43M43.4.31h-4.136l2.793 5.153L43.4.31M51.395 70.855l3.136-3.095-3.156-1.488.02 4.583M57.91.31h-3.49l1.128 4.505L57.908.31M53.437.31h-9.48l4.753 8.592 4.727-8.59M68.32 55.905l-1.9.91-4.384 14.482 6.222 2.932 1.26-1.14L97.76 47.527v-5.725L68.967 55.596l-.647.31M78.667 16.35l-8.992 29.71 14.36-7.42L97.76 25.09V1.634L78.668 16.35M67.87.31h-5.326l.725 6.25 4.6-6.25" fill="#088F48"/><path d="M83.52.31h-7.274L64.038 13.17l1.54 13.266 13.09-10.086L83.52.31M57.83 13.947L55.8 5.82l-.255-.997-4.423 8.436.255.46 2.882 5.08 3.574-4.853M29.32 46.63l.067.036 1.24-9.907.81-6.828.01-.085 3.276 3.727L35.8 29.45 14.976 13.403 27.358 45.6l1.963 1.034v-.003M9.94.31H.11v1.636l14.866 11.457L9.94.31M.11 24.617v6.604L14.09 38.6.11 24.618M38.655 18.504l1.222-4.688-5.445-7.506-.853 6.83 5.075 5.364M35.182.31H30.08l4.352 6 .75-6M43.356 67.863L33.198 57.706l-.76-.36-1.504-.682 3.354 11.15.045-.07 1.25 3.833 7.773-3.714" fill="#088F48"/><path d="M29.94 53.66l-1.005-3.376-1.577-4.685-13.268-7.002L28.584 53.09l2.106 2.573-.75-2.003" fill="#088F48"/><path d="M31.982 44.08l-2.11-.97.007-.056-.04-.017-.453 3.63 5.916 3.1 3.382-2.606-3.967-1.823-.338-.155-2.398-1.102M37.354 59.665l-4.156-1.96 10.158 10.158 3.05-1.462v-.172l2.51-1.06v-.055l-11.562-5.448M59.03 18.442l2.79 10.89 3.758-2.896-1.54-13.267-5.007 5.272M48.366 26.8l.29-.396-2.464-3.737-.003-.005-1.286 2.45 2.647 2.797.816-1.11" fill="#7CB07F"/><path d="M35.518 71.643l-1.494-4.916-.047.055-3.142-10.218-2.54-1.17L.11 42.112v5.417L39.192 82.9l-3.715-11.238.04-.02" fill="#12703C"/><path d="M89.497 33.247l-5.463 5.392 13.727-7.097V25.09l-8.263 8.157M34.432 6.31l-4.352-6h-8.636L33.58 13.14l.852-6.83" fill="#7CB07F"/><path d="M78.667 16.35L61.82 29.332l1.045 4.083 2.14-2.448.97-1.12v.01l.01-.01 1.563 13.18.01.084-.04.02.443 3.816 1.715-.886 8.992-29.71M43.356 67.863l3.07 3.07-.02-4.532-3.05 1.463M43.377 43.466l.043.046 2.033-1.566-3.323-6.6.475-.652-.032-.025-3.14 4.262 3.97 4.515-.026.02M58.594 47.015l-.945-.728-3.605-2.66-2.388 2.76 4.312 6.903 6.374-3.385-.044-.033-3.706-2.857M38.75 47.148l-.035.026-.03-.013-3.382 2.607 6.32 3.313 2.297-3.544-5.17-2.388M55.543 4.823L54.387.31h-.95L48.71 8.903l2.41 4.357 4.423-8.437M76.246.31H67.87l-4.6 6.25.768 6.61L76.246.31M51.395 70.855v.14l-2.454 2.454-.02.02-.005-.007V91.7l.02.018 9.532-8.627 3.57-11.793-7.506-3.537-3.135 3.095" fill="#12703C"/><path d="M69.675 46.06l-2.914 9.63 1.208-1.192 16.066-15.86-14.36 7.422M45.346 15.016l.944-1.743-4.233-7.81-2.18 8.353 3.486 4.804 1.983-3.604M38.214 20.194l.424-1.702.016.016v-.004L21.445.31H9.94l5.036 13.093L35.8 29.45l2.414-9.256" fill="#12703C"/><path d="M54.274 18.96l1.57 2.838 3.103-3.27.022-.022-1.14-4.56-3.573 4.854.06.104-.043.056M39.563 32.35l-3.763-2.9-1.077 4.124 3.598 4.093 2.324-4.43-1.08-.887M59.403 31.196l-2.375 1.89 2.345 4.327 3.36-3.848-1.034-4.14-1.147.883-1.15.888M56.972 33.068l-4.26-7.912.01-.014-.02-.036-2.626 2.767 1.197 1.65 3.707 5.08 1.992-1.535M66.325 56.96l-1.608.747L54.53 67.76l7.506 3.537 4.384-14.482-.06.03-.035.116M91.542.31h-8.02l-4.855 16.04L97.76 1.635V.31h-6.218" fill="#14532E"/><path d="M68.258 74.23l-6.222-2.933-3.57 11.794 9.792-8.86M41.014 81.103l-1.82 1.797 9.72 8.8V73.463l-.08-.08-7.82 7.72M57.867 13.897L63.27 6.56 62.543.31H57.91l-2.362 4.505.25 1.005 2.07 8.077M68.75 53.726l-.782.772-1.207 1.192-.34 1.125 1.9-.91.646-.31L97.76 41.803v-10.26L84.035 38.64 68.75 53.725M41.67 21.694l1.693-3.074-3.486-4.804-1.222 4.688 3.016 3.19" fill="#14532E"/><path d="M42.057 5.463L39.264.31h-4.082l-.75 6 5.445 7.506 2.18-8.353M28.584 53.09L14.09 38.6.11 31.22v10.89l28.185 13.285 2.35 1.003-.396-1.664-1.666-1.643" fill="#14532E"/><path d="M54.966 34.614l-3.693-5.09-1.2-1.646-1.28 1.345 5.553 5.87-5.612 4.325 3.27 2.52 3.507-6.573-.544-.75M49.61 65.44l-.38-.257-.226.07-.158 8.09 2.55-2.488-.022-4.583-1.765-.832" fill="#EAD698"/><path d="M66.33 47.79l1.592-.824-.004-.02-1.59.844M45.478 41.996l3.3-2.543-.044-.035-5.555-4.28 5.614-5.915-1.24-1.31-5.424 7.432 3.323 6.6.025.05M55.51 35.365l.012-.02-.542-.742-3.707-5.08 4.238 5.842M44.892 25.136l-4.228 8.062-1.1-.848 1.08.886.012.01.02-.038 4.234-8.052-.018-.02M61.687 29.376l.008-.007-2.712-10.878-.014.014-.023.023.022-.024 2.717 10.87M34.707 33.638l3.592 4.07 1.11 1.26 3.967 4.498.025-.02-11.955-13.6-.01.086-.81 6.827.847-6.786 3.233 3.664M34.38 45.182l.338.155 3.967 1.824.03.014.034-.026 1.45-1.154-1.48 1.14-3.975-1.833-.344-.16-2.405-1.11-2.116-.976-.01.057 2.112.97 2.398 1.102" fill="#FDF6E1"/><path d="M48.915 73.304l.09-8.015-.048-.11-.036-.015-.005.002-2.51 1.06v.174l.022 4.534v.06l2.408 2.39.08.08.006.005.02-.02 2.456-2.456v-.14l-2.48 2.45" fill="#F7EDC4"/><path d="M49.61 65.44l1.764.832v-.125l-1.765-.707" fill="#FDF6E1"/><path d="M53.397 49.44l-1.813-2.876-2.825-4.39-.035 7.46 1.176 1.363 8.57 9.71 1.41-.652.16-.077-6.643-10.54" fill="#EAD698"/><path d="M44.215 49.26l4.502-7.14v7.558l-9.575 10.85-1.41-.652-.525-.263 7.008-10.354" fill="#FAF1D2"/><path d="M65.345 44.008l.208-.093 1.954-.87-1.53-13.185-2.628 6.164 1.995 7.984" fill="#EAD698"/><path d="M62.74 33.584l.61 2.44 2.626-6.164v-.004l-.97 1.11-2.136 2.467-.13.15M61.267 40.908l2.146 3.96 1.932-.86-1.996-7.984-2.083 4.884" fill="#F2E4AD"/><path d="M62.74 33.584L59.39 37.45l1.875 3.458 2.082-4.884-.61-2.44M65.98 29.85l-.004.006v.004l.005-.01" fill="#FDF6E1"/><path d="M59.392 37.45l-.02-.037-1.298 1.485-4.03 4.612-.06.07.06.048 4.576 3.376.037.027 2.61-6.122-1.875-3.46" fill="#FDF6E1"/><path d="M67.548 43.026l-1.564-13.18-.003.004-.004.01 1.53 13.184-1.953.87-.208.094-1.932.86-2.146-3.96-2.61 6.123.012.01 6.693-2.96.21-.09 1.985-.88-.01-.084" fill="#F4E9BD"/><path d="M34.113 35.913l-2.118 8.118 2.406 1.11 1.993-3.796-2.28-5.43" fill="#F2E4AD"/><path d="M36.393 41.344L38.3 37.71l-3.593-4.072-.594 2.275 2.28 5.43" fill="#FBF4D9"/><path d="M31.753 30.29l-.28-.316-.847 6.785-.747 6.294 2.115.977 2.118-8.117-2.36-5.623" fill="#F7EDC4"/><path d="M34.707 33.638l-2.954-3.348 2.36 5.623.594-2.275" fill="#FFF9EA"/><path d="M34.4 45.14l.345.16 3.974 1.835.08-.06-2.407-5.73L34.4 45.14" fill="#F2E4AD"/><path d="M43.377 43.466l-3.968-4.5-1.11-1.257-1.907 3.634 2.406 5.73 1.4-1.08 3.177-2.528" fill="#FBF4D9"/><path d="M51.393 22.69l2.823-3.835-2.84-5.134-.26-.455-2.375 4.53 2.653 4.894" fill="#EAD698"/><path d="M48.694 17.884l.056 8.162.01.26 2.633-3.617-2.652-4.895-.046.09" fill="#F2E4AD"/><path d="M46.2 22.652l2.46 3.745.19-.232-.083-.125-.073-8.156-2.493 4.768M46.298 13.287l2.395 4.42-.06-8.666-2.335 4.247" fill="#FAF1D2"/><path d="M48.693 17.708l.048.087 2.377-4.53-2.44-4.3-.043.076.06 8.668" fill="#F2E4AD"/><path d="M54.257 18.8l-2.882-5.08 2.84 5.135-5.38 7.308-.085-.117.002.252.084-.113.008-.01 2.566-3.455.006-.01 2.858-3.75.042-.056-.06-.104M48.693 17.708v.176l.048-.09-.047-.086M48.676 8.964l-.027-.047-.017.03v.094l.043-.076" fill="#FDF6E1"/><path d="M46.234 22.577l2.46-4.693v-.176l-2.396-4.42 2.336-4.247v-.093L43.4 18.605l2.787 4.057.002.005.042-.09M41.665 21.707l-2.91-3.09 1.902 14.576.007.005 4.228-8.062-3.227-3.43" fill="#FDF6E1"/><path d="M39.64 25.388l-.884-6.772-.102-.108-.016-.016-2.712 10.877 3.637 2.98 1.094.843-1.018-7.805" fill="#F8EECB"/><path d="M58.907 18.573l-3.053 3.243 2.11 3.814.943-7.057" fill="#F2E4AD"/><path d="M58.97 18.506l-.023.023-.04.043-1.936 14.495h.002l.024.044.032-.025 2.375-1.89 1.138-.91 1.147-.91-2.718-10.87" fill="#EAD698"/><path d="M55.854 21.816l-3.132 3.326-.01.014 4.26 7.912.993-7.438-2.11-3.814M43.18 35.137l5.554 4.28.025-.018.034-10.176-5.615 5.913" fill="#FAF1D2"/><path d="M48.794 29.223L48.76 39.4l5.586-4.308-5.552-5.87" fill="#F2E4AD"/><path d="M48.665 26.417l-.008-.01-.29.393-.813 1.113 1.24 1.31.01-2.994-.14.187" fill="#FAF1D2"/><path d="M50.072 27.878l-.057-.078-1.18-1.615-.03.044-.01 2.993 1.277-1.345" fill="#F2E4AD"/></g></svg>