<svg width="98" height="93" xmlns="http://www.w3.org/2000/svg"><g fill="none" fill-rule="evenodd"><path d="M32.093 52.113l-2.068 1.524.977 2.93 2.276 1.156.631.29 1.824-.812-3.64-5.088" fill="#FAF1D2"/><path d="M40.257 55.185l1.366-2.105.06.031.048-.074-6.334-3.239-.018.014-3.262 2.33 3.616 5.059 4.524-2.016m-10.87-8.517l-.176 1.408 2.888 4.04 3.186-2.335-5.898-3.113" fill="#FFF9EA"/><path d="M29.09 49.035l-.14 1.08.995 3.58 2.154-1.579-2.888-4.04-.12.959m6.693 8.236l-.05-.07-1.825.813-.013.006 3.483 1.605.13.06-1.725-2.414" fill="#FAF1D2"/><path d="M51.657 46.386l-2.742-4.389-.052-.084-.043.065-.018.026-7.07 11.033-.049.074-.06-.031-1.366 2.105-4.524 2.016.05.07 1.727 2.415 1.882.868 9.523 4.39V42.182l4.502 7.14.057-.026-1.817-2.91" fill="#FDF6E1"/><path d="M29.387 46.668l5.898 3.113.018-.014-5.916-3.1-.066-.036v.003l-1.832-.967 1.722 2.41.176-1.409" fill="#FFF9EA"/><path d="M27.49 45.667l-.132-.068 1.638 4.63.095-1.194.12-.959-1.722-2.409" fill="#FAF1D2"/><path d="M69.54 46.13l-9.914 13.935.436-.202 4.655-2.156 1.608-.746.036-.117.935-3.122.26-.869.786-2.623.02.169 1.313-4.339-.135.07" fill="#EAD698"/><path d="M67.96 46.946l.005.04-.043-.02-1.593.824-.034.017-10.326 5.483-2.495-3.994-.057.026-4.502-7.14v7.371l-.173.047.207 15.409h.167l9.374-4.417 1.136-.527 9.914-13.936-1.58.817" fill="#F2E4AD"/><path d="M30.626 36.759l-.785 6.278.038.017.747-6.295m6.301-6.44l2.636 2.031-2.588-2.12-.048.089M33.896 58.02l-.712-.328.014.014.68.32.018-.006m-1.459-.673l.76.36-.013-.015-.747-.345m33.892-9.557l-.034.017.034-.017m-3.595-14.225l.13-.15-1.045-4.083-.12.093 1.035 4.14m-19.332-14.96l1.944-3.59-1.983 3.605.938 1.294-.9-1.31m1.491 6.532l.012-.024-3.233-3.418-.006.013 3.227 3.429" fill="#BED76C"/><path d="M61.687 29.376l.012.05.12-.094-2.788-10.89-.048.05 2.712 10.877-.008.007m-24.712.854l-1.049-.86 2.288-9.176L35.8 29.45l1.127.869.048-.09m4.696-8.535l-3.016-3.19-.001.004 3.01 3.199.007-.013" fill="#BED76C"/><path d="M58.97 18.506l.013-.014.048-.05-1.164-4.545-.036.05 1.138 4.559m8.588 34.347l.027.113.777-2.567-.019-.169-.785 2.623M49.005 64.986l-.09-.042v.17l.09.042 9.498-4.55-.013-.014-9.485 4.394m.604.454l-.603-.284-.049.023.652.261" fill="#BED76C"/><path d="M48.915 65.167l.006-.002.036.014.049-.023-.091-.043v.054m17.06-35.32l-.97 1.12.97-1.111v-.01m1.321 23.876l.048.037.24-.793-.027-.113-.261.869" fill="#BED76C"/><path d="M67.296 53.722l-.612 2.043.077-.075.583-1.931-.048-.037m-8.806 6.87l.013.015 1.396-.669-1.41.654m-5.767-35.45l3.132-3.326-.01-.018-3.14 3.308.018.036M45.959 46.39l-2.04 3.146.044.02 2.015-3.143-.019-.022m11.69-.104l.945.728.026-.011-.971-.717m2.904-15.979l1.146-.883-.012-.05-1.146.913.012.02" fill="#BED76C"/><path d="M58.947 18.53l-3.103 3.268.01.018 3.093-3.287M48.366 26.8l-.815 1.109.003.004.812-1.113m1.71 1.073l-1.232-1.698-.008.01 1.236 1.693.004-.005" fill="#BED76C"/><path d="M47.554 27.913l-.003-.004-4.978 6.76.032.025 4.95-6.781m10.312-14.016L55.798 5.82l2.033 8.127.036-.05M40.2 45.994l3.22-2.482-.043-.046-3.178 2.528m3.764 3.561l-.043-.02-2.297 3.545.06.031 2.28-3.556m-4.615 11.049l9.567 4.51v-.17l-9.523-4.39-.044.05m-5.452-2.584l-.017.007 3.475 1.638.025-.04-3.483-1.605" fill="#BED76C"/><path d="M37.379 59.625l-.025.04 1.994.94.044-.051-2.013-.929m28.916-11.818L62.3 49.872l.044.033 3.95-2.098M50.076 27.873l-.004.005 1.201 1.646-1.197-1.65m-4.098 18.539l2.824-4.409-2.843 4.387.019.022m2.842-4.435l-.018.026.018-.026m11.733-11.67l-.012-.02-1.138.908 1.15-.888m6.131 25.457l-.323 1.079.059-.029.34-1.125-.076.075M55.548 4.815l-.005.008.255.997-.25-1.005" fill="#BED76C"/><path d="M55.543 4.823l.005-.008L54.42.31h-.034l1.156 4.512m-4.422 8.437l-2.41-4.357-.034.062 2.44 4.301.004-.006m.255.462l-.255-.462-.003.006.258.456" fill="#BED76C"/><path d="M64.038 13.169l-.769-6.609-5.402 7.337 1.164 4.545 5.007-5.273m-3.976 46.694l-.163.075-1.396.669-9.497 4.55.603.283 1.764.707v.125l3.158 1.488 10.186-10.053-4.655 2.156M45.959 46.39l2.843-4.386-1.09-1.73-2.234 1.722-.025-.05-5.254 4.048-1.45 1.154 5.17 2.388 2.04-3.145m9.563-11.046l-.011.02 2.563 3.533 1.299-1.485-2.345-4.326-.032.025-.024-.044-1.992 1.535.542.742m.322-13.547l-1.57-2.838-2.858 3.751-.006.009 1.293 2.386 3.141-3.308m-8.294 6.111l-2.646-2.797-.012.024.018.02-4.234 8.052 1.897 1.461 4.978-6.76M48.65 8.917l.026.047.034-.062-4.754-8.59H43.4l-1.344 5.151 4.233 7.81 2.36-4.356m-33.673 4.486L.11 1.946v22.67l13.98 13.982 13.27 7-12.383-32.195m31.45 57.531l-3.071-3.071-7.763 3.695 3.41 11.53 9.832-9.705-2.408-2.389v-.06" fill="#539F61"/><path d="M43.363 18.62l-1.692 3.074 3.233 3.418 1.285-2.45-1.888-2.748-.938-1.294m11.821 17.358l-3.18 5.959-.008.013-3.219-2.497-1.065.821 1.09 1.73.018-.026.042-.066.053.085 2.742 4.389 2.388-2.758-.062-.047.061-.071 4.03-4.612-2.563-3.533-.327.613m11.111 11.829l.034-.017 1.59-.844.003.02.039-.02-.444-3.817-1.944.86-.21.092-6.694 2.96-.05-.037-.025.011 3.706 2.857 3.995-2.065M50.076 27.873l2.627-2.767-1.293-2.386-2.566 3.455 1.232 1.698M38.32 37.667l1.114 1.265 3.139-4.263-1.897-1.461-.02.039-.012-.01-2.323 4.43M43.4.311h-4.136l2.793 5.152L43.4.311m7.995 70.544l3.136-3.095-3.157-1.488.021 4.583M57.91.311h-3.49l1.128 4.504L57.909.31m-4.472.001h-9.481l4.754 8.591 4.727-8.59M68.32 55.905l-1.9.91-4.384 14.482 6.222 2.932 1.259-1.139L97.76 47.527v-5.725L68.966 55.596l-.647.309M78.667 16.35l-8.992 29.71 14.36-7.421 13.726-13.55V1.635L78.667 16.35M67.87.311h-5.326l.725 6.25L67.871.31M83.52.311h-7.274L64.038 13.17l1.54 13.267L78.667 16.35 83.52.31M57.83 13.947L55.799 5.82l-.255-.997-4.423 8.436.255.462 2.882 5.08 3.574-4.854M29.32 46.631l.067.035 1.24-9.907.81-6.827.01-.085 3.276 3.727L35.8 29.45 14.976 13.403 27.358 45.6l1.963 1.035v-.003M9.94.311H.11v1.635l14.867 11.457L9.941.311M.109 24.617v6.604l13.98 7.377L.11 24.617m38.545-6.113l1.222-4.688-5.445-7.506-.853 6.829 5.076 5.365" fill="#088F48"/><path d="M35.182.311H30.08l4.352 6 .75-6m8.174 67.552L33.198 57.706l-.761-.359-1.503-.683 3.354 11.149.045-.07 1.251 3.834 7.772-3.714M29.94 53.66l-1.005-3.376-1.577-4.685-13.268-7.001L28.584 53.09l2.106 2.572-.75-2.003" fill="#088F48"/><path d="M31.982 44.08l-2.111-.97.008-.056-.038-.017-.454 3.63 5.916 3.1 3.382-2.606-3.967-1.824-.338-.155-2.398-1.102m5.372 15.585l-4.156-1.959 10.158 10.157 3.05-1.462-.001-.173 2.51-1.06v-.055l-11.561-5.448m21.677-41.223l2.788 10.89 3.76-2.896-1.541-13.267-5.007 5.273M48.366 26.8l.29-.396-2.464-3.737-.003-.005-1.285 2.45 2.647 2.797.815-1.109" fill="#7CB07F"/><path d="M35.518 71.643l-1.494-4.916-.047.055-3.142-10.218-2.54-1.169L.11 42.111v5.416L39.193 82.9l-3.715-11.238.04-.02" fill="#12703C"/><path d="M89.497 33.247l-5.463 5.392 13.727-7.096V25.09l-8.264 8.158M34.432 6.31L30.08.311h-8.636L33.58 13.14l.853-6.829" fill="#7CB07F"/><path d="M78.667 16.35L61.819 29.332l1.046 4.083 2.14-2.448.97-1.12v.009l.009-.01 1.564 13.18.01.085-.041.018.444 3.817 1.714-.886 8.992-29.71M43.356 67.863l3.07 3.071-.02-4.533-3.05 1.462m.021-24.397l.043.046 2.033-1.566-3.323-6.601.475-.651-.032-.025-3.139 4.263 3.968 4.515-.025.02m15.217 3.548l-.945-.728-3.604-2.66-2.388 2.759 4.312 6.904 6.375-3.385-.044-.033-3.706-2.857m-19.845.133l-.034.026-.03-.013-3.382 2.606 6.32 3.313 2.297-3.544-5.171-2.388M55.543 4.823L54.387.31h-.95L48.71 8.902l2.41 4.357 4.423-8.436M76.246.311h-8.375l-4.602 6.25.769 6.608L76.246.31M51.395 70.855v.14l-2.454 2.454-.02.02-.006-.006V91.7l.02.018 9.532-8.627 3.57-11.794-7.506-3.537-3.136 3.095" fill="#12703C"/><path d="M69.675 46.06l-2.914 9.63 1.207-1.192 16.066-15.86-14.36 7.422M45.346 15.016l.944-1.743-4.233-7.81-2.18 8.353 3.486 4.804 1.983-3.604m-7.132 5.178l.424-1.702.016.016.001-.004L21.445.311H9.94l5.035 13.092L35.8 29.45l2.414-9.256" fill="#12703C"/><path d="M54.274 18.96l1.57 2.838 3.103-3.269.022-.023-1.138-4.559-3.574 4.853.06.104-.043.056M39.563 32.35l-3.763-2.9-1.077 4.124 3.598 4.093 2.323-4.43-1.08-.887m19.839-1.154l-2.375 1.89 2.345 4.327 3.361-3.848-1.035-4.14-1.146.883-1.15.888m-2.431 1.872l-4.261-7.912.011-.014-.019-.036-2.627 2.767 1.197 1.651 3.707 5.079 1.992-1.535m9.353 23.893l-1.608.746L54.53 67.76l7.505 3.537 4.384-14.482-.059.029-.036.117M91.542.311h-8.021L78.667 16.35 97.76 1.635V.31h-6.219M68.258 74.229l-6.222-2.932-3.57 11.794 9.792-8.862m-27.244 6.874L39.193 82.9l9.722 8.8V73.463l-.08-.08-7.821 7.72m16.853-67.206L63.27 6.56 62.544.311h-4.635l-2.361 4.504.25 1.005 2.07 8.077m10.881 39.829l-.781.772-1.207 1.192-.341 1.125 1.9-.91.646-.31L97.76 41.803v-10.26L84.034 38.64 68.75 53.726M41.671 21.694l1.692-3.074-3.486-4.804-1.222 4.688 3.016 3.19" fill="#14532E"/><path d="M42.057 5.463L39.264.311h-4.082l-.75 6 5.445 7.505 2.18-8.353M28.584 53.091L14.09 38.598.109 31.22v10.89l28.186 13.284 2.35 1.003-.396-1.664-1.665-1.643" fill="#14532E"/><path d="M54.966 34.614l-3.693-5.09-1.201-1.646-1.278 1.345 5.552 5.869-5.612 4.326 3.27 2.519 3.507-6.572-.545-.75M49.609 65.44l-.378-.257-.227.07-.158 8.09 2.549-2.488-.021-4.583-1.765-.832" fill="#EAD698"/><path d="M66.329 47.79l1.593-.824-.004-.02-1.59.844m-20.85-5.794l3.3-2.543-.044-.035-5.555-4.281 5.615-5.914-1.24-1.31-5.424 7.432 3.323 6.6.025.051m10.032-6.631l.012-.02-.542-.742-3.707-5.079 4.238 5.841M44.892 25.136l-4.228 8.062-1.1-.848 1.08.886.012.01.02-.038 4.234-8.052-.018-.02m16.795 4.24l.008-.007-2.712-10.877-.014.014-.022.023.022-.023 2.718 10.87m-26.98 4.262l3.592 4.07 1.11 1.259 3.968 4.5.025-.02-11.955-13.6-.01.085-.81 6.827.847-6.785 3.233 3.664m-.327 11.544l.338.155 3.967 1.824.03.013.034-.026 1.45-1.154-1.48 1.14-3.974-1.833-.344-.16-2.406-1.11-2.116-.977-.008.057 2.111.97 2.398 1.101" fill="#FDF6E1"/><path d="M48.915 73.304l.09-8.015-.048-.11-.036-.014-.006.002-2.51 1.06v.174l.022 4.533v.06l2.408 2.389.08.08.006.006.02-.02 2.455-2.455-.001-.139-2.48 2.45" fill="#F7EDC4"/><path d="M49.609 65.44l1.765.832v-.125l-1.765-.707" fill="#FDF6E1"/><path d="M53.397 49.439l-1.813-2.875-2.825-4.39-.034 7.46 1.176 1.363 8.57 9.711 1.41-.653.16-.077-6.644-10.54" fill="#EAD698"/><path d="M44.215 49.26l4.502-7.14v7.558l-9.575 10.851-1.41-.653-.525-.263 7.008-10.354" fill="#FAF1D2"/><path d="M65.345 44.008l.208-.093 1.954-.87-1.53-13.185-2.628 6.164 1.996 7.984" fill="#EAD698"/><path d="M62.739 33.584l.61 2.44 2.627-6.164v-.004l-.971 1.11-2.135 2.467-.131.15m-1.472 7.325l2.146 3.96 1.932-.86-1.996-7.984-2.082 4.884" fill="#F2E4AD"/><path d="M62.739 33.584l-3.347 3.865 1.875 3.46 2.082-4.885-.61-2.44m3.242-3.734l-.005.006v.004l.005-.01" fill="#FDF6E1"/><path d="M59.392 37.45l-.02-.037-1.298 1.485-4.03 4.612-.061.07.062.048 4.575 3.376.037.027 2.61-6.123-1.875-3.459" fill="#FDF6E1"/><path d="M67.548 43.026l-1.564-13.18-.003.004-.005.01 1.531 13.184-1.954.87-.208.094-1.932.86-2.146-3.96-2.61 6.123.012.01 6.694-2.96.21-.092 1.985-.878-.01-.085" fill="#F4E9BD"/><path d="M34.113 35.913l-2.118 8.118 2.406 1.11 1.992-3.797-2.28-5.43" fill="#F2E4AD"/><path d="M36.393 41.344l1.906-3.635-3.592-4.07-.594 2.274 2.28 5.43" fill="#FBF4D9"/><path d="M31.753 30.29l-.28-.316-.847 6.785-.747 6.295 2.116.977 2.118-8.118-2.36-5.623" fill="#F7EDC4"/><path d="M34.707 33.638l-2.954-3.348 2.36 5.623.594-2.275" fill="#FFF9EA"/><path d="M34.401 45.141l.344.16 3.974 1.834.08-.061-2.406-5.73-1.992 3.797" fill="#F2E4AD"/><path d="M43.377 43.466l-3.968-4.499-1.11-1.258-1.906 3.635 2.406 5.73 1.4-1.08 3.178-2.528" fill="#FBF4D9"/><path d="M51.393 22.69l2.823-3.835-2.84-5.134-.26-.456-2.375 4.53 2.652 4.894" fill="#EAD698"/><path d="M48.694 17.884l.056 8.162.009.26 2.634-3.617-2.652-4.894-.047.089" fill="#F2E4AD"/><path d="M46.2 22.652l2.459 3.745.191-.232-.083-.125-.073-8.156-2.493 4.768m.097-9.365l2.395 4.42-.06-8.666-2.335 4.246" fill="#FAF1D2"/><path d="M48.693 17.708l.048.087 2.376-4.53-2.441-4.301-.042.077.06 8.667" fill="#F2E4AD"/><path d="M54.257 18.8l-2.882-5.079 2.841 5.134-5.38 7.308-.086-.117.002.252.084-.113.008-.01 2.566-3.455.006-.009 2.858-3.75.042-.057-.059-.104m-5.564-1.092l.001.176.047-.089-.048-.087m-.017-8.744l-.027-.047-.016.03v.094l.043-.077" fill="#FDF6E1"/><path d="M46.234 22.577l2.46-4.693v-.176l-2.396-4.421 2.336-4.246v-.094l-5.232 9.658 2.787 4.057.003.005.042-.09m-4.569-.87l-2.909-3.09 1.9 14.576.008.005 4.228-8.062-3.227-3.43" fill="#FDF6E1"/><path d="M39.64 25.388l-.884-6.772-.102-.108-.016-.016-2.712 10.877 3.637 2.981 1.094.843-1.018-7.805" fill="#F8EECB"/><path d="M58.907 18.573l-3.053 3.243 2.11 3.814.943-7.057" fill="#F2E4AD"/><path d="M58.97 18.506l-.023.023-.04.044-1.936 14.495.025.044.032-.025 2.375-1.891 1.138-.908 1.146-.912-2.718-10.87" fill="#EAD698"/><path d="M55.854 21.816l-3.132 3.326-.011.014 4.26 7.912.994-7.438-2.11-3.814M43.179 35.137l5.555 4.28.025-.018.035-10.175-5.615 5.913" fill="#FAF1D2"/><path d="M48.794 29.223L48.759 39.4l5.587-4.307-5.552-5.869" fill="#F2E4AD"/><path d="M48.665 26.417l-.008-.011-.29.394-.813 1.113 1.24 1.31.01-2.994-.14.188" fill="#FAF1D2"/><path d="M50.072 27.878l-.057-.078-1.179-1.615-.032.044-.01 2.994 1.278-1.345" fill="#F2E4AD"/></g></svg>