<svg xmlns="http://www.w3.org/2000/svg" width="190.839" height="178.636" viewBox="0 0 190.839 178.636"><path fill="#FAF4E4" d="M0 0v92.272l95.42 86.363 95.42-86.363V0H0z"/><path fill="#F8EFD5" d="M63.73 100.798l-3.894 2.866 1.84 5.514 4.282 2.176 1.188.547 3.433-1.53z"/><path fill="#FCF7EC" d="M79.09 106.578l2.57-3.962.115.06.09-.14-11.92-6.095-.033.027-6.138 4.385 6.805 9.52zM58.637 90.553l-.332 2.648 5.434 7.604 5.995-4.396z"/><path fill="#F8EFD5" d="M58.08 95.005l-.267 2.034 1.874 6.733 4.052-2.97-5.435-7.602zM70.673 110.504l-.094-.133-3.434 1.53-.025.012 6.554 3.022.248.114z"/><path fill="#FAF4E4" d="M100.542 90.02l-5.16-8.257-.098-.16-.08.123-.033.05-5.315 8.295-3.79 5.914-4.2 6.55-.09.142-.115-.06-2.57 3.962-8.51 3.793.093.134 3.25 4.544 3.54 1.633 17.92 8.262V82.11l5.06 8.026 3.41 5.41.11-.05z"/><path fill="#FCF7EC" d="M58.637 90.553l11.098 5.855.035-.025-11.133-5.835-.125-.066v.005l-3.447-1.818 3.24 4.53z"/><path fill="#F8EFD5" d="M55.065 88.67l-.246-.13 3.08 8.71.18-2.245.225-1.804z"/><path fill="#EDD99D" d="M134.193 89.538l-8.06 11.33-10.594 14.893.513-.238.305-.14 8.76-4.06 3.027-1.402.066-.22.61-2.03 1.15-3.846.49-1.634 1.48-4.936.036.317 2.47-8.163z"/><path fill="#F3E4B1" d="M131.222 91.075l.008.075-.082-.038-2.997 1.55-.063.033-7.435 3.948-11.996 6.37-4.693-7.516-.11.05-3.41-5.41-5.06-8.027v13.87l-.326.09.39 28.993h.313l17.64-8.31 2.14-.992 10.594-14.893 8.06-11.33z"/><path fill="none" d="M85.34 2.038l-.334 1.283h1.044zM105.296 1.817l.385 1.504h.064l-.58-2.315-1.272 2.316h1.79z"/><path fill="#C4E86B" d="M60.968 71.905L59.49 83.72l.072.03zM72.824 59.786l4.96 3.823-4.868-3.99zM67.12 111.912l-1.34-.617.028.027 1.28.604z"/><path fill="#C4E86B" d="M64.376 110.646l1.432.676-.027-.027zM128.15 92.662l-.063.033zM121.387 65.896l.245-.283-1.966-7.682-.227.175zM85.01 37.744l3.657-6.754-3.73 6.783 1.764 2.434zM87.812 50.033l.024-.045-6.083-6.43-.014.023zM119.417 58.013l.022.092.226-.174-5.248-20.492-.09.094 5.104 20.47zM72.916 59.62L70.94 58l4.306-17.266-4.543 17.417 2.12 1.636z"/><path fill="#C4E86B" d="M81.753 43.558l-5.677-6.002-.002.006 5.665 6.02zM114.303 37.56l.025-.028.09-.094-2.19-8.55-.07.092zM130.46 102.19l.054.213 1.462-4.832-.037-.316zM95.552 125.02l-.17-.078v.318l.172.08 17.87-8.56-.025-.028zM96.688 125.875l-1.134-.534-.09.045zM95.382 125.362l.013-.005.068.028.09-.044-.17-.08zM127.484 58.898l-1.825 2.108 1.826-2.09z"/><path fill="#C4E86B" d="M129.97 103.824l.092.07.452-1.49-.053-.214z"/><path fill="#C4E86B" d="M129.97 103.824l-1.15 3.845.143-.142 1.1-3.633zM113.4 116.752l.024.028 2.63-1.258zM102.547 50.047l5.893-6.26-.02-.034-5.91 6.226zM89.82 90.03l-3.836 5.917.08.037 3.79-5.913zM111.817 89.835l1.78 1.37.048-.02zM117.282 59.768l2.157-1.663-.023-.092-2.156 1.716z"/><path fill="#C4E86B" d="M114.26 37.603l-5.84 6.15.02.034zM94.35 53.166l-1.535 2.086.007.008zM97.567 55.186L95.25 51.99l-.016.02 2.326 3.184z"/><path fill="#C4E86B" d="M92.822 55.26l-.007-.008-9.367 12.722.06.046zM112.23 28.887l-3.895-15.2 3.824 15.293zM78.982 89.282l6.06-4.67-.08-.086zM86.064 95.984l-.08-.037-4.324 6.67.115.06zM77.38 116.775l18.002 8.485v-.318l-17.92-8.26zM67.12 111.912l-.03.014 6.537 3.08.047-.072z"/><path fill="#C4E86B" d="M73.674 114.934l-.047.073 3.753 1.768.083-.094zM128.087 92.695l-7.517 3.885.082.063 7.435-3.948zM97.567 55.186l-.007.008 2.26 3.097zM89.855 90.07l5.316-8.295-5.35 8.254zM95.204 81.726l-.033.05zM117.282 59.768l-.02-.04-2.145 1.71zM128.82 107.67l-.61 2.03.11-.054.643-2.118zM107.863 11.796l-.01.015.482 1.878z"/><path fill="#C4E86B" d="M107.854 11.81l.01-.014-2.12-8.475h-.063zM99.53 27.685l-4.534-8.198-.063.116 4.592 8.093zM100.013 28.556l-.482-.87-.005.01z"/><g fill="#58A766"><path d="M123.84 27.516l-1.446-12.436-10.165 13.807 2.188 8.55zM116.358 115.38l-.305.142-2.63 1.258-17.87 8.56 1.135.535 3.32 1.33.002.235 5.94 2.8 10.344-10.208 8.823-8.71zM89.82 90.03l5.35-8.255-2.05-3.254-4.205 3.24-.048-.095-3.825 2.948-6.06 4.67-2.73 2.17 9.732 4.494zM107.815 69.244l-.02.038 4.822 6.65 2.445-2.797-4.413-8.14-.062.05-.045-.084-3.747 2.89zM108.42 43.753l-2.954-5.34-5.378 7.06-.01.014 2.433 4.492zM92.815 55.252l-4.98-5.264-.023.045.036.038-7.968 15.154 3.568 2.75zM94.882 19.515l.05.088.064-.116L86.05 3.32h-1.044l-2.528 9.696 7.965 14.696zM31.52 27.957L3.544 6.397v42.66L19.96 65.474l9.892 9.892L54.82 88.54l-3.262-8.483zM90.7 136.214l-5.78-5.78-14.604 6.955 6.416 21.695 18.5-18.264-4.532-4.494z"/></g><g fill="#00994B"><path d="M84.936 37.773l-3.183 5.785 6.083 6.43 2.417-4.61-3.552-5.17zM107.18 70.437l-5.986 11.21-.014.028-6.056-4.7-2.005 1.546 2.05 3.255.034-.05.08-.122.098.16 5.16 8.258 4.493-5.19-.117-.088.116-.134 7.583-8.677-4.822-6.648zM128.087 92.695l.064-.033 2.992-1.588.006.038.074-.037-.835-7.183-3.658 1.618-.396.174-12.597 5.568-.092-.068-.05.02 6.975 5.376zM97.567 55.186l4.944-5.207-2.433-4.493-4.828 6.502zM75.447 73.613l2.095 2.382 5.906-8.02-3.568-2.75-.037.07-.024-.02zM85.006 3.32h-7.783l5.255 9.696zM100.05 136.065l5.9-5.824-5.94-2.8zM112.308 3.32h-6.564l2.12 8.476zM103.892 3.32H86.05l8.946 16.167zM131.896 107.933l-3.575 1.713-5.41 17.883-2.837 9.366 11.707 5.518 2.37-2.143 2.52-2.282 2.234-2.02 48.393-43.8V81.395l-54.185 25.956zM151.367 33.5l-14.3 47.247-2.62 8.66 27.02-13.965 10.28-10.145 15.55-15.352V5.812zM131.053 3.32h-10.025l1.366 11.76zM160.502 3.32h-13.69L123.84 27.517l2.898 24.965 18.928-14.585 5.7-4.394 1.022-3.37zM112.16 28.98l-3.825-15.292-.48-1.877-8.324 15.875.483.87 5.423 9.557zM58.512 90.482l.125.066.853-6.83 1.478-11.813 1.525-12.846.02-.162.07.08 6.095 6.934 2.025-7.76-7.31-5.634-20.844-16.062-11.03-8.5 20.038 52.1 3.26 8.483 3.694 1.947z"/><path d="M22.045 3.32H3.544v3.077l27.976 21.56-2.728-7.093zM3.544 49.058V61.484l26.308 13.88-9.893-9.89zM76.076 37.556l2.3-8.823L68.13 14.61l-1.606 12.85zM69.542 3.32H59.94l8.19 11.29zM84.92 130.435l-10.378-10.38-8.734-8.733-1.432-.676-2.827-1.286 6.31 20.98.084-.13 2.355 7.213zM59.677 103.708l-1.892-6.352-2.966-8.817L29.85 75.364l27.273 27.274 3.964 4.838z"/></g><path fill="#82B787" d="M63.52 85.683l-3.973-1.826.015-.106-.072-.03-.853 6.828 11.133 5.835 6.363-4.904-7.466-3.432-.635-.292zM73.627 115.007l-6.538-3.08-1.282-.605 8.734 8.734 10.38 10.38 5.738-2.75v-.33l4.722-1.994v-.102l-18.002-8.485zM114.418 37.438l5.248 20.493 7.072-5.45-2.9-24.964zM94.35 53.166l.546-.746-4.636-7.03-.007-.01-2.417 4.608 4.98 5.264z"/><path fill="#00783E" d="M70.173 137.548l-2.812-9.25-.087.102-5.912-19.227-4.777-2.2L3.543 81.98v10.19l49.31 44.628 4.036 3.65 2.465 2.234 17.734 16.05-6.993-21.146z"/><path fill="#82B787" d="M171.746 65.297l-10.278 10.145 25.83-13.35V49.945zM68.13 14.61L59.94 3.32H43.69l22.834 24.14z"/><g fill="#00783E"><path d="M151.367 33.5l-5.7 4.395-18.93 14.586-7.07 5.45 1.965 7.683 4.027-4.607 1.824-2.108.002.017.015-.017 2.945 24.8.02.16-.078.034.835 7.183 3.224-1.668 2.62-8.66zM84.92 130.435l5.78 5.78-.04-8.53zM84.963 84.526l.08.087 3.824-2.948-6.252-12.42.894-1.225-.062-.046-5.906 8.02 7.467 8.496zM113.596 91.205l-1.78-1.37-6.78-5.005-4.494 5.19 3.42 5.477 4.694 7.515 11.996-6.37-.082-.062zM76.252 91.454l-.064.05-.055-.025-6.363 4.903 11.89 6.233 4.324-6.67zM107.854 11.81l-2.173-8.49h-1.788l-8.896 16.167 4.535 8.198zM146.812 3.32h-15.76l-8.658 11.76 1.445 12.436zM100.05 136.065v.26l-4.617 4.62-.038.04-.013-.013v34.316l.04.034 17.934-16.232 6.717-22.194-14.122-6.655z"/><path d="M134.446 89.407l-2.47 8.164-1.462 4.833-.452 1.492-1.1 3.633 2.272-2.243 1.47-1.45 28.764-28.393zM88.667 30.99l1.776-3.278-7.965-14.696-4.1 15.717 6.558 9.04zM75.246 40.734l.8-3.202.028.03.002-.006-9.552-10.097L43.69 3.32H22.045l6.747 17.544 2.728 7.093 11.03 8.5 20.842 16.06 7.31 5.634z"/></g><g fill="#045E31"><path d="M105.466 38.413l2.955 5.34 5.84-6.15.043-.044-2.144-8.58-6.724 9.132.11.196zM77.785 63.61l-4.96-3.824-2.122-1.635-2.025 7.762 6.77 7.7 4.37-8.336zM115.117 61.438l-4.468 3.557 4.412 8.14 6.325-7.24-1.948-7.79-2.158 1.663zM110.543 64.96l-8.018-14.89.022-.023-.036-.068-4.943 5.206 2.253 3.105 6.976 9.56zM128.145 109.92l-3.028 1.403-8.823 8.71-10.343 10.208 14.123 6.656 2.836-9.367 5.41-17.884-.11.053zM175.596 3.32h-15.094l-8.114 26.81-1.02 3.37 35.93-27.688v-2.49z"/><path d="M131.78 142.414l-11.707-5.518-6.717 22.194zM80.515 155.35l-3.426 3.38 7.248 6.56 11.044 9.998v-34.316l-.15-.15zM112.23 28.887l10.164-13.807-1.366-11.76h-8.72l-4.445 8.476.472 1.892zM132.704 103.834l-1.47 1.45-2.27 2.244-.643 2.118 3.576-1.713 1.216-.58 54.185-25.957V62.092l-25.83 13.35zM81.753 43.558l3.183-5.785-6.56-9.04-2.3 8.823zM82.478 13.016L77.223 3.32h-7.68L68.13 14.61l10.247 14.123zM57.125 102.64L29.852 75.364 3.544 61.485v20.493l53.04 24.996 4.42 1.886-.745-3.13z"/></g><path fill="#EDD99D" d="M106.77 67.87l-6.95-9.58-2.26-3.096-2.405 2.532 10.448 11.043-10.56 8.138 6.15 4.74 5.986-11.21.615-1.156zM96.688 125.875l-.71-.482-.428.13-.296 15.222 4.795-4.68-.04-8.625z"/><g><path fill="#FAF4E4" d="M128.15 92.662l2.998-1.55-.006-.038zM88.915 81.76l4.204-3.24 2.004-1.544-.082-.068-10.453-8.054 10.565-11.128-2.333-2.466-9.313 12.76-.895 1.224 6.252 12.42zM107.795 69.282l.02-.038-1.02-1.395-6.975-9.56 6.95 9.58zM87.812 50.033l-7.956 15.172-2.07-1.596 2.033 1.666.023.02.037-.072 7.968-15.153zM119.417 58.013l.015-.012-5.104-20.468-.025.027-.042.043.043-.043zM68.647 66.033l6.76 7.66 2.087 2.368 7.47 8.466.045-.036-7.468-8.495-2.095-2.382-6.77-7.7-6.093-6.934-.07-.082-.02.16-1.526 12.847 1.595-12.766zM68.032 87.756l.635.292 7.466 3.43.055.026.064-.05 2.73-2.172-2.785 2.148-7.478-3.45-.648-.3-4.527-2.09-3.983-1.84-.015.107 3.974 1.826z"/><path fill="#F6EBC7" d="M95.382 140.673l.168-15.083-.087-.205-.068-.028-.013.005-4.723 1.995v.328l.04 8.53v.11l4.53 4.496.152.152.013.012.038-.038 4.617-4.62v-.26z"/><path fill="#FAF4E4" d="M96.688 125.875l3.322 1.565v-.235z"/></g><path fill="#EDD99D" d="M103.817 95.766l-3.41-5.41-5.317-8.26-.066 14.037 2.214 2.564 3.99 4.522 12.135 13.752 2.653-1.23.303-.145-4.814-7.633z"/><path fill="#F8EFD5" d="M86.54 95.428l3.41-5.41 5.06-8.026V96.216l-1.892 2.143-3.99 4.52-12.135 13.754-2.654-1.23-.988-.494z"/><g><path fill="#EDD99D" d="M126.3 85.545l.392-.175 3.676-1.638-2.88-24.807-4.945 11.597z"/><path fill="#F3E4B1" d="M121.396 65.93l1.147 4.592 4.944-11.597v-.01l-1.828 2.09-4.018 4.642zM118.626 79.713l4.04 7.45 3.633-1.618-3.757-15.023z"/><path fill="#FAF4E4" d="M121.396 65.93l-6.297 7.274 3.526 6.51 3.917-9.192zM127.496 58.904l-.01.01v.01z"/><path fill="#FAF4E4" d="M115.1 73.204l-.038-.07-2.445 2.797-7.583 8.678-.116.134.117.088 6.782 5.005 1.828 1.35.07.05 4.91-11.522z"/><path fill="#F5E9C0" d="M130.445 83.698l-2.944-24.8-.004.006-.01.02 2.882 24.808-3.676 1.638-.393.175-3.635 1.62-4.04-7.452-4.91 11.522.022.017 12.597-5.568.395-.174 3.657-1.618.077-.035z"/></g><g><path fill="#F3E4B1" d="M67.53 70.314L63.545 85.59l4.527 2.09 3.748-7.148z"/><path fill="#F9F2DC" d="M71.82 80.532l3.586-6.84-6.76-7.66-1.116 4.282z"/><path fill="#F6EBC7" d="M63.09 59.733l-.527-.594-1.595 12.765-1.406 11.846 3.983 1.84 3.985-15.276z"/><path fill="#FCF7EC" d="M68.647 66.033l-5.558-6.3 4.44 10.58z"/><path fill="#F3E4B1" d="M68.072 87.68l.647.3 7.477 3.45.15-.115-4.527-10.783z"/><path fill="#F9F2DC" d="M84.963 84.526l-7.47-8.465-2.087-2.368-3.586 6.84 4.526 10.783 2.636-2.033z"/></g><g><path fill="#EDD99D" d="M100.046 45.43l5.312-7.214-5.345-9.66-.488-.86-4.47 8.526z"/><path fill="#F3E4B1" d="M94.967 36.388l.106 15.36.015.487 4.958-6.804-4.99-9.208z"/><path fill="#F8EFD5" d="M90.276 45.36l4.625 7.047.36-.437-.156-.235-.137-15.347zM90.457 27.737l4.508 8.32-.112-16.31z"/><path fill="#F3E4B1" d="M94.965 36.057l.09.165 4.47-8.526-4.592-8.093-.08.144z"/><path fill="#FAF4E4" d="M105.436 38.112l-5.423-9.556 5.345 9.66-5.312 7.215-4.813 6.538-.16-.22.003.474.158-.213.015-.02 4.827-6.503.01-.015 5.38-7.06.08-.104zM94.965 36.057l.002.33.088-.165zM94.933 19.603l-.05-.088-.03.056v.177z"/><path fill="#FAF4E4" d="M90.337 45.22l4.63-8.832-.002-.33-4.508-8.32 4.396-7.99v-.177l-4.41 8.142-1.776 3.278-3.658 6.754 1.69 2.463 3.553 5.172.007.01z"/></g><g><path fill="#FAF4E4" d="M81.74 43.58l-5.474-5.813 1.662 12.742 1.916 14.685.012.01 7.956-15.172z"/><path fill="#F7EDCE" d="M77.928 50.51l-1.662-12.743-.192-.205-.03-.03-.798 3.202L70.94 58l1.976 1.62 4.87 3.99 2.058 1.585z"/></g><g><path fill="#F3E4B1" d="M114.184 37.685l-5.744 6.102 3.97 7.177z"/><path fill="#EDD99D" d="M114.303 37.56l-.042.043-.076.082-1.773 13.28-1.868 13.995.046.084.06-.05 4.47-3.556 2.143-1.71 2.157-1.715z"/><path fill="#F8EFD5" d="M108.44 43.787l-5.893 6.26-.022.024 8.017 14.89 1.87-13.996z"/></g><g><path fill="none" d="M95.154 57.725v.002z"/><path fill="#F8EFD5" d="M84.59 68.854l10.452 8.054.046-.036.066-19.145z"/><path fill="#F3E4B1" d="M95.155 57.726l-.067 19.146 10.515-8.103z"/><path fill="#F8EFD5" d="M94.91 52.444l-.013-.02-.546.742-1.528 2.094 2.332 2.465.02-5.634z"/><path fill="#F3E4B1" d="M97.56 55.194l-.106-.147-2.22-3.038-.06.08-.02 5.635z"/></g><g><path fill="none" d="M105.803 38.246l2.7 4.88 5.39-5.677-1.903-7.606zM87.76 49.363l2.042-3.885-4.92-6.834-2.67 4.855zM102.97 50.04l7.756 14.31 8.294-6.392-4.913-19.647zM102.595 49.347l5.365-5.652-2.647-4.784-4.823 6.552zM112.143 75.92l-4.302-5.868-6.177 11.484 3.395 2.617zM115.12 72.458l5.83-6.775-1.732-6.932-8.13 6.267zM69.248 65.51l6.235 7.228 3.9-7.426-8.3-6.397-1.708 6.628zM76.112 91.02l8.502-6.55-21.696-25.147L59.9 83.467zM69.697 95.964l5.746-4.428-15.64-7.287-.762 6.09zM63.044 58.32l5.71 6.62 1.682-6.523-6.753-5.204zM81.498 102.18l3.894-6.008-9.183-4.278-5.784 4.455 11.06 5.835zM88.282 81.644l-5.766-11.77-4.376 5.942 7.07 8.196zM76.585 37.55l5.086 5.377L84.4 37.97l-5.834-8.108zM79.737 64.64l7.655-14.575L81.4 43.73l-5.036-5.323-5.08 19.72zM95.085 51.536l9.83-13.348-9.918-17.923-9.713 17.652zM94.97 76.514c.145-.02.31.05.392.167l5.7 4.393 6.288-11.69-12.21-16.655-2.096 2.848-10.027 13.616 5.872 11.984 5.793-4.465a.372.372 0 0 1 .288-.196zM127.187 59.585L105.652 84.61l8.188 6.31L130 83.813zM134.132 89.148l16.536-54.633-23.532 18.134 4.395 37.843zM159.45 76.906L134.76 89.67l-5.01 16.557zM97.964 55.312l8.842 12.058 3.318-2.557-7.697-14.2zM92.78 54.67l1.84-2.5-4.328-6.012-1.986 3.78zM77.636 75.233l5.294-7.188-2.943-2.267-3.977 7.57zM83.375 67.44l8.952-12.158-4.39-4.64-7.597 14.462zM110.485 65.48l-3.236 2.495 5.395 7.36 1.952-2.268zM97.515 54.697l4.537-4.778-2.054-3.79-4.392 5.965zM119.866 58.25l1.683 6.737 5.52-6.415-.628-5.39zM99.803 127.758l-4.248-2.002-4.802 2.3v7.68l4.52 4.52 4.53-4.472zM67.598 112.58l17.4 17.4 9.682-4.636zM75.755 37.764l-8.958-9.47L63.79 52.35l6.85 5.278zM32.216 77.037l27.1 26.954-4.707-15.137zM62.993 52.682L32.398 29.106l22.857 59.24 3.077 1.622zM100.553 128.112v6.932l4.753-4.692z"/><path fill="none" d="M125.206 110.722l2.804-1.343 5.82-19.23-13.28 6.864-.173-.333.17.335-11.76 6.036a.376.376 0 0 1-.543-.156L95.118 82.548 81.95 102.783l-.448.26L55.55 89.348l4.903 15.773.026.026-.015.013 1.175 3.78 33.912 15.982 29.654-14.203zM106.597 130.132l13.242 6.24 7.875-26.02-2.095 1.002zM95.803 140.786l17.427 17.427 6.39-21.114-13.592-6.408zM90.003 128.415l-4.442 2.128 4.443 4.442zM65.672 111.673l-3.73-1.758 8.417 27.078 13.92-6.668-18.63-18.63zM96.427 125.338l9.448 4.453 17.67-17.443zM94.567 19.488L85.47 3.048l-2.567 9.968 7.556 13.94zM123.446 27.386L122.13 16.07l-9.563 12.99 1.936 7.745z"/><path fill="none" d="M119.874 96.517l-14.71-11.337-4.262 4.95 7.815 12.113zM119.667 57.458l6.674-5.144-2.78-23.96-8.84 9.312zM130.09 84.59l-15.573 6.852 6.093 4.696 10.21-5.276zM77.994 29.07L68.372 15.7l-1.454 11.63 9.058 9.575zM92.866 79.058L85.7 84.58l4.115 4.77 4.857-7.494zM104.568 84.722l-9.525-7.34-1.58 1.217 7.016 10.874zM85.104 85.04l-8.226 6.338 8.926 4.158 3.586-5.53zM99.886 27.552l5.517 9.97 6.35-8.623-4.015-16.06-7.744 14.768zM90.03 27.737l-7.4-13.655-3.822 14.836 5.99 8.325zM107.464 11.747l-2.43-9.725-9.61 17.465 4.098 7.408z"/><path fill="#045E31" d="M188.365 81.3l-.324-.675-59.114 28.315.428-1.415.07.072 32.268-31.85L189.72 61.26l-.345-.666-25.888 13.38 25.984-25.647-.526-.533-27.698 27.34L135.06 88.67l16.63-54.943 37.075-28.572-.458-.594-36.245 27.933 9.26-30.595-.718-.217-9.563 31.6-24.006 18.5-2.803-24.132 24.505-25.81-.543-.515-24.073 25.354-1.336-11.492 8.77-11.91-.604-.446-8.293 11.262-1.414-12.175-.745.086 1.507 12.976-9.674 13.138-4.068-16.273 5.048-9.627-.664-.348-4.657 8.88L105.472.69l-.587.145-.04-.022-.022.038-.08.02.022.086-9.77 17.76-9.253-16.727.092-.357-.337-.087-.37-.67-.657.363.472.85-2.564 9.956-5.642-10.408-.66.357 6.027 11.118-3.866 15.012-9.73-13.518 1.65-13.19-.744-.095-1.55 12.39L58.324.457l-.607.438 10.01 13.91-1.477 11.82L42.943 1.986l-.545.515L66.13 27.59 63.1 51.82 31.88 27.76 21.643 1.23l-.7.27 9.792 25.376-29.29-22.57-.457.595 30.265 23.322 22.99 59.586L30.4 75.23 1.775 46.76l-.53.53 26.89 26.745L1.23 59.84l-.35.664 29.072 15.34 29.84 29.678.928 2.988L1.695 80.69l-.32.68 59.646 28.11 8.655 27.84-12.044 5.77.326.676 11.944-5.722 6.207 19.97.717-.224-6.24-20.074 14.258-6.83 9.896 9.897-18.968 18.723.526.533 18.71-18.47v32.915h.75V141.8l17.227 17.228-.17.56.72.218 6.774-22.385 12.554 5.918.32-.678-12.655-5.964 8.106-26.785 59.735-28.61zm-28.914-4.394l-29.703 29.32 5.01-16.558 24.694-12.762zm-8.782-42.39l-16.536 54.633-2.6 1.344-4.397-37.844 23.533-18.135zm-55.67-14.25l9.916 17.923-9.828 13.347-9.802-13.62 9.713-17.652zM105.65 84.61l21.534-25.025L130 83.812l-16.16 7.11-8.188-6.312zM88.89 81.177l-5.873-11.984 10.026-13.617 2.097-2.848 12.21 16.654-6.29 11.69-5.7-4.392a.425.425 0 0 0-.39-.167.377.377 0 0 0-.29.198l-5.79 4.467zm5.73-29.006l-1.84 2.5-4.474-4.73 1.986-3.78 4.327 6.01zm5.378-6.04l2.054 3.79-4.537 4.777-1.91-2.603L100 46.13zm12.647 29.205l-5.396-7.36 3.235-2.494 4.11 7.588-1.95 2.267zm-5.84-7.965l-8.84-12.06 4.462-4.698 7.696 14.2-3.317 2.558zM92.328 55.282L83.375 67.44l-3.034-2.337L87.94 50.64l4.39 4.642zM82.93 68.045l-5.293 7.188-1.626-1.885 3.978-7.57 2.942 2.267zm-.414 1.83l5.767 11.77-3.073 2.367-7.07-8.195 4.376-5.943zm25.325.177l4.302 5.867-7.084 8.233-3.395-2.617 6.178-11.484zm13.71-5.065l-1.685-6.736 6.576-5.067.628 5.39-5.52 6.414zm-.6.696l-5.83 6.775-4.033-7.44 8.13-6.267 1.734 6.933zm-10.224-1.334l-7.756-14.31 11.137-11.73 4.913 19.648-8.294 6.39zm-2.224-21.225l-2.7-4.88 6.187-8.4 1.9 7.604-5.388 5.675zm-.542.57l-5.366 5.65-2.105-3.884 4.823-6.55 2.647 4.785zm-18.158 1.783l-2.04 3.886-5.55-5.864 2.67-4.855 4.92 6.833zm-8.13-2.55l-5.087-5.38 1.98-7.686 5.833 8.107-2.727 4.957zm-.272.803l5.992 6.335-7.655 14.573-8.452-6.513 5.08-19.72 5.035 5.326zm-2.017 21.582l-3.9 7.426-6.235-7.228.127.032 1.707-6.628 8.3 6.398zm-10.628-.372l-5.71-6.62.638-5.107 6.753 5.204-1.68 6.523zm-5.837-5.617L84.614 84.47l-8.5 6.55L59.9 83.468l3.018-24.144zM59.802 84.25l15.64 7.286-5.745 4.428L59.04 90.34l.762-6.09zm16.407 7.644l9.182 4.278-3.894 6.007-.012.005-11.06-5.836 5.783-4.456zm9.594 3.642l-8.926-4.158 8.227-6.34 4.285 4.968-3.586 5.53zm4.01-6.186L85.7 84.58l7.167-5.522 1.806 2.8-4.858 7.492zm3.648-10.75l1.58-1.22 9.526 7.342-4.09 4.752L93.463 78.6zm11.7 6.58l14.712 11.337-11.157 5.727-7.815-12.112 4.26-4.952zm15.448 10.958l-6.094-4.695 15.574-6.854.73 6.272-10.21 5.276zm5.73-43.824l-6.673 5.144-4.95-19.792 8.84-9.31 2.784 23.958zm-4.21-36.245l1.316 11.315-8.943 9.42-1.936-7.746 9.564-12.99zM111.754 28.9l-6.35 8.623-5.517-9.972.108.058 7.744-14.768 4.015 16.06zm-6.72-26.878l2.43 9.725-7.94 15.147-4.1-7.407 9.61-17.465zM85.47 3.047l9.097 16.44-4.108 7.47-7.557-13.94 2.568-9.97zm-2.84 11.035l7.4 13.655-5.23 9.506-5.992-8.325 3.82-14.836zM68.37 15.7l9.622 13.37-2.018 7.835-9.058-9.575 1.454-11.63zm-1.575 12.594l8.958 9.47-5.116 19.864-6.85-5.278 3.007-24.056zm-34.4.812L62.994 52.68 58.33 89.968l-3.076-1.623-22.856-59.238zm-.18 47.93l22.392 11.816 4.706 15.14-27.1-26.955zm28.248 28.127l.014-.014-.027-.027L55.55 89.35l26.163 13.808.238-.374L95.12 82.55l13.126 20.345a.374.374 0 0 0 .542.157l11.762-6.036-.17-.334.17.333 13.282-6.864-5.82 19.23-2.804 1.343-29.654 14.204-33.912-15.98-1.175-3.784zm34.807 35.092l-4.52-4.52v-7.68l4.802-2.3 4.248 2.002v8.026l-4.53 4.472zM85 129.98l-17.402-17.4 27.083 12.764L85 129.98zm15.553-1.868l4.753 2.24-4.753 4.69v-6.93zm-4.126-2.774l27.12-12.99-17.672 17.443-9.448-4.452zM70.36 136.993l-8.418-27.078 3.73 1.758-.02.02 18.63 18.632-13.923 6.668zm19.643-8.578v6.57l-4.442-4.442 4.443-2.128zm23.227 29.798l-17.427-17.427 10.226-10.094 13.59 6.406-6.39 21.115zm6.61-21.84l-13.243-6.24 19.023-18.778 2.095-1.004-7.876 26.022z"/></g><path fill="#FAF4E4" d="M0 0v92.272l95.42 86.363 95.42-86.363V0H0zm186.95 90.548L95.42 173.39 3.89 90.548V3.89h183.062v86.658z"/></svg>