<svg xmlns="http://www.w3.org/2000/svg" width="98.139" height="91.85" viewBox="0 0 98.139 91.85"><path fill="#FDF7E7" d="M0 0v47.442L49.062 91.85l49.062-44.406V0H0zm96.125 46.557L49.062 89.152 2 46.557V2h94.125v44.557zM22.637 25.438l1.414 3.585 3.586 1.415-3.586 1.416-1.414 3.584-1.414-3.584-3.586-1.416 3.586-1.415 1.414-3.585zm55.3-10.246l2.037 5.168 5.168 2.037-5.168 2.038-2.037 5.168-2.039-5.168-5.166-2.038 5.166-2.037 2.039-5.168zm-66.103-4.869l.848 2.153 2.152.847-2.152.851-.848 2.149-.85-2.149-2.15-.851 2.15-.847.85-2.153zm36.107 62.532c-.576 0-1.154-.021-1.732-.06l-.122-.009a27.029 27.029 0 0 1-3.506-.491c-6.009-1.253-11.046-4.34-13.823-8.47-3.312-4.929-4.618-9.727-3.88-14.262.087-.529.2-1.06.337-1.574l.245-.83c.123-.388.265-.767.411-1.144.09-.223.18-.435.271-.645.947-2.17 2.354-4.355 4.428-6.876.354-.427.708-.85 1.072-1.271.16-.186.322-.367.484-.549l2.441-2.712c.888-.975 1.771-1.943 2.625-2.917.311-.353.612-.705.914-1.059l.922-1.104c.739-.917 1.484-1.689 2.204-2.438 1.625-1.687 2.909-3.02 3.325-5.138.073-.381.405-.83 1.096-.83.117 0 13.476 2.053 14.291 3.046l.302.365-.086.483c-.41 2.093.386 3.935 1.307 6.065.466 1.077.947 2.191 1.336 3.455l.3.958c.064.2.134.4.202.602l.219.646c.411 1.202.852 2.411 1.291 3.626.242.668.485 1.337.725 2.007l.47 1.34c.116.328.236.679.35 1.023l.097.297c.133.403.258.8.381 1.201.956 3.112 1.428 5.675 1.482 8.062.005.154.009.312.01.468l.037.101-.037.23c-.007.343-.022.687-.049 1.027l.018.077-.101.854a15.642 15.642 0 0 1-.287 1.615c-1.021 4.489-4.021 8.437-8.915 11.729-3.024 2.028-6.846 3.102-11.055 3.102zM27.312 47.933l-.164.572c-.121.452-.22.917-.296 1.383-.653 4.017.546 8.331 3.565 12.823 2.486 3.7 7.068 6.479 12.57 7.627a24.943 24.943 0 0 0 3.412.468c.478.031 1.011.05 1.541.05 3.812 0 7.246-.955 9.937-2.763 4.458-2.998 7.177-6.534 8.08-10.512.113-.498.196-.96.253-1.412l.056-.537-.021-.094.033-.149c.026-.337.043-.677.049-1.015v-.125a16.513 16.513 0 0 0-.011-.545c-.051-2.204-.493-4.596-1.396-7.527-.119-.389-.24-.773-.367-1.16l-.095-.291a53.9 53.9 0 0 0-.344-1.008l-.463-1.32c-.236-.664-.479-1.329-.72-1.993-.445-1.227-.888-2.446-1.303-3.656l-.215-.649c-.068-.201-.139-.402-.204-.604l-.069-.105-.062-.311-.188-.605c-.354-1.154-.813-2.217-1.259-3.245-.9-2.084-1.756-4.063-1.555-6.386-2.255-.586-9.409-1.984-11.768-2.299-.672 2.216-2.116 3.714-3.636 5.291-.69.716-1.403 1.456-2.088 2.305l-1.001 1.199c-.294.344-.59.688-.892 1.029-.86.979-1.753 1.96-2.646 2.941l-2.428 2.695c-.155.175-.312.349-.464.524-.354.411-.7.824-1.044 1.238-1.95 2.371-3.267 4.407-4.138 6.405a16.578 16.578 0 0 0-.612 1.599l-.047.162zm30.279-26.945c-.415 0-.861-.047-1.327-.138 0 0-8.058-1.58-9.266-1.814-1.547-.305-2.871-2.24-3.121-2.626a39.691 39.691 0 0 0-1.354-1.924c-.539-.705-1.221-2.407.058-3.806.476-.52 1.076-.793 1.735-.793.933 0 1.784.545 2.47.982.189.12.447.285.637.384.146-.225.341-.598.48-.866.746-1.433 1.842-3.48 3.98-3.056 2.49.488 6.562 5.42 7.353 6.402l.016.016c.557-.427 1.756-1.2 3.121-1.2.835 0 1.582.282 2.221.839.733.639.845 1.352.81 1.837-.119 1.649-2.068 3.036-3.888 4.205l-.483.318c-.867.581-1.845 1.24-3.442 1.24zm-13.276-9.1c-.055 0-.129 0-.261.144-.479.525.035 1.214.058 1.241a40.083 40.083 0 0 1 1.442 2.049c.438.67 1.315 1.65 1.827 1.751 1.207.235 9.267 1.815 9.267 1.815.339.066.656.101.942.101.986 0 1.576-.396 2.322-.897l.119-.081c.104-.07.24-.158.398-.26 2.411-1.553 2.949-2.309 2.977-2.668.001-.018.005-.067-.131-.186a1.318 1.318 0 0 0-.905-.347c-.855 0-1.81.687-2.075.927-.339.307-.705.461-1.087.461-.671 0-1.09-.46-1.396-.796l-.093-.101c-1.823-2.263-4.915-5.489-6.224-5.746-.711-.147-1.344 1.099-1.822 2.018-.479.917-.892 1.709-1.646 1.946-.146.046-.304.07-.464.07-.648 0-1.236-.376-1.859-.774-.462-.297-1.041-.667-1.389-.667zm2.746 29.536a16.87 16.87 0 0 0-2.165-2.375c1.166-1.613 2.781-2.973 4.769-3.957 1.519 1.619 2.561 3.453 3.09 5.373a16.821 16.821 0 0 0-2.864 1.469c-.185-.19-.364-.386-.562-.569l-.679-.638-.858.359c-.254.107-.492.223-.731.338zm-6.022-2.577c-1.604 1.418-2.729 3.128-3.327 4.995a19.03 19.03 0 0 1 3.399 2.452c1.011-1.438 2.337-2.693 3.916-3.73-1.037-1.412-2.381-2.675-3.988-3.717zm3.976 12.847c.367-.109.734-.212 1.111-.301l.621-.144.53.353c.322.215.635.439.938.67a15.19 15.19 0 0 1 3.248-2.57c-.419-2.258-1.534-4.428-3.299-6.306-2.308 1.144-4.115 2.784-5.295 4.752a15.058 15.058 0 0 1 2.146 3.546zm12.787-4.224c.088-1.96-.365-3.954-1.368-5.845-1.872.415-3.573 1.129-5.036 2.088 1.117 1.523 1.916 3.168 2.36 4.867a18.996 18.996 0 0 1 4.044-1.11zm-7.77 6.382a16.405 16.405 0 0 1 2.538 3.215c2.154-.72 4.455-1.039 6.806-.974.477-2.146.272-4.405-.639-6.587-3.523.502-6.583 2.039-8.705 4.346zm-7.271-1.315c-1.184-2.9-3.511-5.411-6.637-7.114-1.615 1.723-2.603 3.771-2.906 5.948 2.225.76 4.271 1.86 6.039 3.291a16.411 16.411 0 0 1 3.504-2.125zm-.094 14.166l2.498.45c7.342.81 14.012-2.942 15.727-8.849-2.891-.312-5.733.073-8.293 1.128l-1.229.506-.55-1.117c-.989-2.004-2.539-3.8-4.497-5.219-2.333.645-4.412 1.783-6.041 3.316l-.904.851-.974-.898c-2.03-1.886-4.561-3.236-7.377-3.957-.458 6.132 4.481 11.979 11.64 13.789z"/></svg>