<svg width="100" height="93" viewBox="0 0 100 93" xmlns="http://www.w3.org/2000/svg"><title>resinbag-colour</title><g fill="none" fill-rule="evenodd"><path d="M48.325 88.731L3 47.493V3h90.65v44.493L48.325 88.73" fill="#FDF8E6"/><path d="M46.632 15.681c.441.676 1.327 1.666 1.844 1.768l9.35 1.832c.343.066.662.101.95.101.996 0 1.59-.4 2.344-.906l.52-.343c2.436-1.566 2.979-2.329 3.006-2.694 0-.016.004-.067-.13-.185a1.33 1.33 0 0 0-.915-.35c-.863 0-1.825.693-2.094.935-.342.308-.712.465-1.097.465-.678 0-1.1-.464-1.409-.804l-.092-.1c-1.84-2.283-4.96-5.54-6.28-5.799-.719-.148-1.355 1.109-1.838 2.036-.483.925-.9 1.725-1.66 1.964a1.577 1.577 0 0 1-.469.071c-.655 0-1.248-.378-1.877-.782-.469-.299-1.053-.672-1.403-.672-.055 0-.13 0-.263.144-.485.53.035 1.223.057 1.253a40.59 40.59 0 0 1 1.456 2.066M66.175 46.816c-.12-.391-.244-.78-.372-1.17l-.097-.302a59.285 59.285 0 0 0-.345-1.012l-.465-1.326c-.248-.693-.499-1.386-.75-2.076-.44-1.216-.88-2.427-1.292-3.628l-.226-.67c-.072-.211-.145-.421-.213-.632l-.147-.462-.163-.53c-.359-1.164-.822-2.236-1.27-3.273-.908-2.102-1.772-4.101-1.568-6.444-2.275-.592-9.494-2.002-11.873-2.32-.679 2.236-2.136 3.749-3.67 5.341-.696.721-1.416 1.468-2.106 2.323l-1.012 1.212c-.295.347-.593.693-.896 1.037a224.653 224.653 0 0 1-2.71 3.01l-2.455 2.728c-.141.16-.283.318-.422.479-.358.417-.71.834-1.056 1.252-1.966 2.39-3.294 4.445-4.176 6.463-.083.193-.166.385-.243.58-.134.34-.262.683-.374 1.034l-.046.143-.173.604c-.12.447-.22.916-.294 1.382-.662 4.054.549 8.406 3.597 12.941 2.51 3.734 7.134 6.54 12.685 7.696a25.122 25.122 0 0 0 3.443.473c.48.03 1.019.05 1.555.05 3.844 0 7.31-.964 10.024-2.788 4.498-3.024 7.242-6.592 8.155-10.607.113-.503.197-.97.255-1.427l.056-.562-.015-.1.029-.123c.026-.34.042-.682.047-1.023v-.127c-.001-.185-.004-.37-.01-.555-.052-2.218-.499-4.63-1.407-7.591zm-6.049 3.36c.92 2.202 1.126 4.483.645 6.646-2.372-.066-4.692.257-6.866.982a16.642 16.642 0 0 0-2.562-3.243c2.14-2.328 5.227-3.879 8.783-4.385zM49.51 52.968c-.308-.234-.621-.46-.947-.676l-.535-.356-.627.145c-.38.09-.75.191-1.122.303a15.208 15.208 0 0 0-2.163-3.578c1.19-1.985 3.014-3.642 5.343-4.795 1.78 1.895 2.904 4.085 3.328 6.362a15.323 15.323 0 0 0-3.277 2.595zm9.672-4.846a19.243 19.243 0 0 0-4.081 1.12c-.447-1.715-1.254-3.373-2.38-4.912 1.475-.967 3.192-1.688 5.08-2.106 1.013 1.908 1.47 3.92 1.381 5.898zm-8.212-12.49c1.531 1.633 2.584 3.484 3.118 5.421-1.03.412-1.996.908-2.891 1.483-.187-.194-.367-.39-.568-.576l-.684-.643-.867.363c-.252.108-.492.225-.735.34a16.982 16.982 0 0 0-2.184-2.396c1.177-1.628 2.807-3 4.811-3.992zm-8.703 3.789c1.622 1.05 2.978 2.326 4.026 3.75-1.595 1.047-2.932 2.312-3.952 3.764a19.303 19.303 0 0 0-3.43-2.475c.605-1.883 1.738-3.609 3.356-5.04zm-4.958 6.635c3.153 1.718 5.502 4.253 6.696 7.179a16.534 16.534 0 0 0-3.535 2.144c-1.785-1.443-3.85-2.554-6.095-3.32.308-2.196 1.303-4.265 2.934-6.003zm9.122 21.928l-2.52-.455c-7.225-1.827-12.207-7.727-11.744-13.914 2.84.728 5.394 2.091 7.443 3.993l.982.908.913-.86c1.643-1.546 3.74-2.696 6.094-3.345 1.976 1.431 3.54 3.244 4.54 5.265l.554 1.127 1.238-.51c2.583-1.064 5.451-1.452 8.37-1.138-1.731 5.959-8.462 9.745-15.87 8.929z" fill="#8EC23F"/><path d="M.056.223v47.872l49.96 44.807L99.52 48.095V.223H.056zM43.631 11c.479-.525 1.085-.8 1.751-.8.94 0 1.8.55 2.49.99.192.123.453.29.642.388.148-.225.345-.602.487-.874.753-1.446 1.85-3.512 4.017-3.083 2.511.494 6.62 5.469 7.418 6.461l.014.016c.562-.43 1.772-1.212 3.15-1.212.842 0 1.596.284 2.24.846.74.644.854 1.364.818 1.854-.12 1.666-2.09 3.064-3.925 4.245l-.487.319c-.871.586-1.858 1.25-3.47 1.25-.419 0-.869-.047-1.338-.138l-9.35-1.833c-1.56-.306-2.896-2.26-3.148-2.649a38.539 38.539 0 0 0-1.367-1.94c-.544-.711-1.233-2.43.058-3.84zm-30.714 3.523l-.855 2.17-.856-2.17-2.171-.857 2.17-.854.857-2.173.855 2.173 2.172.854-2.172.857zM22.963 35.98l-1.428-3.616-3.618-1.429 3.618-1.428 1.428-3.617 1.426 3.617 3.618 1.428-3.618 1.429-1.426 3.616zm46.646 19.183c-.006.357-.023.714-.05 1.067l.013.078-.018.088v.009l-.076.736a17.01 17.01 0 0 1-.29 1.63c-1.031 4.534-4.059 8.514-8.998 11.836-3.047 2.047-6.902 3.13-11.149 3.13-.583 0-1.167-.02-1.749-.06l-.125-.01a27.06 27.06 0 0 1-3.536-.495c-6.062-1.263-11.146-4.378-13.948-8.546-3.344-4.974-4.66-9.815-3.915-14.39.086-.531.2-1.066.339-1.589l.242-.821a18.996 18.996 0 0 1 .694-1.82c.957-2.192 2.378-4.397 4.468-6.939.355-.43.715-.855 1.083-1.282.145-.17.294-.337.443-.505l2.471-2.745c.908-.995 1.812-1.988 2.687-2.984.313-.354.618-.71.92-1.067L40 29.427c.793-.983 1.544-1.762 2.27-2.516 1.642-1.702 2.938-3.047 3.356-5.185.074-.384.41-.838 1.106-.838.118 0 13.594 2.07 14.42 3.072l.304.368-.086.482c-.414 2.116.388 3.973 1.318 6.125.47 1.087.955 2.21 1.347 3.485l.3.956c.064.2.133.398.201.599l.229.678c.407 1.185.841 2.384 1.279 3.59.252.693.504 1.389.753 2.085l.473 1.347c.117.337.237.69.352 1.036l.1.31c.13.398.258.799.382 1.204.964 3.14 1.44 5.726 1.497 8.135.003.157.007.314.008.47l.037.102-.037.231zM80.818 24.88l-2.056 5.214-2.056-5.214-5.214-2.056 5.214-2.056 2.056-5.215 2.056 5.215 5.214 2.056-5.214 2.056z" fill="#8EC23F"/></g></svg>