<svg width="100" height="93" viewBox="0 0 100 93" xmlns="http://www.w3.org/2000/svg"><title>resinbag-colour</title><g fill="none" fill-rule="evenodd"><path d="M48.325 88.73L3 47.494V3h90.65v44.493L48.325 88.73" fill="#FDF8E6"/><path d="M46.632 15.68c.44.677 1.327 1.667 1.844 1.77 1.217.237 9.35 1.83 9.35 1.83.343.067.662.102.95.102.996 0 1.59-.4 2.344-.906l.52-.343c2.436-1.566 2.98-2.33 3.006-2.694 0-.017.004-.068-.13-.186a1.33 1.33 0 0 0-.915-.35c-.862 0-1.824.693-2.093.935-.342.307-.712.464-1.097.464-.678 0-1.1-.464-1.41-.804l-.09-.1c-1.84-2.283-4.96-5.54-6.28-5.8-.72-.147-1.356 1.11-1.84 2.037-.482.925-.9 1.725-1.66 1.964-.15.047-.306.072-.468.072-.655 0-1.248-.378-1.877-.782-.47-.3-1.053-.672-1.403-.672-.055 0-.13 0-.263.144-.486.53.034 1.223.056 1.253a40.59 40.59 0 0 1 1.456 2.066M66.175 46.816c-.12-.39-.244-.78-.372-1.17l-.097-.302c-.11-.335-.227-.675-.345-1.012l-.464-1.326c-.248-.693-.5-1.386-.75-2.076-.44-1.216-.88-2.427-1.292-3.628l-.226-.67c-.072-.21-.145-.42-.213-.632l-.147-.462-.163-.53c-.36-1.164-.822-2.236-1.27-3.273-.908-2.102-1.772-4.1-1.568-6.444-2.275-.59-9.494-2-11.873-2.32-.68 2.237-2.136 3.75-3.67 5.342-.696.72-1.416 1.468-2.106 2.323l-1.012 1.212c-.295.347-.593.693-.896 1.037a224.653 224.653 0 0 1-2.71 3.01l-2.455 2.728c-.14.16-.283.318-.422.48-.358.416-.71.833-1.056 1.25-1.966 2.39-3.294 4.446-4.176 6.464-.082.193-.165.385-.242.58-.134.34-.262.683-.374 1.034l-.046.143-.173.604c-.12.447-.22.916-.294 1.382-.66 4.053.55 8.405 3.598 12.94 2.51 3.734 7.134 6.54 12.685 7.696a25.122 25.122 0 0 0 3.443.473c.48.03 1.02.048 1.555.048 3.845 0 7.31-.963 10.025-2.787 4.498-3.023 7.242-6.59 8.155-10.606.113-.503.197-.97.255-1.427l.056-.562-.014-.1.03-.123c.025-.34.04-.682.046-1.023v-.128c0-.185-.004-.37-.01-.555-.052-2.218-.5-4.63-1.407-7.59zm-6.05 3.36c.92 2.202 1.127 4.483.646 6.646-2.37-.066-4.69.257-6.865.982a16.642 16.642 0 0 0-2.562-3.243c2.14-2.327 5.227-3.878 8.783-4.384zM49.51 52.968c-.308-.234-.62-.46-.947-.676l-.535-.356-.627.145c-.38.09-.75.192-1.12.304a15.208 15.208 0 0 0-2.164-3.578c1.19-1.985 3.014-3.642 5.343-4.795 1.778 1.896 2.903 4.086 3.327 6.363a15.323 15.323 0 0 0-3.277 2.595zm9.672-4.846a19.243 19.243 0 0 0-4.08 1.12c-.448-1.715-1.255-3.373-2.382-4.912 1.476-.967 3.193-1.688 5.08-2.106 1.014 1.908 1.47 3.92 1.382 5.898zm-8.212-12.49c1.53 1.633 2.584 3.484 3.118 5.42-1.03.413-1.996.91-2.89 1.484-.188-.194-.368-.39-.57-.576l-.683-.643-.867.363c-.252.108-.492.225-.735.34a16.982 16.982 0 0 0-2.184-2.396c1.176-1.628 2.806-3 4.81-3.992zm-8.703 3.79c1.622 1.05 2.978 2.325 4.026 3.75-1.595 1.046-2.932 2.31-3.952 3.763a19.303 19.303 0 0 0-3.43-2.475c.606-1.883 1.74-3.61 3.357-5.04zm-4.958 6.634c3.152 1.718 5.5 4.253 6.695 7.18a16.534 16.534 0 0 0-3.535 2.143c-1.785-1.444-3.85-2.555-6.095-3.322.308-2.195 1.303-4.264 2.934-6.002zm9.12 21.928l-2.52-.455C36.687 65.7 31.705 59.8 32.168 53.614c2.84.728 5.394 2.09 7.443 3.993l.982.908.913-.86c1.643-1.546 3.74-2.696 6.094-3.345 1.975 1.432 3.54 3.245 4.54 5.266l.553 1.127 1.238-.51c2.584-1.064 5.452-1.452 8.37-1.138-1.73 5.96-8.46 9.745-15.87 8.93z" fill="#8EC23F"/><path d="M.056.223v47.872l49.96 44.807L99.52 48.095V.223H.057zM43.63 11c.48-.525 1.086-.8 1.752-.8.94 0 1.8.55 2.49.99.192.123.453.29.642.388.148-.225.345-.602.487-.874.754-1.446 1.85-3.512 4.018-3.083 2.51.495 6.62 5.47 7.418 6.462l.014.016c.562-.43 1.772-1.212 3.15-1.212.842 0 1.596.284 2.24.846.74.644.854 1.364.818 1.854-.12 1.666-2.09 3.064-3.925 4.245l-.487.32c-.87.586-1.858 1.25-3.47 1.25-.42 0-.87-.047-1.338-.138 0 0-8.13-1.595-9.35-1.833-1.56-.307-2.896-2.26-3.148-2.65a38.54 38.54 0 0 0-1.367-1.94c-.544-.71-1.233-2.43.058-3.84zm-30.713 3.523l-.855 2.17-.856-2.17-2.17-.857 2.17-.854.856-2.173.855 2.172 2.172.854-2.173.857zM22.963 35.98l-1.428-3.616-3.618-1.43 3.618-1.427 1.428-3.617 1.426 3.617 3.617 1.428-3.618 1.43-1.427 3.615zM69.61 55.163c-.007.357-.024.714-.05 1.067l.012.078-.018.088v.01l-.076.735a17.01 17.01 0 0 1-.29 1.63c-1.03 4.535-4.06 8.515-8.998 11.837-3.047 2.047-6.902 3.13-11.15 3.13-.582 0-1.166-.02-1.748-.06l-.125-.01a27.06 27.06 0 0 1-3.536-.495c-6.06-1.263-11.145-4.378-13.947-8.546-3.344-4.974-4.66-9.815-3.915-14.39.086-.53.2-1.066.34-1.59l.24-.82a18.996 18.996 0 0 1 .695-1.82c.957-2.192 2.378-4.397 4.468-6.94.356-.428.716-.854 1.084-1.28.145-.17.294-.338.443-.506l2.47-2.745c.91-.995 1.813-1.988 2.688-2.984.313-.353.618-.71.92-1.066L40 29.427c.793-.983 1.544-1.762 2.27-2.516 1.642-1.7 2.938-3.046 3.356-5.184.074-.384.41-.838 1.106-.838.118 0 13.594 2.07 14.42 3.072l.304.368-.086.482c-.414 2.116.388 3.973 1.318 6.125.47 1.087.955 2.21 1.347 3.485l.3.956c.064.2.133.398.2.6l.23.677c.407 1.185.84 2.384 1.28 3.59.25.693.503 1.39.752 2.085l.473 1.347c.117.337.237.69.352 1.036l.1.31c.13.4.258.8.382 1.205.964 3.14 1.44 5.726 1.497 8.135.004.157.008.314.01.47l.036.102-.037.23zM80.817 24.88l-2.056 5.213-2.056-5.214-5.214-2.057 5.214-2.056 2.056-5.215 2.056 5.215 5.214 2.056-5.214 2.056z" fill="#8EC23F"/></g></svg>