<svg xmlns="http://www.w3.org/2000/svg" width="98.139" height="91.85" viewBox="0 0 98.139 91.85"><path fill="#FDF7E7" d="M0 0v47.442L49.062 91.85l49.062-44.406V0H0zm96.125 46.557L49.062 89.152 2 46.557V2h94.125v44.557zm-73.488-21.12l1.414 3.586 3.587 1.415-3.586 1.416-1.413 3.584-1.414-3.584-3.586-1.416 3.586-1.415 1.414-3.585zm55.3-10.245l2.037 5.168 5.168 2.037-5.168 2.038-2.037 5.168-2.04-5.168-5.165-2.038 5.166-2.037 2.04-5.168zm-66.103-4.87l.848 2.154 2.152.847-2.152.85-.848 2.15-.85-2.15-2.15-.85 2.15-.847.85-2.153zM47.94 72.856c-.575 0-1.153-.02-1.73-.06l-.123-.01a27.03 27.03 0 0 1-3.506-.49c-6.008-1.253-11.045-4.34-13.822-8.47-3.312-4.93-4.618-9.727-3.88-14.262.087-.53.2-1.06.337-1.574l.245-.83c.123-.39.265-.768.41-1.145.09-.223.18-.435.272-.645.947-2.17 2.354-4.355 4.428-6.876.354-.427.708-.85 1.072-1.27.16-.187.322-.368.484-.55l2.44-2.712c.89-.975 1.772-1.943 2.626-2.917.31-.353.612-.705.914-1.06l.922-1.103c.74-.917 1.484-1.69 2.204-2.438 1.625-1.687 2.91-3.02 3.325-5.138.073-.38.405-.83 1.096-.83.117 0 13.476 2.053 14.29 3.046l.303.365-.086.483c-.41 2.093.386 3.935 1.307 6.065.466 1.077.947 2.19 1.336 3.455l.3.958c.064.2.134.4.202.602l.22.646c.41 1.202.85 2.41 1.29 3.626.242.668.485 1.337.725 2.007l.47 1.34c.116.327.236.678.35 1.022l.097.297c.133.402.258.8.38 1.2.957 3.112 1.43 5.675 1.483 8.062.005.154.01.312.01.468l.037.1-.037.23c-.007.344-.022.688-.05 1.028l.02.077-.102.854a15.642 15.642 0 0 1-.287 1.614c-1.02 4.49-4.02 8.437-8.914 11.73-3.024 2.027-6.846 3.1-11.055 3.1zM27.313 47.933l-.164.572c-.12.452-.22.917-.296 1.383-.653 4.017.546 8.33 3.565 12.823 2.486 3.7 7.068 6.48 12.57 7.628a24.943 24.943 0 0 0 3.412.468c.477.03 1.01.05 1.54.05 3.812 0 7.246-.955 9.937-2.763 4.458-2.998 7.177-6.534 8.08-10.512.113-.497.196-.96.253-1.41l.056-.538-.02-.094.032-.15c.026-.336.043-.676.05-1.014v-.125c-.002-.183-.005-.364-.012-.546-.05-2.204-.493-4.596-1.396-7.527-.12-.39-.24-.773-.367-1.16l-.095-.29a53.9 53.9 0 0 0-.344-1.01l-.463-1.32c-.235-.663-.478-1.328-.72-1.992-.444-1.227-.887-2.446-1.302-3.656l-.215-.65c-.068-.2-.14-.402-.204-.604l-.07-.105-.062-.31-.188-.605c-.354-1.154-.813-2.217-1.26-3.245-.9-2.084-1.755-4.063-1.554-6.386-2.255-.586-9.41-1.984-11.768-2.3-.672 2.217-2.116 3.715-3.636 5.292-.69.716-1.403 1.456-2.088 2.305l-1 1.2c-.295.344-.59.688-.893 1.03-.86.978-1.752 1.96-2.645 2.94l-2.428 2.695c-.155.175-.312.35-.464.524-.354.41-.7.823-1.044 1.237-1.95 2.37-3.268 4.407-4.14 6.405a16.578 16.578 0 0 0-.612 1.6l-.046.16zm30.28-26.945a6.97 6.97 0 0 1-1.328-.138s-8.058-1.58-9.266-1.814c-1.547-.305-2.87-2.24-3.12-2.626a39.69 39.69 0 0 0-1.355-1.924c-.54-.705-1.22-2.407.058-3.806.477-.52 1.077-.793 1.736-.793.933 0 1.784.545 2.47.982.19.12.447.284.637.383.146-.225.34-.598.48-.866.746-1.433 1.842-3.48 3.98-3.056 2.49.49 6.562 5.42 7.353 6.403l.016.016c.557-.428 1.756-1.2 3.12-1.2.836 0 1.583.28 2.222.838.733.64.845 1.352.81 1.837-.12 1.65-2.068 3.036-3.888 4.205l-.483.318c-.867.58-1.845 1.24-3.442 1.24zm-13.277-9.1c-.055 0-.13 0-.26.144-.48.525.034 1.214.057 1.24.425.56 1.07 1.478 1.442 2.05.438.67 1.315 1.65 1.827 1.75l9.268 1.816c.34.066.656.1.942.1.986 0 1.576-.395 2.322-.896l.12-.08c.103-.07.24-.16.397-.26 2.41-1.554 2.948-2.31 2.976-2.67 0-.017.005-.066-.13-.185a1.318 1.318 0 0 0-.906-.347c-.855 0-1.81.687-2.075.927-.34.307-.705.46-1.087.46-.67 0-1.09-.46-1.396-.795l-.093-.1c-1.824-2.264-4.916-5.49-6.225-5.747-.71-.147-1.344 1.1-1.822 2.018-.48.917-.892 1.71-1.646 1.946-.146.045-.304.07-.464.07-.648 0-1.236-.377-1.86-.775-.46-.297-1.04-.667-1.388-.667zm2.746 29.536a16.87 16.87 0 0 0-2.164-2.375c1.166-1.614 2.78-2.974 4.77-3.958 1.518 1.62 2.56 3.453 3.09 5.373-1.022.408-1.98.9-2.865 1.47-.184-.19-.363-.387-.56-.57l-.68-.638-.858.36c-.254.106-.492.222-.73.337zm-6.02-2.577c-1.605 1.418-2.73 3.128-3.328 4.995a19.03 19.03 0 0 1 3.4 2.452c1.01-1.438 2.336-2.693 3.915-3.73-1.037-1.412-2.38-2.675-3.988-3.717zm3.975 12.847c.367-.11.734-.212 1.11-.3l.622-.145.53.352c.322.215.635.44.938.67a15.19 15.19 0 0 1 3.248-2.57c-.42-2.258-1.534-4.428-3.3-6.306-2.307 1.144-4.114 2.784-5.294 4.752a15.058 15.058 0 0 1 2.145 3.546zm12.787-4.224c.088-1.96-.365-3.954-1.368-5.845-1.872.415-3.573 1.13-5.036 2.088 1.117 1.523 1.916 3.168 2.36 4.867 1.264-.508 2.62-.88 4.044-1.11zm-7.77 6.382c.99.982 1.848 2.062 2.538 3.215 2.154-.72 4.455-1.04 6.806-.974.477-2.146.272-4.405-.64-6.587-3.522.502-6.582 2.04-8.704 4.346zm-7.27-1.315c-1.185-2.9-3.512-5.41-6.638-7.114-1.615 1.723-2.603 3.77-2.906 5.948 2.225.76 4.27 1.86 6.04 3.292a16.41 16.41 0 0 1 3.503-2.125zm-.095 14.166l2.498.45c7.342.81 14.012-2.942 15.727-8.85-2.89-.31-5.733.074-8.293 1.13l-1.23.505-.55-1.117c-.99-2.003-2.54-3.8-4.497-5.218-2.333.645-4.412 1.783-6.04 3.316l-.905.85-.974-.897c-2.03-1.885-4.56-3.235-7.377-3.956-.458 6.132 4.48 11.98 11.64 13.79z"/></svg>