<svg xmlns="http://www.w3.org/2000/svg" width="98.139" height="91.85" viewBox="0 0 98.139 91.85"><path fill="#FDF7E7" d="M48.94 91.04L.555 47.246V0h96.77v47.247L48.94 91.04zM2.488 46.39L48.94 88.435l46.452-42.042V1.933H2.488v44.46z"/><g fill="#FDF7E7"><path d="M48.94 20.704c8.91 0 17.063 4.84 21.376 12.51.48-.51.917-1.04 1.297-1.586-.972-1.618-2.102-3.11-3.368-4.463l5.21-5.21c.377-.378.377-.99 0-1.367-.378-.377-.99-.377-1.367 0l-5.214 5.216c-2.083-1.922-4.452-3.502-7.03-4.67l2.832-6.836c.203-.494-.03-1.06-.523-1.263-.49-.203-1.06.028-1.264.52l-2.836 6.846c-2.614-.96-5.4-1.507-8.27-1.6V11.35c0-.535-.433-.966-.967-.966-.533 0-.966.432-.966.966v7.46c-2.858.118-5.635.685-8.235 1.665l-2.867-6.917c-.204-.493-.77-.725-1.264-.52s-.727.768-.52 1.262l2.867 6.924c-2.55 1.183-4.892 2.777-6.948 4.7l-5.334-5.333c-.378-.378-.99-.378-1.367 0s-.376.988 0 1.366l5.34 5.34c-1.22 1.32-2.313 2.768-3.255 4.336.382.547.816 1.076 1.298 1.586 4.31-7.673 12.466-12.514 21.377-12.514z"/><path d="M73.14 34.542c-.162-.37-.35-.727-.528-1.085-3.202 4.058-8.905 7.296-15.632 8.772v-4.353l2.82-1.032-2.82-1.032v-.336c0-.535-.433-.968-.967-.968-.27 0-.516.114-.692.295-.17.084-.286.256-.286.46v7.34c-1.63.267-3.303.43-5.01.48V36.424l2.892-1.037-2.892-1.036v-.333c0-.534-.432-.966-.966-.966-.04 0-.072.02-.107.022-.015 0-.025-.007-.038-.007-.146 0-.276.06-.37.157-.266.17-.45.456-.45.795v9.073c-1.83-.042-3.625-.214-5.366-.506v-4.707l2.82-1.032-2.82-1.032v-.336c0-.535-.432-.968-.966-.968s-.967.432-.967.967v6.73c-6.68-1.488-12.337-4.71-15.526-8.747-.178.357-.363.712-.526 1.082v.004c-1.475 3.335-2.23 6.88-2.248 10.556.025 2.968 1.422 5.845 4.037 8.322.28.265.69.34 1.046.186.354-.15.584-.503.584-.888v-4.17c0-.8.65-1.45 1.45-1.45.8 0 1.45.65 1.45 1.45v7.51c0 .36.2.694.523.858 1.533.79 3.21 1.473 4.986 2.025.293.095.613.038.86-.144s.395-.47.395-.778v-4.52c0-.8.65-1.45 1.448-1.45s1.45.65 1.45 1.45v5.673c0 .472.34.874.804.953 1.608.276 3.27.463 4.943.555.27.017.523-.08.717-.263.193-.184.304-.438.304-.702v-6.215c0-.8.65-1.45 1.45-1.45s1.448.65 1.448 1.45v6.215c0 .266.11.52.303.702.183.17.42.266.665.266.02 0 .036 0 .055-.003 1.68-.093 3.342-.277 4.942-.555.463-.08.804-.482.804-.953v-5.672c0-.8.648-1.45 1.448-1.45s1.45.65 1.45 1.45v4.52c0 .31.146.598.396.78s.568.233.86.142c1.782-.558 3.46-1.24 4.984-2.024.322-.164.523-.497.523-.858V48.55c0-.8.65-1.45 1.45-1.45.8 0 1.45.65 1.45 1.45v4.172c0 .387.23.736.584.888.354.153.767.08 1.047-.185 2.617-2.475 4.017-5.354 4.042-8.34-.02-3.66-.774-7.207-2.25-10.538.002 0 .002-.002 0-.005z"/></g></svg>