<svg xmlns="http://www.w3.org/2000/svg" width="98.139" height="91.85"><path fill="#0C223F" d="M48.94 91.039L.555 47.247V0h96.771v47.247L48.94 91.039zM2.488 46.392L48.94 88.435l46.452-42.042V1.934H2.488v44.458z"/><g fill="#0C223F"><path d="M48.94 20.704a24.548 24.548 0 0 1 21.376 12.51c.481-.51.917-1.04 1.297-1.586a26.55 26.55 0 0 0-3.367-4.463l5.21-5.21a.967.967 0 0 0-1.367-1.367l-5.214 5.216a26.466 26.466 0 0 0-7.03-4.669l2.832-6.837a.966.966 0 0 0-1.787-.742l-2.835 6.845a26.365 26.365 0 0 0-8.269-1.6v-7.453a.967.967 0 0 0-1.935 0v7.461a26.42 26.42 0 0 0-8.235 1.664l-2.867-6.917a.968.968 0 0 0-1.786.742l2.868 6.924a26.472 26.472 0 0 0-6.949 4.701l-5.334-5.334a.967.967 0 0 0-1.367 1.367l5.338 5.339a26.51 26.51 0 0 0-3.254 4.337c.382.547.816 1.076 1.298 1.586A24.54 24.54 0 0 1 48.94 20.704z"/><path d="M73.141 34.542c-.163-.37-.35-.728-.529-1.085-3.201 4.058-8.904 7.296-15.632 8.771v-4.351l2.821-1.032-2.821-1.032v-.336a.965.965 0 1 0-1.659-.672.51.51 0 0 0-.286.46v7.34a37.36 37.36 0 0 1-5.011.48v-6.663l2.893-1.037-2.893-1.036v-.333a.965.965 0 0 0-.966-.966c-.039 0-.072.018-.106.021-.017 0-.026-.008-.039-.008a.52.52 0 0 0-.37.157.94.94 0 0 0-.449.795v9.074a37.7 37.7 0 0 1-5.367-.506v-4.707l2.82-1.032-2.82-1.032v-.336a.966.966 0 1 0-1.933 0v6.729c-6.682-1.488-12.337-4.711-15.526-8.747-.178.357-.363.713-.525 1.083l-.003.004a26.232 26.232 0 0 0-2.246 10.556c.024 2.968 1.422 5.846 4.036 8.322a.969.969 0 0 0 1.632-.702v-4.17a1.45 1.45 0 1 1 2.898 0v7.51c0 .361.202.694.524.858 1.533.79 3.21 1.473 4.985 2.024a.971.971 0 0 0 1.257-.923v-4.519a1.45 1.45 0 1 1 2.897 0v5.672c0 .472.339.874.804.953a43.67 43.67 0 0 0 4.943.555.944.944 0 0 0 .717-.263.976.976 0 0 0 .305-.702v-6.215a1.45 1.45 0 1 1 2.896 0v6.215a.96.96 0 0 0 .303.702c.183.17.418.266.664.266.021 0 .036 0 .056-.003a42.536 42.536 0 0 0 4.941-.555.97.97 0 0 0 .805-.953v-5.672a1.448 1.448 0 1 1 2.897 0v4.521c0 .31.146.598.396.778s.567.234.858.143a31.432 31.432 0 0 0 4.985-2.023.964.964 0 0 0 .522-.859V48.55c0-.8.65-1.45 1.45-1.45.799 0 1.449.65 1.449 1.45v4.172c0 .387.229.736.585.888a.964.964 0 0 0 1.046-.185c2.617-2.475 4.017-5.354 4.042-8.339a26.172 26.172 0 0 0-2.248-10.539c.003 0 .003-.002.002-.005z"/></g></svg>