<svg xmlns="http://www.w3.org/2000/svg" width="98.139" height="91.85" viewBox="0 0 98.139 91.85"><path fill="#0C223F" d="M48.94 91.04L.555 47.246V0h96.77v47.247L48.94 91.04zM2.488 46.39L48.94 88.435l46.452-42.042V1.933H2.488v44.46z"/><g fill="#0C223F"><path d="M48.94 20.704c8.91 0 17.063 4.84 21.376 12.51.48-.51.917-1.04 1.297-1.586a26.55 26.55 0 0 0-3.367-4.463l5.21-5.21a.967.967 0 0 0-1.367-1.367l-5.215 5.216a26.466 26.466 0 0 0-7.03-4.67l2.832-6.836a.966.966 0 1 0-1.787-.742L58.055 20.4a26.365 26.365 0 0 0-8.27-1.6V11.35a.967.967 0 0 0-1.934 0v7.46a26.42 26.42 0 0 0-8.234 1.665l-2.867-6.917a.968.968 0 1 0-1.787.742l2.868 6.924a26.472 26.472 0 0 0-6.948 4.7l-5.334-5.333a.967.967 0 0 0-1.367 1.366l5.34 5.34a26.51 26.51 0 0 0-3.255 4.336c.382.547.816 1.076 1.298 1.586A24.54 24.54 0 0 1 48.94 20.704z"/><path d="M73.14 34.542c-.162-.37-.35-.728-.528-1.085-3.2 4.058-8.904 7.296-15.632 8.77v-4.35l2.82-1.032-2.82-1.032v-.336a.965.965 0 0 0-1.66-.672.51.51 0 0 0-.285.46v7.34a37.36 37.36 0 0 1-5.01.48V36.42l2.892-1.037-2.893-1.036v-.334a.965.965 0 0 0-.966-.966c-.04 0-.072.018-.106.02-.017 0-.026-.007-.04-.007a.52.52 0 0 0-.37.157.94.94 0 0 0-.448.795v9.074a37.7 37.7 0 0 1-5.367-.507v-4.707l2.82-1.032-2.82-1.032v-.336a.966.966 0 0 0-1.933 0v6.729c-6.682-1.488-12.337-4.71-15.526-8.747-.178.357-.363.713-.525 1.083l-.003.005A26.232 26.232 0 0 0 22.494 45.1c.024 2.97 1.422 5.847 4.036 8.323a.97.97 0 0 0 1.632-.702v-4.17a1.45 1.45 0 0 1 2.898 0v7.51c0 .362.202.695.524.86 1.533.79 3.21 1.472 4.985 2.023a.97.97 0 0 0 1.257-.923V53.5a1.45 1.45 0 0 1 2.896 0v5.673c0 .472.34.874.804.953a43.67 43.67 0 0 0 4.943.555c.27.02.523-.08.717-.262a.976.976 0 0 0 .305-.702V53.5a1.45 1.45 0 0 1 2.896 0v6.216c0 .266.11.52.303.702.184.17.42.266.665.266.02 0 .036 0 .056-.003a42.536 42.536 0 0 0 4.942-.554.97.97 0 0 0 .805-.953V53.5a1.448 1.448 0 0 1 2.897 0v4.522c0 .31.146.598.396.778s.567.234.858.143a31.432 31.432 0 0 0 4.985-2.023.964.964 0 0 0 .522-.86v-7.51c0-.8.65-1.45 1.45-1.45.8 0 1.45.65 1.45 1.45v4.172c0 .387.228.736.584.888a.964.964 0 0 0 1.045-.185c2.617-2.475 4.017-5.354 4.042-8.34a26.172 26.172 0 0 0-2.248-10.538c.002 0 .002-.002 0-.005z"/></g></svg>