<svg width="99" height="94" viewBox="0 0 99 94" xmlns="http://www.w3.org/2000/svg"><title>sunlightpark-colour</title><g fill="none" fill-rule="evenodd"><path d="M49.367 93.21L.094 48.614V.5H98.64v48.114L49.367 93.21" fill="#FCDB1D"/><g fill="#FEF8E7"><path d="M49.367 21.584c9.073 0 17.377 4.93 21.768 12.74.491-.52.934-1.06 1.321-1.616a26.892 26.892 0 0 0-3.43-4.545l5.304-5.306a.984.984 0 0 0-1.392-1.392l-5.31 5.311a26.97 26.97 0 0 0-7.159-4.754l2.885-6.962a.986.986 0 0 0-.533-1.287.987.987 0 0 0-1.287.532l-2.887 6.97a26.83 26.83 0 0 0-8.42-1.628v-7.59a.983.983 0 1 0-1.969 0v7.6c-2.912.118-5.74.693-8.388 1.692l-2.919-7.044a.987.987 0 0 0-1.286-.532.986.986 0 0 0-.533 1.287l2.922 7.051a26.98 26.98 0 0 0-7.077 4.787l-5.433-5.433a.983.983 0 1 0-1.391 1.392l5.436 5.437a26.853 26.853 0 0 0-3.312 4.417c.388.557.83 1.095 1.32 1.615a24.994 24.994 0 0 1 21.77-12.742"/><path d="M74.012 35.676c-.166-.377-.355-.74-.538-1.105-3.263 4.132-9.07 7.43-15.919 8.934v-4.432l2.873-1.05-2.873-1.052v-.342a.984.984 0 0 0-1.69-.684.522.522 0 0 0-.294.468v7.474c-1.657.271-3.362.438-5.1.489v-6.782l2.944-1.056-2.943-1.055v-.34a.983.983 0 0 0-.985-.983c-.039 0-.073.017-.11.021-.015 0-.026-.007-.04-.007a.527.527 0 0 0-.377.159.966.966 0 0 0-.456.81v9.238a38.35 38.35 0 0 1-5.466-.514v-4.794l2.872-1.05-2.872-1.052v-.342a.984.984 0 1 0-1.968 0v6.853c-6.803-1.516-12.565-4.798-15.811-8.908-.182.365-.37.726-.537 1.102l-.001.004a26.727 26.727 0 0 0-2.29 10.75c.028 3.022 1.45 5.953 4.113 8.475a.985.985 0 0 0 1.66-.715v-4.246c0-.815.662-1.477 1.476-1.477.815 0 1.477.662 1.477 1.477v7.647c0 .369.206.707.533.874 1.561.806 3.27 1.5 5.08 2.064a.983.983 0 0 0 1.277-.94v-4.601c0-.814.662-1.477 1.476-1.477s1.476.663 1.476 1.477v5.776c0 .48.345.889.819.97 1.637.282 3.33.472 5.033.565a.985.985 0 0 0 1.038-.982v-6.329c0-.814.662-1.477 1.476-1.477s1.476.663 1.476 1.477v6.329a.987.987 0 0 0 .985.984c.018 0 .037 0 .054-.002a43.656 43.656 0 0 0 5.034-.565.986.986 0 0 0 .818-.97v-5.776c0-.814.662-1.477 1.476-1.477.813 0 1.476.663 1.476 1.477v4.605a.981.981 0 0 0 1.279.938 31.977 31.977 0 0 0 5.077-2.063.984.984 0 0 0 .534-.875v-7.65c0-.814.662-1.476 1.476-1.476s1.476.662 1.476 1.477v4.248a.982.982 0 0 0 1.66.716c2.666-2.52 4.09-5.452 4.117-8.492a26.689 26.689 0 0 0-2.29-10.732l-.001-.008"/></g></g></svg>