<svg xmlns="http://www.w3.org/2000/svg" width="98.139" height="91.85" viewBox="0 0 98.139 91.85"><path fill="#0C223F" d="M48.94 91.04L.555 47.246V0h96.77v47.247L48.94 91.04zM2.488 46.39L48.94 88.435l46.452-42.042V1.933H2.488v44.46z"/><g fill="#0C223F"><path d="M48.94 20.704c8.91 0 17.063 4.84 21.376 12.51.48-.51.917-1.04 1.297-1.586-.972-1.618-2.102-3.11-3.367-4.463l5.21-5.21c.377-.378.377-.99 0-1.367-.378-.377-.99-.377-1.367 0l-5.215 5.216c-2.083-1.922-4.452-3.502-7.03-4.67l2.832-6.836c.203-.494-.03-1.062-.523-1.263-.488-.203-1.06.027-1.264.52l-2.835 6.846c-2.614-.96-5.4-1.507-8.27-1.6V11.35c0-.535-.434-.966-.968-.966-.532 0-.966.432-.966.966v7.46c-2.857.118-5.635.686-8.234 1.665l-2.867-6.917c-.205-.493-.772-.725-1.266-.52-.492.203-.727.768-.52 1.262l2.867 6.924c-2.552 1.184-4.893 2.777-6.948 4.7l-5.334-5.333c-.378-.378-.99-.378-1.367 0s-.376.988 0 1.366l5.34 5.34c-1.22 1.32-2.313 2.768-3.255 4.336.382.547.816 1.076 1.298 1.586 4.31-7.673 12.466-12.514 21.377-12.514z"/><path d="M73.14 34.542c-.162-.37-.35-.728-.528-1.085-3.2 4.058-8.904 7.296-15.632 8.77v-4.35l2.82-1.032-2.82-1.032v-.336c0-.535-.433-.968-.967-.968-.27 0-.516.114-.692.295-.17.084-.285.256-.285.46v7.34c-1.63.268-3.304.432-5.01.48v-6.663l2.892-1.037-2.893-1.036v-.334c0-.534-.432-.966-.966-.966-.04 0-.072.018-.106.02-.017 0-.026-.007-.04-.007-.145 0-.275.062-.37.157-.266.17-.448.456-.448.795v9.074c-1.83-.043-3.626-.215-5.367-.507v-4.707l2.82-1.032-2.82-1.032v-.336c0-.535-.432-.968-.966-.968s-.966.433-.966.968v6.729c-6.682-1.488-12.337-4.71-15.526-8.747-.178.357-.363.713-.525 1.083l-.003.005c-1.474 3.335-2.23 6.88-2.246 10.556.024 2.97 1.422 5.847 4.036 8.323.28.265.692.34 1.048.186.354-.15.584-.504.584-.89v-4.17c0-.8.65-1.45 1.448-1.45.802 0 1.45.65 1.45 1.45v7.51c0 .362.202.695.524.86 1.533.79 3.21 1.472 4.985 2.023.293.096.613.038.86-.144.247-.184.396-.472.396-.78V53.5c0-.8.648-1.45 1.447-1.45s1.45.65 1.45 1.45v5.673c0 .472.34.874.804.953 1.608.275 3.27.463 4.943.555.27.02.523-.08.717-.262.193-.185.305-.438.305-.702V53.5c0-.8.648-1.45 1.447-1.45s1.448.65 1.448 1.45v6.216c0 .266.11.52.303.702.184.17.42.266.665.266.02 0 .036 0 .056-.003 1.68-.092 3.343-.275 4.942-.554.463-.08.805-.482.805-.953V53.5c0-.8.647-1.45 1.447-1.45s1.45.65 1.45 1.45v4.522c0 .31.146.598.396.778s.567.234.858.143c1.783-.558 3.46-1.238 4.985-2.023.322-.165.522-.498.522-.86v-7.51c0-.8.65-1.45 1.45-1.45.8 0 1.45.65 1.45 1.45v4.172c0 .387.228.736.584.888.352.153.765.08 1.045-.185 2.617-2.475 4.017-5.354 4.042-8.34-.018-3.66-.772-7.207-2.248-10.538.002 0 .002-.002 0-.005z"/></g></svg>