<svg width="99" height="94" viewBox="0 0 99 94" xmlns="http://www.w3.org/2000/svg"><title>sunlightpark-colour</title><g fill="none" fill-rule="evenodd"><path d="M49.367 93.21L.094 48.614V.5H98.64v48.114L49.367 93.21" fill="#FCDB1D"/><g fill="#FEF8E7"><path d="M49.367 21.584c9.073 0 17.377 4.93 21.768 12.74.49-.52.934-1.06 1.32-1.616-.988-1.648-2.14-3.167-3.43-4.545l5.305-5.306c.385-.385.385-1.007 0-1.392-.384-.385-1.007-.385-1.392 0l-5.31 5.31c-2.12-1.956-4.534-3.564-7.16-4.753l2.886-6.962c.207-.503-.032-1.08-.533-1.287-.5-.207-1.078.03-1.286.532l-2.887 6.97c-2.662-.98-5.5-1.535-8.42-1.628v-7.59c0-.544-.44-.983-.985-.983-.544 0-.984.44-.984.984v7.598c-2.912.12-5.74.694-8.388 1.693l-2.92-7.045c-.207-.5-.784-.738-1.285-.532-.5.208-.74.784-.533 1.287l2.922 7.05c-2.6 1.206-4.982 2.828-7.077 4.788l-5.433-5.433c-.384-.385-1.007-.385-1.39 0-.385.385-.385 1.007 0 1.392l5.435 5.437c-1.243 1.345-2.356 2.82-3.313 4.417.388.558.83 1.096 1.32 1.616 4.39-7.812 12.696-12.742 21.77-12.742"/><path d="M74.012 35.676c-.166-.377-.355-.74-.538-1.105-3.263 4.133-9.07 7.43-15.92 8.935v-4.432l2.874-1.05-2.873-1.052v-.34c0-.546-.44-.986-.984-.986-.277 0-.525.117-.704.3-.174.087-.295.262-.295.47v7.473c-1.656.27-3.36.438-5.098.49v-6.783l2.943-1.056-2.943-1.055v-.34c0-.544-.44-.983-.985-.983-.04 0-.073.017-.11.02-.015 0-.026-.006-.04-.006-.148 0-.28.06-.377.16-.27.174-.456.463-.456.81v9.237c-1.864-.04-3.694-.216-5.466-.513v-4.794l2.872-1.05-2.872-1.052v-.34c0-.546-.44-.986-.984-.986s-.984.44-.984.985v6.852c-6.803-1.516-12.565-4.798-15.81-8.908-.183.365-.372.726-.538 1.102v.004c-1.503 3.396-2.272 7.007-2.29 10.75.027 3.022 1.448 5.953 4.112 8.475.285.27.704.345 1.066.19.36-.156.594-.512.594-.905v-4.246c0-.815.662-1.477 1.476-1.477.815 0 1.477.662 1.477 1.477v7.647c0 .37.206.708.533.875 1.56.806 3.27 1.5 5.08 2.064.3.095.624.037.876-.148s.4-.48.4-.793v-4.602c0-.814.663-1.477 1.477-1.477.814 0 1.476.664 1.476 1.478v5.776c0 .48.344.89.818.97 1.637.282 3.33.472 5.033.565.275.014.534-.082.73-.268.198-.187.31-.445.31-.715v-6.33c0-.813.66-1.476 1.475-1.476.814 0 1.476.664 1.476 1.478v6.33c0 .27.113.527.31.714.183.173.425.27.676.27.018 0 .037 0 .054-.003 1.71-.095 3.404-.284 5.034-.566.472-.082.818-.49.818-.97v-5.776c0-.814.662-1.477 1.476-1.477.813 0 1.476.664 1.476 1.478v4.605c0 .313.148.607.4.793.255.185.582.24.88.145 1.814-.567 3.522-1.26 5.076-2.062.328-.168.534-.506.534-.875v-7.65c0-.814.662-1.476 1.476-1.476s1.476.662 1.476 1.477v4.248c0 .394.234.75.595.904.36.157.782.082 1.066-.188 2.666-2.52 4.09-5.452 4.117-8.492-.018-3.73-.788-7.34-2.29-10.732v-.008"/></g></g></svg>