<svg width="99" height="94" viewBox="0 0 99 94" xmlns="http://www.w3.org/2000/svg"><title>sunlightpark-colour</title><g fill="none" fill-rule="evenodd"><path d="M49.367 93.21L.094 48.614V.5H98.64v48.114L49.367 93.21" fill="#FCDB1D"/><g fill="#FEF8E7"><path d="M49.367 21.584c9.073 0 17.377 4.93 21.768 12.74.49-.52.934-1.06 1.32-1.616a26.892 26.892 0 0 0-3.43-4.545l5.305-5.306a.984.984 0 0 0-1.392-1.392l-5.31 5.31a26.97 26.97 0 0 0-7.16-4.753l2.886-6.962a.986.986 0 0 0-.533-1.287.987.987 0 0 0-1.286.532l-2.887 6.97a26.83 26.83 0 0 0-8.42-1.628v-7.59a.983.983 0 0 0-1.97 0v7.6c-2.91.118-5.74.693-8.387 1.692l-2.92-7.045a.987.987 0 0 0-1.285-.532.986.986 0 0 0-.533 1.287l2.922 7.05a26.98 26.98 0 0 0-7.077 4.788l-5.433-5.433a.983.983 0 0 0-1.39 1.392l5.435 5.437a26.853 26.853 0 0 0-3.313 4.417c.388.558.83 1.096 1.32 1.616a24.994 24.994 0 0 1 21.77-12.742"/><path d="M74.012 35.676c-.166-.377-.355-.74-.538-1.105-3.263 4.133-9.07 7.43-15.92 8.935v-4.432l2.874-1.05-2.873-1.052v-.34a.984.984 0 0 0-1.69-.685.522.522 0 0 0-.294.468v7.474c-1.656.27-3.36.438-5.098.49v-6.783l2.943-1.056-2.943-1.055v-.34a.983.983 0 0 0-.985-.983c-.04 0-.073.017-.11.02-.015 0-.026-.006-.04-.006-.148 0-.28.06-.377.16a.966.966 0 0 0-.456.81v9.237a38.35 38.35 0 0 1-5.466-.513v-4.794l2.872-1.05-2.872-1.052v-.34a.984.984 0 0 0-1.968 0v6.852c-6.803-1.516-12.565-4.798-15.81-8.908-.183.365-.372.726-.538 1.102v.004a26.727 26.727 0 0 0-2.29 10.75c.027 3.022 1.448 5.953 4.112 8.475a.985.985 0 0 0 1.66-.715v-4.246c0-.815.662-1.477 1.476-1.477.815 0 1.477.662 1.477 1.477v7.647c0 .37.206.708.533.875 1.56.806 3.27 1.5 5.08 2.064a.983.983 0 0 0 1.277-.94v-4.602c0-.814.662-1.477 1.476-1.477S41 54.175 41 54.99v5.776c0 .48.344.89.818.97 1.637.282 3.33.472 5.033.565a.985.985 0 0 0 1.038-.982v-6.33c0-.814.663-1.477 1.477-1.477.814 0 1.476.664 1.476 1.478v6.33a.987.987 0 0 0 .986.983h.054a43.656 43.656 0 0 0 5.034-.566.986.986 0 0 0 .818-.97v-5.776c0-.814.662-1.477 1.476-1.477.813 0 1.476.664 1.476 1.478v4.605a.98.98 0 0 0 1.28.938 31.977 31.977 0 0 0 5.076-2.062.984.984 0 0 0 .534-.875v-7.65c0-.814.662-1.476 1.476-1.476s1.476.662 1.476 1.477v4.248a.982.982 0 0 0 1.66.716c2.666-2.52 4.09-5.452 4.117-8.492a26.69 26.69 0 0 0-2.29-10.732v-.008"/></g></g></svg>