<svg xmlns="http://www.w3.org/2000/svg" width="125.738" height="116.301"><path fill="#231F20" d="M0 0h125.738l-.035 59.171-63.337 57.13L0 59.446z"/><path d="M30.579 27.539v.288a6.21 6.21 0 0 1-1.809 4.391c-1.262 1.262-2.985 1.952-4.879 1.952h-.228c-2.441-.086-4.565-1.465-5.569-3.617-.114-.228-.143-.487-.143-.717 0-.631.344-1.237.975-1.522.231-.115.459-.142.689-.142.631 0 1.263.343 1.548.974.46 1.007 1.437 1.638 2.613 1.667h.145c1.004 0 1.837-.316 2.439-.918.574-.576.89-1.294.89-2.067v-.115c-.086-1.319-2.583-2.497-3.675-2.813l-.114-.057c-2.957-1.061-4.45-2.926-4.45-5.509v-.23a4.758 4.758 0 0 1 1.953-3.705c1.033-.802 2.442-1.289 3.934-1.289h.257c1.205.027 2.44.516 3.443 1.262.432.345.662.832.662 1.319 0 .345-.115.717-.345 1.005-.344.43-.833.66-1.348.66-.344 0-.689-.084-1.006-.314a2.735 2.735 0 0 0-1.521-.573h-.171c-1.407 0-2.499.717-2.526 1.75v.115c0 1.407 1.091 1.921 2.211 2.38.858.256 5.853 1.865 6.025 5.825zm26.864-11.74c0 .173 0 .316-.058.487L52.363 33.02a1.663 1.663 0 0 1-1.608 1.206c-.717 0-1.376-.489-1.607-1.206l-3.415-11.394-3.416 11.394a1.664 1.664 0 0 1-1.608 1.206c-.717 0-1.378-.489-1.607-1.206L34.08 16.287c-.057-.142-.057-.314-.057-.457 0-.719.458-1.407 1.206-1.638.143-.058.315-.058.458-.058.717 0 1.378.46 1.606 1.207l3.416 11.394 3.415-11.394c.23-.717.892-1.207 1.609-1.207.745 0 1.404.489 1.606 1.207l3.416 11.394 3.416-11.394a1.712 1.712 0 0 1 1.635-1.207c.144 0 .316 0 .46.058.718.231 1.177.89 1.177 1.607zm7.92 10.046v5.024h6.716c.919 0 1.666.746 1.666 1.693 0 .917-.747 1.665-1.666 1.665h-8.38a1.67 1.67 0 0 1-1.666-1.665V15.799c0-.918.748-1.665 1.666-1.665h8.38c.919 0 1.666.746 1.666 1.665 0 .949-.747 1.693-1.666 1.693h-6.716v5.024h6.716a1.666 1.666 0 0 1 0 3.329h-6.716zm16.876 0v5.024h6.717c.918 0 1.665.746 1.665 1.693 0 .917-.747 1.665-1.665 1.665h-8.381a1.668 1.668 0 0 1-1.666-1.665V15.799c0-.918.747-1.665 1.666-1.665h8.381c.918 0 1.665.746 1.665 1.665 0 .949-.747 1.693-1.665 1.693h-6.717v5.024h6.717a1.665 1.665 0 0 1 0 3.329h-6.717zM21.963 60.982c0-.949.745-1.697 1.664-1.697 2.269 0 2.525-2.182 2.525-2.499v-12.58c0-.919.747-1.665 1.666-1.665.946 0 1.693.746 1.693 1.665v12.581c0 .142-.028 1.463-.717 2.845-.976 1.955-2.812 3.016-5.167 3.016a1.666 1.666 0 0 1-1.664-1.666zm26.434 0c0 .919-.746 1.665-1.693 1.665h-9.186a1.674 1.674 0 0 1-1.694-1.665V44.206c0-.919.749-1.665 1.694-1.665h9.186c.947 0 1.693.746 1.693 1.665a1.68 1.68 0 0 1-1.693 1.695h-7.521v5.022h5.855a1.667 1.667 0 0 1 0 3.331h-5.855v5.032h7.521a1.68 1.68 0 0 1 1.693 1.696zm23.676-2.241c-.803-1.752-.832-3.45-.832-3.654V44.206a1.665 1.665 0 0 1 3.329 0v10.881c0 .431.345 4.199 3.79 4.199 3.272 0 3.76-3.537 3.76-4.199V44.206a1.664 1.664 0 0 1 3.327 0v10.881c0 .204 0 1.902-.802 3.654-1.177 2.53-3.416 3.907-6.285 3.907-2.871-.001-5.11-1.377-6.287-3.907zm31.743-2.789v.286a6.21 6.21 0 0 1-1.807 4.4c-1.263 1.264-2.986 1.95-4.879 1.95h-.229c-2.442-.083-4.566-1.462-5.571-3.619-.114-.228-.143-.487-.143-.718 0-.632.345-1.233.977-1.521.229-.115.459-.146.688-.146.632 0 1.263.346 1.549.978.459 1.008 1.436 1.641 2.613 1.669h.144c1.005 0 1.836-.317 2.438-.921.574-.574.889-1.292.889-2.071v-.113c-.085-1.323-2.58-2.502-3.672-2.819l-.115-.058c-2.955-1.062-4.448-2.928-4.448-5.511v-.23c.059-1.463.716-2.784 1.95-3.701 1.034-.804 2.442-1.292 3.933-1.292h.26c1.204.029 2.438.516 3.443 1.264.431.343.66.83.66 1.321 0 .341-.115.717-.345 1.003a1.71 1.71 0 0 1-1.35.659 1.66 1.66 0 0 1-1.003-.316 2.795 2.795 0 0 0-1.521-.573h-.172c-1.407 0-2.498.717-2.527 1.751v.115c0 1.406 1.093 1.923 2.211 2.382.862.257 5.854 1.862 6.027 5.831z" fill="#7EBAB5" stroke="#7EBAB5" stroke-width="1.6" stroke-miterlimit="10"/><path fill="#7EBAB5" stroke="#7EBAB5" stroke-width="4.952" stroke-linecap="round" stroke-miterlimit="10" d="M24.218 60.938c-1.787.169-4.56-.291-4.56-4.314"/><path fill="#7EBAB5" d="M99.603 14.59a.59.59 0 0 1 .588-.587h2.359a.59.59 0 0 1 .587.587v19.291a.59.59 0 0 1-.587.587h-2.359a.59.59 0 0 1-.588-.587V14.59z"/><path fill="none" stroke="#7EBAB5" stroke-width="1.276" stroke-miterlimit="10" d="M99.603 14.59a.59.59 0 0 1 .588-.587h2.359a.59.59 0 0 1 .587.587v19.291a.59.59 0 0 1-.587.587h-2.359a.59.59 0 0 1-.588-.587V14.59z"/><path fill="#7EBAB5" d="M95.541 29.351a.59.59 0 0 1-.587-.587V26.24a.59.59 0 0 1 .587-.587h11.66a.59.59 0 0 1 .587.587v2.524a.59.59 0 0 1-.587.587h-11.66z"/><path fill="none" stroke="#7EBAB5" stroke-width="1.276" stroke-miterlimit="10" d="M95.541 29.351a.59.59 0 0 1-.587-.587V26.24a.59.59 0 0 1 .587-.587h11.66a.59.59 0 0 1 .587.587v2.524a.59.59 0 0 1-.587.587h-11.66z"/><path fill="#7EBAB5" d="M64.097 43.125c.144-.307.068-.359-.167-.116L53.393 53.881c-.236.244-.152.443.188.443h3.932c.339 0 .509.256.377.568l-3.021 7.185c-.132.312-.045.37.192.127l10.268-10.51c.236-.243.153-.441-.187-.441H60.91c-.339 0-.499-.251-.355-.559l3.542-7.569z"/><path fill="none" stroke="#7EBAB5" stroke-width="1.6" stroke-miterlimit="10" d="M64.097 43.125c.144-.307.068-.359-.167-.116L53.393 53.881c-.236.244-.152.443.188.443h3.932c.339 0 .509.256.377.568l-3.021 7.185c-.132.312-.045.37.192.127l10.268-10.51c.236-.243.153-.441-.187-.441H60.91c-.339 0-.499-.251-.355-.559l3.542-7.569z"/><path fill="#7EBAB5" stroke="#7EBAB5" stroke-width="4.952" stroke-linecap="round" stroke-miterlimit="10" d="M27.442 44.206h-4.087"/></svg>