<svg xmlns="http://www.w3.org/2000/svg" width="125.738" height="116.301" viewBox="0 0 125.738 116.301"><path fill="#231F20" d="M0 0h125.738l-.035 59.17-63.337 57.13L0 59.447z"/><g fill="#7EBAB5" stroke="#7EBAB5" stroke-width="1.6" stroke-miterlimit="10"><path d="M30.58 27.54v.287a6.21 6.21 0 0 1-1.81 4.39c-1.262 1.263-2.985 1.953-4.88 1.953h-.227c-2.44-.086-4.565-1.465-5.57-3.617-.113-.228-.142-.487-.142-.717 0-.63.345-1.237.976-1.522.23-.115.46-.142.69-.142.63 0 1.262.343 1.547.974.46 1.007 1.437 1.638 2.613 1.667h.145c1.005 0 1.838-.316 2.44-.918.574-.576.89-1.294.89-2.067v-.115c-.086-1.32-2.583-2.497-3.675-2.813l-.114-.057c-2.956-1.06-4.45-2.926-4.45-5.51v-.23a4.758 4.758 0 0 1 1.954-3.704c1.033-.803 2.442-1.29 3.934-1.29h.257c1.205.027 2.44.516 3.443 1.262.432.345.662.832.662 1.32 0 .344-.115.716-.345 1.004-.344.43-.833.66-1.348.66-.344 0-.69-.084-1.006-.314a2.735 2.735 0 0 0-1.52-.573h-.17c-1.408 0-2.5.716-2.527 1.75v.114c0 1.407 1.09 1.92 2.21 2.38.86.256 5.854 1.865 6.026 5.825zM57.443 15.8c0 .172 0 .315-.058.486L52.363 33.02a1.663 1.663 0 0 1-1.608 1.206c-.717 0-1.376-.49-1.607-1.206l-3.415-11.394-3.416 11.394a1.664 1.664 0 0 1-1.608 1.206c-.718 0-1.38-.49-1.608-1.206L34.08 16.287c-.057-.142-.057-.314-.057-.457 0-.72.458-1.407 1.206-1.638.142-.058.314-.058.457-.058.717 0 1.378.46 1.606 1.207l3.416 11.395 3.414-11.394c.23-.716.892-1.206 1.61-1.206.744 0 1.403.49 1.605 1.207l3.415 11.395L54.17 15.34a1.712 1.712 0 0 1 1.636-1.206c.144 0 .316 0 .46.058a1.69 1.69 0 0 1 1.177 1.607zM65.363 25.845v5.024h6.716c.918 0 1.665.745 1.665 1.692 0 .917-.747 1.665-1.666 1.665H63.7a1.67 1.67 0 0 1-1.667-1.665V15.8c0-.92.748-1.666 1.666-1.666h8.38c.918 0 1.665.746 1.665 1.665 0 .948-.747 1.692-1.666 1.692h-6.717v5.024h6.716a1.666 1.666 0 0 1 0 3.33h-6.717zM82.24 25.845v5.024h6.716c.918 0 1.665.745 1.665 1.692 0 .917-.746 1.665-1.664 1.665h-8.38c-.92 0-1.667-.748-1.667-1.665V15.8c0-.92.746-1.666 1.665-1.666h8.38c.92 0 1.666.746 1.666 1.665a1.67 1.67 0 0 1-1.664 1.692H82.24v5.024h6.716a1.665 1.665 0 0 1 0 3.33H82.24z"/></g><g fill="#7EBAB5" stroke="#7EBAB5" stroke-width="1.6" stroke-miterlimit="10"><path d="M21.963 60.982c0-.95.745-1.697 1.664-1.697 2.27 0 2.525-2.182 2.525-2.5v-12.58c0-.918.747-1.664 1.666-1.664.946 0 1.693.747 1.693 1.666v12.58c0 .143-.027 1.464-.716 2.846-.976 1.955-2.812 3.016-5.167 3.016-.92 0-1.664-.747-1.664-1.666zM48.397 60.982c0 .92-.746 1.665-1.693 1.665h-9.186a1.674 1.674 0 0 1-1.694-1.665V44.206c0-.92.75-1.665 1.694-1.665h9.186c.947 0 1.693.747 1.693 1.666a1.68 1.68 0 0 1-1.693 1.695h-7.52v5.023h5.854a1.667 1.667 0 0 1 0 3.33h-5.855v5.033h7.52a1.68 1.68 0 0 1 1.694 1.696zM72.073 58.74c-.803-1.75-.832-3.45-.832-3.653v-10.88a1.665 1.665 0 0 1 3.33 0v10.88c0 .432.345 4.2 3.79 4.2 3.272 0 3.76-3.537 3.76-4.2v-10.88a1.664 1.664 0 0 1 3.327 0v10.882c0 .204 0 1.902-.802 3.654-1.177 2.53-3.416 3.908-6.285 3.908-2.87 0-5.11-1.377-6.287-3.907zM103.816 55.952v.286a6.21 6.21 0 0 1-1.807 4.4c-1.264 1.264-2.987 1.95-4.88 1.95h-.23c-2.44-.083-4.565-1.462-5.57-3.62-.114-.227-.143-.486-.143-.717 0-.63.345-1.232.977-1.52.23-.115.46-.146.688-.146.632 0 1.263.346 1.55.978.458 1.008 1.435 1.64 2.612 1.67h.144c1.005 0 1.836-.318 2.438-.922.574-.574.89-1.292.89-2.07v-.114c-.086-1.323-2.58-2.502-3.673-2.82l-.115-.057c-2.955-1.063-4.448-2.93-4.448-5.512v-.23c.06-1.463.716-2.784 1.95-3.7 1.034-.805 2.442-1.293 3.933-1.293h.26c1.204.03 2.438.516 3.443 1.264.43.342.66.83.66 1.32 0 .34-.115.717-.345 1.003a1.71 1.71 0 0 1-1.35.66 1.66 1.66 0 0 1-1.002-.317 2.795 2.795 0 0 0-1.52-.573h-.173c-1.407 0-2.498.717-2.527 1.75v.116c0 1.405 1.093 1.922 2.21 2.38.863.258 5.855 1.863 6.028 5.832z"/></g><path fill="#7EBAB5" stroke="#7EBAB5" stroke-width="4.952" stroke-linecap="round" stroke-miterlimit="10" d="M24.218 60.938c-1.787.17-4.56-.29-4.56-4.314"/><path fill="#7EBAB5" d="M99.603 14.59a.59.59 0 0 1 .588-.587h2.36a.59.59 0 0 1 .587.587v19.29a.59.59 0 0 1-.587.588h-2.36a.59.59 0 0 1-.587-.587V14.59z"/><path fill="none" stroke="#7EBAB5" stroke-width="1.276" stroke-miterlimit="10" d="M99.603 14.59a.59.59 0 0 1 .588-.587h2.36a.59.59 0 0 1 .587.587v19.29a.59.59 0 0 1-.587.588h-2.36a.59.59 0 0 1-.587-.587V14.59z"/><path fill="#7EBAB5" d="M95.54 29.35a.59.59 0 0 1-.586-.586V26.24a.59.59 0 0 1 .587-.587h11.66a.59.59 0 0 1 .588.587v2.524a.59.59 0 0 1-.587.587H95.54z"/><path fill="none" stroke="#7EBAB5" stroke-width="1.276" stroke-miterlimit="10" d="M95.54 29.35a.59.59 0 0 1-.586-.586V26.24a.59.59 0 0 1 .587-.587h11.66a.59.59 0 0 1 .588.587v2.524a.59.59 0 0 1-.587.587H95.54z"/><g><path fill="#7EBAB5" d="M64.097 43.125c.144-.307.068-.36-.167-.116L53.393 53.88c-.236.245-.152.444.188.444h3.933c.34 0 .51.256.377.568l-3.02 7.185c-.133.312-.046.37.19.127l10.27-10.51c.235-.243.152-.44-.188-.44H60.91c-.34 0-.5-.252-.355-.56l3.542-7.57z"/><path fill="none" stroke="#7EBAB5" stroke-width="1.6" stroke-miterlimit="10" d="M64.097 43.125c.144-.307.068-.36-.167-.116L53.393 53.88c-.236.245-.152.444.188.444h3.933c.34 0 .51.256.377.568l-3.02 7.185c-.133.312-.046.37.19.127l10.27-10.51c.235-.243.152-.44-.188-.44H60.91c-.34 0-.5-.252-.355-.56l3.542-7.57z"/></g><path fill="#7EBAB5" stroke="#7EBAB5" stroke-width="4.952" stroke-linecap="round" stroke-miterlimit="10" d="M27.442 44.206h-4.087"/></svg>