<?xml version="1.0" encoding="utf-8"?>
<!-- Generator: Adobe Illustrator 24.0.1, SVG Export Plug-In . SVG Version: 6.00 Build 0)  -->
<svg version="1.1" id="Layer_1" xmlns="http://www.w3.org/2000/svg" xmlns:xlink="http://www.w3.org/1999/xlink" x="0px" y="0px"
	 viewBox="0 0 144 47.2" style="enable-background:new 0 0 144 47.2;" xml:space="preserve">
<style type="text/css">
	.st0{fill:#FFFFFF;}
</style>
<path class="st0" d="M54.5,45.1c0-1-0.6-1.7-1.5-1.9c0.8-0.2,1.3-0.9,1.3-1.5c0-1.3-0.9-2.1-2.4-2.2c-0.1,0-0.1,0-0.2,0h-3v5.1v2.5
	h3.2C53.5,47.1,54.5,46.4,54.5,45.1 M50.9,42v-0.5h0.2h0.3c0.2,0,0.4,0.2,0.4,0.5s-0.2,0.5-0.5,0.5h-0.5C50.9,42.6,50.9,42,50.9,42z
	 M50.9,45.2v-1.1h0.6c0.3,0,0.6,0.2,0.6,0.6c0,0.3-0.2,0.6-0.5,0.6C51.6,45.2,50.9,45.2,50.9,45.2z M59.7,44.5h0.2l1,2.7h2.6
	L62,44.4l-0.2-0.3c0.8-0.4,1.2-1.1,1.2-2.1c0-1.5-1.1-2.5-3-2.5h-2.7v7.6h2.3V44.5z M59.7,41.6h0.4c0.4,0,0.6,0.3,0.6,0.7
	S60.4,43,60.1,43h-0.4V41.6z M71.2,47.1h-4.9v-7.6h4.9v2h-2.5v0.8h2.2v1.8h-2.2v0.9h2.6L71.2,47.1L71.2,47.1z M75.7,47.1l-1.6-7.6
	h2.5l0.6,3.3l0.1,0.3l0.1-0.3l1-3.3H80l1,3.3l0.1,0.3l0.1-0.3l0.6-3.3h2.5l-1.6,7.6h-2.2l-1.2-3.8l-0.1-0.3l-0.1,0.3l-1.2,3.8
	C77.9,47.1,75.7,47.1,75.7,47.1z M89.3,41.6v0.8h2.2v1.8h-2.2v0.9h2.6v2H87v-7.6h4.9v2H89.3z M100.9,42c0-1.5-1.1-2.5-3-2.5h-2.7
	v7.6h2.3v-2.6h0.2l1,2.6h2.6l-1.4-2.7l-0.2-0.3C100.4,43.7,100.9,43,100.9,42 M97.9,43h-0.4v-1.5h0.4c0.4,0,0.6,0.3,0.6,0.7
	S98.2,43,97.9,43 M105.3,47.1V44l-2.4-4.5h2.6l0.9,2l0.1,0.3l0.1-0.3l0.9-2h2.6l-2.4,4.5v3.1L105.3,47.1L105.3,47.1z M115.8,7.6
	c-0.4,0.8-1.1,1.5-1.8,2.1c-2.8,2.3-7.1,2.6-10.6,2.4c-3.7-0.2-7.3-1.3-10.7-2.6c-0.2-0.1-4.7-1.9-4.7-1.9l-3.5,8.9h5
	c0.3,0,0.5,0.3,0.4,0.6l-1.6,4.1c-0.1,0.1-0.2,0.2-0.4,0.2h-5.4L77.2,35c-0.1,0.3-0.4,0.5-0.8,0.5H72c-0.3,0-0.5-0.3-0.4-0.6
	L83.2,5.8c-4.8-2.2-7.3-1.2-7.9,0.6c-0.3,1.2,0.2,2.3,0.9,2.8c0.3,0.2,0.4,0.6,0.3,1l-1,2.5c-0.2,0.4-0.7,0.6-1.1,0.5
	c-1.6-0.7-3.2-2.2-3.7-3.9C70,7.1,70.5,4.7,71.9,3c1.5-1.9,3.9-2.8,6.2-2.9c2.8-0.2,5.5,0.6,8.1,1.7c1.6,0.6,3.1,1.3,4.7,2
	c4.9,2,9.9,3.9,15.2,4.5c2.4,0.3,5.1,0.5,7.4-0.5c0.5-0.2,0.9-0.5,1.3-0.8c0.3-0.2,0.7-0.6,1.1-0.4C116.3,6.7,116,7.2,115.8,7.6
	 M93,15.6c0-1.5,1.2-2.8,2.8-2.8s2.8,1.2,2.8,2.8s-1.2,2.8-2.8,2.8S93,17.1,93,15.6 M34.1,38.2c0.4-0.7,0.8-1.9-0.5-1.6
	c-2.2,0.6-4.7,1-8.6-0.1c-3.9-1.1-7.8-6.4-7.8-6.4l2.8-6.5c3.5,0.4,6.5-0.6,9.6-3.1c3.1-2.7,5.5-7.1,5.2-11.3
	c-0.2-3.5-2.3-6.7-6.1-6.7C22.3,2.3,20.2,9,18.3,13.7c-0.6,1.5-1.3,3-1.9,4.5c0,0-2.6-1.3-2.8-4.8c-0.1-5,4.7-7,2.1-6.7
	c-2.6,0.2-6,2.6-5.9,7.7s5.1,7.6,5.1,7.6l-1.9,4.6c-2.6-1.1-5.9-1.7-8.6-0.4C2,27.4,0.3,29.6,0,32.1c-0.4,3.8,3.1,6.9,6.8,7.1
	c4.1,0.1,6.8-2.4,8-4.1c0.2-0.2,0.5-0.2,0.7,0c1,1.4,3.9,5.1,7.9,6.5C27.2,42.9,32,41.9,34.1,38.2 M21.9,18.9c0.3-0.8,0.6-1.5,1-2.2
	c0.4-0.9,0.8-1.8,1.2-2.7c0.3-0.8,0.7-1.6,1-2.3c0.6-1.3,1.2-2.8,2.5-3.6c0.5-0.3,1.1-0.4,1.6,0c0.9,0.6,0.8,1.9,0.6,2.8
	c-0.2,1.6-0.8,3.2-1.7,4.5c-0.8,1.3-1.9,2.5-3.2,3.3c-0.5,0.3-1,0.6-1.5,0.8c-0.6,0.2-1.2,0.4-1.9,0.4L21.9,18.9z M8.5,33.6
	c-0.8,0.3-1.8,0.5-2.6,0.1c-0.8-0.4-0.8-1.2-0.4-1.9c0.3-0.6,0.9-1,1.6-1.1C9.2,30,11,31.1,11,31.1S10,32.9,8.5,33.6 M34.2,46
	c-0.2,0.5,0.2,1.1,0.8,1.1h3.8c0.3,0,0.6-0.2,0.8-0.5l5.2-13c0.1-0.2,0.3-0.2,0.4-0.1c0.6,0.6,2.2,2,4.9,2c3.3,0,5.3-1.8,6.5-3
	c0.1-0.1,0.3-0.1,0.4,0c0.5,0.8,2.3,3,6,3c1.3,0,2.7-0.3,3.8-1.2c1.2-1,1.7-2.7,1.6-4.2c0-0.3-0.1-0.6-0.4-0.7
	c-0.3-0.1-0.7,0.1-0.8,0.4c-0.7,1.5-2.5,2.5-4,1.4c-0.9-0.7-1.3-2.2-0.9-3.3l2.8-6.8l6.4,0c0.2,0,0.3-0.1,0.4-0.3l1.5-3.8
	c0.1-0.3-0.1-0.6-0.4-0.6h-6l1.7-4.3c0.2-0.5-0.2-1.1-0.8-1.1H64c-0.3,0-0.6,0.2-0.8,0.5l-5.5,13.9c-1.1,2.9-4.1,5.5-7,5.5
	S48,28.4,48,28.4c6.3-1.9,11.1-10,11.5-17c0.2-2.3-0.5-4.8-2.6-5.9c-2-1.1-4.4-0.6-6,1c-2.1,2.2-3.1,5.4-4.3,8.3L42,26.4
	c-1.8,4.6-7.1,5.9-9,5.5c-1.9-0.4-0.8-3.2-0.8-3.2s3.8,0.1,6.5-2s4.2-5.8,1.6-8.1c-2.6-2.3-7.4-0.8-10.9,4.4s-2.7,9.8-0.2,11.5
	c2.3,1.6,6.1,1.5,9.3-0.6c0.2-0.1,0.5,0.1,0.4,0.3L34.2,46z M54.1,10.1c0.6-1.5,3.1,1.9,0.2,8c-2.5,4.8-6,7.1-6,7.1
	S53.3,12.1,54.1,10.1 M34.5,24.4c0.6-0.8,1.2-1.6,2-2.2c0.3-0.3,0.8-0.5,1.2-0.6c0.9-0.2-0.1,1.6-0.3,1.9c-0.7,1-2,1.8-3.2,2.2
	c-0.1,0-0.5,0.1-0.6,0.1C33.9,25.2,34.2,24.8,34.5,24.4 M122.4,34c1.5,1.6,4,2.2,6.1,1.6c1.2-0.3,2.2-1.1,3.1-1.9
	c0.1-0.1,0.3-0.1,0.4,0c1,1,2.5,1.9,4.6,1.9c1.3,0,2.8-0.3,3.8-1.2c1.2-1,1.7-2.7,1.6-4.3c0-0.3-0.1-0.6-0.4-0.7
	c-0.3-0.1-0.6,0.1-0.8,0.4c-0.4,0.8-0.9,1.5-1.7,1.8c-0.9,0.3-2,0-2.7-0.6c-0.7-0.7-0.9-2-0.5-2.9l8-20.2c0.2-0.5-0.2-1.1-0.8-1.1
	h-3.8c-0.3,0-0.6,0.2-0.8,0.5l-5.1,12.6c-0.5-0.6-1.1-1.1-1.8-1.4c-3.4-1.5-7.9,1.2-10,5.9c-0.6,1.3-1,2.8-1.1,4.3
	c0,0.6,0,1.3,0.1,2c0,0.1,0,0.2-0.1,0.3c-1.1,0.9-2.6,0.7-3.2,0.1c-0.6-0.7-0.7-2,0-3.8l7.7-19.2c0.2-0.5-0.2-1.1-0.8-1.1h-3.8
	c-0.3,0-0.6,0.2-0.8,0.5l-7.7,19.2c-1.8,4.6-7.1,5.9-8.9,5.5c-1.8-0.4-0.8-3.2-0.8-3.2s3.8,0.1,6.5-2s4.2-5.8,1.6-8.1
	c-2.6-2.3-7.4-0.8-10.9,4.4c-2.1,3-2.6,5.9-2.2,8.1c0,0.1,0,0.2-0.1,0.3c-0.9,0.8-2.2,1.5-3.2,1.1c-1.7-0.6-0.9-2.5-0.4-3.7
	c0,0,2.4-6.1,3.2-8c0.1-0.3-0.1-0.6-0.4-0.6H92c-0.3,0-0.6,0.2-0.8,0.5c-0.6,1.4-2.1,5.2-2.8,7c-0.6,1.5-0.9,3.3-0.4,4.9
	c0.5,1.8,2.2,2.8,3.9,3c1.6,0.1,3.9-0.3,5.9-2.2c0.1-0.1,0.3-0.1,0.4,0c0.3,0.5,0.7,0.8,1.1,1.1c2.5,1.7,6.9,1.9,12.1-3.1
	c0.1-0.1,0.3-0.1,0.4,0.1c0.6,1.5,1.8,4.1,5.1,4.1c2.4,0,4-1.3,4.7-2.1c0.1-0.1,0.3-0.1,0.4,0L122.4,34z M104.6,24.4
	c0.6-0.8,1.2-1.6,2-2.2c0.3-0.3,0.8-0.5,1.2-0.6c0.2,0,0.4,0.1,0.4,0.3c0,0.7-0.6,1.4-0.9,1.9c-0.8,1-1.9,1.5-3,1.9
	c-0.1,0-0.1,0-0.2,0.1c0,0-0.2,0-0.2,0C104,25.3,104.2,24.8,104.6,24.4 M131.7,24.4c-0.5,1.4-1.8,4.6-2.4,5.7
	c-0.1,0.2-0.2,0.4-0.3,0.5c-0.6,0.8-1.5,1.5-2.5,1c-1.3-0.6-1.5-3.3-0.2-5.9s3.3-4.2,4.7-3.6c0.2,0.1,0.5,0.3,0.6,0.5
	C131.9,23.2,132,23.9,131.7,24.4"/>
</svg>
