<?xml version="1.0" encoding="utf-8"?>
<!-- Generator: Adobe Illustrator 24.0.0, SVG Export Plug-In . SVG Version: 6.00 Build 0)  -->
<svg version="1.1" id="Layer_1" xmlns="http://www.w3.org/2000/svg" xmlns:xlink="http://www.w3.org/1999/xlink" x="0px" y="0px"
	 viewBox="0 0 144 47.17" style="enable-background:new 0 0 144 47.17;" xml:space="preserve">
<style type="text/css">
	.st0{fill:#0D223F;}
</style>
<path class="st0" d="M54.45,45.12c0-1.01-0.58-1.7-1.54-1.86c0.79-0.2,1.27-0.9,1.27-1.55c0-1.31-0.88-2.1-2.37-2.17
	c-0.07,0-0.14-0.01-0.21-0.01h-3.04v5.11v2.47h3.23C53.46,47.12,54.45,46.38,54.45,45.12 M50.87,41.95v-0.46h0.24h0.31
	c0.24,0,0.43,0.21,0.43,0.54c0,0.33-0.21,0.55-0.5,0.55h-0.48V41.95z M50.87,45.21v-1.14h0.6c0.31,0,0.61,0.23,0.61,0.58
	c0,0.35-0.24,0.56-0.51,0.56H50.87z M59.73,44.47h0.16l1.02,2.65h2.57l-1.43-2.74l-0.2-0.26c0.79-0.39,1.24-1.12,1.24-2.11
	c0-1.55-1.11-2.47-3-2.47h-2.68v7.58h2.32V44.47z M59.67,41.57h0.39c0.39,0,0.61,0.27,0.61,0.73c0,0.46-0.23,0.74-0.61,0.74h-0.39
	V41.57z M71.24,47.12h-4.9v-7.58h4.86v2.03h-2.54v0.84h2.2v1.81h-2.2v0.88h2.57V47.12z M75.68,47.12l-1.61-7.58h2.5l0.59,3.26
	l0.06,0.27l0.06-0.27l1-3.26h1.7l1,3.26l0.06,0.27l0.06-0.27l0.59-3.26h2.5l-1.61,7.58h-2.22l-1.17-3.78l-0.06-0.27l-0.06,0.27
	l-1.17,3.78H75.68z M89.29,41.57v0.84h2.2v1.81h-2.2v0.88h2.57v2.02h-4.9v-7.58h4.86v2.03H89.29z M100.9,42.01
	c0-1.55-1.11-2.47-3-2.47h-2.67v7.58h2.32v-2.64h0.16l1.02,2.64h2.57l-1.43-2.74l-0.2-0.26C100.45,43.72,100.9,42.99,100.9,42.01
	 M97.87,43.04h-0.39v-1.47h0.39c0.39,0,0.61,0.27,0.61,0.73C98.48,42.76,98.25,43.04,97.87,43.04 M105.28,47.12V44l-2.4-4.46h2.62
	l0.9,1.97l0.06,0.27l0.06-0.27l0.88-1.97h2.63l-2.41,4.49v3.08H105.28z M115.83,7.58c-0.45,0.82-1.08,1.52-1.79,2.12
	c-2.81,2.33-7.08,2.61-10.58,2.37c-3.66-0.25-7.28-1.28-10.68-2.55c-0.25-0.09-4.65-1.94-4.65-1.94l-3.52,8.88h5.02
	c0.3,0,0.49,0.3,0.38,0.57l-1.61,4.06c-0.06,0.15-0.21,0.25-0.38,0.25h-5.36l-5.44,13.69c-0.12,0.31-0.43,0.52-0.77,0.52h-4.46
	c-0.29,0-0.49-0.29-0.38-0.56L83.22,5.76c-4.8-2.15-7.35-1.18-7.87,0.57c-0.31,1.23,0.16,2.28,0.88,2.8
	c0.3,0.22,0.41,0.62,0.27,0.96l-1,2.52c-0.17,0.43-0.66,0.64-1.09,0.46c-1.59-0.68-3.15-2.17-3.7-3.86
	c-0.68-2.07-0.18-4.53,1.16-6.24c1.48-1.87,3.88-2.77,6.2-2.94c2.78-0.2,5.53,0.65,8.07,1.69c1.56,0.64,3.12,1.3,4.67,1.95
	c4.88,2.03,9.87,3.91,15.16,4.47c2.43,0.26,5.11,0.51,7.41-0.5c0.54-0.24,0.95-0.5,1.34-0.78c0.27-0.19,0.67-0.64,1.1-0.38
	C116.27,6.73,116.02,7.24,115.83,7.58 M93.01,15.58c0-1.53,1.24-2.77,2.77-2.77c1.53,0,2.77,1.24,2.77,2.77
	c0,1.53-1.24,2.77-2.77,2.77C94.25,18.35,93.01,17.11,93.01,15.58 M34.11,38.19c0.4-0.71,0.85-1.94-0.47-1.58
	c-2.23,0.6-4.73,0.97-8.6-0.1c-3.87-1.08-7.83-6.42-7.83-6.42l2.77-6.52c3.55,0.41,6.52-0.6,9.57-3.08
	C32.64,17.75,35,13.4,34.74,9.2c-0.21-3.49-2.33-6.66-6.09-6.73c-6.32-0.12-8.42,6.55-10.4,11.27c-0.63,1.5-1.26,3.01-1.89,4.51
	c0,0-2.6-1.32-2.78-4.83c-0.11-5.04,4.66-6.97,2.08-6.71c-2.58,0.25-6,2.59-5.91,7.74c0.09,5.15,5.05,7.61,5.05,7.61l-1.94,4.64
	c-2.65-1.15-5.93-1.7-8.63-0.39c-2.24,1.08-3.9,3.3-4.2,5.78c-0.45,3.77,3.12,6.92,6.82,7.14c4.05,0.08,6.81-2.44,7.99-4.06
	c0.17-0.23,0.51-0.23,0.67,0.01c0.96,1.4,3.85,5.13,7.91,6.47C27.22,42.89,32.03,41.86,34.11,38.19 M21.89,18.88
	c0.32-0.75,0.64-1.5,0.96-2.25c0.39-0.91,0.77-1.81,1.16-2.72c0.33-0.78,0.66-1.55,0.99-2.33c0.56-1.31,1.25-2.82,2.53-3.59
	c0.51-0.31,1.11-0.38,1.63-0.03c0.87,0.58,0.77,1.92,0.62,2.81c-0.25,1.59-0.84,3.17-1.68,4.54c-0.8,1.31-1.87,2.52-3.18,3.35
	c-0.48,0.31-1,0.56-1.55,0.75c-0.61,0.21-1.25,0.35-1.89,0.41L21.89,18.88z M8.46,33.57c-0.75,0.34-1.8,0.51-2.59,0.11
	c-0.76-0.38-0.77-1.2-0.39-1.89c0.33-0.59,0.94-0.95,1.57-1.13C9.21,30.02,11,31.14,11,31.14S10.04,32.86,8.46,33.57 M34.23,46.04
	c-0.21,0.54,0.18,1.13,0.77,1.13h3.84c0.34,0,0.64-0.21,0.77-0.52l5.19-13.03c0.07-0.17,0.29-0.21,0.41-0.07
	c0.59,0.64,2.18,2.04,4.88,2.04c3.29,0,5.35-1.82,6.51-3.04c0.11-0.11,0.3-0.1,0.38,0.03c0.52,0.78,2.34,3.01,5.97,3.01
	c1.33,0,2.75-0.34,3.8-1.22c1.22-1.03,1.73-2.69,1.64-4.24c-0.02-0.3-0.06-0.56-0.36-0.7c-0.3-0.15-0.66,0.09-0.8,0.4
	c-0.71,1.52-2.48,2.52-4,1.37c-0.92-0.7-1.31-2.19-0.88-3.27l2.76-6.83l6.38,0.05c0.17,0,0.32-0.1,0.39-0.26l1.47-3.75
	c0.11-0.27-0.09-0.56-0.38-0.56h-6.03l1.7-4.27c0.21-0.54-0.18-1.13-0.77-1.13h-3.86c-0.34,0-0.64,0.21-0.77,0.52L57.7,25.64
	c-1.14,2.92-4.09,5.55-6.98,5.55c-2.89,0-2.77-2.81-2.77-2.81c6.32-1.86,11.07-10.03,11.55-16.97c0.16-2.26-0.45-4.76-2.6-5.9
	c-2.03-1.08-4.41-0.63-5.99,0.98c-2.08,2.18-3.11,5.39-4.27,8.29l-4.6,11.61c-1.83,4.65-7.09,5.93-8.95,5.5
	c-1.85-0.43-0.8-3.17-0.8-3.17s3.83,0.09,6.5-2.04c2.67-2.13,4.19-5.84,1.63-8.13c-2.56-2.3-7.41-0.78-10.93,4.35
	c-3.52,5.13-2.69,9.83-0.18,11.54c2.33,1.59,6.11,1.53,9.26-0.58c0.2-0.13,0.46,0.07,0.37,0.3L34.23,46.04z M54.06,10.1
	c0.63-1.52,3.14,1.91,0.17,7.96c-2.52,4.84-6.05,7.07-6.05,7.07S53.26,12.09,54.06,10.1 M34.53,24.35c0.56-0.82,1.19-1.63,1.98-2.24
	c0.35-0.27,0.76-0.53,1.2-0.62c0.91-0.18-0.1,1.59-0.3,1.87c-0.74,1.02-1.98,1.81-3.17,2.19c-0.08,0.03-0.52,0.09-0.56,0.15
	C33.94,25.24,34.23,24.79,34.53,24.35 M122.38,34c1.49,1.63,4.04,2.19,6.13,1.59c1.17-0.33,2.19-1.07,3.07-1.92
	c0.12-0.12,0.31-0.11,0.43,0.01c0.97,0.98,2.46,1.93,4.59,1.93c1.33,0,2.75-0.34,3.8-1.22c1.22-1.03,1.73-2.71,1.63-4.27
	c-0.02-0.3-0.09-0.57-0.38-0.72c-0.32-0.13-0.61,0.13-0.77,0.44c-0.35,0.75-0.89,1.51-1.72,1.75c-0.9,0.26-1.99,0.01-2.67-0.63
	c-0.71-0.66-0.85-1.99-0.54-2.91l8-20.25c0.21-0.54-0.18-1.13-0.77-1.13h-3.8c-0.34,0-0.64,0.2-0.76,0.52l-5.08,12.57
	c-0.5-0.6-1.12-1.08-1.84-1.4c-3.38-1.52-7.89,1.2-9.98,5.85c-0.6,1.34-0.98,2.79-1.05,4.26c-0.03,0.64,0,1.3,0.1,1.95
	c0.02,0.11-0.03,0.22-0.11,0.29c-1.06,0.88-2.63,0.7-3.19,0.07c-0.58-0.66-0.68-2.03-0.02-3.77l7.66-19.23
	c0.21-0.54-0.18-1.13-0.77-1.13h-3.81c-0.34,0-0.64,0.21-0.77,0.52l-7.68,19.24c-1.83,4.65-7.09,5.93-8.94,5.5
	c-1.85-0.43-0.8-3.17-0.8-3.17s3.83,0.09,6.5-2.04c2.67-2.13,4.19-5.83,1.63-8.13c-2.56-2.3-7.41-0.78-10.93,4.35
	c-2.08,3.03-2.64,5.91-2.23,8.11c0.02,0.1-0.01,0.21-0.09,0.28c-0.9,0.82-2.15,1.51-3.16,1.13c-1.65-0.61-0.91-2.54-0.43-3.74
	c0-0.01,2.44-6.11,3.2-8.02c0.11-0.27-0.09-0.56-0.38-0.56h-4.47c-0.34,0-0.64,0.2-0.76,0.51c-0.56,1.39-2.09,5.24-2.76,7
	c-0.58,1.52-0.87,3.32-0.45,4.92c0.46,1.75,2.23,2.83,3.95,2.96c1.64,0.12,3.9-0.3,5.93-2.23c0.11-0.1,0.28-0.09,0.37,0.04
	c0.32,0.46,0.7,0.84,1.12,1.13c2.46,1.67,6.93,1.92,12.06-3.11c0.13-0.13,0.34-0.08,0.4,0.09c0.55,1.54,1.8,4.11,5.06,4.11
	c2.45,0,3.99-1.33,4.67-2.14c0.11-0.13,0.29-0.13,0.41,0.02L122.38,34z M104.55,24.37c0.56-0.82,1.19-1.63,1.98-2.24
	c0.35-0.27,0.76-0.53,1.2-0.62c0.22-0.04,0.39,0.07,0.38,0.31c-0.04,0.66-0.55,1.41-0.95,1.91c-0.78,0.96-1.87,1.54-3.04,1.89
	c-0.07,0.02-0.14,0.04-0.21,0.06c-0.03,0.01-0.19,0.03-0.2,0.05C103.96,25.26,104.25,24.81,104.55,24.37 M131.73,24.43
	c-0.53,1.37-1.82,4.63-2.36,5.71c-0.09,0.18-0.2,0.37-0.32,0.54c-0.58,0.84-1.46,1.46-2.53,0.96c-1.35-0.63-1.46-3.27-0.24-5.89
	c1.22-2.62,3.31-4.24,4.66-3.61c0.25,0.12,0.46,0.3,0.62,0.54C131.91,23.19,131.96,23.85,131.73,24.43"/>
</svg>
