<?xml version="1.0" encoding="utf-8"?>
<!-- Generator: Adobe Illustrator 21.1.0, SVG Export Plug-In . SVG Version: 6.00 Build 0)  -->
<svg version="1.1" id="Layer_1" xmlns:sketch="http://www.bohemiancoding.com/sketch/ns"
	 xmlns="http://www.w3.org/2000/svg" xmlns:xlink="http://www.w3.org/1999/xlink" x="0px" y="0px" width="113px" height="106px"
	 viewBox="0 0 113 106" style="enable-background:new 0 0 113 106;" xml:space="preserve">
<style type="text/css">
	.st0{clip-path:url(#SVGID_2_);fill:#A61B19;}
	.st1{clip-path:url(#SVGID_2_);fill:#FFC709;}
	.st2{fill-rule:evenodd;clip-rule:evenodd;fill:#FFC709;}
	.st3{fill:none;stroke:#A61B19;stroke-miterlimit:10;}
	.st4{fill:none;stroke:#FFC709;stroke-miterlimit:10;}
	.st5{clip-path:url(#SVGID_4_);fill:none;stroke:#A61B19;stroke-miterlimit:10;}
	.st6{clip-path:url(#SVGID_4_);fill:#FFC709;}
	.st7{fill:#FFC709;}
	.st8{clip-path:url(#SVGID_6_);fill:none;stroke:#FFC709;stroke-width:0.75;stroke-miterlimit:10;stroke-dasharray:4,4;}
	.st9{clip-path:url(#SVGID_6_);fill:none;stroke:#FFC709;stroke-width:0.75;stroke-miterlimit:10;}
	.st10{clip-path:url(#SVGID_8_);fill:#FFC709;}
	.st11{clip-path:url(#SVGID_10_);fill:#FFC709;}
	.st12{clip-path:url(#SVGID_12_);fill:#FFC709;}
	.st13{clip-path:url(#SVGID_14_);fill:#FFC709;}
	.st14{clip-path:url(#SVGID_16_);fill:#FFC709;}
	.st15{clip-path:url(#SVGID_18_);fill:#FFC709;}
	.st16{clip-path:url(#SVGID_20_);fill:#FFC709;}
	.st17{clip-path:url(#SVGID_22_);fill:#FFC709;}
	.st18{clip-path:url(#SVGID_24_);fill:#FFC709;}
	.st19{clip-path:url(#SVGID_26_);fill:#FFC709;}
	.st20{fill:#A61B19;}
</style>
<title>sunlight park</title>
<desc>Created with Sketch.</desc>
<g id="Page-1" sketch:type="MSPage">
</g>
<g>
	<g>
		<defs>
			<rect id="SVGID_1_" y="0" width="113" height="106"/>
		</defs>
		<clipPath id="SVGID_2_">
			<use xlink:href="#SVGID_1_"  style="overflow:visible;"/>
		</clipPath>
		<polygon class="st0" points="1.4,53.6 1.4,1.4 111.7,1.4 111.6,53.3 56.1,104.1 1.4,53.6 		"/>
		<path class="st1" d="M113,0H0v54.2l56,51.8L113,53.9L113,0L113,0L113,0z M110.3,2.7l0,50l-54.2,49.6L2.7,53V2.7H110.3"/>
	</g>
	<path class="st2" d="M49.4,81.5c6.4,6.5,6.8,16.6,6.8,16.6s-10-0.4-16.3-6.9c-6.4-6.5-6.8-16.6-6.8-16.6S43,75,49.4,81.5L49.4,81.5
		z"/>
	<path class="st2" d="M46.9,84c6.4,6.5,9.3,14,9.3,14s-7.5-2.9-13.9-9.4c-6.4-6.5-9.3-14-9.3-14S40.5,77.5,46.9,84L46.9,84z"/>
	<path class="st3" d="M46.9,84c6.4,6.5,9.3,14,9.3,14s-7.5-2.9-13.9-9.4c-6.4-6.5-9.3-14-9.3-14S40.5,77.5,46.9,84L46.9,84z"/>
	<path class="st2" d="M32.4,73c0.6,0,1,0.5,1,1c0,0.6-0.5,1-1,1c-0.6,0-1-0.5-1-1C31.3,73.5,31.8,73,32.4,73L32.4,73z"/>
	<path class="st4" d="M32.4,73c0.6,0,1,0.5,1,1c0,0.6-0.5,1-1,1c-0.6,0-1-0.5-1-1C31.3,73.5,31.8,73,32.4,73L32.4,73z"/>
	<path class="st2" d="M72,91.4c-6.4,6.5-16.3,6.9-16.3,6.9s0.4-10.1,6.8-16.6c6.4-6.5,16.3-6.9,16.3-6.9S78.4,84.9,72,91.4L72,91.4z
		"/>
	<path class="st2" d="M69.5,88.8c-6.4,6.5-13.9,9.4-13.9,9.4s2.9-7.6,9.3-14.1c6.4-6.5,13.9-9.4,13.9-9.4S75.9,82.4,69.5,88.8
		L69.5,88.8z"/>
	<path class="st3" d="M69.5,88.8c-6.4,6.5-13.9,9.4-13.9,9.4s2.9-7.6,9.3-14.1c6.4-6.5,13.9-9.4,13.9-9.4S75.9,82.4,69.5,88.8
		L69.5,88.8z"/>
	<path class="st2" d="M65.8,82.5c0,12.9-9.5,23.4-9.5,23.4s-9.5-10.5-9.5-23.4c0-12.9,9.5-23.4,9.5-23.4S65.8,69.5,65.8,82.5
		L65.8,82.5z"/>
	<path class="st2" d="M60.8,82.5c0,12.9-4.6,23.4-4.6,23.4s-4.6-10.5-4.6-23.4c0-12.9,4.6-23.4,4.6-23.4S60.8,69.5,60.8,82.5
		L60.8,82.5z"/>
	<g>
		<defs>
			<rect id="SVGID_3_" y="0" width="113" height="106"/>
		</defs>
		<clipPath id="SVGID_4_">
			<use xlink:href="#SVGID_3_"  style="overflow:visible;"/>
		</clipPath>
		<path class="st5" d="M60.8,82.5c0,12.9-4.6,23.4-4.6,23.4s-4.6-10.5-4.6-23.4c0-12.9,4.6-23.4,4.6-23.4S60.8,69.5,60.8,82.5
			L60.8,82.5z"/>
		<path class="st6" d="M113,0H0v54.2l56,51.8L113,53.9L113,0L113,0L113,0z M110.3,2.7l0,50l-54.2,49.6L2.7,53V2.7H110.3"/>
	</g>
	<path class="st2" d="M57.2,57.6c0,0.6-0.5,1-1,1c-0.6,0-1-0.5-1-1c0-0.6,0.5-1,1-1C56.8,56.6,57.2,57,57.2,57.6L57.2,57.6z"/>
	<path class="st4" d="M57.2,57.6c0,0.6-0.5,1-1,1c-0.6,0-1-0.5-1-1c0-0.6,0.5-1,1-1C56.8,56.6,57.2,57,57.2,57.6L57.2,57.6z"/>
	<path class="st2" d="M80.3,74.1c0,0.6-0.5,1-1,1c-0.6,0-1-0.5-1-1c0-0.6,0.5-1,1-1C79.9,73,80.3,73.5,80.3,74.1L80.3,74.1z"/>
	<path class="st4" d="M80.3,74.1c0,0.6-0.5,1-1,1c-0.6,0-1-0.5-1-1c0-0.6,0.5-1,1-1C79.9,73,80.3,73.5,80.3,74.1L80.3,74.1z"/>
	<path class="st7" d="M52.9,41.9c0.3,0.2,0.7,0.2,0.9,0c1.1-0.9,1.7-1.3,2.9-2.2c0.3-0.2,0.3-0.5,0-0.7c-0.3-0.2-0.7-0.2-0.9,0
		c-1.4,1-2,1.5-3.3,2.6C52.6,41.7,52.7,41.8,52.9,41.9L52.9,41.9z"/>
	<path class="st7" d="M39,42.9c0.3,0.2,0.7,0.1,0.9-0.1c1.1-1,1.6-1.5,2.7-2.4c0.2-0.2,0.2-0.5-0.1-0.7c-0.3-0.2-0.7-0.1-0.9,0.1
		c-1.3,1.1-1.9,1.7-3.1,2.8C38.7,42.7,38.8,42.7,39,42.9L39,42.9z"/>
	<path class="st7" d="M32.2,43.8c0.3,0.1,0.7,0.1,0.9-0.1c1-1,1.5-1.5,2.6-2.6c0.2-0.2,0.2-0.5-0.1-0.7c-0.3-0.2-0.7-0.1-0.9,0.1
		c-1.2,1.2-1.8,1.8-3,3C31.9,43.7,32,43.7,32.2,43.8L32.2,43.8z"/>
	<path class="st7" d="M28.7,44.4c0.3,0.1,0.7,0.1,0.9-0.2c1-1.1,1.5-1.6,2.5-2.6c0.2-0.2,0.2-0.5-0.1-0.7c-0.3-0.1-0.7-0.1-0.9,0.2
		c-1.2,1.2-1.8,1.8-2.9,3.1C28.4,44.3,28.5,44.3,28.7,44.4L28.7,44.4z"/>
	<path class="st7" d="M49.4,42c0.3,0.2,0.7,0.2,0.9,0c1.1-0.9,1.7-1.4,2.8-2.2c0.3-0.2,0.2-0.5,0-0.7c-0.3-0.2-0.7-0.2-0.9,0
		c-1.3,1-2,1.6-3.3,2.6C49.1,41.8,49.2,41.9,49.4,42L49.4,42z"/>
	<path class="st7" d="M45.9,42.2c0.3,0.2,0.7,0.1,0.9-0.1c1.1-0.9,1.7-1.4,2.8-2.3c0.2-0.2,0.2-0.5,0-0.7c-0.3-0.2-0.7-0.2-0.9,0
		c-1.3,1.1-2,1.6-3.2,2.7C45.6,42,45.7,42.1,45.9,42.2L45.9,42.2z"/>
	<path class="st7" d="M42.5,42.5c0.3,0.2,0.7,0.1,0.9-0.1c1.1-1,1.6-1.4,2.7-2.4c0.2-0.2,0.2-0.5,0-0.7c-0.3-0.2-0.7-0.1-0.9,0.1
		c-1.3,1.1-1.9,1.7-3.2,2.8C42.2,42.3,42.3,42.4,42.5,42.5L42.5,42.5z"/>
	<path class="st7" d="M18.5,46.8c0.3,0.1,0.7,0,0.9-0.2c0.9-1.1,1.4-1.7,2.3-2.8c0.2-0.2,0.1-0.5-0.2-0.7c-0.3-0.1-0.7,0-0.9,0.2
		c-1.1,1.3-1.6,1.9-2.7,3.3C18.2,46.6,18.3,46.7,18.5,46.8L18.5,46.8z"/>
	<path class="st7" d="M8.5,49.8c0.3,0.1,0.7,0,0.9-0.3c0.8-1.2,1.3-1.8,2.1-2.9c0.2-0.3,0.1-0.6-0.2-0.7c-0.3-0.1-0.7,0-0.9,0.3
		c-1,1.4-1.5,2.1-2.5,3.4C8.1,49.7,8.3,49.7,8.5,49.8L8.5,49.8z"/>
	<path class="st7" d="M5.2,51c0.3,0.1,0.7-0.1,0.9-0.3c0.8-1.2,1.2-1.8,2.1-3c0.2-0.3,0.1-0.6-0.2-0.6c-0.3-0.1-0.7,0-0.9,0.3
		c-1,1.4-1.5,2.1-2.4,3.5C4.8,50.9,4.9,50.9,5.2,51L5.2,51z"/>
	<path class="st7" d="M11.8,48.7c0.3,0.1,0.7,0,0.9-0.3c0.9-1.2,1.3-1.7,2.2-2.9c0.2-0.3,0.1-0.5-0.2-0.7c-0.3-0.1-0.7,0-0.9,0.3
		c-1,1.3-1.6,2-2.6,3.4C11.5,48.6,11.6,48.6,11.8,48.7L11.8,48.7z"/>
	<path class="st7" d="M21.9,45.9c0.3,0.1,0.7,0,0.9-0.2c0.9-1.1,1.4-1.6,2.4-2.7c0.2-0.2,0.2-0.5-0.1-0.7c-0.3-0.1-0.7,0-0.9,0.2
		c-1.1,1.3-1.7,1.9-2.8,3.2C21.6,45.8,21.7,45.8,21.9,45.9L21.9,45.9z"/>
	<path class="st7" d="M25.3,45.1c0.3,0.1,0.7,0,0.9-0.2c1-1.1,1.5-1.6,2.5-2.7c0.2-0.2,0.2-0.5-0.1-0.7c-0.3-0.1-0.7-0.1-0.9,0.2
		c-1.2,1.2-1.7,1.9-2.8,3.1C25,45,25.1,45,25.3,45.1L25.3,45.1z"/>
	<path class="st7" d="M56.3,41.8c0.3,0.2,0.7,0.2,0.9,0c1.2-0.9,1.7-1.3,2.9-2.1c0.3-0.2,0.3-0.5,0-0.7c-0.3-0.2-0.7-0.2-0.9,0
		c-1.4,1-2.1,1.5-3.4,2.5C56,41.6,56.1,41.7,56.3,41.8L56.3,41.8z"/>
	<path class="st7" d="M15.2,47.7c0.3,0.1,0.7,0,0.9-0.3c0.9-1.1,1.3-1.7,2.3-2.8c0.2-0.2,0.1-0.5-0.2-0.7c-0.3-0.1-0.7,0-0.9,0.2
		c-1.1,1.3-1.6,2-2.6,3.3C14.8,47.6,14.9,47.6,15.2,47.7L15.2,47.7z"/>
	<path class="st7" d="M107.5,50.9c0.2,0.3,0.6,0.4,0.9,0.3c1.4-0.4,2.1-0.6,3.5-1c0.3-0.1,0.4-0.4,0.3-0.6c-0.2-0.3-0.6-0.4-0.9-0.3
		c-1.7,0.4-2.5,0.7-4.1,1.2C107.3,50.6,107.4,50.7,107.5,50.9L107.5,50.9z"/>
	<path class="st7" d="M87.3,45.1c0.2,0.2,0.6,0.3,0.9,0.2c1.3-0.6,2-0.9,3.3-1.5c0.3-0.1,0.4-0.4,0.2-0.7c-0.2-0.2-0.6-0.3-0.9-0.2
		c-1.6,0.7-2.3,1-3.9,1.7C87.1,44.9,87.2,44.9,87.3,45.1L87.3,45.1z"/>
	<path class="st7" d="M97.5,47.7c0.2,0.3,0.6,0.4,0.9,0.3c1.4-0.5,2-0.7,3.4-1.2c0.3-0.1,0.4-0.4,0.2-0.7c-0.2-0.3-0.6-0.4-0.9-0.3
		c-1.6,0.6-2.4,0.8-4,1.4C97.3,47.4,97.3,47.5,97.5,47.7L97.5,47.7z"/>
	<path class="st7" d="M90.7,45.9c0.2,0.2,0.6,0.3,0.9,0.2c1.3-0.6,2-0.8,3.4-1.4c0.3-0.1,0.4-0.4,0.2-0.7c-0.2-0.3-0.6-0.4-0.9-0.2
		c-1.6,0.6-2.4,1-3.9,1.6C90.5,45.6,90.6,45.7,90.7,45.9L90.7,45.9z"/>
	<path class="st7" d="M94.1,46.7c0.2,0.2,0.6,0.4,0.9,0.2c1.3-0.5,2-0.8,3.4-1.3c0.3-0.1,0.4-0.4,0.2-0.7c-0.2-0.3-0.6-0.4-0.9-0.3
		c-1.6,0.6-2.4,0.9-3.9,1.5C93.9,46.5,94,46.6,94.1,46.7L94.1,46.7z"/>
	<path class="st7" d="M59.8,41.9c0.2,0.2,0.7,0.2,0.9,0c1.2-0.8,1.8-1.2,3-2c0.3-0.2,0.3-0.5,0-0.7c-0.2-0.2-0.7-0.2-0.9,0
		c-1.4,0.9-2.1,1.4-3.5,2.4C59.5,41.7,59.6,41.7,59.8,41.9L59.8,41.9z"/>
	<path class="st7" d="M2.7,51.9c0.8-1.2,1.2-1.8,2-3c0.2-0.3,0.1-0.6-0.2-0.6c-0.3-0.1-0.7,0.1-0.9,0.3c-1,1.4-1.4,2.1-2.3,3.5
		c0.2,0.1,0.3,0.1,0.6,0.1C2.2,52.3,2.6,52.2,2.7,51.9L2.7,51.9z"/>
	<path class="st7" d="M104.2,49.8c0.2,0.3,0.6,0.4,0.9,0.3c1.4-0.4,2.1-0.6,3.5-1.1c0.3-0.1,0.4-0.4,0.2-0.7
		c-0.2-0.3-0.6-0.4-0.9-0.3c-1.6,0.5-2.5,0.7-4.1,1.3C104,49.5,104,49.6,104.2,49.8L104.2,49.8z"/>
	<path class="st7" d="M100.8,48.7c0.2,0.3,0.6,0.4,0.9,0.3c1.4-0.5,2.1-0.7,3.5-1.1c0.3-0.1,0.4-0.4,0.2-0.7
		c-0.2-0.3-0.6-0.4-0.9-0.3c-1.6,0.5-2.4,0.8-4,1.3C100.6,48.4,100.7,48.5,100.8,48.7L100.8,48.7z"/>
	<path class="st7" d="M70.2,42.5c0.2,0.2,0.6,0.3,0.9,0.1c1.2-0.7,1.9-1.1,3.1-1.8c0.3-0.2,0.3-0.5,0.1-0.7
		c-0.2-0.2-0.7-0.3-0.9-0.1c-1.5,0.8-2.2,1.3-3.6,2.2C69.9,42.3,70,42.3,70.2,42.5L70.2,42.5z"/>
	<path class="st7" d="M66.7,42.2c0.2,0.2,0.7,0.2,0.9,0.1c1.2-0.8,1.8-1.2,3.1-1.9c0.3-0.2,0.3-0.5,0.1-0.7
		c-0.2-0.2-0.7-0.3-0.9-0.1c-1.4,0.9-2.2,1.3-3.6,2.2C66.4,42,66.5,42.1,66.7,42.2L66.7,42.2z"/>
	<path class="st7" d="M63.2,42c0.2,0.2,0.7,0.2,0.9,0c1.2-0.8,1.8-1.2,3-2c0.3-0.2,0.3-0.5,0-0.7c-0.2-0.2-0.7-0.2-0.9-0.1
		c-1.4,0.9-2.1,1.4-3.5,2.3C63,41.8,63.1,41.9,63.2,42L63.2,42z"/>
	<path class="st7" d="M83.9,44.4c0.2,0.2,0.6,0.3,0.9,0.2c1.3-0.6,2-0.9,3.3-1.5c0.3-0.1,0.4-0.4,0.1-0.7c-0.2-0.2-0.6-0.3-0.9-0.2
		c-1.5,0.7-2.3,1.1-3.8,1.8C83.7,44.2,83.8,44.3,83.9,44.4L83.9,44.4z"/>
	<path class="st7" d="M80.5,43.8c0.2,0.2,0.6,0.3,0.9,0.2c1.3-0.7,1.9-1,3.3-1.6c0.3-0.1,0.3-0.4,0.1-0.7c-0.2-0.2-0.6-0.3-0.9-0.2
		c-1.5,0.7-2.3,1.1-3.8,1.9C80.2,43.6,80.3,43.7,80.5,43.8L80.5,43.8z"/>
	<path class="st7" d="M73.6,42.9c0.2,0.2,0.6,0.3,0.9,0.1c1.3-0.7,1.9-1.1,3.2-1.8c0.3-0.2,0.3-0.5,0.1-0.7
		c-0.2-0.2-0.6-0.3-0.9-0.1c-1.5,0.8-2.2,1.2-3.7,2.1C73.4,42.6,73.4,42.7,73.6,42.9L73.6,42.9z"/>
	<path class="st7" d="M77.1,43.3c0.2,0.2,0.6,0.3,0.9,0.1c1.3-0.7,1.9-1,3.2-1.7c0.3-0.1,0.3-0.5,0.1-0.7c-0.2-0.2-0.6-0.3-0.9-0.2
		c-1.5,0.8-2.3,1.2-3.7,2C76.8,43.1,76.9,43.1,77.1,43.3L77.1,43.3z"/>
	<path class="st7" d="M35.6,43.3c0.3,0.2,0.7,0.1,0.9-0.1c1-1,1.6-1.5,2.6-2.5c0.2-0.2,0.2-0.5-0.1-0.7c-0.3-0.2-0.7-0.1-0.9,0.1
		c-1.2,1.2-1.8,1.7-3,2.9C35.3,43.1,35.4,43.2,35.6,43.3L35.6,43.3z"/>
	<path class="st7" d="M60.1,42.9c-0.2-0.2-0.7-0.2-0.9,0c-1.3,1-2,1.5-3.3,2.5c0.2,0.1,0.3,0.2,0.4,0.3c0.2,0.2,0.6,0.2,0.9,0
		c1.1-0.9,1.7-1.3,2.9-2.1C60.3,43.4,60.3,43.1,60.1,42.9L60.1,42.9z"/>
	<path class="st7" d="M77.2,44.4c-0.2-0.2-0.6-0.3-0.9-0.1c-1.5,0.8-2.2,1.2-3.6,2.1c0.2,0.2,0.2,0.2,0.4,0.4
		c0.2,0.2,0.6,0.3,0.9,0.1c1.2-0.7,1.8-1.1,3.1-1.8C77.4,44.9,77.5,44.6,77.2,44.4L77.2,44.4z"/>
	<path class="st7" d="M80.7,44.9c-0.2-0.2-0.6-0.3-0.9-0.1c-1.5,0.8-2.2,1.2-3.6,2c0.2,0.2,0.2,0.2,0.4,0.4c0.2,0.2,0.6,0.3,0.9,0.1
		c1.2-0.7,1.9-1,3.1-1.7C80.8,45.4,80.9,45.1,80.7,44.9L80.7,44.9z"/>
	<path class="st7" d="M84.1,45.5c-0.2-0.2-0.6-0.3-0.9-0.2c-1.5,0.7-2.2,1.1-3.7,1.9c0.2,0.2,0.2,0.2,0.4,0.4
		c0.2,0.2,0.6,0.3,0.9,0.1c1.3-0.7,1.9-1,3.2-1.6C84.2,46.1,84.3,45.8,84.1,45.5L84.1,45.5z"/>
	<path class="st7" d="M87.4,46.2c-0.2-0.2-0.6-0.3-0.9-0.2c-1.5,0.7-2.3,1.1-3.7,1.8c0.2,0.2,0.2,0.3,0.4,0.4
		c0.2,0.2,0.6,0.3,0.9,0.2c1.3-0.6,1.9-0.9,3.2-1.5C87.6,46.8,87.6,46.5,87.4,46.2L87.4,46.2z"/>
	<path class="st7" d="M70.4,43.6c-0.2-0.2-0.6-0.3-0.9-0.1c-1.4,0.9-2.1,1.3-3.5,2.2c0.2,0.1,0.3,0.2,0.4,0.4
		c0.2,0.2,0.6,0.2,0.9,0.1c1.2-0.8,1.8-1.2,3-1.9C70.6,44.1,70.6,43.8,70.4,43.6L70.4,43.6z"/>
	<path class="st7" d="M63.5,43.1c-0.2-0.2-0.7-0.2-0.9,0c-1.4,0.9-2,1.4-3.4,2.4c0.2,0.1,0.3,0.2,0.4,0.4c0.2,0.2,0.6,0.2,0.9,0
		c1.1-0.8,1.7-1.2,2.9-2C63.8,43.6,63.8,43.3,63.5,43.1L63.5,43.1z"/>
	<path class="st7" d="M67,43.3L67,43.3c-0.2-0.2-0.6-0.2-0.9-0.1c-1.4,0.9-2.1,1.4-3.4,2.3c0.2,0.1,0.3,0.2,0.4,0.4
		c0.2,0.2,0.6,0.2,0.9,0c1.2-0.8,1.8-1.2,3-2C67.2,43.8,67.2,43.5,67,43.3L67,43.3z"/>
	<path class="st7" d="M5.8,51.8c-0.3-0.1-0.7,0.1-0.9,0.3c-0.9,1.4-1.4,2.1-2.2,3.5c0.2,0.1,0.3,0.1,0.5,0.1
		c0.3,0.1,0.7-0.1,0.9-0.3c0.8-1.2,1.2-1.8,1.9-3C6.2,52.2,6.1,51.9,5.8,51.8L5.8,51.8z"/>
	<path class="st7" d="M107.4,52c-0.2-0.3-0.6-0.4-0.9-0.3c-1.6,0.5-2.4,0.7-4,1.3c0.1,0.2,0.2,0.3,0.3,0.5c0.2,0.3,0.6,0.4,0.9,0.3
		c1.4-0.4,2-0.7,3.4-1.1C107.5,52.6,107.6,52.3,107.4,52L107.4,52z"/>
	<path class="st7" d="M109.8,53c-1.6,0.5-2.4,0.7-4,1.2c0.1,0.2,0.2,0.3,0.3,0.5c0.2,0.3,0.6,0.4,0.9,0.3c1.4-0.4,2.1-0.6,3.5-1
		c0.3-0.1,0.4-0.4,0.3-0.6C110.5,53,110.2,52.9,109.8,53L109.8,53z"/>
	<path class="st7" d="M104.2,50.9c-0.2-0.3-0.6-0.4-0.9-0.3c-1.6,0.5-2.4,0.8-3.9,1.4c0.1,0.2,0.2,0.3,0.3,0.5
		c0.2,0.3,0.6,0.4,0.9,0.3c1.3-0.5,2-0.7,3.4-1.2C104.2,51.4,104.3,51.1,104.2,50.9L104.2,50.9z"/>
	<path class="st7" d="M100.8,49.8c-0.2-0.3-0.6-0.4-0.9-0.3c-1.6,0.6-2.4,0.9-3.9,1.5c0.1,0.2,0.2,0.3,0.3,0.5
		c0.2,0.3,0.6,0.4,0.9,0.3c1.3-0.5,2-0.8,3.4-1.2C100.9,50.3,101,50,100.8,49.8L100.8,49.8z"/>
	<path class="st7" d="M94.2,47.8c-0.2-0.2-0.6-0.4-0.9-0.2c-1.5,0.6-2.3,1-3.8,1.6c0.1,0.2,0.2,0.3,0.4,0.4c0.2,0.2,0.6,0.3,0.9,0.2
		c1.3-0.6,2-0.9,3.3-1.4C94.3,48.4,94.4,48.1,94.2,47.8L94.2,47.8z"/>
	<path class="st7" d="M90.8,47c-0.2-0.2-0.6-0.3-0.9-0.2c-1.5,0.7-2.3,1-3.8,1.7c0.1,0.2,0.2,0.3,0.4,0.4c0.2,0.2,0.6,0.3,0.9,0.2
		c1.3-0.6,1.9-0.9,3.3-1.5C90.9,47.5,91,47.2,90.8,47L90.8,47z"/>
	<path class="st7" d="M97.5,48.8c-0.2-0.3-0.6-0.4-0.9-0.3c-1.6,0.6-2.3,0.9-3.9,1.6c0.1,0.2,0.2,0.3,0.4,0.5
		c0.2,0.2,0.6,0.4,0.9,0.2c1.3-0.5,2-0.8,3.3-1.3C97.6,49.3,97.7,49,97.5,48.8L97.5,48.8z"/>
	<path class="st7" d="M73.8,43.9c-0.2-0.2-0.6-0.3-0.9-0.1c-1.4,0.8-2.1,1.3-3.5,2.2c0.2,0.2,0.3,0.2,0.4,0.4
		c0.2,0.2,0.6,0.3,0.9,0.1c1.2-0.7,1.8-1.1,3.1-1.8C74,44.5,74.1,44.2,73.8,43.9L73.8,43.9z"/>
	<path class="st7" d="M19.1,47.7c-0.3-0.1-0.7,0-0.9,0.2c-1,1.3-1.5,2-2.5,3.3c0.2,0.1,0.3,0.1,0.5,0.2c0.3,0.1,0.7,0,0.9-0.2
		c0.9-1.1,1.3-1.7,2.2-2.8C19.5,48.1,19.4,47.8,19.1,47.7L19.1,47.7z"/>
	<path class="st7" d="M22.5,46.8c-0.3-0.1-0.7,0-0.9,0.2C20.5,48.3,20,49,19,50.3c0.2,0.1,0.3,0.1,0.5,0.2c0.3,0.1,0.7,0,0.9-0.2
		c0.9-1.1,1.3-1.7,2.3-2.8C22.8,47.3,22.8,47,22.5,46.8L22.5,46.8z"/>
	<path class="st7" d="M25.9,46.1c-0.3-0.1-0.7,0-0.9,0.2c-1.1,1.3-1.6,1.9-2.7,3.2c0.2,0.1,0.3,0.1,0.5,0.2c0.3,0.1,0.7,0,0.9-0.2
		c0.9-1.1,1.4-1.6,2.3-2.7C26.2,46.5,26.2,46.2,25.9,46.1L25.9,46.1z"/>
	<path class="st7" d="M15.8,48.6c-0.3-0.1-0.7,0-0.9,0.3c-1,1.3-1.5,2-2.5,3.3c0.2,0.1,0.3,0.1,0.5,0.2c0.3,0.1,0.7,0,0.9-0.3
		c0.8-1.2,1.3-1.7,2.1-2.9C16.2,49,16.1,48.7,15.8,48.6L15.8,48.6z"/>
	<path class="st7" d="M9.1,50.7c-0.3-0.1-0.7,0-0.9,0.3c-1,1.4-1.4,2.1-2.3,3.5c0.2,0.1,0.3,0.1,0.5,0.2c0.3,0.1,0.7-0.1,0.9-0.3
		c0.8-1.2,1.2-1.8,2-3C9.5,51.1,9.4,50.8,9.1,50.7L9.1,50.7z"/>
	<path class="st7" d="M56.7,42.9c-0.3-0.2-0.7-0.2-0.9,0c-1.3,1-2,1.5-3.3,2.5c0.2,0.1,0.3,0.2,0.5,0.3c0.3,0.2,0.7,0.2,0.9,0
		c1.1-0.9,1.7-1.3,2.8-2.2C56.9,43.4,56.9,43.1,56.7,42.9L56.7,42.9z"/>
	<path class="st7" d="M12.4,49.6c-0.3-0.1-0.7,0-0.9,0.3c-1,1.4-1.5,2-2.4,3.4c0.2,0.1,0.3,0.1,0.5,0.2c0.3,0.1,0.7,0,0.9-0.3
		c0.8-1.2,1.2-1.8,2.1-2.9C12.8,50,12.7,49.7,12.4,49.6L12.4,49.6z"/>
	<path class="st7" d="M29.3,45.4c-0.3-0.1-0.7-0.1-0.9,0.2c-1.1,1.2-1.7,1.9-2.7,3.1c0.2,0.1,0.3,0.1,0.5,0.2c0.3,0.1,0.7,0,0.9-0.2
		c0.9-1.1,1.4-1.6,2.4-2.7C29.6,45.8,29.5,45.5,29.3,45.4L29.3,45.4z"/>
	<path class="st7" d="M46.3,43.2c-0.3-0.2-0.7-0.1-0.9,0.1c-1.3,1.1-1.9,1.6-3.1,2.8c0.2,0.1,0.3,0.2,0.5,0.3
		c0.3,0.2,0.7,0.1,0.9-0.1c1-1,1.6-1.4,2.7-2.4C46.6,43.7,46.6,43.4,46.3,43.2L46.3,43.2z"/>
	<path class="st7" d="M49.8,43c-0.3-0.2-0.7-0.2-0.9,0c-1.3,1.1-1.9,1.6-3.1,2.7c0.2,0.1,0.3,0.2,0.5,0.3c0.3,0.2,0.7,0.1,0.9-0.1
		c1.1-0.9,1.6-1.4,2.7-2.3C50.1,43.5,50,43.2,49.8,43L49.8,43z"/>
	<path class="st7" d="M32.7,44.8c-0.3-0.1-0.7-0.1-0.9,0.2c-1.2,1.2-1.7,1.8-2.8,3c0.2,0.1,0.3,0.2,0.5,0.3c0.3,0.1,0.7,0.1,0.9-0.2
		c1-1,1.4-1.6,2.4-2.6C33,45.3,32.9,45,32.7,44.8L32.7,44.8z"/>
	<path class="st7" d="M53.2,42.9c-0.3-0.2-0.7-0.2-0.9,0c-1.3,1-1.9,1.6-3.2,2.6c0.2,0.1,0.3,0.2,0.5,0.3c0.3,0.2,0.7,0.2,0.9,0
		c1.1-0.9,1.6-1.4,2.8-2.2C53.5,43.4,53.5,43.1,53.2,42.9L53.2,42.9z"/>
	<path class="st7" d="M42.9,43.5c-0.3-0.2-0.7-0.1-0.9,0.1c-1.2,1.1-1.8,1.7-3,2.8c0.2,0.1,0.3,0.2,0.5,0.3c0.3,0.2,0.7,0.1,0.9-0.1
		c1-1,1.5-1.5,2.6-2.4C43.2,44,43.2,43.7,42.9,43.5L42.9,43.5z"/>
	<path class="st7" d="M36.1,44.3c-0.3-0.2-0.7-0.1-0.9,0.1c-1.2,1.2-1.8,1.8-2.9,3c0.2,0.1,0.3,0.2,0.5,0.3c0.3,0.1,0.7,0.1,0.9-0.1
		c1-1,1.5-1.5,2.5-2.5C36.4,44.7,36.3,44.4,36.1,44.3L36.1,44.3z"/>
	<path class="st7" d="M39.5,43.9c-0.3-0.2-0.7-0.1-0.9,0.1c-1.2,1.1-1.8,1.7-2.9,2.9c0.2,0.1,0.3,0.2,0.5,0.3
		c0.3,0.2,0.7,0.1,0.9-0.1c1-1,1.5-1.5,2.6-2.5C39.8,44.3,39.8,44,39.5,43.9L39.5,43.9z"/>
	<path class="st7" d="M52.6,20.2c0.3,0.2,0.7,0.2,0.9,0c1.1-0.9,1.7-1.3,2.9-2.2c0.3-0.2,0.3-0.5,0-0.7c-0.3-0.2-0.7-0.2-0.9,0
		c-1.4,1-2,1.5-3.3,2.6C52.3,20,52.4,20.1,52.6,20.2L52.6,20.2z"/>
	<path class="st7" d="M38.7,21.2c0.3,0.2,0.7,0.1,0.9-0.1c1.1-1,1.6-1.5,2.7-2.4c0.2-0.2,0.2-0.5-0.1-0.7c-0.3-0.2-0.7-0.1-0.9,0.1
		c-1.3,1.1-1.9,1.7-3.1,2.8C38.4,21,38.5,21.1,38.7,21.2L38.7,21.2z"/>
	<path class="st7" d="M31.9,22.2c0.3,0.1,0.7,0.1,0.9-0.1c1-1,1.5-1.5,2.6-2.6c0.2-0.2,0.2-0.5-0.1-0.7c-0.3-0.2-0.7-0.1-0.9,0.1
		c-1.2,1.2-1.8,1.8-3,3C31.5,22,31.6,22.1,31.9,22.2L31.9,22.2z"/>
	<path class="st7" d="M28.4,22.8c0.3,0.1,0.7,0.1,0.9-0.2c1-1.1,1.5-1.6,2.5-2.6c0.2-0.2,0.2-0.5-0.1-0.7c-0.3-0.1-0.7-0.1-0.9,0.2
		c-1.2,1.2-1.8,1.8-2.9,3.1C28.1,22.7,28.2,22.7,28.4,22.8L28.4,22.8z"/>
	<path class="st7" d="M49.1,20.4c0.3,0.2,0.7,0.2,0.9,0c1.1-0.9,1.7-1.4,2.8-2.2c0.3-0.2,0.2-0.5,0-0.7c-0.3-0.2-0.7-0.2-0.9,0
		c-1.3,1-2,1.6-3.3,2.6C48.8,20.2,48.9,20.2,49.1,20.4L49.1,20.4z"/>
	<path class="st7" d="M45.6,20.6c0.3,0.2,0.7,0.1,0.9-0.1c1.1-0.9,1.7-1.4,2.8-2.3c0.2-0.2,0.2-0.5,0-0.7c-0.3-0.2-0.7-0.2-0.9,0
		c-1.3,1.1-2,1.6-3.2,2.7C45.3,20.4,45.4,20.4,45.6,20.6L45.6,20.6z"/>
	<path class="st7" d="M42.2,20.9c0.3,0.2,0.7,0.1,0.9-0.1c1.1-1,1.6-1.4,2.7-2.4c0.2-0.2,0.2-0.5,0-0.7c-0.3-0.2-0.7-0.1-0.9,0.1
		c-1.3,1.1-1.9,1.7-3.2,2.8C41.9,20.7,42,20.7,42.2,20.9L42.2,20.9z"/>
	<path class="st7" d="M18.2,25.1c0.3,0.1,0.7,0,0.9-0.2c0.9-1.1,1.4-1.7,2.3-2.8c0.2-0.2,0.1-0.5-0.2-0.7c-0.3-0.1-0.7,0-0.9,0.2
		c-1.1,1.3-1.6,1.9-2.7,3.3C17.9,25,18,25,18.2,25.1L18.2,25.1z"/>
	<path class="st7" d="M8.2,28.2c0.3,0.1,0.7,0,0.9-0.3c0.8-1.2,1.3-1.8,2.1-2.9c0.2-0.3,0.1-0.6-0.2-0.7c-0.3-0.1-0.7,0-0.9,0.3
		c-1,1.4-1.5,2.1-2.5,3.4C7.8,28,8,28.1,8.2,28.2L8.2,28.2z"/>
	<path class="st7" d="M4.9,29.3c0.3,0.1,0.7-0.1,0.9-0.3c0.8-1.2,1.2-1.8,2.1-3c0.2-0.3,0.1-0.6-0.2-0.6c-0.3-0.1-0.7,0-0.9,0.3
		c-1,1.4-1.5,2.1-2.4,3.5C4.5,29.2,4.6,29.3,4.9,29.3L4.9,29.3z"/>
	<path class="st7" d="M11.5,27.1c0.3,0.1,0.7,0,0.9-0.3c0.9-1.2,1.3-1.7,2.2-2.9c0.2-0.3,0.1-0.5-0.2-0.7c-0.3-0.1-0.7,0-0.9,0.3
		c-1,1.3-1.6,2-2.6,3.4C11.2,26.9,11.3,27,11.5,27.1L11.5,27.1z"/>
	<path class="st7" d="M21.6,24.3c0.3,0.1,0.7,0,0.9-0.2c0.9-1.1,1.4-1.6,2.4-2.7c0.2-0.2,0.2-0.5-0.1-0.7c-0.3-0.1-0.7,0-0.9,0.2
		c-1.1,1.3-1.7,1.9-2.8,3.2C21.3,24.1,21.4,24.2,21.6,24.3L21.6,24.3z"/>
	<path class="st7" d="M25,23.5c0.3,0.1,0.7,0,0.9-0.2c1-1.1,1.5-1.6,2.5-2.7c0.2-0.2,0.2-0.5-0.1-0.7c-0.3-0.1-0.7-0.1-0.9,0.2
		c-1.2,1.2-1.7,1.9-2.8,3.1C24.7,23.3,24.8,23.4,25,23.5L25,23.5z"/>
	<path class="st7" d="M56,20.2c0.3,0.2,0.7,0.2,0.9,0c1.2-0.9,1.7-1.3,2.9-2.1c0.3-0.2,0.3-0.5,0-0.7c-0.3-0.2-0.7-0.2-0.9,0
		c-1.4,1-2.1,1.5-3.4,2.5C55.7,20,55.8,20.1,56,20.2L56,20.2z"/>
	<path class="st7" d="M14.9,26c0.3,0.1,0.7,0,0.9-0.3c0.9-1.1,1.3-1.7,2.3-2.8c0.2-0.2,0.1-0.5-0.2-0.7c-0.3-0.1-0.7,0-0.9,0.2
		c-1.1,1.3-1.6,2-2.6,3.3C14.5,25.9,14.6,26,14.9,26L14.9,26z"/>
	<path class="st7" d="M107.2,29.3c0.2,0.3,0.6,0.4,0.9,0.3c1.4-0.4,2.1-0.6,3.5-1c0.3-0.1,0.4-0.4,0.3-0.6c-0.2-0.3-0.6-0.4-0.9-0.3
		c-1.7,0.4-2.5,0.7-4.1,1.2C107,29,107.1,29.1,107.2,29.3L107.2,29.3z"/>
	<path class="st7" d="M87,23.5c0.2,0.2,0.6,0.3,0.9,0.2c1.3-0.6,2-0.9,3.3-1.5c0.3-0.1,0.4-0.4,0.2-0.7c-0.2-0.2-0.6-0.3-0.9-0.2
		c-1.6,0.7-2.3,1-3.9,1.7C86.8,23.2,86.9,23.3,87,23.5L87,23.5z"/>
	<path class="st7" d="M97.2,26c0.2,0.3,0.6,0.4,0.9,0.3c1.4-0.5,2-0.7,3.4-1.2c0.3-0.1,0.4-0.4,0.2-0.7c-0.2-0.3-0.6-0.4-0.9-0.3
		c-1.6,0.6-2.4,0.8-4,1.4C97,25.7,97,25.8,97.2,26L97.2,26z"/>
	<path class="st7" d="M90.4,24.2c0.2,0.2,0.6,0.3,0.9,0.2c1.3-0.6,2-0.8,3.4-1.4c0.3-0.1,0.4-0.4,0.2-0.7c-0.2-0.3-0.6-0.4-0.9-0.2
		c-1.6,0.6-2.4,1-3.9,1.6C90.2,24,90.3,24.1,90.4,24.2L90.4,24.2z"/>
	<path class="st7" d="M93.8,25.1c0.2,0.2,0.6,0.4,0.9,0.2c1.3-0.5,2-0.8,3.4-1.3c0.3-0.1,0.4-0.4,0.2-0.7c-0.2-0.3-0.6-0.4-0.9-0.3
		c-1.6,0.6-2.4,0.9-3.9,1.5C93.6,24.8,93.7,24.9,93.8,25.1L93.8,25.1z"/>
	<path class="st7" d="M59.5,20.2c0.2,0.2,0.7,0.2,0.9,0c1.2-0.8,1.8-1.2,3-2c0.3-0.2,0.3-0.5,0-0.7c-0.2-0.2-0.7-0.2-0.9,0
		c-1.4,0.9-2.1,1.4-3.5,2.4C59.2,20,59.3,20.1,59.5,20.2L59.5,20.2z"/>
	<path class="st7" d="M2.4,30.2c0.8-1.2,1.2-1.8,2-3c0.2-0.3,0.1-0.6-0.2-0.6c-0.3-0.1-0.7,0.1-0.9,0.3c-1,1.4-1.4,2.1-2.3,3.5
		c0.2,0.1,0.3,0.1,0.6,0.1C1.9,30.7,2.3,30.5,2.4,30.2L2.4,30.2z"/>
	<path class="st7" d="M103.9,28.1c0.2,0.3,0.6,0.4,0.9,0.3c1.4-0.4,2.1-0.6,3.5-1.1c0.3-0.1,0.4-0.4,0.2-0.7
		c-0.2-0.3-0.6-0.4-0.9-0.3c-1.6,0.5-2.5,0.7-4.1,1.3C103.7,27.8,103.7,27.9,103.9,28.1L103.9,28.1z"/>
	<path class="st7" d="M100.5,27c0.2,0.3,0.6,0.4,0.9,0.3c1.4-0.5,2.1-0.7,3.5-1.1c0.3-0.1,0.4-0.4,0.2-0.7c-0.2-0.3-0.6-0.4-0.9-0.3
		c-1.6,0.5-2.4,0.8-4,1.3C100.3,26.7,100.4,26.8,100.5,27L100.5,27z"/>
	<path class="st7" d="M69.9,20.8c0.2,0.2,0.6,0.3,0.9,0.1c1.2-0.7,1.9-1.1,3.1-1.8c0.3-0.2,0.3-0.5,0.1-0.7
		c-0.2-0.2-0.7-0.3-0.9-0.1c-1.5,0.8-2.2,1.3-3.6,2.2C69.6,20.6,69.7,20.7,69.9,20.8L69.9,20.8z"/>
	<path class="st7" d="M66.4,20.6c0.2,0.2,0.7,0.2,0.9,0.1c1.2-0.8,1.8-1.2,3.1-1.9c0.3-0.2,0.3-0.5,0.1-0.7
		c-0.2-0.2-0.7-0.3-0.9-0.1c-1.4,0.9-2.2,1.3-3.6,2.2C66.1,20.3,66.2,20.4,66.4,20.6L66.4,20.6z"/>
	<path class="st7" d="M62.9,20.4c0.2,0.2,0.7,0.2,0.9,0c1.2-0.8,1.8-1.2,3-2c0.3-0.2,0.3-0.5,0.1-0.7c-0.2-0.2-0.7-0.2-0.9-0.1
		c-1.4,0.9-2.1,1.4-3.5,2.3C62.7,20.1,62.8,20.2,62.9,20.4L62.9,20.4z"/>
	<path class="st7" d="M83.6,22.8c0.2,0.2,0.6,0.3,0.9,0.2c1.3-0.6,2-0.9,3.3-1.5c0.3-0.1,0.4-0.4,0.1-0.7c-0.2-0.2-0.6-0.3-0.9-0.2
		c-1.5,0.7-2.3,1.1-3.8,1.8C83.4,22.5,83.5,22.6,83.6,22.8L83.6,22.8z"/>
	<path class="st7" d="M80.2,22.2c0.2,0.2,0.6,0.3,0.9,0.2c1.3-0.7,1.9-1,3.3-1.6c0.3-0.1,0.3-0.4,0.1-0.7c-0.2-0.2-0.6-0.3-0.9-0.2
		c-1.5,0.7-2.3,1.1-3.8,1.9C79.9,21.9,80,22,80.2,22.2L80.2,22.2z"/>
	<path class="st7" d="M73.3,21.2c0.2,0.2,0.6,0.3,0.9,0.1c1.3-0.7,1.9-1.1,3.2-1.8c0.3-0.2,0.3-0.5,0.1-0.7
		c-0.2-0.2-0.6-0.3-0.9-0.1c-1.5,0.8-2.2,1.2-3.7,2.1C73.1,21,73.1,21.1,73.3,21.2L73.3,21.2z"/>
	<path class="st7" d="M76.7,21.7c0.2,0.2,0.6,0.3,0.9,0.1c1.3-0.7,1.9-1,3.2-1.7c0.3-0.1,0.3-0.5,0.1-0.7c-0.2-0.2-0.6-0.3-0.9-0.2
		c-1.5,0.8-2.3,1.2-3.7,2C76.5,21.4,76.6,21.5,76.7,21.7L76.7,21.7z"/>
	<path class="st7" d="M35.3,21.7c0.3,0.2,0.7,0.1,0.9-0.1c1-1,1.6-1.5,2.6-2.5c0.2-0.2,0.2-0.5-0.1-0.7c-0.3-0.2-0.7-0.1-0.9,0.1
		c-1.2,1.2-1.8,1.7-3,2.9C35,21.5,35.1,21.6,35.3,21.7L35.3,21.7z"/>
	<path class="st7" d="M59.8,21.3c-0.2-0.2-0.7-0.2-0.9,0c-1.3,1-2,1.5-3.3,2.5c0.2,0.1,0.3,0.2,0.4,0.3c0.2,0.2,0.6,0.2,0.9,0
		c1.1-0.9,1.7-1.3,2.9-2.1C60,21.8,60,21.5,59.8,21.3L59.8,21.3z"/>
	<path class="st7" d="M76.9,22.7c-0.2-0.2-0.6-0.3-0.9-0.1c-1.5,0.8-2.2,1.2-3.6,2.1c0.2,0.2,0.2,0.2,0.4,0.4
		c0.2,0.2,0.6,0.3,0.9,0.1c1.2-0.7,1.8-1.1,3.1-1.8C77.1,23.3,77.2,23,76.9,22.7L76.9,22.7z"/>
	<path class="st7" d="M80.3,23.3c-0.2-0.2-0.6-0.3-0.9-0.1c-1.5,0.8-2.2,1.2-3.6,2c0.2,0.2,0.2,0.2,0.4,0.4c0.2,0.2,0.6,0.3,0.9,0.1
		c1.2-0.7,1.9-1,3.1-1.7C80.5,23.8,80.6,23.5,80.3,23.3L80.3,23.3z"/>
	<path class="st7" d="M83.7,23.9c-0.2-0.2-0.6-0.3-0.9-0.2c-1.5,0.7-2.2,1.1-3.7,1.9c0.2,0.2,0.2,0.2,0.4,0.4
		c0.2,0.2,0.6,0.3,0.9,0.1c1.3-0.7,1.9-1,3.2-1.6C83.9,24.4,84,24.1,83.7,23.9L83.7,23.9z"/>
	<path class="st7" d="M87.1,24.6c-0.2-0.2-0.6-0.3-0.9-0.2c-1.5,0.7-2.3,1.1-3.7,1.8c0.2,0.2,0.2,0.3,0.4,0.4
		c0.2,0.2,0.6,0.3,0.9,0.2c1.3-0.6,1.9-0.9,3.2-1.5C87.3,25.1,87.3,24.8,87.1,24.6L87.1,24.6z"/>
	<path class="st7" d="M70.1,21.9c-0.2-0.2-0.6-0.3-0.9-0.1c-1.4,0.9-2.1,1.3-3.5,2.2c0.2,0.1,0.3,0.2,0.4,0.4
		c0.2,0.2,0.6,0.2,0.9,0.1c1.2-0.8,1.8-1.2,3-1.9C70.3,22.4,70.3,22.1,70.1,21.9L70.1,21.9z"/>
	<path class="st7" d="M63.2,21.4c-0.2-0.2-0.7-0.2-0.9,0c-1.4,0.9-2,1.4-3.4,2.4c0.2,0.1,0.3,0.2,0.4,0.4c0.2,0.2,0.6,0.2,0.9,0
		c1.1-0.8,1.7-1.2,2.9-2C63.5,21.9,63.5,21.6,63.2,21.4L63.2,21.4z"/>
	<path class="st7" d="M66.7,21.6L66.7,21.6c-0.2-0.2-0.6-0.2-0.9-0.1c-1.4,0.9-2.1,1.4-3.4,2.3c0.2,0.1,0.3,0.2,0.4,0.4
		c0.2,0.2,0.6,0.2,0.9,0c1.2-0.8,1.8-1.2,3-2C66.9,22.1,66.9,21.8,66.7,21.6L66.7,21.6z"/>
	<path class="st7" d="M5.5,30.2c-0.3-0.1-0.7,0.1-0.9,0.3c-0.9,1.4-1.4,2.1-2.2,3.5c0.2,0.1,0.3,0.1,0.5,0.1
		c0.3,0.1,0.7-0.1,0.9-0.3c0.8-1.2,1.2-1.8,2-3C5.9,30.6,5.8,30.3,5.5,30.2L5.5,30.2z"/>
	<path class="st7" d="M107.1,30.4c-0.2-0.3-0.6-0.4-0.9-0.3c-1.6,0.5-2.4,0.7-4,1.3c0.1,0.2,0.2,0.3,0.3,0.5
		c0.2,0.3,0.6,0.4,0.9,0.3c1.4-0.4,2-0.7,3.4-1.1C107.2,31,107.3,30.7,107.1,30.4L107.1,30.4z"/>
	<path class="st7" d="M109.5,31.3c-1.6,0.5-2.4,0.7-4,1.2c0.1,0.2,0.2,0.3,0.3,0.5c0.2,0.3,0.6,0.4,0.9,0.3c1.4-0.4,2.1-0.6,3.5-1
		c0.3-0.1,0.4-0.4,0.3-0.6C110.2,31.4,109.9,31.2,109.5,31.3L109.5,31.3z"/>
	<path class="st7" d="M103.9,29.2c-0.2-0.3-0.6-0.4-0.9-0.3c-1.6,0.5-2.4,0.8-3.9,1.4c0.1,0.2,0.2,0.3,0.3,0.5
		c0.2,0.3,0.6,0.4,0.9,0.3c1.3-0.5,2-0.7,3.4-1.2C103.9,29.8,104,29.5,103.9,29.2L103.9,29.2z"/>
	<path class="st7" d="M100.5,28.1c-0.2-0.3-0.6-0.4-0.9-0.3c-1.6,0.6-2.4,0.9-3.9,1.5c0.1,0.2,0.2,0.3,0.3,0.5
		c0.2,0.3,0.6,0.4,0.9,0.3c1.3-0.5,2-0.8,3.4-1.2C100.6,28.7,100.7,28.4,100.5,28.1L100.5,28.1z"/>
	<path class="st7" d="M93.9,26.2c-0.2-0.2-0.6-0.4-0.9-0.2c-1.5,0.6-2.3,1-3.8,1.6c0.1,0.2,0.2,0.3,0.4,0.4c0.2,0.2,0.6,0.3,0.9,0.2
		c1.3-0.6,2-0.9,3.3-1.4C94,26.7,94.1,26.4,93.9,26.2L93.9,26.2z"/>
	<path class="st7" d="M90.5,25.3c-0.2-0.2-0.6-0.3-0.9-0.2c-1.5,0.7-2.3,1-3.8,1.7c0.1,0.2,0.2,0.3,0.4,0.4c0.2,0.2,0.6,0.3,0.9,0.2
		c1.3-0.6,1.9-0.9,3.3-1.5C90.6,25.9,90.7,25.6,90.5,25.3L90.5,25.3z"/>
	<path class="st7" d="M97.2,27.1c-0.2-0.3-0.6-0.4-0.9-0.3c-1.6,0.6-2.3,0.9-3.9,1.6c0.1,0.2,0.2,0.3,0.4,0.5
		c0.2,0.2,0.6,0.4,0.9,0.2c1.3-0.5,2-0.8,3.3-1.3C97.3,27.7,97.4,27.4,97.2,27.1L97.2,27.1z"/>
	<path class="st7" d="M73.5,22.3c-0.2-0.2-0.6-0.3-0.9-0.1c-1.4,0.8-2.1,1.3-3.5,2.2c0.2,0.2,0.2,0.2,0.4,0.4
		c0.2,0.2,0.6,0.3,0.9,0.1c1.2-0.7,1.8-1.1,3.1-1.8C73.7,22.8,73.7,22.5,73.5,22.3L73.5,22.3z"/>
	<path class="st7" d="M18.8,26c-0.3-0.1-0.7,0-0.9,0.2c-1,1.3-1.5,2-2.5,3.3c0.2,0.1,0.3,0.1,0.5,0.2c0.3,0.1,0.7,0,0.9-0.2
		c0.9-1.1,1.3-1.7,2.2-2.8C19.2,26.4,19.1,26.1,18.8,26L18.8,26z"/>
	<path class="st7" d="M22.2,25.2c-0.3-0.1-0.7,0-0.9,0.2c-1.1,1.3-1.6,1.9-2.6,3.2c0.2,0.1,0.3,0.1,0.5,0.2c0.3,0.1,0.7,0,0.9-0.2
		c0.9-1.1,1.3-1.7,2.3-2.8C22.5,25.6,22.5,25.3,22.2,25.2L22.2,25.2z"/>
	<path class="st7" d="M25.6,24.4c-0.3-0.1-0.7,0-0.9,0.2c-1.1,1.3-1.6,1.9-2.7,3.2c0.2,0.1,0.3,0.1,0.5,0.2c0.3,0.1,0.7,0,0.9-0.2
		c0.9-1.1,1.4-1.6,2.3-2.7C25.9,24.9,25.8,24.6,25.6,24.4L25.6,24.4z"/>
	<path class="st7" d="M15.5,26.9c-0.3-0.1-0.7,0-0.9,0.3c-1,1.3-1.5,2-2.5,3.3c0.2,0.1,0.3,0.1,0.5,0.2c0.3,0.1,0.7,0,0.9-0.3
		c0.8-1.2,1.3-1.7,2.1-2.9C15.8,27.4,15.8,27.1,15.5,26.9L15.5,26.9z"/>
	<path class="st7" d="M8.8,29c-0.3-0.1-0.7,0-0.9,0.3c-1,1.4-1.4,2.1-2.3,3.5c0.2,0.1,0.3,0.1,0.5,0.2c0.3,0.1,0.7,0,0.9-0.3
		c0.8-1.2,1.2-1.8,2-3C9.2,29.4,9.1,29.1,8.8,29L8.8,29z"/>
	<path class="st7" d="M56.4,21.2c-0.3-0.2-0.7-0.2-0.9,0c-1.3,1-2,1.5-3.3,2.5c0.2,0.1,0.3,0.2,0.5,0.3c0.3,0.2,0.7,0.2,0.9,0
		c1.1-0.9,1.7-1.3,2.8-2.2C56.6,21.7,56.6,21.4,56.4,21.2L56.4,21.2z"/>
	<path class="st7" d="M12.1,27.9c-0.3-0.1-0.7,0-0.9,0.3c-1,1.4-1.5,2-2.4,3.4c0.2,0.1,0.3,0.1,0.5,0.2c0.3,0.1,0.7,0,0.9-0.3
		c0.8-1.2,1.2-1.8,2.1-2.9C12.5,28.3,12.4,28,12.1,27.9L12.1,27.9z"/>
	<path class="st7" d="M28.9,23.8c-0.3-0.1-0.7-0.1-0.9,0.2c-1.1,1.2-1.7,1.9-2.7,3.1c0.2,0.1,0.3,0.1,0.5,0.2c0.3,0.1,0.7,0,0.9-0.2
		c0.9-1.1,1.4-1.6,2.4-2.7C29.3,24.2,29.2,23.9,28.9,23.8L28.9,23.8z"/>
	<path class="st7" d="M46,21.6c-0.3-0.2-0.7-0.1-0.9,0.1c-1.3,1.1-1.9,1.6-3.1,2.8c0.2,0.1,0.3,0.2,0.5,0.3c0.3,0.2,0.7,0.1,0.9-0.1
		c1-1,1.6-1.4,2.7-2.4C46.3,22.1,46.3,21.8,46,21.6L46,21.6z"/>
	<path class="st7" d="M49.5,21.4c-0.3-0.2-0.7-0.2-0.9,0c-1.3,1.1-1.9,1.6-3.1,2.7c0.2,0.1,0.3,0.2,0.5,0.3c0.3,0.2,0.7,0.1,0.9-0.1
		c1.1-0.9,1.6-1.4,2.7-2.3C49.7,21.9,49.7,21.6,49.5,21.4L49.5,21.4z"/>
	<path class="st7" d="M32.4,23.2c-0.3-0.1-0.7-0.1-0.9,0.2c-1.2,1.2-1.7,1.8-2.8,3c0.2,0.1,0.3,0.2,0.5,0.3c0.3,0.1,0.7,0.1,0.9-0.2
		c1-1,1.4-1.6,2.4-2.6C32.7,23.6,32.6,23.3,32.4,23.2L32.4,23.2z"/>
	<path class="st7" d="M52.9,21.3c-0.3-0.2-0.7-0.2-0.9,0c-1.3,1-1.9,1.6-3.2,2.6c0.2,0.1,0.3,0.2,0.5,0.3c0.3,0.2,0.7,0.2,0.9,0
		c1.1-0.9,1.6-1.4,2.8-2.2C53.2,21.8,53.2,21.5,52.9,21.3L52.9,21.3z"/>
	<path class="st7" d="M42.6,21.9c-0.3-0.2-0.7-0.1-0.9,0.1c-1.2,1.1-1.8,1.7-3,2.8c0.2,0.1,0.3,0.2,0.5,0.3c0.3,0.2,0.7,0.1,0.9-0.1
		c1-1,1.5-1.5,2.6-2.4C42.9,22.3,42.9,22,42.6,21.9L42.6,21.9z"/>
	<path class="st7" d="M35.8,22.6c-0.3-0.2-0.7-0.1-0.9,0.1c-1.2,1.2-1.8,1.8-2.9,3c0.2,0.1,0.3,0.2,0.5,0.3c0.3,0.1,0.7,0.1,0.9-0.1
		c1-1,1.5-1.5,2.5-2.5C36.1,23.1,36,22.8,35.8,22.6L35.8,22.6z"/>
	<path class="st7" d="M39.2,22.2c-0.3-0.2-0.7-0.1-0.9,0.1c-1.2,1.1-1.8,1.7-2.9,2.9c0.2,0.1,0.3,0.2,0.5,0.3
		c0.3,0.2,0.7,0.1,0.9-0.1c1-1,1.5-1.5,2.6-2.5C39.5,22.7,39.5,22.4,39.2,22.2L39.2,22.2z"/>
	<g>
		<defs>
			<rect id="SVGID_5_" y="0" width="113" height="106"/>
		</defs>
		<clipPath id="SVGID_6_">
			<use xlink:href="#SVGID_5_"  style="overflow:visible;"/>
		</clipPath>
		<path class="st8" d="M1.4,38.9c0,0,23.4-10.7,55-10.7c31.3,0,53.9,10.2,53.9,10.2"/>
		<path class="st9" d="M1.4,42c0,0,23.4-10.7,55-10.7c31.3,0,53.9,10.2,53.9,10.2"/>
		<path class="st8" d="M1.7,45.8c0,0,23.4-10.7,55-10.7c31.3,0,53.9,10.2,53.9,10.2"/>
	</g>
	<path class="st7" d="M41,51.4c-0.6,0.4-1.2,1.8-1.3,2.6c0,0-0.5,2.1-0.1,3.7c0.4,1.6,1,3.5,2.6,4.7c1.6,1.2,4.7,1.2,5.3,0.1
		c0,0,0-0.3-0.2-0.4c-0.2-0.1-1-0.6-0.8-1.7c0.1-1,0.7-4.1,0.5-5.2c-0.2-1.1-0.7-2.3-1.9-3.2c-1.2-0.9-2.2-1-3-1
		C41.8,51.1,41.2,51.3,41,51.4L41,51.4z"/>
	<path class="st7" d="M28.8,60.3c0.5-0.6,1.9-0.9,2.7-0.9c0,0,2.1-0.2,3.7,0.4c1.6,0.6,3.3,1.5,4.3,3.2c1,1.7,0.5,4.9-0.6,5.3
		c0,0-0.3,0-0.3-0.2c-0.1-0.2-0.5-1.1-1.5-1.1c-1,0-4.1,0.1-5.1-0.2c-1.1-0.3-2.2-1-2.9-2.3c-0.7-1.4-0.7-2.4-0.6-3.2
		C28.4,61,28.6,60.5,28.8,60.3L28.8,60.3z"/>
	<path class="st7" d="M71.2,51.2c0.6,0.4,1.2,1.8,1.3,2.6c0,0,0.5,2.1,0.1,3.7c-0.4,1.6-1,3.5-2.6,4.7c-1.6,1.2-4.7,1.2-5.3,0.1
		c0,0,0-0.3,0.2-0.4c0.2-0.1,1-0.6,0.8-1.7c-0.1-1-0.7-4.1-0.5-5.2c0.2-1.1,0.7-2.3,1.9-3.2c1.2-0.9,2.2-1,3-1
		C70.5,50.9,71,51,71.2,51.2L71.2,51.2z"/>
	<path class="st7" d="M83.5,60c-0.5-0.6-1.9-0.9-2.7-0.9c0,0-2.1-0.2-3.7,0.4c-1.6,0.6-3.3,1.5-4.3,3.2c-1,1.7-0.5,4.9,0.6,5.3
		c0,0,0.3,0,0.3-0.2c0.1-0.2,0.5-1.1,1.5-1.1c1,0,4.1,0.1,5.1-0.2c1.1-0.3,2.2-1,2.9-2.3c0.7-1.4,0.7-2.4,0.6-3.2
		C83.8,60.7,83.6,60.2,83.5,60L83.5,60z"/>
	<path class="st7" d="M3.2,6.7c0,0,0-0.1,0-0.1c0-3.1,1.2-3.4,2.7-3.4c1.5,0,2.8,0.4,2.8,3.5c0,3.1-2.7,5.7-2.7,5.7S3.2,9.8,3.2,6.7
		L3.2,6.7z"/>
	<path class="st7" d="M8.4,7.4C8.4,7.3,8.4,7.3,8.4,7.4C7.9,5.7,7.4,5.8,6.9,6C6.3,6.2,5.9,6.6,6.4,8.2c0.5,1.6,1.8,2.4,1.8,2.4
		S8.8,8.9,8.4,7.4L8.4,7.4z"/>
	<path class="st7" d="M3.5,7.4C3.5,7.4,3.5,7.3,3.5,7.4C3.9,5.8,4.4,5.8,4.9,6c0.6,0.2,0.9,0.6,0.5,2.2C5,9.8,3.7,10.7,3.7,10.7
		S3,9,3.5,7.4L3.5,7.4z"/>
	<path class="st7" d="M9.2,5C9.2,5,9.2,5,9.2,5C8.4,3,7.7,3.1,7,3.6C6.3,4,5.8,4.6,6.6,6.7c0.8,2,2.8,2.9,2.8,2.9S10.1,7.1,9.2,5
		L9.2,5z"/>
	<path class="st7" d="M2.6,4.9C2.6,4.9,2.7,4.9,2.6,4.9C3.5,2.8,4.1,3,4.9,3.4c0.7,0.4,1.2,1.1,0.4,3.1c-0.8,2-2.8,2.9-2.8,2.9
		S1.8,7,2.6,4.9L2.6,4.9z"/>
	<path class="st7" d="M4.3,5.7C4.3,5.7,4.3,5.7,4.3,5.7c0-2.1,0.7-2.3,1.6-2.3c0.9,0,1.6,0.2,1.7,2.3C7.6,7.8,6,9.5,6,9.5
		S4.3,7.8,4.3,5.7L4.3,5.7z"/>
	<path class="st7" d="M2.1,3C2.1,3,2.1,3,2.1,3C3,0.9,3.6,1.1,4.3,1.5C5.1,2,5.6,2.6,4.8,4.6C4,6.7,2,7.5,2,7.5S1.3,5.1,2.1,3L2.1,3
		z"/>
	<path class="st7" d="M9.6,3C9.6,2.9,9.6,2.9,9.6,3C8.8,0.9,8.1,1,7.4,1.5C6.7,1.9,6.2,2.6,7,4.6c0.8,2,2.8,2.9,2.8,2.9
		S10.5,5,9.6,3L9.6,3z"/>
	<path class="st7" d="M3.5,2.7C3.5,2.7,3.5,2.6,3.5,2.7C4.3,0.6,5,0.8,5.7,1.2C6.5,1.6,7,2.2,6.2,4.3c-0.8,2-2.8,2.9-2.8,2.9
		S2.7,4.7,3.5,2.7L3.5,2.7z"/>
	<path class="st7" d="M8.5,2.7C8.5,2.6,8.5,2.6,8.5,2.7C7.6,0.6,7,0.7,6.3,1.2C5.5,1.6,5,2.3,5.9,4.3c0.8,2,2.8,2.9,2.8,2.9
		S9.4,4.7,8.5,2.7L8.5,2.7z"/>
	<g>
		<defs>
			<rect id="SVGID_7_" y="0" width="113" height="106"/>
		</defs>
		<clipPath id="SVGID_8_">
			<use xlink:href="#SVGID_7_"  style="overflow:visible;"/>
		</clipPath>
		<path class="st10" d="M9.4,1.1C9.4,1.1,9.3,1.1,9.4,1.1c-1.1-1.5-5.9-1.5-6.9,0c0,0,0,0-0.1,0.1C1.3,2.8,1.6,4.9,1.6,4.9
			s1.6-0.3,2.7-1.4c0.4,1.6,1.6,2.7,1.6,2.7S7,5.1,7.4,3.5c1.2,1.1,2.8,1.4,2.8,1.4S10.5,2.7,9.4,1.1L9.4,1.1z"/>
	</g>
	<path class="st7" d="M13.4,6.6c0,0,0-0.1,0-0.1c0-3.1,1.2-3.4,2.7-3.4c1.5,0,2.8,0.4,2.8,3.5c0,3.1-2.7,5.7-2.7,5.7
		S13.4,9.8,13.4,6.6L13.4,6.6z"/>
	<path class="st7" d="M18.6,7.3C18.6,7.3,18.6,7.3,18.6,7.3c-0.5-1.6-1-1.6-1.5-1.4c-0.5,0.2-0.9,0.6-0.5,2.2
		c0.5,1.6,1.8,2.4,1.8,2.4S19.1,8.9,18.6,7.3L18.6,7.3z"/>
	<path class="st7" d="M13.7,7.3C13.7,7.3,13.7,7.3,13.7,7.3c0.5-1.6,0.9-1.6,1.5-1.4c0.6,0.2,0.9,0.6,0.5,2.2
		c-0.4,1.6-1.8,2.5-1.8,2.5S13.2,8.9,13.7,7.3L13.7,7.3z"/>
	<path class="st7" d="M19.4,5C19.4,5,19.4,4.9,19.4,5c-0.9-2.1-1.5-1.9-2.3-1.5C16.5,4,16,4.6,16.8,6.6c0.8,2,2.8,2.9,2.8,2.9
		S20.3,7,19.4,5L19.4,5z"/>
	<path class="st7" d="M12.8,4.9C12.8,4.9,12.9,4.8,12.8,4.9c0.8-2.1,1.5-1.9,2.2-1.5c0.7,0.4,1.2,1.1,0.4,3.1
		c-0.8,2-2.8,2.9-2.8,2.9S12,6.9,12.8,4.9L12.8,4.9z"/>
	<path class="st7" d="M14.5,5.7C14.5,5.7,14.5,5.6,14.5,5.7c0-2.1,0.7-2.3,1.6-2.3c0.9,0,1.6,0.2,1.7,2.3c0,2.1-1.6,3.7-1.6,3.7
		S14.5,7.8,14.5,5.7L14.5,5.7z"/>
	<path class="st7" d="M12.3,3C12.3,2.9,12.4,2.9,12.3,3c0.8-2.1,1.5-1.9,2.2-1.5c0.7,0.4,1.2,1.1,0.4,3.1c-0.8,2-2.8,2.9-2.8,2.9
		S11.5,5,12.3,3L12.3,3z"/>
	<path class="st7" d="M19.8,2.9C19.8,2.9,19.8,2.9,19.8,2.9C19,0.8,18.3,1,17.6,1.5c-0.7,0.5-1.2,1.1-0.4,3.1c0.8,2,2.8,2.9,2.8,2.9
		S20.7,5,19.8,2.9L19.8,2.9z"/>
	<path class="st7" d="M13.7,2.7C13.7,2.6,13.7,2.6,13.7,2.7c0.8-2.1,1.5-1.9,2.2-1.5c0.7,0.4,1.2,1.1,0.4,3.1
		c-0.8,2-2.8,2.9-2.8,2.9S12.9,4.7,13.7,2.7L13.7,2.7z"/>
	<g>
		<defs>
			<rect id="SVGID_9_" y="0" width="113" height="106"/>
		</defs>
		<clipPath id="SVGID_10_">
			<use xlink:href="#SVGID_9_"  style="overflow:visible;"/>
		</clipPath>
		<path class="st11" d="M18.7,2.6C18.7,2.6,18.7,2.6,18.7,2.6c-0.9-2.1-1.5-1.9-2.3-1.5c-0.7,0.5-1.2,1.1-0.4,3.1
			c0.8,2,2.8,2.9,2.8,2.9S19.6,4.7,18.7,2.6L18.7,2.6z"/>
		<path class="st11" d="M19.6,1.1C19.6,1.1,19.6,1,19.6,1.1c-1.1-1.5-5.9-1.5-6.9,0c0,0,0,0-0.1,0.1c-1.1,1.6-0.8,3.7-0.8,3.7
			s1.6-0.3,2.7-1.4c0.4,1.6,1.6,2.7,1.6,2.7s1.1-1.2,1.5-2.8c1.2,1.1,2.8,1.4,2.8,1.4S20.7,2.6,19.6,1.1L19.6,1.1z"/>
	</g>
	<path class="st7" d="M23.6,6.8c0,0,0-0.1,0-0.1c0-3.1,1.2-3.4,2.7-3.4c1.5,0,2.8,0.4,2.8,3.5c0,3.1-2.7,5.7-2.7,5.7
		S23.7,9.9,23.6,6.8L23.6,6.8z"/>
	<path class="st7" d="M28.9,7.5C28.9,7.5,28.8,7.4,28.9,7.5c-0.5-1.6-1-1.6-1.5-1.4c-0.5,0.2-0.9,0.6-0.5,2.2
		c0.5,1.6,1.8,2.4,1.8,2.4S29.3,9.1,28.9,7.5L28.9,7.5z"/>
	<path class="st7" d="M23.9,7.5C23.9,7.5,23.9,7.5,23.9,7.5c0.5-1.6,0.9-1.6,1.5-1.4c0.6,0.2,0.9,0.6,0.5,2.2
		c-0.4,1.6-1.8,2.5-1.8,2.5S23.5,9.1,23.9,7.5L23.9,7.5z"/>
	<path class="st7" d="M29.7,5.2C29.7,5.1,29.7,5.1,29.7,5.2c-0.9-2.1-1.5-1.9-2.3-1.5c-0.7,0.5-1.2,1.1-0.4,3.1
		c0.8,2,2.8,2.9,2.8,2.9S30.5,7.2,29.7,5.2L29.7,5.2z"/>
	<path class="st7" d="M23.1,5.1C23.1,5,23.1,5,23.1,5.1c0.8-2.1,1.5-1.9,2.2-1.5c0.7,0.4,1.2,1.1,0.4,3.1C25,8.7,23,9.6,23,9.6
		S22.3,7.1,23.1,5.1L23.1,5.1z"/>
	<path class="st7" d="M24.8,5.9C24.8,5.8,24.8,5.8,24.8,5.9c0-2.1,0.7-2.3,1.6-2.3c0.9,0,1.6,0.2,1.7,2.3c0,2.1-1.6,3.7-1.6,3.7
		S24.8,7.9,24.8,5.9L24.8,5.9z"/>
	<path class="st7" d="M22.6,3.1C22.6,3.1,22.6,3.1,22.6,3.1c0.8-2.1,1.5-1.9,2.2-1.5c0.7,0.4,1.2,1.1,0.4,3.1
		c-0.8,2-2.8,2.9-2.8,2.9S21.8,5.2,22.6,3.1L22.6,3.1z"/>
	<path class="st7" d="M30.1,3.1C30.1,3.1,30.1,3,30.1,3.1c-0.9-2.1-1.5-1.9-2.3-1.5c-0.7,0.5-1.2,1.1-0.4,3.1c0.8,2,2.8,2.9,2.8,2.9
		S31,5.1,30.1,3.1L30.1,3.1z"/>
	<path class="st7" d="M24,2.8C24,2.8,24,2.8,24,2.8c0.8-2.1,1.5-1.9,2.2-1.5c0.7,0.4,1.2,1.1,0.4,3.1c-0.8,2-2.8,2.9-2.8,2.9
		S23.2,4.9,24,2.8L24,2.8z"/>
	<g>
		<defs>
			<rect id="SVGID_11_" y="0" width="113" height="106"/>
		</defs>
		<clipPath id="SVGID_12_">
			<use xlink:href="#SVGID_11_"  style="overflow:visible;"/>
		</clipPath>
		<path class="st12" d="M29,2.8C29,2.8,29,2.7,29,2.8c-0.9-2.1-1.5-1.9-2.3-1.5c-0.7,0.5-1.2,1.1-0.4,3.1c0.8,2,2.8,2.9,2.8,2.9
			S29.8,4.8,29,2.8L29,2.8z"/>
		<path class="st12" d="M29.9,1.3C29.8,1.2,29.8,1.2,29.9,1.3c-1.1-1.5-5.9-1.5-6.9,0c0,0,0,0-0.1,0.1c-1.1,1.6-0.8,3.7-0.8,3.7
			s1.6-0.3,2.7-1.4c0.4,1.6,1.6,2.7,1.6,2.7s1.1-1.2,1.5-2.8C29.1,4.7,30.7,5,30.7,5S31,2.8,29.9,1.3L29.9,1.3z"/>
	</g>
	<path class="st7" d="M33.5,6.8c0,0,0-0.1,0-0.1c0-3.1,1.2-3.4,2.7-3.4c1.5,0,2.8,0.4,2.8,3.5c0,3.1-2.7,5.7-2.7,5.7
		S33.5,9.9,33.5,6.8L33.5,6.8z"/>
	<path class="st7" d="M38.7,7.5C38.7,7.5,38.7,7.5,38.7,7.5c-0.5-1.6-1-1.6-1.5-1.4c-0.5,0.2-0.9,0.6-0.5,2.2
		c0.5,1.6,1.8,2.4,1.8,2.4S39.2,9.1,38.7,7.5L38.7,7.5z"/>
	<path class="st7" d="M33.8,7.5C33.8,7.5,33.8,7.5,33.8,7.5c0.5-1.6,0.9-1.6,1.5-1.4c0.6,0.2,0.9,0.6,0.5,2.2
		C35.3,10,34,10.9,34,10.9S33.3,9.1,33.8,7.5L33.8,7.5z"/>
	<path class="st7" d="M39.5,5.2C39.5,5.2,39.5,5.1,39.5,5.2c-0.9-2.1-1.5-1.9-2.3-1.5c-0.7,0.5-1.2,1.1-0.4,3.1
		c0.8,2,2.8,2.9,2.8,2.9S40.4,7.2,39.5,5.2L39.5,5.2z"/>
	<path class="st7" d="M32.9,5.1C32.9,5,33,5,32.9,5.1c0.8-2.1,1.5-1.9,2.2-1.5c0.7,0.4,1.2,1.1,0.4,3.1c-0.8,2-2.8,2.9-2.8,2.9
		S32.1,7.1,32.9,5.1L32.9,5.1z"/>
	<path class="st7" d="M34.6,5.9C34.6,5.9,34.6,5.8,34.6,5.9c0-2.1,0.7-2.3,1.6-2.3c0.9,0,1.6,0.2,1.7,2.3c0,2.1-1.6,3.7-1.6,3.7
		S34.6,8,34.6,5.9L34.6,5.9z"/>
	<path class="st7" d="M32.4,3.2C32.4,3.1,32.5,3.1,32.4,3.2c0.8-2.1,1.5-1.9,2.2-1.5c0.7,0.4,1.2,1.1,0.4,3.1
		c-0.8,2-2.8,2.9-2.8,2.9S31.6,5.2,32.4,3.2L32.4,3.2z"/>
	<path class="st7" d="M39.9,3.1C39.9,3.1,39.9,3.1,39.9,3.1c-0.9-2.1-1.5-1.9-2.3-1.5c-0.7,0.5-1.2,1.1-0.4,3.1
		c0.8,2,2.8,2.9,2.8,2.9S40.8,5.2,39.9,3.1L39.9,3.1z"/>
	<path class="st7" d="M33.8,2.8C33.8,2.8,33.8,2.8,33.8,2.8c0.8-2.1,1.5-1.9,2.2-1.5c0.7,0.4,1.2,1.1,0.4,3.1
		c-0.8,2-2.8,2.9-2.8,2.9S33,4.9,33.8,2.8L33.8,2.8z"/>
	<g>
		<defs>
			<rect id="SVGID_13_" y="0" width="113" height="106"/>
		</defs>
		<clipPath id="SVGID_14_">
			<use xlink:href="#SVGID_13_"  style="overflow:visible;"/>
		</clipPath>
		<path class="st13" d="M38.8,2.8C38.8,2.8,38.8,2.7,38.8,2.8c-0.9-2.1-1.5-1.9-2.3-1.5c-0.7,0.5-1.2,1.1-0.4,3.1
			C37,6.5,39,7.3,39,7.3S39.7,4.8,38.8,2.8L38.8,2.8z"/>
		<path class="st13" d="M39.7,1.3C39.7,1.3,39.7,1.2,39.7,1.3c-1.1-1.5-5.9-1.5-6.9,0c0,0,0,0-0.1,0.1c-1.1,1.6-0.8,3.7-0.8,3.7
			s1.6-0.3,2.7-1.4c0.4,1.6,1.6,2.7,1.6,2.7s1.1-1.2,1.5-2.8C38.9,4.7,40.5,5,40.5,5S40.8,2.8,39.7,1.3L39.7,1.3z"/>
	</g>
	<path class="st7" d="M43.6,6.9c0,0,0-0.1,0-0.1c0-3.1,1.2-3.4,2.7-3.4c1.5,0,2.8,0.4,2.8,3.5c0,3.1-2.7,5.7-2.7,5.7
		S43.6,10.1,43.6,6.9L43.6,6.9z"/>
	<path class="st7" d="M48.8,7.6C48.8,7.6,48.8,7.6,48.8,7.6c-0.5-1.6-1-1.6-1.5-1.4c-0.5,0.2-0.9,0.6-0.5,2.2
		c0.5,1.6,1.8,2.4,1.8,2.4S49.3,9.2,48.8,7.6L48.8,7.6z"/>
	<path class="st7" d="M43.9,7.7C43.9,7.6,43.9,7.6,43.9,7.7c0.5-1.6,0.9-1.6,1.5-1.4c0.6,0.2,0.9,0.6,0.5,2.2
		c-0.4,1.6-1.8,2.5-1.8,2.5S43.4,9.3,43.9,7.7L43.9,7.7z"/>
	<path class="st7" d="M49.6,5.3C49.6,5.3,49.6,5.3,49.6,5.3c-0.9-2.1-1.5-1.9-2.3-1.5C46.7,4.3,46.2,4.9,47,7c0.8,2,2.8,2.9,2.8,2.9
		S50.5,7.4,49.6,5.3L49.6,5.3z"/>
	<path class="st7" d="M43,5.2C43.1,5.2,43.1,5.1,43,5.2c0.8-2.1,1.5-1.9,2.2-1.5c0.7,0.4,1.2,1.1,0.4,3.1c-0.8,2-2.8,2.9-2.8,2.9
		S42.2,7.2,43,5.2L43,5.2z"/>
	<path class="st7" d="M44.7,6C44.7,6,44.7,6,44.7,6c0-2.1,0.7-2.3,1.6-2.3c0.9,0,1.6,0.2,1.7,2.3c0,2.1-1.6,3.7-1.6,3.7
		S44.7,8.1,44.7,6L44.7,6z"/>
	<path class="st7" d="M42.5,3.3C42.5,3.3,42.6,3.2,42.5,3.3c0.8-2.1,1.5-1.9,2.2-1.5c0.7,0.4,1.2,1.1,0.4,3.1
		c-0.8,2-2.8,2.9-2.8,2.9S41.7,5.3,42.5,3.3L42.5,3.3z"/>
	<path class="st7" d="M50.1,3.2C50,3.2,50,3.2,50.1,3.2c-0.9-2.1-1.5-1.9-2.3-1.5c-0.7,0.5-1.2,1.1-0.4,3.1c0.8,2,2.8,2.9,2.8,2.9
		S50.9,5.3,50.1,3.2L50.1,3.2z"/>
	<path class="st7" d="M43.9,3C43.9,2.9,43.9,2.9,43.9,3c0.8-2.1,1.5-1.9,2.2-1.5c0.7,0.4,1.2,1.1,0.4,3.1c-0.8,2-2.8,2.9-2.8,2.9
		S43.1,5,43.9,3L43.9,3z"/>
	<g>
		<defs>
			<rect id="SVGID_15_" y="0" width="113" height="106"/>
		</defs>
		<clipPath id="SVGID_16_">
			<use xlink:href="#SVGID_15_"  style="overflow:visible;"/>
		</clipPath>
		<path class="st14" d="M48.9,2.9C48.9,2.9,48.9,2.9,48.9,2.9C48,0.9,47.4,1,46.7,1.5c-0.7,0.5-1.2,1.1-0.4,3.1
			c0.8,2,2.8,2.9,2.8,2.9S49.8,5,48.9,2.9L48.9,2.9z"/>
		<path class="st14" d="M49.8,1.4C49.8,1.4,49.8,1.4,49.8,1.4c-1.1-1.5-5.9-1.5-6.9,0c0,0,0,0-0.1,0.1C41.7,3,42,5.2,42,5.2
			s1.6-0.3,2.7-1.4c0.4,1.6,1.6,2.7,1.6,2.7s1.1-1.2,1.5-2.8c1.2,1.1,2.8,1.4,2.8,1.4S50.9,2.9,49.8,1.4L49.8,1.4z"/>
	</g>
	<path class="st7" d="M53.5,6.8c0,0,0-0.1,0-0.1c0-3.1,1.2-3.4,2.7-3.4c1.5,0,2.8,0.4,2.8,3.5c0,3.1-2.7,5.7-2.7,5.7
		S53.5,9.9,53.5,6.8L53.5,6.8z"/>
	<path class="st7" d="M58.7,7.5C58.7,7.5,58.7,7.4,58.7,7.5c-0.5-1.6-1-1.6-1.5-1.4c-0.5,0.2-0.9,0.6-0.5,2.2
		c0.5,1.6,1.8,2.4,1.8,2.4S59.2,9.1,58.7,7.5L58.7,7.5z"/>
	<path class="st7" d="M53.8,7.5C53.8,7.5,53.8,7.5,53.8,7.5c0.5-1.6,0.9-1.6,1.5-1.4c0.6,0.2,0.9,0.6,0.5,2.2
		C55.4,10,54,10.8,54,10.8S53.4,9.1,53.8,7.5L53.8,7.5z"/>
	<path class="st7" d="M59.6,5.2C59.6,5.1,59.6,5.1,59.6,5.2c-0.9-2.1-1.5-1.9-2.3-1.5c-0.7,0.5-1.2,1.1-0.4,3.1
		c0.8,2,2.8,2.9,2.8,2.9S60.4,7.2,59.6,5.2L59.6,5.2z"/>
	<path class="st7" d="M53,5.1C53,5,53,5,53,5.1c0.8-2.1,1.5-1.9,2.2-1.5c0.7,0.4,1.2,1.1,0.4,3.1c-0.8,2-2.8,2.9-2.8,2.9
		S52.2,7.1,53,5.1L53,5.1z"/>
	<path class="st7" d="M54.6,5.9C54.6,5.8,54.6,5.8,54.6,5.9c0-2.1,0.7-2.3,1.6-2.3c0.9,0,1.6,0.2,1.7,2.3c0,2.1-1.6,3.7-1.6,3.7
		S54.7,7.9,54.6,5.9L54.6,5.9z"/>
	<path class="st7" d="M52.5,3.1C52.5,3.1,52.5,3.1,52.5,3.1c0.8-2.1,1.5-1.9,2.2-1.5c0.7,0.4,1.2,1.1,0.4,3.1
		c-0.8,2-2.8,2.9-2.8,2.9S51.7,5.2,52.5,3.1L52.5,3.1z"/>
	<path class="st7" d="M60,3.1C60,3.1,60,3,60,3.1c-0.9-2.1-1.5-1.9-2.3-1.5c-0.7,0.5-1.2,1.1-0.4,3.1c0.8,2,2.8,2.9,2.8,2.9
		S60.8,5.1,60,3.1L60,3.1z"/>
	<path class="st7" d="M53.8,2.8C53.9,2.8,53.9,2.8,53.8,2.8c0.8-2.1,1.5-1.9,2.2-1.5c0.7,0.4,1.2,1.1,0.4,3.1
		c-0.8,2-2.8,2.9-2.8,2.9S53.1,4.9,53.8,2.8L53.8,2.8z"/>
	<g>
		<defs>
			<rect id="SVGID_17_" y="0" width="113" height="106"/>
		</defs>
		<clipPath id="SVGID_18_">
			<use xlink:href="#SVGID_17_"  style="overflow:visible;"/>
		</clipPath>
		<path class="st15" d="M58.9,2.8C58.8,2.8,58.8,2.7,58.9,2.8c-0.9-2.1-1.5-1.9-2.3-1.5c-0.7,0.5-1.2,1.1-0.4,3.1
			c0.8,2,2.8,2.9,2.8,2.9S59.7,4.8,58.9,2.8L58.9,2.8z"/>
		<path class="st15" d="M59.7,1.3C59.7,1.2,59.7,1.2,59.7,1.3c-1.1-1.5-5.9-1.5-6.9,0c0,0,0,0-0.1,0.1C51.6,2.9,52,5.1,52,5.1
			s1.6-0.3,2.7-1.4c0.4,1.6,1.6,2.7,1.6,2.7s1.1-1.2,1.5-2.8C58.9,4.7,60.6,5,60.6,5S60.9,2.8,59.7,1.3L59.7,1.3z"/>
	</g>
	<path class="st7" d="M63.8,6.9c0,0,0-0.1,0-0.1c0-3.1,1.2-3.4,2.7-3.4c1.5,0,2.8,0.4,2.8,3.5c0,3.1-2.7,5.7-2.7,5.7
		S63.8,10,63.8,6.9L63.8,6.9z"/>
	<path class="st7" d="M69,7.6C69,7.5,69,7.5,69,7.6c-0.5-1.6-1-1.6-1.5-1.4c-0.5,0.2-0.9,0.6-0.5,2.2c0.5,1.6,1.8,2.4,1.8,2.4
		S69.4,9.2,69,7.6L69,7.6z"/>
	<path class="st7" d="M64,7.6C64.1,7.6,64.1,7.6,64,7.6C64.5,6,65,6,65.5,6.2c0.6,0.2,0.9,0.6,0.5,2.2c-0.4,1.6-1.8,2.5-1.8,2.5
		S63.6,9.2,64,7.6L64,7.6z"/>
	<path class="st7" d="M69.8,5.3C69.8,5.2,69.8,5.2,69.8,5.3c-0.9-2.1-1.5-1.9-2.3-1.5c-0.7,0.5-1.2,1.1-0.4,3.1
		C68,8.9,70,9.8,70,9.8S70.7,7.3,69.8,5.3L69.8,5.3z"/>
	<path class="st7" d="M63.2,5.1C63.2,5.1,63.2,5.1,63.2,5.1c0.8-2.1,1.5-1.9,2.2-1.5c0.7,0.4,1.2,1.1,0.4,3.1
		c-0.8,2-2.8,2.9-2.8,2.9S62.4,7.2,63.2,5.1L63.2,5.1z"/>
	<path class="st7" d="M64.9,6C64.9,5.9,64.9,5.9,64.9,6c0-2.1,0.7-2.3,1.6-2.3c0.9,0,1.6,0.2,1.7,2.3c0,2.1-1.6,3.7-1.6,3.7
		S64.9,8,64.9,6L64.9,6z"/>
	<path class="st7" d="M62.7,3.2C62.7,3.2,62.7,3.2,62.7,3.2c0.8-2.1,1.5-1.9,2.2-1.5c0.7,0.4,1.2,1.1,0.4,3.1
		c-0.8,2-2.8,2.9-2.8,2.9S61.9,5.3,62.7,3.2L62.7,3.2z"/>
	<path class="st7" d="M70.2,3.2C70.2,3.1,70.2,3.1,70.2,3.2c-0.9-2.1-1.5-1.9-2.3-1.5c-0.7,0.5-1.2,1.1-0.4,3.1
		c0.8,2,2.8,2.9,2.8,2.9S71.1,5.2,70.2,3.2L70.2,3.2z"/>
	<path class="st7" d="M64.1,2.9C64.1,2.9,64.1,2.8,64.1,2.9c0.8-2.1,1.5-1.9,2.2-1.5c0.7,0.4,1.2,1.1,0.4,3.1C66,6.6,64,7.4,64,7.4
		S63.3,5,64.1,2.9L64.1,2.9z"/>
	<g>
		<defs>
			<rect id="SVGID_19_" y="0" width="113" height="106"/>
		</defs>
		<clipPath id="SVGID_20_">
			<use xlink:href="#SVGID_19_"  style="overflow:visible;"/>
		</clipPath>
		<path class="st16" d="M69.1,2.9C69.1,2.8,69.1,2.8,69.1,2.9c-0.9-2.1-1.5-1.9-2.3-1.5c-0.7,0.5-1.2,1.1-0.4,3.1
			c0.8,2,2.8,2.9,2.8,2.9S69.9,4.9,69.1,2.9L69.1,2.9z"/>
		<path class="st16" d="M70,1.3C70,1.3,69.9,1.3,70,1.3c-1.1-1.5-5.9-1.5-6.9,0c0,0,0,0-0.1,0.1c-1.1,1.6-0.8,3.7-0.8,3.7
			s1.6-0.3,2.7-1.4c0.4,1.6,1.6,2.7,1.6,2.7s1.1-1.2,1.5-2.8c1.2,1.1,2.8,1.4,2.8,1.4S71.1,2.9,70,1.3L70,1.3z"/>
	</g>
	<path class="st7" d="M73.9,6.8c0,0,0-0.1,0-0.1c0-3.1,1.2-3.4,2.7-3.4c1.5,0,2.8,0.4,2.8,3.5c0,3.1-2.7,5.7-2.7,5.7
		S74,9.9,73.9,6.8L73.9,6.8z"/>
	<path class="st7" d="M79.2,7.5C79.2,7.5,79.2,7.5,79.2,7.5c-0.5-1.6-1-1.6-1.5-1.4c-0.5,0.2-0.9,0.6-0.5,2.2
		c0.5,1.6,1.8,2.4,1.8,2.4S79.6,9.1,79.2,7.5L79.2,7.5z"/>
	<path class="st7" d="M74.2,7.5C74.3,7.5,74.3,7.5,74.2,7.5c0.5-1.6,0.9-1.6,1.5-1.4c0.6,0.2,0.9,0.6,0.5,2.2
		c-0.4,1.6-1.8,2.5-1.8,2.5S73.8,9.1,74.2,7.5L74.2,7.5z"/>
	<path class="st7" d="M80,5.2C80,5.2,80,5.1,80,5.2c-0.9-2.1-1.5-1.9-2.3-1.5c-0.7,0.5-1.2,1.1-0.4,3.1c0.8,2,2.8,2.9,2.8,2.9
		S80.9,7.2,80,5.2L80,5.2z"/>
	<path class="st7" d="M73.4,5.1C73.4,5,73.4,5,73.4,5.1c0.8-2.1,1.5-1.9,2.2-1.5c0.7,0.4,1.2,1.1,0.4,3.1c-0.8,2-2.8,2.9-2.8,2.9
		S72.6,7.1,73.4,5.1L73.4,5.1z"/>
	<path class="st7" d="M75.1,5.9C75.1,5.9,75.1,5.8,75.1,5.9c0-2.1,0.7-2.3,1.6-2.3c0.9,0,1.6,0.2,1.7,2.3c0,2.1-1.6,3.7-1.6,3.7
		S75.1,8,75.1,5.9L75.1,5.9z"/>
	<path class="st7" d="M72.9,3.2C72.9,3.1,72.9,3.1,72.9,3.2c0.8-2.1,1.5-1.9,2.2-1.5c0.7,0.4,1.2,1.1,0.4,3.1
		c-0.8,2-2.8,2.9-2.8,2.9S72.1,5.2,72.9,3.2L72.9,3.2z"/>
	<path class="st7" d="M80.4,3.1C80.4,3.1,80.4,3.1,80.4,3.1c-0.9-2.1-1.5-1.9-2.3-1.5c-0.7,0.5-1.2,1.1-0.4,3.1
		c0.8,2,2.8,2.9,2.8,2.9S81.3,5.2,80.4,3.1L80.4,3.1z"/>
	<path class="st7" d="M74.3,2.8C74.3,2.8,74.3,2.8,74.3,2.8c0.8-2.1,1.5-1.9,2.2-1.5c0.7,0.4,1.2,1.1,0.4,3.1
		c-0.8,2-2.8,2.9-2.8,2.9S73.5,4.9,74.3,2.8L74.3,2.8z"/>
	<g>
		<defs>
			<rect id="SVGID_21_" y="0" width="113" height="106"/>
		</defs>
		<clipPath id="SVGID_22_">
			<use xlink:href="#SVGID_21_"  style="overflow:visible;"/>
		</clipPath>
		<path class="st17" d="M79.3,2.8C79.3,2.8,79.3,2.7,79.3,2.8c-0.9-2.1-1.5-1.9-2.3-1.5c-0.7,0.5-1.2,1.1-0.4,3.1
			c0.8,2,2.8,2.9,2.8,2.9S80.1,4.8,79.3,2.8L79.3,2.8z"/>
		<path class="st17" d="M80.2,1.3C80.2,1.3,80.1,1.2,80.2,1.3c-1.1-1.5-5.9-1.5-6.9,0c0,0,0,0-0.1,0.1c-1.1,1.6-0.8,3.7-0.8,3.7
			s1.6-0.3,2.7-1.4c0.4,1.6,1.6,2.7,1.6,2.7s1.1-1.2,1.5-2.8C79.4,4.7,81,5,81,5S81.3,2.8,80.2,1.3L80.2,1.3z"/>
	</g>
	<path class="st7" d="M84.1,6.9c0,0,0-0.1,0-0.1c0-3.1,1.2-3.4,2.7-3.4c1.5,0,2.8,0.4,2.8,3.5c0,3.1-2.7,5.7-2.7,5.7
		S84.1,10,84.1,6.9L84.1,6.9z"/>
	<path class="st7" d="M89.3,7.6C89.3,7.6,89.3,7.6,89.3,7.6c-0.5-1.6-1-1.6-1.5-1.4c-0.5,0.2-0.9,0.6-0.5,2.2
		c0.5,1.6,1.8,2.4,1.8,2.4S89.8,9.2,89.3,7.6L89.3,7.6z"/>
	<path class="st7" d="M84.4,7.6C84.4,7.6,84.4,7.6,84.4,7.6C84.8,6,85.3,6,85.9,6.3c0.6,0.2,0.9,0.6,0.5,2.2
		c-0.4,1.6-1.8,2.5-1.8,2.5S83.9,9.2,84.4,7.6L84.4,7.6z"/>
	<path class="st7" d="M90.1,5.3C90.1,5.3,90.1,5.2,90.1,5.3c-0.9-2.1-1.5-1.9-2.3-1.5c-0.7,0.5-1.2,1.1-0.4,3.1
		c0.8,2,2.8,2.9,2.8,2.9S91,7.3,90.1,5.3L90.1,5.3z"/>
	<path class="st7" d="M83.5,5.2C83.6,5.1,83.6,5.1,83.5,5.2c0.8-2.1,1.5-1.9,2.2-1.5c0.7,0.4,1.2,1.1,0.4,3.1
		c-0.8,2-2.8,2.9-2.8,2.9S82.7,7.2,83.5,5.2L83.5,5.2z"/>
	<path class="st7" d="M85.2,6C85.2,6,85.2,5.9,85.2,6c0-2.1,0.7-2.3,1.6-2.3c0.9,0,1.6,0.2,1.7,2.3s-1.6,3.7-1.6,3.7
		S85.2,8.1,85.2,6L85.2,6z"/>
	<path class="st7" d="M83,3.3C83,3.2,83.1,3.2,83,3.3c0.8-2.1,1.5-1.9,2.2-1.5c0.7,0.4,1.2,1.1,0.4,3.1c-0.8,2-2.8,2.9-2.8,2.9
		S82.2,5.3,83,3.3L83,3.3z"/>
	<path class="st7" d="M90.6,3.2C90.5,3.2,90.5,3.2,90.6,3.2c-0.9-2.1-1.5-1.9-2.3-1.5c-0.7,0.5-1.2,1.1-0.4,3.1
		c0.8,2,2.8,2.9,2.8,2.9S91.4,5.3,90.6,3.2L90.6,3.2z"/>
	<path class="st7" d="M84.4,2.9C84.4,2.9,84.4,2.9,84.4,2.9c0.8-2.1,1.5-1.9,2.2-1.5c0.7,0.4,1.2,1.1,0.4,3.1
		c-0.8,2-2.8,2.9-2.8,2.9S83.6,5,84.4,2.9L84.4,2.9z"/>
	<g>
		<defs>
			<rect id="SVGID_23_" y="0" width="113" height="106"/>
		</defs>
		<clipPath id="SVGID_24_">
			<use xlink:href="#SVGID_23_"  style="overflow:visible;"/>
		</clipPath>
		<path class="st18" d="M89.4,2.9C89.4,2.9,89.4,2.8,89.4,2.9c-0.9-2.1-1.5-1.9-2.3-1.5c-0.7,0.5-1.2,1.1-0.4,3.1
			c0.8,2,2.8,2.9,2.8,2.9S90.3,4.9,89.4,2.9L89.4,2.9z"/>
		<path class="st18" d="M90.3,1.4C90.3,1.4,90.3,1.3,90.3,1.4c-1.1-1.5-5.9-1.5-6.9,0c0,0,0,0-0.1,0.1c-1.1,1.6-0.8,3.7-0.8,3.7
			s1.6-0.3,2.7-1.4c0.4,1.6,1.6,2.7,1.6,2.7s1.1-1.2,1.5-2.8c1.2,1.1,2.8,1.4,2.8,1.4S91.4,2.9,90.3,1.4L90.3,1.4z"/>
	</g>
	<path class="st7" d="M94.3,7c0,0,0-0.1,0-0.1c0-3.1,1.2-3.4,2.7-3.4c1.5,0,2.8,0.4,2.8,3.5c0,3.1-2.7,5.7-2.7,5.7S94.4,10.1,94.3,7
		L94.3,7z"/>
	<path class="st7" d="M99.5,7.7C99.5,7.7,99.5,7.6,99.5,7.7c-0.5-1.6-1-1.6-1.5-1.4c-0.5,0.2-0.9,0.6-0.5,2.2
		c0.5,1.6,1.8,2.4,1.8,2.4S100,9.3,99.5,7.7L99.5,7.7z"/>
	<path class="st7" d="M94.6,7.7C94.6,7.7,94.6,7.7,94.6,7.7c0.5-1.6,0.9-1.6,1.5-1.4c0.6,0.2,0.9,0.6,0.5,2.2
		c-0.4,1.6-1.8,2.5-1.8,2.5S94.2,9.3,94.6,7.7L94.6,7.7z"/>
	<path class="st7" d="M100.4,5.4C100.4,5.4,100.4,5.3,100.4,5.4c-0.9-2.1-1.5-1.9-2.3-1.5C97.4,4.4,96.9,5,97.8,7
		c0.8,2,2.8,2.9,2.8,2.9S101.2,7.4,100.4,5.4L100.4,5.4z"/>
	<path class="st7" d="M93.8,5.3C93.8,5.2,93.8,5.2,93.8,5.3c0.8-2.1,1.5-1.9,2.2-1.5c0.7,0.4,1.2,1.1,0.4,3.1
		c-0.8,2-2.8,2.9-2.8,2.9S93,7.3,93.8,5.3L93.8,5.3z"/>
	<path class="st7" d="M95.5,6.1C95.5,6.1,95.5,6,95.5,6.1c0-2.1,0.7-2.3,1.6-2.3c0.9,0,1.6,0.2,1.7,2.3c0,2.1-1.6,3.7-1.6,3.7
		S95.5,8.1,95.5,6.1L95.5,6.1z"/>
	<path class="st7" d="M93.3,3.4C93.3,3.3,93.3,3.3,93.3,3.4c0.8-2.1,1.5-1.9,2.2-1.5c0.7,0.4,1.2,1.1,0.4,3.1
		c-0.8,2-2.8,2.9-2.8,2.9S92.5,5.4,93.3,3.4L93.3,3.4z"/>
	<path class="st7" d="M100.8,3.3C100.8,3.3,100.8,3.2,100.8,3.3c-0.9-2.1-1.5-1.9-2.3-1.5c-0.7,0.5-1.2,1.1-0.4,3.1
		C99,7,101,7.8,101,7.8S101.6,5.3,100.8,3.3L100.8,3.3z"/>
	<path class="st7" d="M94.7,3C94.7,3,94.7,3,94.7,3c0.8-2.1,1.5-1.9,2.2-1.5c0.7,0.4,1.2,1.1,0.4,3.1c-0.8,2-2.8,2.9-2.8,2.9
		S93.9,5.1,94.7,3L94.7,3z"/>
	<path class="st7" d="M99.7,3C99.7,3,99.6,2.9,99.7,3c-0.9-2.1-1.5-1.9-2.3-1.5c-0.7,0.5-1.2,1.1-0.4,3.1c0.8,2,2.8,2.9,2.8,2.9
		S100.5,5,99.7,3L99.7,3z"/>
	<path class="st7" d="M100.5,1.5C100.5,1.4,100.5,1.4,100.5,1.5c-1.1-1.5-5.9-1.5-6.9,0c0,0,0,0-0.1,0.1c-1.1,1.6-0.8,3.7-0.8,3.7
		s1.6-0.3,2.7-1.4c0.4,1.6,1.6,2.7,1.6,2.7s1.1-1.2,1.5-2.8c1.2,1.1,2.8,1.4,2.8,1.4S101.7,3,100.5,1.5L100.5,1.5z"/>
	<path class="st7" d="M104.5,6.9c0,0,0-0.1,0-0.1c0-3.1,1.2-3.4,2.7-3.4c1.5,0,2.8,0.4,2.8,3.5c0,3.1-2.7,5.7-2.7,5.7
		S104.5,10.1,104.5,6.9L104.5,6.9z"/>
	<path class="st7" d="M109.7,7.6C109.7,7.6,109.7,7.6,109.7,7.6c-0.5-1.6-1-1.6-1.5-1.4c-0.6,0.2-0.9,0.6-0.5,2.2
		c0.5,1.6,1.8,2.4,1.8,2.4S110.2,9.2,109.7,7.6L109.7,7.6z"/>
	<path class="st7" d="M104.8,7.7C104.8,7.6,104.8,7.6,104.8,7.7c0.5-1.6,0.9-1.6,1.5-1.4c0.6,0.2,0.9,0.6,0.5,2.2
		c-0.4,1.6-1.8,2.5-1.8,2.5S104.4,9.3,104.8,7.7L104.8,7.7z"/>
	<path class="st7" d="M110.6,5.3C110.6,5.3,110.6,5.3,110.6,5.3c-0.9-2.1-1.5-1.9-2.3-1.5c-0.7,0.5-1.2,1.1-0.4,3.1
		c0.8,2,2.8,2.9,2.8,2.9S111.4,7.4,110.6,5.3L110.6,5.3z"/>
	<path class="st7" d="M104,5.2C104,5.2,104,5.1,104,5.2c0.8-2.1,1.5-1.9,2.2-1.5c0.7,0.4,1.2,1.1,0.4,3.1c-0.8,2-2.8,2.9-2.8,2.9
		S103.2,7.2,104,5.2L104,5.2z"/>
	<path class="st7" d="M105.7,6C105.7,6,105.7,6,105.7,6c0-2.1,0.7-2.3,1.6-2.3c0.9,0,1.6,0.2,1.7,2.3c0,2.1-1.6,3.7-1.6,3.7
		S105.7,8.1,105.7,6L105.7,6z"/>
	<path class="st7" d="M103.5,3.3C103.5,3.3,103.5,3.2,103.5,3.3c0.8-2.1,1.5-1.9,2.2-1.5c0.7,0.4,1.2,1.1,0.4,3.1
		c-0.8,2-2.8,2.9-2.8,2.9S102.7,5.3,103.5,3.3L103.5,3.3z"/>
	<path class="st7" d="M111,3.2C111,3.2,111,3.2,111,3.2c-0.9-2.1-1.5-1.9-2.3-1.5c-0.7,0.5-1.2,1.1-0.4,3.1c0.8,2,2.8,2.9,2.8,2.9
		S111.8,5.3,111,3.2L111,3.2z"/>
	<path class="st7" d="M104.9,3C104.9,2.9,104.9,2.9,104.9,3c0.8-2.1,1.5-1.9,2.2-1.5c0.7,0.4,1.2,1.1,0.4,3.1
		c-0.8,2-2.8,2.9-2.8,2.9S104.1,5,104.9,3L104.9,3z"/>
	<g>
		<defs>
			<rect id="SVGID_25_" y="0" width="113" height="106"/>
		</defs>
		<clipPath id="SVGID_26_">
			<use xlink:href="#SVGID_25_"  style="overflow:visible;"/>
		</clipPath>
		<path class="st19" d="M109.9,2.9C109.9,2.9,109.8,2.9,109.9,2.9c-0.9-2.1-1.5-1.9-2.3-1.5c-0.7,0.5-1.2,1.1-0.4,3.1
			c0.8,2,2.8,2.9,2.8,2.9S110.7,5,109.9,2.9L109.9,2.9z"/>
		<path class="st19" d="M110.7,1.4C110.7,1.4,110.7,1.4,110.7,1.4c-1.1-1.5-5.9-1.5-6.9,0c0,0,0,0-0.1,0.1C102.7,3,103,5.2,103,5.2
			s1.6-0.3,2.7-1.4c0.4,1.6,1.6,2.7,1.6,2.7s1.1-1.2,1.5-2.8c1.2,1.1,2.8,1.4,2.8,1.4S111.9,2.9,110.7,1.4L110.7,1.4z"/>
	</g>
	<path class="st20" d="M46.6,81.5c-0.1-2.6,0.2-5.3,0.9-7.8c0.3-1.3,0.7-2.6,1.2-3.8c0.6-1.2,1.2-2.4,1.9-3.5l0.1,0
		c-0.4,1.3-0.9,2.5-1.3,3.7c-0.5,1.2-1,2.4-1.4,3.7C47.3,76.2,46.8,78.8,46.6,81.5L46.6,81.5L46.6,81.5z"/>
	<path class="st20" d="M65.7,81.4c-0.1-2.6-0.6-5.2-1.3-7.7C64,72.4,63.5,71.2,63,70c-0.4-1.2-0.9-2.4-1.3-3.7l0.1,0
		c0.7,1.1,1.3,2.3,1.9,3.5c0.5,1.2,0.9,2.5,1.2,3.8C65.6,76.1,65.9,78.7,65.7,81.4L65.7,81.4L65.7,81.4z"/>
</g>
</svg>
