<?xml version="1.0" encoding="utf-8"?>
<!-- Generator: Adobe Illustrator 16.0.0, SVG Export Plug-In . SVG Version: 6.00 Build 0)  -->
<!DOCTYPE svg PUBLIC "-//W3C//DTD SVG 1.1//EN" "http://www.w3.org/Graphics/SVG/1.1/DTD/svg11.dtd">
<svg version="1.1" id="Layer_1" xmlns="http://www.w3.org/2000/svg" xmlns:xlink="http://www.w3.org/1999/xlink" x="0px" y="0px"
	 width="98.125px" height="91.85px" viewBox="0 0 98.125 91.85" enable-background="new 0 0 98.125 91.85" xml:space="preserve">
<path fill="#FDF7E7" d="M0,0v47.443l49.063,44.405l49.062-44.405V0H0z M77.705,63.229L77.705,63.229
	c-11.911-12.789-24.146-18.998-28.08-20.78c1.282-1.574,2.258-3.392,2.895-5.374c3.895,1.603,17.172,7.77,29.981,21.812l0,0
	L77.705,63.229z M44.909,40.116c0.013,0.414-0.312,0.761-0.727,0.773c-0.008,0-0.016,0-0.024,0c-0.403,0-0.737-0.32-0.75-0.728
	c-0.005-0.172-0.008-0.344-0.008-0.516c0-0.354,0.012-0.706,0.034-1.058c0.027-0.412,0.386-0.716,0.797-0.7
	c0.413,0.027,0.727,0.384,0.701,0.799c-0.021,0.316-0.031,0.638-0.031,0.959C44.901,39.803,44.904,39.96,44.909,40.116z
	 M43.032,33.627c-0.097,0-0.194-0.02-0.289-0.06c-0.383-0.158-0.564-0.599-0.404-0.98c0.2-0.479,0.426-0.958,0.672-1.421
	c0.194-0.366,0.648-0.505,1.015-0.31c0.366,0.192,0.505,0.647,0.311,1.016c-0.224,0.421-0.43,0.855-0.612,1.292
	C43.605,33.452,43.326,33.627,43.032,33.627z M42.299,35.004c0.406,0.085,0.666,0.481,0.582,0.889
	c-0.097,0.466-0.174,0.941-0.225,1.412c-0.043,0.385-0.368,0.668-0.746,0.668c-0.027,0-0.056-0.002-0.083-0.004
	c-0.412-0.048-0.709-0.419-0.664-0.83c0.058-0.52,0.141-1.041,0.248-1.553C41.496,35.18,41.893,34.919,42.299,35.004z
	 M41.803,39.471c0.417-0.023,0.775,0.273,0.808,0.688c0.038,0.475,0.099,0.951,0.182,1.418c0.073,0.408-0.2,0.798-0.607,0.87
	c-0.044,0.008-0.089,0.012-0.132,0.012c-0.357,0-0.674-0.256-0.738-0.62c-0.091-0.513-0.159-1.037-0.201-1.56
	C41.082,39.866,41.39,39.504,41.803,39.471z M42.589,43.896c0.386-0.149,0.821,0.043,0.97,0.432
	c0.116,0.302,0.258,0.602,0.396,0.897c0.063,0.137,0.114,0.276,0.181,0.411c0.185,0.37,0.033,0.82-0.338,1.006
	c-0.107,0.054-0.222,0.078-0.334,0.078c-0.276,0-0.542-0.152-0.673-0.416c-0.07-0.143-0.125-0.291-0.191-0.436
	c-0.154-0.333-0.311-0.666-0.441-1.005C42.009,44.479,42.202,44.044,42.589,43.896z M43.806,43.28
	c-0.092-0.403,0.162-0.807,0.566-0.898c0.404-0.091,0.807,0.161,0.898,0.566c0.093,0.409,0.212,0.819,0.34,1.224
	c0.016,0.052,0.026,0.104,0.042,0.153c0.129,0.394-0.084,0.817-0.478,0.947c-0.078,0.025-0.157,0.038-0.235,0.038
	c-0.24,0-0.465-0.117-0.606-0.312c-0.044-0.061-0.082-0.129-0.106-0.204C44.062,44.298,43.921,43.788,43.806,43.28z M45.384,35.866
	c-0.088,0.338-0.393,0.562-0.727,0.562c-0.062,0-0.125-0.008-0.188-0.023c-0.401-0.104-0.643-0.514-0.539-0.915
	c0.13-0.505,0.287-1.01,0.466-1.501c0.141-0.391,0.572-0.588,0.961-0.45c0.39,0.143,0.591,0.573,0.45,0.963
	C45.646,34.949,45.503,35.407,45.384,35.866z M44.747,28.548c0.329-0.405,0.681-0.801,1.045-1.173c0.291-0.296,0.767-0.3,1.062-0.01
	c0.296,0.291,0.3,0.767,0.01,1.062c-0.332,0.338-0.651,0.695-0.95,1.065c-0.148,0.184-0.365,0.277-0.584,0.277
	c-0.166,0-0.333-0.056-0.472-0.166C44.535,29.344,44.485,28.87,44.747,28.548z M45.743,31.153c0.267-0.447,0.559-0.887,0.868-1.31
	c0.246-0.337,0.715-0.407,1.049-0.162c0.335,0.245,0.407,0.715,0.163,1.049c-0.283,0.386-0.548,0.786-0.791,1.191
	c-0.141,0.235-0.39,0.365-0.646,0.365c-0.131,0-0.264-0.034-0.384-0.104C45.647,31.97,45.53,31.509,45.743,31.153z M48.198,25.354
	c0.431-0.297,0.879-0.575,1.334-0.828c0.077-0.044,0.159-0.063,0.241-0.078c0.304-0.053,0.621,0.081,0.779,0.367
	c0.168,0.299,0.098,0.655-0.133,0.888c-0.048,0.048-0.094,0.1-0.156,0.134c-0.414,0.23-0.823,0.484-1.215,0.755
	c-0.13,0.09-0.278,0.133-0.425,0.133c-0.238,0-0.473-0.113-0.619-0.324C47.77,26.058,47.856,25.589,48.198,25.354z M48.705,27.502
	c0.382-0.354,0.787-0.693,1.205-1.013c0.25-0.19,0.581-0.198,0.836-0.048c0.081,0.049,0.156,0.111,0.216,0.19
	c0.154,0.201,0.177,0.453,0.104,0.679c-0.045,0.143-0.119,0.275-0.248,0.374c-0.379,0.289-0.748,0.598-1.094,0.918
	c-0.146,0.135-0.329,0.2-0.511,0.2c-0.202,0-0.403-0.081-0.551-0.241C48.381,28.257,48.4,27.782,48.705,27.502z M83.613,57.881
	L83.613,57.881C70.4,43.4,56.668,37.139,52.916,35.613c0.49-2.181,0.535-4.399,0.141-6.555c4.639,1.84,20.057,8.816,34.688,25.084
	l0,0L83.613,57.881z M96.125,46.557l-7.27,6.58c-15.929-17.709-32.83-24.593-36.119-25.811c-0.031-0.012-0.063-0.008-0.096-0.015
	c-0.332-1.109-0.772-2.193-1.343-3.233c-2.902-5.298-8.46-8.589-14.508-8.589c-2.752,0-5.492,0.703-7.921,2.034
	c-7.991,4.376-10.932,14.438-6.555,22.428c2.901,5.3,8.46,8.591,14.506,8.591c2.753,0,5.493-0.704,7.922-2.035
	c1.431-0.782,2.715-1.758,3.831-2.887c2.26,0.998,15.329,7.137,27.983,20.646L49.063,89.151L2,46.557V2h94.125V46.557z
	 M23.754,39.438c0.033-0.028,0.057-0.064,0.096-0.088c0.406-0.244,0.807-0.511,1.19-0.793c0.334-0.246,0.804-0.175,1.05,0.159
	c0.246,0.335,0.174,0.805-0.16,1.051c-0.421,0.31-0.861,0.604-1.308,0.87c-0.028,0.017-0.061,0.013-0.09,0.023
	c-0.096,0.043-0.195,0.083-0.295,0.083c-0.255,0-0.504-0.13-0.645-0.365C23.402,40.063,23.485,39.672,23.754,39.438z M23.333,38.613
	c-0.057-0.039-0.118-0.071-0.164-0.128c-0.131-0.16-0.184-0.358-0.164-0.551c0.02-0.19,0.112-0.374,0.272-0.505
	c0.367-0.299,0.725-0.619,1.064-0.954c0.295-0.293,0.77-0.289,1.062,0.007c0.291,0.296,0.288,0.771-0.008,1.062
	c-0.374,0.369-0.768,0.724-1.171,1.051c-0.139,0.114-0.307,0.169-0.473,0.169C23.6,38.763,23.459,38.701,23.333,38.613z
	 M26.17,34.284c0.267-0.391,0.52-0.801,0.75-1.217c0.201-0.362,0.658-0.495,1.021-0.295c0.363,0.201,0.494,0.658,0.293,1.021
	c-0.253,0.459-0.531,0.909-0.825,1.339c-0.145,0.214-0.38,0.327-0.62,0.327c-0.146,0-0.293-0.043-0.423-0.132
	C26.024,35.094,25.936,34.627,26.17,34.284z M30.948,21.056c-0.095,0.04-0.194,0.059-0.291,0.059c-0.293,0-0.571-0.172-0.692-0.459
	c-0.183-0.436-0.391-0.869-0.617-1.289c-0.056-0.104-0.078-0.215-0.082-0.325c-0.011-0.276,0.127-0.551,0.388-0.691
	c0.262-0.143,0.567-0.105,0.793,0.059c0.089,0.065,0.168,0.146,0.224,0.248c0.248,0.461,0.475,0.938,0.678,1.417
	C31.51,20.454,31.331,20.895,30.948,21.056z M32.288,23.069c0.107,0.512,0.191,1.035,0.25,1.554c0.045,0.412-0.25,0.784-0.662,0.83
	c-0.029,0.003-0.057,0.006-0.085,0.006c-0.376,0-0.702-0.285-0.745-0.669c-0.053-0.471-0.129-0.944-0.227-1.411
	c-0.086-0.404,0.174-0.804,0.58-0.89C31.804,22.407,32.202,22.666,32.288,23.069z M28.77,24.807
	c-0.027-0.413,0.287-0.771,0.701-0.799c0.415-0.018,0.771,0.287,0.797,0.701c0.023,0.355,0.035,0.711,0.035,1.066
	c0,0.17-0.003,0.338-0.008,0.506c-0.013,0.406-0.346,0.727-0.75,0.727c-0.007,0-0.016,0-0.024,0
	c-0.414-0.013-0.739-0.357-0.727-0.772c0.005-0.151,0.007-0.306,0.007-0.459C28.801,25.454,28.791,25.13,28.77,24.807z
	 M29.294,20.108c0.18,0.488,0.339,0.994,0.472,1.5c0.105,0.4-0.135,0.812-0.536,0.918c-0.064,0.017-0.128,0.022-0.191,0.022
	c-0.333,0-0.637-0.223-0.726-0.561c-0.12-0.46-0.264-0.918-0.428-1.362c-0.143-0.39,0.056-0.82,0.445-0.964
	C28.719,19.519,29.151,19.719,29.294,20.108z M27.166,36.655c0.324-0.352,0.632-0.721,0.917-1.098
	c0.25-0.33,0.721-0.396,1.051-0.146c0.331,0.25,0.396,0.721,0.145,1.051c-0.313,0.414-0.653,0.82-1.009,1.207
	c-0.147,0.163-0.349,0.242-0.552,0.242c-0.182,0-0.364-0.063-0.508-0.198C26.905,37.435,26.885,36.96,27.166,36.655z M28.772,31.431
	c-0.077,0-0.155-0.013-0.233-0.037c-0.394-0.129-0.609-0.554-0.481-0.947c0.147-0.451,0.274-0.915,0.378-1.379
	c0.091-0.403,0.492-0.656,0.897-0.567c0.405,0.09,0.659,0.491,0.568,0.896c-0.114,0.509-0.254,1.02-0.416,1.515
	C29.382,31.229,29.088,31.431,28.772,31.431z M29.583,33.128c0.209-0.424,0.401-0.864,0.571-1.312
	c0.147-0.388,0.581-0.586,0.968-0.436c0.387,0.146,0.582,0.58,0.435,0.97c-0.186,0.488-0.397,0.975-0.627,1.441
	c-0.13,0.264-0.397,0.417-0.674,0.417c-0.112,0-0.225-0.024-0.331-0.078C29.553,33.949,29.4,33.5,29.583,33.128z M31.521,29.933
	c-0.408-0.072-0.681-0.461-0.609-0.869c0.082-0.469,0.143-0.945,0.18-1.418c0.032-0.414,0.395-0.709,0.808-0.69
	c0.413,0.033,0.722,0.396,0.689,0.809c-0.041,0.521-0.108,1.046-0.198,1.56c-0.064,0.364-0.381,0.621-0.739,0.621
	C31.608,29.943,31.565,29.939,31.521,29.933z"/>
</svg>
