<?xml version="1.0" encoding="utf-8"?>
<!-- Generator: Adobe Illustrator 16.0.0, SVG Export Plug-In . SVG Version: 6.00 Build 0)  -->
<!DOCTYPE svg PUBLIC "-//W3C//DTD SVG 1.1//EN" "http://www.w3.org/Graphics/SVG/1.1/DTD/svg11.dtd">
<svg version="1.1" xmlns="http://www.w3.org/2000/svg" xmlns:xlink="http://www.w3.org/1999/xlink" x="0px" y="0px"
	 width="69.381px" height="44.788px" viewBox="0 0 69.381 44.788" enable-background="new 0 0 69.381 44.788" xml:space="preserve">
<g id="Layer_1">
</g>
<g id="Layer_2">
	<g>
		<path fill="#FDF7E7" d="M68.938,27.06c0-0.001,0-0.002-0.001-0.003c-0.002-0.029-0.015-0.055-0.022-0.083
			c-0.006-0.025-0.006-0.053-0.016-0.076c-0.002-0.004-0.005-0.006-0.006-0.009c-0.001-0.001-0.002-0.002-0.003-0.004
			c-0.003-0.006-0.003-0.012-0.007-0.018c0-0.001-0.001-0.002-0.002-0.002c-0.01-0.021-0.029-0.037-0.043-0.057
			c-0.018-0.025-0.031-0.053-0.055-0.074c-0.001-0.001-0.002-0.004-0.003-0.005s-0.003-0.002-0.005-0.003
			c-0.004-0.004-0.008-0.008-0.013-0.012c-0.017-0.015-0.038-0.021-0.057-0.032c-0.03-0.02-0.058-0.04-0.091-0.054
			c-0.005-0.001-0.008-0.005-0.012-0.006c0,0-0.001-0.001-0.002-0.001c-0.004-0.001-0.007-0.003-0.01-0.004l-23.361-7.836
			c-0.049-0.034-0.104-0.062-0.164-0.076l-0.254-0.063l-0.492-0.165c-0.012-0.004-0.025-0.002-0.037-0.005
			c-0.025-0.007-0.051-0.008-0.078-0.011c-0.039-0.004-0.077-0.007-0.115-0.002c-0.008,0.001-0.016-0.002-0.024,0l-12.008,2.338
			V20.79l-0.452,0.096L1.174,26.81c-0.237,0.046-0.394,0.257-0.395,0.491c-0.003,0.019-0.01,0.035-0.01,0.055v7.293l-0.1,0.021
			c-0.015,0.003-0.025,0.012-0.039,0.017l-0.104-0.006c-0.262-0.027-0.511,0.197-0.525,0.473s0.196,0.511,0.473,0.525l42.631,2.282
			c0.016,0.002,0.029,0.01,0.045,0.011l0.462,0.024v5.735L0.553,39.126c-0.25-0.031-0.521,0.169-0.55,0.444
			c-0.029,0.274,0.169,0.521,0.444,0.55l43.611,4.665c0.017,0.002,0.034,0.003,0.052,0.003c0.001,0,0.001,0,0.001,0
			c0.005,0,0.011,0,0.016,0l23.729-0.761c0.276-0.009,0.493-0.24,0.484-0.516c-0.01-0.275-0.255-0.477-0.516-0.484l-23.213,0.744
			v-5.723l0.321,0.017c0.009,0.001,0.018,0.001,0.026,0.001s0.018-0.005,0.026-0.005l6.115,0.327l0.073,0.004
			c0.01,0.001,0.019,0.001,0.027,0.001c0.078,0,0.149-0.022,0.216-0.055c0.008-0.004,0.016-0.002,0.023-0.006l16.499-8.982v9.866
			c0,0.276,0.224,0.5,0.5,0.5s0.5-0.224,0.5-0.5V27.094c0-0.006-0.003-0.011-0.003-0.017S68.938,27.065,68.938,27.06z
			 M14.462,25.242l0.008,1.157l-1.219-0.921L14.462,25.242z M3.57,27.362l1.591-0.31L3.57,28.854V27.362z M2.57,34.736L1.77,34.708
			v-6.947L2.57,27.59V34.736z M5.118,34.927l-0.852-0.046c-0.061-0.082-0.106-0.174-0.114-0.283C4.126,34.291,4.357,34.023,4.664,34
			c0.308-0.023,0.574,0.205,0.6,0.513C5.276,34.671,5.218,34.817,5.118,34.927z M7.182,34.199c-0.023-0.309,0.206-0.575,0.516-0.6
			c0.307-0.023,0.574,0.207,0.596,0.514c0.023,0.307-0.207,0.575-0.514,0.6C7.475,34.736,7.203,34.505,7.182,34.199z M8.929,35.131
			l-1.096-0.059c0.015-0.278,0.221-0.512,0.505-0.535c0.307-0.021,0.575,0.206,0.601,0.516C8.94,35.08,8.931,35.104,8.929,35.131z
			 M10.721,34.98c-0.309,0.024-0.578-0.205-0.602-0.512c-0.021-0.307,0.208-0.576,0.516-0.598c0.307-0.023,0.573,0.205,0.596,0.512
			C11.256,34.689,11.027,34.957,10.721,34.98z M12.282,35.31l-0.765-0.041c-0.081-0.089-0.141-0.198-0.151-0.328
			c-0.025-0.306,0.205-0.571,0.516-0.597c0.304-0.023,0.57,0.207,0.597,0.513C12.491,35.037,12.41,35.198,12.282,35.31z
			 M13.391,35.342c-0.311,0.023-0.574-0.205-0.602-0.512c-0.021-0.308,0.207-0.575,0.516-0.6c0.309-0.023,0.576,0.207,0.598,0.515
			C13.928,35.051,13.697,35.318,13.391,35.342z M13.885,33.541c-0.309,0.023-0.574-0.207-0.598-0.512
			c-0.025-0.308,0.205-0.576,0.512-0.598c0.308-0.025,0.576,0.205,0.6,0.512S14.191,33.518,13.885,33.541z M12.699,32.017
			c0.165,0.086,0.287,0.243,0.301,0.442c0.024,0.307-0.205,0.573-0.514,0.598c-0.306,0.023-0.572-0.205-0.596-0.514
			c-0.012-0.14,0.036-0.269,0.114-0.373l-0.384,0.085c0.112,0.093,0.188,0.229,0.201,0.386c0.022,0.308-0.205,0.574-0.513,0.598
			c-0.309,0.023-0.575-0.207-0.597-0.514c-0.009-0.103,0.021-0.196,0.062-0.283l-0.743,0.164c0.018,0.048,0.037,0.095,0.042,0.148
			c0.023,0.307-0.205,0.574-0.515,0.598c-0.303,0.024-0.568-0.206-0.596-0.511l-0.447,0.099c-0.025,0.263-0.226,0.479-0.502,0.502
			c-0.219,0.016-0.414-0.1-0.518-0.277l-1.102,0.243c0.189,0.077,0.332,0.252,0.349,0.471c0.023,0.308-0.207,0.573-0.512,0.597
			c-0.309,0.024-0.578-0.205-0.603-0.512c-0.012-0.162,0.049-0.311,0.152-0.42L3.57,34.03v-3.664l3.202-3.627l5.157-1.004
			l2.549,1.926l0.026,3.958L12.699,32.017z M15.531,35.467l-0.069-10.384l0.783-0.165l0.068,10.59L15.531,35.467z M17.243,24.701
			l1.459-0.284l-1.45,1.588L17.243,24.701z M17.681,35.062c-0.141,0.011-0.268-0.035-0.371-0.113l-0.006-0.875
			c0.083-0.065,0.18-0.115,0.294-0.124c0.305-0.024,0.572,0.206,0.596,0.513C18.217,34.772,17.988,35.039,17.681,35.062z
			 M18.343,33.781c-0.31,0.025-0.575-0.203-0.601-0.511c-0.021-0.308,0.207-0.575,0.516-0.599c0.308-0.025,0.574,0.207,0.598,0.513
			C18.881,33.492,18.65,33.76,18.343,33.781z M19.733,35.557c-0.304,0.025-0.574-0.205-0.597-0.512
			c-0.021-0.309,0.205-0.576,0.512-0.599c0.309-0.024,0.575,0.204,0.598,0.513C20.27,35.268,20.042,35.534,19.733,35.557z
			 M19.768,33.291c-0.296,0.023-0.546-0.19-0.587-0.476c-0.03,0.008-0.057,0.022-0.089,0.025c-0.307,0.024-0.577-0.208-0.6-0.513
			c-0.021-0.307,0.204-0.576,0.515-0.6c0.293-0.022,0.546,0.191,0.588,0.478c0.029-0.008,0.056-0.022,0.087-0.024
			c0.308-0.025,0.574,0.205,0.6,0.511C20.304,33.001,20.074,33.268,19.768,33.291z M21.012,33.938
			c-0.306,0.023-0.572-0.206-0.598-0.512c-0.022-0.308,0.207-0.576,0.512-0.599c0.225-0.018,0.427,0.103,0.53,0.288
			c0.093-0.113,0.229-0.191,0.388-0.204c0.307-0.024,0.574,0.206,0.6,0.513c0.021,0.307-0.209,0.574-0.518,0.598
			c-0.224,0.018-0.425-0.103-0.526-0.288C21.306,33.848,21.17,33.927,21.012,33.938z M22.574,32.025
			c0.025,0.305-0.207,0.574-0.512,0.598c-0.308,0.023-0.577-0.207-0.6-0.514c-0.013-0.159,0.045-0.306,0.144-0.414
			c-0.109-0.094-0.185-0.229-0.196-0.384c-0.021-0.306,0.207-0.573,0.516-0.599c0.309-0.021,0.576,0.208,0.597,0.516
			c0.013,0.158-0.045,0.304-0.145,0.413C22.488,31.734,22.563,31.869,22.574,32.025z M22.164,35.566
			c-0.301,0.023-0.57-0.204-0.592-0.512c-0.024-0.307,0.203-0.574,0.51-0.599c0.312-0.024,0.579,0.208,0.6,0.514
			C22.703,35.275,22.477,35.543,22.164,35.566z M24.133,32.473c-0.025-0.309,0.206-0.578,0.516-0.6
			c0.305-0.023,0.571,0.206,0.598,0.514c0.022,0.307-0.207,0.574-0.516,0.6c-0.118,0.008-0.225-0.029-0.319-0.085
			c0.018,0.047,0.037,0.093,0.041,0.145c0.024,0.305-0.208,0.574-0.511,0.599c-0.309,0.021-0.577-0.207-0.6-0.515
			c-0.027-0.307,0.205-0.573,0.51-0.597c0.12-0.01,0.228,0.027,0.322,0.084C24.157,32.57,24.137,32.524,24.133,32.473z
			 M23.35,33.617c0.307-0.023,0.574,0.207,0.598,0.514c0.025,0.307-0.205,0.572-0.516,0.598c-0.304,0.023-0.572-0.206-0.594-0.514
			C22.811,33.909,23.042,33.643,23.35,33.617z M23.848,35.929l-0.847-0.045c-0.062-0.082-0.109-0.176-0.118-0.286
			c-0.022-0.307,0.205-0.575,0.512-0.599c0.308-0.022,0.574,0.208,0.6,0.516C24.006,35.673,23.948,35.819,23.848,35.929z
			 M24.841,35.928c-0.31,0.025-0.575-0.205-0.599-0.511c-0.024-0.308,0.205-0.576,0.514-0.599c0.308-0.023,0.574,0.205,0.598,0.512
			C25.376,35.638,25.148,35.906,24.841,35.928z M25.215,31.631c-0.309,0.023-0.574-0.206-0.6-0.514
			c-0.024-0.307,0.205-0.573,0.516-0.598c0.305-0.023,0.572,0.205,0.598,0.513C25.75,31.34,25.521,31.608,25.215,31.631z
			 M27.842,31.676c0.025,0.307-0.207,0.575-0.514,0.598c-0.306,0.023-0.576-0.205-0.6-0.512c-0.005-0.072,0.007-0.141,0.026-0.205
			c-0.271-0.021-0.499-0.227-0.519-0.504c-0.023-0.307,0.207-0.575,0.514-0.6c0.307-0.021,0.574,0.207,0.598,0.516
			c0.005,0.071-0.007,0.14-0.026,0.204C27.596,31.19,27.822,31.396,27.842,31.676z M26.148,30.678
			c-0.305,0.021-0.574-0.207-0.598-0.516c-0.022-0.306,0.207-0.572,0.513-0.597c0.309-0.022,0.575,0.207,0.597,0.513
			C26.685,30.385,26.455,30.652,26.148,30.678z M26.172,32.511c0.306-0.022,0.576,0.205,0.598,0.513
			c0.021,0.308-0.207,0.574-0.512,0.598c-0.307,0.024-0.574-0.205-0.598-0.514C25.636,32.801,25.865,32.535,26.172,32.511z
			 M26.392,35.57c-0.308,0.023-0.575-0.208-0.598-0.514c-0.024-0.307,0.204-0.574,0.513-0.599c0.307-0.022,0.575,0.206,0.598,0.515
			C26.928,35.279,26.697,35.546,26.392,35.57z M27.437,35.219c-0.306,0.021-0.575-0.207-0.596-0.516
			c-0.025-0.305,0.202-0.572,0.511-0.596s0.574,0.206,0.596,0.512C27.975,34.928,27.744,35.195,27.437,35.219z M28.469,33.999
			c-0.304,0.023-0.572-0.204-0.598-0.513c-0.021-0.305,0.209-0.574,0.514-0.596c0.309-0.025,0.576,0.207,0.6,0.512
			C29.009,33.709,28.777,33.977,28.469,33.999z M28.746,31.424c-0.307,0.023-0.572-0.205-0.598-0.512
			c-0.021-0.308,0.207-0.574,0.516-0.599c0.309-0.023,0.572,0.206,0.597,0.514C29.283,31.133,29.056,31.4,28.746,31.424z
			 M29.277,29.318l-1.039,0.072c0,0.002,0.002,0.004,0.002,0.007c0.02,0.306-0.205,0.575-0.512,0.599
			c-0.309,0.023-0.578-0.207-0.601-0.514c0-0.005,0.002-0.01,0.002-0.015l-3.051,0.212c0.145,0.091,0.252,0.238,0.265,0.422
			c0.023,0.306-0.207,0.574-0.511,0.598c-0.311,0.021-0.581-0.207-0.604-0.512c-0.013-0.187,0.073-0.351,0.206-0.463l-0.5,0.035
			l-1.627,0.359c0.058,0.08,0.103,0.17,0.111,0.275c0.021,0.309-0.209,0.575-0.515,0.598c-0.309,0.025-0.573-0.203-0.598-0.512
			c-0.005-0.051,0.009-0.098,0.017-0.145l-0.547,0.12c0.188,0.078,0.328,0.25,0.346,0.466c0.022,0.307-0.207,0.576-0.516,0.598
			c-0.304,0.025-0.574-0.207-0.6-0.512c-0.011-0.158,0.047-0.305,0.146-0.414l-0.633,0.14c0.037,0.067,0.062,0.142,0.069,0.224
			c0.025,0.307-0.207,0.574-0.514,0.6c-0.062,0.004-0.118-0.008-0.175-0.022c-0.088,0.082-0.198,0.142-0.329,0.151
			c-0.104,0.008-0.198-0.021-0.284-0.062l-0.006-0.989l-0.021-3.158l3.089-3.379l6.054-1.179l2.874,2.44V29.318z M29.277,24.048
			l-1.618-1.374l1.618-0.315V24.048z M31.059,36.289l-0.781-0.041V22.188l0.781-0.165V36.289z M42.673,32.948
			c-0.079,0.056-0.168,0.098-0.271,0.106c-0.309,0.021-0.577-0.209-0.602-0.515c-0.021-0.307,0.211-0.576,0.516-0.599
			c0.132-0.01,0.254,0.034,0.355,0.104L42.673,32.948z M41.646,30.871c0.307-0.021,0.577,0.207,0.602,0.514
			c0.023,0.306-0.209,0.574-0.517,0.598c-0.309,0.023-0.573-0.207-0.598-0.514C41.112,31.164,41.338,30.896,41.646,30.871z
			 M40.901,30.256c-0.021-0.309,0.208-0.576,0.515-0.598c0.305-0.025,0.572,0.205,0.598,0.512c0.023,0.306-0.207,0.574-0.513,0.598
			S40.924,30.561,40.901,30.256z M42.663,19.753l0.002,1.818l-1.471-1.532L42.663,19.753z M32.059,21.817l2.153-0.419l-2.153,2.203
			V21.817z M32.059,25.032l3.88-3.971l4.088-0.795l2.64,2.75l0.003,5.369l-2.611,0.183c-0.068,0.206-0.254,0.363-0.485,0.38
			c-0.233,0.019-0.442-0.11-0.542-0.309l-4.252,0.296c0.008,0.029,0.021,0.056,0.024,0.087c0.02,0.306-0.205,0.575-0.512,0.599
			c-0.309,0.023-0.578-0.207-0.601-0.514c-0.002-0.034,0.009-0.064,0.012-0.098l-1.644,0.115V25.032z M36.822,31.131
			c0.307-0.022,0.577,0.207,0.6,0.515c0.021,0.306-0.209,0.574-0.515,0.599c-0.309,0.021-0.575-0.207-0.598-0.516
			C36.284,31.422,36.514,31.154,36.822,31.131z M36.055,29.451c-0.025-0.307,0.205-0.575,0.513-0.598
			c0.308-0.025,0.574,0.207,0.6,0.512c0.022,0.308-0.205,0.576-0.513,0.598C36.346,29.988,36.077,29.758,36.055,29.451z
			 M35.755,31.589c0.024,0.306-0.208,0.573-0.51,0.597c-0.31,0.024-0.577-0.205-0.601-0.512c-0.025-0.309,0.205-0.576,0.514-0.598
			C35.465,31.052,35.73,31.281,35.755,31.589z M33.904,32.147c0.307-0.024,0.576,0.206,0.6,0.513
			c0.021,0.306-0.209,0.574-0.518,0.598c-0.308,0.023-0.572-0.205-0.598-0.512C33.365,32.438,33.596,32.17,33.904,32.147z
			 M33.27,31.662c-0.308,0.024-0.576-0.205-0.598-0.513c-0.022-0.306,0.205-0.573,0.512-0.597c0.309-0.023,0.574,0.205,0.6,0.513
			C33.807,31.372,33.578,31.639,33.27,31.662z M32.059,29.519c0.093-0.107,0.226-0.18,0.379-0.19
			c0.309-0.023,0.576,0.205,0.598,0.514c0.025,0.306-0.205,0.574-0.514,0.6c-0.188,0.013-0.353-0.074-0.463-0.208V29.519z
			 M32.059,32.479c0.09-0.085,0.204-0.146,0.338-0.156c0.309-0.023,0.574,0.205,0.597,0.512c0.024,0.308-0.204,0.574-0.513,0.598
			c-0.163,0.014-0.312-0.049-0.422-0.152V32.479z M32.58,35.479c-0.222,0.018-0.417-0.099-0.521-0.276v-0.547
			c0.089-0.156,0.241-0.272,0.437-0.287c0.306-0.023,0.574,0.205,0.597,0.514C33.115,35.188,32.887,35.455,32.58,35.479z
			 M33.571,34.555c-0.06,0.027-0.123,0.049-0.192,0.055c-0.31,0.023-0.578-0.207-0.6-0.515c-0.022-0.306,0.208-0.575,0.514-0.599
			c0.3-0.021,0.561,0.2,0.593,0.497c0.06-0.028,0.123-0.05,0.192-0.056c0.307-0.022,0.578,0.209,0.6,0.516
			c0.021,0.305-0.208,0.572-0.512,0.598C33.864,35.073,33.603,34.852,33.571,34.555z M36.034,36.581L35.2,36.537
			c-0.019-0.024-0.041-0.044-0.056-0.07c-0.022,0.025-0.053,0.042-0.079,0.062l-0.723-0.039c-0.094-0.091-0.159-0.21-0.169-0.35
			c-0.025-0.308,0.207-0.575,0.512-0.598c0.226-0.018,0.429,0.104,0.53,0.289c0.093-0.104,0.223-0.175,0.372-0.187
			c0.309-0.022,0.576,0.206,0.599,0.515C36.199,36.323,36.138,36.472,36.034,36.581z M35.91,34.356
			c-0.309,0.022-0.574-0.208-0.6-0.513c-0.023-0.307,0.207-0.576,0.516-0.6c0.304-0.023,0.574,0.207,0.599,0.514
			C36.447,34.064,36.215,34.334,35.91,34.356z M37.066,35.984c-0.307,0.023-0.574-0.205-0.596-0.512
			c-0.025-0.307,0.204-0.576,0.51-0.6c0.309-0.023,0.575,0.207,0.599,0.514C37.602,35.694,37.373,35.961,37.066,35.984z
			 M37.437,33.359c-0.308,0.025-0.575-0.205-0.599-0.512c-0.023-0.308,0.207-0.576,0.513-0.599c0.309-0.024,0.577,0.207,0.601,0.513
			C37.974,33.069,37.746,33.336,37.437,33.359z M37.977,30.55c-0.023-0.308,0.203-0.575,0.512-0.599
			c0.307-0.023,0.575,0.206,0.6,0.514c0.022,0.305-0.208,0.573-0.514,0.598C38.266,31.086,37.999,30.855,37.977,30.55z
			 M38.707,31.461c0.242-0.019,0.454,0.122,0.549,0.33c0.093-0.117,0.229-0.198,0.392-0.211c0.304-0.023,0.573,0.207,0.597,0.514
			s-0.205,0.575-0.514,0.598c-0.241,0.017-0.452-0.122-0.546-0.33c-0.094,0.117-0.23,0.198-0.393,0.211
			c-0.306,0.021-0.57-0.207-0.596-0.512C38.175,31.754,38.4,31.484,38.707,31.461z M38.236,33.548
			c-0.023-0.308,0.207-0.575,0.515-0.599c0.306-0.023,0.577,0.208,0.601,0.514c0.021,0.307-0.21,0.575-0.516,0.598
			C38.528,34.084,38.262,33.855,38.236,33.548z M39.736,36.348c-0.303,0.022-0.573-0.207-0.597-0.514
			c-0.021-0.307,0.205-0.576,0.511-0.6c0.307-0.021,0.577,0.207,0.6,0.516C40.275,36.057,40.045,36.324,39.736,36.348z
			 M39.754,30.857c-0.309,0.025-0.575-0.205-0.598-0.512c-0.023-0.308,0.207-0.574,0.512-0.598c0.307-0.025,0.574,0.205,0.6,0.512
			C40.291,30.568,40.062,30.836,39.754,30.857z M40.229,29.122c-0.023-0.306,0.207-0.573,0.512-0.597
			c0.307-0.023,0.578,0.207,0.6,0.512c0.022,0.307-0.208,0.574-0.514,0.599S40.251,29.432,40.229,29.122z M40.506,34.285
			c-0.014-0.179,0.064-0.337,0.188-0.449c-0.073-0.086-0.128-0.189-0.137-0.311c-0.025-0.307,0.204-0.573,0.513-0.599
			c0.308-0.022,0.575,0.206,0.6,0.515c0.014,0.178-0.064,0.336-0.188,0.448c0.073,0.086,0.129,0.188,0.138,0.311
			c0.022,0.306-0.207,0.573-0.516,0.597C40.798,34.82,40.528,34.592,40.506,34.285z M41.74,36.887l-0.741-0.04
			c-0.088-0.09-0.152-0.206-0.163-0.341c-0.023-0.307,0.207-0.576,0.512-0.599c0.305-0.024,0.578,0.206,0.602,0.513
			C41.965,36.608,41.876,36.775,41.74,36.887z M42.334,35.637c-0.305,0.023-0.575-0.207-0.598-0.514
			c-0.025-0.309,0.209-0.574,0.512-0.598c0.165-0.013,0.315,0.051,0.426,0.156l0.001,0.793
			C42.584,35.562,42.469,35.626,42.334,35.637z M43.676,36.998l-0.013-17.413l0.406-0.098l0.377,0.095l0.013,17.457L43.676,36.998z
			 M45.446,19.909L65.9,26.77l-1.2,0.083c0.059,0.081,0.104,0.172,0.111,0.278c0.025,0.31-0.207,0.574-0.511,0.599
			c-0.309,0.022-0.575-0.206-0.601-0.513c-0.008-0.109,0.025-0.209,0.074-0.3l-4.443,0.31c-0.018,0.272-0.223,0.5-0.507,0.521
			c-0.28,0.021-0.521-0.177-0.575-0.446l-2.904,0.202c0.084,0.089,0.145,0.201,0.154,0.332c0.015,0.182-0.066,0.343-0.193,0.454
			c0.015-0.002,0.025-0.01,0.04-0.011c0.309-0.024,0.577,0.205,0.6,0.512c0.023,0.307-0.207,0.574-0.515,0.598
			c-0.306,0.024-0.575-0.205-0.598-0.513c-0.014-0.181,0.066-0.34,0.191-0.451c-0.015,0.002-0.025,0.01-0.04,0.011
			c-0.302,0.021-0.57-0.205-0.596-0.514c-0.011-0.135,0.034-0.257,0.106-0.359l-0.494,0.035c-0.04,0.249-0.238,0.452-0.499,0.473
			c-0.267,0.02-0.493-0.153-0.567-0.398l-1.891,0.131c0.025,0.058,0.047,0.119,0.053,0.186c0.024,0.305-0.207,0.572-0.514,0.596
			c-0.31,0.023-0.576-0.205-0.599-0.512c-0.006-0.068,0.005-0.135,0.023-0.197l-4.556,0.317L45.446,19.909z M60.357,27.749
			c-0.024-0.308,0.205-0.575,0.516-0.597c0.307-0.024,0.574,0.205,0.598,0.512c0.023,0.306-0.209,0.574-0.513,0.598
			C60.647,28.285,60.383,28.057,60.357,27.749z M60.507,29.249c0.025,0.306-0.205,0.575-0.513,0.599
			c-0.307,0.024-0.574-0.207-0.596-0.513c-0.025-0.308,0.204-0.576,0.511-0.599C60.215,28.711,60.484,28.943,60.507,29.249z
			 M51.365,31.981c-0.212,0.017-0.396-0.093-0.503-0.26c-0.273-0.017-0.501-0.224-0.521-0.503c-0.022-0.306,0.205-0.574,0.514-0.597
			c0.21-0.017,0.396,0.091,0.503,0.257c0.272,0.02,0.499,0.225,0.521,0.504C51.903,31.689,51.673,31.957,51.365,31.981z
			 M51.57,32.712c0.024,0.31-0.207,0.576-0.513,0.601c-0.307,0.023-0.573-0.207-0.597-0.514c-0.024-0.308,0.205-0.574,0.511-0.598
			C51.28,32.176,51.549,32.407,51.57,32.712z M49.641,30.896c0.025,0.306-0.207,0.573-0.511,0.597
			c-0.308,0.023-0.577-0.205-0.6-0.513c-0.012-0.161,0.047-0.308,0.148-0.417c-0.055-0.079-0.097-0.167-0.104-0.27
			c-0.025-0.305,0.204-0.574,0.514-0.598c0.305-0.022,0.574,0.207,0.597,0.514c0.013,0.161-0.047,0.308-0.147,0.417
			C49.592,30.705,49.634,30.793,49.641,30.896z M46.211,32.508c-0.311,0.023-0.576-0.207-0.6-0.513
			c-0.024-0.308,0.205-0.575,0.516-0.599c0.309-0.021,0.573,0.206,0.598,0.512C46.748,32.217,46.516,32.483,46.211,32.508z
			 M46.654,33.471c0.021,0.306-0.205,0.576-0.513,0.6c-0.311,0.022-0.575-0.207-0.601-0.516c-0.022-0.305,0.207-0.574,0.516-0.598
			C46.363,32.936,46.629,33.166,46.654,33.471z M46.429,29.129c-0.025-0.309,0.207-0.576,0.513-0.6
			c0.307-0.023,0.577,0.207,0.6,0.514c0.021,0.307-0.209,0.574-0.515,0.598C46.719,29.664,46.449,29.436,46.429,29.129z
			 M47.268,30.381c0.309-0.022,0.578,0.207,0.601,0.515c0.022,0.306-0.205,0.573-0.513,0.599c-0.311,0.022-0.574-0.207-0.598-0.515
			C46.732,30.675,46.963,30.406,47.268,30.381z M47.585,29.201c-0.021-0.309,0.208-0.577,0.516-0.6
			c0.306-0.023,0.572,0.207,0.598,0.514c0.022,0.307-0.208,0.574-0.513,0.598C47.875,29.736,47.61,29.508,47.585,29.201z
			 M48.048,32.495c0.049-0.004,0.094,0.009,0.141,0.017c0.074-0.191,0.252-0.337,0.474-0.355c0.307-0.022,0.576,0.207,0.597,0.514
			c0.023,0.307-0.204,0.573-0.511,0.598c-0.05,0.004-0.097-0.009-0.144-0.018c-0.076,0.193-0.254,0.339-0.474,0.355
			c-0.307,0.025-0.575-0.206-0.598-0.512C47.508,32.787,47.738,32.519,48.048,32.495z M49.518,29.359
			c-0.023-0.305,0.207-0.572,0.515-0.598c0.308-0.023,0.574,0.208,0.597,0.514c0.023,0.308-0.205,0.576-0.512,0.599
			C49.809,29.896,49.542,29.668,49.518,29.359z M45.454,30.026c0.079-0.056,0.168-0.099,0.272-0.106
			c0.305-0.025,0.574,0.205,0.598,0.512c0.025,0.307-0.209,0.574-0.516,0.598c-0.132,0.01-0.253-0.034-0.354-0.104V30.026z
			 M46.084,36.562c-0.309,0.022-0.574-0.209-0.6-0.516c-0.023-0.305,0.203-0.572,0.515-0.598c0.303-0.021,0.572,0.207,0.597,0.516
			C46.619,36.271,46.388,36.539,46.084,36.562z M47.814,36.465c-0.305,0.024-0.573-0.204-0.599-0.512
			c-0.004-0.045,0.01-0.086,0.016-0.129c-0.07,0.042-0.149,0.073-0.237,0.08c-0.308,0.023-0.572-0.207-0.598-0.514
			c-0.027-0.309,0.205-0.576,0.512-0.598c0.309-0.023,0.574,0.205,0.6,0.514c0.003,0.045-0.009,0.086-0.017,0.129
			c0.072-0.043,0.15-0.074,0.239-0.081c0.305-0.024,0.574,0.206,0.599,0.514C48.35,36.174,48.121,36.441,47.814,36.465z
			 M49.289,35.234c-0.294,0.022-0.548-0.189-0.59-0.478c-0.091,0.146-0.239,0.255-0.424,0.269c-0.309,0.024-0.575-0.205-0.601-0.512
			c-0.021-0.307,0.209-0.576,0.515-0.598c0.297-0.023,0.55,0.19,0.591,0.478c0.092-0.146,0.24-0.255,0.426-0.27
			c0.304-0.024,0.572,0.206,0.595,0.513C49.822,34.943,49.595,35.213,49.289,35.234z M50.661,37.341
			c-0.306,0.024-0.574-0.205-0.6-0.513c-0.023-0.309,0.207-0.574,0.515-0.597c0.307-0.024,0.575,0.204,0.601,0.511
			C51.197,37.05,50.969,37.318,50.661,37.341z M50.878,35.286c-0.306,0.024-0.575-0.206-0.598-0.514
			c-0.023-0.305,0.209-0.573,0.515-0.597c0.307-0.023,0.575,0.206,0.598,0.514C51.414,34.996,51.184,35.264,50.878,35.286z
			 M51.961,35.598c-0.311,0.024-0.577-0.207-0.601-0.514c-0.022-0.307,0.205-0.574,0.511-0.599c0.309-0.022,0.579,0.206,0.602,0.515
			C52.494,35.307,52.266,35.574,51.961,35.598z M51.905,29.17c-0.025-0.306,0.205-0.574,0.516-0.598
			c0.306-0.023,0.572,0.206,0.593,0.512c0.03,0.309-0.204,0.576-0.508,0.6C52.197,29.707,51.929,29.477,51.905,29.17z
			 M53.377,33.289c-0.308,0.023-0.577-0.206-0.6-0.514c-0.025-0.307,0.207-0.572,0.513-0.597c0.308-0.024,0.577,0.205,0.599,0.513
			C53.912,32.998,53.684,33.268,53.377,33.289z M53.905,31.227c-0.073,0.045-0.154,0.078-0.245,0.085
			c-0.306,0.024-0.574-0.204-0.6-0.513c-0.021-0.307,0.209-0.574,0.516-0.598c0.017-0.001,0.032,0.006,0.049,0.006
			c0.073-0.045,0.153-0.078,0.244-0.086c0.308-0.021,0.575,0.207,0.598,0.515c0.025,0.306-0.209,0.572-0.513,0.597
			C53.937,31.233,53.922,31.227,53.905,31.227z M54.555,34.886c-0.305,0.024-0.573-0.206-0.596-0.513
			c-0.027-0.307,0.202-0.574,0.511-0.598c0.31-0.023,0.576,0.206,0.6,0.514C55.094,34.594,54.864,34.862,54.555,34.886z
			 M55.033,33.419c-0.307,0.022-0.574-0.206-0.596-0.515c-0.025-0.307,0.205-0.572,0.512-0.596c0.307-0.025,0.574,0.205,0.6,0.512
			C55.57,33.127,55.342,33.396,55.033,33.419z M55.986,31.672c-0.003-0.031,0.008-0.059,0.011-0.089
			c-0.145-0.092-0.25-0.239-0.265-0.421c-0.023-0.308,0.203-0.574,0.514-0.6c0.307-0.023,0.576,0.206,0.6,0.514
			c0.002,0.031-0.009,0.06-0.012,0.09c0.144,0.091,0.249,0.238,0.264,0.421c0.022,0.306-0.207,0.574-0.516,0.599
			C56.275,32.207,56.012,31.979,55.986,31.672z M56.913,34.038c-0.308,0.022-0.574-0.206-0.6-0.515
			c-0.023-0.305,0.204-0.574,0.515-0.599c0.307-0.022,0.574,0.208,0.596,0.515C57.449,33.746,57.22,34.014,56.913,34.038z
			 M57.75,29.367c-0.308,0.023-0.577-0.207-0.6-0.514c-0.023-0.308,0.207-0.574,0.515-0.596c0.304-0.025,0.575,0.203,0.597,0.51
			C58.284,29.076,58.057,29.344,57.75,29.367z M58.926,30.963c-0.304,0.023-0.572-0.205-0.596-0.512
			c-0.023-0.308,0.207-0.574,0.51-0.599c0.312-0.023,0.578,0.206,0.604,0.513C59.467,30.672,59.236,30.939,58.926,30.963z
			 M60.569,32.224l-0.76,0.414c-0.183-0.08-0.321-0.248-0.339-0.459c-0.021-0.308,0.207-0.576,0.516-0.599
			c0.307-0.023,0.574,0.207,0.6,0.513C60.589,32.139,60.577,32.181,60.569,32.224z M61.285,30.115
			c-0.307,0.023-0.574-0.207-0.6-0.514c-0.023-0.307,0.207-0.574,0.516-0.6c0.305-0.022,0.574,0.209,0.596,0.515
			C61.822,29.824,61.592,30.092,61.285,30.115z M62.085,31.398c-0.001-0.008-0.006-0.015-0.007-0.023
			c-0.023-0.306,0.206-0.574,0.514-0.6c0.15-0.011,0.29,0.041,0.397,0.131L62.085,31.398z M63.809,28.916
			c-0.218,0.016-0.412-0.098-0.518-0.273c-0.078,0.188-0.251,0.328-0.467,0.346c-0.309,0.021-0.577-0.207-0.6-0.513
			c-0.023-0.307,0.207-0.575,0.514-0.599c0.22-0.017,0.412,0.098,0.517,0.272c0.078-0.188,0.252-0.328,0.468-0.345
			c0.309-0.023,0.572,0.205,0.598,0.513C64.343,28.625,64.111,28.891,63.809,28.916z M64.399,30.139
			c-0.067-0.085-0.119-0.183-0.128-0.299c-0.023-0.307,0.207-0.574,0.514-0.598c0.261-0.02,0.48,0.146,0.56,0.381L64.399,30.139z
			 M66.009,29.262c-0.088-0.09-0.152-0.206-0.163-0.343c-0.022-0.306,0.207-0.573,0.516-0.597c0.276-0.021,0.515,0.172,0.574,0.436
			L66.009,29.262z"/>
		<path fill="#FDF7E7" d="M69.223,22.235L57.871,11.602c-0.044-0.041-0.095-0.073-0.149-0.097L49.32,8.013
			c-0.008-0.003-0.017-0.002-0.024-0.005C49.272,8,49.251,8,49.228,7.995c-0.059-0.012-0.115-0.015-0.173-0.006
			c-0.014,0.003-0.027-0.005-0.041-0.001L44.84,8.972v3.278c0,0.706-0.453,1.095-1.012,1.095s-1.012-0.389-1.012-1.095V9.448
			l-3.886,0.916l0.002-2.477l0.131,0.036c0.045,0.012,0.089,0.018,0.133,0.018c0.19,0,0.37-0.109,0.454-0.29
			c0.103-0.222,0.029-0.485-0.172-0.623L32.19,2.053c-0.016-0.011-0.035-0.008-0.051-0.016C32.122,2.026,32.11,2.008,32.09,2
			c-0.033-0.014-0.067-0.006-0.103-0.012c-0.037-0.006-0.069-0.015-0.106-0.013c-0.06,0.004-0.111,0.022-0.166,0.047
			c-0.024,0.01-0.052,0.006-0.074,0.021c-0.007,0.005-0.01,0.014-0.017,0.02c-0.008,0.006-0.02,0.005-0.027,0.012L24.37,7.822
			c-0.19,0.151-0.244,0.418-0.127,0.632c0.09,0.164,0.26,0.26,0.438,0.26c0.054,0,0.108-0.009,0.162-0.027l0.646-0.221v1.735
			L24.14,9.884c-0.021-0.006-0.043,0.006-0.064,0.003c-0.027-0.001-0.049-0.02-0.076-0.016c-0.025,0.001-0.043,0.019-0.067,0.023
			c-0.047,0.01-0.087,0.022-0.13,0.045s-0.078,0.049-0.114,0.083c-0.019,0.018-0.044,0.023-0.06,0.044
			c-0.014,0.018-0.012,0.041-0.023,0.06c-0.012,0.021-0.033,0.032-0.042,0.054l-1.733,4.214L8.434,17.551v2.375
			c0,0.706-0.452,1.095-1.012,1.095c-0.558,0-1.012-0.389-1.012-1.095v-1.898l-1.161,0.273c-0.115,0.026-0.217,0.094-0.287,0.188
			l-3.988,5.379c-0.124,0.166-0.132,0.392-0.021,0.566c0.093,0.146,0.253,0.231,0.422,0.231c0.033,0,0.066-0.003,0.1-0.01
			L46.8,15.419l21.916,7.653c0.055,0.02,0.11,0.028,0.165,0.028c0.171,0,0.335-0.088,0.428-0.241
			C69.431,22.657,69.396,22.397,69.223,22.235z M20.74,19.674l3.348-8.14l0.082,0.15l3.568,6.584L20.74,19.674z M31.9,13.411
			l-2.096-2.118c-0.066-0.067-0.15-0.114-0.243-0.136l-3.071-0.709V8.136l5.41-1.859V13.411z M37.93,10.604l-2.433,0.568
			c-0.084,0.021-0.161,0.062-0.225,0.12L32.9,13.484V6.236l5.033,1.418L37.93,10.604z"/>
		<path fill="#FDF7E7" d="M43.81,12.982c0.353,0,0.64-0.286,0.64-0.64l-0.095-5.979l-0.09-5.726C44.265,0.286,44.162,0,43.81,0
			c-0.354,0-0.456,0.286-0.456,0.639l-0.091,5.758l-0.093,5.946C43.17,12.696,43.455,12.982,43.81,12.982z"/>
		<path fill="#FDF7E7" d="M44.912,4.626c0.011-0.007,1.266-0.78,2.342-0.769C47.486,3.86,47.695,3.9,47.87,3.977
			c0.315,0.132,0.331,0.311,0.352,0.557c0.019,0.246,0.049,0.617,0.562,0.732c0.035,0.008,0.072,0.013,0.11,0.013
			c0.276,0.003,0.558-0.194,0.885-0.419c0.417-0.287,0.888-0.615,1.429-0.608c0.245,0.004,0.48,0.073,0.729,0.218
			c0.308,0.178,0.443,0.201,0.516,0.202c0.088,0,0.145-0.03,0.177-0.056c0.056-0.047,0.093-0.117,0.093-0.193
			c0.006-0.412-1.227-1.393-2.358-1.404c-0.372-0.004-0.718,0.086-1.025,0.271c-0.149,0.088-0.238,0.105-0.287,0.105
			c-0.187-0.002-0.276-0.434-0.374-0.891c-0.191-0.904-0.48-2.271-2.047-2.288c-0.509-0.007-1.108,0.129-1.826,0.411
			c-0.058,0.022-0.1,0.071-0.117,0.131c-0.016,0.059-0.008,0.123,0.029,0.174c0.003,0.007,0.465,0.645,0.369,1.575
			c-0.1,0.974-0.461,1.866-0.463,1.874c-0.034,0.082-0.011,0.174,0.057,0.229C44.745,4.666,44.838,4.672,44.912,4.626z"/>
		<path fill="#FDF7E7" d="M7.422,20.717c0.355,0,0.641-0.285,0.641-0.639l-0.106-6.031L7.878,9.6c0-0.354-0.101-0.639-0.456-0.639
			c-0.353,0-0.455,0.285-0.455,0.639l-0.078,4.446l-0.105,6.032C6.783,20.432,7.069,20.717,7.422,20.717z"/>
		<path fill="#FDF7E7" d="M8.306,13.635c0.062,0.04,0.141,0.029,0.192-0.027c0.01-0.008,1.503-0.957,2.381-1.145
			c0.191-0.039,0.366-0.039,0.521-0.002c0.271,0.066,0.309,0.227,0.355,0.451c0.045,0.223,0.116,0.562,0.551,0.576
			c0.029,0,0.062-0.002,0.092-0.01c0.229-0.047,0.431-0.282,0.674-0.552c0.301-0.343,0.643-0.731,1.086-0.825
			c0.202-0.042,0.408-0.021,0.625,0.066c0.275,0.108,0.387,0.104,0.446,0.092c0.069-0.016,0.112-0.054,0.138-0.085
			c0.041-0.052,0.06-0.125,0.051-0.194c-0.048-0.381-1.178-1.064-2.104-0.869c-0.304,0.066-0.576,0.214-0.805,0.442
			c-0.111,0.108-0.182,0.14-0.222,0.149c-0.151,0.033-0.28-0.351-0.416-0.755c-0.269-0.805-0.679-2.017-1.961-1.744
			C9.492,9.291,9.021,9.529,8.47,9.922c-0.042,0.03-0.071,0.084-0.078,0.143s0.009,0.113,0.048,0.154
			c0.002,0.006,0.078,0.515,0.121,1.393c0.04,0.922-0.328,1.814-0.328,1.824C8.217,13.516,8.242,13.598,8.306,13.635z"/>
	</g>
</g>
</svg>
