<?xml version="1.0" encoding="UTF-8" standalone="no"?>
<svg width="99px" height="93px" viewBox="0 0 99 93" version="1.1" xmlns="http://www.w3.org/2000/svg" xmlns:xlink="http://www.w3.org/1999/xlink" xmlns:sketch="http://www.bohemiancoding.com/sketch/ns">
    <!-- Generator: Sketch 3.3.3 (12081) - http://www.bohemiancoding.com/sketch -->
    <title>grandstand-colour</title>
    <desc>Created with Sketch.</desc>
    <defs></defs>
    <g id="Page-1" stroke="none" stroke-width="1" fill="none" fill-rule="evenodd" sketch:type="MSPage">
        <g id="grandstand-colour" sketch:type="MSArtboardGroup">
            <g id="beer-grandstand" sketch:type="MSLayerGroup">
                <path d="M2.283,1.019 L1.836,48.814 L50.098,90.685 L97.504,48.019 L97.504,1.353 L2.283,1.019" id="Fill-1" fill="#E15929" sketch:type="MSShapeGroup"></path>
                <path d="M0.609,0.648 L0.609,48.091 L49.67,92.495 L98.733,48.091 L98.733,0.648 L0.609,0.648 L0.609,0.648 Z M96.733,47.204 L49.67,89.798 L2.609,47.204 L2.609,2.648 L96.733,2.648 L96.733,47.204 L96.733,47.204 Z" id="Fill-2" fill="#E15929" sketch:type="MSShapeGroup"></path>
                <path d="M81.76,36.739 C81.76,36.738 81.76,36.737 81.759,36.736 C81.757,36.707 81.744,36.682 81.736,36.653 C81.73,36.628 81.73,36.601 81.72,36.577 C81.719,36.573 81.716,36.571 81.715,36.568 C81.714,36.567 81.713,36.566 81.712,36.565 C81.709,36.559 81.709,36.553 81.705,36.547 C81.705,36.546 81.703,36.545 81.703,36.545 C81.693,36.523 81.674,36.508 81.66,36.488 C81.643,36.463 81.629,36.435 81.605,36.414 L81.601,36.409 C81.601,36.408 81.6,36.407 81.598,36.406 C81.593,36.402 81.59,36.398 81.586,36.394 C81.568,36.38 81.547,36.374 81.528,36.362 C81.498,36.343 81.471,36.322 81.437,36.309 C81.433,36.308 81.429,36.304 81.429,36.304 C81.429,36.304 81.425,36.302 81.424,36.302 C81.424,36.302 81.418,36.299 81.414,36.298 L58.053,28.462 C58.004,28.428 57.949,28.4 57.889,28.386 L57.635,28.322 L57.143,28.157 C57.131,28.153 57.117,28.155 57.105,28.152 C57.08,28.146 57.054,28.144 57.027,28.142 C56.988,28.138 56.95,28.135 56.912,28.14 C56.904,28.141 56.896,28.138 56.887,28.14 L44.88,30.477 L44.88,30.47 L44.428,30.565 L13.995,36.489 C13.758,36.535 13.601,36.746 13.6,36.981 C13.598,36.999 13.591,37.016 13.591,37.035 L13.591,44.328 L13.491,44.35 C13.477,44.352 13.465,44.361 13.451,44.366 L13.348,44.36 C13.086,44.333 12.836,44.558 12.822,44.833 C12.808,45.108 13.018,45.344 13.295,45.358 L55.926,47.641 C55.941,47.643 55.955,47.65 55.971,47.651 L56.432,47.676 L56.432,53.411 L13.375,48.806 C13.125,48.774 12.854,48.975 12.824,49.25 C12.795,49.524 12.993,49.771 13.268,49.8 L56.88,54.465 C56.896,54.467 56.914,54.468 56.932,54.468 L56.933,54.468 L56.947,54.468 L80.677,53.707 C80.953,53.698 81.17,53.467 81.161,53.191 C81.15,52.916 80.906,52.715 80.646,52.707 L57.433,53.451 L57.433,47.729 L57.754,47.745 C57.763,47.746 57.772,47.746 57.78,47.746 C57.789,47.746 57.798,47.741 57.807,47.741 L63.922,48.068 L63.995,48.072 C64.004,48.073 64.013,48.073 64.022,48.073 C64.101,48.073 64.172,48.051 64.238,48.019 C64.246,48.015 64.254,48.017 64.261,48.013 L80.76,39.03 L80.76,48.896 C80.76,49.173 80.984,49.397 81.261,49.397 C81.537,49.397 81.761,49.173 81.761,48.896 L81.761,36.773 C81.761,36.768 81.758,36.763 81.758,36.757 C81.758,36.751 81.76,36.745 81.76,36.739 L81.76,36.739 Z M27.283,34.922 L27.291,36.079 L26.072,35.158 L27.283,34.922 L27.283,34.922 Z M16.392,37.042 L17.982,36.732 L16.392,38.534 L16.392,37.042 L16.392,37.042 Z M15.391,44.416 L14.591,44.388 L14.591,37.44 L15.391,37.269 L15.391,44.416 L15.391,44.416 Z M17.94,44.606 L17.088,44.56 C17.027,44.479 16.981,44.387 16.973,44.277 C16.947,43.971 17.179,43.703 17.485,43.68 C17.793,43.656 18.06,43.885 18.086,44.192 C18.098,44.351 18.039,44.497 17.94,44.606 L17.94,44.606 Z M20.002,43.879 C19.98,43.57 20.209,43.304 20.518,43.279 C20.825,43.256 21.093,43.486 21.114,43.793 C21.136,44.1 20.907,44.368 20.601,44.393 C20.296,44.416 20.025,44.185 20.002,43.879 L20.002,43.879 Z M21.75,44.811 L20.654,44.752 C20.668,44.474 20.875,44.24 21.159,44.217 C21.465,44.195 21.734,44.423 21.76,44.732 C21.762,44.76 21.752,44.784 21.75,44.811 L21.75,44.811 Z M23.543,44.66 C23.233,44.685 22.964,44.455 22.94,44.148 C22.918,43.842 23.148,43.572 23.456,43.551 C23.763,43.527 24.029,43.756 24.052,44.063 C24.077,44.369 23.849,44.637 23.543,44.66 L23.543,44.66 Z M25.103,44.989 L24.339,44.948 C24.258,44.859 24.198,44.75 24.188,44.62 C24.162,44.315 24.392,44.049 24.703,44.023 C25.007,44 25.273,44.231 25.3,44.536 C25.313,44.717 25.23,44.878 25.103,44.989 L25.103,44.989 Z M26.212,45.022 C25.901,45.045 25.636,44.816 25.61,44.51 C25.589,44.202 25.817,43.935 26.127,43.91 C26.433,43.887 26.701,44.117 26.723,44.425 C26.75,44.731 26.518,44.998 26.212,45.022 L26.212,45.022 Z M26.706,43.221 C26.397,43.244 26.132,43.014 26.108,42.709 C26.084,42.401 26.313,42.133 26.619,42.111 C26.928,42.086 27.196,42.316 27.218,42.623 C27.243,42.93 27.013,43.197 26.706,43.221 L26.706,43.221 Z M25.519,41.696 C25.686,41.782 25.808,41.94 25.82,42.139 C25.845,42.445 25.615,42.712 25.307,42.736 C25.002,42.76 24.734,42.531 24.712,42.223 C24.699,42.083 24.748,41.954 24.826,41.85 L24.443,41.935 C24.555,42.027 24.631,42.163 24.644,42.32 C24.666,42.628 24.438,42.894 24.131,42.918 C23.822,42.941 23.556,42.711 23.534,42.404 C23.525,42.302 23.555,42.208 23.596,42.121 L22.853,42.285 C22.871,42.333 22.89,42.38 22.896,42.434 C22.918,42.74 22.69,43.008 22.381,43.031 C22.078,43.056 21.812,42.825 21.785,42.521 L21.338,42.619 C21.312,42.882 21.112,43.099 20.836,43.121 C20.617,43.137 20.422,43.022 20.318,42.844 L19.217,43.087 C19.406,43.164 19.549,43.339 19.565,43.558 C19.589,43.865 19.358,44.131 19.053,44.154 C18.745,44.179 18.475,43.949 18.451,43.643 C18.439,43.481 18.5,43.332 18.603,43.223 L16.392,43.71 L16.392,40.046 L19.594,36.419 L24.752,35.415 L27.3,37.341 L27.326,41.299 L25.519,41.696 L25.519,41.696 Z M28.351,45.146 L28.283,34.763 L29.066,34.598 L29.135,45.188 L28.351,45.146 L28.351,45.146 Z M30.064,34.381 L31.523,34.097 L30.073,35.685 L30.064,34.381 L30.064,34.381 Z M30.502,44.742 C30.361,44.753 30.234,44.707 30.131,44.629 L30.125,43.754 C30.209,43.688 30.305,43.639 30.418,43.63 C30.724,43.606 30.991,43.836 31.013,44.143 C31.037,44.452 30.81,44.719 30.502,44.742 L30.502,44.742 Z M31.164,43.461 C30.854,43.486 30.589,43.258 30.563,42.95 C30.543,42.643 30.769,42.375 31.079,42.352 C31.387,42.326 31.652,42.559 31.677,42.864 C31.701,43.172 31.47,43.44 31.164,43.461 L31.164,43.461 Z M32.555,45.236 C32.252,45.262 31.98,45.031 31.959,44.725 C31.935,44.416 32.163,44.148 32.468,44.126 C32.778,44.102 33.045,44.33 33.066,44.639 C33.091,44.947 32.863,45.214 32.555,45.236 L32.555,45.236 Z M32.589,42.971 C32.293,42.994 32.043,42.78 32.002,42.495 C31.971,42.503 31.945,42.518 31.913,42.521 C31.606,42.545 31.336,42.313 31.313,42.008 C31.293,41.701 31.517,41.432 31.828,41.408 C32.121,41.386 32.375,41.6 32.416,41.886 C32.445,41.878 32.471,41.863 32.502,41.861 C32.811,41.836 33.077,42.066 33.101,42.372 C33.125,42.681 32.895,42.947 32.589,42.971 L32.589,42.971 Z M33.834,43.617 C33.527,43.641 33.261,43.411 33.234,43.106 C33.213,42.798 33.443,42.529 33.747,42.507 C33.971,42.489 34.174,42.609 34.277,42.795 C34.369,42.682 34.506,42.604 34.666,42.591 C34.971,42.566 35.239,42.797 35.265,43.104 C35.285,43.41 35.055,43.678 34.747,43.701 C34.523,43.719 34.322,43.599 34.221,43.413 C34.127,43.527 33.991,43.606 33.834,43.617 L33.834,43.617 Z M35.395,41.705 C35.42,42.01 35.189,42.279 34.884,42.303 C34.576,42.326 34.306,42.096 34.283,41.789 C34.271,41.63 34.329,41.483 34.428,41.375 C34.318,41.281 34.243,41.147 34.23,40.991 C34.21,40.686 34.439,40.418 34.747,40.393 C35.055,40.371 35.323,40.601 35.344,40.908 C35.356,41.066 35.299,41.212 35.199,41.321 C35.31,41.414 35.385,41.549 35.395,41.705 L35.395,41.705 Z M34.985,45.246 C34.685,45.269 34.416,45.042 34.394,44.734 C34.369,44.428 34.597,44.16 34.902,44.136 C35.215,44.111 35.483,44.344 35.502,44.649 C35.524,44.955 35.298,45.223 34.985,45.246 L34.985,45.246 Z M36.953,42.152 C36.929,41.844 37.16,41.574 37.469,41.553 C37.774,41.529 38.041,41.759 38.066,42.066 C38.09,42.373 37.86,42.641 37.552,42.666 C37.433,42.674 37.327,42.637 37.232,42.581 C37.25,42.628 37.269,42.674 37.273,42.726 C37.298,43.03 37.065,43.3 36.763,43.324 C36.453,43.346 36.186,43.117 36.163,42.81 C36.135,42.503 36.367,42.236 36.673,42.213 C36.793,42.203 36.9,42.24 36.995,42.297 C36.978,42.25 36.959,42.204 36.953,42.152 L36.953,42.152 Z M36.17,43.297 C36.478,43.273 36.745,43.504 36.768,43.81 C36.794,44.117 36.563,44.383 36.252,44.408 C35.949,44.432 35.681,44.202 35.659,43.894 C35.632,43.589 35.863,43.322 36.17,43.297 L36.17,43.297 Z M36.668,45.608 L35.822,45.563 C35.76,45.481 35.713,45.388 35.703,45.277 C35.682,44.971 35.909,44.702 36.216,44.679 C36.523,44.656 36.79,44.887 36.814,45.194 C36.827,45.352 36.769,45.499 36.668,45.608 L36.668,45.608 Z M37.662,45.607 C37.351,45.633 37.086,45.402 37.064,45.097 C37.039,44.789 37.268,44.521 37.577,44.498 C37.885,44.475 38.15,44.703 38.175,45.01 C38.197,45.317 37.969,45.586 37.662,45.607 L37.662,45.607 Z M38.035,41.31 C37.727,41.334 37.462,41.105 37.435,40.797 C37.412,40.49 37.642,40.224 37.951,40.199 C38.257,40.176 38.524,40.404 38.549,40.712 C38.57,41.019 38.342,41.288 38.035,41.31 L38.035,41.31 Z M40.663,41.356 C40.688,41.662 40.456,41.931 40.149,41.953 C39.844,41.977 39.573,41.748 39.549,41.441 C39.545,41.369 39.556,41.301 39.576,41.236 C39.305,41.216 39.077,41.01 39.058,40.732 C39.034,40.426 39.264,40.157 39.57,40.133 C39.878,40.111 40.146,40.34 40.168,40.648 C40.174,40.72 40.162,40.788 40.142,40.852 C40.418,40.87 40.643,41.075 40.663,41.356 L40.663,41.356 Z M38.969,40.357 C38.666,40.379 38.395,40.15 38.372,39.842 C38.349,39.536 38.579,39.269 38.885,39.245 C39.193,39.223 39.46,39.452 39.481,39.758 C39.506,40.065 39.276,40.332 38.969,40.357 L38.969,40.357 Z M38.993,42.19 C39.299,42.168 39.568,42.396 39.591,42.703 C39.611,43.011 39.384,43.277 39.079,43.301 C38.772,43.325 38.504,43.096 38.482,42.787 C38.457,42.481 38.685,42.215 38.993,42.19 L38.993,42.19 Z M39.213,45.25 C38.905,45.273 38.637,45.042 38.615,44.736 C38.591,44.43 38.818,44.162 39.128,44.138 C39.434,44.115 39.703,44.344 39.726,44.652 C39.75,44.959 39.518,45.226 39.213,45.25 L39.213,45.25 Z M40.258,44.898 C39.951,44.92 39.682,44.691 39.662,44.383 C39.637,44.078 39.864,43.81 40.173,43.787 C40.481,43.764 40.747,43.993 40.769,44.299 C40.796,44.607 40.565,44.875 40.258,44.898 L40.258,44.898 Z M41.29,43.679 C40.986,43.702 40.717,43.475 40.692,43.166 C40.67,42.861 40.901,42.592 41.206,42.57 C41.513,42.545 41.782,42.777 41.805,43.082 C41.83,43.389 41.597,43.656 41.29,43.679 L41.29,43.679 Z M41.566,41.104 C41.261,41.127 40.995,40.898 40.969,40.592 C40.947,40.284 41.177,40.018 41.485,39.993 C41.794,39.97 42.058,40.199 42.082,40.507 C42.104,40.813 41.877,41.08 41.566,41.104 L41.566,41.104 Z M42.098,38.998 L41.06,39.07 C41.06,39.072 41.062,39.074 41.062,39.077 C41.081,39.383 40.856,39.652 40.549,39.676 C40.241,39.699 39.971,39.469 39.949,39.162 C39.949,39.157 39.951,39.152 39.951,39.148 L36.9,39.359 C37.045,39.45 37.152,39.598 37.166,39.781 C37.188,40.087 36.959,40.356 36.654,40.379 C36.344,40.4 36.073,40.172 36.049,39.867 C36.037,39.681 36.123,39.517 36.256,39.404 L35.756,39.44 L34.129,39.799 C34.185,39.879 34.23,39.969 34.24,40.074 C34.26,40.383 34.031,40.649 33.726,40.672 C33.418,40.697 33.152,40.469 33.128,40.16 C33.123,40.109 33.136,40.063 33.144,40.016 L32.597,40.136 C32.785,40.214 32.925,40.386 32.943,40.602 C32.965,40.908 32.736,41.178 32.428,41.199 C32.125,41.225 31.853,40.992 31.828,40.687 C31.817,40.529 31.875,40.383 31.974,40.273 L31.342,40.413 C31.379,40.481 31.404,40.555 31.411,40.637 C31.435,40.943 31.203,41.211 30.897,41.236 C30.836,41.24 30.779,41.229 30.722,41.214 C30.635,41.296 30.525,41.356 30.393,41.365 C30.29,41.373 30.195,41.345 30.109,41.303 L30.104,40.313 L30.082,37.155 L33.17,33.776 L39.225,32.598 L42.098,35.038 L42.098,38.998 L42.098,38.998 Z M42.098,33.727 L40.48,32.354 L42.098,32.038 L42.098,33.727 L42.098,33.727 Z M43.88,45.969 L43.097,45.928 L43.097,31.867 L43.88,31.702 L43.88,45.969 L43.88,45.969 Z M55.494,42.628 C55.416,42.684 55.326,42.726 55.223,42.734 C54.916,42.756 54.646,42.525 54.622,42.22 C54.6,41.913 54.834,41.644 55.137,41.621 C55.269,41.611 55.392,41.655 55.493,41.726 L55.494,42.628 L55.494,42.628 Z M54.468,40.551 C54.774,40.529 55.045,40.758 55.068,41.065 C55.093,41.37 54.86,41.639 54.553,41.662 C54.244,41.685 53.979,41.455 53.955,41.148 C53.933,40.844 54.159,40.575 54.468,40.551 L54.468,40.551 Z M53.723,39.936 C53.701,39.627 53.931,39.359 54.236,39.338 C54.543,39.313 54.81,39.543 54.836,39.85 C54.858,40.155 54.628,40.424 54.322,40.447 C54.016,40.471 53.745,40.24 53.723,39.936 L53.723,39.936 Z M55.484,29.433 L55.486,31.251 L54.015,29.719 L55.484,29.433 L55.484,29.433 Z M44.88,31.497 L47.033,31.078 L44.88,33.281 L44.88,31.497 L44.88,31.497 Z M44.88,34.712 L48.76,30.741 L52.847,29.946 L55.486,32.696 L55.49,38.065 L52.879,38.248 C52.81,38.454 52.625,38.611 52.394,38.628 C52.16,38.647 51.951,38.518 51.851,38.319 L47.6,38.615 C47.607,38.644 47.621,38.671 47.625,38.702 C47.643,39.008 47.418,39.277 47.112,39.301 C46.803,39.324 46.534,39.094 46.512,38.787 C46.51,38.753 46.519,38.723 46.523,38.69 L44.88,38.805 L44.88,34.712 L44.88,34.712 Z M49.643,40.81 C49.95,40.788 50.22,41.018 50.243,41.325 C50.265,41.631 50.034,41.899 49.728,41.924 C49.42,41.945 49.152,41.717 49.131,41.408 C49.105,41.102 49.336,40.834 49.643,40.81 L49.643,40.81 Z M48.877,39.131 C48.849,38.824 49.081,38.556 49.388,38.533 C49.696,38.508 49.963,38.74 49.988,39.045 C50.01,39.352 49.783,39.621 49.476,39.643 C49.168,39.668 48.898,39.438 48.877,39.131 L48.877,39.131 Z M48.576,41.269 C48.6,41.574 48.367,41.842 48.066,41.865 C47.757,41.89 47.489,41.66 47.465,41.354 C47.44,41.045 47.67,40.777 47.979,40.756 C48.285,40.731 48.552,40.961 48.576,41.269 L48.576,41.269 Z M46.725,41.827 C47.031,41.803 47.301,42.033 47.325,42.34 C47.347,42.646 47.115,42.914 46.808,42.938 C46.5,42.961 46.234,42.732 46.21,42.426 C46.185,42.117 46.418,41.85 46.725,41.827 L46.725,41.827 Z M46.091,41.342 C45.783,41.366 45.514,41.137 45.493,40.829 C45.471,40.523 45.698,40.256 46.004,40.232 C46.313,40.209 46.579,40.438 46.604,40.745 C46.628,41.052 46.398,41.318 46.091,41.342 L46.091,41.342 Z M44.88,39.198 C44.972,39.091 45.105,39.019 45.259,39.008 C45.566,38.984 45.836,39.213 45.856,39.521 C45.881,39.827 45.65,40.096 45.343,40.121 C45.154,40.134 44.99,40.047 44.88,39.913 L44.88,39.198 L44.88,39.198 Z M44.88,42.158 C44.969,42.073 45.084,42.012 45.217,42.002 C45.526,41.979 45.793,42.207 45.814,42.514 C45.839,42.821 45.61,43.088 45.3,43.111 C45.139,43.125 44.99,43.063 44.88,42.959 L44.88,42.158 L44.88,42.158 Z M45.401,45.159 C45.18,45.177 44.984,45.06 44.88,44.883 L44.88,44.336 C44.969,44.18 45.121,44.063 45.316,44.049 C45.622,44.025 45.891,44.254 45.913,44.563 C45.936,44.868 45.709,45.135 45.401,45.159 L45.401,45.159 Z M46.393,44.234 C46.334,44.262 46.269,44.283 46.199,44.289 C45.891,44.313 45.622,44.082 45.6,43.774 C45.578,43.469 45.809,43.199 46.114,43.176 C46.414,43.154 46.675,43.376 46.707,43.673 C46.765,43.644 46.83,43.623 46.898,43.617 C47.206,43.595 47.477,43.826 47.5,44.133 C47.52,44.437 47.291,44.705 46.986,44.731 C46.686,44.753 46.424,44.531 46.393,44.234 L46.393,44.234 Z M48.855,46.261 L48.022,46.217 C48.002,46.192 47.98,46.173 47.965,46.147 C47.943,46.172 47.913,46.189 47.887,46.209 L47.164,46.17 C47.07,46.079 47.004,45.96 46.995,45.82 C46.969,45.513 47.201,45.245 47.507,45.223 C47.732,45.205 47.935,45.326 48.037,45.512 C48.13,45.408 48.26,45.337 48.409,45.325 C48.717,45.303 48.985,45.531 49.008,45.84 C49.02,46.003 48.959,46.151 48.855,46.261 L48.855,46.261 Z M48.73,44.036 C48.423,44.059 48.157,43.828 48.132,43.523 C48.108,43.217 48.339,42.947 48.647,42.924 C48.951,42.9 49.221,43.131 49.246,43.438 C49.268,43.744 49.035,44.014 48.73,44.036 L48.73,44.036 Z M49.887,45.664 C49.581,45.688 49.313,45.459 49.293,45.152 C49.266,44.846 49.496,44.576 49.8,44.553 C50.11,44.529 50.377,44.76 50.4,45.066 C50.423,45.374 50.194,45.641 49.887,45.664 L49.887,45.664 Z M50.258,43.039 C49.95,43.065 49.681,42.834 49.659,42.527 C49.635,42.22 49.866,41.951 50.172,41.929 C50.48,41.904 50.75,42.136 50.772,42.441 C50.795,42.749 50.566,43.016 50.258,43.039 L50.258,43.039 Z M50.798,40.23 C50.775,39.922 51.002,39.654 51.309,39.631 C51.615,39.607 51.885,39.837 51.909,40.144 C51.931,40.449 51.701,40.718 51.396,40.742 C51.086,40.766 50.82,40.535 50.798,40.23 L50.798,40.23 Z M51.528,41.141 C51.769,41.122 51.983,41.263 52.077,41.471 C52.17,41.354 52.306,41.273 52.469,41.26 C52.772,41.236 53.043,41.467 53.065,41.773 C53.089,42.08 52.86,42.349 52.552,42.371 C52.311,42.388 52.1,42.249 52.006,42.041 C51.912,42.158 51.775,42.239 51.613,42.252 C51.308,42.273 51.043,42.045 51.017,41.74 C50.996,41.434 51.221,41.164 51.528,41.141 L51.528,41.141 Z M51.058,43.227 C51.034,42.92 51.264,42.652 51.572,42.629 C51.878,42.606 52.149,42.837 52.173,43.143 C52.193,43.449 51.963,43.718 51.657,43.74 C51.35,43.764 51.084,43.535 51.058,43.227 L51.058,43.227 Z M52.558,46.027 C52.254,46.05 51.984,45.82 51.961,45.514 C51.94,45.207 52.166,44.938 52.47,44.914 C52.778,44.893 53.049,45.121 53.07,45.43 C53.097,45.736 52.866,46.004 52.558,46.027 L52.558,46.027 Z M52.575,40.537 C52.266,40.563 52,40.332 51.977,40.025 C51.953,39.718 52.185,39.451 52.489,39.428 C52.796,39.402 53.063,39.633 53.089,39.94 C53.112,40.248 52.883,40.516 52.575,40.537 L52.575,40.537 Z M53.049,38.802 C53.026,38.496 53.257,38.229 53.561,38.205 C53.867,38.182 54.14,38.412 54.161,38.717 C54.183,39.023 53.953,39.291 53.648,39.315 C53.342,39.34 53.072,39.111 53.049,38.802 L53.049,38.802 Z M53.327,43.965 C53.313,43.786 53.392,43.628 53.513,43.516 C53.441,43.43 53.386,43.326 53.378,43.205 C53.351,42.898 53.582,42.632 53.89,42.606 C54.198,42.584 54.465,42.813 54.49,43.121 C54.504,43.299 54.426,43.457 54.303,43.569 C54.377,43.655 54.432,43.758 54.44,43.88 C54.463,44.185 54.233,44.453 53.925,44.477 C53.619,44.5 53.349,44.272 53.327,43.965 L53.327,43.965 Z M54.562,46.566 L53.82,46.526 C53.732,46.437 53.668,46.32 53.657,46.185 C53.633,45.879 53.864,45.609 54.168,45.587 C54.473,45.562 54.747,45.793 54.769,46.1 C54.785,46.288 54.697,46.455 54.562,46.566 L54.562,46.566 Z M55.155,45.316 C54.849,45.34 54.58,45.109 54.557,44.803 C54.531,44.494 54.765,44.229 55.068,44.205 C55.234,44.192 55.385,44.256 55.495,44.361 L55.496,45.154 C55.405,45.242 55.29,45.306 55.155,45.316 L55.155,45.316 Z M56.497,46.678 L56.484,29.265 L56.89,29.167 L57.268,29.262 L57.28,46.719 L56.497,46.678 L56.497,46.678 Z M58.268,29.589 L78.72,36.449 L77.521,36.532 C77.58,36.613 77.625,36.704 77.633,36.81 C77.658,37.12 77.426,37.385 77.122,37.409 C76.814,37.432 76.547,37.203 76.522,36.896 C76.514,36.787 76.547,36.688 76.596,36.597 L72.152,36.906 C72.135,37.179 71.93,37.406 71.646,37.428 C71.365,37.448 71.125,37.251 71.07,36.981 L68.166,37.184 C68.25,37.273 68.31,37.385 68.32,37.516 C68.336,37.697 68.254,37.858 68.127,37.97 C68.142,37.968 68.152,37.96 68.168,37.959 C68.475,37.935 68.744,38.164 68.766,38.471 C68.79,38.777 68.559,39.045 68.252,39.068 C67.946,39.093 67.677,38.863 67.654,38.556 C67.641,38.375 67.721,38.216 67.845,38.105 C67.831,38.106 67.82,38.114 67.806,38.115 C67.504,38.137 67.234,37.91 67.21,37.602 C67.199,37.467 67.244,37.345 67.316,37.242 L66.822,37.277 C66.782,37.526 66.584,37.73 66.323,37.75 C66.057,37.769 65.83,37.597 65.756,37.352 L63.865,37.482 C63.891,37.54 63.912,37.602 63.918,37.668 C63.942,37.973 63.711,38.24 63.404,38.264 C63.095,38.287 62.828,38.059 62.805,37.752 C62.8,37.684 62.811,37.617 62.829,37.555 L58.273,37.872 L58.268,29.589 L58.268,29.589 Z M73.178,37.429 C73.154,37.121 73.384,36.854 73.694,36.832 C74.002,36.808 74.268,37.037 74.293,37.344 C74.314,37.649 74.084,37.918 73.779,37.941 C73.469,37.965 73.203,37.736 73.178,37.429 L73.178,37.429 Z M73.328,38.929 C73.353,39.234 73.123,39.504 72.814,39.527 C72.509,39.552 72.241,39.32 72.218,39.015 C72.194,38.707 72.424,38.438 72.73,38.416 C73.035,38.391 73.305,38.623 73.328,38.929 L73.328,38.929 Z M64.185,41.661 C63.975,41.678 63.79,41.568 63.683,41.401 C63.41,41.385 63.181,41.178 63.163,40.898 C63.141,40.593 63.367,40.324 63.677,40.302 C63.886,40.285 64.072,40.393 64.179,40.559 C64.451,40.578 64.679,40.783 64.701,41.063 C64.725,41.369 64.494,41.637 64.185,41.661 L64.185,41.661 Z M64.392,42.392 C64.416,42.701 64.185,42.968 63.879,42.992 C63.572,43.016 63.306,42.785 63.282,42.479 C63.258,42.171 63.486,41.904 63.793,41.881 C64.102,41.856 64.369,42.087 64.392,42.392 L64.392,42.392 Z M62.462,40.575 C62.486,40.881 62.254,41.148 61.951,41.172 C61.643,41.195 61.375,40.967 61.351,40.659 C61.34,40.498 61.398,40.352 61.5,40.242 C61.445,40.163 61.402,40.075 61.395,39.973 C61.369,39.668 61.599,39.398 61.909,39.375 C62.214,39.352 62.483,39.582 62.506,39.889 C62.518,40.05 62.459,40.196 62.358,40.306 C62.413,40.385 62.455,40.473 62.462,40.575 L62.462,40.575 Z M59.031,42.188 C58.721,42.211 58.456,41.981 58.433,41.675 C58.408,41.367 58.636,41.1 58.947,41.076 C59.257,41.055 59.521,41.282 59.546,41.588 C59.568,41.897 59.336,42.163 59.031,42.188 L59.031,42.188 Z M59.475,43.15 C59.497,43.456 59.269,43.727 58.963,43.75 C58.652,43.773 58.387,43.543 58.362,43.234 C58.34,42.93 58.568,42.66 58.878,42.637 C59.184,42.615 59.45,42.846 59.475,43.15 L59.475,43.15 Z M59.25,38.809 C59.225,38.5 59.457,38.232 59.763,38.209 C60.068,38.185 60.34,38.416 60.362,38.723 C60.384,39.029 60.152,39.297 59.848,39.32 C59.54,39.344 59.269,39.115 59.25,38.809 L59.25,38.809 Z M60.089,40.06 C60.398,40.038 60.668,40.268 60.69,40.575 C60.712,40.881 60.484,41.148 60.177,41.174 C59.866,41.196 59.602,40.967 59.579,40.659 C59.553,40.355 59.783,40.086 60.089,40.06 L60.089,40.06 Z M60.406,38.881 C60.385,38.572 60.614,38.304 60.922,38.281 C61.228,38.258 61.494,38.488 61.519,38.795 C61.543,39.102 61.312,39.369 61.007,39.393 C60.696,39.416 60.432,39.188 60.406,38.881 L60.406,38.881 Z M60.869,42.175 C60.918,42.171 60.963,42.184 61.01,42.191 C61.084,42 61.261,41.855 61.482,41.836 C61.79,41.813 62.06,42.043 62.08,42.35 C62.103,42.656 61.877,42.923 61.568,42.947 C61.519,42.951 61.472,42.938 61.425,42.93 C61.35,43.123 61.172,43.269 60.951,43.285 C60.645,43.311 60.377,43.079 60.353,42.773 C60.329,42.467 60.56,42.198 60.869,42.175 L60.869,42.175 Z M62.339,39.039 C62.314,38.734 62.546,38.467 62.853,38.441 C63.161,38.418 63.428,38.649 63.45,38.955 C63.473,39.263 63.245,39.531 62.937,39.554 C62.63,39.576 62.363,39.348 62.339,39.039 L62.339,39.039 Z M58.275,39.706 C58.353,39.65 58.443,39.607 58.548,39.6 C58.852,39.574 59.122,39.805 59.145,40.111 C59.17,40.418 58.935,40.686 58.63,40.709 C58.498,40.719 58.377,40.675 58.275,40.605 L58.275,39.706 L58.275,39.706 Z M58.905,46.242 C58.597,46.265 58.331,46.033 58.305,45.727 C58.282,45.422 58.509,45.154 58.82,45.129 C59.123,45.107 59.393,45.336 59.418,45.644 C59.44,45.95 59.209,46.219 58.905,46.242 L58.905,46.242 Z M60.635,46.144 C60.331,46.169 60.062,45.94 60.037,45.633 C60.033,45.588 60.047,45.547 60.053,45.504 C59.982,45.546 59.902,45.577 59.814,45.584 C59.508,45.607 59.243,45.377 59.217,45.07 C59.19,44.762 59.423,44.494 59.73,44.473 C60.037,44.449 60.303,44.678 60.329,44.986 C60.332,45.031 60.32,45.072 60.312,45.115 C60.385,45.072 60.463,45.041 60.552,45.034 C60.856,45.01 61.127,45.24 61.15,45.548 C61.17,45.854 60.942,46.121 60.635,46.144 L60.635,46.144 Z M62.11,44.914 C61.816,44.937 61.562,44.725 61.519,44.437 C61.43,44.583 61.281,44.691 61.096,44.705 C60.787,44.73 60.521,44.5 60.496,44.193 C60.475,43.887 60.705,43.617 61.011,43.596 C61.307,43.572 61.56,43.786 61.601,44.073 C61.693,43.927 61.842,43.818 62.027,43.804 C62.331,43.779 62.6,44.01 62.622,44.316 C62.643,44.623 62.416,44.893 62.11,44.914 L62.11,44.914 Z M63.482,47.021 C63.177,47.045 62.908,46.815 62.883,46.508 C62.859,46.199 63.09,45.934 63.398,45.911 C63.703,45.887 63.973,46.115 63.998,46.422 C64.018,46.73 63.79,46.998 63.482,47.021 L63.482,47.021 Z M63.699,44.966 C63.393,44.99 63.125,44.76 63.101,44.452 C63.078,44.148 63.31,43.879 63.615,43.856 C63.923,43.832 64.191,44.062 64.214,44.369 C64.234,44.676 64.004,44.943 63.699,44.966 L63.699,44.966 Z M64.782,45.277 C64.47,45.302 64.205,45.07 64.182,44.764 C64.159,44.457 64.387,44.19 64.692,44.165 C65.002,44.143 65.272,44.371 65.294,44.68 C65.314,44.986 65.086,45.254 64.782,45.277 L64.782,45.277 Z M64.726,38.85 C64.701,38.544 64.932,38.275 65.242,38.252 C65.548,38.229 65.814,38.458 65.836,38.764 C65.865,39.072 65.631,39.34 65.327,39.363 C65.018,39.387 64.75,39.156 64.726,38.85 L64.726,38.85 Z M66.198,42.969 C65.89,42.992 65.621,42.763 65.597,42.455 C65.573,42.148 65.805,41.883 66.111,41.858 C66.418,41.834 66.687,42.064 66.71,42.371 C66.733,42.678 66.504,42.947 66.198,42.969 L66.198,42.969 Z M66.727,40.906 C66.652,40.951 66.572,40.984 66.481,40.991 C66.176,41.016 65.907,40.787 65.881,40.479 C65.86,40.172 66.091,39.904 66.398,39.881 C66.414,39.88 66.429,39.887 66.446,39.887 C66.519,39.842 66.6,39.809 66.69,39.801 C66.998,39.779 67.266,40.008 67.287,40.315 C67.313,40.621 67.079,40.888 66.775,40.912 C66.758,40.913 66.743,40.906 66.727,40.906 L66.727,40.906 Z M67.377,44.565 C67.07,44.59 66.803,44.359 66.78,44.053 C66.752,43.746 66.983,43.479 67.291,43.455 C67.6,43.432 67.867,43.661 67.89,43.969 C67.916,44.273 67.686,44.542 67.377,44.565 L67.377,44.565 Z M67.853,43.099 C67.548,43.121 67.28,42.893 67.259,42.584 C67.233,42.277 67.464,42.012 67.77,41.988 C68.077,41.963 68.345,42.193 68.369,42.5 C68.392,42.807 68.163,43.076 67.853,43.099 L67.853,43.099 Z M68.807,41.352 C68.805,41.32 68.814,41.293 68.818,41.263 C68.674,41.171 68.568,41.023 68.553,40.842 C68.53,40.534 68.757,40.268 69.066,40.242 C69.375,40.219 69.644,40.448 69.668,40.756 C69.668,40.787 69.658,40.815 69.655,40.846 C69.799,40.937 69.904,41.084 69.918,41.267 C69.941,41.572 69.712,41.841 69.402,41.865 C69.097,41.887 68.834,41.658 68.807,41.352 L68.807,41.352 Z M69.734,43.718 C69.427,43.74 69.16,43.512 69.135,43.203 C69.111,42.898 69.339,42.629 69.649,42.605 C69.956,42.582 70.223,42.813 70.245,43.119 C70.269,43.426 70.041,43.693 69.734,43.718 L69.734,43.718 Z M70.57,39.047 C70.264,39.07 69.994,38.84 69.971,38.533 C69.947,38.226 70.178,37.959 70.486,37.938 C70.79,37.912 71.062,38.141 71.084,38.447 C71.105,38.756 70.878,39.023 70.57,39.047 L70.57,39.047 Z M71.747,40.643 C71.443,40.666 71.175,40.438 71.15,40.131 C71.128,39.823 71.358,39.557 71.661,39.532 C71.974,39.509 72.239,39.738 72.264,40.045 C72.287,40.352 72.058,40.619 71.747,40.643 L71.747,40.643 Z M73.39,41.903 L72.631,42.317 C72.447,42.237 72.309,42.069 72.293,41.858 C72.27,41.551 72.5,41.282 72.808,41.26 C73.114,41.236 73.381,41.467 73.407,41.773 C73.41,41.818 73.398,41.86 73.39,41.903 L73.39,41.903 Z M74.107,39.795 C73.8,39.818 73.531,39.588 73.507,39.281 C73.482,38.975 73.714,38.707 74.022,38.682 C74.327,38.659 74.596,38.891 74.618,39.196 C74.643,39.504 74.413,39.772 74.107,39.795 L74.107,39.795 Z M74.906,41.078 C74.905,41.07 74.9,41.063 74.898,41.055 C74.877,40.749 75.105,40.481 75.413,40.455 C75.563,40.444 75.703,40.496 75.81,40.586 L74.906,41.078 L74.906,41.078 Z M76.63,38.596 C76.412,38.611 76.217,38.498 76.112,38.322 C76.034,38.51 75.861,38.65 75.645,38.668 C75.336,38.69 75.068,38.461 75.046,38.155 C75.023,37.849 75.252,37.58 75.56,37.557 C75.779,37.54 75.971,37.654 76.076,37.829 C76.154,37.642 76.328,37.501 76.544,37.484 C76.852,37.461 77.115,37.69 77.142,37.997 C77.164,38.305 76.933,38.57 76.63,38.596 L76.63,38.596 Z M77.22,39.818 C77.152,39.733 77.101,39.636 77.093,39.519 C77.068,39.213 77.3,38.945 77.606,38.922 C77.867,38.902 78.086,39.067 78.166,39.303 L77.22,39.818 L77.22,39.818 Z M78.83,38.941 C78.742,38.852 78.678,38.735 78.668,38.599 C78.645,38.293 78.875,38.025 79.182,38.002 C79.459,37.981 79.697,38.174 79.757,38.438 L78.83,38.941 L78.83,38.941 Z" id="Fill-3" fill="#FFFDF7" sketch:type="MSShapeGroup"></path>
                <path d="M82.044,31.915 L70.692,21.281 C70.648,21.24 70.598,21.208 70.543,21.185 L62.142,17.692 C62.133,17.69 62.125,17.69 62.117,17.688 C62.093,17.68 62.072,17.68 62.049,17.675 C61.99,17.663 61.934,17.66 61.877,17.669 C61.862,17.672 61.849,17.664 61.836,17.668 L57.661,18.651 L57.661,21.93 C57.661,22.636 57.209,23.024 56.649,23.024 C56.091,23.024 55.636,22.636 55.636,21.93 L55.636,19.128 L51.752,20.044 L51.754,17.567 L51.885,17.604 C51.93,17.615 51.974,17.621 52.018,17.621 C52.209,17.621 52.387,17.512 52.47,17.331 C52.574,17.109 52.502,16.846 52.3,16.708 L45.012,11.732 C44.996,11.722 44.977,11.725 44.961,11.717 C44.943,11.706 44.932,11.688 44.911,11.68 C44.878,11.666 44.843,11.674 44.808,11.668 C44.771,11.662 44.739,11.653 44.701,11.655 C44.642,11.659 44.591,11.678 44.535,11.702 C44.512,11.712 44.484,11.708 44.462,11.723 C44.455,11.727 44.451,11.736 44.445,11.742 C44.438,11.748 44.426,11.747 44.418,11.754 L37.191,17.502 C37.002,17.653 36.947,17.92 37.065,18.134 C37.154,18.298 37.324,18.394 37.502,18.394 C37.557,18.394 37.611,18.385 37.666,18.366 L38.311,18.146 L38.311,19.881 L36.961,19.564 C36.939,19.558 36.918,19.569 36.896,19.566 C36.869,19.565 36.848,19.547 36.82,19.551 C36.795,19.552 36.777,19.569 36.752,19.574 C36.706,19.584 36.666,19.597 36.623,19.619 C36.58,19.642 36.545,19.668 36.509,19.702 C36.49,19.72 36.465,19.726 36.449,19.746 C36.435,19.764 36.437,19.787 36.426,19.806 C36.414,19.826 36.392,19.838 36.384,19.859 L34.65,24.073 L21.254,27.231 L21.254,29.606 C21.254,30.312 20.803,30.7 20.243,30.7 C19.686,30.7 19.23,30.312 19.23,29.606 L19.23,27.707 L18.07,27.981 C17.955,28.007 17.853,28.074 17.783,28.169 L13.795,33.548 C13.67,33.714 13.663,33.94 13.774,34.114 C13.867,34.26 14.027,34.346 14.196,34.346 C14.229,34.346 14.263,34.343 14.296,34.336 L59.621,25.099 L81.537,32.752 C81.592,32.771 81.647,32.78 81.701,32.78 C81.873,32.78 82.037,32.692 82.13,32.539 C82.252,32.337 82.217,32.077 82.044,31.915 L82.044,31.915 Z M33.562,29.354 L36.909,21.214 L36.991,21.364 L40.56,27.948 L33.562,29.354 L33.562,29.354 Z M44.721,23.091 L42.627,20.973 C42.56,20.905 42.475,20.858 42.383,20.837 L39.311,20.128 L39.311,17.815 L44.721,15.956 L44.721,23.091 L44.721,23.091 Z M50.752,20.284 L48.318,20.853 C48.234,20.873 48.157,20.914 48.094,20.973 L45.72,23.164 L45.72,15.916 L50.754,17.334 L50.752,20.284 L50.752,20.284 Z" id="Fill-4" fill="#FFFDF7" sketch:type="MSShapeGroup"></path>
                <path d="M56.631,22.662 C56.982,22.662 57.27,22.376 57.27,22.023 L57.086,10.318 C57.086,9.966 56.982,9.68 56.631,9.68 C56.276,9.68 56.175,9.966 56.175,10.318 L55.991,22.023 C55.991,22.376 56.276,22.662 56.631,22.662" id="Fill-5" fill="#FFFDF7" sketch:type="MSShapeGroup"></path>
                <path d="M57.733,14.306 C57.744,14.299 59,13.525 60.075,13.537 C60.308,13.54 60.517,13.58 60.691,13.656 C61.007,13.788 61.022,13.967 61.043,14.213 C61.061,14.459 61.092,14.83 61.604,14.945 C61.64,14.953 61.677,14.958 61.715,14.958 C61.991,14.961 62.273,14.764 62.6,14.539 C63.016,14.252 63.486,13.924 64.028,13.931 C64.273,13.935 64.509,14.004 64.757,14.148 C65.064,14.326 65.199,14.35 65.273,14.351 C65.36,14.351 65.418,14.32 65.449,14.295 C65.504,14.248 65.543,14.178 65.543,14.102 C65.548,13.69 64.314,12.709 63.183,12.697 C62.812,12.693 62.465,12.783 62.158,12.969 C62.009,13.057 61.92,13.074 61.871,13.074 C61.685,13.072 61.595,12.641 61.497,12.184 C61.305,11.279 61.017,9.913 59.45,9.896 C58.941,9.889 58.342,10.024 57.625,10.307 C57.566,10.329 57.525,10.378 57.507,10.438 C57.491,10.496 57.5,10.561 57.535,10.611 C57.539,10.618 58.002,11.256 57.905,12.187 C57.806,13.16 57.444,14.053 57.443,14.061 C57.408,14.143 57.432,14.234 57.5,14.289 C57.566,14.346 57.659,14.352 57.733,14.306" id="Fill-6" fill="#FFFDF7" sketch:type="MSShapeGroup"></path>
                <path d="M20.243,30.396 C20.597,30.396 20.884,30.111 20.884,29.758 L20.699,19.279 C20.699,18.926 20.597,18.641 20.243,18.641 C19.89,18.641 19.787,18.926 19.787,19.279 L19.604,29.758 C19.604,30.111 19.89,30.396 20.243,30.396" id="Fill-7" fill="#FFFDF7" sketch:type="MSShapeGroup"></path>
                <path d="M21.127,23.315 C21.189,23.355 21.268,23.344 21.318,23.287 C21.329,23.279 22.822,22.33 23.699,22.143 C23.892,22.104 24.066,22.104 24.221,22.141 C24.493,22.207 24.53,22.367 24.577,22.592 C24.622,22.815 24.693,23.154 25.128,23.168 C25.157,23.168 25.19,23.166 25.219,23.158 C25.447,23.111 25.65,22.876 25.893,22.606 C26.194,22.264 26.535,21.875 26.979,21.781 C27.181,21.739 27.387,21.76 27.603,21.848 C27.88,21.956 27.991,21.952 28.05,21.94 C28.119,21.924 28.163,21.886 28.188,21.855 C28.23,21.803 28.248,21.729 28.239,21.66 C28.191,21.279 27.061,20.596 26.135,20.791 C25.832,20.857 25.56,21.005 25.331,21.233 C25.219,21.342 25.149,21.373 25.109,21.383 C24.959,21.416 24.829,21.032 24.693,20.628 C24.425,19.823 24.014,18.611 22.733,18.884 C22.313,18.971 21.843,19.209 21.291,19.602 C21.25,19.632 21.218,19.686 21.213,19.744 C21.206,19.803 21.221,19.857 21.261,19.898 C21.263,19.904 21.339,20.413 21.381,21.291 C21.422,22.213 21.053,23.106 21.053,23.115 C21.037,23.195 21.063,23.277 21.127,23.315" id="Fill-8" fill="#FFFDF7" sketch:type="MSShapeGroup"></path>
            </g>
        </g>
    </g>
</svg>