<?xml version="1.0" encoding="utf-8"?>
<!-- Generator: Adobe Illustrator 16.0.0, SVG Export Plug-In . SVG Version: 6.00 Build 0)  -->
<!DOCTYPE svg PUBLIC "-//W3C//DTD SVG 1.1//EN" "http://www.w3.org/Graphics/SVG/1.1/DTD/svg11.dtd">
<svg version="1.1" xmlns="http://www.w3.org/2000/svg" xmlns:xlink="http://www.w3.org/1999/xlink" x="0px" y="0px"
	 width="98.124px" height="91.848px" viewBox="0 0 98.124 91.848" enable-background="new 0 0 98.124 91.848" xml:space="preserve">
<g id="Layer_1">
</g>
<g id="Layer_2">
	<g>
		<path fill="#FDF7E7" d="M0,0v47.443l49.062,44.404l49.062-44.404V0H0z M96.124,46.557L49.062,89.15L2,46.557V2h94.124V46.557z"/>
	</g>
	<g>
		<path fill="#FDF7E7" d="M81.15,36.092c0-0.001,0-0.002-0.001-0.003c-0.002-0.029-0.015-0.055-0.022-0.083
			c-0.006-0.025-0.006-0.053-0.016-0.076c-0.002-0.004-0.005-0.006-0.006-0.009c-0.001-0.001-0.002-0.002-0.003-0.004
			c-0.003-0.006-0.003-0.012-0.007-0.018c0-0.001-0.001-0.002-0.002-0.002c-0.01-0.021-0.029-0.037-0.043-0.057
			c-0.018-0.025-0.031-0.053-0.055-0.074c-0.001-0.001-0.002-0.004-0.003-0.005s-0.003-0.002-0.005-0.003
			c-0.004-0.004-0.008-0.008-0.013-0.012c-0.017-0.015-0.038-0.021-0.057-0.032c-0.03-0.02-0.058-0.04-0.091-0.054
			c-0.005-0.001-0.008-0.005-0.012-0.006c0,0-0.001-0.001-0.002-0.001c-0.004-0.001-0.007-0.003-0.01-0.004l-23.361-7.836
			c-0.049-0.034-0.104-0.062-0.164-0.076l-0.254-0.063l-0.492-0.165c-0.012-0.004-0.025-0.002-0.037-0.005
			c-0.025-0.007-0.051-0.008-0.078-0.011c-0.039-0.004-0.077-0.007-0.115-0.002c-0.008,0.001-0.016-0.002-0.024,0L44.271,29.83
			v-0.008l-0.452,0.096l-30.433,5.924c-0.237,0.046-0.394,0.257-0.395,0.491c-0.003,0.019-0.01,0.035-0.01,0.055v7.293l-0.1,0.021
			c-0.015,0.003-0.025,0.012-0.039,0.017l-0.104-0.006c-0.262-0.027-0.511,0.197-0.525,0.473s0.196,0.511,0.473,0.525l42.631,2.282
			c0.016,0.002,0.029,0.01,0.045,0.011l0.462,0.024v5.735l-43.059-4.605c-0.25-0.031-0.521,0.169-0.55,0.444
			c-0.029,0.274,0.169,0.521,0.444,0.55l43.611,4.665c0.017,0.002,0.034,0.003,0.052,0.003c0.001,0,0.001,0,0.001,0
			c0.005,0,0.011,0,0.016,0l23.729-0.761c0.276-0.009,0.493-0.24,0.484-0.516c-0.01-0.275-0.255-0.477-0.516-0.484l-23.213,0.744
			v-5.723l0.321,0.017c0.009,0.001,0.018,0.001,0.026,0.001s0.018-0.005,0.026-0.005l6.115,0.327l0.073,0.004
			c0.01,0.001,0.019,0.001,0.027,0.001c0.078,0,0.149-0.022,0.216-0.055c0.008-0.004,0.016-0.002,0.023-0.006l16.499-8.982v9.866
			c0,0.276,0.224,0.5,0.5,0.5s0.5-0.224,0.5-0.5V36.126c0-0.006-0.003-0.011-0.003-0.017S81.15,36.098,81.15,36.092z M26.674,34.274
			l0.008,1.157l-1.219-0.921L26.674,34.274z M15.782,36.395l1.591-0.31l-1.591,1.802V36.395z M14.782,43.769l-0.801-0.028v-6.947
			l0.801-0.171V43.769z M17.33,43.959l-0.852-0.046c-0.061-0.082-0.106-0.174-0.114-0.283c-0.026-0.307,0.205-0.574,0.512-0.598
			c0.308-0.023,0.574,0.205,0.6,0.513C17.488,43.703,17.43,43.85,17.33,43.959z M19.394,43.231c-0.023-0.309,0.206-0.575,0.516-0.6
			c0.307-0.023,0.574,0.207,0.596,0.514c0.023,0.307-0.207,0.575-0.514,0.6C19.687,43.769,19.415,43.537,19.394,43.231z
			 M21.141,44.163l-1.096-0.059c0.015-0.278,0.221-0.512,0.505-0.535c0.307-0.021,0.575,0.206,0.601,0.516
			C21.152,44.112,21.143,44.137,21.141,44.163z M22.933,44.013c-0.309,0.024-0.578-0.205-0.602-0.512
			c-0.021-0.307,0.208-0.576,0.516-0.598c0.307-0.023,0.573,0.205,0.596,0.512C23.468,43.722,23.239,43.989,22.933,44.013z
			 M24.494,44.342l-0.765-0.041c-0.081-0.089-0.141-0.198-0.151-0.328c-0.025-0.306,0.205-0.571,0.516-0.597
			c0.304-0.023,0.57,0.207,0.597,0.513C24.703,44.069,24.622,44.23,24.494,44.342z M25.603,44.374
			c-0.311,0.023-0.574-0.205-0.602-0.512c-0.021-0.308,0.207-0.575,0.516-0.6c0.309-0.023,0.576,0.207,0.598,0.515
			C26.14,44.083,25.909,44.351,25.603,44.374z M26.097,42.573c-0.309,0.023-0.574-0.207-0.598-0.512
			c-0.025-0.308,0.205-0.576,0.512-0.598c0.308-0.025,0.576,0.205,0.6,0.512S26.403,42.55,26.097,42.573z M24.911,41.049
			c0.165,0.086,0.287,0.243,0.301,0.442c0.024,0.307-0.205,0.573-0.514,0.598c-0.306,0.023-0.572-0.205-0.596-0.514
			c-0.012-0.14,0.036-0.269,0.114-0.373l-0.384,0.085c0.112,0.093,0.188,0.229,0.201,0.386c0.022,0.308-0.205,0.574-0.513,0.598
			c-0.309,0.023-0.575-0.207-0.597-0.514c-0.009-0.103,0.021-0.196,0.062-0.283l-0.743,0.164c0.018,0.048,0.037,0.095,0.042,0.148
			c0.023,0.307-0.205,0.574-0.515,0.598c-0.303,0.024-0.568-0.206-0.596-0.511l-0.447,0.099c-0.025,0.263-0.226,0.479-0.502,0.502
			c-0.219,0.016-0.414-0.1-0.518-0.277l-1.102,0.243c0.189,0.077,0.332,0.252,0.349,0.471c0.023,0.308-0.207,0.573-0.512,0.597
			c-0.309,0.024-0.578-0.205-0.603-0.512c-0.012-0.162,0.049-0.311,0.152-0.42l-2.212,0.487v-3.664l3.202-3.627l5.157-1.004
			l2.549,1.926l0.026,3.958L24.911,41.049z M27.743,44.499l-0.069-10.384l0.783-0.165l0.068,10.59L27.743,44.499z M29.455,33.733
			l1.459-0.284l-1.45,1.588L29.455,33.733z M29.893,44.095c-0.141,0.011-0.268-0.035-0.371-0.113l-0.006-0.875
			c0.083-0.065,0.18-0.115,0.294-0.124c0.305-0.024,0.572,0.206,0.596,0.513C30.429,43.805,30.2,44.071,29.893,44.095z
			 M30.555,42.813c-0.31,0.025-0.575-0.203-0.601-0.511c-0.021-0.308,0.207-0.575,0.516-0.599c0.308-0.025,0.574,0.207,0.598,0.513
			C31.093,42.524,30.862,42.792,30.555,42.813z M31.945,44.589c-0.304,0.025-0.574-0.205-0.597-0.512
			c-0.021-0.309,0.205-0.576,0.512-0.599c0.309-0.024,0.575,0.204,0.598,0.513C32.481,44.3,32.254,44.566,31.945,44.589z
			 M31.979,42.323c-0.296,0.023-0.546-0.19-0.587-0.476c-0.03,0.008-0.057,0.022-0.089,0.025c-0.307,0.024-0.577-0.208-0.6-0.513
			c-0.021-0.307,0.204-0.576,0.515-0.6c0.293-0.022,0.546,0.191,0.588,0.478c0.029-0.008,0.056-0.022,0.087-0.024
			c0.308-0.025,0.574,0.205,0.6,0.511C32.516,42.033,32.286,42.3,31.979,42.323z M33.224,42.97
			c-0.306,0.023-0.572-0.206-0.598-0.512c-0.022-0.308,0.207-0.576,0.512-0.599c0.225-0.018,0.427,0.103,0.53,0.288
			c0.093-0.113,0.229-0.191,0.388-0.204c0.307-0.024,0.574,0.206,0.6,0.513c0.021,0.307-0.209,0.574-0.518,0.598
			c-0.224,0.018-0.425-0.103-0.526-0.288C33.518,42.88,33.382,42.959,33.224,42.97z M34.786,41.058
			c0.025,0.305-0.207,0.574-0.512,0.598c-0.308,0.023-0.577-0.207-0.6-0.514c-0.013-0.159,0.045-0.306,0.144-0.414
			c-0.109-0.094-0.185-0.229-0.196-0.384c-0.021-0.306,0.207-0.573,0.516-0.599c0.309-0.021,0.576,0.208,0.597,0.516
			c0.013,0.158-0.045,0.304-0.145,0.413C34.7,40.767,34.775,40.901,34.786,41.058z M34.376,44.599
			c-0.301,0.023-0.57-0.204-0.592-0.512c-0.024-0.307,0.203-0.574,0.51-0.599c0.312-0.024,0.579,0.208,0.6,0.514
			C34.915,44.308,34.688,44.575,34.376,44.599z M36.345,41.505c-0.025-0.309,0.206-0.578,0.516-0.6
			c0.305-0.023,0.571,0.206,0.598,0.514c0.022,0.307-0.207,0.574-0.516,0.6c-0.118,0.008-0.225-0.029-0.319-0.085
			c0.018,0.047,0.037,0.093,0.041,0.145c0.024,0.305-0.208,0.574-0.511,0.599c-0.309,0.021-0.577-0.207-0.6-0.515
			c-0.027-0.307,0.205-0.573,0.51-0.597c0.12-0.01,0.228,0.027,0.322,0.084C36.369,41.603,36.349,41.557,36.345,41.505z
			 M35.562,42.649c0.307-0.023,0.574,0.207,0.598,0.514c0.025,0.307-0.205,0.572-0.516,0.598c-0.304,0.023-0.572-0.206-0.594-0.514
			C35.022,42.941,35.254,42.675,35.562,42.649z M36.06,44.961l-0.847-0.045c-0.062-0.082-0.109-0.176-0.118-0.286
			c-0.022-0.307,0.205-0.575,0.512-0.599c0.308-0.022,0.574,0.208,0.6,0.516C36.218,44.705,36.16,44.852,36.06,44.961z
			 M37.053,44.96c-0.31,0.025-0.575-0.205-0.599-0.511c-0.024-0.308,0.205-0.576,0.514-0.599c0.308-0.023,0.574,0.205,0.598,0.512
			C37.588,44.67,37.36,44.938,37.053,44.96z M37.427,40.663c-0.309,0.023-0.574-0.206-0.6-0.514
			c-0.024-0.307,0.205-0.573,0.516-0.598c0.305-0.023,0.572,0.205,0.598,0.513C37.962,40.372,37.732,40.641,37.427,40.663z
			 M40.054,40.708c0.025,0.307-0.207,0.575-0.514,0.598c-0.306,0.023-0.576-0.205-0.6-0.512c-0.005-0.072,0.007-0.141,0.026-0.205
			c-0.271-0.021-0.499-0.227-0.519-0.504c-0.023-0.307,0.207-0.575,0.514-0.6c0.307-0.021,0.574,0.207,0.598,0.516
			c0.005,0.071-0.007,0.14-0.026,0.204C39.808,40.223,40.034,40.428,40.054,40.708z M38.36,39.71
			c-0.305,0.021-0.574-0.207-0.598-0.516c-0.022-0.306,0.207-0.572,0.513-0.597c0.309-0.022,0.575,0.207,0.597,0.513
			C38.896,39.417,38.667,39.685,38.36,39.71z M38.384,41.543c0.306-0.022,0.576,0.205,0.598,0.513
			c0.021,0.308-0.207,0.574-0.512,0.598c-0.307,0.024-0.574-0.205-0.598-0.514C37.848,41.833,38.077,41.567,38.384,41.543z
			 M38.604,44.603c-0.308,0.023-0.575-0.208-0.598-0.514c-0.024-0.307,0.204-0.574,0.513-0.599c0.307-0.022,0.575,0.206,0.598,0.515
			C39.14,44.312,38.909,44.578,38.604,44.603z M39.648,44.251c-0.306,0.021-0.575-0.207-0.596-0.516
			c-0.025-0.305,0.202-0.572,0.511-0.596s0.574,0.206,0.596,0.512C40.187,43.96,39.956,44.228,39.648,44.251z M40.681,43.031
			c-0.304,0.023-0.572-0.204-0.598-0.513c-0.021-0.305,0.209-0.574,0.514-0.596c0.309-0.025,0.576,0.207,0.6,0.512
			C41.221,42.741,40.989,43.009,40.681,43.031z M40.958,40.456c-0.307,0.023-0.572-0.205-0.598-0.512
			c-0.021-0.308,0.207-0.574,0.516-0.599c0.309-0.023,0.572,0.206,0.597,0.514C41.495,40.165,41.268,40.433,40.958,40.456z
			 M41.489,38.351l-1.039,0.072c0,0.002,0.002,0.004,0.002,0.007c0.02,0.306-0.205,0.575-0.512,0.599
			c-0.309,0.023-0.578-0.207-0.601-0.514c0-0.005,0.002-0.01,0.002-0.015l-3.051,0.212c0.145,0.091,0.252,0.238,0.265,0.422
			c0.023,0.306-0.207,0.574-0.511,0.598c-0.311,0.021-0.581-0.207-0.604-0.512c-0.013-0.187,0.073-0.351,0.206-0.463l-0.5,0.035
			l-1.627,0.359c0.058,0.08,0.103,0.17,0.111,0.275c0.021,0.309-0.209,0.575-0.515,0.598c-0.309,0.025-0.573-0.203-0.598-0.512
			c-0.005-0.051,0.009-0.098,0.017-0.145l-0.547,0.12c0.188,0.078,0.328,0.25,0.346,0.466c0.022,0.307-0.207,0.576-0.516,0.598
			c-0.304,0.025-0.574-0.207-0.6-0.512c-0.011-0.158,0.047-0.305,0.146-0.414l-0.633,0.14c0.037,0.067,0.062,0.142,0.069,0.224
			c0.025,0.307-0.207,0.574-0.514,0.6c-0.062,0.004-0.118-0.008-0.175-0.022c-0.088,0.082-0.198,0.142-0.329,0.151
			c-0.104,0.008-0.198-0.021-0.284-0.062l-0.006-0.989l-0.021-3.158l3.089-3.379l6.054-1.179l2.874,2.44V38.351z M41.489,33.08
			l-1.618-1.374l1.618-0.315V33.08z M43.271,45.321l-0.781-0.041V31.22l0.781-0.165V45.321z M54.885,41.98
			c-0.079,0.056-0.168,0.098-0.271,0.106c-0.309,0.021-0.577-0.209-0.602-0.515c-0.021-0.307,0.211-0.576,0.516-0.599
			c0.132-0.01,0.254,0.034,0.355,0.104L54.885,41.98z M53.858,39.903c0.307-0.021,0.577,0.207,0.602,0.514
			c0.023,0.306-0.209,0.574-0.517,0.598c-0.309,0.023-0.573-0.207-0.598-0.514C53.324,40.196,53.55,39.928,53.858,39.903z
			 M53.113,39.288c-0.021-0.309,0.208-0.576,0.515-0.598c0.305-0.025,0.572,0.205,0.598,0.512c0.023,0.306-0.207,0.574-0.513,0.598
			S53.136,39.593,53.113,39.288z M54.875,28.785l0.002,1.818l-1.471-1.532L54.875,28.785z M44.271,30.85l2.153-0.419l-2.153,2.203
			V30.85z M44.271,34.064l3.88-3.971l4.088-0.795l2.64,2.75l0.003,5.369l-2.611,0.183c-0.068,0.206-0.254,0.363-0.485,0.38
			c-0.233,0.019-0.442-0.11-0.542-0.309l-4.252,0.296c0.008,0.029,0.021,0.056,0.024,0.087c0.02,0.306-0.205,0.575-0.512,0.599
			c-0.309,0.023-0.578-0.207-0.601-0.514c-0.002-0.034,0.009-0.064,0.012-0.098l-1.644,0.115V34.064z M49.034,40.163
			c0.307-0.022,0.577,0.207,0.6,0.515c0.021,0.306-0.209,0.574-0.515,0.599c-0.309,0.021-0.575-0.207-0.598-0.516
			C48.496,40.454,48.726,40.187,49.034,40.163z M48.267,38.483c-0.025-0.307,0.205-0.575,0.513-0.598
			c0.308-0.025,0.574,0.207,0.6,0.512c0.022,0.308-0.205,0.576-0.513,0.598C48.558,39.021,48.289,38.79,48.267,38.483z
			 M47.967,40.621c0.024,0.306-0.208,0.573-0.51,0.597c-0.31,0.024-0.577-0.205-0.601-0.512c-0.025-0.309,0.205-0.576,0.514-0.598
			C47.677,40.084,47.942,40.313,47.967,40.621z M46.116,41.18c0.307-0.024,0.576,0.206,0.6,0.513
			c0.021,0.306-0.209,0.574-0.518,0.598c-0.308,0.023-0.572-0.205-0.598-0.512C45.577,41.47,45.808,41.202,46.116,41.18z
			 M45.481,40.694c-0.308,0.024-0.576-0.205-0.598-0.513c-0.022-0.306,0.205-0.573,0.512-0.597c0.309-0.023,0.574,0.205,0.6,0.513
			C46.019,40.404,45.79,40.671,45.481,40.694z M44.271,38.551c0.093-0.107,0.226-0.18,0.379-0.19
			c0.309-0.023,0.576,0.205,0.598,0.514c0.025,0.306-0.205,0.574-0.514,0.6c-0.188,0.013-0.353-0.074-0.463-0.208V38.551z
			 M44.271,41.511c0.09-0.085,0.204-0.146,0.338-0.156c0.309-0.023,0.574,0.205,0.597,0.512c0.024,0.308-0.204,0.574-0.513,0.598
			c-0.163,0.014-0.312-0.049-0.422-0.152V41.511z M44.792,44.512c-0.222,0.018-0.417-0.099-0.521-0.276v-0.547
			c0.089-0.156,0.241-0.272,0.437-0.287c0.306-0.023,0.574,0.205,0.597,0.514C45.327,44.221,45.099,44.487,44.792,44.512z
			 M45.783,43.587c-0.06,0.027-0.123,0.049-0.192,0.055c-0.31,0.023-0.578-0.207-0.6-0.515c-0.022-0.306,0.208-0.575,0.514-0.599
			c0.3-0.021,0.561,0.2,0.593,0.497c0.06-0.028,0.123-0.05,0.192-0.056c0.307-0.022,0.578,0.209,0.6,0.516
			c0.021,0.305-0.208,0.572-0.512,0.598C46.076,44.105,45.814,43.884,45.783,43.587z M48.246,45.613l-0.834-0.044
			c-0.019-0.024-0.041-0.044-0.056-0.07c-0.022,0.025-0.053,0.042-0.079,0.062l-0.723-0.039c-0.094-0.091-0.159-0.21-0.169-0.35
			c-0.025-0.308,0.207-0.575,0.512-0.598c0.226-0.018,0.429,0.104,0.53,0.289c0.093-0.104,0.223-0.175,0.372-0.187
			c0.309-0.022,0.576,0.206,0.599,0.515C48.411,45.355,48.35,45.504,48.246,45.613z M48.122,43.389
			c-0.309,0.022-0.574-0.208-0.6-0.513c-0.023-0.307,0.207-0.576,0.516-0.6c0.304-0.023,0.574,0.207,0.599,0.514
			C48.659,43.097,48.427,43.366,48.122,43.389z M49.278,45.017c-0.307,0.023-0.574-0.205-0.596-0.512
			c-0.025-0.307,0.204-0.576,0.51-0.6c0.309-0.023,0.575,0.207,0.599,0.514C49.813,44.727,49.585,44.993,49.278,45.017z
			 M49.648,42.392c-0.308,0.025-0.575-0.205-0.599-0.512c-0.023-0.308,0.207-0.576,0.513-0.599c0.309-0.024,0.577,0.207,0.601,0.513
			C50.186,42.102,49.958,42.368,49.648,42.392z M50.188,39.582c-0.023-0.308,0.203-0.575,0.512-0.599
			c0.307-0.023,0.575,0.206,0.6,0.514c0.022,0.305-0.208,0.573-0.514,0.598C50.478,40.118,50.211,39.888,50.188,39.582z
			 M50.919,40.493c0.242-0.019,0.454,0.122,0.549,0.33c0.093-0.117,0.229-0.198,0.392-0.211c0.304-0.023,0.573,0.207,0.597,0.514
			s-0.205,0.575-0.514,0.598c-0.241,0.017-0.452-0.122-0.546-0.33c-0.094,0.117-0.23,0.198-0.393,0.211
			c-0.306,0.021-0.57-0.207-0.596-0.512C50.387,40.786,50.612,40.517,50.919,40.493z M50.448,42.58
			c-0.023-0.308,0.207-0.575,0.515-0.599c0.306-0.023,0.577,0.208,0.601,0.514c0.021,0.307-0.21,0.575-0.516,0.598
			C50.74,43.116,50.474,42.888,50.448,42.58z M51.948,45.38c-0.303,0.022-0.573-0.207-0.597-0.514
			c-0.021-0.307,0.205-0.576,0.511-0.6c0.307-0.021,0.577,0.207,0.6,0.516C52.487,45.089,52.257,45.356,51.948,45.38z M51.966,39.89
			c-0.309,0.025-0.575-0.205-0.598-0.512c-0.023-0.308,0.207-0.574,0.512-0.598c0.307-0.025,0.574,0.205,0.6,0.512
			C52.503,39.601,52.273,39.868,51.966,39.89z M52.44,38.154c-0.023-0.306,0.207-0.573,0.512-0.597
			c0.307-0.023,0.578,0.207,0.6,0.512c0.022,0.307-0.208,0.574-0.514,0.599S52.463,38.464,52.44,38.154z M52.718,43.317
			c-0.014-0.179,0.064-0.337,0.188-0.449c-0.073-0.086-0.128-0.189-0.137-0.311c-0.025-0.307,0.204-0.573,0.513-0.599
			c0.308-0.022,0.575,0.206,0.6,0.515c0.014,0.178-0.064,0.336-0.188,0.448c0.073,0.086,0.129,0.188,0.138,0.311
			c0.022,0.306-0.207,0.573-0.516,0.597C53.01,43.853,52.74,43.624,52.718,43.317z M53.952,45.919l-0.741-0.04
			c-0.088-0.09-0.152-0.206-0.163-0.341c-0.023-0.307,0.207-0.576,0.512-0.599c0.305-0.024,0.578,0.206,0.602,0.513
			C54.177,45.641,54.088,45.808,53.952,45.919z M54.546,44.669c-0.305,0.023-0.575-0.207-0.598-0.514
			c-0.025-0.309,0.209-0.574,0.512-0.598c0.165-0.013,0.315,0.051,0.426,0.156l0.001,0.793
			C54.796,44.595,54.681,44.658,54.546,44.669z M55.888,46.03l-0.013-17.413l0.406-0.098l0.377,0.095l0.013,17.457L55.888,46.03z
			 M57.658,28.941l20.454,6.86l-1.2,0.083c0.059,0.081,0.104,0.172,0.111,0.278c0.025,0.31-0.207,0.574-0.511,0.599
			c-0.309,0.022-0.575-0.206-0.601-0.513c-0.008-0.109,0.025-0.209,0.074-0.3l-4.443,0.31c-0.018,0.272-0.223,0.5-0.507,0.521
			c-0.28,0.021-0.521-0.177-0.575-0.446l-2.904,0.202c0.084,0.089,0.145,0.201,0.154,0.332c0.015,0.182-0.066,0.343-0.193,0.454
			c0.015-0.002,0.025-0.01,0.04-0.011c0.309-0.024,0.577,0.205,0.6,0.512c0.023,0.307-0.207,0.574-0.515,0.598
			c-0.306,0.024-0.575-0.205-0.598-0.513c-0.014-0.181,0.066-0.34,0.191-0.451c-0.015,0.002-0.025,0.01-0.04,0.011
			c-0.302,0.021-0.57-0.205-0.596-0.514c-0.011-0.135,0.034-0.257,0.106-0.359l-0.494,0.035c-0.04,0.249-0.238,0.452-0.499,0.473
			c-0.267,0.02-0.493-0.153-0.567-0.398l-1.891,0.131c0.025,0.058,0.047,0.119,0.053,0.186c0.024,0.305-0.207,0.572-0.514,0.596
			c-0.31,0.023-0.576-0.205-0.599-0.512c-0.006-0.068,0.005-0.135,0.023-0.197l-4.556,0.317L57.658,28.941z M72.569,36.781
			c-0.024-0.308,0.205-0.575,0.516-0.597c0.307-0.024,0.574,0.205,0.598,0.512c0.023,0.306-0.209,0.574-0.513,0.598
			C72.859,37.317,72.595,37.089,72.569,36.781z M72.719,38.281c0.025,0.306-0.205,0.575-0.513,0.599
			c-0.307,0.024-0.574-0.207-0.596-0.513c-0.025-0.308,0.204-0.576,0.511-0.599C72.427,37.743,72.696,37.976,72.719,38.281z
			 M63.577,41.014c-0.212,0.017-0.396-0.093-0.503-0.26c-0.273-0.017-0.501-0.224-0.521-0.503c-0.022-0.306,0.205-0.574,0.514-0.597
			c0.21-0.017,0.396,0.091,0.503,0.257c0.272,0.02,0.499,0.225,0.521,0.504C64.115,40.722,63.885,40.989,63.577,41.014z
			 M63.782,41.744c0.024,0.31-0.207,0.576-0.513,0.601c-0.307,0.023-0.573-0.207-0.597-0.514c-0.024-0.308,0.205-0.574,0.511-0.598
			C63.492,41.208,63.761,41.439,63.782,41.744z M61.853,39.928c0.025,0.306-0.207,0.573-0.511,0.597
			c-0.308,0.023-0.577-0.205-0.6-0.513c-0.012-0.161,0.047-0.308,0.148-0.417c-0.055-0.079-0.097-0.167-0.104-0.27
			c-0.025-0.305,0.204-0.574,0.514-0.598c0.305-0.022,0.574,0.207,0.597,0.514c0.013,0.161-0.047,0.308-0.147,0.417
			C61.804,39.737,61.846,39.825,61.853,39.928z M58.423,41.54c-0.311,0.023-0.576-0.207-0.6-0.513
			c-0.024-0.308,0.205-0.575,0.516-0.599c0.309-0.021,0.573,0.206,0.598,0.512C58.96,41.249,58.728,41.516,58.423,41.54z
			 M58.866,42.503c0.021,0.306-0.205,0.576-0.513,0.6c-0.311,0.022-0.575-0.207-0.601-0.516c-0.022-0.305,0.207-0.574,0.516-0.598
			C58.575,41.968,58.841,42.198,58.866,42.503z M58.641,38.161c-0.025-0.309,0.207-0.576,0.513-0.6
			c0.307-0.023,0.577,0.207,0.6,0.514c0.021,0.307-0.209,0.574-0.515,0.598C58.931,38.696,58.661,38.468,58.641,38.161z
			 M59.479,39.413c0.309-0.022,0.578,0.207,0.601,0.515c0.022,0.306-0.205,0.573-0.513,0.599c-0.311,0.022-0.574-0.207-0.598-0.515
			C58.944,39.707,59.175,39.438,59.479,39.413z M59.797,38.233c-0.021-0.309,0.208-0.577,0.516-0.6
			c0.306-0.023,0.572,0.207,0.598,0.514c0.022,0.307-0.208,0.574-0.513,0.598C60.087,38.769,59.822,38.54,59.797,38.233z
			 M60.26,41.527c0.049-0.004,0.094,0.009,0.141,0.017c0.074-0.191,0.252-0.337,0.474-0.355c0.307-0.022,0.576,0.207,0.597,0.514
			c0.023,0.307-0.204,0.573-0.511,0.598c-0.05,0.004-0.097-0.009-0.144-0.018c-0.076,0.193-0.254,0.339-0.474,0.355
			c-0.307,0.025-0.575-0.206-0.598-0.512C59.72,41.819,59.95,41.551,60.26,41.527z M61.729,38.392
			c-0.023-0.305,0.207-0.572,0.515-0.598c0.308-0.023,0.574,0.208,0.597,0.514c0.023,0.308-0.205,0.576-0.512,0.599
			C62.021,38.929,61.754,38.7,61.729,38.392z M57.666,39.059c0.079-0.056,0.168-0.099,0.272-0.106
			c0.305-0.025,0.574,0.205,0.598,0.512c0.025,0.307-0.209,0.574-0.516,0.598c-0.132,0.01-0.253-0.034-0.354-0.104V39.059z
			 M58.296,45.595c-0.309,0.022-0.574-0.209-0.6-0.516c-0.023-0.305,0.203-0.572,0.515-0.598c0.303-0.021,0.572,0.207,0.597,0.516
			C58.831,45.303,58.6,45.571,58.296,45.595z M60.026,45.497c-0.305,0.024-0.573-0.204-0.599-0.512
			c-0.004-0.045,0.01-0.086,0.016-0.129c-0.07,0.042-0.149,0.073-0.237,0.08c-0.308,0.023-0.572-0.207-0.598-0.514
			c-0.027-0.309,0.205-0.576,0.512-0.598c0.309-0.023,0.574,0.205,0.6,0.514c0.003,0.045-0.009,0.086-0.017,0.129
			c0.072-0.043,0.15-0.074,0.239-0.081c0.305-0.024,0.574,0.206,0.599,0.514C60.562,45.206,60.333,45.474,60.026,45.497z
			 M61.501,44.267c-0.294,0.022-0.548-0.189-0.59-0.478c-0.091,0.146-0.239,0.255-0.424,0.269c-0.309,0.024-0.575-0.205-0.601-0.512
			c-0.021-0.307,0.209-0.576,0.515-0.598c0.297-0.023,0.55,0.19,0.591,0.478c0.092-0.146,0.24-0.255,0.426-0.27
			c0.304-0.024,0.572,0.206,0.595,0.513C62.034,43.976,61.807,44.245,61.501,44.267z M62.873,46.373
			c-0.306,0.024-0.574-0.205-0.6-0.513c-0.023-0.309,0.207-0.574,0.515-0.597c0.307-0.024,0.575,0.204,0.601,0.511
			C63.409,46.082,63.181,46.351,62.873,46.373z M63.09,44.318c-0.306,0.024-0.575-0.206-0.598-0.514
			c-0.023-0.305,0.209-0.573,0.515-0.597c0.307-0.023,0.575,0.206,0.598,0.514C63.626,44.028,63.396,44.296,63.09,44.318z
			 M64.173,44.63c-0.311,0.024-0.577-0.207-0.601-0.514c-0.022-0.307,0.205-0.574,0.511-0.599c0.309-0.022,0.579,0.206,0.602,0.515
			C64.706,44.339,64.478,44.606,64.173,44.63z M64.117,38.202c-0.025-0.306,0.205-0.574,0.516-0.598
			c0.306-0.023,0.572,0.206,0.593,0.512c0.03,0.309-0.204,0.576-0.508,0.6C64.409,38.739,64.141,38.509,64.117,38.202z
			 M65.589,42.321c-0.308,0.023-0.577-0.206-0.6-0.514c-0.025-0.307,0.207-0.572,0.513-0.597c0.308-0.024,0.577,0.205,0.599,0.513
			C66.124,42.03,65.896,42.3,65.589,42.321z M66.117,40.259c-0.073,0.045-0.154,0.078-0.245,0.085
			c-0.306,0.024-0.574-0.204-0.6-0.513c-0.021-0.307,0.209-0.574,0.516-0.598c0.017-0.001,0.032,0.006,0.049,0.006
			c0.073-0.045,0.153-0.078,0.244-0.086c0.308-0.021,0.575,0.207,0.598,0.515c0.025,0.306-0.209,0.572-0.513,0.597
			C66.148,40.266,66.134,40.259,66.117,40.259z M66.767,43.918c-0.305,0.024-0.573-0.206-0.596-0.513
			c-0.027-0.307,0.202-0.574,0.511-0.598c0.31-0.023,0.576,0.206,0.6,0.514C67.306,43.626,67.076,43.895,66.767,43.918z
			 M67.245,42.451c-0.307,0.022-0.574-0.206-0.596-0.515c-0.025-0.307,0.205-0.572,0.512-0.596c0.307-0.025,0.574,0.205,0.6,0.512
			C67.782,42.159,67.554,42.429,67.245,42.451z M68.198,40.704c-0.003-0.031,0.008-0.059,0.011-0.089
			c-0.145-0.092-0.25-0.239-0.265-0.421c-0.023-0.308,0.203-0.574,0.514-0.6c0.307-0.023,0.576,0.206,0.6,0.514
			c0.002,0.031-0.009,0.06-0.012,0.09c0.144,0.091,0.249,0.238,0.264,0.421c0.022,0.306-0.207,0.574-0.516,0.599
			C68.487,41.239,68.224,41.011,68.198,40.704z M69.125,43.07c-0.308,0.022-0.574-0.206-0.6-0.515
			c-0.023-0.305,0.204-0.574,0.515-0.599c0.307-0.022,0.574,0.208,0.596,0.515C69.661,42.778,69.432,43.046,69.125,43.07z
			 M69.962,38.399c-0.308,0.023-0.577-0.207-0.6-0.514c-0.023-0.308,0.207-0.574,0.515-0.596c0.304-0.025,0.575,0.203,0.597,0.51
			C70.496,38.108,70.269,38.376,69.962,38.399z M71.138,39.995c-0.304,0.023-0.572-0.205-0.596-0.512
			c-0.023-0.308,0.207-0.574,0.51-0.599c0.312-0.023,0.578,0.206,0.604,0.513C71.679,39.704,71.448,39.972,71.138,39.995z
			 M72.781,41.256l-0.76,0.414c-0.183-0.08-0.321-0.248-0.339-0.459c-0.021-0.308,0.207-0.576,0.516-0.599
			c0.307-0.023,0.574,0.207,0.6,0.513C72.801,41.171,72.789,41.213,72.781,41.256z M73.497,39.147
			c-0.307,0.023-0.574-0.207-0.6-0.514c-0.023-0.307,0.207-0.574,0.516-0.6c0.305-0.022,0.574,0.209,0.596,0.515
			C74.034,38.856,73.804,39.124,73.497,39.147z M74.297,40.431c-0.001-0.008-0.006-0.015-0.007-0.023
			c-0.023-0.306,0.206-0.574,0.514-0.6c0.15-0.011,0.29,0.041,0.397,0.131L74.297,40.431z M76.021,37.948
			c-0.218,0.016-0.412-0.098-0.518-0.273c-0.078,0.188-0.251,0.328-0.467,0.346c-0.309,0.021-0.577-0.207-0.6-0.513
			c-0.023-0.307,0.207-0.575,0.514-0.599c0.22-0.017,0.412,0.098,0.517,0.272c0.078-0.188,0.252-0.328,0.468-0.345
			c0.309-0.023,0.572,0.205,0.598,0.513C76.555,37.657,76.323,37.923,76.021,37.948z M76.611,39.171
			c-0.067-0.085-0.119-0.183-0.128-0.299c-0.023-0.307,0.207-0.574,0.514-0.598c0.261-0.02,0.48,0.146,0.56,0.381L76.611,39.171z
			 M78.221,38.294c-0.088-0.09-0.152-0.206-0.163-0.343c-0.022-0.306,0.207-0.573,0.516-0.597c0.276-0.021,0.515,0.172,0.574,0.436
			L78.221,38.294z"/>
		<path fill="#FDF7E7" d="M81.435,31.268L70.083,20.634c-0.044-0.041-0.095-0.073-0.149-0.097l-8.401-3.492
			c-0.008-0.003-0.017-0.002-0.024-0.005c-0.023-0.008-0.045-0.008-0.068-0.013c-0.059-0.012-0.115-0.015-0.173-0.006
			c-0.014,0.003-0.027-0.005-0.041-0.001l-4.174,0.983v3.278c0,0.706-0.453,1.095-1.012,1.095s-1.012-0.389-1.012-1.095V18.48
			l-3.886,0.916l0.002-2.477l0.131,0.036c0.045,0.012,0.089,0.018,0.133,0.018c0.19,0,0.37-0.109,0.454-0.29
			c0.103-0.222,0.029-0.485-0.172-0.623l-7.288-4.976c-0.016-0.011-0.035-0.008-0.051-0.016c-0.018-0.011-0.029-0.029-0.05-0.037
			c-0.033-0.014-0.067-0.006-0.103-0.012c-0.037-0.006-0.069-0.015-0.106-0.013c-0.06,0.004-0.111,0.022-0.166,0.047
			c-0.024,0.01-0.052,0.006-0.074,0.021c-0.007,0.005-0.01,0.014-0.017,0.02c-0.008,0.006-0.02,0.005-0.027,0.012l-7.227,5.748
			c-0.19,0.151-0.244,0.418-0.127,0.632c0.09,0.164,0.26,0.26,0.438,0.26c0.054,0,0.108-0.009,0.162-0.027l0.646-0.221v1.735
			l-1.351-0.317c-0.021-0.006-0.043,0.006-0.064,0.003c-0.027-0.001-0.049-0.02-0.076-0.016c-0.025,0.001-0.043,0.019-0.067,0.023
			c-0.047,0.01-0.087,0.022-0.13,0.045s-0.078,0.049-0.114,0.083c-0.019,0.018-0.044,0.023-0.06,0.044
			c-0.014,0.018-0.012,0.041-0.023,0.06c-0.012,0.021-0.033,0.032-0.042,0.054l-1.733,4.214l-13.396,3.157v2.375
			c0,0.706-0.452,1.095-1.012,1.095c-0.558,0-1.012-0.389-1.012-1.095V27.06l-1.161,0.273c-0.115,0.026-0.217,0.094-0.287,0.188
			L13.186,32.9c-0.124,0.166-0.132,0.392-0.021,0.566c0.093,0.146,0.253,0.231,0.422,0.231c0.033,0,0.066-0.003,0.1-0.01
			l45.325-9.237l21.916,7.653c0.055,0.02,0.11,0.028,0.165,0.028c0.171,0,0.335-0.088,0.428-0.241
			C81.643,31.689,81.607,31.43,81.435,31.268z M32.952,28.706l3.348-8.14l0.082,0.15l3.568,6.584L32.952,28.706z M44.112,22.443
			l-2.096-2.118c-0.066-0.067-0.15-0.114-0.243-0.136l-3.071-0.709v-2.312l5.41-1.859V22.443z M50.142,19.637l-2.433,0.568
			c-0.084,0.021-0.161,0.062-0.225,0.12l-2.372,2.191v-7.248l5.033,1.418L50.142,19.637z"/>
		<path fill="#FDF7E7" d="M56.021,22.015c0.353,0,0.64-0.286,0.64-0.64l-0.095-5.979l-0.09-5.726c0-0.353-0.103-0.639-0.455-0.639
			c-0.354,0-0.456,0.286-0.456,0.639l-0.091,5.758l-0.093,5.946C55.382,21.729,55.667,22.015,56.021,22.015z"/>
		<path fill="#FDF7E7" d="M57.124,13.658c0.011-0.007,1.266-0.78,2.342-0.769c0.232,0.003,0.441,0.043,0.616,0.119
			c0.315,0.132,0.331,0.311,0.352,0.557c0.019,0.246,0.049,0.617,0.562,0.732c0.035,0.008,0.072,0.013,0.11,0.013
			c0.276,0.003,0.558-0.194,0.885-0.419c0.417-0.287,0.888-0.615,1.429-0.608c0.245,0.004,0.48,0.073,0.729,0.218
			c0.308,0.178,0.443,0.201,0.516,0.202c0.088,0,0.145-0.03,0.177-0.056c0.056-0.047,0.093-0.117,0.093-0.193
			c0.006-0.412-1.227-1.393-2.358-1.404c-0.372-0.004-0.718,0.086-1.025,0.271c-0.149,0.088-0.238,0.105-0.287,0.105
			c-0.187-0.002-0.276-0.434-0.374-0.891c-0.191-0.904-0.48-2.271-2.047-2.288c-0.509-0.007-1.108,0.129-1.826,0.411
			c-0.058,0.022-0.1,0.071-0.117,0.131c-0.016,0.059-0.008,0.123,0.029,0.174c0.003,0.007,0.465,0.645,0.369,1.575
			c-0.1,0.974-0.461,1.866-0.463,1.874c-0.034,0.082-0.011,0.174,0.057,0.229C56.957,13.698,57.05,13.704,57.124,13.658z"/>
		<path fill="#FDF7E7" d="M19.634,29.749c0.355,0,0.641-0.285,0.641-0.639l-0.106-6.031l-0.078-4.447
			c0-0.354-0.101-0.639-0.456-0.639c-0.353,0-0.455,0.285-0.455,0.639l-0.078,4.446l-0.105,6.032
			C18.995,29.464,19.281,29.749,19.634,29.749z"/>
		<path fill="#FDF7E7" d="M20.518,22.667c0.062,0.04,0.141,0.029,0.192-0.027c0.01-0.008,1.503-0.957,2.381-1.145
			c0.191-0.039,0.366-0.039,0.521-0.002c0.271,0.066,0.309,0.227,0.355,0.451c0.045,0.223,0.116,0.562,0.551,0.576
			c0.029,0,0.062-0.002,0.092-0.01c0.229-0.047,0.431-0.282,0.674-0.552c0.301-0.343,0.643-0.731,1.086-0.825
			c0.202-0.042,0.408-0.021,0.625,0.066c0.275,0.108,0.387,0.104,0.446,0.092c0.069-0.016,0.112-0.054,0.138-0.085
			c0.041-0.052,0.06-0.125,0.051-0.194c-0.048-0.381-1.178-1.064-2.104-0.869c-0.304,0.066-0.576,0.214-0.805,0.442
			c-0.111,0.108-0.182,0.14-0.222,0.149c-0.151,0.033-0.28-0.351-0.416-0.755c-0.269-0.805-0.679-2.017-1.961-1.744
			c-0.419,0.087-0.89,0.325-1.441,0.718c-0.042,0.03-0.071,0.084-0.078,0.143s0.009,0.113,0.048,0.154
			c0.002,0.006,0.078,0.515,0.121,1.393c0.04,0.922-0.328,1.814-0.328,1.824C20.429,22.548,20.454,22.63,20.518,22.667z"/>
	</g>
</g>
</svg>
