<?xml version="1.0" encoding="utf-8"?>
<!-- Generator: Adobe Illustrator 16.0.0, SVG Export Plug-In . SVG Version: 6.00 Build 0)  -->
<!DOCTYPE svg PUBLIC "-//W3C//DTD SVG 1.1//EN" "http://www.w3.org/Graphics/SVG/1.1/DTD/svg11.dtd">
<svg version="1.1" id="Layer_1" xmlns="http://www.w3.org/2000/svg" xmlns:xlink="http://www.w3.org/1999/xlink" x="0px" y="0px"
	 width="216px" height="167.889px" viewBox="0 0 216 167.889" enable-background="new 0 0 216 167.889" xml:space="preserve">
<g>
	<polygon fill="#FDF7E7" points="66.822,154.348 66.999,154.141 66.885,154.07 	"/>
	<path fill="#FDF7E7" d="M55.133,145.412c0.007,0.003,0.018,0.009,0.025,0.011C55.145,145.413,55.137,145.41,55.133,145.412"/>
	<path fill="#FDF7E7" d="M53.953,22.351c-0.009,0.025-0.013,0.05-0.014,0.072c0.089-0.096,0.18-0.192,0.281-0.302L53.953,22.351z"/>
	<path fill="#FDF7E7" d="M152.921,15.191c-0.131-0.124-0.271-0.227-0.502-0.241C152.587,15.029,152.755,15.11,152.921,15.191"/>
	<path fill="#FDF7E7" d="M151.462,14.099c-0.75-0.191-1.474-0.356-2.17-0.479c1.055,0.406,2.074,0.841,3.066,1.302l-0.194-0.371
		C151.902,14.65,151.709,14.346,151.462,14.099"/>
	<path fill="#FDF7E7" d="M152.371,14.944c0.018,0,0.031,0.005,0.048,0.006c-0.019-0.009-0.039-0.019-0.06-0.028L152.371,14.944z"/>
	<path fill="#FDF7E7" d="M152.418,14.949c-0.017-0.001-0.03-0.005-0.048-0.005l-0.012-0.021c-0.991-0.462-2.012-0.897-3.066-1.303
		c0.696,0.122,1.42,0.288,2.17,0.479c0.248,0.248,0.439,0.55,0.702,0.451l0.194,0.372C152.378,14.931,152.4,14.94,152.418,14.949
		c0.231,0.016,0.372,0.118,0.503,0.242C152.754,15.11,152.587,15.029,152.418,14.949 M142.588,11.378
		c-3.602-1.081-7.308-1.963-11.752-2.056c3.325-0.459,7.022-0.549,10.487-0.705c1.279,0.564,2.547,1.177,3.809,1.8
		C144.246,10.613,143.392,10.924,142.588,11.378 M125.999,9.066c-3.632-0.237-6.88,0.548-10.633,1.095
		c5.009-1.845,9.932-3.563,14.017-5.701c0.834,0.146,2.016,0.494,2.842,0.469c-0.056,0.053,0,0.14-0.222,0.121
		c0.822,0.405,0.28-0.361,1.214,0.171l-0.277,0.081c0.121,0.01,0.236,0.038,0.348,0.072C129.835,5.71,126.935,6.833,125.999,9.066
		 M110.359,11.282c-3.592,0.846-6.773,2.761-9.758,4.062c3.534-3.354,10.555-6.882,13.575-11.31
		c-9.526,2.631-17.842,6.637-19.634,14.463c-2.378,1.789-5.36,3.236-7.431,5.221c2.779-3.936,8.354-8.649,10.532-13.91
		c-7.457,3.998-15.765,9.909-14.98,17.026c-0.335,0.312-1.484,1.274-2.301,2.019c0.324-0.802,3.807-9.646,2.085-12.184
		c-3.717,4.979-6.614,9.04-7.32,16.571c-1.428,0.975-5.613,4.801-6.866,4.851c2.841-2.723,7.158-7.806,6.133-12.619
		c-3.875,3.261-7.887,8.191-10.697,12.137c-1.102,1.544-2.029,3.662-3.004,4.637c0.198-0.226-0.482,0.142-0.712,0.234
		c-3.667,1.454-6.286,2.155-4.735,1.112c7.857-5.401,8.976-12.476,9.505-12.894c-0.767,0.298-9.006,4.014-16.349,14.891
		c-0.384,0.11-0.83,0.258-1.354,0.454c-1.742,0.649-4.503,0.91-7.44,0.883c3.106-0.958,10.02-3.797,11.404-6.319
		c-3.08,0.439-6.212,0.981-9.46,1.758c0.027-0.242,0.092-0.521-0.041-0.524c0.527-0.648,0.264,0.392,0.594,0.308
		c-0.012-0.489,0.627-0.686,0.484-1.099c-0.404,0.45-0.133-0.196-0.191-0.383c0.421-0.625,0.059,0.187,0.443-0.197
		c0.126-0.292,0.126-0.786-0.213-0.426c0.293-0.332,0.287-0.936,0.721-1.237c0.283-0.051-0.408,0.837-0.131,0.68
		c0.578-0.871-0.17-0.749,0.32-1.6c-0.332,0.277-0.412-0.266-0.246-0.729c0.698-0.843-0.165,0.463,0.292,0.277l0.214-0.378
		c0.644-0.276-0.228,1.399,0.345,1.104l0.161-0.454c0.027,0.146,0.098,0.378,0.289,0.28c-0.144-0.247,0.564-0.928,0.563-1.033
		c-0.121-0.206-0.164,0.349-0.258,0.186c0.232-0.44,0.066-0.838,0.61-1.383c-0.116,0.435,0.328,0.049,0.33,0.265
		c0.283-0.249-0.141-0.252,0.259-0.614l0.069,0.128c1.222-1.55,2.685-3.513,3.418-5.145c0.37-0.088,0.778-0.577,1.548-1.204
		c-0.349,0.268-0.178-0.141-0.03-0.341l0.505-0.171c0.499-0.319,0.834-1.036,1.095-1.527c0.099-0.034,0.168-0.007,0.235,0.021
		c0.464-0.254,0.26-0.489,0.355-0.675l0.362-0.108l-0.07-0.175c0.298-0.434,0.814-0.879,0.962-0.622
		c0.107-0.181,0.211-0.359-0.028-0.241c0.488-0.226,1.458-1.232,2.089-1.907c-0.372,0.233-0.403,0.145-0.549,0.033
		c-0.102-0.318,0.194-0.095,0.353-0.476c0.081,0.078,0.469-0.11,0.191,0.25c1.183-0.505,2.216-1.932,3.488-2.809
		c0.213-0.233,0.108-0.213,0.177-0.372c0.947-0.36,1.662-1.391,2.602-1.88c-0.263,0.034-0.203-0.454,0.267-0.806
		c0.373-0.584,0.407,0.139,0.955-0.075c0.165-0.267,0.582-0.61,0.775-0.731l0.009,0.048c0.206-0.322,0.636-0.679,1.045-0.813
		l-0.045,0.051c0.297-0.168,0.712-0.25,0.998-0.464c0.008-0.289,0.811-0.643,0.879-0.939c0.049-0.002,0.003,0.051,0.109,0.041
		l-0.077-0.188l0.659-0.277c-0.092,0.147-0.082,0.238-0.221,0.39c0.716-0.268,0.124-0.29,0.411-0.587
		c0.384-0.396,0.458-0.209,0.719-0.265c-0.137,0.198-0.356,0.156-0.452,0.255c-0.179,0.291,0.307-0.105,0.373-0.012
		c0.1-0.051,0.022-0.288,0.378-0.444c0.3-0.15,0.948-0.605,0.97-0.364c0.192-0.247,0.493-0.398,0.633-0.596
		c-0.254,0.104-0.712,0.309-0.831,0.218c0.202-0.151,0.599-0.454,0.71-0.409l-0.146,0.149c0.142-0.157,0.811-0.446,0.386-0.444
		l0.586,0.009c0.094-0.238,0.559-0.47,0.917-0.702c0.118,0.191-0.071,0.572,0.651,0.251l0.501-0.519
		c0.308-0.187,0.412-0.185,0.419-0.04c1.134-0.455,0.872-1.103,1.823-1.342c-0.262,0.416,0.057,0.293,0.478,0.179
		c-0.001-0.048-0.001-0.146,0.157-0.229c-0.161-0.059-0.157,0.277-0.529,0.253c-0.159-0.107,0.315-0.268,0.475-0.4
		c0.989,0.139,2.651-1.033,4.044-1.283c-0.2-0.265,0.541-0.32,0.763-0.537c0.03,0.338,0.706-0.344,1.133-0.264l-0.304-0.242
		c0.859-0.099,1.148-0.925,1.769-0.722c0.482-0.063-0.079,0.28-0.25,0.397c0.731,0.137,1.561-0.877,2.185-0.625
		c0.018-0.143-0.233-0.296,0.284-0.571c0.483,0.008,1.404-0.079,1.339,0.002c0.344-0.168,0.416-0.299,0.842-0.3
		c-0.014,0.094-0.182,0.155-0.299,0.229c0.653-0.098,1.116-0.4,1.652-0.64c0.403,0.162,1.496-0.227,2.253-0.264
		c0.35-0.398,1.208-0.166,1.188-0.558c-0.01,0.045,0.094,0.08,0.144,0.095c0.253-0.165,0.43-0.459,0.78-0.542l-0.066,0.279
		c-0.021,0.319,0.874-0.061,1.099,0.006c-0.231-0.138,0.436-0.059,0.43-0.252l0.4-0.16c0.65-0.189,0.057-0.144,0.868-0.33
		c0.463-0.081,0.2,0.276,0.037,0.27c0.41,0.08,0.795-0.047,1.19-0.157c-0.148,0.02-0.203,0.009-0.07-0.067
		c0.014,0.033,0.056,0.048,0.11,0.056c0.147-0.041,0.296-0.078,0.448-0.101c-0.003,0.006-0.003,0.01-0.005,0.015
		c0.193-0.044,0.399-0.094,0.584-0.139c0.111-0.041,0.216-0.071,0.298-0.071c0.239-0.056,0.339-0.07,0.095,0.021
		c-0.025-0.016-0.058-0.021-0.095-0.021c-0.085,0.02-0.187,0.044-0.298,0.071c-0.164,0.061-0.336,0.145-0.454,0.185
		c0.134-0.013,0.26-0.017,0.346,0.011l-0.086,0.22c0.286-0.028,1.048-0.365,1.014-0.45c1.122-0.004,2.944-0.241,3.716-0.419
		c0.056-0.025,0.135-0.051,0.242-0.063c-0.06,0.02-0.144,0.042-0.242,0.063c-0.121,0.055-0.124,0.11,0.009,0.034
		c0.387-0.071,0.816-0.282,0.862-0.152c0.375-0.115,0.36,0.111,0.943,0.118c0.01,0.035,0.052-0.116-0.012-0.164
		c0.987,0.244,2.203-0.254,3.37-0.1c-0.096,0.021-0.228,0.139-0.319,0.207c0.905-0.137,1.765-0.14,2.588-0.376
		c-0.089,0.09-0.065,0.18-0.28,0.224c0.629,0.021,1.361-0.006,1.664-0.187c-0.426-0.112-0.035,0.109-0.324,0.09
		c-0.445-0.199,0.375-0.359,0.791-0.294l0.01,0.044c0.633,0.018,0.669-0.095,1.302-0.074c0.372,0.132-0.335,0.046-0.19,0.179
		c0.131,0.313,1.424,0.291,1.549,0.366c0.154-0.056,0.373-0.088,0.355-0.179c0.5-0.032,0.21,0.217,0.551,0.238l1.41-0.453
		c0.012-0.015,0.035-0.024,0.083-0.027l-0.083,0.027c-0.062,0.082,0.409,0.326-0.017,0.392c1.028,0.071,1.657-0.246,2.323-0.379
		c0.303,0.062,1.309,0.146,1.653,0.186c0.138,0.201-0.286-0.063-0.384,0.058l0.482,0.297c-0.683-0.098,0.037,0.323-0.35,0.38
		c0.559-0.012,1.823,0.351,2.622,0.555c-0.489-0.477,1.121,0.023,1.153-0.312c0.785,0.097,0.572,0.266,0.648,0.407
		C118.613,3.862,112.613,6.647,110.359,11.282 M175.06,33.84c-0.463-0.631-1.022-1.328-1.58-2.018
		c-0.625-0.774-1.25-1.54-1.732-2.189c-0.775-0.915-1.554-1.835-2.344-2.751c-3.416-3.959-7.035-7.832-11.42-10.868
		c0.215,0.293-0.154,0.183-0.441,0.01l-0.018-0.12l-0.522-0.14c-0.046-0.03-0.08-0.056-0.108-0.08
		c-0.229-0.196,0.043-0.239,0.359-0.053c-2.152-1.45-4.027-2.829-6.201-4.103c-0.283,0.157-1.133-0.662-1.352-0.449
		c-0.073-0.107,0.025-0.064,0.115-0.077c-0.771-0.373-1.182-0.585-1.551-0.824c-0.385-0.25-0.721-0.531-1.367-1.055
		c-0.457-0.266-0.916-0.521-1.375-0.771c-1.969-1.072-3.978-2.011-6.019-2.844c-3.653-1.49-7.411-2.644-11.243-3.604
		c-6.591-1.527-13.244-2.013-20.125-1.887c-1.043,0.492-2.495,0.269-3.712,0.762l0.072-0.143c-1.045,0.28-1.326,0.064-2.683,0.002
		c0,0.159-0.511,0.084-0.296,0.329c-0.44,0.249-0.871-0.288-1.526-0.082c-0.032-0.085,0.034,0.153-0.117,0.09
		c-1.684,0.54,0.315-0.187-1.906-0.154c-3.049,0.513-6.076,1.45-8.983,2.004c0.176-0.054,0.309,0.131,0.019,0.202
		c-0.379-0.334-0.931,0.393-1.473,0.374c0.015-0.097,0.248-0.192,0.37-0.268c-1.335,0.225-2.36,0.736-3.615,0.989
		c-1.09,0.568-2.541,0.671-3.231,1.163c0.123-0.231-0.546,0.086-0.818,0.105c-0.634,0.814-2.275,0.706-3.156,1.48V6.776
		c-2.992,1.398-6.285,2.904-9.114,4.926c-1.63,1.044-3.714,1.866-5.334,3.31c-0.28,0.288,0.034,0.193-0.197,0.42
		c-0.442,0.307-0.083-0.132-0.286-0.058c-0.739,0.784-2.007,1.401-3.023,2.261c-0.072,0.161-0.347,0.412-0.177,0.428
		c-1.376,0.629-2.591,2.326-3.875,3.142c0.684-0.012-0.524,0.749-0.818,1.212c-0.226,0.192-0.327,0.134-0.318,0.009
		c-0.77,0.827-1.183,1.249-2.23,2.102c-0.402,0.483-0.343,0.78-0.903,1.279c-0.53,0.132-1.072,1.138-1.652,1.6
		c0.306,0.033-0.16,0.874-0.706,1.362l-0.123-0.417c-1.063,1.508-5.219,6.596-9.628,14.752c-0.811,1.499-1.629,3.102-2.439,4.805
		c-0.166,0.349-0.331,0.701-0.495,1.059c-0.223,0.48-0.444,0.967-0.664,1.463l-0.18-0.038c-0.189,0.71-0.393,1.663-0.719,2.502
		c-0.121,0.31-0.257,0.604-0.416,0.865c0.037,0.349-0.305,1.412,0.071,1.015c-0.121,0.423-0.386,0.156-0.365,0.643l-0.094-0.486
		c-0.347,0.926-0.642,1.806-0.902,2.679l2.181-0.419c0.083-0.159,0.192-0.365,0.274-0.717c-0.126-0.341-0.094,0.354-0.309,0.294
		c-0.218,0.013-0.043-0.555,0.063-0.979c0.255-0.661,0.359-0.254,0.601-0.466c-0.015,0.139-0.181,0.656-0.281,0.558
		c-0.062,0.905,0.557-0.195,0.515,0.431c0.351-0.573,0.102-0.648,0.153-0.996c-0.099,0.183-0.177-0.174-0.306-0.063
		c-0.152-1.307,0.681-0.529,0.978-1.601c-0.125,0.021-0.177-0.096-0.203-0.26c2.192,0.471,4.376,0.685,6.173,0.779
		c1.564,0.108,3.615,0.512,4.424-0.341c-2.957-1.628-5.989-2.963-9.081-4.148c0.239-0.503,0.619-0.797,0.638-0.694l-0.024,0.623
		c0-0.483,0.169-0.13,0.272-0.572c-0.083-0.18-0.159-0.524-0.264-0.741c0.044-0.146,0.115-0.256,0.188-0.346c0.06,0,0.121,0,0.181,0
		c0.041,0,0.081,0,0.121,0c0.328-0.003,0.654-0.008,0.978-0.016c3.006,3.444,8.381,5.163,16.059,4.421
		c0,0.054,8.209-1.464,9.937-3.274c-1.82-1.066-6.764-0.434-8.847-0.702c0,0.051-7.628-0.733-9.125-1.024
		c3.473-0.165,6.067-1.227,9.182-1.885c8.626,4.455,19.665-2.922,25.343-7.58c-7.549,0.879-14.13,3.909-19.631,4.879
		c3.04-1.154,5.452-2.879,8.002-4.522c0.013,0,0.025-0.004,0.025-0.004s0.065-0.047,0.176-0.129c0.36-0.229,0.723-0.46,1.092-0.687
		c7.446,1.332,18.459-6.632,20.783-11.738c-5.804,2.308-11.654,5.354-16.324,8.382c2.058-1.626,4.523-3.809,5.704-4.952
		c2.87-2.633,5.3-3.178,10.786-4.533c5.258-1.303,10.42-3.662,14.37-4.659c-2.282-2.606-9.22-1.285-14.145,0.576
		c1.623-1.3,3.774-2.283,5.687-3.394c5.08,1.469,13.546-0.324,21.159-0.706c-1.912-3.57-8.522-3.872-14.716-2.158
		c2.075-1.45,5.453-2.077,8.287-2.986c4.684,2.572,12.236,2.72,18.678,4.394c-0.26-4.041-6.716-5.451-12.486-5.44
		c2.739-1.109,6.517-0.561,9.59-0.805c4.035,4.085,10.812,6.161,16.76,9.414c-0.124-4.104-5.367-7.057-10.362-8.277
		c5.56,0.401,10.158,1.835,14.269,3.895c-2.004,5.151,7.293,9.708,12.744,11.57c-2.797-3.249-8.268-7.889-10.464-10.345
		c5.948,3.442,10.984,8.144,16.714,12.741c1.869,2.729,4.118,6.048,5.989,7.924c0.511,0.556-0.06,0.449,0.158,0.702
		c1.127,1.285,2.032,2.957,2.948,4.52l1.25-0.137C177.992,38.884,176.667,36.394,175.06,33.84"/>
	<path fill="#FDF7E7" d="M35.69,55.312c0.026-0.049,0.054-0.134,0.084-0.28C35.723,55.147,35.701,55.234,35.69,55.312"/>
	<path fill="#FDF7E7" d="M45.064,131.979c1.112-0.691,2.301-1.305,3.492-1.816c-1.379,0.351-2.688,0.75-3.937,1.193
		C44.851,131.4,44.95,131.675,45.064,131.979"/>
	<path fill="#FDF7E7" d="M157.154,148.48c-0.396,0.058-0.974,0.48-1.949,1.018c0.432-0.235,0.147,0.173-0.059,0.363l-0.568,0.111
		c-0.385,0.174-0.742,0.528-1.062,0.878c-0.298,0.184-0.597,0.366-0.894,0.552c-0.053,0.033-0.104,0.064-0.156,0.098
		c-0.191,0.16-0.141,0.343-0.255,0.471l-0.406,0.062l0.026,0.193c-0.424,0.414-1.077,0.812-1.166,0.522
		c-0.158,0.169-0.321,0.331-0.035,0.252c-0.573,0.159-1.906,0.984-2.737,1.616c0.449-0.193,0.457-0.096,0.58,0.041
		c0.022,0.348-0.228,0.072-0.495,0.449c-0.062-0.092-0.52,0.046-0.129-0.288c-0.126,0.028-0.252,0.067-0.38,0.11
		c-1.286,0.433-2.655,1.548-4.108,2.157c-0.293,0.199-0.177,0.198-0.295,0.347c-1.099,0.215-2.169,1.096-3.308,1.425
		c0.29,0.015,0.087,0.498-0.513,0.771c-0.565,0.524-0.396-0.214-1.037-0.095c-0.25,0.245-0.807,0.477-1.049,0.559l0.004-0.05
		c-0.318,0.269-0.875,0.565-1.351,0.622l0.064-0.043c-0.364,0.115-0.83,0.123-1.196,0.286c-0.093,0.288-1.064,0.45-1.227,0.729
		c-0.053-0.01,0.012-0.05-0.105-0.066l0.028,0.203l-0.789,0.142c0.141-0.131,0.155-0.229,0.349-0.351
		c-0.842,0.131-0.217,0.269-0.607,0.515c-0.525,0.325-0.551,0.124-0.844,0.132c0.205-0.174,0.426-0.091,0.555-0.173
		c0.275-0.262-0.357,0.049-0.4-0.059c-0.122,0.03-0.105,0.293-0.534,0.371c-0.368,0.078-1.202,0.376-1.153,0.133
		c-0.281,0.2-0.651,0.278-0.86,0.439c0.305-0.042,0.858-0.137,0.96-0.021c-0.262,0.103-0.78,0.308-0.887,0.237l0.201-0.113
		c-0.201,0.113-1.002,0.266-0.547,0.351l-0.625-0.12c-0.166,0.229-0.736,0.357-1.191,0.495c-0.07-0.216,0.246-0.544-0.629-0.401
		l-0.694,0.392c-0.388,0.109-0.498,0.083-0.464-0.062c-1.357,0.188-1.264,0.905-2.363,0.899c0.407-0.345,0.025-0.302-0.463-0.29
		c-0.013,0.047-0.042,0.142-0.238,0.186c0.156,0.097,0.252-0.231,0.646-0.119c0.14,0.145-0.419,0.187-0.631,0.278
		c-1.027-0.371-3.174,0.35-4.752,0.259c0.136,0.302-0.68,0.192-0.986,0.32c0.066-0.343-0.868,0.125-1.307-0.048l0.257,0.312
		c-0.958-0.121-1.517,0.615-2.13,0.261c-0.539-0.06,0.172-0.254,0.39-0.325c-0.747-0.281-1.953,0.359-2.554-0.011
		c-0.062,0.136,0.164,0.348-0.477,0.484c-0.521-0.131-1.546-0.278-1.449-0.346c-0.424,0.054-0.54,0.156-1.001,0.025
		c0.043-0.086,0.243-0.092,0.39-0.126c-0.735-0.105-1.325,0.023-1.979,0.128c-0.389-0.256-1.689-0.159-2.518-0.39
		c-0.497,0.273-1.356-0.234-1.452,0.164c0.024-0.041-0.077-0.102-0.129-0.13c-0.321,0.091-0.601,0.328-1.005,0.315l0.154-0.253
		c0.115-0.287-0.953-0.197-1.185-0.337c0.199,0.2-0.491-0.089-0.541,0.099l-0.479,0.021c-0.759-0.031-0.105,0.118-1.035,0.033
		c-0.527-0.055-0.135-0.327,0.038-0.271c-0.423-0.193-0.88-0.172-1.342-0.188c0.17,0.03,0.228,0.06,0.061,0.088
		c-0.006-0.036-0.046-0.063-0.101-0.089c-0.172-0.007-0.344-0.021-0.515-0.054c0.006-0.007,0.002-0.009,0.006-0.014
		c-0.224-0.021-0.466-0.043-0.681-0.062c-0.123,0.002-0.235-0.004-0.319-0.029c-0.28-0.027-0.398-0.046-0.105-0.052
		c0.024,0.023,0.062,0.04,0.105,0.052c0.091,0.009,0.201,0.02,0.319,0.029c0.208-0.003,0.429-0.025,0.569-0.022
		c-0.151-0.033-0.293-0.07-0.381-0.128l0.158-0.181c-0.316-0.069-1.237,0.001-1.225,0.093c-1.224-0.361-3.284-0.734-4.154-0.827
		c-0.066,0.004-0.148,0.001-0.257-0.021c0.066,0.003,0.156,0.011,0.257,0.021c0.165-0.008,0.196-0.063,0.023-0.036
		c-0.437-0.062-0.962-0.007-0.973-0.146c-0.437-0.016-0.351-0.241-0.977-0.443c-0.001-0.037-0.089,0.09-0.036,0.159
		c0.024,0.014,0.052,0.024,0.075,0.04c-0.039-0.006-0.061-0.021-0.075-0.04c-0.985-0.585-2.451-0.484-3.641-1.098
		c0.107,0.017,0.282-0.042,0.398-0.07c-0.994-0.241-1.938-0.483-2.89-0.554c0.122-0.057,0.124-0.149,0.37-0.118
		c-0.538-0.174-1.134-0.367-1.546-0.419c0.019,0.004,0.046,0.012,0.081,0.027c0.414,0.367-0.503,0.196-0.924-0.03l0.003-0.046
		c-0.665-0.268-0.735-0.175-1.399-0.444c-0.356-0.273,0.367,0.089,0.254-0.096c-0.038-0.366-1.431-0.815-1.541-0.935
		c-0.181-0.006-0.423-0.058-0.432,0.035c-0.542-0.159-0.158-0.287-0.514-0.437l-1.64-0.104c-0.016,0.008-0.043,0.009-0.094-0.006
		l0.094,0.006c0.098-0.051-0.337-0.467,0.137-0.368c-1.076-0.452-1.805-0.462-2.545-0.607c-0.285-0.213-1.353-0.634-1.708-0.808
		c-0.086-0.241,0.29,0.166,0.43,0.087l-0.427-0.463c0.699,0.351,0.055-0.317,0.485-0.23c-0.599-0.199-1.806-1.088-2.583-1.611
		c0.371,0.658-1.172-0.48-1.298-0.187c-0.95-0.562-0.32-0.538-0.627-0.832c-1.013-0.533-1.89-1.186-2.746-1.775
		c0,0,0.012-0.047,0.071-0.032c-0.824-0.485-2.016-1.482-2.957-1.818c0.075-0.029,0.041-0.131,0.268-0.025
		c-0.733-0.74-0.4,0.229-1.206-0.688l0.311,0.042c-0.668-0.342-1.022-1.025-1.83-1.361c0.032-0.089,0.194,0.006,0.316,0.044
		c-0.653-0.418-1.271-1.044-1.9-1.311c-0.01-0.15,0.127-0.151,0.401-0.006c-0.488-0.612-0.805-0.332-1.256-0.884
		c-0.125-0.129-0.285-0.42-0.256-0.436c-0.372-0.135-1.107-0.853-1.407-1.081c0.002-0.15-0.173-0.373-0.405-0.766
		c-2.755-2.688-5.308-5.707-7.84-8.604c-0.007-0.036-0.009-0.063-0.012-0.09c0.046-0.031,0.09-0.062,0.136-0.094
		c0.019-0.013,0.037-0.024,0.056-0.037c3.12-2.127,5.989-4.285,7.905-6.876c3.194-0.342,6.982-1.579,9.971-1.02
		c-5.924,1.071-12.323,3.646-11.939,7.605c6.34-2.826,14.07-4.386,18.464-7.752c3.053,0.35,6.622,0.322,8.987,1.339
		c-6.634-0.499-13.371,1.031-14.76,4.845c7.876-1.056,16.855-0.909,21.83-3.282c2.144,0.716,4.509,1.267,6.384,2.218
		c-5.356-0.877-12.686-0.856-14.608,2.094c4.213,0.225,9.891,1.541,15.495,1.815c5.85,0.284,8.431,0.357,11.803,2.367
		c1.395,0.885,4.277,2.535,6.651,3.723c-5.283-2.055-11.776-3.905-18.105-5.051c3.207,4.504,15.792,10.149,23.217,7.464
		c0.416,0.15,0.828,0.305,1.234,0.461c0.127,0.059,0.201,0.093,0.201,0.093s0.012,0,0.027-0.002c2.88,1.111,5.635,2.328,8.939,2.878
		c-5.804,0.092-13.043-1.607-20.932-1.045c6.576,3.443,19.092,8.513,27.232,2.587c3.301,0.054,6.133,0.595,9.724,0.103
		c-1.489,0.563-9.19,2.751-9.2,2.702c-2.096,0.651-7.271,0.964-8.968,2.338c2.065,1.427,10.733,1.359,10.726,1.306
		c8-0.72,13.24-3.391,15.771-7.286c1.645-0.262,3.342-0.598,4.981-1.006C157.73,147.74,157.417,148.116,157.154,148.48
		 M53.403,128.064c-3.344,0.679-6.207,1.697-8.889,2.872l-0.013-0.074c-0.573-0.277-0.434-0.786-1.018-1.22l0.089,0.036
		c-0.067-0.156-0.152-0.303-0.246-0.442C46.671,128.762,50.175,128.23,53.403,128.064 M179.867,119.245
		c-0.388,0.474-0.406,0.053-0.406,0.053l0.14-0.5c-0.379,0.572-0.294,0.884-0.61,1.535c-0.445-0.009,0.439-1.071,0.328-1.425
		l-0.479,0.341c-0.5,0.983,0.184,0.433-0.41,1.412l-0.068-0.191l-0.244,0.675c0.129,0.083,0.4,0.057,0.655-0.507
		c0.163,0.544-0.21,0.531-0.588,1.435c0.054,0.388,0.171-0.379,0.375-0.289c0.111,0.005,0.091,0.156,0.021,0.364
		c-0.191,0.37-0.389,0.736-0.586,1.104c-0.129,0.068-0.205-0.074-0.385,0.062c0.039-0.151,0.295-0.716,0.377-0.596
		c0.25-0.991-0.603,0.154-0.43-0.531c-0.46,0.606-0.216,0.713-0.333,1.106c0.13-0.197,0.146,0.205,0.293,0.094
		c-0.085,1.476-0.788,0.512-1.31,1.659c0.353-0.023-0.039,0.988,0.103,1.234c0.045,0.079,0.146,0.081,0.345-0.059
		c-0.094,0.303-0.207,0.686-0.399,0.939c-0.052-0.399-0.384,0.233-0.38-0.138c0-0.037,0.003-0.082,0.01-0.142l-0.232,0.396
		l0.08-0.771c-0.394,0.351-1.001,0.956-1.248,1.113c-0.256,0.622,0.321-0.031-0.033,0.65c0.028-0.303-0.319,0.03-0.496,0.317
		c0.447-0.513,0.314,0.203,0.138,0.605c-0.356,0.574-0.847,0.883-0.843,0.762l0.16-0.681c-0.107,0.53-0.196,0.127-0.403,0.596
		c0.038,0.201,0.045,0.591,0.101,0.839c-0.193,0.391-0.523,0.524-0.58,0.667l0.258-0.652c-0.461,0.768-0.436-0.086-0.873,0.726
		l0.027,0.318c-0.127,0.127-0.254,0.145-0.215-0.045c0.035,0.205-0.283,0.612-0.371,0.83l-0.143-0.034
		c-0.137,0.371-0.204,0.935-0.692,1.135c0.478-0.084,0.29-0.36,0.794-0.795c0.432-0.178-0.203,0.665-0.273,0.801
		c-0.248-0.256-0.623,0.762-0.907,1.126c-0.261,0.133-0.447,0.281-0.603,0.362l0.066,0.294c-0.443-0.153-0.48,0.8-0.932,1.102
		c0.065-0.297-0.094-0.386-0.377-0.15c0.57-0.154-0.205,0.898,0.061,0.938c-0.691,0.639-0.178-0.456-0.533-0.403
		c-0.103,0.527-0.781,0.677-0.738,1.137c-4.848,0.931-10.234,1.993-14.273,3.281c2.77,1.667,6.855,1.709,10.65,1.146
		c-0.125,0.273-0.266,0.558-0.692,0.865c0.229-0.444-0.328-0.095-0.274-0.323c-0.355,0.226,0.082,0.283-0.425,0.615l-0.039-0.145
		c-0.323,0.3-0.663,0.614-1.01,0.934c-7.61-1.311-14.261-1.356-20.646-1.056c1.826,2.181,9.379,3.632,12.721,3.978
		c-3.01,0.578-5.885,0.844-7.777,0.541c-0.572-0.092-1.054-0.15-1.465-0.186c-9.286-9.15-18.338-11.201-19.176-11.347
		c0.609,0.305,2.896,6.941,11.832,10.694c1.76,0.722-1.041,0.533-5.04-0.187c-0.25-0.047-1.005-0.273-0.769-0.093
		c-1.158-0.764-2.449-2.639-3.828-3.927c-3.521-3.29-8.431-7.31-12.932-9.74c-0.279,4.852,4.971,8.961,8.324,11.063
		c-1.294,0.187-6.206-2.732-7.828-3.406c-1.936-7.157-5.564-10.544-10.179-14.667c-1.359,2.78,3.638,10.685,4.1,11.401
		c-0.959-0.567-2.291-1.285-2.687-1.523c-0.338-7.034-9.817-11.198-18.112-13.67c3.082,4.683,9.562,8.201,13.046,11.487
		c-2.445-1.532-5.736-2.373-8.468-3.66c-3.097-7.238-12.276-9.556-22.475-10.315c3.81,3.718,11.583,5.816,15.749,8.4
		c-3.273-0.7-6.846-1.958-10.668-2.103c-3.612-4.795-12.162-6.12-22.075-3.483c4.827,1.592,10.728,2.398,16.757,3.338
		c-3.94,0.172-7.399,0.022-11.09,0.934c-2.358-3.545-10.564-2.502-16.68-0.134c-0.025,0.011-0.05,0.019-0.075,0.028
		c-0.22-0.264-0.417-0.45-0.551-0.452c-0.004-0.204,0.179-0.187,0.306-0.128c-1.324-2.127-2.58-4.578-3.753-6.689
		c-0.608,0.151-1.236,0.24-1.881,0.254c1.059,2.482,2.268,4.909,3.696,7.234c-0.114-0.396,0.21-0.104,0.433,0.208l-0.023,0.127
		l0.149,0.136l0.301,0.271c0.309,0.466-0.013,0.394-0.286,0.007c0.366,0.61,0.731,1.198,1.097,1.773
		c0.495,0.78,0.993,1.536,1.498,2.284c0.056,0.083,0.112,0.165,0.167,0.248c0.232,0.341,0.464,0.681,0.699,1.021
		c0.408,0.593,0.823,1.188,1.247,1.794c0.225-0.014,0.567,0.541,0.853,0.865c0.135,0.154,0.258,0.257,0.349,0.223
		c0.04,0.142-0.047,0.052-0.14,0.021c1.309,1.519,1.415,1.595,2.318,3.236c3.45,4.424,7.395,8.193,11.641,11.579
		c1.676,1.337,3.397,2.614,5.155,3.847c6.386,4.3,13.308,7.396,20.732,9.71c1.267-0.108,2.763,0.601,4.217,0.557l-0.12,0.113
		c1.208,0.085,1.446,0.386,2.889,0.907c0.047-0.152,0.575,0.093,0.416-0.216c0.554-0.115,0.859,0.542,1.625,0.564
		c0.011,0.092,0.01-0.158,0.153-0.047c1.975,0.043-0.394,0.074,2.011,0.78c3.454,0.402,7.001,0.53,10.317,0.736
		c-0.206,0.007-0.297-0.206,0.038-0.201c0.312,0.437,1.125-0.087,1.707,0.099c-0.046,0.087-0.326,0.107-0.48,0.142
		c1.515,0.227,2.774-0.13,4.209,0.043c1.351-0.219,2.946-0.017,3.841-0.287c-0.203,0.182,0.619,0.095,0.918,0.127
		c0.928-0.636,2.666-0.136,3.852-0.662l-0.029,0.096c3.656-0.604,7.635-1.416,11.277-2.778c2.058-0.701,4.521-1.115,6.68-2.23
		c0.381-0.241,0.02-0.202,0.33-0.39c0.557-0.231,0.051,0.148,0.289,0.109c1.002-0.68,2.545-1.033,3.865-1.733
		c0.121-0.151,0.486-0.357,0.309-0.404c1.199-0.285,2.458-1.182,3.672-1.877c0.389-0.273,0.777-0.55,1.164-0.829
		c0.092-0.134,0.396-0.323,0.709-0.518c0.719-0.53,1.43-1.072,2.135-1.626c-0.037,0.01-0.078,0.02-0.115,0.028
		c0.007-0.001,0.068-0.026,0.16-0.065c-0.015,0.014-0.028,0.025-0.045,0.037c0.416-0.098,0.85-0.206,1.297-0.323
		c0.146-0.087,0.301-0.178,0.469-0.275c0.553-0.44,0.578-0.745,1.31-1.166c0.606-0.036,1.419-1.044,2.144-1.444
		c-0.316-0.088,0.408-0.882,1.119-1.298l0.017,0.453c1.753-1.702,4.592-3.66,6.474-5.977c0.18-0.156,0.329-0.295,0.426-0.399
		c-0.024,0.01-0.069,0.012-0.121,0.01c0.047-0.062,0.096-0.125,0.142-0.188l0.306-0.007c0.334-0.386,0.672-0.766,1.012-1.144
		c0.426-0.476,0.853-0.948,1.275-1.42c1.235-1.382,2.422-2.779,3.409-4.319c0.089-0.139,0.183-0.273,0.269-0.416
		c0.59-0.586,1.455-1.597,1.953-2.248c0.514-1.021,0.75-1.347,0.957-2.144c0.223-0.355,0.504-0.464,0.655-0.552
		c0.856-1.115,1.785-2.128,2.126-3.265l0.171,0.062c0.455-1.049,1.039-2.593,1.851-3.581c0.053-0.379,0.558-1.546,0.121-1.136
		c0.194-0.463,0.41-0.138,0.477-0.684l0.007,0.554c1.376-2.488,2.289-4.733,3.201-7.334c0.584-0.615,0.969-2.438,1.62-3.855
		c0.16-0.92,0.9-2.344,0.722-3.126l0.179,0.013c0.385-1.163,0.873-2.742,1.33-4.285c0.279-0.896,0.025-0.965,0.119-1.698
		l0.184,0.001c0.011-0.114,0.015-0.216,0.014-0.31l-1.035,0.12c-0.447,1.743-0.953,3.478-1.516,5.197
		c-0.09,0.496-0.166,0.986-0.217,1.433c-0.244,0.782-0.306-0.154-0.424,0.679c-0.018-0.024-0.039-0.038-0.062-0.05
		c-0.114,0.32-0.235,0.639-0.353,0.958c0.006-0.006,0.01-0.009,0.017-0.016c-0.041,0.098-0.082,0.202-0.122,0.302
		c-0.232,0.622-0.473,1.242-0.717,1.86c-0.17,0.458-0.338,0.917-0.504,1.362c0.033-0.094,0.049-0.176,0.052-0.242
		c-0.218,0.523-0.437,1.047-0.663,1.566c-0.303,0.695-0.617,1.387-0.938,2.074c-0.027,0.051-0.055,0.105-0.084,0.166
		C180.238,118.761,180.253,118.77,179.867,119.245"/>
	<path fill="#FDF7E7" d="M29.006,78.073c0.012,0.007,0.022,0.018,0.036,0.021C29.031,78.068,29.02,78.065,29.006,78.073"/>
	<path fill="#FDF7E7" d="M30.045,76.292l-0.077-0.074C29.99,76.246,30.016,76.272,30.045,76.292"/>
	<path fill="#FDF7E7" d="M186.4,100.434c-0.017-0.032-0.035-0.061-0.06-0.085L186.4,100.434z"/>
	<path fill="#FDF7E7" d="M7.818,104.911c-1.218,0.182-2.235-0.49-2.273-1.822c-0.037-1.281,0.786-2.588,2.14-2.79
		c0.993-0.149,2.232,0.387,3.765,1.65C10.364,103.603,9.127,104.714,7.818,104.911 M34.058,68.718
		c1.444-0.216,2.149,0.657,2.2,2.399c0.052,1.794-0.925,5.645-3.819,9.012c-1.798,2.07-4.283,3.934-7.747,4.812
		C27.812,75.313,30.943,69.183,34.058,68.718 M34.078,110.148c-1.264,0.189-2.408-0.207-4.676-1.822
		c-2.364-1.81-7.01-5.747-9.615-8.034c1.103-2.635,2.016-5.551,2.754-8.235c6.547-0.875,11.085-3.817,14.121-6.948
		c4.888-4.95,7.018-11.239,6.882-15.954c-0.19-6.56-4.304-9.342-8.502-8.715c-9.206,1.375-13.397,13.17-17.135,25.001
		c-4.876-0.919-5.315-5.125-5.349-6.304c-0.134-4.664,2.936-6.615,3.025-6.68l-3.594-5.176c-3.321,2.71-5.724,7.392-5.57,12.722
		c0.179,6.201,3.571,10.635,9.455,11.918c-0.504,1.362-0.962,2.768-1.468,4.079c-2.077-1.285-4.184-2.051-6.757-1.667
		c-5.415,0.81-7.753,6.151-7.645,9.893c0.101,3.485,2.445,7.768,8.538,6.856c3.43-0.512,6.004-2.391,7.925-4.941
		c4.369,3.773,6.793,6.088,9.525,8.1c2.824,2.048,5.399,3.31,8.378,2.864c3.114-0.465,6.717-2.805,9.864-6.826l-4.259-4.664
		C37.876,108.294,35.972,109.866,34.078,110.148"/>
	<path fill="#FDF7E7" d="M66.317,99.619c-0.534,3.476-2.184,10.672-4.893,11.025c-0.677,0.101-0.782-0.399-0.124-2.71l3.816-12.255
		C66.119,95.891,66.735,96.828,66.317,99.619 M51.929,80.1c1.534-0.23,1.303,1.193,0.761,2.819c-0.833,2.543-2.125,4.898-6.3,4.698
		C46.39,87.618,48.589,80.599,51.929,80.1 M73.078,70.093c1.161-3.725,2.593-7.49,4.173-7.727c0.948-0.141,0.644,1.912,0.325,3.4
		c-0.481,2.182-1.541,6.253-4.676,13.823c-1.527,3.625-2.387,5.246-4.633,5.942L73.078,70.093z M95.036,80.195
		c-3.069,6.738-6.032,10.835-8.244,11.166c-0.993,0.147-2.006-0.421-0.054-6.581l5.097-16.511l3.566-0.533l1.37-4.322l-3.61,0.539
		l1.991-6.371l-7.175,1.073l-1.992,6.37l-3.7,0.553l-1.371,4.323l3.746-0.561l-4.686,15.061c-0.13,0.42-0.245,0.824-0.353,1.221
		c-2.541,4.39-5.478,6.599-9.331,7.175c-1.805,0.271-3.091-0.311-3.974-1.054l0.749-2.324c5.861-1.082,7.689-3.672,9.852-8.833
		c3.564-8.407,4.674-13.926,5.106-16.204c0.87-4.401-0.529-8.876-5.448-8.141c-4.377,0.654-7.407,4.04-9.93,12.395l-6.147,19.893
		c-2.944,4.868-6.84,7.783-10.622,8.348c-5.732,0.857-4.577-4.668-4.577-4.668c8.384-0.018,11.909-3.53,13.669-8.477
		c2.675-7.812-1.767-10.956-6.867-10.194c-9.657,1.443-13.867,14.168-13.67,20.984c0.162,5.586,3.286,8.619,9.559,7.682
		c3.934-0.588,7.175-2.465,9.814-4.955l-2.681,8.675c-2.155,6.962,0.083,10.694,4.551,10.026c3.52-0.526,5.887-3.299,7.512-6.681
		c1.45-3.151,2.294-6.881,2.569-9.906c0.136-1.564,0.004-2.986,0.004-2.986c3.549-0.388,6.536-1.894,9.031-4.414
		c0.282,3.875,2.575,5.253,5.575,4.806c5.687-0.85,10.111-7.738,13.257-14.9C97.233,80.947,95.987,80.156,95.036,80.195"/>
	<path fill="#FDF7E7" d="M138.202,66.642l-4.106,0.613l3.604-11.707c1.246-3.943,3.517-5.312,3.517-5.312l-1.436-4.212
		c-2.076,0.311-4.17,1.55-5.66,3.316c-4.979,1.825-11.311-0.832-17.223,0.051c-7.131,1.066-10.187,6.67-10.034,11.896
		c0.17,5.895,4.37,8.51,8.567,7.883c3.972-0.595,6.371-3.784,6.371-3.784l-3.031-4.539c0,0-1.264,1.731-3.114,2.009
		c-1.399,0.209-2.872-0.549-2.931-2.598c-0.056-1.897,1.15-4.084,4.49-4.583c3.565-0.533,8.641,1.024,13.391,0.727l-3.688,11.926
		l-4.017,0.601l-1.371,4.322l4.017-0.601l-1.281,4.258c-2.371,7.354-5.174,12.303-9.236,12.909
		c-2.166,0.323-4.385-1.198-4.471-4.119c-0.051-1.793,0.676-4.887,4.928-5.163l-0.195-6.764c-6.923,0.416-11.052,6.541-10.87,12.844
		c0.168,5.791,3.854,11.005,11.391,9.879c4.106-0.612,10.283-3.338,14.26-16.284l2.65-8.632l4.151-0.62L138.202,66.642z"/>
	<path fill="#FDF7E7" d="M148.097,57.701c2.12-0.317,3.91-2.695,3.84-5.104c-0.072-2.512-1.979-4.182-4.101-3.864
		c-2.211,0.329-3.914,2.54-3.842,5.052C144.064,56.193,145.885,58.031,148.097,57.701"/>
	<path fill="#FDF7E7" d="M198.205,69.513c0,0-1.924,3.994-4.45,4.372c-0.902,0.136-1.462-0.348-1.499-1.681
		c-0.096-3.28,2.968-13.362,6.533-13.896c1.986-0.297,2.113,2.567,2.113,2.567L198.205,69.513z M163.943,63.362
		c1.534-0.229,1.305,1.194,0.762,2.819c-0.834,2.544-2.125,4.898-6.301,4.699C158.404,70.88,160.603,63.861,163.943,63.362
		 M213.414,62.506c-3.067,6.789-6.032,10.835-7.838,11.105c-0.768,0.113-1.646-0.476,0.263-6.628l8.459-27.204l-7.177,1.072
		l-4.479,14.359c0,0-1.158-3.996-5.445-3.354c-6.235,0.931-9.947,10.401-11.324,17.437c-2.539,5.037-4.939,8-6.471,8.229
		c-0.768,0.114-1.602-0.482,0.305-6.635l8.416-27.197l-7.176,1.071l-8.004,25.747c-0.115,0.373-0.219,0.732-0.318,1.086
		c-2.957,4.984-6.902,7.972-10.735,8.543c-5.729,0.857-4.576-4.669-4.576-4.669c8.384-0.017,11.909-3.528,13.669-8.476
		c2.676-7.812-1.767-10.956-6.865-10.194c-8.144,1.216-12.412,10.451-13.435,17.404c-2.61,5.269-5.093,8.371-6.664,8.605
		c-0.767,0.114-1.601-0.481,0.306-6.634l5.099-16.512l-7.177,1.072l-4.685,15.061c-3.026,9.769-0.032,13.026,4.075,12.413
		c3.445-0.515,6.518-3.607,9.152-7.806c0.976,3.881,4.011,5.839,9.217,5.061c4.961-0.741,8.822-3.531,11.76-7.019
		c0.369,3.628,2.574,4.877,5.254,4.477c3.11-0.465,5.915-3.03,8.369-6.61c0.466,2.898,2.216,5.028,5.17,4.588
		c4.016-0.602,7.008-5.319,7.008-5.319s0.709,4.166,5.447,3.458c5.461-0.816,9.668-7.364,12.986-14.86
		C215.611,63.258,214.365,62.467,213.414,62.506"/>
	<path fill="#FDF7E7" d="M124.667,107.453l2.785-0.416l-0.081-2.809l-2.785,0.416L124.667,107.453z M124.519,102.307l2.783-0.416
		l-0.08-2.809l-2.785,0.416L124.519,102.307z M121.855,104.334l-0.584-0.365l0.557-0.542l-0.169-5.851l6.476-0.968l1.777,1.063
		l0.111,3.877l-1.015,1.248l1.079,0.959l0.112,3.885l-1.7,1.576l-6.477,0.969L121.855,104.334z"/>
	<path fill="#FDF7E7" d="M135.954,100.599l2.813-0.42l-0.082-2.817l-2.813,0.42L135.954,100.599z M142.188,107.172l-2.906,0.435
		l-2.456-4.793l-0.804,0.12l0.147,5.137l-2.719,0.407l-0.365-12.609l6.514-0.973l1.768,1.065l0.133,4.631l-1.807,1.762
		L142.188,107.172z M133.282,102.627l-0.573-0.366l0.547-0.541L133.282,102.627z"/>
	<polygon fill="#FDF7E7" points="152.485,105.634 145.41,106.691 145.241,100.84 144.658,100.475 145.214,99.933 145.045,94.082 
		152.064,93.033 152.13,95.36 147.823,96.004 147.905,98.813 151.614,98.259 151.681,100.595 147.972,101.149 148.052,103.958 
		152.417,103.306 	"/>
	<polygon fill="#FDF7E7" points="168.332,90.603 166.238,103.579 163.472,103.993 162.044,98.733 160.919,104.374 158.155,104.787 
		155.341,92.543 158.117,92.128 159.416,98.408 160.714,91.741 162.957,91.406 164.621,97.637 165.546,91.019 	"/>
	<polygon fill="#FDF7E7" points="178.992,101.673 171.917,102.73 171.748,96.879 171.166,96.514 171.722,95.972 171.553,90.122 
		178.571,89.073 178.638,91.399 174.33,92.043 174.412,94.852 178.121,94.298 178.189,96.634 174.479,97.188 174.56,99.998 
		178.923,99.345 	"/>
	<path fill="#FDF7E7" d="M184.707,93.314l2.813-0.42l-0.081-2.816l-2.812,0.42L184.707,93.314z M190.941,99.887l-2.906,0.434
		l-2.455-4.792l-0.805,0.121l0.149,5.138l-2.72,0.405l-0.365-12.608l6.514-0.975l1.768,1.066l0.133,4.632l-1.807,1.761
		L190.941,99.887z M182.035,95.342l-0.574-0.366l0.549-0.541L182.035,95.342z"/>
	<polygon fill="#FDF7E7" points="200.029,93.862 200.164,98.509 197.416,98.92 197.281,94.257 193.798,86.797 196.583,86.381 
		198.57,90.8 200.257,85.833 203.134,85.402 	"/>
</g>
</svg>
