<?xml version="1.0" encoding="utf-8"?>
<!-- Generator: Adobe Illustrator 16.0.0, SVG Export Plug-In . SVG Version: 6.00 Build 0)  -->
<!DOCTYPE svg PUBLIC "-//W3C//DTD SVG 1.1//EN" "http://www.w3.org/Graphics/SVG/1.1/DTD/svg11.dtd">
<svg version="1.1" id="Layer_1" xmlns="http://www.w3.org/2000/svg" xmlns:xlink="http://www.w3.org/1999/xlink" x="0px" y="0px"
	 width="98.139px" height="91.85px" viewBox="0 0 98.139 91.85" enable-background="new 0 0 98.139 91.85" xml:space="preserve">
<g id="Layer_2">
</g>
<g>
	<g>
		<g>
			<path fill="#FDF7E7" d="M48.674,91.039L0.288,47.247V0h96.77v47.247L48.674,91.039z M2.221,46.392l46.453,42.043l46.451-42.042
				V1.934H2.221V46.392z"/>
		</g>
	</g>
</g>
<path fill="#FDF7E7" d="M34.856,51.118c-1.176,0.175-2.159-0.475-2.196-1.762c-0.036-1.237,0.76-2.5,2.067-2.696
	c0.961-0.144,2.157,0.373,3.639,1.595C37.317,49.854,36.121,50.927,34.856,51.118 M60.212,16.143
	c1.395-0.208,2.076,0.635,2.125,2.319c0.052,1.733-0.893,5.454-3.689,8.708c-1.736,2-4.139,3.801-7.485,4.649
	C54.177,22.515,57.202,16.592,60.212,16.143 M60.232,56.178c-1.222,0.183-2.327-0.2-4.519-1.761
	c-2.284-1.75-6.773-5.553-9.291-7.763c1.065-2.547,1.949-5.365,2.662-7.958c6.325-0.846,10.71-3.688,13.643-6.714
	c4.725-4.783,6.783-10.86,6.651-15.416c-0.183-6.34-4.159-9.028-8.216-8.422C52.267,9.472,48.218,20.87,44.606,32.302
	c-4.712-0.888-5.136-4.953-5.169-6.091c-0.129-4.507,2.838-6.393,2.924-6.455l-3.473-5.001c-3.209,2.619-5.532,7.143-5.382,12.293
	c0.173,5.992,3.451,10.276,9.137,11.517c-0.487,1.316-0.93,2.674-1.419,3.942c-2.006-1.242-4.043-1.982-6.528-1.611
	c-5.234,0.782-7.493,5.943-7.388,9.56c0.097,3.367,2.363,7.506,8.25,6.625c3.314-0.495,5.802-2.311,7.658-4.775
	c4.222,3.646,6.563,5.883,9.203,7.829c2.729,1.978,5.219,3.197,8.098,2.767c3.008-0.449,6.49-2.71,9.53-6.597l-4.114-4.507
	C63.903,54.387,62.062,55.906,60.232,56.178"/>
</svg>
