<?xml version="1.0" encoding="UTF-8" standalone="no"?>
<svg width="100px" height="93px" viewBox="0 0 100 93" version="1.1" xmlns="http://www.w3.org/2000/svg" xmlns:xlink="http://www.w3.org/1999/xlink" xmlns:sketch="http://www.bohemiancoding.com/sketch/ns">
    <!-- Generator: Sketch 3.3.3 (12081) - http://www.bohemiancoding.com/sketch -->
    <title>resinbag-colour</title>
    <desc>Created with Sketch.</desc>
    <defs></defs>
    <g id="Page-1" stroke="none" stroke-width="1" fill="none" fill-rule="evenodd" sketch:type="MSPage">
        <g id="resinbag-colour" sketch:type="MSArtboardGroup">
            <g id="beer-resinbag" sketch:type="MSLayerGroup">
                <path d="M48.3247097,88.7314608 L3,47.4927745 L3,3 L93.6498387,3 L93.6498387,47.4927745 L48.3247097,88.7314608" id="Imported-Layers-Copy-3" fill="#FDF8E6" sketch:type="MSShapeGroup"></path>
                <path d="M46.6322888,15.6811925 C47.0731684,16.3573075 47.9586578,17.347484 48.4761257,17.4489385 C49.6933316,17.6866604 57.8266043,19.2810882 57.8266043,19.2810882 C58.168516,19.3474813 58.4875508,19.3820455 58.7764973,19.3820455 C59.7716471,19.3820455 60.3669465,18.9824439 61.1196497,18.4756684 L61.6408476,18.132762 C64.0760053,16.5671791 64.6188369,15.8042807 64.6456925,15.439492 C64.6466872,15.4228316 64.6504171,15.3718556 64.515393,15.2539893 C64.2406203,15.0160187 63.9506791,14.9038717 63.6008102,14.9038717 C62.7377005,14.9038717 61.7761203,15.5968957 61.5068182,15.8388449 C61.1651551,16.1471872 60.795393,16.3038449 60.4102139,16.3038449 C59.7323583,16.3038449 59.309631,15.8400882 59.0010401,15.5001658 L58.9085374,15.3992086 C57.0686791,13.1169786 53.9489519,9.86073529 52.6292968,9.60137968 C51.9101631,9.45267914 51.2735856,10.7099198 50.7909305,11.6369358 C50.3077781,12.5624599 49.8902727,13.3616631 49.1303583,13.6011257 C48.9814091,13.647377 48.8240053,13.6722433 48.6623743,13.6722433 C48.0068984,13.6722433 47.4140856,13.2937781 46.7849679,12.8901979 C46.316238,12.5913048 45.7318797,12.2178128 45.3820107,12.2178128 C45.3268075,12.2178128 45.2517112,12.2178128 45.1189251,12.3622861 C44.6342807,12.8924358 45.154484,13.5854599 45.1761176,13.6148021 C45.5976016,14.1678289 46.2508396,15.0938503 46.6322888,15.6811925" id="Fill-1" fill="#8EC23F" sketch:type="MSShapeGroup"></path>
                <path d="M66.1749706,46.8158021 C66.0546176,46.4246551 65.9310321,46.036492 65.8034679,45.6458422 L65.7064893,45.3442139 C65.5953369,45.0085187 65.4789626,44.6685963 65.3608476,44.3324037 L64.8955989,43.0060348 C64.6484278,42.3125134 64.3972781,41.620484 64.1468743,40.9299465 C63.7054973,39.7137353 63.265861,38.502746 62.8538262,37.3019519 L62.6280401,36.6315561 C62.5564251,36.4209385 62.4833182,36.2108182 62.4146872,36.0004492 L62.2677273,35.5379358 L62.1051016,35.0085321 C61.7462807,33.8440428 61.2832701,32.7720561 60.8356765,31.735131 C59.9273102,29.6326845 59.0632059,27.6339305 59.2673583,25.2907781 C56.9918422,24.6994572 49.7729037,23.2885428 47.3941925,22.9712487 C46.7150936,25.2072273 45.2576791,26.7195963 43.7236765,28.3120348 C43.0279171,29.0334064 42.3077888,29.7803904 41.6177487,30.6352941 L40.6059385,31.8472781 C40.3110241,32.1941631 40.0133743,32.5398048 39.7100053,32.8844519 C38.8279973,33.8883048 37.9166471,34.8891738 37.0003235,35.8947674 L34.5445267,38.621607 C34.4035348,38.7812487 34.2620455,38.9396471 34.1230428,39.1007807 C33.7652166,39.5177888 33.4133583,39.9347968 33.0674679,40.3525508 C31.1005428,42.7431979 29.7734278,44.7976524 28.8914198,46.8158021 C28.8076203,47.0087647 28.7248155,47.2009813 28.6479786,47.3956845 C28.5139492,47.7351096 28.3858877,48.078762 28.2744866,48.430123 L28.2282353,48.5733529 L28.0549171,49.1766096 C27.9355588,49.6239545 27.8350989,50.0934305 27.7605,50.5591765 C27.0988075,54.613131 28.3100455,58.9652326 31.3579091,63.5003503 C33.8686604,67.2337781 38.4920535,70.0391952 44.0427112,71.1959759 C45.1219091,71.4205187 46.2234866,71.5754358 47.3151176,71.6552567 C47.3685802,71.6569973 47.4275134,71.6597326 47.4859492,71.6686845 C47.966615,71.6997674 48.5047219,71.7184171 49.0410882,71.7184171 C52.8849225,71.7184171 56.3512861,70.7553449 59.0651952,68.9311524 C63.562516,65.9069118 66.306762,62.3385963 67.2201016,58.3241791 C67.333492,57.8211337 67.4170428,57.354393 67.4747326,56.8968529 L67.5314278,56.3348743 L67.5160107,56.2356578 L67.544607,56.1120722 C67.5709652,55.7714037 67.5868797,55.430238 67.5916043,55.0885749 L67.5916043,54.962254 C67.5906096,54.7774973 67.5878743,54.592492 67.5829011,54.4067406 C67.5304332,52.1886658 67.0830882,49.7773797 66.1749706,46.8158021 L66.1749706,46.8158021 Z M60.1264893,50.1759866 C61.0460455,52.3776497 61.2516898,54.6586364 60.7710241,56.8217567 C58.3987781,56.755861 56.0785027,57.0788743 53.9046898,57.8044733 C53.2059465,56.6412273 52.3440802,55.5528289 51.3427139,54.5606631 C53.4829572,52.2334251 56.5701096,50.682016 60.1264893,50.1759866 L60.1264893,50.1759866 Z M49.5095695,52.9679759 C49.2022219,52.7344813 48.8889064,52.5077005 48.5629091,52.2921096 L48.0277861,51.9357754 L47.4009064,52.080746 C47.0207005,52.1702647 46.6501925,52.2724652 46.2786898,52.3843636 C45.7318797,51.1169278 45.0154813,49.9133984 44.1158182,48.8063503 C45.3051738,46.8205267 47.1301123,45.1644305 49.4585936,44.0108824 C51.2382754,45.9059439 52.3634759,48.0959198 52.7869492,50.3726791 C51.5595481,51.0982781 50.4624465,51.9725775 49.5095695,52.9679759 L49.5095695,52.9679759 Z M59.1823155,48.1217807 C57.7447941,48.3550267 56.3781417,48.729762 55.1007594,49.2417594 C54.6536631,47.5272273 53.8465027,45.8686444 52.7203075,44.3304144 C54.1963717,43.3626176 55.9126444,42.6422406 57.8007433,42.2237406 C58.8137968,44.1319813 59.2710882,46.1434171 59.1823155,48.1217807 L59.1823155,48.1217807 Z M50.9702166,35.6316818 C52.501484,37.2653984 53.5538262,39.1159492 54.0879545,41.0532834 C53.057246,41.4650695 52.0924332,41.9614011 51.1969973,42.5355642 C51.0105,42.341607 50.8302193,42.1459091 50.6290508,41.9604064 L49.9452273,41.3168663 L49.0783877,41.6796658 C48.825746,41.7883316 48.5857861,41.9047059 48.3428422,42.0208316 C47.7085027,41.1726417 46.9764385,40.3669733 46.1585856,39.6244652 C47.3360053,37.9962193 48.965992,36.6248422 50.9702166,35.6316818 L50.9702166,35.6316818 Z M42.267008,39.4205615 C43.8890374,40.4716604 45.2449973,41.7470535 46.292615,43.1706497 C44.6981872,44.2175214 43.360877,45.4834652 42.3411096,46.9346631 C41.3240775,46.0126203 40.1740107,45.178107 38.9108021,44.4604652 C39.5160481,42.5768422 40.6492059,40.8511203 42.267008,39.4205615 L42.267008,39.4205615 Z M37.3086658,46.0558877 C40.4619626,47.7743984 42.8113316,50.3085241 44.0054118,53.2347914 C42.7183316,53.8161658 41.5282299,54.5310722 40.4696711,55.378516 C38.685016,53.9357727 36.6208636,52.8249947 34.3751872,52.0583663 C34.6825348,49.8626711 35.6776845,47.7942914 37.3086658,46.0558877 L37.3086658,46.0558877 Z M46.430623,67.983746 L43.9109198,67.5286925 C36.6857647,65.7017647 31.7037995,59.8017353 32.1670588,53.6147487 C35.0077861,54.3425856 37.5613075,55.706254 39.6095455,57.6082781 L40.5920134,58.5156497 L41.504607,57.6567674 C43.1475241,56.1098342 45.2449973,54.9602647 47.5993396,54.3107567 C49.5749679,55.7423102 51.1395561,57.5545668 52.1386845,59.5761979 L52.6927059,60.7033877 L53.9312968,60.1936283 C56.5139118,59.1293503 59.3824893,58.7414358 62.3003021,59.0554973 C60.5698556,65.0137139 53.8387941,68.800107 46.430623,67.983746 L46.430623,67.983746 Z" id="Fill-2" fill="#8EC23F" sketch:type="MSShapeGroup"></path>
                <path d="M0.056197861,0.222553476 L0.056197861,48.0949251 L50.0153503,92.9022754 L99.5214385,48.0949251 L99.5214385,0.222553476 L0.056197861,0.222553476 L0.056197861,0.222553476 Z M43.6306765,10.999861 C44.1098503,10.4754305 44.7158422,10.1996631 45.3820107,10.1996631 C46.3219572,10.1996631 47.1813369,10.7492086 47.872123,11.1908342 C48.0643396,11.3131765 48.3254358,11.4792834 48.5144198,11.5780027 C48.6623743,11.3527139 48.8593155,10.976238 49.0013021,10.7042005 C49.754254,9.25847326 50.8506096,7.19183422 53.0179572,7.62077807 C55.5294545,8.11462299 59.6376176,13.0898743 60.4358262,14.0820401 L60.4504973,14.0977059 C61.0122273,13.6672701 62.2222219,12.8857219 63.6008102,12.8857219 C64.4422861,12.8857219 65.1962326,13.1704412 65.8407674,13.7324198 C66.5805401,14.3762086 66.6939305,15.0955909 66.6583717,15.5857059 C66.5372727,17.2519973 64.5683583,18.6502299 62.7327273,19.8308824 L62.2458449,20.1496684 C61.3747781,20.7355187 60.3875856,21.4004439 58.7764973,21.4004439 C58.3575,21.4004439 57.9074198,21.3531979 57.4384412,21.2616898 C57.4384412,21.2616898 49.3069091,19.667262 48.0882112,19.4292914 C46.5278503,19.1229385 45.1917834,17.1691925 44.939639,16.7800348 C44.5877807,16.2379492 43.9609011,15.3489786 43.572738,14.8399652 C43.0289118,14.1290374 42.340115,12.4107754 43.6306765,10.999861 L43.6306765,10.999861 Z M12.9170535,14.5234171 L12.0619011,16.6930027 L11.2055053,14.5234171 L9.03492513,13.6662754 L11.2055053,12.8116203 L12.0619011,10.6390508 L12.9170535,12.8116203 L15.0891257,13.6662754 L12.9170535,14.5234171 L12.9170535,14.5234171 Z M22.9625455,35.9803075 L21.5354679,32.364 L17.9174198,30.9351818 L21.5354679,29.5073583 L22.9625455,25.8895588 L24.3891257,29.5073583 L28.0074225,30.9351818 L24.3891257,32.364 L22.9625455,35.9803075 L22.9625455,35.9803075 Z M69.609008,55.1634225 C69.6030401,55.519508 69.5863797,55.8768369 69.5595241,56.2296898 L69.5724545,56.3075214 L69.5538048,56.3960455 L69.5547995,56.4047487 L69.4777139,57.1410401 C69.4110722,57.6714385 69.3160829,58.2013396 69.1880214,58.7705294 C68.1565668,63.3046524 65.1293422,67.2852513 60.1903957,70.6066444 C57.1427807,72.6541364 53.2877567,73.7368155 49.0410882,73.7368155 C48.4584706,73.7368155 47.8738636,73.7164251 47.291992,73.6763904 L47.1674118,73.6676872 C45.9867594,73.5811524 44.7976524,73.4150455 43.6306765,73.1716043 C37.569016,71.9091417 32.4853476,68.7943877 29.6826658,64.6255508 C26.3391417,59.6520401 25.0229679,54.8110668 25.7677139,50.2361631 C25.8535027,49.7047701 25.9678877,49.1696471 26.1066417,48.6474545 L26.3490882,47.8258717 C26.4754091,47.4295027 26.619385,47.0403449 26.7710695,46.6539225 C26.8585989,46.4343529 26.9491123,46.2182647 27.043107,46.0059064 C28.0004599,43.8144385 29.4205749,41.6087968 31.5108369,39.0672112 C31.8664251,38.6377701 32.225992,38.2115615 32.593516,37.784607 C32.7394813,37.6152674 32.8884305,37.4476684 33.0368824,37.2800695 L35.5083449,34.5348289 C36.4159652,33.5396791 37.3203529,32.5472647 38.1951497,31.550623 C38.5077193,31.1970241 38.8133262,30.8404412 39.1159492,30.4843556 L39.9996979,29.4267914 C40.7931818,28.4440749 41.5438957,27.664516 42.269992,26.9105695 C43.9119144,25.2092166 45.2076979,23.8637005 45.6264465,21.7256952 C45.7002995,21.3415107 46.0354973,20.8881979 46.7320027,20.8881979 C46.8501176,20.8881979 60.3264144,22.9580695 61.1522246,23.9604305 L61.4555936,24.3277059 L61.3700535,24.8101123 C60.9560294,26.925738 61.7582166,28.7832513 62.6884652,30.9351818 C63.1574439,32.0220882 63.6430829,33.1450508 64.0352246,34.4204439 L64.3341176,35.3763048 C64.3990187,35.5752353 64.4683957,35.7744144 64.5360321,35.9745882 L64.7645535,36.6526925 C65.171615,37.8380695 65.6062781,39.0368743 66.0436765,40.2421444 C66.2960695,40.9356658 66.5482139,41.6316738 66.7966283,42.3281791 L67.2695856,43.6754358 C67.3867059,44.011877 67.5070588,44.3642326 67.6224385,44.710869 L67.7216551,45.0214492 C67.8529492,45.4190615 67.980016,45.8196578 68.1043476,46.2247299 C69.0681658,49.3655936 69.5436096,51.9514412 69.6010508,54.359992 C69.6040348,54.5173957 69.6080134,54.6743021 69.609008,54.8307112 L69.6463075,54.9319171 L69.609008,55.1634225 L69.609008,55.1634225 Z M80.817746,24.878992 L78.7620481,30.0934572 L76.7058529,24.878992 L71.491885,22.8227968 L76.7058529,20.7670989 L78.7620481,15.5521364 L80.817746,20.7670989 L86.0322112,22.8227968 L80.817746,24.878992 L80.817746,24.878992 Z" id="Fill-3" fill="#8EC23F" sketch:type="MSShapeGroup"></path>
            </g>
        </g>
    </g>
</svg>