<?xml version="1.0" encoding="UTF-8" standalone="no"?>
<svg width="99px" height="94px" viewBox="0 0 99 94" version="1.1" xmlns="http://www.w3.org/2000/svg" xmlns:xlink="http://www.w3.org/1999/xlink" xmlns:sketch="http://www.bohemiancoding.com/sketch/ns">
    <!-- Generator: Sketch 3.3.3 (12081) - http://www.bohemiancoding.com/sketch -->
    <title>sunlightpark-colour</title>
    <desc>Created with Sketch.</desc>
    <defs></defs>
    <g id="Page-1" stroke="none" stroke-width="1" fill="none" fill-rule="evenodd" sketch:type="MSPage">
        <g id="sunlightpark-colour" sketch:type="MSArtboardGroup" transform="translate(0.000000, 0.500000)">
            <g id="beer-sunlightpark" sketch:type="MSLayerGroup">
                <path d="M49.3670441,92.7096029 L0.0943676471,48.1142794 L0.0943676471,0 L98.6401765,0 L98.6401765,48.1142794 L49.3670441,92.7096029" id="Fill-1" fill="#FCDB1D" sketch:type="MSShapeGroup"></path>
                <g id="Fill-2-+-Fill-3" transform="translate(22.000000, 10.000000)" fill="#FEF8E7" sketch:type="MSShapeGroup">
                    <path d="M27.3670441,11.0836471 C36.4404706,11.0836471 44.7439118,16.0131029 49.1354265,23.8237353 C49.6259559,23.3044853 50.0686176,22.7647206 50.4561176,22.2080882 C49.4668529,20.5600735 48.31575,19.0410735 47.0251471,17.6629412 L52.33025,12.3569265 C52.7145588,11.9721618 52.7145588,11.3498824 52.33025,10.9651176 C51.9459412,10.5803529 51.3232059,10.5803529 50.9384412,10.9651176 L45.6283235,16.2761471 C43.5080147,14.3195 41.0941176,12.7106912 38.4691471,11.52175 L41.3535147,4.55997059 C41.5609412,4.05667647 41.3220588,3.48089706 40.8205882,3.27301471 C40.3204853,3.0665 39.7424265,3.30355882 39.5340882,3.80548529 L36.6469853,10.7754706 C33.9846324,9.79623529 31.1476765,9.23960294 28.2263824,9.14705882 L28.2263824,1.55752941 C28.2263824,1.01320588 27.7864559,0.573735294 27.2421324,0.573735294 C26.6982647,0.573735294 26.2578824,1.01320588 26.2578824,1.55752941 L26.2578824,9.15617647 C23.3461618,9.27516176 20.5183235,9.85048529 17.8701029,10.8493235 L14.9510882,3.80548529 C14.7432059,3.30355882 14.1656029,3.06741176 13.6645882,3.27301471 C13.1635735,3.48089706 12.9246912,4.05667647 13.1321176,4.55997059 L16.0538676,11.6111029 C13.4553382,12.8155441 11.0719853,14.4384853 8.97720588,16.3978676 L3.54445588,10.9651176 C3.16014706,10.5803529 2.53741176,10.5803529 2.15264706,10.9651176 C1.76879412,11.3498824 1.76879412,11.9721618 2.15264706,12.3569265 L7.5895,17.7937794 C6.34676471,19.1390882 5.23441176,20.6134118 4.27660294,22.2112794 C4.66455882,22.7683676 5.10676471,23.3058529 5.59775,23.8260147 C9.98835294,16.0140147 18.2931618,11.0836471 27.3670441,11.0836471" id="Fill-2"></path>
                    <path d="M52.0120441,25.1758824 C51.8456471,24.7993235 51.6569118,24.4368971 51.4741029,24.0712794 C48.2113529,28.2029412 42.4043235,31.50125 35.5551471,33.0052059 L35.5551471,28.5726618 L38.4276618,27.5223088 L35.5551471,26.4715 L35.5551471,26.1286765 C35.5551471,25.5843529 35.1152206,25.1439706 34.5713529,25.1439706 C34.2932647,25.1439706 34.0452647,25.2606765 33.8656471,25.4448529 C33.6924118,25.5310147 33.5711471,25.7056176 33.5711471,25.9130441 L33.5711471,33.3872353 C31.9144706,33.6580294 30.2090147,33.8253382 28.4716471,33.8759412 L28.4716471,27.0937794 L31.4148235,26.0379559 L28.4716471,24.9825882 L28.4716471,24.6434118 C28.4716471,24.0990882 28.0312647,23.6596176 27.4873971,23.6596176 C27.4481912,23.6596176 27.4144559,23.6773971 27.3770735,23.6810441 C27.3624853,23.6801324 27.3510882,23.6742059 27.3378676,23.6742059 C27.18925,23.6742059 27.0565882,23.7352941 26.9603971,23.8328529 C26.6914265,24.0079118 26.5036029,24.2969412 26.5036029,24.6434118 L26.5036029,33.8814118 C24.6399559,33.8385588 22.8105,33.6644118 21.0380294,33.3667206 L21.0380294,28.5726618 L23.9096324,27.5223088 L21.0380294,26.4715 L21.0380294,26.1286765 C21.0380294,25.5843529 20.5976471,25.1439706 20.0537794,25.1439706 C19.5099118,25.1439706 19.0695294,25.5843529 19.0695294,26.1286765 L19.0695294,32.9815 C12.2673088,31.4656912 6.50495588,28.1837941 3.25861765,24.0735588 C3.07717647,24.4387206 2.88844118,24.8002353 2.72204412,25.1758824 C2.72067647,25.1786176 2.72067647,25.1804412 2.72067647,25.1804412 C1.21945588,28.5763088 0.449926471,32.1868971 0.431691176,35.9301471 C0.458588235,38.9517353 1.88048529,41.8826029 4.54375,44.405 C4.82867647,44.6748824 5.24763235,44.7501029 5.60960294,44.5946471 C5.97066176,44.4387353 6.20407353,44.0826912 6.20407353,43.6901765 L6.20407353,39.4436324 C6.20407353,38.6289706 6.86647059,37.9670294 7.68022059,37.9670294 C8.49533824,37.9670294 9.15727941,38.6289706 9.15727941,39.4436324 L9.15727941,47.0910588 C9.15727941,47.4598676 9.36288235,47.7981324 9.69020588,47.9654412 C11.2511471,48.7705294 12.9593382,49.4648382 14.7691912,50.0287647 C15.0687059,50.1249559 15.39375,50.0670588 15.6458529,49.8824265 C15.8979559,49.6973382 16.0465735,49.4028382 16.0465735,49.0891912 L16.0465735,44.4879706 C16.0465735,43.6737647 16.7089706,43.0113676 17.5227206,43.0113676 C18.3369265,43.0113676 18.9988676,43.6737647 18.9988676,44.4879706 L18.9988676,50.2635441 C18.9988676,50.7435882 19.3444265,51.1529706 19.8176324,51.2341176 C21.4547059,51.5163088 23.1483088,51.7059559 24.8505735,51.7989559 C25.1250147,51.8144559 25.3839559,51.7178088 25.5813529,51.5318088 C25.7778382,51.3453529 25.8890735,51.0873235 25.8890735,50.8165294 L25.8890735,44.4879706 C25.8890735,43.6737647 26.5514706,43.0113676 27.3652206,43.0113676 C28.1789706,43.0113676 28.8413676,43.6737647 28.8413676,44.4879706 L28.8413676,50.8165294 C28.8413676,51.0873235 28.9530588,51.3453529 29.1490882,51.5318088 C29.3328088,51.7050441 29.5753382,51.8012353 29.8256176,51.8012353 C29.8443088,51.8012353 29.8625441,51.8012353 29.8798676,51.7989559 C31.5907941,51.7050441 33.2839412,51.5163088 34.9141765,51.2341176 C35.3860147,51.1520588 35.7315735,50.7426765 35.7315735,50.2635441 L35.7315735,44.4879706 C35.7315735,43.6737647 36.3935147,43.0113676 37.2077206,43.0113676 C38.0214706,43.0113676 38.6838676,43.6737647 38.6838676,44.4879706 L38.6838676,49.0928382 C38.6838676,49.4064853 38.8324853,49.7000735 39.0855,49.8856176 C39.3385147,50.0711618 39.6658382,50.1249559 39.9626176,50.0310441 C41.7779412,49.4630147 43.4856765,48.7687059 45.0402353,47.9681765 C45.3675588,47.7999559 45.5736176,47.4616912 45.5736176,47.0928824 L45.5736176,39.4436324 C45.5736176,38.6289706 46.2360147,37.9670294 47.0502206,37.9670294 C47.8639706,37.9670294 48.5263676,38.6289706 48.5263676,39.4436324 L48.5263676,43.6924559 C48.5263676,44.0863382 48.7597794,44.4414706 49.1212941,44.5964706 C49.4809853,44.7528382 49.9017647,44.6780735 50.1862353,44.4077353 C52.8522353,41.8876176 54.2755,38.9558382 54.3028529,35.9164706 C54.2846176,32.1868971 53.5146324,28.5763088 52.0138676,25.1840882 C52.0134118,25.1804412 52.0134118,25.1786176 52.0120441,25.1758824" id="Fill-3"></path>
                </g>
            </g>
        </g>
    </g>
</svg>