<?xml version="1.0" encoding="utf-8"?>
<!-- Generator: Adobe Illustrator 16.0.0, SVG Export Plug-In . SVG Version: 6.00 Build 0)  -->
<!DOCTYPE svg PUBLIC "-//W3C//DTD SVG 1.1//EN" "http://www.w3.org/Graphics/SVG/1.1/DTD/svg11.dtd">
<svg version="1.1" id="Layer_1" xmlns="http://www.w3.org/2000/svg" xmlns:xlink="http://www.w3.org/1999/xlink" x="0px" y="0px"
	 width="98.139px" height="91.85px" viewBox="0 0 98.139 91.85" enable-background="new 0 0 98.139 91.85" xml:space="preserve">
<g id="Layer_2">
</g>
<g>
	<g>
		<g>
			<path fill="#FDF7E7" d="M48.94,91.039L0.555,47.247V0h96.771v47.247L48.94,91.039z M2.488,46.392L48.94,88.435l46.452-42.042
				V1.934H2.488V46.392z"/>
		</g>
	</g>
	<g>
		<path fill="#FDF7E7" d="M48.94,20.704c8.909,0,17.063,4.841,21.376,12.51c0.481-0.51,0.917-1.04,1.297-1.586
			c-0.972-1.618-2.102-3.11-3.368-4.463l5.21-5.21c0.377-0.378,0.377-0.989,0-1.367c-0.378-0.377-0.989-0.377-1.367,0l-5.214,5.216
			c-2.083-1.922-4.452-3.502-7.03-4.669l2.832-6.837c0.203-0.494-0.03-1.061-0.523-1.263c-0.489-0.203-1.06,0.028-1.264,0.521
			l-2.835,6.845c-2.614-0.962-5.4-1.508-8.269-1.6v-7.453c0-0.535-0.434-0.966-0.968-0.966c-0.533,0-0.966,0.432-0.966,0.966v7.461
			c-2.859,0.117-5.636,0.684-8.236,1.664l-2.867-6.917c-0.204-0.493-0.771-0.725-1.264-0.521s-0.727,0.769-0.521,1.263l2.868,6.924
			c-2.552,1.183-4.893,2.777-6.949,4.701l-5.334-5.334c-0.378-0.377-0.989-0.377-1.367,0s-0.377,0.989,0,1.367l5.338,5.339
			c-1.22,1.321-2.312,2.769-3.254,4.337c0.382,0.547,0.816,1.076,1.298,1.586C31.874,25.545,40.029,20.704,48.94,20.704z"/>
		<path fill="#FDF7E7" d="M73.141,34.542c-0.163-0.37-0.35-0.727-0.529-1.085c-3.202,4.058-8.905,7.296-15.632,8.772v-2.034v-2.318
			l2.821-1.032l-2.821-1.032v-0.336c0-0.535-0.433-0.968-0.967-0.968c-0.271,0-0.516,0.115-0.692,0.296
			c-0.17,0.084-0.287,0.256-0.287,0.46v5.341v1.999c-1.629,0.267-3.303,0.431-5.01,0.48v-1.934v-4.728l2.892-1.037l-2.892-1.036
			v-0.333c0-0.534-0.432-0.966-0.966-0.966c-0.039,0-0.072,0.018-0.107,0.021c-0.016,0-0.026-0.007-0.039-0.007
			c-0.146,0-0.276,0.061-0.37,0.157c-0.266,0.171-0.449,0.456-0.449,0.795v7.138v1.935c-1.83-0.042-3.626-0.214-5.367-0.506v-2
			v-2.707l2.82-1.032l-2.82-1.032v-0.336c0-0.535-0.432-0.968-0.966-0.968s-0.967,0.433-0.967,0.968v4.694v2.035
			c-6.681-1.488-12.337-4.711-15.526-8.747c-0.178,0.358-0.363,0.713-0.526,1.083c-0.002,0.003-0.002,0.004-0.002,0.004
			c-1.474,3.335-2.229,6.88-2.247,10.556c0.025,2.968,1.422,5.845,4.037,8.322c0.28,0.265,0.692,0.339,1.047,0.186
			c0.354-0.151,0.584-0.503,0.584-0.888v-4.17c0-0.8,0.65-1.45,1.449-1.45c0.801,0,1.45,0.65,1.45,1.45v7.51
			c0,0.361,0.202,0.694,0.524,0.858c1.533,0.79,3.21,1.473,4.986,2.025c0.294,0.095,0.614,0.038,0.861-0.144
			c0.247-0.183,0.395-0.471,0.395-0.779v-4.519c0-0.8,0.649-1.45,1.448-1.45s1.45,0.65,1.45,1.45v5.672
			c0,0.472,0.339,0.874,0.804,0.953c1.608,0.276,3.271,0.463,4.943,0.555c0.27,0.017,0.523-0.08,0.717-0.263
			c0.193-0.184,0.304-0.438,0.304-0.702v-6.215c0-0.8,0.649-1.45,1.448-1.45s1.449,0.65,1.449,1.45v6.215
			c0,0.266,0.109,0.52,0.303,0.702c0.182,0.17,0.418,0.266,0.664,0.266c0.02,0,0.036,0,0.055-0.003
			c1.68-0.093,3.342-0.277,4.942-0.555c0.463-0.08,0.804-0.482,0.804-0.953v-5.672c0-0.8,0.648-1.45,1.448-1.45s1.45,0.65,1.45,1.45
			v4.521c0,0.309,0.146,0.597,0.396,0.778s0.568,0.234,0.859,0.143c1.783-0.558,3.46-1.239,4.985-2.024
			c0.322-0.165,0.523-0.498,0.523-0.859v-7.512c0-0.8,0.65-1.45,1.45-1.45c0.799,0,1.449,0.65,1.449,1.45v4.172
			c0,0.387,0.23,0.736,0.585,0.888c0.353,0.153,0.766,0.081,1.046-0.185c2.617-2.475,4.017-5.354,4.042-8.339
			c-0.018-3.662-0.773-7.208-2.248-10.539C73.142,34.547,73.142,34.545,73.141,34.542z"/>
	</g>
</g>
</svg>
