<?xml version="1.0" encoding="utf-8"?>
<!-- Generator: Adobe Illustrator 21.1.0, SVG Export Plug-In . SVG Version: 6.00 Build 0)  -->
<svg version="1.1" id="Layer_1" xmlns:sketch="http://www.bohemiancoding.com/sketch/ns"
	 xmlns="http://www.w3.org/2000/svg" xmlns:xlink="http://www.w3.org/1999/xlink" x="0px" y="0px" width="113px" height="106px"
	 viewBox="0 0 113 106" style="enable-background:new 0 0 113 106;" xml:space="preserve">
<style type="text/css">
	.st0{fill:#84754E;}
	.st1{fill:none;stroke:#84754E;stroke-width:3;stroke-miterlimit:10;}
	.st2{fill:none;stroke:#000000;stroke-miterlimit:10;}
	.st3{fill:none;stroke:#84754E;stroke-width:1.5;stroke-miterlimit:10;}
	.st4{fill:none;stroke:#84754E;stroke-width:1.3;stroke-miterlimit:10;}
</style>
<title>sunlight park</title>
<desc>Created with Sketch.</desc>
<g id="Page-1" sketch:type="MSPage">
</g>
<g>
	<polygon points="1.3,52.8 1.3,1.3 111.7,1.3 111.6,52.6 56.1,102.7 1.3,52.8 	"/>
	<path class="st0" d="M113,0H0v53.4l56,51.1L113,53.2L113,0L113,0L113,0z M110.3,2.7l0,49.3l-54.2,48.9L2.7,52.2V2.7H110.3"/>
	<path class="st1" d="M40.2,61.8c-8.9-8.9-8.9-23.4,0-32.3c8.9-8.9,23.4-8.9,32.3,0c8.9,8.9,8.9,23.4,0,32.3
		C63.5,70.7,49.1,70.7,40.2,61.8L40.2,61.8z"/>
	<path class="st0" d="M75.9,46.7c0,10-8.8,18-19.6,18c-10.8,0-19.6-8.1-19.6-18"/>
	<path d="M42.5,59.4c-7.6-7.6-7.6-20,0-27.7c7.6-7.6,20-7.6,27.7,0c7.6,7.6,7.6,20,0,27.7C62.5,67.1,50.1,67.1,42.5,59.4L42.5,59.4z
		"/>
	<path class="st2" d="M42.5,59.4c-7.6-7.6-7.6-20,0-27.7c7.6-7.6,20-7.6,27.7,0c7.6,7.6,7.6,20,0,27.7
		C62.5,67.1,50.1,67.1,42.5,59.4L42.5,59.4z"/>
	<polygon class="st0" points="79.6,42.5 88,46.4 79.6,50.4 79.6,42.5 	"/>
	<path class="st0" d="M79.1,41.8v4.7v4.7l5-2.3l5-2.3l-5-2.3L79.1,41.8L79.1,41.8L79.1,41.8z M80,43.2l3.7,1.7l3.2,1.5l-3.2,1.5
		L80,49.7v-3.3V43.2"/>
	<path class="st0" d="M56.5,12.6l-2.3,4.8l-2.3,4.8h4.7h4.7l-2.3-4.8L56.5,12.6L56.5,12.6L56.5,12.6z M56.5,14.7l1.5,3.2l1.7,3.6
		h-3.2h-3.2l1.7-3.6L56.5,14.7"/>
	<polygon class="st0" points="56.5,12.6 56.5,21.6 61.2,22.3 56.5,12.6 	"/>
	<path class="st0" d="M33.5,41.8l-5,2.3l-5,2.3l5,2.3l5,2.3v-4.7V41.8L33.5,41.8L33.5,41.8z M32.6,43.2v3.3v3.3l-3.7-1.7l-3.2-1.5
		l3.2-1.5L32.6,43.2"/>
	<polygon class="st0" points="23.5,46.4 32.7,46.4 33.5,41.8 23.5,46.4 	"/>
	<path class="st0" d="M60.3,69.3h-4.7H51l2.3,4.8l2.3,4.8l2.3-4.8L60.3,69.3L60.3,69.3L60.3,69.3z M58.9,70.2l-1.7,3.5l-1.5,3.1
		l-1.5-3.1l-1.7-3.5h3.2H58.9"/>
	<polygon class="st0" points="55.6,78.8 55.6,70 51,69.3 55.6,78.8 	"/>
	<path class="st3" d="M64.1,39.2c-2.2,0-3.9-1.8-3.9-3.9c0,2.2-1.8,3.9-3.9,3.9s-3.9-1.8-3.9-3.9c0,2.2-1.8,3.9-3.9,3.9
		c-2.2,0-3.9-1.8-3.9-3.9v11.4h23.5V35.3C68.1,37.4,66.3,39.2,64.1,39.2L64.1,39.2z M68.1,47c0,6.5-5.3,11.8-11.8,11.8
		c-6.5,0-11.8-5.3-11.8-11.8 M50.3,49.7v3.2"/>
	<path class="st4" d="M67.7,49.7H45.3 M66.5,52.9H46.4"/>
	<path class="st3" d="M64,56H48.9 M56.3,49.4v3.5 M53.4,53.2v3.5 M47.3,53.2v1.4 M65,53.4v1.4 M59.5,53.2v3.5 M56.3,55.8v3.5
		 M62.4,50.3v2.6 M47.5,47.2v2 M53.5,47.2v2 M65.5,47.2v2 M59.5,47.2v2.2 M52.4,35.3v11.2 M60.2,35.3v11.4"/>
</g>
</svg>
