<?xml version="1.0" encoding="utf-8"?>
<!-- Generator: Adobe Illustrator 21.1.0, SVG Export Plug-In . SVG Version: 6.00 Build 0)  -->
<svg version="1.1" id="Layer_1" xmlns:sketch="http://www.bohemiancoding.com/sketch/ns"
	 xmlns="http://www.w3.org/2000/svg" xmlns:xlink="http://www.w3.org/1999/xlink" x="0px" y="0px" width="113px" height="106px"
	 viewBox="0 0 113 106" style="enable-background:new 0 0 113 106;" xml:space="preserve">
<style type="text/css">
	.st0{fill:#FFDD00;}
	.st1{fill:#0D2240;}
</style>
<title>sunlight park</title>
<desc>Created with Sketch.</desc>
<g id="Page-1" sketch:type="MSPage">
	<g id="sunlight-park" sketch:type="MSArtboardGroup">
		<path id="Path" sketch:type="MSShapeGroup" class="st0" d="M0-0.9v54.6l56.5,51.1L113,53.7V-0.9H0L0-0.9z"/>
		<path id="Shape" sketch:type="MSShapeGroup" class="st1" d="M0,0v54.6l56.5,51.1L113,54.6V0H0L0,0z M110.7,53.6l-54.2,49l-54.2-49
			V2.3h108.4V53.6L110.7,53.6z"/>
		<path id="Fill-1" sketch:type="MSShapeGroup" class="st1" d="M56.4,21.6c10.6,0,20.2,5.7,25.4,14.8c0.6-0.6,1.1-1.2,1.5-1.9
			c-1.2-1.9-2.5-3.7-4-5.3l6.2-6.2c0.4-0.4,0.4-1.2,0-1.6c-0.4-0.4-1.2-0.4-1.6,0l-6.2,6.2c-2.5-2.3-5.3-4.2-8.3-5.5l3.4-8.1
			c0.2-0.6,0-1.3-0.6-1.5c-0.6-0.2-1.3,0-1.5,0.6l-3.4,8.1c-3.1-1.1-6.4-1.8-9.8-1.9v-8.8c0-0.6-0.5-1.1-1.1-1.1
			c-0.6,0-1.1,0.5-1.1,1.1v8.8c-3.4,0.1-6.7,0.8-9.8,2l-3.4-8.2c-0.2-0.6-0.9-0.9-1.5-0.6c-0.6,0.2-0.9,0.9-0.6,1.5l3.4,8.2
			c-3,1.4-5.8,3.3-8.2,5.6l-6.3-6.3c-0.4-0.4-1.2-0.4-1.6,0c-0.4,0.4-0.4,1.2,0,1.6l6.3,6.3c-1.4,1.6-2.7,3.3-3.9,5.1
			c0.5,0.6,1,1.3,1.5,1.9C36.1,27.3,45.8,21.6,56.4,21.6"/>
		<path id="Fill-4" sketch:type="MSShapeGroup" class="st1" d="M85.1,38c-0.2-0.4-0.4-0.9-0.6-1.3c-3.8,4.8-10.6,8.7-18.5,10.4v-2.4
			v-2.8l3.3-1.2l-3.3-1.2v-0.4c0-0.6-0.5-1.1-1.1-1.1c-0.3,0-0.6,0.1-0.8,0.4c-0.2,0.1-0.3,0.3-0.3,0.5v6.3v2.4
			c-1.9,0.3-3.9,0.5-5.9,0.6v-2.3v-5.6l3.4-1.2l-3.4-1.2v-0.4c0-0.6-0.5-1.1-1.1-1.1c0,0-0.1,0-0.1,0c0,0,0,0,0,0
			c-0.2,0-0.3,0.1-0.4,0.2c-0.3,0.2-0.5,0.5-0.5,0.9v8.5v2.3c-2.2,0-4.3-0.3-6.4-0.6v-2.4v-3.2l3.3-1.2L49,39.5v-0.4
			c0-0.6-0.5-1.1-1.1-1.1c-0.6,0-1.1,0.5-1.1,1.1v5.6v2.4c-7.9-1.8-14.6-5.6-18.4-10.4c-0.2,0.4-0.4,0.8-0.6,1.3c0,0,0,0,0,0
			c-1.7,4-2.6,8.2-2.7,12.5c0,3.5,1.7,6.9,4.8,9.9c0.3,0.3,0.8,0.4,1.2,0.2c0.4-0.2,0.7-0.6,0.7-1.1v-4.9c0-0.9,0.8-1.7,1.7-1.7
			c0.9,0,1.7,0.8,1.7,1.7v8.9c0,0.4,0.2,0.8,0.6,1c1.8,0.9,3.8,1.7,5.9,2.4c0.3,0.1,0.7,0,1-0.2c0.3-0.2,0.5-0.6,0.5-0.9v-5.4
			c0-0.9,0.8-1.7,1.7-1.7c0.9,0,1.7,0.8,1.7,1.7v6.7c0,0.6,0.4,1,1,1.1c1.9,0.3,3.9,0.5,5.9,0.7c0.3,0,0.6-0.1,0.9-0.3
			c0.2-0.2,0.4-0.5,0.4-0.8v-7.4c0-0.9,0.8-1.7,1.7-1.7c0.9,0,1.7,0.8,1.7,1.7v7.4c0,0.3,0.1,0.6,0.4,0.8c0.2,0.2,0.5,0.3,0.8,0.3
			c0,0,0,0,0.1,0c2-0.1,4-0.3,5.9-0.7c0.5-0.1,1-0.6,1-1.1v-6.7c0-0.9,0.8-1.7,1.7-1.7s1.7,0.8,1.7,1.7v5.4c0,0.4,0.2,0.7,0.5,0.9
			c0.3,0.2,0.7,0.3,1,0.2c2.1-0.7,4.1-1.5,5.9-2.4c0.4-0.2,0.6-0.6,0.6-1v-8.9c0-0.9,0.8-1.7,1.7-1.7c0.9,0,1.7,0.8,1.7,1.7v4.9
			c0,0.5,0.3,0.9,0.7,1.1c0.4,0.2,0.9,0.1,1.2-0.2c3.1-2.9,4.8-6.3,4.8-9.9C87.7,46.2,86.8,41.9,85.1,38C85.1,38,85.1,38,85.1,38"/>
	</g>
</g>
</svg>
