<?xml version="1.0" encoding="utf-8"?>
<!-- Generator: Adobe Illustrator 16.0.0, SVG Export Plug-In . SVG Version: 6.00 Build 0)  -->
<!DOCTYPE svg PUBLIC "-//W3C//DTD SVG 1.1//EN" "http://www.w3.org/Graphics/SVG/1.1/DTD/svg11.dtd">
<svg version="1.1" id="Layer_1" xmlns="http://www.w3.org/2000/svg" xmlns:xlink="http://www.w3.org/1999/xlink" x="0px" y="0px"
	 width="98.125px" height="91.85px" viewBox="0 0 98.125 91.85" enable-background="new 0 0 98.125 91.85" xml:space="preserve">
<polygon fill="#90D4D1" points="0.424,0.007 98.041,0.007 98.015,46.063 48.84,90.05 0.452,46.063 "/>
<g>
	<defs>
		<polygon id="SVGID_1_" points="0.424,0.007 98.041,0.007 98.015,46.063 48.84,90.05 0.452,46.063 		"/>
	</defs>
	<clipPath id="SVGID_2_">
		<use xlink:href="#SVGID_1_"  overflow="visible"/>
	</clipPath>
	<g clip-path="url(#SVGID_2_)">
		<g>
			<g>
				<g>
					<polygon fill="#83CCC8" points="-19.293,115.464 -10.759,102.587 -2.228,115.464 					"/>
					<polygon fill="#8FD1CC" points="-2.229,115.464 6.303,102.587 14.836,115.464 					"/>
					<polygon fill="#8ED6D3" points="6.303,102.587 -2.229,115.464 -10.759,102.587 					"/>
					<polygon fill="#90D4D1" points="-10.759,102.587 -19.294,115.464 -27.825,102.587 					"/>
					<polygon fill="#83CCC8" points="14.836,115.464 23.369,102.587 31.899,115.464 					"/>
					<polygon fill="#8FD1CC" points="31.899,115.464 40.432,102.587 48.966,115.464 					"/>
					<polygon fill="#8ED6D3" points="40.432,102.587 31.899,115.464 23.367,102.587 					"/>
					<polygon fill="#90D4D1" points="23.367,102.587 14.834,115.464 6.303,102.587 					"/>
					<polygon fill="#83CCC8" points="48.964,115.464 57.496,102.587 66.027,115.464 					"/>
					<polygon fill="#8FD1CC" points="66.025,115.464 74.559,102.587 83.092,115.464 					"/>
					<polygon fill="#8ED6D3" points="74.559,102.587 66.025,115.464 57.496,102.587 					"/>
					<polygon fill="#90D4D1" points="57.496,102.587 48.964,115.464 40.432,102.587 					"/>
					<polygon fill="#90D4D1" points="125.75,102.587 117.218,115.464 108.688,102.587 					"/>
					<polygon fill="#83CCC8" points="83.091,115.464 91.624,102.587 100.155,115.464 					"/>
					<polygon fill="#8FD1CC" points="100.154,115.464 108.688,102.587 117.22,115.464 					"/>
					<polygon fill="#8ED6D3" points="108.688,102.587 100.154,115.464 91.623,102.587 					"/>
					<polygon fill="#90D4D1" points="159.879,102.587 151.345,115.464 142.814,102.587 					"/>
					<polygon fill="#83CCC8" points="117.218,115.464 125.75,102.587 134.283,115.464 					"/>
					<polygon fill="#8FD1CC" points="134.283,115.464 142.814,102.587 151.347,115.464 					"/>
					<polygon fill="#8ED6D3" points="142.814,102.587 134.283,115.464 125.75,102.587 					"/>
					<polygon fill="#90D4D1" points="91.623,102.587 83.09,115.464 74.559,102.587 					"/>
				</g>
				<g>
					<polygon fill="#83CCC8" points="151.344,115.464 159.879,102.587 168.409,115.464 					"/>
				</g>
			</g>
			<g>
				<g>
					<polygon fill="#83CCC8" points="-19.291,12.985 -10.759,0.112 -2.227,12.985 					"/>
					<polygon fill="#8FD1CC" points="-2.228,12.985 6.304,0.112 14.837,12.985 					"/>
					<polygon fill="#8ED6D3" points="6.304,0.112 -2.228,12.985 -10.759,0.112 					"/>
					<polygon fill="#90D4D1" points="-10.759,0.112 -19.293,12.985 -27.823,0.112 					"/>
					<polygon fill="#83CCC8" points="14.836,12.985 23.369,0.112 31.899,12.985 					"/>
					<polygon fill="#8FD1CC" points="31.899,12.985 40.432,0.112 48.966,12.985 					"/>
					<polygon fill="#8ED6D3" points="40.432,0.112 31.899,12.985 23.369,0.112 					"/>
					<polygon fill="#90D4D1" points="23.369,0.112 14.836,12.985 6.304,0.112 					"/>
					<polygon fill="#83CCC8" points="48.966,12.985 57.496,0.112 66.027,12.985 					"/>
					<polygon fill="#8FD1CC" points="66.027,12.985 74.561,0.112 83.094,12.985 					"/>
					<polygon fill="#8ED6D3" points="74.561,0.112 66.027,12.985 57.496,0.112 					"/>
					<polygon fill="#90D4D1" points="57.496,0.112 48.964,12.985 40.432,0.112 					"/>
					<polygon fill="#90D4D1" points="125.75,0.112 117.218,12.985 108.688,0.112 					"/>
					<polygon fill="#83CCC8" points="83.092,12.985 91.624,0.112 100.156,12.985 					"/>
					<polygon fill="#8FD1CC" points="100.155,12.985 108.688,0.112 117.22,12.985 					"/>
					<polygon fill="#8ED6D3" points="108.688,0.112 100.155,12.985 91.624,0.112 					"/>
					<polygon fill="#90D4D1" points="159.879,0.112 151.347,12.985 142.814,0.112 					"/>
					<polygon fill="#83CCC8" points="117.22,12.985 125.752,0.112 134.284,12.985 					"/>
					<polygon fill="#8FD1CC" points="134.283,12.985 142.814,0.112 151.348,12.985 					"/>
					<polygon fill="#8ED6D3" points="142.814,0.112 134.283,12.985 125.75,0.112 					"/>
					<polygon fill="#90D4D1" points="91.624,0.112 83.091,12.985 74.561,0.112 					"/>
				</g>
				<g>
					<polygon fill="#83CCC8" points="151.345,12.985 159.879,0.112 168.41,12.985 					"/>
				</g>
			</g>
			<g>
				<g>
					<polygon fill="#83CCC8" points="-27.823,25.713 -19.29,12.837 -10.759,25.713 					"/>
					<polygon fill="#8FD1CC" points="-10.759,25.713 -2.227,12.837 6.304,25.713 					"/>
					<polygon fill="#8ED6D3" points="-2.227,12.837 -10.759,25.713 -19.291,12.837 					"/>
					<polygon fill="#90D4D1" points="-19.291,12.837 -27.825,25.713 -36.355,12.837 					"/>
					<polygon fill="#83CCC8" points="6.304,25.713 14.837,12.837 23.369,25.713 					"/>
					<polygon fill="#8FD1CC" points="23.367,25.713 31.899,12.837 40.432,25.713 					"/>
					<polygon fill="#8ED6D3" points="31.899,12.837 23.367,25.713 14.836,12.837 					"/>
					<polygon fill="#90D4D1" points="14.836,12.837 6.303,25.713 -2.227,12.837 					"/>
					<polygon fill="#83CCC8" points="40.432,25.713 48.966,12.837 57.496,25.713 					"/>
					<polygon fill="#8FD1CC" points="57.496,25.713 66.027,12.837 74.562,25.713 					"/>
					<polygon fill="#8ED6D3" points="66.027,12.837 57.496,25.713 48.966,12.837 					"/>
					<polygon fill="#90D4D1" points="48.966,12.837 40.432,25.713 31.899,12.837 					"/>
					<polygon fill="#90D4D1" points="117.22,12.837 108.688,25.713 100.156,12.837 					"/>
					<polygon fill="#83CCC8" points="74.561,25.713 83.094,12.837 91.624,25.713 					"/>
					<polygon fill="#8FD1CC" points="91.623,25.713 100.156,12.837 108.688,25.713 					"/>
					<polygon fill="#8ED6D3" points="100.156,12.837 91.623,25.713 83.092,12.837 					"/>
					<polygon fill="#90D4D1" points="151.347,12.837 142.814,25.713 134.284,12.837 					"/>
					<polygon fill="#83CCC8" points="108.688,25.713 117.22,12.837 125.75,25.713 					"/>
					<polygon fill="#8FD1CC" points="125.75,25.713 134.284,12.837 142.816,25.713 					"/>
					<polygon fill="#8ED6D3" points="134.284,12.837 125.75,25.713 117.22,12.837 					"/>
					<polygon fill="#90D4D1" points="83.092,12.837 74.559,25.713 66.027,12.837 					"/>
				</g>
				<g>
					<polygon fill="#83CCC8" points="142.814,25.713 151.347,12.837 159.879,25.713 					"/>
					<polygon fill="#8ED6D3" points="168.41,12.837 159.879,25.713 151.345,12.837 					"/>
				</g>
			</g>
			<g>
				<g>
					<polygon fill="#83CCC8" points="-27.823,0.047 -19.29,-12.831 -10.759,0.047 					"/>
					<polygon fill="#8FD1CC" points="-10.759,0.047 -2.227,-12.831 6.304,0.047 					"/>
					<polygon fill="#8ED6D3" points="-2.227,-12.831 -10.759,0.047 -19.291,-12.831 					"/>
					<polygon fill="#90D4D1" points="-19.291,-12.831 -27.825,0.047 -36.355,-12.831 					"/>
					<polygon fill="#83CCC8" points="6.304,0.047 14.837,-12.831 23.369,0.047 					"/>
					<polygon fill="#8FD1CC" points="23.367,0.047 31.899,-12.831 40.432,0.047 					"/>
					<polygon fill="#8ED6D3" points="31.899,-12.831 23.367,0.047 14.836,-12.831 					"/>
					<polygon fill="#90D4D1" points="14.836,-12.831 6.303,0.047 -2.227,-12.831 					"/>
					<polygon fill="#83CCC8" points="40.432,0.047 48.966,-12.831 57.496,0.047 					"/>
					<polygon fill="#8FD1CC" points="57.496,0.047 66.027,-12.831 74.562,0.047 					"/>
					<polygon fill="#8ED6D3" points="66.027,-12.831 57.496,0.047 48.966,-12.831 					"/>
					<polygon fill="#90D4D1" points="48.966,-12.831 40.432,0.047 31.899,-12.831 					"/>
					<polygon fill="#90D4D1" points="117.22,-12.831 108.688,0.047 100.156,-12.831 					"/>
					<polygon fill="#83CCC8" points="74.561,0.047 83.094,-12.831 91.624,0.047 					"/>
					<polygon fill="#8FD1CC" points="91.623,0.047 100.156,-12.831 108.688,0.047 					"/>
					<polygon fill="#8ED6D3" points="100.156,-12.831 91.623,0.047 83.092,-12.831 					"/>
					<polygon fill="#90D4D1" points="151.347,-12.831 142.814,0.047 134.284,-12.831 					"/>
					<polygon fill="#83CCC8" points="108.688,0.047 117.22,-12.831 125.75,0.047 					"/>
					<polygon fill="#8FD1CC" points="125.75,0.047 134.284,-12.831 142.816,0.047 					"/>
					<polygon fill="#8ED6D3" points="134.284,-12.831 125.75,0.047 117.22,-12.831 					"/>
					<polygon fill="#90D4D1" points="83.092,-12.831 74.559,0.047 66.027,-12.831 					"/>
				</g>
				<g>
					<polygon fill="#83CCC8" points="142.814,0.047 151.347,-12.831 159.879,0.047 					"/>
					<polygon fill="#8ED6D3" points="168.41,-12.831 159.879,0.047 151.345,-12.831 					"/>
				</g>
			</g>
			<g>
				<g>
					<polygon fill="#83CCC8" points="-27.823,51.337 -19.29,38.458 -10.759,51.337 					"/>
					<polygon fill="#8FD1CC" points="-10.759,51.337 -2.227,38.458 6.304,51.337 					"/>
					<polygon fill="#8ED6D3" points="-2.227,38.458 -10.759,51.337 -19.291,38.458 					"/>
					<polygon fill="#90D4D1" points="-19.291,38.458 -27.825,51.337 -36.355,38.458 					"/>
					<polygon fill="#83CCC8" points="6.304,51.337 14.837,38.458 23.369,51.337 					"/>
					<polygon fill="#8FD1CC" points="23.367,51.337 31.899,38.458 40.432,51.337 					"/>
					<polygon fill="#8ED6D3" points="31.899,38.458 23.367,51.337 14.836,38.458 					"/>
					<polygon fill="#90D4D1" points="14.836,38.458 6.303,51.337 -2.227,38.458 					"/>
					<polygon fill="#83CCC8" points="40.432,51.337 48.966,38.458 57.496,51.337 					"/>
					<polygon fill="#8FD1CC" points="57.496,51.337 66.027,38.458 74.562,51.337 					"/>
					<polygon fill="#8ED6D3" points="66.027,38.458 57.496,51.337 48.966,38.458 					"/>
					<polygon fill="#90D4D1" points="48.966,38.458 40.432,51.337 31.899,38.458 					"/>
					<polygon fill="#90D4D1" points="117.22,38.458 108.688,51.337 100.156,38.458 					"/>
					<polygon fill="#83CCC8" points="74.561,51.337 83.094,38.458 91.624,51.337 					"/>
					<polygon fill="#8FD1CC" points="91.623,51.337 100.156,38.458 108.688,51.337 					"/>
					<polygon fill="#8ED6D3" points="100.156,38.458 91.623,51.337 83.092,38.458 					"/>
					<polygon fill="#90D4D1" points="151.347,38.458 142.814,51.337 134.284,38.458 					"/>
					<polygon fill="#83CCC8" points="108.688,51.337 117.22,38.458 125.75,51.337 					"/>
					<polygon fill="#8FD1CC" points="125.75,51.337 134.284,38.458 142.816,51.337 					"/>
					<polygon fill="#8ED6D3" points="134.284,38.458 125.75,51.337 117.22,38.458 					"/>
					<polygon fill="#90D4D1" points="83.092,38.458 74.559,51.337 66.027,38.458 					"/>
				</g>
				<g>
					<polygon fill="#83CCC8" points="142.814,51.337 151.347,38.458 159.879,51.337 					"/>
					<polygon fill="#8ED6D3" points="168.41,38.458 159.879,51.337 151.345,38.458 					"/>
				</g>
			</g>
			<g>
				<g>
					<polygon fill="#83CCC8" points="-19.293,38.591 -10.759,25.713 -2.228,38.591 					"/>
					<polygon fill="#8FD1CC" points="-2.229,38.591 6.303,25.713 14.836,38.591 					"/>
					<polygon fill="#8ED6D3" points="6.303,25.713 -2.229,38.591 -10.759,25.713 					"/>
					<polygon fill="#90D4D1" points="-10.759,25.713 -19.294,38.591 -27.825,25.713 					"/>
					<polygon fill="#83CCC8" points="14.836,38.591 23.369,25.713 31.899,38.591 					"/>
					<polygon fill="#8FD1CC" points="31.899,38.591 40.432,25.713 48.966,38.591 					"/>
					<polygon fill="#8ED6D3" points="40.432,25.713 31.899,38.591 23.367,25.713 					"/>
					<polygon fill="#90D4D1" points="23.367,25.713 14.834,38.591 6.303,25.713 					"/>
					<polygon fill="#83CCC8" points="48.964,38.591 57.496,25.713 66.027,38.591 					"/>
					<polygon fill="#8FD1CC" points="66.025,38.591 74.559,25.713 83.092,38.591 					"/>
					<polygon fill="#8ED6D3" points="74.559,25.713 66.025,38.591 57.496,25.713 					"/>
					<polygon fill="#90D4D1" points="57.496,25.713 48.964,38.591 40.432,25.713 					"/>
					<polygon fill="#90D4D1" points="125.75,25.713 117.218,38.591 108.688,25.713 					"/>
					<polygon fill="#83CCC8" points="83.091,38.591 91.624,25.713 100.155,38.591 					"/>
					<polygon fill="#8FD1CC" points="100.154,38.591 108.688,25.713 117.22,38.591 					"/>
					<polygon fill="#8ED6D3" points="108.688,25.713 100.154,38.591 91.623,25.713 					"/>
					<polygon fill="#90D4D1" points="159.879,25.713 151.345,38.591 142.814,25.713 					"/>
					<polygon fill="#83CCC8" points="117.218,38.591 125.75,25.713 134.283,38.591 					"/>
					<polygon fill="#8FD1CC" points="134.283,38.591 142.814,25.713 151.347,38.591 					"/>
					<polygon fill="#8ED6D3" points="142.814,25.713 134.283,38.591 125.75,25.713 					"/>
					<polygon fill="#90D4D1" points="91.623,25.713 83.09,38.591 74.559,25.713 					"/>
				</g>
				<g>
					<polygon fill="#83CCC8" points="151.344,38.591 159.879,25.713 168.409,38.591 					"/>
				</g>
			</g>
			<g>
				<g>
					<polygon fill="#83CCC8" points="-27.823,76.961 -19.29,64.084 -10.759,76.961 					"/>
					<polygon fill="#8FD1CC" points="-10.759,76.961 -2.227,64.084 6.304,76.961 					"/>
					<polygon fill="#8ED6D3" points="-2.227,64.084 -10.759,76.961 -19.291,64.084 					"/>
					<polygon fill="#90D4D1" points="-19.291,64.084 -27.825,76.961 -36.355,64.084 					"/>
					<polygon fill="#83CCC8" points="6.304,76.961 14.837,64.084 23.369,76.961 					"/>
					<polygon fill="#8FD1CC" points="23.367,76.961 31.899,64.084 40.432,76.961 					"/>
					<polygon fill="#8ED6D3" points="31.899,64.084 23.367,76.961 14.836,64.084 					"/>
					<polygon fill="#90D4D1" points="14.836,64.084 6.303,76.961 -2.227,64.084 					"/>
					<polygon fill="#83CCC8" points="40.432,76.961 48.966,64.084 57.496,76.961 					"/>
					<polygon fill="#8FD1CC" points="57.496,76.961 66.027,64.084 74.562,76.961 					"/>
					<polygon fill="#8ED6D3" points="66.027,64.084 57.496,76.961 48.966,64.084 					"/>
					<polygon fill="#90D4D1" points="48.966,64.084 40.432,76.961 31.899,64.084 					"/>
					<polygon fill="#90D4D1" points="117.22,64.084 108.688,76.961 100.156,64.084 					"/>
					<polygon fill="#83CCC8" points="74.561,76.961 83.094,64.084 91.624,76.961 					"/>
					<polygon fill="#8FD1CC" points="91.623,76.961 100.156,64.084 108.688,76.961 					"/>
					<polygon fill="#8ED6D3" points="100.156,64.084 91.623,76.961 83.092,64.084 					"/>
					<polygon fill="#90D4D1" points="151.347,64.084 142.814,76.961 134.284,64.084 					"/>
					<polygon fill="#83CCC8" points="108.688,76.961 117.22,64.084 125.75,76.961 					"/>
					<polygon fill="#8FD1CC" points="125.75,76.961 134.284,64.084 142.816,76.961 					"/>
					<polygon fill="#8ED6D3" points="134.284,64.084 125.75,76.961 117.22,64.084 					"/>
					<polygon fill="#90D4D1" points="83.092,64.084 74.559,76.961 66.027,64.084 					"/>
				</g>
				<g>
					<polygon fill="#83CCC8" points="142.814,76.961 151.347,64.084 159.879,76.961 					"/>
					<polygon fill="#8ED6D3" points="168.41,64.084 159.879,76.961 151.345,64.084 					"/>
				</g>
			</g>
			<g>
				<g>
					<polygon fill="#83CCC8" points="-19.293,64.214 -10.759,51.337 -2.228,64.214 					"/>
					<polygon fill="#8FD1CC" points="-2.229,64.214 6.303,51.337 14.836,64.214 					"/>
					<polygon fill="#8ED6D3" points="6.303,51.337 -2.229,64.214 -10.759,51.337 					"/>
					<polygon fill="#90D4D1" points="-10.759,51.337 -19.294,64.214 -27.825,51.337 					"/>
					<polygon fill="#83CCC8" points="14.836,64.214 23.369,51.337 31.899,64.214 					"/>
					<polygon fill="#8FD1CC" points="31.899,64.214 40.432,51.337 48.966,64.214 					"/>
					<polygon fill="#8ED6D3" points="40.432,51.337 31.899,64.214 23.367,51.337 					"/>
					<polygon fill="#90D4D1" points="23.367,51.337 14.834,64.214 6.303,51.337 					"/>
					<polygon fill="#83CCC8" points="48.964,64.214 57.496,51.337 66.027,64.214 					"/>
					<polygon fill="#8FD1CC" points="66.025,64.214 74.559,51.337 83.092,64.214 					"/>
					<polygon fill="#8ED6D3" points="74.559,51.337 66.025,64.214 57.496,51.337 					"/>
					<polygon fill="#90D4D1" points="57.496,51.337 48.964,64.214 40.432,51.337 					"/>
					<polygon fill="#90D4D1" points="125.75,51.337 117.218,64.214 108.688,51.337 					"/>
					<polygon fill="#83CCC8" points="83.091,64.214 91.624,51.337 100.155,64.214 					"/>
					<polygon fill="#8FD1CC" points="100.154,64.214 108.688,51.337 117.22,64.214 					"/>
					<polygon fill="#8ED6D3" points="108.688,51.337 100.154,64.214 91.623,51.337 					"/>
					<polygon fill="#90D4D1" points="159.879,51.337 151.345,64.214 142.814,51.337 					"/>
					<polygon fill="#83CCC8" points="117.218,64.214 125.75,51.337 134.283,64.214 					"/>
					<polygon fill="#8FD1CC" points="134.283,64.214 142.814,51.337 151.347,64.214 					"/>
					<polygon fill="#8ED6D3" points="142.814,51.337 134.283,64.214 125.75,51.337 					"/>
					<polygon fill="#90D4D1" points="91.623,51.337 83.09,64.214 74.559,51.337 					"/>
				</g>
				<g>
					<polygon fill="#83CCC8" points="151.344,64.214 159.879,51.337 168.409,64.214 					"/>
				</g>
			</g>
			<g>
				<g>
					<polygon fill="#83CCC8" points="-27.823,102.587 -19.29,89.708 -10.759,102.587 					"/>
					<polygon fill="#8FD1CC" points="-10.759,102.587 -2.227,89.708 6.304,102.587 					"/>
					<polygon fill="#8ED6D3" points="-2.227,89.708 -10.759,102.587 -19.291,89.708 					"/>
					<polygon fill="#90D4D1" points="-19.291,89.708 -27.825,102.587 -36.355,89.708 					"/>
					<polygon fill="#83CCC8" points="6.304,102.587 14.837,89.708 23.369,102.587 					"/>
					<polygon fill="#8FD1CC" points="23.367,102.587 31.899,89.708 40.432,102.587 					"/>
					<polygon fill="#8ED6D3" points="31.899,89.708 23.367,102.587 14.836,89.708 					"/>
					<polygon fill="#90D4D1" points="14.836,89.708 6.303,102.587 -2.227,89.708 					"/>
					<polygon fill="#83CCC8" points="40.432,102.587 48.966,89.708 57.496,102.587 					"/>
					<polygon fill="#8FD1CC" points="57.496,102.587 66.027,89.708 74.562,102.587 					"/>
					<polygon fill="#8ED6D3" points="66.027,89.708 57.496,102.587 48.966,89.708 					"/>
					<polygon fill="#90D4D1" points="48.966,89.708 40.432,102.587 31.899,89.708 					"/>
					<polygon fill="#90D4D1" points="117.22,89.708 108.688,102.587 100.156,89.708 					"/>
					<polygon fill="#83CCC8" points="74.561,102.587 83.094,89.708 91.624,102.587 					"/>
					<polygon fill="#8FD1CC" points="91.623,102.587 100.156,89.708 108.688,102.587 					"/>
					<polygon fill="#8ED6D3" points="100.156,89.708 91.623,102.587 83.092,89.708 					"/>
					<polygon fill="#90D4D1" points="151.347,89.708 142.814,102.587 134.284,89.708 					"/>
					<polygon fill="#83CCC8" points="108.688,102.587 117.22,89.708 125.75,102.587 					"/>
					<polygon fill="#8FD1CC" points="125.75,102.587 134.284,89.708 142.816,102.587 					"/>
					<polygon fill="#8ED6D3" points="134.284,89.708 125.75,102.587 117.22,89.708 					"/>
					<polygon fill="#90D4D1" points="83.092,89.708 74.559,102.587 66.027,89.708 					"/>
				</g>
				<g>
					<polygon fill="#83CCC8" points="142.814,102.587 151.347,89.708 159.879,102.587 					"/>
					<polygon fill="#8ED6D3" points="168.41,89.708 159.879,102.587 151.345,89.708 					"/>
				</g>
			</g>
			<g>
				<g>
					<polygon fill="#83CCC8" points="-19.293,89.839 -10.759,76.961 -2.228,89.839 					"/>
					<polygon fill="#8FD1CC" points="-2.229,89.839 6.303,76.961 14.836,89.839 					"/>
					<polygon fill="#8ED6D3" points="6.303,76.961 -2.229,89.839 -10.759,76.961 					"/>
					<polygon fill="#90D4D1" points="-10.759,76.961 -19.294,89.839 -27.825,76.961 					"/>
					<polygon fill="#83CCC8" points="14.836,89.839 23.369,76.961 31.899,89.839 					"/>
					<polygon fill="#8FD1CC" points="31.899,89.839 40.432,76.961 48.966,89.839 					"/>
					<polygon fill="#8ED6D3" points="40.432,76.961 31.899,89.839 23.367,76.961 					"/>
					<polygon fill="#90D4D1" points="23.367,76.961 14.834,89.839 6.303,76.961 					"/>
					<polygon fill="#83CCC8" points="48.964,89.839 57.496,76.961 66.027,89.839 					"/>
					<polygon fill="#8FD1CC" points="66.025,89.839 74.559,76.961 83.092,89.839 					"/>
					<polygon fill="#8ED6D3" points="74.559,76.961 66.025,89.839 57.496,76.961 					"/>
					<polygon fill="#90D4D1" points="57.496,76.961 48.964,89.839 40.432,76.961 					"/>
					<polygon fill="#90D4D1" points="125.75,76.961 117.218,89.839 108.688,76.961 					"/>
					<polygon fill="#83CCC8" points="83.091,89.839 91.624,76.961 100.155,89.839 					"/>
					<polygon fill="#8FD1CC" points="100.154,89.839 108.688,76.961 117.22,89.839 					"/>
					<polygon fill="#8ED6D3" points="108.688,76.961 100.154,89.839 91.623,76.961 					"/>
					<polygon fill="#90D4D1" points="159.879,76.961 151.345,89.839 142.814,76.961 					"/>
					<polygon fill="#83CCC8" points="117.218,89.839 125.75,76.961 134.283,89.839 					"/>
					<polygon fill="#8FD1CC" points="134.283,89.839 142.814,76.961 151.347,89.839 					"/>
					<polygon fill="#8ED6D3" points="142.814,76.961 134.283,89.839 125.75,76.961 					"/>
					<polygon fill="#90D4D1" points="91.623,76.961 83.09,89.839 74.559,76.961 					"/>
				</g>
				<g>
					<polygon fill="#83CCC8" points="151.344,89.839 159.879,76.961 168.409,89.839 					"/>
				</g>
			</g>
		</g>
	</g>
</g>
<g>
	<path fill="#FEFCF8" d="M0,0v47.442l49.062,44.405l49.062-44.405V0H0z M96.125,46.557L49.062,89.15L2,46.558V2h94.125V46.557z"/>
</g>
<g>
	<path fill="#FEFCF8" d="M44.684,35.771c0,0-0.051-0.77,0.784-0.77c0.836,0,1.989,0,1.989,0V11.428h-1.54
		c0,0-1.233,0.001-1.233-1.153c0-0.898,0-1.158,0-1.158s3.513,0,4.476,0s0.957,1.126,0.957,1.126v24.759c0,0,1.121,0,1.959,0
		c0.84,0,0.814,0.77,0.814,0.77v1.539h-8.206V35.771z"/>
	<path fill="#FEFCF8" d="M32.839,35.771c0,0-0.051-0.77,0.783-0.77s1.99,0,1.99,0V23.147h-1.541c0,0-1.232,0.001-1.232-1.153
		c0-0.899,0-1.158,0-1.158s3.512,0,4.475,0s0.957,1.125,0.957,1.125v13.042c0,0,1.121,0,1.961,0c0.837,0,0.812,0.77,0.812,0.77
		v1.539h-8.205V35.771z"/>
	<g>
		<g>
			<path fill="#FEFCF8" d="M21.708,20.597c-2.437,0-4.082,1.093-5.459,2.604V21.96c0,0,0.006-1.125-0.957-1.125s-4.475,0-4.475,0
				s0,0.259,0,1.158c0,1.154,1.232,1.153,1.232,1.153h1.541v23.167c0,0-1.156,0-1.99,0s-0.783,0.768-0.783,0.768v1.541h8.205v-1.541
				c0,0,0.025-0.768-0.814-0.768c-0.838,0-1.959,0-1.959,0V31.573l0.025,4.159c1.35,1.156,3.16,1.888,5.086,1.888
				c4.893,0,8.091-3.968,8.091-8.589C29.451,23.986,26.022,20.597,21.708,20.597z M21.206,35.269c-2.118,0-3.697-0.769-4.932-1.81
				v-8.087c1.35-1.386,2.929-2.426,5.047-2.426c3.082,0,5.395,2.426,5.355,6.124C26.639,32.651,24.403,35.269,21.206,35.269z"/>
		</g>
	</g>
	<path fill="#FEFCF8" d="M54.757,29.108c0-4.62,3.353-8.511,8.436-8.511c5.086,0,8.438,3.852,8.438,8.511
		c0,4.66-3.352,8.513-8.438,8.513C58.069,37.62,54.757,33.807,54.757,29.108z M68.856,29.108c0-3.618-2.311-6.199-5.664-6.199
		c-3.35,0-5.66,2.581-5.66,6.199c0,3.661,2.311,6.201,5.66,6.201C66.546,35.308,68.856,32.768,68.856,29.108z"/>
	<path fill="#FEFCF8" d="M76.638,35.695c-0.309-0.617-0.425-1.388-0.425-2.272V23.254h-3.044v-2.35h3.044v-4.728l2.619-0.279v5.007
		h5.047v2.35h-5.047v9.784c0,0.539,0.077,0.923,0.271,1.269c0.307,0.578,0.925,0.847,1.926,0.847c0.963,0,2.158-0.462,3.082-1
		l-0.347,2.54c-0.848,0.463-2.003,0.926-3.506,0.926C78.524,37.62,77.292,36.964,76.638,35.695z"/>
	<path fill="#FEFCF8" d="M34.458,14.586c0-1.154,1-2.157,2.156-2.157c1.117,0,2.08,1.003,2.08,2.157
		c0,1.156-1.002,2.119-2.119,2.119C35.42,16.705,34.458,15.742,34.458,14.586z"/>
	<g>
		<path fill="#FEFCF8" d="M32.902,48.67c-1.143,0-1.674-1.173-1.674-2.652c0-1.493,0.546-2.674,1.688-2.674
			c0.879,0,1.262,0.562,1.461,1.307l-0.863,0.281c-0.133-0.474-0.272-0.664-0.612-0.664c-0.494,0-0.729,0.635-0.729,1.734
			c0,1.099,0.242,1.745,0.744,1.745c0.318,0,0.479-0.175,0.672-0.736l0.797,0.339C34.142,48.198,33.692,48.67,32.902,48.67z"/>
		<path fill="#FEFCF8" d="M36.734,48.67c-1.202,0-1.711-1.173-1.711-2.652c0-1.493,0.524-2.674,1.726-2.674
			c1.194,0,1.703,1.175,1.703,2.658C38.452,47.49,37.929,48.67,36.734,48.67z M36.734,44.268c-0.554,0-0.767,0.635-0.767,1.734
			c0,1.099,0.229,1.745,0.781,1.745c0.547,0,0.76-0.633,0.76-1.729C37.509,44.917,37.28,44.268,36.734,44.268z"/>
		<path fill="#FEFCF8" d="M40.375,44.319v1.144h1.21v0.895h-1.21v2.231h-0.921v-5.162h2.721v0.892H40.375z"/>
		<path fill="#FEFCF8" d="M44.023,44.319v1.144h1.209v0.895h-1.209v2.231h-0.921v-5.162h2.719v0.892H44.023z"/>
		<path fill="#FEFCF8" d="M46.749,48.589v-5.162h2.646v0.884h-1.725v1.093h1.157v0.872h-1.157v1.428h1.791v0.885H46.749z"/>
		<path fill="#FEFCF8" d="M50.485,48.589v-5.162h2.646v0.884h-1.725v1.093h1.158v0.872h-1.158v1.428h1.791v0.885H50.485z"/>
		<path fill="#FEFCF8" d="M58.173,48.589L57.37,46.63h-0.303v1.959h-0.922v-5.162h1.371c1.003,0,1.645,0.537,1.645,1.608
			c0,0.724-0.368,1.174-0.869,1.409l0.885,2.145H58.173z M57.472,44.327h-0.404v1.439h0.457c0.472,0,0.715-0.244,0.715-0.716
			C58.239,44.586,58.026,44.327,57.472,44.327z"/>
		<path fill="#FEFCF8" d="M61.571,48.67c-1.202,0-1.712-1.173-1.712-2.652c0-1.493,0.524-2.674,1.727-2.674
			c1.194,0,1.702,1.175,1.702,2.658C63.288,47.49,62.766,48.67,61.571,48.67z M61.571,44.268c-0.554,0-0.768,0.635-0.768,1.734
			c0,1.099,0.229,1.745,0.782,1.745c0.546,0,0.759-0.633,0.759-1.729C62.345,44.917,62.116,44.268,61.571,44.268z"/>
		<path fill="#FEFCF8" d="M66.495,48.589l-0.244-1.076h-1.156l-0.244,1.076h-0.943l1.319-5.162h0.9l1.319,5.162H66.495z
			 M65.913,46.041c-0.089-0.4-0.207-0.998-0.244-1.257c-0.037,0.266-0.141,0.82-0.236,1.242l-0.141,0.626h0.76L65.913,46.041z"/>
		<path fill="#FEFCF8" d="M69.516,48.67c-0.7,0-1.187-0.369-1.54-0.811l0.626-0.671c0.31,0.396,0.642,0.588,0.951,0.588
			c0.384,0,0.575-0.212,0.575-0.559c0-0.294-0.185-0.529-0.789-0.839c-0.767-0.398-1.231-0.79-1.231-1.646
			c0-0.775,0.575-1.389,1.445-1.389c0.642,0,1.04,0.258,1.409,0.739l-0.613,0.613c-0.302-0.34-0.464-0.457-0.817-0.457
			c-0.296,0-0.487,0.189-0.487,0.449c0,0.31,0.177,0.502,0.738,0.804c0.892,0.48,1.283,0.836,1.283,1.704
			C71.065,48.051,70.475,48.67,69.516,48.67z"/>
		<path fill="#FEFCF8" d="M73.563,44.311v4.278h-0.922v-4.278h-1.068v-0.884h3.06v0.884H73.563z"/>
		<path fill="#FEFCF8" d="M75.522,48.589v-5.162h2.646v0.884h-1.725v1.093h1.158v0.872h-1.158v1.428h1.792v0.885H75.522z"/>
		<path fill="#FEFCF8" d="M81.286,48.589l-0.803-1.959h-0.302v1.959H79.26v-5.162h1.371c1.003,0,1.645,0.537,1.645,1.608
			c0,0.724-0.369,1.174-0.871,1.409l0.886,2.145H81.286z M80.587,44.327h-0.405v1.439h0.456c0.473,0,0.716-0.244,0.716-0.716
			C81.354,44.586,81.14,44.327,80.587,44.327z"/>
		<path fill="#FEFCF8" d="M84.484,48.67c-0.7,0-1.187-0.369-1.54-0.811l0.626-0.671c0.311,0.396,0.642,0.588,0.951,0.588
			c0.384,0,0.575-0.212,0.575-0.559c0-0.294-0.184-0.529-0.789-0.839c-0.766-0.398-1.231-0.79-1.231-1.646
			c0-0.775,0.576-1.389,1.445-1.389c0.642,0,1.04,0.258,1.408,0.739l-0.611,0.613c-0.302-0.34-0.465-0.457-0.818-0.457
			c-0.296,0-0.487,0.189-0.487,0.449c0,0.31,0.178,0.502,0.737,0.804c0.892,0.48,1.284,0.836,1.284,1.704
			C86.034,48.051,85.443,48.67,84.484,48.67z"/>
	</g>
</g>
</svg>
