<svg xmlns="http://www.w3.org/2000/svg" width="98.125" height="91.85"><path fill="#FDF7E7" d="M0 0v47.443l49.063 44.405 49.062-44.405V0H0zm77.705 63.229c-11.911-12.789-24.146-18.998-28.08-20.78a16.456 16.456 0 0 0 2.895-5.374c3.895 1.603 17.172 7.77 29.981 21.812l-4.796 4.342zM44.909 40.116a.75.75 0 0 1-.727.773h-.024a.751.751 0 0 1-.75-.728 16.941 16.941 0 0 1 .026-1.574.76.76 0 0 1 .797-.7.753.753 0 0 1 .701.799 14.513 14.513 0 0 0-.023 1.43zm-1.877-6.489a.741.741 0 0 1-.289-.06.748.748 0 0 1-.404-.98c.2-.479.426-.958.672-1.421a.75.75 0 1 1 1.326.706c-.224.421-.43.855-.612 1.292a.752.752 0 0 1-.693.463zm-.733 1.377a.751.751 0 0 1 .582.889c-.097.466-.174.941-.225 1.412a.75.75 0 1 1-1.493-.166c.058-.52.141-1.041.248-1.553a.75.75 0 0 1 .888-.582zm-.496 4.467a.754.754 0 0 1 .808.688c.038.475.099.951.182 1.418a.75.75 0 1 1-1.477.262 16.544 16.544 0 0 1-.201-1.56.75.75 0 0 1 .688-.808zm.786 4.425a.75.75 0 0 1 .97.432c.116.302.258.602.396.897.063.137.114.276.181.411a.75.75 0 0 1-1.345.668c-.07-.143-.125-.291-.191-.436-.154-.333-.311-.666-.441-1.005a.746.746 0 0 1 .43-.967zm1.217-.616a.75.75 0 0 1 1.464-.332c.093.409.212.819.34 1.224.016.052.026.104.042.153a.75.75 0 0 1-1.425.469 16.028 16.028 0 0 1-.421-1.514zm1.578-7.414a.752.752 0 0 1-1.454-.376c.13-.505.287-1.01.466-1.501a.752.752 0 0 1 .961-.45c.39.143.591.573.45.963-.161.447-.304.905-.423 1.364zm-.637-7.318c.329-.405.681-.801 1.045-1.173a.751.751 0 0 1 1.072 1.052 14.79 14.79 0 0 0-.95 1.065.745.745 0 0 1-.584.277.748.748 0 0 1-.583-1.221zm.996 2.605c.267-.447.559-.887.868-1.31a.751.751 0 0 1 1.212.887c-.283.386-.548.786-.791 1.191a.751.751 0 0 1-1.289-.768zm2.455-5.799a16.43 16.43 0 0 1 1.334-.828.74.74 0 0 1 .241-.078.74.74 0 0 1 .779.367.74.74 0 0 1-.133.888c-.048.048-.094.1-.156.134-.414.23-.823.484-1.215.755a.752.752 0 0 1-.85-1.238zm.507 2.148c.382-.354.787-.693 1.205-1.013a.752.752 0 0 1 1.052.142.732.732 0 0 1 .104.679.73.73 0 0 1-.248.374 15.13 15.13 0 0 0-1.094.918.749.749 0 0 1-1.062-.041.748.748 0 0 1 .043-1.059zm34.908 30.379C70.4 43.4 56.668 37.139 52.916 35.613c.49-2.181.535-4.399.141-6.555 4.639 1.84 20.057 8.816 34.688 25.084l-4.132 3.739zm12.512-11.324l-7.27 6.58c-15.929-17.709-32.83-24.593-36.119-25.811-.031-.012-.063-.008-.096-.015a16.573 16.573 0 0 0-1.343-3.233 16.533 16.533 0 0 0-14.508-8.589c-2.752 0-5.492.703-7.921 2.034-7.991 4.376-10.932 14.438-6.555 22.428a16.529 16.529 0 0 0 14.506 8.591c2.753 0 5.493-.704 7.922-2.035a16.522 16.522 0 0 0 3.831-2.887c2.26.998 15.329 7.137 27.983 20.646L49.063 89.151 2 46.557V2h94.125v44.557zm-72.371-7.119c.033-.028.057-.064.096-.088.406-.244.807-.511 1.19-.793a.75.75 0 1 1 .89 1.21c-.421.31-.861.604-1.308.87-.028.017-.061.013-.09.023a.745.745 0 0 1-.295.083.738.738 0 0 1-.483-1.305zm-.421-.825c-.057-.039-.118-.071-.164-.128a.753.753 0 0 1 .108-1.056c.367-.299.725-.619 1.064-.954a.75.75 0 1 1 1.054 1.069 16.31 16.31 0 0 1-1.171 1.051.744.744 0 0 1-.473.169.746.746 0 0 1-.418-.151zm2.837-4.329c.267-.391.52-.801.75-1.217a.75.75 0 0 1 1.314.726 16.46 16.46 0 0 1-.825 1.339.745.745 0 0 1-1.043.195.75.75 0 0 1-.196-1.043zm4.778-13.228a.75.75 0 0 1-.983-.4 14.906 14.906 0 0 0-.617-1.289.731.731 0 0 1-.082-.325.746.746 0 0 1 .388-.691.74.74 0 0 1 .793.059.764.764 0 0 1 .224.248c.248.461.475.938.678 1.417a.749.749 0 0 1-.401.981zm1.34 2.013c.107.512.191 1.035.25 1.554a.751.751 0 0 1-.662.83c-.029.003-.057.006-.085.006a.753.753 0 0 1-.745-.669 15.116 15.116 0 0 0-.227-1.411.752.752 0 0 1 .58-.89.756.756 0 0 1 .889.58zm-3.518 1.738a.753.753 0 0 1 .701-.799.755.755 0 0 1 .797.701 16.5 16.5 0 0 1 .027 1.572.75.75 0 0 1-.75.727h-.024a.75.75 0 0 1-.727-.772 14.962 14.962 0 0 0-.024-1.429zm.524-4.699c.18.488.339.994.472 1.5a.753.753 0 0 1-.536.918.752.752 0 0 1-.917-.539c-.12-.46-.264-.918-.428-1.362a.751.751 0 1 1 1.409-.517zm-2.128 16.547c.324-.352.632-.721.917-1.098a.75.75 0 0 1 1.196.905c-.313.414-.653.82-1.009 1.207a.737.737 0 0 1-.552.242.747.747 0 0 1-.552-1.256zm1.606-5.224a.753.753 0 0 1-.714-.984c.147-.451.274-.915.378-1.379a.753.753 0 0 1 .897-.567c.405.09.659.491.568.896-.114.509-.254 1.02-.416 1.515a.75.75 0 0 1-.713.519zm.811 1.697c.209-.424.401-.864.571-1.312a.752.752 0 0 1 1.403.534c-.186.488-.397.975-.627 1.441a.75.75 0 0 1-1.347-.663zm1.938-3.195a.75.75 0 0 1-.609-.869c.082-.469.143-.945.18-1.418a.76.76 0 0 1 .808-.69.752.752 0 0 1 .689.809 16.664 16.664 0 0 1-.198 1.56.752.752 0 0 1-.739.621 1.936 1.936 0 0 1-.131-.013z"/></svg>