<svg xmlns="http://www.w3.org/2000/svg" width="98.124" height="91.848"><path fill="#FDF7E7" d="M0 0v47.443l49.062 44.404 49.062-44.404V0H0zm96.124 46.557L49.062 89.15 2 46.557V2h94.124v44.557z"/><g fill="#FDF7E7"><path d="M81.15 36.092l-.001-.003c-.002-.029-.015-.055-.022-.083-.006-.025-.006-.053-.016-.076l-.006-.009-.003-.004c-.003-.006-.003-.012-.007-.018a.002.002 0 0 0-.002-.002c-.01-.021-.029-.037-.043-.057-.018-.025-.031-.053-.055-.074l-.003-.005-.005-.003-.013-.012c-.017-.015-.038-.021-.057-.032-.03-.02-.058-.04-.091-.054-.005-.001-.008-.005-.012-.006l-.002-.001-.01-.004-23.361-7.836a.483.483 0 0 0-.164-.076l-.254-.063-.492-.165c-.012-.004-.025-.002-.037-.005-.025-.007-.051-.008-.078-.011a.493.493 0 0 0-.115-.002c-.008.001-.016-.002-.024 0L44.271 29.83v-.008l-.452.096-30.433 5.924a.495.495 0 0 0-.395.491c-.003.019-.01.035-.01.055v7.293l-.1.021c-.015.003-.025.012-.039.017l-.104-.006c-.262-.027-.511.197-.525.473s.196.511.473.525l42.631 2.282c.016.002.029.01.045.011l.462.024v5.735l-43.059-4.605a.512.512 0 0 0-.55.444.5.5 0 0 0 .444.55l43.611 4.665a.44.44 0 0 0 .052.003h.017l23.729-.761a.5.5 0 0 0 .484-.516c-.01-.275-.255-.477-.516-.484l-23.213.744V47.08l.321.017.026.001c.008 0 .018-.005.026-.005l6.115.327.073.004.027.001a.484.484 0 0 0 .216-.055c.008-.004.016-.002.023-.006l16.499-8.982v9.866a.5.5 0 0 0 1 0V36.126c0-.006-.003-.011-.003-.017s.004-.011.004-.017zm-54.476-1.818l.008 1.157-1.219-.921 1.211-.236zm-10.892 2.121l1.591-.31-1.591 1.802v-1.492zm-1 7.374l-.801-.028v-6.947l.801-.171v7.146zm2.548.19l-.852-.046a.535.535 0 0 1-.114-.283.555.555 0 0 1 .512-.598.56.56 0 0 1 .6.513.55.55 0 0 1-.146.414zm2.064-.728a.559.559 0 0 1 .516-.6.555.555 0 0 1 .596.514.558.558 0 0 1-1.112.086zm1.747.932l-1.096-.059a.556.556 0 0 1 .505-.535.563.563 0 0 1 .601.516c.001.027-.008.052-.01.078zm1.792-.15a.559.559 0 0 1-.602-.512.56.56 0 0 1 .516-.598.554.554 0 0 1 .596.512.554.554 0 0 1-.51.598zm1.561.329l-.765-.041a.548.548 0 0 1-.151-.328.557.557 0 0 1 .516-.597.56.56 0 0 1 .597.513.552.552 0 0 1-.197.453zm1.109.032a.56.56 0 0 1-.602-.512.562.562 0 0 1 .516-.6.556.556 0 0 1 .598.515.555.555 0 0 1-.512.597zm.494-1.801a.557.557 0 1 1-.086-1.11.557.557 0 0 1 .086 1.11zm-1.186-1.524a.541.541 0 0 1 .301.442.557.557 0 1 1-1.11.084.543.543 0 0 1 .114-.373l-.384.085a.557.557 0 1 1-.909.47.545.545 0 0 1 .062-.283l-.743.164c.018.048.037.095.042.148a.557.557 0 0 1-1.111.087l-.447.099a.549.549 0 0 1-.502.502.555.555 0 0 1-.518-.277l-1.102.243a.556.556 0 0 1 .349.471.56.56 0 0 1-1.115.085.55.55 0 0 1 .152-.42l-2.212.487v-3.664l3.202-3.627 5.157-1.004 2.549 1.926.026 3.958-1.801.397zm2.832 3.45l-.069-10.384.783-.165.068 10.59-.782-.041zm1.712-10.766l1.459-.284-1.45 1.588-.009-1.304zm.438 10.362a.539.539 0 0 1-.371-.113l-.006-.875a.545.545 0 0 1 .294-.124.557.557 0 1 1 .083 1.112zm.662-1.282a.556.556 0 1 1-.085-1.11.556.556 0 1 1 .085 1.11zm1.39 1.776a.557.557 0 1 1 .513-.598.554.554 0 0 1-.513.598zm.034-2.266a.55.55 0 0 1-.587-.476c-.03.008-.057.022-.089.025a.56.56 0 0 1-.6-.513.555.555 0 1 1 1.103-.122c.029-.008.056-.022.087-.024a.558.558 0 1 1 .086 1.11zm1.245.647a.56.56 0 0 1-.598-.512.557.557 0 1 1 1.042-.311.56.56 0 0 1 .388-.204.56.56 0 0 1 .6.513.561.561 0 0 1-.518.598.55.55 0 0 1-.526-.288.552.552 0 0 1-.388.204zm1.562-1.912a.558.558 0 0 1-1.112.084.545.545 0 0 1 .144-.414.56.56 0 0 1-.196-.384.563.563 0 0 1 .516-.599.557.557 0 0 1 .452.929.55.55 0 0 1 .196.384zm-.41 3.541a.553.553 0 0 1-.592-.512.556.556 0 1 1 .592.512zm1.969-3.094a.556.556 0 0 1 .516-.6.56.56 0 0 1 .598.514.562.562 0 0 1-.516.6.547.547 0 0 1-.319-.085c.018.047.037.093.041.145a.56.56 0 0 1-.511.599.56.56 0 0 1-.6-.515.553.553 0 0 1 .51-.597.53.53 0 0 1 .322.084c-.017-.047-.037-.093-.041-.145zm-.783 1.144a.558.558 0 1 1 .082 1.112.555.555 0 0 1-.594-.514.554.554 0 0 1 .512-.598zm.498 2.312l-.847-.045a.546.546 0 0 1-.118-.286.558.558 0 0 1 .512-.599.562.562 0 0 1 .6.516.554.554 0 0 1-.147.414zm.993-.001a.556.556 0 1 1-.085-1.11.556.556 0 1 1 .085 1.11zm.374-4.297a.557.557 0 1 1-.084-1.112.56.56 0 0 1 .598.513.56.56 0 0 1-.514.599zm2.627.045a.56.56 0 0 1-1.114.086.578.578 0 0 1 .026-.205.554.554 0 0 1-.519-.504.56.56 0 0 1 .514-.6.56.56 0 0 1 .598.516.575.575 0 0 1-.026.204.547.547 0 0 1 .521.503zm-1.694-.998a.56.56 0 0 1-.085-1.113.558.558 0 0 1 .085 1.113zm.024 1.833a.557.557 0 1 1 .085 1.11.557.557 0 0 1-.085-1.11zm.22 3.06a.558.558 0 1 1-.084-1.112.558.558 0 0 1 .084 1.112zm1.044-.352a.557.557 0 0 1-.596-.516c-.025-.305.202-.572.511-.596s.574.206.596.512a.552.552 0 0 1-.511.6zm1.033-1.22a.56.56 0 0 1-.598-.513.56.56 0 0 1 1.114-.084.556.556 0 0 1-.516.597zm.277-2.575a.558.558 0 0 1-.598-.512.56.56 0 0 1 .516-.599.556.556 0 1 1 .082 1.111zm.531-2.105l-1.039.072.002.007a.56.56 0 0 1-.512.599.56.56 0 0 1-.601-.514l.002-.015-3.051.212a.543.543 0 0 1 .265.422.559.559 0 0 1-1.115.086.553.553 0 0 1 .206-.463l-.5.035-1.627.359c.058.08.103.17.111.275a.56.56 0 0 1-1.113.086c-.005-.051.009-.098.017-.145l-.547.12c.188.078.328.25.346.466a.558.558 0 0 1-.516.598.562.562 0 0 1-.6-.512.558.558 0 0 1 .146-.414l-.633.14a.56.56 0 0 1 .069.224.56.56 0 0 1-.514.6.564.564 0 0 1-.175-.022.534.534 0 0 1-.329.151.554.554 0 0 1-.284-.062l-.006-.989-.021-3.158 3.089-3.379 6.054-1.179 2.874 2.44v3.96zm0-5.271l-1.618-1.374 1.618-.315v1.689zm1.782 12.241l-.781-.041V31.22l.781-.165v14.266zm11.614-3.341a.538.538 0 0 1-.271.106.564.564 0 0 1-.602-.515.563.563 0 0 1 .516-.599.55.55 0 0 1 .355.104l.002.904zm-1.027-2.077a.564.564 0 0 1 .602.514.56.56 0 0 1-.517.598.558.558 0 0 1-.085-1.112zm-.745-.615a.558.558 0 0 1 1.113-.086.559.559 0 0 1-1.113.086zm1.762-10.503l.002 1.818-1.471-1.532 1.469-.286zM44.271 30.85l2.153-.419-2.153 2.203V30.85zm0 3.214l3.88-3.971 4.088-.795 2.64 2.75.003 5.369-2.611.183a.554.554 0 0 1-1.027.071l-4.252.296c.008.029.021.056.024.087a.56.56 0 0 1-.512.599.56.56 0 0 1-.601-.514c-.002-.034.009-.064.012-.098l-1.644.115v-4.092zm4.763 6.099a.56.56 0 0 1 .6.515.558.558 0 1 1-.6-.515zm-.767-1.68a.56.56 0 0 1 1.113-.086.556.556 0 0 1-.513.598.554.554 0 0 1-.6-.512zm-.3 2.138a.558.558 0 1 1-1.112.083.558.558 0 0 1 1.112-.083zm-1.851.559a.559.559 0 0 1 .6.513.562.562 0 0 1-.518.598.557.557 0 1 1-.082-1.111zm-.635-.486a.557.557 0 1 1-.085-1.11.557.557 0 0 1 .085 1.11zm-1.21-2.143a.549.549 0 0 1 .379-.19.56.56 0 0 1 .084 1.114.548.548 0 0 1-.463-.208v-.716zm0 2.96a.55.55 0 0 1 .935.356.555.555 0 0 1-.935.446v-.802zm.521 3.001a.552.552 0 0 1-.521-.276v-.547a.549.549 0 0 1 .437-.287.556.556 0 1 1 .084 1.11zm.991-.925a.59.59 0 0 1-.192.055.557.557 0 0 1-.6-.515.561.561 0 0 1 .514-.599c.3-.021.561.2.593.497a.568.568 0 0 1 .192-.056.561.561 0 0 1 .6.516.563.563 0 0 1-.512.598.556.556 0 0 1-.595-.496zm2.463 2.026l-.834-.044c-.019-.024-.041-.044-.056-.07-.022.025-.053.042-.079.062l-.723-.039a.537.537 0 0 1-.169-.35.556.556 0 0 1 1.042-.309.558.558 0 1 1 .819.75zm-.124-2.224a.561.561 0 0 1-.6-.513.56.56 0 0 1 1.115-.086.561.561 0 0 1-.515.599zm1.156 1.628a.554.554 0 0 1-.596-.512.556.556 0 1 1 1.109-.086.558.558 0 0 1-.513.598zm.37-2.625zm.54-2.81a.556.556 0 0 1 .512-.599.56.56 0 0 1 .6.514.557.557 0 1 1-1.112.085zm.731.911a.557.557 0 0 1 .549.33.553.553 0 0 1 .989.303.556.556 0 0 1-1.06.268.557.557 0 0 1-.393.211.56.56 0 0 1-.596-.512.56.56 0 0 1 .511-.6zm-.471 2.087a.559.559 0 1 1 1.114-.084.559.559 0 0 1-1.114.084zm1.5 2.8a.56.56 0 0 1-.086-1.114.561.561 0 0 1 .6.516.556.556 0 0 1-.514.598zm.018-5.49a.557.557 0 1 1-.084-1.108.557.557 0 0 1 .084 1.108zm.474-1.736a.558.558 0 1 1 1.113-.082.558.558 0 0 1-1.113.082zm.278 5.163a.544.544 0 0 1 .188-.449.54.54 0 0 1-.137-.311.557.557 0 1 1 1.113-.084.544.544 0 0 1-.188.448.539.539 0 0 1 .138.311.559.559 0 0 1-1.114.085zm1.234 2.602l-.741-.04a.552.552 0 0 1-.163-.341.558.558 0 0 1 1.114-.086.547.547 0 0 1-.21.467zm.594-1.25a.559.559 0 0 1-.086-1.112.554.554 0 0 1 .426.156l.001.793a.55.55 0 0 1-.341.163zm1.342 1.361l-.013-17.413.406-.098.377.095.013 17.457-.783-.041zm1.77-17.089l20.454 6.86-1.2.083a.53.53 0 0 1 .111.278.556.556 0 0 1-.511.599.561.561 0 0 1-.601-.513.545.545 0 0 1 .074-.3l-4.443.31a.55.55 0 0 1-.507.521.549.549 0 0 1-.575-.446l-2.904.202a.537.537 0 0 1 .154.332.542.542 0 0 1-.193.454c.015-.002.025-.01.04-.011a.556.556 0 1 1 .085 1.11.556.556 0 0 1-.598-.513.544.544 0 0 1 .191-.451c-.015.002-.025.01-.04.011a.56.56 0 0 1-.596-.514.542.542 0 0 1 .106-.359l-.494.035a.556.556 0 0 1-.499.473.55.55 0 0 1-.567-.398l-1.891.131a.605.605 0 0 1 .053.186.557.557 0 0 1-.514.596.555.555 0 0 1-.576-.709l-4.556.317-.003-8.284zm14.911 7.84a.554.554 0 0 1 .516-.597.556.556 0 1 1 .085 1.11.558.558 0 0 1-.601-.513zm.15 1.5a.557.557 0 1 1-1.11.087.557.557 0 0 1 1.11-.087zm-9.142 2.733a.545.545 0 0 1-.503-.26.548.548 0 0 1-.521-.503.557.557 0 0 1 .514-.597.546.546 0 0 1 .503.257c.272.02.499.225.521.504a.558.558 0 0 1-.514.599zm.205.73zm-1.929-1.816a.556.556 0 1 1-.963-.333.532.532 0 0 1-.104-.27.556.556 0 1 1 1.111-.084.55.55 0 0 1-.147.417.54.54 0 0 1 .103.27zm-3.43 1.612a.558.558 0 1 1-.088-1.112.558.558 0 0 1 .088 1.112zm.443.963a.56.56 0 0 1-.513.6.56.56 0 0 1-.601-.516.56.56 0 0 1 .516-.598.562.562 0 0 1 .598.514zm-.225-4.342a.557.557 0 1 1 1.111-.088.557.557 0 0 1-1.111.088zm.838 1.252a.56.56 0 0 1 .601.515.557.557 0 1 1-1.111.084.559.559 0 0 1 .51-.599zm.318-1.18a.56.56 0 0 1 .516-.6.56.56 0 0 1 .598.514.56.56 0 0 1-1.114.086zm.463 3.294c.049-.004.094.009.141.017a.557.557 0 0 1 .474-.355.557.557 0 1 1 .086 1.112c-.05.004-.097-.009-.144-.018a.555.555 0 0 1-1.072-.157.557.557 0 0 1 .515-.599zm1.469-3.135a.557.557 0 1 1 1.112-.084.556.556 0 1 1-1.112.084zm-4.063.667a.53.53 0 0 1 .272-.106.557.557 0 1 1 .082 1.11.547.547 0 0 1-.354-.104v-.9zm.63 6.536zm1.73-.098a.559.559 0 0 1-.599-.512c-.004-.045.01-.086.016-.129a.543.543 0 0 1-.237.08.559.559 0 0 1-.086-1.112.559.559 0 0 1 .6.514c.003.045-.009.086-.017.129a.544.544 0 0 1 .239-.081.56.56 0 0 1 .599.514.56.56 0 0 1-.515.597zm1.475-1.23a.555.555 0 0 1-.59-.478.55.55 0 0 1-.424.269.559.559 0 0 1-.601-.512.56.56 0 0 1 .515-.598c.297-.023.55.19.591.478a.557.557 0 0 1 .426-.27.558.558 0 0 1 .083 1.111zm1.372 2.106a.556.556 0 1 1-.085-1.11.56.56 0 0 1 .601.511.56.56 0 0 1-.516.599zm.217-2.055a.557.557 0 1 1-.085-1.11.557.557 0 0 1 .085 1.11zm1.083.312a.558.558 0 1 1-.09-1.112.558.558 0 0 1 .09 1.112zm-.056-6.428a.556.556 0 0 1 1.109-.086.552.552 0 0 1-.508.6.56.56 0 0 1-.601-.514zm1.472 4.119a.558.558 0 1 1-.087-1.113.558.558 0 0 1 .087 1.113zm.528-2.062a.544.544 0 0 1-.245.085.559.559 0 0 1-.6-.513.561.561 0 0 1 .516-.598c.017-.001.032.006.049.006a.553.553 0 0 1 .244-.086.559.559 0 0 1 .085 1.112c-.018.001-.032-.006-.049-.006zm.65 3.659a.556.556 0 0 1-.596-.513.558.558 0 1 1 .596.513zm.478-1.467a.555.555 0 0 1-.596-.515.558.558 0 0 1 1.112-.084.56.56 0 0 1-.516.599zm.953-1.747c-.003-.031.008-.059.011-.089a.552.552 0 0 1-.265-.421.558.558 0 1 1 1.114-.086c.002.031-.009.06-.012.09a.55.55 0 0 1 .264.421.561.561 0 0 1-.516.599.559.559 0 0 1-.596-.514zm.927 2.366a.559.559 0 0 1-.085-1.114.557.557 0 0 1 .596.515.555.555 0 0 1-.511.599zm.837-4.671a.559.559 0 0 1-.6-.514.555.555 0 0 1 .515-.596.557.557 0 0 1 .085 1.11zm1.176 1.596a.557.557 0 0 1-.086-1.111.561.561 0 0 1 .604.513.559.559 0 0 1-.518.598zm1.643 1.261l-.76.414a.555.555 0 0 1-.339-.459.56.56 0 0 1 1.116-.086c.003.046-.009.088-.017.131zm.716-2.109a.561.561 0 0 1-.6-.514.562.562 0 0 1 .516-.6.559.559 0 0 1 .084 1.114zm.8 1.284c-.001-.008-.006-.015-.007-.023a.561.561 0 0 1 .514-.6c.15-.011.29.041.397.131l-.904.492zm1.724-2.483a.558.558 0 0 1-.518-.273.556.556 0 0 1-.467.346.56.56 0 0 1-.6-.513.56.56 0 0 1 .514-.599.553.553 0 0 1 .517.272.554.554 0 0 1 1.066.168.562.562 0 0 1-.512.599zm.59 1.223a.55.55 0 0 1-.128-.299.558.558 0 0 1 .514-.598c.261-.02.48.146.56.381l-.946.516zm1.61-.877a.552.552 0 0 1-.163-.343.559.559 0 0 1 .516-.597.55.55 0 0 1 .574.436l-.927.504z"/><path d="M81.435 31.268L70.083 20.634a.538.538 0 0 0-.149-.097l-8.401-3.492c-.008-.003-.017-.002-.024-.005-.023-.008-.045-.008-.068-.013a.48.48 0 0 0-.173-.006c-.014.003-.027-.005-.041-.001l-4.174.983v3.278c0 .706-.453 1.095-1.012 1.095s-1.012-.389-1.012-1.095V18.48l-3.886.916.002-2.477.131.036a.5.5 0 0 0 .415-.895l-7.288-4.976c-.016-.011-.035-.008-.051-.016-.018-.011-.029-.029-.05-.037-.033-.014-.067-.006-.103-.012-.037-.006-.069-.015-.106-.013a.464.464 0 0 0-.166.047c-.024.01-.052.006-.074.021-.007.005-.01.014-.017.02-.008.006-.02.005-.027.012l-7.227 5.748a.5.5 0 0 0 .473.865l.646-.221v1.735l-1.351-.317c-.021-.006-.043.006-.064.003-.027-.001-.049-.02-.076-.016-.025.001-.043.019-.067.023a.467.467 0 0 0-.244.128c-.019.018-.044.023-.06.044-.014.018-.012.041-.023.06-.012.021-.033.032-.042.054l-1.733 4.214-13.396 3.157v2.375c0 .706-.452 1.095-1.012 1.095-.558 0-1.012-.389-1.012-1.095V27.06l-1.161.273a.496.496 0 0 0-.287.188L13.186 32.9a.499.499 0 0 0 .501.787l45.325-9.237 21.916 7.653a.5.5 0 0 0 .593-.213.499.499 0 0 0-.086-.622zm-48.483-2.562l3.348-8.14.082.15L39.95 27.3l-6.998 1.406zm11.16-6.263l-2.096-2.118a.503.503 0 0 0-.243-.136l-3.071-.709v-2.312l5.41-1.859v7.134zm6.03-2.806l-2.433.568a.523.523 0 0 0-.225.12l-2.372 2.191v-7.248l5.033 1.418-.003 2.951z"/><path d="M56.021 22.015a.64.64 0 0 0 .64-.64l-.095-5.979-.09-5.726c0-.353-.103-.639-.455-.639-.354 0-.456.286-.456.639l-.091 5.758-.093 5.946a.64.64 0 0 0 .64.641zm1.103-8.357c.011-.007 1.266-.78 2.342-.769.232.003.441.043.616.119.315.132.331.311.352.557.019.246.049.617.562.732a.494.494 0 0 0 .11.013c.276.003.558-.194.885-.419.417-.287.888-.615 1.429-.608.245.004.48.073.729.218.308.178.443.201.516.202.088 0 .145-.03.177-.056a.255.255 0 0 0 .093-.193c.006-.412-1.227-1.393-2.358-1.404a1.917 1.917 0 0 0-1.025.271c-.149.088-.238.105-.287.105-.187-.002-.276-.434-.374-.891-.191-.904-.48-2.271-2.047-2.288-.509-.007-1.108.129-1.826.411a.194.194 0 0 0-.117.131.204.204 0 0 0 .029.174c.003.007.465.645.369 1.575-.1.974-.461 1.866-.463 1.874a.196.196 0 0 0 .057.229.192.192 0 0 0 .231.017zm-37.49 16.091a.639.639 0 0 0 .641-.639l-.106-6.031-.078-4.447c0-.354-.101-.639-.456-.639-.353 0-.455.285-.455.639l-.078 4.446-.105 6.032a.635.635 0 0 0 .637.639zm.884-7.082c.062.04.141.029.192-.027.01-.008 1.503-.957 2.381-1.145.191-.039.366-.039.521-.002.271.066.309.227.355.451.045.223.116.562.551.576a.365.365 0 0 0 .092-.01c.229-.047.431-.282.674-.552.301-.343.643-.731 1.086-.825.202-.042.408-.021.625.066.275.108.387.104.446.092a.25.25 0 0 0 .138-.085.264.264 0 0 0 .051-.194c-.048-.381-1.178-1.064-2.104-.869a1.612 1.612 0 0 0-.805.442c-.111.108-.182.14-.222.149-.151.033-.28-.351-.416-.755-.269-.805-.679-2.017-1.961-1.744-.419.087-.89.325-1.441.718-.042.03-.071.084-.078.143s.009.113.048.154c.002.006.078.515.121 1.393.04.922-.328 1.814-.328 1.824-.015.081.01.163.074.2z"/></g></svg>