<?xml version="1.0" encoding="utf-8"?>
<!-- Generator: Adobe Illustrator 16.0.0, SVG Export Plug-In . SVG Version: 6.00 Build 0)  -->
<!DOCTYPE svg PUBLIC "-//W3C//DTD SVG 1.1//EN" "http://www.w3.org/Graphics/SVG/1.1/DTD/svg11.dtd">
<svg version="1.1" id="Layer_1" xmlns:sketch="http://www.bohemiancoding.com/sketch/ns"
	 xmlns="http://www.w3.org/2000/svg" xmlns:xlink="http://www.w3.org/1999/xlink" x="0px" y="0px" width="99px" height="93px"
	 viewBox="0 0 99 93" enable-background="new 0 0 99 93" xml:space="preserve">
<title>grandstand-colour</title>
<desc>Created with Sketch.</desc>
<g id="Page-1" sketch:type="MSPage">
	<g id="grandstand-colour" sketch:type="MSArtboardGroup">
		<g id="beer-grandstand" sketch:type="MSLayerGroup">
			<path id="Fill-1" sketch:type="MSShapeGroup" fill="#FF5F00" d="M2.283,1.019L1.836,48.814l48.262,41.871L97.504,48.02V1.353
				L2.283,1.019"/>
			<path id="Fill-2" sketch:type="MSShapeGroup" fill="#FF5F00" d="M0.609,0.648v47.443L49.67,92.495l49.062-44.404V0.648H0.609
				L0.609,0.648z M96.732,47.204L49.67,89.798L2.609,47.204V2.648h94.124V47.204L96.732,47.204z"/>
			<path id="Fill-3" sketch:type="MSShapeGroup" fill="#FFFDF7" d="M81.76,36.739c0-0.001,0-0.002-0.001-0.003
				c-0.002-0.029-0.015-0.054-0.022-0.083c-0.006-0.025-0.006-0.052-0.016-0.076c-0.002-0.004-0.005-0.006-0.006-0.009
				c-0.001-0.001-0.002-0.002-0.003-0.003c-0.003-0.006-0.003-0.012-0.007-0.018c0-0.001-0.002-0.002-0.002-0.002
				c-0.01-0.022-0.029-0.037-0.043-0.057c-0.018-0.025-0.031-0.053-0.055-0.074l-0.004-0.005c0-0.001-0.002-0.002-0.004-0.003
				c-0.005-0.004-0.008-0.008-0.012-0.012c-0.018-0.014-0.039-0.02-0.059-0.032c-0.029-0.019-0.057-0.04-0.09-0.053
				c-0.004-0.001-0.008-0.005-0.008-0.005s-0.005-0.002-0.006-0.002c0,0-0.006-0.003-0.01-0.004l-23.361-7.836
				c-0.049-0.034-0.104-0.062-0.164-0.076l-0.254-0.063l-0.492-0.165c-0.012-0.004-0.025-0.002-0.037-0.005
				c-0.025-0.006-0.051-0.008-0.078-0.01c-0.039-0.004-0.077-0.007-0.115-0.002c-0.008,0.001-0.016-0.002-0.025,0L44.88,30.477
				V30.47l-0.452,0.095l-30.433,5.924c-0.237,0.046-0.394,0.257-0.395,0.492c-0.002,0.018-0.009,0.035-0.009,0.054v7.293l-0.1,0.022
				c-0.014,0.002-0.026,0.011-0.04,0.016l-0.103-0.006c-0.262-0.027-0.512,0.198-0.526,0.473c-0.014,0.275,0.196,0.511,0.473,0.525
				l42.631,2.283c0.016,0.002,0.029,0.01,0.045,0.01l0.461,0.025v5.735l-43.057-4.604c-0.25-0.033-0.521,0.168-0.551,0.443
				c-0.029,0.273,0.169,0.521,0.444,0.55l43.612,4.665c0.017,0.002,0.034,0.003,0.052,0.003h0.002h0.014l23.729-0.761
				c0.276-0.009,0.493-0.24,0.484-0.516c-0.011-0.275-0.255-0.477-0.515-0.484l-23.213,0.744v-5.723l0.32,0.017
				c0.01,0.001,0.018,0.001,0.025,0.001c0.01,0,0.019-0.005,0.027-0.005l6.115,0.327l0.073,0.004
				c0.009,0.001,0.019,0.001,0.026,0.001c0.08,0,0.15-0.022,0.217-0.054c0.008-0.004,0.016-0.002,0.023-0.006L80.76,39.03v9.866
				c0,0.276,0.225,0.5,0.502,0.5c0.275,0,0.5-0.224,0.5-0.5V36.773c0-0.005-0.004-0.01-0.004-0.016
				C81.758,36.751,81.76,36.745,81.76,36.739L81.76,36.739z M27.283,34.922l0.008,1.157l-1.219-0.921L27.283,34.922L27.283,34.922z
				 M16.392,37.042l1.59-0.31l-1.59,1.802V37.042L16.392,37.042z M15.391,44.416l-0.8-0.028V37.44l0.8-0.171V44.416L15.391,44.416z
				 M17.94,44.606l-0.852-0.046c-0.061-0.081-0.107-0.173-0.115-0.283c-0.026-0.306,0.206-0.574,0.512-0.597
				c0.308-0.024,0.575,0.205,0.601,0.512C18.098,44.351,18.039,44.497,17.94,44.606L17.94,44.606z M20.002,43.879
				c-0.022-0.309,0.207-0.575,0.516-0.6c0.307-0.023,0.575,0.207,0.596,0.514c0.022,0.307-0.207,0.575-0.513,0.6
				C20.296,44.416,20.025,44.185,20.002,43.879L20.002,43.879z M21.75,44.811l-1.096-0.059c0.014-0.278,0.221-0.512,0.505-0.535
				c0.306-0.022,0.575,0.206,0.601,0.515C21.762,44.76,21.752,44.784,21.75,44.811L21.75,44.811z M23.543,44.66
				c-0.31,0.025-0.579-0.205-0.603-0.512c-0.022-0.306,0.208-0.576,0.516-0.597c0.307-0.024,0.573,0.205,0.596,0.512
				C24.077,44.369,23.849,44.637,23.543,44.66L23.543,44.66z M25.103,44.989l-0.764-0.041c-0.081-0.089-0.141-0.198-0.151-0.328
				c-0.026-0.305,0.204-0.571,0.515-0.597c0.304-0.023,0.57,0.208,0.597,0.513C25.313,44.717,25.23,44.878,25.103,44.989
				L25.103,44.989z M26.212,45.022c-0.311,0.023-0.576-0.206-0.602-0.512c-0.021-0.308,0.207-0.575,0.517-0.6
				c0.306-0.023,0.574,0.207,0.596,0.515C26.75,44.731,26.518,44.998,26.212,45.022L26.212,45.022z M26.706,43.221
				c-0.309,0.023-0.574-0.207-0.598-0.512c-0.024-0.308,0.205-0.576,0.511-0.598c0.309-0.025,0.577,0.205,0.599,0.512
				C27.243,42.93,27.013,43.197,26.706,43.221L26.706,43.221z M25.519,41.696c0.167,0.086,0.289,0.244,0.301,0.443
				c0.025,0.306-0.205,0.573-0.513,0.597c-0.305,0.024-0.573-0.205-0.595-0.513c-0.013-0.14,0.036-0.269,0.114-0.373l-0.383,0.085
				c0.112,0.092,0.188,0.228,0.201,0.385c0.022,0.308-0.206,0.574-0.513,0.598c-0.309,0.023-0.575-0.207-0.597-0.514
				c-0.009-0.102,0.021-0.196,0.062-0.283l-0.743,0.164c0.018,0.048,0.037,0.095,0.043,0.149c0.022,0.306-0.206,0.574-0.515,0.597
				c-0.303,0.025-0.569-0.206-0.596-0.51l-0.447,0.098c-0.026,0.263-0.226,0.48-0.502,0.502c-0.219,0.016-0.414-0.099-0.518-0.277
				l-1.101,0.243c0.189,0.077,0.332,0.252,0.348,0.471c0.024,0.307-0.207,0.573-0.512,0.596c-0.308,0.025-0.578-0.205-0.602-0.511
				c-0.012-0.162,0.049-0.311,0.152-0.42l-2.211,0.487v-3.664l3.202-3.627l5.158-1.004l2.548,1.926l0.026,3.958L25.519,41.696
				L25.519,41.696z M28.351,45.146l-0.068-10.383l0.783-0.165l0.069,10.59L28.351,45.146L28.351,45.146z M30.064,34.381l1.459-0.284
				l-1.45,1.588L30.064,34.381L30.064,34.381z M30.502,44.742c-0.141,0.011-0.268-0.035-0.371-0.113l-0.006-0.875
				c0.084-0.066,0.18-0.115,0.293-0.124c0.306-0.024,0.573,0.206,0.595,0.513C31.037,44.452,30.81,44.719,30.502,44.742
				L30.502,44.742z M31.164,43.461c-0.31,0.025-0.575-0.203-0.601-0.511c-0.02-0.307,0.206-0.575,0.516-0.598
				c0.308-0.026,0.573,0.207,0.598,0.512C31.701,43.172,31.47,43.44,31.164,43.461L31.164,43.461z M32.555,45.236
				c-0.303,0.026-0.575-0.205-0.596-0.511c-0.024-0.309,0.204-0.577,0.509-0.599c0.31-0.024,0.577,0.204,0.598,0.513
				C33.091,44.947,32.863,45.214,32.555,45.236L32.555,45.236z M32.589,42.971c-0.296,0.023-0.546-0.191-0.587-0.476
				c-0.031,0.008-0.057,0.023-0.089,0.026c-0.307,0.024-0.577-0.208-0.6-0.513c-0.02-0.307,0.204-0.576,0.515-0.6
				c0.293-0.022,0.547,0.192,0.588,0.478c0.029-0.008,0.055-0.023,0.086-0.025c0.309-0.025,0.575,0.205,0.599,0.511
				C33.125,42.681,32.895,42.947,32.589,42.971L32.589,42.971z M33.834,43.617c-0.307,0.024-0.573-0.206-0.6-0.511
				c-0.021-0.308,0.209-0.577,0.513-0.599c0.224-0.018,0.427,0.102,0.53,0.288c0.092-0.113,0.229-0.191,0.389-0.204
				c0.305-0.025,0.573,0.206,0.599,0.513c0.02,0.306-0.21,0.574-0.518,0.597c-0.224,0.018-0.425-0.102-0.526-0.288
				C34.127,43.527,33.991,43.606,33.834,43.617L33.834,43.617z M35.395,41.705c0.025,0.305-0.206,0.574-0.511,0.598
				c-0.308,0.023-0.578-0.207-0.601-0.514c-0.012-0.159,0.046-0.306,0.145-0.414c-0.11-0.094-0.185-0.228-0.198-0.384
				c-0.02-0.305,0.209-0.573,0.517-0.598c0.308-0.022,0.576,0.208,0.597,0.515c0.012,0.158-0.045,0.304-0.145,0.413
				C35.31,41.414,35.385,41.549,35.395,41.705L35.395,41.705z M34.985,45.246c-0.3,0.023-0.569-0.204-0.591-0.512
				c-0.025-0.306,0.203-0.574,0.508-0.598c0.313-0.025,0.581,0.208,0.6,0.513C35.524,44.955,35.298,45.223,34.985,45.246
				L34.985,45.246z M36.953,42.152c-0.024-0.308,0.207-0.578,0.516-0.599c0.305-0.024,0.572,0.206,0.597,0.513
				c0.024,0.307-0.206,0.575-0.514,0.6c-0.119,0.008-0.225-0.029-0.32-0.085c0.018,0.047,0.037,0.093,0.041,0.145
				c0.025,0.304-0.208,0.574-0.51,0.598c-0.31,0.022-0.577-0.207-0.6-0.514c-0.028-0.307,0.204-0.574,0.51-0.597
				c0.12-0.01,0.227,0.027,0.322,0.084C36.978,42.25,36.959,42.204,36.953,42.152L36.953,42.152z M36.17,43.297
				c0.308-0.024,0.575,0.207,0.598,0.513c0.026,0.307-0.205,0.573-0.516,0.598c-0.303,0.024-0.571-0.206-0.593-0.514
				C35.632,43.589,35.863,43.322,36.17,43.297L36.17,43.297z M36.668,45.608l-0.846-0.045c-0.062-0.082-0.109-0.175-0.119-0.286
				c-0.021-0.306,0.206-0.575,0.513-0.598c0.307-0.023,0.574,0.208,0.598,0.515C36.827,45.352,36.769,45.499,36.668,45.608
				L36.668,45.608z M37.662,45.607c-0.311,0.026-0.576-0.205-0.598-0.51c-0.025-0.308,0.204-0.576,0.513-0.599
				c0.308-0.023,0.573,0.205,0.598,0.512C38.197,45.317,37.969,45.586,37.662,45.607L37.662,45.607z M38.035,41.31
				c-0.308,0.024-0.573-0.205-0.6-0.513c-0.023-0.307,0.207-0.573,0.516-0.598c0.306-0.023,0.573,0.205,0.598,0.513
				C38.57,41.019,38.342,41.288,38.035,41.31L38.035,41.31z M40.663,41.356c0.025,0.306-0.207,0.575-0.514,0.597
				c-0.305,0.024-0.576-0.205-0.6-0.512c-0.004-0.072,0.007-0.14,0.027-0.205c-0.271-0.02-0.499-0.226-0.518-0.504
				c-0.024-0.306,0.206-0.575,0.512-0.599c0.308-0.022,0.576,0.207,0.598,0.515c0.006,0.072-0.006,0.14-0.026,0.204
				C40.418,40.87,40.643,41.075,40.663,41.356L40.663,41.356z M38.969,40.357c-0.303,0.022-0.574-0.207-0.597-0.515
				c-0.023-0.306,0.207-0.573,0.513-0.597c0.308-0.022,0.575,0.207,0.596,0.513C39.506,40.065,39.276,40.332,38.969,40.357
				L38.969,40.357z M38.993,42.19c0.306-0.022,0.575,0.206,0.598,0.513c0.02,0.308-0.207,0.574-0.512,0.598
				c-0.307,0.024-0.575-0.205-0.597-0.514C38.457,42.481,38.685,42.215,38.993,42.19L38.993,42.19z M39.213,45.25
				c-0.308,0.023-0.576-0.208-0.598-0.514c-0.024-0.306,0.203-0.574,0.513-0.598c0.306-0.023,0.575,0.206,0.598,0.514
				C39.75,44.959,39.518,45.226,39.213,45.25L39.213,45.25z M40.258,44.898c-0.307,0.022-0.576-0.207-0.596-0.515
				c-0.025-0.305,0.202-0.573,0.511-0.596c0.308-0.023,0.574,0.206,0.596,0.512C40.796,44.607,40.565,44.875,40.258,44.898
				L40.258,44.898z M41.29,43.679c-0.304,0.023-0.573-0.204-0.598-0.513c-0.022-0.305,0.209-0.574,0.514-0.596
				c0.307-0.025,0.576,0.207,0.599,0.512C41.83,43.389,41.597,43.656,41.29,43.679L41.29,43.679z M41.566,41.104
				c-0.305,0.023-0.571-0.206-0.597-0.512c-0.022-0.308,0.208-0.574,0.516-0.599c0.309-0.023,0.573,0.206,0.597,0.514
				C42.104,40.813,41.877,41.08,41.566,41.104L41.566,41.104z M42.098,38.998L41.06,39.07c0,0.002,0.002,0.004,0.002,0.007
				c0.019,0.306-0.206,0.575-0.513,0.599c-0.308,0.023-0.578-0.207-0.6-0.514c0-0.005,0.002-0.01,0.002-0.014L36.9,39.359
				c0.145,0.091,0.252,0.239,0.266,0.422c0.022,0.306-0.207,0.575-0.512,0.598c-0.31,0.021-0.581-0.207-0.605-0.512
				c-0.012-0.186,0.074-0.35,0.207-0.463l-0.5,0.036l-1.627,0.359c0.056,0.08,0.101,0.17,0.111,0.275
				c0.02,0.309-0.209,0.575-0.514,0.598c-0.308,0.025-0.574-0.203-0.598-0.512c-0.005-0.051,0.008-0.097,0.016-0.144l-0.547,0.12
				c0.188,0.078,0.328,0.25,0.346,0.466c0.022,0.306-0.207,0.576-0.515,0.597c-0.303,0.026-0.575-0.207-0.6-0.512
				c-0.011-0.158,0.047-0.304,0.146-0.414l-0.632,0.14c0.037,0.068,0.062,0.142,0.069,0.224c0.024,0.306-0.208,0.574-0.514,0.599
				c-0.061,0.004-0.118-0.007-0.175-0.022c-0.087,0.082-0.197,0.142-0.329,0.151c-0.103,0.008-0.198-0.021-0.284-0.062l-0.005-0.99
				l-0.022-3.158l3.088-3.379l6.055-1.178l2.873,2.44V38.998L42.098,38.998z M42.098,33.727l-1.618-1.373l1.618-0.316V33.727
				L42.098,33.727z M43.88,45.969l-0.783-0.041V31.867l0.783-0.165V45.969L43.88,45.969z M55.494,42.628
				c-0.078,0.056-0.168,0.098-0.271,0.106c-0.307,0.022-0.576-0.209-0.601-0.514c-0.022-0.307,0.212-0.576,0.515-0.599
				c0.133-0.01,0.256,0.034,0.356,0.105L55.494,42.628L55.494,42.628z M54.468,40.551c0.306-0.022,0.577,0.207,0.601,0.514
				c0.024,0.305-0.209,0.574-0.516,0.597c-0.309,0.023-0.574-0.207-0.598-0.514C53.934,40.844,54.159,40.575,54.468,40.551
				L54.468,40.551z M53.723,39.936c-0.021-0.309,0.209-0.577,0.514-0.598c0.307-0.025,0.574,0.205,0.6,0.512
				c0.021,0.305-0.208,0.574-0.514,0.597C54.016,40.471,53.745,40.24,53.723,39.936L53.723,39.936z M55.484,29.433l0.002,1.818
				l-1.471-1.532L55.484,29.433L55.484,29.433z M44.88,31.497l2.153-0.419l-2.153,2.203V31.497L44.88,31.497z M44.88,34.712
				l3.88-3.971l4.088-0.795l2.639,2.75l0.004,5.369l-2.611,0.183c-0.068,0.206-0.254,0.363-0.484,0.38
				c-0.234,0.019-0.443-0.11-0.543-0.309L47.6,38.615c0.007,0.029,0.021,0.056,0.025,0.087c0.018,0.306-0.207,0.575-0.513,0.599
				c-0.309,0.023-0.578-0.207-0.6-0.514c-0.002-0.034,0.007-0.064,0.011-0.097l-1.643,0.115V34.712L44.88,34.712z M49.643,40.81
				c0.307-0.022,0.578,0.208,0.6,0.515c0.022,0.306-0.209,0.574-0.515,0.599c-0.308,0.021-0.576-0.207-0.597-0.516
				C49.105,41.102,49.336,40.834,49.643,40.81L49.643,40.81z M48.877,39.131c-0.028-0.307,0.204-0.575,0.511-0.598
				c0.308-0.025,0.575,0.207,0.6,0.512c0.022,0.307-0.205,0.576-0.512,0.598C49.168,39.668,48.898,39.438,48.877,39.131
				L48.877,39.131z M48.576,41.269c0.024,0.305-0.209,0.573-0.51,0.596c-0.309,0.025-0.577-0.205-0.601-0.511
				c-0.025-0.309,0.205-0.577,0.514-0.598C48.285,40.731,48.552,40.961,48.576,41.269L48.576,41.269z M46.725,41.827
				c0.306-0.024,0.576,0.206,0.6,0.513c0.022,0.306-0.21,0.574-0.517,0.598c-0.308,0.023-0.574-0.206-0.598-0.512
				C46.185,42.117,46.418,41.85,46.725,41.827L46.725,41.827z M46.091,41.342c-0.308,0.024-0.577-0.205-0.598-0.513
				c-0.022-0.306,0.205-0.573,0.511-0.597c0.309-0.023,0.575,0.206,0.6,0.513C46.628,41.052,46.398,41.318,46.091,41.342
				L46.091,41.342z M44.88,39.198c0.092-0.107,0.225-0.179,0.379-0.19c0.307-0.024,0.577,0.205,0.597,0.513
				c0.025,0.306-0.206,0.575-0.513,0.6c-0.189,0.013-0.353-0.074-0.463-0.208V39.198L44.88,39.198z M44.88,42.158
				c0.089-0.085,0.204-0.146,0.337-0.156c0.309-0.023,0.576,0.205,0.597,0.512c0.025,0.307-0.204,0.574-0.514,0.597
				c-0.161,0.014-0.31-0.048-0.42-0.152V42.158L44.88,42.158z M45.401,45.159c-0.221,0.018-0.417-0.099-0.521-0.276v-0.547
				c0.089-0.156,0.241-0.273,0.436-0.287c0.306-0.024,0.575,0.205,0.597,0.514C45.936,44.868,45.709,45.135,45.401,45.159
				L45.401,45.159z M46.393,44.234c-0.059,0.028-0.124,0.049-0.194,0.055c-0.308,0.024-0.577-0.207-0.599-0.515
				c-0.022-0.305,0.209-0.575,0.514-0.598c0.3-0.022,0.561,0.2,0.593,0.497c0.058-0.029,0.123-0.05,0.191-0.056
				c0.308-0.022,0.579,0.209,0.602,0.516c0.02,0.304-0.209,0.572-0.514,0.598C46.686,44.753,46.424,44.531,46.393,44.234
				L46.393,44.234z M48.855,46.261l-0.833-0.044c-0.02-0.025-0.042-0.044-0.057-0.07c-0.022,0.025-0.052,0.042-0.078,0.062
				l-0.723-0.039c-0.094-0.091-0.16-0.21-0.169-0.35c-0.026-0.307,0.206-0.575,0.512-0.597c0.225-0.018,0.428,0.103,0.53,0.289
				c0.093-0.104,0.223-0.175,0.372-0.187c0.308-0.022,0.576,0.206,0.599,0.515C49.02,46.003,48.959,46.151,48.855,46.261
				L48.855,46.261z M48.73,44.036c-0.307,0.023-0.573-0.208-0.598-0.513c-0.024-0.306,0.207-0.576,0.515-0.599
				c0.304-0.024,0.574,0.207,0.599,0.514C49.268,43.744,49.035,44.014,48.73,44.036L48.73,44.036z M49.887,45.664
				c-0.306,0.024-0.574-0.205-0.594-0.512c-0.027-0.306,0.203-0.576,0.507-0.599c0.31-0.024,0.577,0.207,0.601,0.513
				C50.423,45.374,50.193,45.641,49.887,45.664L49.887,45.664z M50.258,43.039c-0.308,0.026-0.577-0.205-0.599-0.512
				c-0.024-0.307,0.207-0.576,0.513-0.598c0.309-0.025,0.578,0.207,0.6,0.512C50.795,42.749,50.566,43.016,50.258,43.039
				L50.258,43.039z M50.798,40.23c-0.022-0.308,0.204-0.576,0.511-0.599c0.307-0.024,0.576,0.206,0.601,0.513
				c0.022,0.305-0.208,0.574-0.513,0.598C51.086,40.766,50.82,40.535,50.798,40.23L50.798,40.23z M51.527,41.141
				c0.242-0.019,0.455,0.122,0.55,0.33c0.093-0.117,0.229-0.198,0.392-0.211c0.303-0.024,0.574,0.207,0.596,0.513
				c0.024,0.307-0.205,0.576-0.513,0.598c-0.241,0.017-0.452-0.122-0.546-0.33c-0.094,0.117-0.23,0.198-0.393,0.211
				c-0.305,0.021-0.57-0.207-0.596-0.512C50.996,41.434,51.221,41.164,51.527,41.141L51.527,41.141z M51.059,43.227
				c-0.024-0.307,0.205-0.575,0.514-0.598c0.306-0.023,0.576,0.208,0.601,0.514c0.021,0.306-0.21,0.575-0.516,0.597
				C51.35,43.764,51.084,43.535,51.059,43.227L51.059,43.227z M52.559,46.027c-0.305,0.023-0.574-0.207-0.598-0.513
				c-0.021-0.307,0.205-0.576,0.51-0.6c0.307-0.021,0.578,0.207,0.6,0.516C53.098,45.736,52.866,46.004,52.559,46.027L52.559,46.027
				z M52.575,40.537c-0.31,0.026-0.575-0.205-0.599-0.512s0.209-0.574,0.512-0.597c0.308-0.026,0.574,0.205,0.601,0.512
				C53.111,40.248,52.883,40.516,52.575,40.537L52.575,40.537z M53.049,38.802c-0.023-0.306,0.208-0.573,0.512-0.597
				c0.307-0.023,0.58,0.207,0.601,0.512c0.022,0.306-0.208,0.574-0.513,0.598C53.342,39.34,53.072,39.111,53.049,38.802
				L53.049,38.802z M53.327,43.965c-0.015-0.179,0.065-0.337,0.187-0.449c-0.072-0.086-0.127-0.19-0.136-0.311
				c-0.026-0.307,0.204-0.573,0.513-0.599c0.308-0.022,0.574,0.207,0.6,0.515c0.014,0.178-0.064,0.336-0.188,0.448
				c0.074,0.086,0.129,0.189,0.137,0.311c0.023,0.305-0.207,0.573-0.515,0.597C53.619,44.5,53.35,44.272,53.327,43.965
				L53.327,43.965z M54.562,46.566l-0.742-0.04c-0.088-0.089-0.152-0.206-0.163-0.341c-0.024-0.306,0.206-0.576,0.511-0.598
				c0.305-0.025,0.579,0.206,0.602,0.513C54.785,46.288,54.697,46.455,54.562,46.566L54.562,46.566z M55.154,45.316
				c-0.305,0.024-0.574-0.207-0.598-0.513c-0.025-0.309,0.209-0.574,0.512-0.598c0.166-0.013,0.316,0.051,0.427,0.156l0.001,0.793
				C55.404,45.242,55.29,45.306,55.154,45.316L55.154,45.316z M56.497,46.678l-0.013-17.413l0.406-0.098l0.377,0.095l0.012,17.457
				L56.497,46.678L56.497,46.678z M58.268,29.589l20.453,6.86l-1.199,0.083c0.059,0.081,0.104,0.172,0.111,0.278
				c0.025,0.31-0.207,0.575-0.511,0.599c-0.308,0.023-0.575-0.206-0.601-0.513c-0.008-0.109,0.025-0.208,0.074-0.299l-4.443,0.309
				c-0.018,0.273-0.223,0.5-0.506,0.521c-0.281,0.021-0.521-0.177-0.576-0.447l-2.904,0.203c0.084,0.089,0.145,0.201,0.154,0.332
				c0.016,0.181-0.066,0.342-0.193,0.454c0.016-0.002,0.025-0.01,0.041-0.011c0.307-0.024,0.576,0.205,0.598,0.512
				c0.024,0.306-0.207,0.574-0.514,0.597c-0.307,0.025-0.575-0.205-0.598-0.512c-0.014-0.181,0.066-0.34,0.191-0.451
				c-0.015,0.001-0.025,0.009-0.039,0.01c-0.303,0.022-0.572-0.205-0.597-0.513c-0.011-0.135,0.034-0.257,0.106-0.36l-0.494,0.035
				c-0.04,0.249-0.238,0.453-0.499,0.473c-0.267,0.019-0.493-0.153-0.567-0.398l-1.891,0.13c0.025,0.058,0.047,0.12,0.053,0.186
				c0.023,0.305-0.207,0.572-0.514,0.596c-0.309,0.023-0.576-0.205-0.6-0.512c-0.005-0.068,0.006-0.135,0.024-0.197l-4.556,0.317
				L58.268,29.589L58.268,29.589z M73.178,37.429c-0.023-0.308,0.206-0.575,0.516-0.597c0.309-0.024,0.574,0.205,0.6,0.512
				c0.021,0.305-0.209,0.574-0.514,0.597C73.469,37.965,73.203,37.736,73.178,37.429L73.178,37.429z M73.328,38.929
				c0.025,0.305-0.205,0.575-0.514,0.598c-0.306,0.025-0.573-0.207-0.597-0.512c-0.024-0.308,0.206-0.577,0.513-0.599
				C73.035,38.391,73.305,38.623,73.328,38.929L73.328,38.929z M64.186,41.661c-0.211,0.017-0.396-0.093-0.502-0.26
				c-0.273-0.016-0.502-0.223-0.521-0.503c-0.022-0.305,0.204-0.574,0.514-0.596c0.21-0.017,0.396,0.091,0.503,0.257
				c0.271,0.019,0.5,0.224,0.521,0.504C64.725,41.369,64.494,41.637,64.186,41.661L64.186,41.661z M64.393,42.392
				c0.023,0.309-0.207,0.576-0.514,0.6c-0.307,0.024-0.572-0.207-0.597-0.513c-0.024-0.308,0.204-0.575,0.511-0.598
				C64.102,41.856,64.369,42.087,64.393,42.392L64.393,42.392z M62.462,40.575c0.024,0.306-0.208,0.573-0.511,0.597
				c-0.309,0.023-0.576-0.205-0.6-0.513c-0.012-0.161,0.047-0.307,0.148-0.417c-0.055-0.079-0.098-0.167-0.105-0.269
				c-0.025-0.305,0.205-0.575,0.515-0.598c0.305-0.023,0.573,0.207,0.597,0.514c0.012,0.161-0.047,0.307-0.148,0.417
				C62.413,40.385,62.455,40.473,62.462,40.575L62.462,40.575z M59.031,42.188c-0.311,0.023-0.575-0.207-0.598-0.513
				c-0.025-0.308,0.203-0.575,0.514-0.599c0.31-0.021,0.574,0.206,0.599,0.512C59.568,41.897,59.336,42.163,59.031,42.188
				L59.031,42.188z M59.475,43.15c0.022,0.306-0.205,0.577-0.512,0.6c-0.311,0.023-0.576-0.207-0.602-0.516
				c-0.021-0.304,0.207-0.574,0.517-0.597C59.184,42.615,59.45,42.846,59.475,43.15L59.475,43.15z M59.25,38.809
				c-0.025-0.309,0.207-0.577,0.514-0.6c0.305-0.024,0.576,0.207,0.598,0.514c0.022,0.306-0.209,0.574-0.514,0.597
				C59.54,39.344,59.27,39.115,59.25,38.809L59.25,38.809z M60.089,40.06c0.31-0.022,0.579,0.208,0.601,0.515
				c0.022,0.306-0.205,0.573-0.513,0.599c-0.311,0.022-0.575-0.207-0.598-0.515C59.553,40.355,59.783,40.086,60.089,40.06
				L60.089,40.06z M60.406,38.881c-0.021-0.309,0.207-0.577,0.516-0.6c0.307-0.023,0.572,0.207,0.598,0.514
				c0.023,0.307-0.207,0.574-0.513,0.598C60.695,39.416,60.432,39.188,60.406,38.881L60.406,38.881z M60.869,42.175
				c0.049-0.004,0.094,0.009,0.141,0.016c0.074-0.191,0.252-0.336,0.473-0.355c0.308-0.023,0.578,0.207,0.598,0.514
				c0.023,0.306-0.203,0.573-0.512,0.597c-0.049,0.004-0.096-0.009-0.144-0.017c-0.075,0.193-0.253,0.339-0.474,0.355
				c-0.307,0.026-0.574-0.206-0.598-0.512C60.329,42.467,60.561,42.198,60.869,42.175L60.869,42.175z M62.339,39.039
				c-0.024-0.305,0.207-0.572,0.515-0.598c0.308-0.023,0.574,0.208,0.597,0.514c0.022,0.308-0.205,0.576-0.513,0.599
				C62.63,39.576,62.363,39.348,62.339,39.039L62.339,39.039z M58.275,39.706c0.078-0.056,0.168-0.099,0.272-0.106
				c0.304-0.026,0.574,0.205,0.597,0.511c0.025,0.307-0.209,0.575-0.515,0.598c-0.132,0.01-0.253-0.034-0.354-0.104V39.706
				L58.275,39.706z M58.904,46.242c-0.307,0.023-0.573-0.209-0.6-0.515c-0.022-0.305,0.204-0.573,0.516-0.598
				c0.303-0.022,0.572,0.207,0.598,0.515C59.439,45.95,59.209,46.219,58.904,46.242L58.904,46.242z M60.635,46.144
				c-0.304,0.025-0.572-0.204-0.598-0.511c-0.004-0.045,0.01-0.086,0.016-0.129c-0.07,0.042-0.15,0.073-0.238,0.08
				c-0.307,0.023-0.571-0.207-0.598-0.514c-0.027-0.308,0.206-0.576,0.514-0.597c0.307-0.024,0.572,0.205,0.599,0.513
				c0.003,0.045-0.009,0.086-0.017,0.129c0.072-0.043,0.15-0.074,0.239-0.081c0.304-0.024,0.575,0.206,0.599,0.514
				C61.17,45.854,60.941,46.121,60.635,46.144L60.635,46.144z M62.109,44.914c-0.293,0.023-0.547-0.189-0.59-0.477
				c-0.09,0.146-0.238,0.254-0.424,0.268c-0.309,0.025-0.574-0.205-0.6-0.512c-0.021-0.306,0.209-0.576,0.516-0.597
				c0.295-0.024,0.549,0.19,0.59,0.477c0.092-0.146,0.24-0.255,0.426-0.269c0.304-0.025,0.572,0.206,0.595,0.512
				C62.643,44.623,62.416,44.893,62.109,44.914L62.109,44.914z M63.482,47.021c-0.306,0.023-0.574-0.207-0.6-0.514
				c-0.023-0.309,0.207-0.574,0.516-0.597c0.305-0.024,0.574,0.204,0.6,0.511C64.018,46.73,63.79,46.998,63.482,47.021
				L63.482,47.021z M63.699,44.966c-0.307,0.024-0.574-0.206-0.598-0.514c-0.023-0.304,0.209-0.573,0.514-0.596
				c0.308-0.024,0.576,0.206,0.599,0.513C64.234,44.676,64.004,44.943,63.699,44.966L63.699,44.966z M64.782,45.277
				c-0.312,0.025-0.577-0.207-0.601-0.513c-0.022-0.307,0.205-0.574,0.51-0.599c0.311-0.022,0.58,0.206,0.603,0.515
				C65.314,44.986,65.086,45.254,64.782,45.277L64.782,45.277z M64.727,38.85c-0.025-0.306,0.205-0.575,0.516-0.598
				c0.306-0.023,0.572,0.206,0.594,0.512c0.029,0.308-0.205,0.576-0.509,0.599C65.018,39.387,64.75,39.156,64.727,38.85
				L64.727,38.85z M66.198,42.969c-0.308,0.023-0.577-0.206-0.601-0.514c-0.024-0.307,0.207-0.572,0.514-0.597
				c0.307-0.024,0.576,0.206,0.599,0.513C66.732,42.678,66.504,42.947,66.198,42.969L66.198,42.969z M66.727,40.906
				c-0.074,0.045-0.154,0.078-0.246,0.085c-0.305,0.025-0.573-0.204-0.6-0.512c-0.021-0.307,0.21-0.575,0.518-0.598
				c0.016-0.001,0.031,0.006,0.047,0.006c0.074-0.045,0.154-0.078,0.244-0.086c0.309-0.022,0.576,0.207,0.598,0.514
				c0.025,0.306-0.208,0.573-0.512,0.597C66.758,40.913,66.743,40.906,66.727,40.906L66.727,40.906z M67.377,44.565
				c-0.307,0.025-0.574-0.206-0.598-0.512c-0.027-0.307,0.203-0.574,0.512-0.598c0.309-0.023,0.576,0.206,0.6,0.514
				C67.916,44.273,67.686,44.542,67.377,44.565L67.377,44.565z M67.854,43.099c-0.306,0.022-0.574-0.206-0.595-0.515
				c-0.026-0.307,0.205-0.572,0.511-0.596c0.308-0.025,0.576,0.205,0.6,0.512S68.163,43.076,67.854,43.099L67.854,43.099z
				 M68.807,41.352c-0.002-0.032,0.008-0.059,0.012-0.089c-0.145-0.092-0.25-0.24-0.266-0.421c-0.023-0.308,0.204-0.574,0.514-0.6
				c0.309-0.023,0.578,0.206,0.602,0.514c0,0.031-0.01,0.059-0.014,0.09c0.145,0.091,0.25,0.238,0.264,0.421
				c0.023,0.305-0.206,0.574-0.516,0.598C69.098,41.887,68.834,41.658,68.807,41.352L68.807,41.352z M69.734,43.718
				c-0.308,0.022-0.574-0.206-0.6-0.515c-0.023-0.305,0.204-0.574,0.514-0.598c0.308-0.023,0.574,0.208,0.597,0.514
				C70.27,43.426,70.041,43.693,69.734,43.718L69.734,43.718z M70.57,39.047c-0.307,0.023-0.576-0.207-0.6-0.514
				c-0.023-0.307,0.207-0.574,0.516-0.595c0.304-0.026,0.576,0.203,0.598,0.509C71.105,38.756,70.878,39.023,70.57,39.047
				L70.57,39.047z M71.747,40.643c-0.304,0.023-0.572-0.205-0.597-0.512c-0.022-0.308,0.207-0.574,0.511-0.599
				c0.313-0.023,0.577,0.206,0.603,0.513C72.287,40.352,72.059,40.619,71.747,40.643L71.747,40.643z M73.391,41.903l-0.76,0.414
				c-0.184-0.08-0.322-0.248-0.338-0.459c-0.023-0.307,0.207-0.576,0.516-0.598c0.305-0.024,0.572,0.207,0.599,0.513
				C73.41,41.818,73.398,41.86,73.391,41.903L73.391,41.903z M74.107,39.795c-0.308,0.023-0.576-0.207-0.601-0.514
				c-0.024-0.306,0.207-0.574,0.515-0.599c0.306-0.023,0.574,0.209,0.597,0.514C74.643,39.504,74.413,39.772,74.107,39.795
				L74.107,39.795z M74.906,41.078c-0.002-0.008-0.006-0.015-0.008-0.023c-0.021-0.306,0.207-0.574,0.515-0.6
				c0.149-0.011,0.29,0.041,0.397,0.131L74.906,41.078L74.906,41.078z M76.63,38.596c-0.218,0.015-0.413-0.098-0.519-0.274
				c-0.077,0.188-0.25,0.328-0.467,0.346c-0.309,0.022-0.576-0.207-0.599-0.513c-0.022-0.306,0.206-0.575,0.515-0.598
				c0.219-0.017,0.41,0.097,0.516,0.272c0.078-0.187,0.252-0.328,0.468-0.345c0.308-0.023,0.571,0.206,0.599,0.513
				C77.164,38.305,76.934,38.57,76.63,38.596L76.63,38.596z M77.221,39.818c-0.068-0.085-0.119-0.182-0.128-0.299
				c-0.024-0.306,0.207-0.574,0.513-0.597c0.262-0.02,0.48,0.145,0.561,0.381L77.221,39.818L77.221,39.818z M78.83,38.941
				c-0.088-0.089-0.152-0.206-0.162-0.342c-0.023-0.306,0.207-0.574,0.514-0.597c0.277-0.021,0.516,0.172,0.575,0.436L78.83,38.941
				L78.83,38.941z"/>
			<path id="Fill-4" sketch:type="MSShapeGroup" fill="#FFFDF7" d="M82.044,31.915L70.691,21.281
				c-0.043-0.041-0.094-0.073-0.148-0.096l-8.4-3.493c-0.01-0.002-0.018-0.002-0.025-0.004c-0.024-0.008-0.045-0.008-0.068-0.013
				c-0.059-0.012-0.115-0.015-0.172-0.006c-0.016,0.003-0.027-0.005-0.041-0.001l-4.175,0.983v3.279
				c0,0.706-0.452,1.094-1.013,1.094c-0.558,0-1.012-0.388-1.012-1.094v-2.802l-3.885,0.916l0.002-2.477l0.131,0.037
				c0.045,0.011,0.09,0.017,0.133,0.017c0.191,0,0.369-0.109,0.453-0.29c0.104-0.222,0.031-0.485-0.171-0.623l-7.288-4.976
				c-0.016-0.01-0.035-0.007-0.051-0.015c-0.018-0.011-0.029-0.029-0.05-0.037c-0.033-0.014-0.068-0.006-0.103-0.012
				c-0.037-0.006-0.069-0.015-0.107-0.013c-0.059,0.004-0.11,0.022-0.166,0.047c-0.023,0.01-0.051,0.006-0.073,0.021
				c-0.007,0.004-0.011,0.013-0.017,0.019c-0.007,0.006-0.019,0.005-0.027,0.012l-7.227,5.748c-0.189,0.151-0.244,0.418-0.126,0.632
				c0.089,0.164,0.259,0.26,0.437,0.26c0.055,0,0.109-0.009,0.164-0.028l0.645-0.22v1.735l-1.35-0.317
				c-0.022-0.006-0.043,0.005-0.065,0.002c-0.027-0.001-0.048-0.019-0.076-0.015c-0.025,0.001-0.043,0.018-0.068,0.023
				c-0.046,0.01-0.086,0.023-0.129,0.045c-0.043,0.023-0.078,0.049-0.114,0.083c-0.019,0.018-0.044,0.024-0.06,0.044
				c-0.014,0.018-0.012,0.041-0.023,0.06c-0.012,0.02-0.034,0.032-0.042,0.053l-1.734,4.214l-13.396,3.158v2.375
				c0,0.706-0.451,1.094-1.011,1.094c-0.557,0-1.013-0.388-1.013-1.094v-1.899l-1.16,0.274c-0.115,0.026-0.217,0.093-0.287,0.188
				l-3.988,5.379c-0.125,0.166-0.132,0.392-0.021,0.566c0.093,0.146,0.253,0.232,0.422,0.232c0.033,0,0.067-0.003,0.1-0.01
				l45.325-9.237l21.916,7.653c0.055,0.019,0.109,0.028,0.164,0.028c0.172,0,0.336-0.088,0.429-0.241
				C82.252,32.337,82.217,32.077,82.044,31.915L82.044,31.915z M33.562,29.354l3.347-8.14l0.082,0.15l3.569,6.584L33.562,29.354
				L33.562,29.354z M44.721,23.091l-2.094-2.118c-0.067-0.068-0.152-0.115-0.244-0.136l-3.072-0.709v-2.313l5.41-1.859V23.091
				L44.721,23.091z M50.752,20.284l-2.434,0.569c-0.084,0.02-0.161,0.061-0.224,0.12l-2.374,2.191v-7.248l5.034,1.418L50.752,20.284
				L50.752,20.284z"/>
			<path id="Fill-5" sketch:type="MSShapeGroup" fill="#FFFDF7" d="M56.631,22.662c0.352,0,0.639-0.286,0.639-0.639l-0.184-11.705
				c0-0.352-0.104-0.638-0.455-0.638c-0.355,0-0.456,0.286-0.456,0.638l-0.184,11.705C55.991,22.376,56.275,22.662,56.631,22.662"/>
			<path id="Fill-6" sketch:type="MSShapeGroup" fill="#FFFDF7" d="M57.732,14.306c0.012-0.007,1.268-0.781,2.343-0.769
				c0.233,0.003,0.442,0.043,0.616,0.119c0.315,0.132,0.33,0.311,0.352,0.557c0.018,0.246,0.049,0.617,0.561,0.732
				c0.037,0.008,0.073,0.013,0.111,0.013c0.276,0.003,0.559-0.194,0.885-0.419c0.416-0.287,0.887-0.615,1.428-0.608
				c0.246,0.004,0.481,0.073,0.729,0.217c0.308,0.178,0.442,0.202,0.517,0.203c0.086,0,0.145-0.031,0.176-0.056
				c0.055-0.047,0.094-0.117,0.094-0.193c0.005-0.412-1.229-1.393-2.359-1.405c-0.371-0.004-0.719,0.086-1.025,0.271
				c-0.149,0.088-0.238,0.105-0.287,0.105c-0.186-0.002-0.275-0.433-0.374-0.89c-0.192-0.905-0.479-2.271-2.047-2.288
				c-0.509-0.007-1.108,0.128-1.825,0.411c-0.059,0.022-0.1,0.071-0.118,0.131c-0.016,0.058-0.007,0.123,0.028,0.173
				c0.004,0.007,0.467,0.645,0.369,1.576c-0.098,0.973-0.461,1.866-0.461,1.874c-0.035,0.082-0.012,0.173,0.057,0.228
				C57.566,14.346,57.659,14.352,57.732,14.306"/>
			<path id="Fill-7" sketch:type="MSShapeGroup" fill="#FFFDF7" d="M20.243,30.396c0.354,0,0.641-0.285,0.641-0.638l-0.185-10.479
				c0-0.353-0.102-0.638-0.456-0.638c-0.353,0-0.456,0.285-0.456,0.638l-0.183,10.479C19.604,30.111,19.89,30.396,20.243,30.396"/>
			<path id="Fill-8" sketch:type="MSShapeGroup" fill="#FFFDF7" d="M21.127,23.315c0.062,0.04,0.141,0.029,0.191-0.028
				c0.011-0.008,1.504-0.957,2.381-1.144c0.193-0.039,0.367-0.039,0.522-0.002c0.272,0.066,0.309,0.226,0.356,0.451
				c0.045,0.223,0.116,0.562,0.551,0.576c0.029,0,0.062-0.002,0.091-0.01c0.228-0.047,0.431-0.282,0.674-0.552
				c0.301-0.342,0.642-0.731,1.086-0.825c0.202-0.042,0.408-0.021,0.624,0.067c0.277,0.108,0.388,0.104,0.447,0.092
				c0.069-0.016,0.113-0.054,0.138-0.085c0.042-0.052,0.06-0.126,0.051-0.195c-0.048-0.381-1.178-1.064-2.104-0.869
				c-0.303,0.066-0.575,0.214-0.804,0.442c-0.112,0.109-0.182,0.14-0.222,0.15c-0.15,0.033-0.28-0.351-0.416-0.755
				c-0.268-0.805-0.679-2.017-1.96-1.744c-0.42,0.087-0.89,0.325-1.442,0.718c-0.041,0.03-0.073,0.084-0.078,0.142
				c-0.007,0.059,0.008,0.113,0.048,0.154c0.002,0.006,0.078,0.515,0.12,1.393c0.041,0.922-0.328,1.815-0.328,1.824
				C21.037,23.195,21.063,23.277,21.127,23.315"/>
		</g>
	</g>
</g>
</svg>
