<?xml version="1.0" encoding="utf-8"?>
<!-- Generator: Adobe Illustrator 16.0.0, SVG Export Plug-In . SVG Version: 6.00 Build 0)  -->
<!DOCTYPE svg PUBLIC "-//W3C//DTD SVG 1.1//EN" "http://www.w3.org/Graphics/SVG/1.1/DTD/svg11.dtd">
<svg version="1.1" xmlns="http://www.w3.org/2000/svg" xmlns:xlink="http://www.w3.org/1999/xlink" x="0px" y="0px"
	 width="143.348px" height="154.021px" viewBox="0 0 143.348 154.021" enable-background="new 0 0 143.348 154.021"
	 xml:space="preserve">
<g id="Layer_1">
</g>
<g id="Layer_2">
	<g>
		<path fill="none" d="M98.68,24.834c24.081,9.811,41.167,34.008,41.167,62.253c0,6.754-0.985,13.272-2.801,19.424
			c2.771-7.733,4.301-16.108,4.301-24.857c0-30.008-18.035-55.658-43.291-65.593C98.854,18.92,99.056,21.905,98.68,24.834z"/>
		<path fill="none" d="M137.848,87.087c0-27.253-16.381-50.621-39.521-60.237c-0.716,3.197-2.136,6.266-4.289,8.941
			c23.979,8.044,41.31,30.711,41.31,57.362c0,9.626-2.243,18.731-6.216,26.831C134.661,110.329,137.848,99.087,137.848,87.087z"/>
		<path fill="#EF483E" d="M84.864,153.224c33.039-5.137,58.483-35.27,58.483-71.57c0-31.465-19.31-58.262-46.121-68.034
			c-1.072-2.61-2.662-5.057-4.779-7.174c-4.157-4.157-9.684-6.446-15.563-6.446S65.477,2.289,61.32,6.446
			c-4.157,4.157-6.447,9.685-6.447,15.563s2.29,11.406,6.447,15.562c4.157,4.158,9.685,6.447,15.564,6.447
			c5.879,0,11.406-2.289,15.563-6.446c0.052-0.052,0.094-0.108,0.146-0.161c23.607,7.533,40.755,29.669,40.755,55.741
			c0,31.409-24.586,57.149-55.414,58.769c-1.023,0.05-2.051,0.083-3.086,0.083c-0.024,0-0.045,0.013-0.068,0.014
			c-26.787-0.029-49.698-17.384-58.767-41.751c1.754-0.26,4.012-1.775,5.927-4.03c2.546-2.996,4.111-6.892,2.175-8.54
			c-0.429-0.364-0.992-0.558-1.627-0.558c-1.809,0-4.339,1.605-6.447,4.089c-0.802,0.946-1.461,1.941-1.971,2.917
			c-0.391-1.478-0.737-2.974-1.026-4.49c0.034,0.001,0.059,0.01,0.094,0.01c1.776,0,4.25-1.236,6.455-3.226
			c2.92-2.634,4.987-6.288,3.287-8.178c-0.329-0.364-0.944-0.798-2.012-0.798c-1.777,0-4.252,1.237-6.459,3.229
			c-0.887,0.802-1.647,1.667-2.271,2.533c-0.133-1.455-0.209-2.927-0.247-4.408c0.26,0.059,0.555,0.094,0.892,0.094
			c1.738,0,4.081-0.922,6.268-2.468c3.211-2.271,5.696-5.654,4.231-7.73c-0.342-0.484-1.041-1.061-2.428-1.061
			c-1.739,0-4.083,0.923-6.271,2.471c-0.981,0.695-1.843,1.469-2.567,2.26c0.111-1.612,0.281-3.211,0.505-4.795
			c0.417,0.109,0.917,0.178,1.521,0.178c1.576,0,3.479-0.453,5.358-1.276c3.601-1.577,6.715-4.392,5.699-6.72
			c-0.27-0.615-1.075-1.646-3.445-1.646c-1.576,0-3.479,0.454-5.358,1.277c-0.88,0.386-1.703,0.834-2.443,1.318
			c0.305-1.221,0.648-2.43,1.021-3.626c0.787,0.318,1.787,0.496,2.986,0.496c1.188,0,2.504-0.173,3.806-0.5
			c3.814-0.956,7.354-3.212,6.738-5.677c-0.371-1.479-2.125-2.327-4.813-2.327c-1.188,0-2.504,0.172-3.806,0.499
			c-0.853,0.214-1.661,0.493-2.414,0.81c0.549-1.26,1.138-2.5,1.765-3.72c0.825,0.777,2.273,1.213,4.215,1.213
			c1.15,0,2.42-0.158,3.672-0.458c3.825-0.915,7.389-3.134,6.8-5.603c-0.361-1.513-2.157-2.381-4.925-2.381
			c-1.15,0-2.42,0.158-3.672,0.458c-0.958,0.229-1.849,0.532-2.663,0.88c0.691-1.056,1.415-2.089,2.167-3.103
			c0.365,0.193,0.789,0.301,1.261,0.301c0,0,0,0,0,0c1.816,0,4.296-1.465,6.472-3.822c0.945-1.024,1.724-2.12,2.294-3.187
			c1.708-1.379,4.426-3.188,5.753-4.069c0.46-0.306,0.585-0.927,0.279-1.387c-0.305-0.46-0.925-0.585-1.386-0.279
			c-1.249,0.831-2.509,1.681-3.654,2.493c0.002-0.566-0.111-1.006-0.276-1.341c1.937-1.593,3.974-3.087,6.116-4.462
			c0.465-0.299,0.6-0.917,0.301-1.382c-0.298-0.466-0.917-0.6-1.381-0.302c-2.346,1.506-4.575,3.147-6.684,4.908
			c-0.185-0.037-0.377-0.061-0.579-0.061c-0.208,0-0.426,0.024-0.65,0.062c1.04-1.109,2.112-2.185,3.222-3.209
			c0.406-0.375,0.431-1.008,0.057-1.413c-0.374-0.405-1.006-0.431-1.413-0.058c-2.559,2.362-4.953,4.959-7.115,7.72
			c-0.069,0.088-0.108,0.187-0.144,0.286c-0.143,0.146-0.288,0.283-0.428,0.436c-2.082,2.257-3.58,5.08-3.252,7.031
			c-0.865,1.141-1.691,2.31-2.48,3.503c-0.104-0.742-0.251-1.502-0.469-2.271c-0.908-3.199-2.944-6.643-5.271-6.643
			c-0.209,0-0.415,0.028-0.613,0.085c-2.443,0.694-2.633,4.889-1.559,8.673c0.772,2.721,2.364,5.61,4.252,6.413
			c-0.621,1.206-1.205,2.432-1.752,3.675c-0.111-0.804-0.28-1.634-0.527-2.47c-0.938-3.172-3.003-6.586-5.318-6.586
			c-0.218,0-0.433,0.031-0.638,0.092c-2.435,0.723-2.579,4.919-1.463,8.689c0.938,3.17,3.001,6.581,5.317,6.581c0,0,0,0,0,0
			c0.069,0,0.134-0.022,0.202-0.029c0.005,0.013,0.009,0.026,0.015,0.038c-0.418,1.284-0.797,2.584-1.139,3.896
			c-0.227-0.672-0.509-1.36-0.846-2.049c-1.374-2.809-3.743-5.642-5.938-5.642c-0.363,0-0.705,0.077-1.015,0.229
			c-2.283,1.117-1.727,5.279,0.002,8.812c1.372,2.806,3.739,5.638,5.935,5.638c0.147,0,0.289-0.021,0.428-0.047
			c-0.206,1.347-0.375,2.704-0.501,4.072c-0.274-0.43-0.566-0.859-0.895-1.284c-2.059-2.664-4.569-4.386-6.395-4.386
			c-0.576,0-1.097,0.168-1.506,0.485c-2.01,1.556-0.627,5.519,1.777,8.629c2.056,2.663,4.564,4.384,6.392,4.384c0,0,0,0,0,0
			c0.123,0,0.242-0.012,0.36-0.026c0.021,1.084,0.064,2.161,0.135,3.232c-0.31-0.375-0.636-0.748-0.994-1.112
			c-2.194-2.232-4.676-3.619-6.478-3.619c-0.939,0-1.514,0.372-1.828,0.684c-1.812,1.781,0.029,5.552,2.784,8.356
			c2.191,2.232,4.672,3.619,6.476,3.619h0c0.398,0,0.718-0.075,0.992-0.176c0.194,1.072,0.414,2.134,0.657,3.188
			c-0.303-0.273-0.614-0.544-0.945-0.802c-2.225-1.731-4.606-2.765-6.37-2.765c-1.251,0-1.916,0.52-2.251,0.953
			c-1.561,2.006,0.764,5.5,3.866,7.916c2.222,1.73,4.602,2.764,6.368,2.764c0,0,0,0,0,0c0.698,0,1.199-0.167,1.577-0.385
			c9.176,25.518,33.045,43.757,60.978,43.757c2.342,0,4.652-0.135,6.931-0.385c0.34-0.036,0.674-0.092,1.013-0.133
			C83.484,153.416,84.179,153.334,84.864,153.224z M7.153,106.307c-3.078-2.396-3.86-4.668-3.515-5.111
			c0.085-0.111,0.343-0.18,0.671-0.18c1.294,0,3.313,0.92,5.141,2.343c1.336,1.041,2.461,2.271,3.085,3.372
			c0.551,0.973,0.56,1.571,0.43,1.738c-0.086,0.11-0.344,0.18-0.673,0.18C10.997,108.648,8.979,107.729,7.153,106.307z
			 M15.233,106.453c0.387-1.206,1.237-2.639,2.333-3.931c1.884-2.221,3.902-3.383,4.921-3.383c0.108,0,0.254,0.015,0.332,0.081
			c0.427,0.363,0.124,2.748-2.404,5.722c-1.883,2.218-3.899,3.379-4.918,3.379c-0.108,0-0.253-0.015-0.333-0.082
			C15.004,108.104,14.892,107.518,15.233,106.453z M2.12,89.019c0.095-0.094,0.307-0.107,0.424-0.107
			c1.002,0,3.011,0.945,5.051,3.021c2.024,2.062,2.936,4.084,2.926,5.089c-0.002,0.208-0.044,0.368-0.119,0.441
			c-0.096,0.095-0.308,0.108-0.426,0.108c-1.004,0-3.012-0.945-5.049-3.021C2.193,91.768,1.718,89.413,2.12,89.019z M20.867,89.464
			c0.256,0,0.448,0.05,0.526,0.137c0.375,0.416-0.242,2.74-3.141,5.354c-2.075,1.872-4.064,2.71-5.115,2.71
			c-0.256,0-0.447-0.05-0.527-0.139c-0.14-0.154-0.174-0.752,0.305-1.762c0.543-1.144,1.576-2.451,2.833-3.588
			C17.825,90.303,19.815,89.464,20.867,89.464z M9.802,86.37c-0.071,0.055-0.192,0.066-0.282,0.066c-0.982,0-3.001-1.264-4.81-3.606
			c-2.386-3.087-2.579-5.481-2.135-5.825c0.071-0.055,0.192-0.066,0.281-0.066c0.98,0,3,1.265,4.812,3.608
			c1.766,2.287,2.432,4.402,2.303,5.399C9.946,86.152,9.885,86.307,9.802,86.37z M21.647,79.866c0.323,0.457-0.565,2.69-3.752,4.944
			c-1.806,1.276-3.813,2.101-5.113,2.101c-0.473,0-0.72-0.11-0.794-0.215c-0.121-0.171-0.084-0.767,0.511-1.713
			c0.675-1.071,1.855-2.248,3.238-3.229c1.807-1.277,3.814-2.103,5.115-2.103C21.327,79.652,21.574,79.764,21.647,79.866z
			 M5.162,63.929c0.013-0.006,0.053-0.025,0.135-0.025c0.778,0,2.632,1.437,4.141,4.521c1.27,2.596,1.496,4.802,1.169,5.752
			c-0.068,0.197-0.159,0.335-0.252,0.381c-0.013,0.007-0.053,0.026-0.136,0.026c-0.778,0-2.632-1.436-4.138-4.517
			C4.365,66.561,4.658,64.176,5.162,63.929z M13.276,73.742c0.877-0.914,2.271-1.829,3.823-2.51
			c1.608-0.705,3.268-1.109,4.555-1.109c1.039,0,1.534,0.269,1.612,0.448c0.224,0.512-1.095,2.521-4.669,4.086
			c-1.608,0.704-3.269,1.108-4.556,1.108c-1.038,0-1.532-0.268-1.611-0.449C12.346,75.125,12.502,74.549,13.276,73.742z
			 M9.786,52.326c0.673,0,2.385,1.722,3.4,5.153c0.48,1.624,0.68,3.277,0.546,4.537c-0.118,1.111-0.459,1.603-0.661,1.662
			c-0.582,0.184-2.416-1.579-3.469-5.139C8.495,54.798,9.181,52.495,9.786,52.326z M26.464,61.897
			c0.135,0.542-1.5,2.303-5.285,3.252c-1.145,0.287-2.292,0.439-3.319,0.439c-1.82,0-2.789-0.485-2.871-0.815
			c-0.051-0.203,0.199-0.746,1.096-1.412c1.017-0.755,2.542-1.425,4.187-1.838c1.145-0.287,2.292-0.438,3.319-0.438
			C25.412,61.085,26.382,61.57,26.464,61.897z M15.303,42.536c0.673,0,2.367,1.734,3.347,5.189c0.463,1.63,0.644,3.285,0.496,4.543
			c-0.13,1.11-0.477,1.598-0.68,1.655c-0.021,0.006-0.042,0.009-0.066,0.009c-0.672,0-2.365-1.732-3.346-5.186
			C13.989,44.992,14.699,42.697,15.303,42.536z M31.878,52.291c0.13,0.543-1.524,2.284-5.32,3.192
			c-1.102,0.264-2.211,0.403-3.207,0.403c-2.078,0-2.915-0.581-2.979-0.848c-0.023-0.098,0.025-0.256,0.134-0.433
			c0.525-0.856,2.372-2.085,5.185-2.758c1.103-0.264,2.211-0.403,3.207-0.403C30.977,51.445,31.815,52.026,31.878,52.291z
			 M28.245,40.271c2.013-2.185,4.003-3.179,5.001-3.179c0.104,0,0.292,0.012,0.383,0.096c0.154,0.142,0.243,0.733-0.143,1.784
			c-0.437,1.189-1.345,2.586-2.493,3.832c-2.015,2.184-4.005,3.178-5.002,3.178c-0.104,0-0.292-0.013-0.383-0.097
			C25.198,45.506,25.599,43.139,28.245,40.271z M141.348,81.653c0,8.749-1.529,17.124-4.301,24.857
			c1.815-6.151,2.801-12.67,2.801-19.424c0-28.245-17.086-52.442-41.167-62.253c0.376-2.929,0.174-5.914-0.624-8.773
			C123.313,25.995,141.348,51.646,141.348,81.653z M65.685,34.583c-0.439-0.337-1.067-0.25-1.401,0.188
			c-0.382,0.502-0.794,0.992-1.225,1.458c-0.04,0.043-0.057,0.097-0.087,0.144c-0.077-0.074-0.161-0.139-0.237-0.215
			c-0.207-0.207-0.389-0.432-0.586-0.646c0.093,0.027,0.187,0.042,0.281,0.042c0.318,0,0.63-0.151,0.824-0.433
			c0.396-0.575,0.769-1.175,1.105-1.782c0.268-0.483,0.094-1.092-0.39-1.359c-0.482-0.27-1.092-0.094-1.359,0.389
			c-0.306,0.552-0.644,1.096-1.003,1.618c-0.158,0.229-0.206,0.501-0.158,0.755c-2.961-3.577-4.576-8.029-4.576-12.732
			c0-5.174,1.966-10.038,5.52-13.773c0.046,0.141,0.116,0.274,0.227,0.387c0.444,0.452,0.872,0.93,1.271,1.42
			c0.198,0.242,0.486,0.368,0.776,0.368c0.222,0,0.446-0.073,0.631-0.225c0.428-0.349,0.492-0.979,0.144-1.407
			c-0.438-0.538-0.908-1.062-1.396-1.559c-0.104-0.105-0.226-0.179-0.355-0.229c3.653-3.217,8.281-4.993,13.192-4.993
			c5.161,0,10.012,1.956,13.743,5.491c-0.097,0.049-0.192,0.104-0.272,0.185c-0.487,0.496-0.957,1.021-1.396,1.559
			c-0.349,0.429-0.285,1.059,0.144,1.407c0.186,0.151,0.409,0.225,0.631,0.225c0.29,0,0.578-0.126,0.776-0.368
			c0.399-0.49,0.827-0.968,1.271-1.42c0.066-0.067,0.104-0.147,0.147-0.227c0.237,0.271,0.474,0.542,0.693,0.823
			c-0.382-0.097-0.801,0.036-1.049,0.373c-0.415,0.561-0.806,1.146-1.163,1.741c-0.284,0.474-0.131,1.088,0.342,1.372
			c0.162,0.097,0.339,0.143,0.514,0.143c0.339,0,0.671-0.173,0.858-0.485c0.324-0.54,0.68-1.072,1.057-1.583
			c0.125-0.169,0.17-0.363,0.177-0.559c4.897,7.113,4.671,16.701-0.675,23.587c-0.315-0.469-0.62-0.948-0.892-1.439
			c-0.268-0.482-0.877-0.658-1.359-0.389c-0.483,0.268-0.658,0.876-0.39,1.359c0.337,0.607,0.709,1.207,1.105,1.782
			c0.061,0.088,0.149,0.141,0.229,0.202c-0.118,0.125-0.222,0.259-0.344,0.381c-0.024,0.024-0.051,0.044-0.074,0.067
			c-0.287-0.329-0.579-0.656-0.841-1.001c-0.334-0.438-0.962-0.526-1.401-0.188c-0.439,0.334-0.524,0.962-0.189,1.401
			c0.294,0.387,0.622,0.754,0.944,1.123c-3.552,2.886-7.948,4.458-12.587,4.458c-4.584,0-8.927-1.541-12.458-4.361
			c0.032-0.027,0.071-0.04,0.101-0.071c0.473-0.512,0.927-1.051,1.347-1.603C66.209,35.545,66.125,34.917,65.685,34.583z
			 M94.038,35.791c2.153-2.676,3.573-5.744,4.289-8.941c23.14,9.616,39.521,32.984,39.521,60.237c0,12-3.187,23.242-8.716,32.897
			c3.973-8.1,6.216-17.205,6.216-26.831C135.348,66.502,118.017,43.835,94.038,35.791z"/>
		<path fill="#FDF7E7" d="M64.527,37.587c-0.029,0.031-0.068,0.044-0.101,0.071c3.53,2.82,7.873,4.361,12.458,4.361
			c4.639,0,9.035-1.572,12.587-4.458c-0.323-0.369-0.65-0.736-0.944-1.123c-0.334-0.439-0.25-1.067,0.189-1.401
			c0.439-0.338,1.067-0.249,1.401,0.188c0.262,0.345,0.554,0.672,0.841,1.001c0.023-0.023,0.05-0.043,0.074-0.067
			c0.122-0.122,0.226-0.256,0.344-0.381c-0.081-0.062-0.168-0.114-0.229-0.202c-0.396-0.575-0.769-1.175-1.105-1.782
			c-0.268-0.483-0.094-1.092,0.39-1.359c0.482-0.27,1.091-0.094,1.359,0.389c0.272,0.491,0.577,0.971,0.892,1.439
			c5.346-6.886,5.572-16.474,0.675-23.587c-0.006,0.195-0.052,0.39-0.177,0.559c-0.377,0.511-0.732,1.043-1.057,1.583
			c-0.188,0.312-0.519,0.485-0.858,0.485c-0.175,0-0.353-0.046-0.514-0.143c-0.473-0.284-0.626-0.898-0.342-1.372
			c0.357-0.595,0.749-1.181,1.163-1.741c0.249-0.337,0.667-0.47,1.049-0.373c-0.22-0.281-0.456-0.552-0.693-0.823
			c-0.043,0.079-0.081,0.159-0.147,0.227c-0.444,0.452-0.872,0.93-1.271,1.42c-0.198,0.242-0.486,0.368-0.776,0.368
			c-0.222,0-0.446-0.073-0.631-0.225c-0.428-0.349-0.492-0.979-0.144-1.407c0.438-0.538,0.908-1.062,1.396-1.559
			c0.08-0.081,0.175-0.136,0.272-0.185c-3.731-3.535-8.582-5.491-13.743-5.491c-4.911,0-9.54,1.776-13.192,4.993
			c0.129,0.05,0.251,0.123,0.355,0.229c0.487,0.496,0.957,1.021,1.396,1.559c0.349,0.429,0.285,1.059-0.144,1.407
			c-0.186,0.151-0.409,0.225-0.631,0.225c-0.29,0-0.578-0.126-0.776-0.368c-0.399-0.49-0.827-0.968-1.271-1.42
			c-0.11-0.112-0.18-0.246-0.227-0.387c-3.553,3.735-5.52,8.6-5.52,13.773c0,4.703,1.615,9.155,4.576,12.732
			c-0.048-0.254,0-0.525,0.158-0.755c0.359-0.522,0.697-1.066,1.003-1.618c0.268-0.482,0.877-0.658,1.359-0.389
			c0.483,0.268,0.658,0.876,0.39,1.359c-0.337,0.607-0.709,1.207-1.105,1.782c-0.194,0.281-0.506,0.433-0.824,0.433
			c-0.094,0-0.188-0.015-0.281-0.042c0.197,0.214,0.379,0.438,0.586,0.646c0.076,0.076,0.16,0.141,0.237,0.215
			c0.031-0.047,0.048-0.101,0.087-0.144c0.431-0.466,0.843-0.956,1.225-1.458c0.334-0.438,0.962-0.525,1.401-0.188
			c0.439,0.334,0.524,0.962,0.189,1.401C65.454,36.536,65,37.075,64.527,37.587z M68.922,30.508
			c-0.247,0.648-0.529,1.295-0.839,1.921c-0.174,0.353-0.528,0.557-0.897,0.557c-0.149,0-0.3-0.033-0.443-0.104
			c-0.495-0.245-0.697-0.846-0.452-1.34c0.282-0.57,0.538-1.157,0.762-1.745c0.196-0.517,0.775-0.779,1.29-0.579
			C68.859,29.414,69.119,29.992,68.922,30.508z M65.08,21.369c-0.035-0.551,0.383-1.026,0.934-1.062
			c0.562-0.021,1.027,0.383,1.062,0.935c0.03,0.471,0.045,0.942,0.045,1.414c0,0.226-0.003,0.453-0.01,0.68
			c-0.017,0.542-0.461,0.969-0.999,0.969c-0.011,0-0.021,0-0.032-0.001c-0.552-0.017-0.985-0.479-0.968-1.03
			c0.006-0.205,0.01-0.409,0.009-0.615C65.121,22.228,65.107,21.799,65.08,21.369z M86.458,19.011
			c-0.129,0.62-0.23,1.253-0.299,1.881c-0.057,0.511-0.49,0.89-0.993,0.89c-0.037,0-0.074-0.002-0.111-0.006
			c-0.549-0.061-0.945-0.555-0.884-1.104c0.077-0.69,0.188-1.387,0.33-2.068c0.113-0.54,0.64-0.889,1.183-0.774
			C86.224,17.94,86.571,18.47,86.458,19.011z M86.058,29.672c0.515-0.197,1.094,0.063,1.29,0.579
			c0.224,0.588,0.48,1.175,0.762,1.745c0.245,0.494,0.042,1.095-0.452,1.34c-0.143,0.07-0.294,0.104-0.443,0.104
			c-0.369,0-0.723-0.204-0.897-0.557c-0.311-0.626-0.593-1.272-0.839-1.921C85.283,30.446,85.542,29.868,86.058,29.672z
			 M85.352,27.757c-0.477,0-0.899-0.342-0.984-0.827c-0.121-0.687-0.209-1.386-0.264-2.079c-0.043-0.551,0.368-1.032,0.919-1.075
			c0.54-0.03,1.032,0.368,1.075,0.919c0.049,0.63,0.13,1.266,0.239,1.89c0.096,0.544-0.268,1.062-0.812,1.158
			C85.467,27.752,85.409,27.757,85.352,27.757z M89.63,30.6c-0.104,0.034-0.208,0.05-0.311,0.05c-0.421,0-0.813-0.268-0.951-0.689
			c-0.215-0.659-0.401-1.339-0.554-2.02c-0.121-0.539,0.218-1.073,0.757-1.194c0.536-0.124,1.074,0.216,1.194,0.757
			c0.139,0.619,0.309,1.237,0.504,1.836C90.441,29.864,90.155,30.429,89.63,30.6z M89.29,23.728c0.018,0.552-0.416,1.014-0.968,1.03
			c-0.011,0.001-0.021,0.001-0.032,0.001c-0.538,0-0.982-0.427-0.999-0.969c-0.007-0.227-0.011-0.454-0.01-0.682
			c0-0.47,0.015-0.941,0.045-1.412c0.036-0.551,0.508-0.939,1.062-0.935c0.551,0.035,0.969,0.511,0.934,1.062
			c-0.027,0.43-0.041,0.858-0.041,1.287C89.28,23.318,89.283,23.522,89.29,23.728z M87.987,17.565c0.174-0.672,0.383-1.345,0.621-2
			c0.188-0.519,0.762-0.787,1.281-0.598c0.519,0.188,0.787,0.762,0.599,1.281c-0.216,0.596-0.407,1.207-0.565,1.818
			c-0.117,0.45-0.522,0.749-0.967,0.749c-0.083,0-0.167-0.01-0.251-0.032C88.169,18.646,87.848,18.1,87.987,17.565z M88.401,13.661
			c-0.297,0.554-0.572,1.131-0.817,1.717c-0.161,0.384-0.532,0.614-0.923,0.614c-0.128,0-0.259-0.024-0.385-0.077
			c-0.509-0.213-0.75-0.799-0.537-1.309c0.27-0.645,0.573-1.281,0.901-1.893c0.261-0.486,0.867-0.67,1.354-0.407
			C88.48,12.568,88.663,13.174,88.401,13.661z M70.033,26.476c-0.085,0.485-0.507,0.827-0.984,0.827
			c-0.057,0-0.115-0.005-0.174-0.015c-0.544-0.096-0.908-0.614-0.812-1.158c0.109-0.624,0.19-1.26,0.239-1.89
			c0.043-0.552,0.534-0.958,1.075-0.919c0.551,0.043,0.962,0.524,0.919,1.075C70.242,25.09,70.154,25.789,70.033,26.476z
			 M69.901,18.148c0.142,0.682,0.253,1.378,0.33,2.068c0.061,0.55-0.335,1.044-0.884,1.104c-0.037,0.004-0.074,0.006-0.111,0.006
			c-0.503,0-0.936-0.379-0.993-0.89c-0.069-0.628-0.17-1.261-0.299-1.881c-0.113-0.541,0.234-1.07,0.775-1.183
			C69.26,17.259,69.788,17.608,69.901,18.148z M66.408,11.853c0.485-0.264,1.092-0.08,1.354,0.407
			c0.328,0.611,0.631,1.248,0.901,1.893c0.213,0.51-0.028,1.096-0.537,1.309c-0.126,0.053-0.257,0.077-0.385,0.077
			c-0.392,0-0.763-0.23-0.923-0.614c-0.245-0.586-0.52-1.163-0.817-1.717C65.739,12.72,65.921,12.114,66.408,11.853z M63.135,12.849
			c-0.339,0-0.67-0.173-0.858-0.485c-0.324-0.54-0.68-1.072-1.057-1.583c-0.328-0.443-0.234-1.07,0.21-1.398
			c0.445-0.328,1.071-0.232,1.398,0.211c0.415,0.561,0.806,1.146,1.163,1.741c0.284,0.474,0.131,1.088-0.342,1.372
			C63.488,12.803,63.311,12.849,63.135,12.849z M63.914,15.795c-0.188-0.52,0.08-1.093,0.599-1.281
			c0.518-0.19,1.092,0.079,1.281,0.598c0.238,0.655,0.447,1.328,0.621,2c0.139,0.534-0.182,1.08-0.717,1.219
			c-0.084,0.022-0.168,0.032-0.251,0.032c-0.445,0-0.851-0.299-0.967-0.749C64.32,17.002,64.13,16.391,63.914,15.795z
			 M66.033,29.506c-0.138,0.422-0.529,0.689-0.951,0.689c-0.103,0-0.207-0.016-0.311-0.05c-0.525-0.171-0.812-0.735-0.64-1.261
			c0.196-0.599,0.365-1.217,0.504-1.836c0.121-0.539,0.659-0.875,1.194-0.757c0.539,0.121,0.878,0.655,0.757,1.194
			C66.434,28.167,66.248,28.847,66.033,29.506z"/>
		<path fill="#EF483E" d="M86.318,32.883c0.174,0.353,0.528,0.557,0.897,0.557c0.149,0,0.3-0.033,0.443-0.104
			c0.495-0.245,0.697-0.846,0.452-1.34c-0.282-0.57-0.538-1.157-0.762-1.745c-0.196-0.516-0.775-0.776-1.29-0.579
			c-0.516,0.196-0.775,0.774-0.579,1.29C85.726,31.61,86.008,32.257,86.318,32.883z"/>
		<path fill="#EF483E" d="M85.683,17.828c-0.543-0.114-1.07,0.234-1.183,0.774c-0.142,0.682-0.253,1.378-0.33,2.068
			c-0.061,0.55,0.335,1.044,0.884,1.104c0.037,0.004,0.074,0.006,0.111,0.006c0.503,0,0.936-0.379,0.993-0.89
			c0.069-0.628,0.17-1.261,0.299-1.881C86.571,18.47,86.224,17.94,85.683,17.828z"/>
		<path fill="#EF483E" d="M86.338,26.584c-0.109-0.624-0.19-1.26-0.239-1.89c-0.043-0.551-0.536-0.949-1.075-0.919
			c-0.551,0.043-0.962,0.524-0.919,1.075c0.055,0.693,0.143,1.393,0.264,2.079c0.085,0.485,0.507,0.827,0.984,0.827
			c0.057,0,0.115-0.005,0.174-0.015C86.07,27.646,86.434,27.128,86.338,26.584z"/>
		<path fill="#EF483E" d="M87.994,12.307c-0.487-0.263-1.093-0.079-1.354,0.407c-0.328,0.611-0.631,1.248-0.901,1.893
			c-0.213,0.51,0.028,1.096,0.537,1.309c0.126,0.053,0.257,0.077,0.385,0.077c0.391,0,0.763-0.23,0.923-0.614
			c0.245-0.586,0.52-1.163,0.817-1.717C88.663,13.174,88.48,12.568,87.994,12.307z"/>
		<path fill="#EF483E" d="M89.766,27.503c-0.121-0.541-0.659-0.881-1.194-0.757c-0.539,0.121-0.878,0.655-0.757,1.194
			c0.153,0.681,0.339,1.36,0.554,2.02c0.138,0.422,0.529,0.689,0.951,0.689c0.103,0,0.207-0.016,0.311-0.05
			c0.525-0.171,0.812-0.735,0.64-1.261C90.074,28.74,89.905,28.122,89.766,27.503z"/>
		<path fill="#EF483E" d="M89.321,21.823c0.035-0.551-0.383-1.026-0.934-1.062c-0.554-0.005-1.026,0.384-1.062,0.935
			c-0.03,0.471-0.045,0.942-0.045,1.412c0,0.228,0.003,0.455,0.01,0.682c0.017,0.542,0.461,0.969,0.999,0.969
			c0.011,0,0.021,0,0.032-0.001c0.552-0.017,0.985-0.479,0.968-1.03c-0.006-0.205-0.01-0.409-0.009-0.617
			C89.28,22.682,89.294,22.253,89.321,21.823z"/>
		<path fill="#EF483E" d="M88.955,18.816c0.445,0,0.851-0.299,0.967-0.749c0.159-0.611,0.349-1.223,0.565-1.818
			c0.188-0.52-0.08-1.093-0.599-1.281c-0.52-0.189-1.093,0.079-1.281,0.598c-0.238,0.655-0.447,1.328-0.621,2
			c-0.139,0.534,0.182,1.08,0.717,1.219C88.788,18.807,88.872,18.816,88.955,18.816z"/>
		<path fill="#EF483E" d="M69.378,23.321c-0.542-0.039-1.032,0.367-1.075,0.919c-0.049,0.63-0.13,1.266-0.239,1.89
			c-0.096,0.544,0.268,1.062,0.812,1.158c0.059,0.01,0.117,0.015,0.174,0.015c0.477,0,0.899-0.342,0.984-0.827
			c0.121-0.687,0.209-1.386,0.264-2.079C70.34,23.846,69.929,23.364,69.378,23.321z"/>
		<path fill="#EF483E" d="M66.817,14.924c0.161,0.384,0.532,0.614,0.923,0.614c0.128,0,0.259-0.024,0.385-0.077
			c0.509-0.213,0.75-0.799,0.537-1.309c-0.27-0.645-0.573-1.281-0.901-1.893c-0.262-0.487-0.869-0.671-1.354-0.407
			c-0.487,0.262-0.669,0.867-0.408,1.354C66.297,13.761,66.572,14.338,66.817,14.924z"/>
		<path fill="#EF483E" d="M68.343,29.218c-0.515-0.2-1.094,0.062-1.29,0.579c-0.224,0.588-0.48,1.175-0.762,1.745
			c-0.245,0.494-0.042,1.095,0.452,1.34c0.143,0.07,0.294,0.104,0.443,0.104c0.369,0,0.723-0.204,0.897-0.557
			c0.311-0.626,0.593-1.272,0.839-1.921C69.119,29.992,68.859,29.414,68.343,29.218z"/>
		<path fill="#EF483E" d="M67.943,18.557c0.129,0.62,0.23,1.253,0.299,1.881c0.057,0.511,0.49,0.89,0.993,0.89
			c0.037,0,0.074-0.002,0.111-0.006c0.549-0.061,0.945-0.555,0.884-1.104c-0.077-0.69-0.188-1.387-0.33-2.068
			c-0.113-0.54-0.642-0.89-1.183-0.774C68.178,17.486,67.831,18.016,67.943,18.557z"/>
		<path fill="#EF483E" d="M66.08,24.304c0.011,0.001,0.021,0.001,0.032,0.001c0.538,0,0.982-0.427,0.999-0.969
			c0.007-0.227,0.011-0.454,0.01-0.68c0-0.472-0.015-0.943-0.045-1.414c-0.035-0.552-0.5-0.956-1.062-0.935
			c-0.551,0.035-0.969,0.511-0.934,1.062c0.027,0.43,0.041,0.858,0.041,1.289c0,0.206-0.003,0.41-0.009,0.615
			C65.094,23.825,65.528,24.287,66.08,24.304z"/>
		<path fill="#EF483E" d="M65.446,18.362c0.083,0,0.167-0.01,0.251-0.032c0.535-0.139,0.855-0.685,0.717-1.219
			c-0.174-0.672-0.383-1.345-0.621-2c-0.189-0.519-0.763-0.788-1.281-0.598c-0.519,0.188-0.787,0.762-0.599,1.281
			c0.216,0.596,0.407,1.207,0.565,1.818C64.596,18.063,65.001,18.362,65.446,18.362z"/>
		<path fill="#EF483E" d="M65.83,26.292c-0.536-0.118-1.074,0.218-1.194,0.757c-0.139,0.619-0.309,1.237-0.504,1.836
			c-0.171,0.525,0.115,1.09,0.64,1.261c0.104,0.034,0.208,0.05,0.311,0.05c0.421,0,0.813-0.268,0.951-0.689
			c0.215-0.659,0.401-1.339,0.554-2.02C66.708,26.947,66.369,26.413,65.83,26.292z"/>
		<path fill="#EF483E" d="M63.992,11.334c-0.357-0.595-0.749-1.181-1.163-1.741c-0.328-0.443-0.954-0.539-1.398-0.211
			c-0.444,0.328-0.538,0.955-0.21,1.398c0.377,0.511,0.732,1.043,1.057,1.583c0.188,0.312,0.519,0.485,0.858,0.485
			c0.175,0,0.353-0.046,0.514-0.143C64.123,12.422,64.276,11.808,63.992,11.334z"/>
		<path fill="#FDF7E7" d="M25.609,45.885c0.09,0.084,0.279,0.097,0.383,0.097c0.997,0,2.987-0.994,5.002-3.178
			c1.148-1.246,2.057-2.643,2.493-3.832c0.385-1.051,0.296-1.643,0.143-1.784c-0.091-0.084-0.279-0.096-0.383-0.096
			c-0.998,0-2.988,0.994-5.001,3.179C25.599,43.139,25.198,45.506,25.609,45.885z"/>
		<path fill="#FDF7E7" d="M18.4,53.933c0.024,0,0.045-0.003,0.066-0.009c0.203-0.058,0.55-0.545,0.68-1.655
			c0.147-1.258-0.033-2.913-0.496-4.543c-0.98-3.455-2.674-5.189-3.347-5.189c-0.604,0.161-1.314,2.456-0.248,6.211
			C16.036,52.2,17.729,53.933,18.4,53.933z"/>
		<path fill="#FDF7E7" d="M20.507,54.606c-0.108,0.177-0.157,0.335-0.134,0.433c0.063,0.267,0.901,0.848,2.979,0.848
			c0.996,0,2.105-0.14,3.207-0.403c3.796-0.908,5.45-2.649,5.32-3.192c-0.063-0.265-0.901-0.846-2.98-0.846
			c-0.996,0-2.104,0.14-3.207,0.403C22.879,52.521,21.032,53.75,20.507,54.606z"/>
		<path fill="#FDF7E7" d="M13.071,63.679c0.202-0.06,0.543-0.551,0.661-1.662c0.133-1.26-0.066-2.913-0.546-4.537
			c-1.015-3.432-2.727-5.153-3.4-5.153c-0.605,0.169-1.291,2.472-0.183,6.214C10.655,62.1,12.489,63.862,13.071,63.679z"/>
		<path fill="#FDF7E7" d="M16.086,63.361c-0.897,0.666-1.147,1.209-1.096,1.412c0.082,0.33,1.051,0.815,2.871,0.815
			c1.027,0,2.174-0.152,3.319-0.439c3.786-0.949,5.42-2.71,5.285-3.252c-0.082-0.327-1.052-0.812-2.873-0.812
			c-1.026,0-2.174,0.151-3.319,0.438C18.628,61.937,17.103,62.606,16.086,63.361z"/>
		<path fill="#FDF7E7" d="M10.219,74.583c0.083,0,0.123-0.02,0.136-0.026c0.093-0.046,0.184-0.184,0.252-0.381
			c0.327-0.95,0.1-3.156-1.169-5.752c-1.509-3.084-3.363-4.521-4.141-4.521c-0.083,0-0.122,0.02-0.135,0.025
			c-0.503,0.247-0.796,2.632,0.919,6.138C7.587,73.147,9.441,74.583,10.219,74.583z"/>
		<path fill="#FDF7E7" d="M12.43,75.316c0.08,0.182,0.573,0.449,1.611,0.449c1.287,0,2.948-0.404,4.556-1.108
			c3.574-1.565,4.893-3.574,4.669-4.086c-0.079-0.18-0.573-0.448-1.612-0.448c-1.287,0-2.947,0.404-4.555,1.109
			c-1.553,0.681-2.946,1.596-3.823,2.51C12.502,74.549,12.346,75.125,12.43,75.316z"/>
		<path fill="#FDF7E7" d="M7.669,80.547c-1.812-2.344-3.832-3.608-4.812-3.608c-0.089,0-0.21,0.012-0.281,0.066
			c-0.444,0.344-0.251,2.738,2.135,5.825c1.809,2.343,3.828,3.606,4.81,3.606c0.089,0,0.21-0.012,0.282-0.066
			c0.083-0.063,0.144-0.218,0.17-0.424C10.102,84.949,9.436,82.834,7.669,80.547z"/>
		<path fill="#FDF7E7" d="M12.499,84.983c-0.595,0.946-0.632,1.542-0.511,1.713c0.074,0.104,0.321,0.215,0.794,0.215
			c1.3,0,3.307-0.824,5.113-2.101c3.187-2.254,4.075-4.487,3.752-4.944c-0.073-0.103-0.32-0.214-0.794-0.214
			c-1.301,0-3.309,0.825-5.115,2.103C14.354,82.735,13.174,83.912,12.499,84.983z"/>
		<path fill="#FDF7E7" d="M9.976,97.57c0.118,0,0.33-0.014,0.426-0.108c0.075-0.073,0.117-0.233,0.119-0.441
			c0.01-1.005-0.901-3.026-2.926-5.089c-2.04-2.075-4.048-3.021-5.051-3.021c-0.118,0-0.329,0.014-0.424,0.107
			c-0.401,0.395,0.073,2.749,2.807,5.531C6.963,96.625,8.972,97.57,9.976,97.57z"/>
		<path fill="#FDF7E7" d="M12.916,95.765c-0.479,1.01-0.445,1.607-0.305,1.762c0.08,0.089,0.271,0.139,0.527,0.139
			c1.051,0,3.04-0.838,5.115-2.71c2.898-2.614,3.515-4.938,3.141-5.354c-0.078-0.087-0.27-0.137-0.526-0.137
			c-1.051,0-3.042,0.839-5.119,2.713C14.491,93.313,13.458,94.621,12.916,95.765z"/>
		<path fill="#FDF7E7" d="M12.536,106.73c-0.624-1.102-1.749-2.331-3.085-3.372c-1.828-1.423-3.847-2.343-5.141-2.343
			c-0.329,0-0.586,0.068-0.671,0.18c-0.345,0.443,0.437,2.715,3.515,5.111c1.826,1.423,3.843,2.342,5.139,2.342
			c0.33,0,0.587-0.069,0.673-0.18C13.096,108.302,13.087,107.703,12.536,106.73z"/>
		<path fill="#FDF7E7" d="M15.497,108.321c1.019,0,3.035-1.161,4.918-3.379c2.527-2.974,2.831-5.358,2.404-5.722
			c-0.078-0.066-0.223-0.081-0.332-0.081c-1.02,0-3.038,1.162-4.921,3.383c-1.096,1.292-1.946,2.725-2.333,3.931
			c-0.341,1.064-0.229,1.651-0.069,1.786C15.244,108.307,15.389,108.321,15.497,108.321z"/>
	</g>
</g>
<g id="Layer_3">
</g>
</svg>
