<?xml version="1.0" encoding="utf-8"?>
<!-- Generator: Adobe Illustrator 16.0.0, SVG Export Plug-In . SVG Version: 6.00 Build 0)  -->
<!DOCTYPE svg PUBLIC "-//W3C//DTD SVG 1.1//EN" "http://www.w3.org/Graphics/SVG/1.1/DTD/svg11.dtd">
<svg version="1.1" id="Layer_1" xmlns="http://www.w3.org/2000/svg" xmlns:xlink="http://www.w3.org/1999/xlink" x="0px" y="0px"
	 width="143.348px" height="154.021px" viewBox="0 0 143.348 154.021" enable-background="new 0 0 143.348 154.021"
	 xml:space="preserve">
<path fill="#0D2240" d="M84.864,153.224c33.039-5.138,58.483-35.271,58.483-71.57c0-31.465-19.31-58.262-46.121-68.034
	c-1.072-2.61-2.662-5.057-4.779-7.174C88.29,2.289,82.763,0,76.884,0S65.477,2.289,61.32,6.446
	c-4.156,4.157-6.446,9.685-6.446,15.562c0,5.879,2.29,11.406,6.446,15.562c4.157,4.158,9.686,6.447,15.564,6.447
	s11.406-2.289,15.562-6.446c0.053-0.052,0.095-0.108,0.146-0.161c23.607,7.533,40.755,29.669,40.755,55.741
	c0,31.409-24.586,57.148-55.414,58.769c-1.022,0.051-2.051,0.083-3.086,0.083c-0.023,0-0.045,0.014-0.068,0.015
	c-26.786-0.029-49.697-17.385-58.767-41.751c1.754-0.261,4.012-1.775,5.927-4.03c2.546-2.996,4.111-6.892,2.176-8.54
	c-0.43-0.364-0.992-0.558-1.628-0.558c-1.809,0-4.339,1.604-6.446,4.089c-0.803,0.945-1.461,1.94-1.972,2.917
	c-0.391-1.479-0.736-2.975-1.025-4.49c0.034,0.001,0.059,0.01,0.094,0.01c1.776,0,4.25-1.235,6.455-3.226
	c2.92-2.634,4.987-6.288,3.287-8.178c-0.329-0.364-0.944-0.799-2.012-0.799c-1.777,0-4.252,1.237-6.459,3.229
	c-0.888,0.802-1.647,1.667-2.271,2.533c-0.133-1.455-0.209-2.928-0.247-4.408c0.26,0.059,0.555,0.094,0.893,0.094
	c1.737,0,4.08-0.922,6.268-2.468c3.211-2.271,5.696-5.654,4.231-7.73c-0.343-0.483-1.041-1.061-2.429-1.061
	c-1.738,0-4.083,0.923-6.271,2.471c-0.981,0.695-1.843,1.469-2.567,2.26c0.111-1.611,0.281-3.211,0.505-4.795
	c0.417,0.109,0.917,0.179,1.521,0.179c1.576,0,3.479-0.453,5.357-1.276c3.602-1.577,6.716-4.392,5.699-6.72
	c-0.27-0.615-1.075-1.646-3.445-1.646c-1.575,0-3.479,0.454-5.357,1.277c-0.88,0.386-1.703,0.834-2.443,1.317
	c0.306-1.221,0.648-2.43,1.021-3.626c0.787,0.318,1.787,0.496,2.985,0.496c1.188,0,2.504-0.173,3.807-0.5
	c3.813-0.956,7.354-3.212,6.737-5.677c-0.37-1.479-2.125-2.327-4.812-2.327c-1.188,0-2.504,0.172-3.806,0.499
	c-0.854,0.214-1.661,0.493-2.414,0.811c0.549-1.261,1.138-2.5,1.765-3.721c0.825,0.777,2.273,1.214,4.215,1.214
	c1.15,0,2.42-0.158,3.672-0.458c3.825-0.915,7.39-3.135,6.801-5.604c-0.361-1.513-2.157-2.381-4.926-2.381
	c-1.149,0-2.42,0.158-3.672,0.458c-0.958,0.229-1.849,0.532-2.663,0.88c0.691-1.056,1.415-2.089,2.167-3.103
	c0.365,0.192,0.789,0.301,1.262,0.301l0,0c1.815,0,4.296-1.465,6.472-3.822c0.945-1.024,1.724-2.12,2.294-3.187
	c1.708-1.38,4.426-3.188,5.753-4.069c0.46-0.306,0.585-0.927,0.279-1.387s-0.926-0.585-1.387-0.279
	c-1.249,0.831-2.509,1.681-3.653,2.493c0.002-0.566-0.111-1.006-0.276-1.341c1.938-1.594,3.974-3.088,6.116-4.463
	c0.465-0.299,0.6-0.917,0.301-1.382c-0.298-0.466-0.917-0.6-1.381-0.302c-2.346,1.506-4.575,3.147-6.684,4.908
	c-0.186-0.037-0.377-0.062-0.579-0.062c-0.208,0-0.427,0.024-0.65,0.062c1.04-1.109,2.112-2.186,3.222-3.209
	c0.406-0.375,0.432-1.008,0.058-1.413s-1.006-0.431-1.413-0.058c-2.56,2.361-4.953,4.959-7.115,7.72
	c-0.069,0.088-0.108,0.187-0.144,0.286c-0.144,0.146-0.288,0.283-0.429,0.436c-2.082,2.257-3.58,5.08-3.252,7.031
	c-0.864,1.141-1.69,2.31-2.479,3.503c-0.104-0.742-0.251-1.502-0.469-2.271c-0.908-3.198-2.944-6.643-5.271-6.643
	c-0.209,0-0.415,0.028-0.613,0.085c-2.442,0.694-2.633,4.889-1.559,8.673c0.771,2.722,2.364,5.61,4.252,6.413
	c-0.621,1.206-1.205,2.433-1.752,3.675c-0.111-0.804-0.28-1.634-0.527-2.47c-0.938-3.172-3.003-6.586-5.317-6.586
	c-0.219,0-0.434,0.031-0.639,0.092c-2.435,0.724-2.579,4.919-1.463,8.689c0.938,3.17,3.001,6.581,5.317,6.581l0,0
	c0.068,0,0.134-0.022,0.202-0.029c0.005,0.013,0.009,0.026,0.015,0.038c-0.418,1.284-0.797,2.584-1.139,3.896
	c-0.228-0.672-0.51-1.359-0.847-2.049C9.86,64.733,7.491,61.9,5.296,61.9c-0.363,0-0.705,0.077-1.016,0.229
	c-2.282,1.117-1.727,5.279,0.003,8.812c1.371,2.806,3.738,5.638,5.935,5.638c0.147,0,0.289-0.021,0.428-0.047
	c-0.206,1.347-0.375,2.704-0.501,4.072c-0.273-0.431-0.565-0.859-0.895-1.284c-2.06-2.664-4.569-4.386-6.396-4.386
	c-0.576,0-1.097,0.168-1.506,0.484c-2.01,1.557-0.627,5.52,1.777,8.629c2.056,2.663,4.563,4.385,6.392,4.385l0,0
	c0.123,0,0.242-0.013,0.36-0.026c0.021,1.084,0.063,2.161,0.135,3.232c-0.31-0.375-0.636-0.748-0.994-1.112
	c-2.193-2.232-4.676-3.619-6.478-3.619c-0.939,0-1.515,0.372-1.828,0.684c-1.812,1.781,0.029,5.553,2.784,8.356
	c2.19,2.232,4.672,3.619,6.476,3.619l0,0c0.398,0,0.718-0.075,0.992-0.176c0.194,1.071,0.414,2.134,0.657,3.188
	c-0.304-0.272-0.614-0.544-0.945-0.802c-2.225-1.731-4.606-2.765-6.37-2.765c-1.251,0-1.916,0.52-2.251,0.952
	c-1.561,2.007,0.764,5.5,3.866,7.916c2.222,1.73,4.602,2.765,6.368,2.765l0,0c0.697,0,1.198-0.167,1.577-0.386
	c9.176,25.519,33.045,43.758,60.978,43.758c2.342,0,4.652-0.136,6.931-0.386c0.341-0.035,0.675-0.092,1.014-0.133
	C83.484,153.416,84.179,153.334,84.864,153.224z M7.153,106.307c-3.077-2.396-3.859-4.668-3.515-5.111
	c0.085-0.111,0.343-0.18,0.671-0.18c1.294,0,3.313,0.92,5.142,2.343c1.336,1.041,2.461,2.271,3.085,3.372
	c0.551,0.973,0.56,1.57,0.43,1.737c-0.086,0.11-0.344,0.181-0.673,0.181C10.997,108.648,8.979,107.729,7.153,106.307z
	 M15.233,106.453c0.388-1.206,1.237-2.639,2.333-3.931c1.885-2.222,3.902-3.383,4.921-3.383c0.108,0,0.255,0.015,0.332,0.081
	c0.428,0.362,0.124,2.747-2.403,5.722c-1.883,2.218-3.899,3.379-4.918,3.379c-0.108,0-0.253-0.015-0.333-0.082
	C15.004,108.104,14.892,107.518,15.233,106.453z M2.12,89.019c0.095-0.095,0.307-0.107,0.424-0.107c1.002,0,3.011,0.945,5.051,3.021
	c2.024,2.062,2.936,4.084,2.926,5.089c-0.002,0.208-0.044,0.368-0.119,0.44c-0.096,0.096-0.308,0.108-0.426,0.108
	c-1.004,0-3.012-0.945-5.049-3.021C2.193,91.768,1.718,89.413,2.12,89.019z M20.867,89.464c0.256,0,0.447,0.051,0.525,0.138
	c0.375,0.416-0.242,2.739-3.141,5.354c-2.075,1.872-4.064,2.71-5.115,2.71c-0.256,0-0.447-0.05-0.527-0.139
	c-0.14-0.154-0.174-0.752,0.306-1.762c0.543-1.145,1.576-2.451,2.833-3.589C17.825,90.303,19.815,89.464,20.867,89.464z
	 M9.802,86.37c-0.071,0.055-0.192,0.066-0.282,0.066c-0.981,0-3.001-1.265-4.81-3.606c-2.386-3.087-2.579-5.48-2.135-5.825
	c0.07-0.055,0.191-0.065,0.28-0.065c0.98,0,3,1.265,4.812,3.607c1.766,2.287,2.432,4.402,2.303,5.399
	C9.946,86.152,9.885,86.307,9.802,86.37z M21.647,79.866c0.323,0.457-0.564,2.69-3.752,4.944c-1.806,1.275-3.812,2.101-5.112,2.101
	c-0.474,0-0.721-0.11-0.795-0.215c-0.12-0.171-0.084-0.767,0.512-1.713c0.675-1.071,1.854-2.248,3.237-3.229
	c1.808-1.276,3.814-2.103,5.115-2.103C21.327,79.652,21.574,79.764,21.647,79.866z M5.162,63.929
	c0.013-0.007,0.053-0.025,0.135-0.025c0.778,0,2.632,1.437,4.141,4.521c1.271,2.597,1.496,4.803,1.169,5.752
	c-0.067,0.197-0.158,0.336-0.252,0.382c-0.013,0.007-0.053,0.025-0.136,0.025c-0.778,0-2.632-1.436-4.138-4.517
	C4.365,66.561,4.658,64.176,5.162,63.929z M13.276,73.742c0.877-0.914,2.271-1.829,3.823-2.51c1.608-0.705,3.269-1.109,4.555-1.109
	c1.039,0,1.534,0.27,1.612,0.448c0.225,0.512-1.095,2.521-4.669,4.086c-1.608,0.704-3.269,1.108-4.556,1.108
	c-1.038,0-1.532-0.269-1.611-0.449C12.346,75.125,12.502,74.549,13.276,73.742z M9.786,52.326c0.673,0,2.385,1.722,3.399,5.153
	c0.48,1.624,0.681,3.276,0.546,4.537c-0.118,1.11-0.459,1.603-0.661,1.661c-0.582,0.185-2.416-1.578-3.469-5.139
	C8.495,54.798,9.181,52.495,9.786,52.326z M26.464,61.897c0.135,0.542-1.5,2.303-5.285,3.252c-1.145,0.287-2.292,0.438-3.319,0.438
	c-1.819,0-2.789-0.484-2.871-0.814c-0.051-0.203,0.199-0.746,1.097-1.412c1.017-0.755,2.542-1.425,4.187-1.838
	c1.146-0.287,2.292-0.438,3.319-0.438C25.412,61.085,26.382,61.57,26.464,61.897z M15.303,42.536c0.673,0,2.367,1.734,3.347,5.189
	c0.463,1.63,0.645,3.284,0.496,4.543c-0.13,1.109-0.477,1.598-0.68,1.654c-0.021,0.007-0.042,0.01-0.066,0.01
	c-0.672,0-2.364-1.732-3.346-5.187C13.989,44.992,14.699,42.697,15.303,42.536z M31.878,52.291c0.13,0.543-1.524,2.284-5.32,3.192
	c-1.102,0.264-2.211,0.402-3.207,0.402c-2.078,0-2.915-0.58-2.979-0.848c-0.023-0.098,0.024-0.256,0.134-0.433
	c0.524-0.856,2.372-2.085,5.185-2.758c1.104-0.265,2.211-0.403,3.207-0.403C30.977,51.445,31.815,52.026,31.878,52.291z
	 M28.245,40.271c2.013-2.186,4.003-3.18,5.001-3.18c0.104,0,0.292,0.013,0.383,0.097c0.154,0.142,0.243,0.732-0.144,1.784
	c-0.437,1.188-1.345,2.586-2.492,3.832c-2.016,2.184-4.006,3.178-5.002,3.178c-0.104,0-0.292-0.014-0.384-0.098
	C25.198,45.506,25.599,43.139,28.245,40.271z M141.348,81.653c0,8.749-1.529,17.124-4.301,24.856
	c1.814-6.15,2.801-12.67,2.801-19.424c0-28.245-17.086-52.441-41.167-62.253c0.376-2.929,0.174-5.914-0.624-8.772
	C123.313,25.995,141.348,51.646,141.348,81.653z M65.685,34.583c-0.438-0.337-1.066-0.25-1.4,0.188
	c-0.383,0.502-0.794,0.992-1.226,1.458c-0.04,0.043-0.057,0.097-0.087,0.144c-0.077-0.074-0.161-0.139-0.237-0.215
	c-0.207-0.207-0.389-0.432-0.586-0.646c0.094,0.026,0.188,0.042,0.281,0.042c0.318,0,0.63-0.151,0.824-0.434
	c0.396-0.575,0.769-1.175,1.104-1.782c0.269-0.482,0.095-1.092-0.39-1.358c-0.482-0.271-1.092-0.095-1.359,0.389
	c-0.306,0.552-0.644,1.096-1.003,1.618c-0.157,0.229-0.206,0.501-0.157,0.755c-2.962-3.577-4.576-8.029-4.576-12.732
	c0-5.174,1.966-10.037,5.52-13.772c0.046,0.141,0.116,0.273,0.228,0.387c0.443,0.452,0.872,0.931,1.271,1.42
	c0.198,0.242,0.486,0.368,0.776,0.368c0.222,0,0.445-0.073,0.631-0.225c0.428-0.35,0.492-0.979,0.144-1.407
	c-0.438-0.538-0.907-1.062-1.396-1.559c-0.104-0.105-0.227-0.18-0.355-0.229c3.653-3.217,8.281-4.993,13.192-4.993
	c5.161,0,10.012,1.956,13.743,5.491c-0.098,0.049-0.192,0.104-0.272,0.185c-0.486,0.496-0.957,1.021-1.396,1.56
	c-0.35,0.429-0.285,1.059,0.144,1.407c0.187,0.15,0.409,0.225,0.631,0.225c0.29,0,0.578-0.126,0.776-0.368
	c0.399-0.49,0.827-0.968,1.271-1.42c0.066-0.067,0.104-0.146,0.147-0.227c0.237,0.271,0.474,0.542,0.693,0.822
	c-0.383-0.097-0.802,0.036-1.05,0.373c-0.415,0.562-0.806,1.146-1.162,1.741c-0.284,0.475-0.132,1.088,0.342,1.372
	c0.162,0.097,0.339,0.143,0.514,0.143c0.339,0,0.671-0.173,0.858-0.484c0.323-0.54,0.68-1.072,1.057-1.583
	c0.125-0.169,0.17-0.363,0.177-0.56c4.897,7.113,4.671,16.701-0.675,23.588c-0.314-0.47-0.62-0.948-0.892-1.439
	c-0.269-0.482-0.877-0.658-1.359-0.389c-0.483,0.268-0.658,0.876-0.39,1.358c0.337,0.607,0.709,1.207,1.104,1.782
	c0.062,0.088,0.149,0.141,0.229,0.202c-0.118,0.125-0.223,0.259-0.345,0.381c-0.023,0.024-0.051,0.044-0.073,0.067
	c-0.287-0.329-0.579-0.656-0.841-1.001c-0.335-0.438-0.963-0.526-1.401-0.188c-0.439,0.334-0.524,0.962-0.189,1.401
	c0.294,0.387,0.622,0.754,0.944,1.123c-3.552,2.886-7.948,4.458-12.587,4.458c-4.584,0-8.927-1.541-12.458-4.361
	c0.032-0.027,0.071-0.04,0.101-0.071c0.474-0.512,0.928-1.051,1.348-1.603C66.209,35.545,66.125,34.917,65.685,34.583z
	 M94.038,35.791c2.152-2.676,3.572-5.744,4.289-8.94c23.14,9.615,39.521,32.983,39.521,60.236c0,12-3.187,23.242-8.716,32.897
	c3.973-8.101,6.216-17.205,6.216-26.831C135.348,66.502,118.017,43.835,94.038,35.791z"/>
<path fill="#0D2240" d="M86.318,32.883c0.175,0.354,0.528,0.558,0.897,0.558c0.149,0,0.3-0.033,0.443-0.104
	c0.494-0.245,0.696-0.846,0.451-1.34c-0.281-0.57-0.538-1.157-0.762-1.745c-0.196-0.516-0.774-0.775-1.29-0.579
	s-0.774,0.774-0.579,1.29C85.726,31.61,86.008,32.257,86.318,32.883z"/>
<path fill="#0D2240" d="M85.683,17.828c-0.543-0.114-1.07,0.234-1.183,0.774c-0.143,0.682-0.253,1.378-0.33,2.067
	c-0.062,0.55,0.335,1.044,0.884,1.104c0.037,0.004,0.074,0.006,0.111,0.006c0.503,0,0.936-0.379,0.993-0.89
	c0.068-0.628,0.17-1.262,0.299-1.882C86.571,18.469,86.224,17.94,85.683,17.828z"/>
<path fill="#0D2240" d="M86.338,26.584c-0.109-0.624-0.19-1.26-0.239-1.89c-0.043-0.551-0.536-0.949-1.075-0.919
	c-0.551,0.043-0.962,0.523-0.919,1.075c0.056,0.692,0.144,1.393,0.265,2.079c0.085,0.484,0.507,0.826,0.983,0.826
	c0.058,0,0.115-0.005,0.174-0.015C86.07,27.646,86.434,27.128,86.338,26.584z"/>
<path fill="#0D2240" d="M87.994,12.307c-0.487-0.264-1.094-0.079-1.354,0.406c-0.328,0.611-0.631,1.248-0.9,1.894
	c-0.214,0.51,0.027,1.096,0.536,1.309c0.126,0.053,0.258,0.077,0.386,0.077c0.391,0,0.763-0.229,0.923-0.614
	c0.245-0.586,0.52-1.163,0.816-1.717C88.663,13.174,88.48,12.568,87.994,12.307z"/>
<path fill="#0D2240" d="M89.766,27.503c-0.121-0.541-0.659-0.881-1.194-0.757c-0.538,0.121-0.878,0.655-0.757,1.194
	c0.153,0.681,0.339,1.359,0.555,2.02c0.138,0.422,0.528,0.689,0.95,0.689c0.104,0,0.207-0.017,0.312-0.05
	c0.524-0.172,0.812-0.735,0.64-1.262C90.074,28.74,89.905,28.122,89.766,27.503z"/>
<path fill="#0D2240" d="M89.321,21.823c0.035-0.551-0.383-1.026-0.934-1.062c-0.554-0.005-1.026,0.385-1.062,0.936
	c-0.03,0.471-0.046,0.942-0.046,1.412c0,0.228,0.004,0.455,0.011,0.682c0.017,0.542,0.461,0.969,0.999,0.969
	c0.011,0,0.021,0,0.031-0.001c0.553-0.017,0.985-0.479,0.969-1.029c-0.006-0.205-0.011-0.409-0.01-0.617
	C89.28,22.682,89.294,22.253,89.321,21.823z"/>
<path fill="#0D2240" d="M88.955,18.816c0.444,0,0.851-0.299,0.967-0.749c0.159-0.611,0.349-1.224,0.564-1.818
	c0.188-0.52-0.079-1.093-0.599-1.281s-1.093,0.079-1.281,0.599c-0.237,0.655-0.446,1.328-0.621,2
	c-0.139,0.534,0.183,1.08,0.718,1.219C88.788,18.807,88.872,18.816,88.955,18.816z"/>
<path fill="#0D2240" d="M69.378,23.321c-0.542-0.039-1.032,0.367-1.075,0.919c-0.049,0.63-0.13,1.266-0.239,1.89
	c-0.096,0.544,0.269,1.062,0.812,1.158c0.059,0.01,0.117,0.015,0.174,0.015c0.477,0,0.899-0.342,0.984-0.826
	c0.12-0.688,0.209-1.387,0.264-2.079C70.34,23.846,69.929,23.364,69.378,23.321z"/>
<path fill="#0D2240" d="M66.817,14.924c0.161,0.385,0.532,0.614,0.924,0.614c0.128,0,0.259-0.023,0.385-0.077
	c0.509-0.213,0.75-0.799,0.537-1.309c-0.271-0.646-0.573-1.281-0.901-1.894c-0.262-0.486-0.869-0.671-1.354-0.406
	c-0.487,0.262-0.67,0.866-0.408,1.354C66.297,13.76,66.572,14.338,66.817,14.924z"/>
<path fill="#0D2240" d="M68.343,29.218c-0.515-0.199-1.094,0.062-1.29,0.579c-0.224,0.588-0.479,1.176-0.762,1.745
	c-0.245,0.494-0.042,1.096,0.452,1.34c0.143,0.07,0.294,0.104,0.442,0.104c0.369,0,0.724-0.204,0.897-0.557
	c0.311-0.627,0.593-1.272,0.839-1.922C69.119,29.992,68.859,29.414,68.343,29.218z"/>
<path fill="#0D2240" d="M67.943,18.557c0.129,0.619,0.23,1.253,0.3,1.881c0.057,0.511,0.489,0.89,0.992,0.89
	c0.037,0,0.074-0.002,0.111-0.006c0.549-0.062,0.945-0.555,0.884-1.104c-0.077-0.689-0.188-1.387-0.33-2.067
	c-0.112-0.54-0.642-0.891-1.183-0.774C68.178,17.486,67.831,18.016,67.943,18.557z"/>
<path fill="#0D2240" d="M66.08,24.304c0.011,0.001,0.021,0.001,0.031,0.001c0.538,0,0.982-0.428,0.999-0.97
	c0.008-0.227,0.012-0.454,0.011-0.68c0-0.472-0.016-0.943-0.045-1.414c-0.035-0.552-0.5-0.956-1.062-0.935
	c-0.551,0.034-0.969,0.511-0.934,1.062c0.026,0.43,0.041,0.858,0.041,1.289c0,0.206-0.003,0.41-0.01,0.615
	C65.094,23.825,65.528,24.287,66.08,24.304z"/>
<path fill="#0D2240" d="M65.446,18.362c0.083,0,0.167-0.01,0.251-0.032c0.535-0.139,0.855-0.685,0.718-1.219
	c-0.174-0.672-0.383-1.345-0.621-2c-0.189-0.52-0.764-0.788-1.281-0.598c-0.519,0.188-0.787,0.762-0.599,1.28
	c0.216,0.597,0.406,1.207,0.564,1.818C64.596,18.063,65.001,18.362,65.446,18.362z"/>
<path fill="#0D2240" d="M65.83,26.292c-0.536-0.118-1.074,0.218-1.194,0.757c-0.139,0.619-0.309,1.237-0.504,1.836
	c-0.171,0.525,0.115,1.091,0.64,1.262c0.104,0.034,0.208,0.05,0.312,0.05c0.421,0,0.812-0.269,0.951-0.689
	c0.215-0.658,0.4-1.339,0.554-2.02C66.708,26.947,66.369,26.413,65.83,26.292z"/>
<path fill="#0D2240" d="M63.992,11.334c-0.357-0.595-0.749-1.181-1.163-1.741c-0.328-0.442-0.954-0.538-1.398-0.211
	c-0.444,0.328-0.538,0.955-0.21,1.398c0.377,0.511,0.732,1.043,1.057,1.583c0.188,0.312,0.52,0.485,0.858,0.485
	c0.175,0,0.354-0.047,0.514-0.144C64.123,12.422,64.276,11.808,63.992,11.334z"/>
</svg>
