<?xml version="1.0" encoding="utf-8"?>
<!-- Generator: Adobe Illustrator 23.0.4, SVG Export Plug-In . SVG Version: 6.00 Build 0)  -->
<svg version="1.1" id="Layer_1" xmlns="http://www.w3.org/2000/svg" xmlns:xlink="http://www.w3.org/1999/xlink" x="0px" y="0px"
	 width="219.2px" height="160px" viewBox="0 0 219.2 160" style="enable-background:new 0 0 219.2 160;" xml:space="preserve">
<style type="text/css">
	.st0{fill:#FFFBF4;}
	.st1{fill:#001641;}
</style>
<g>
	<path class="st0" d="M41.57,71.37c1.88-1.2,3.43-2.95,4.59-4.85c1.21-1.98,2.06-4.27,2.43-6.56c0.21-1.29,0.36-3.22-0.9-4.07
		c-0.75-0.5-1.61-0.4-2.35,0.05c-1.85,1.11-2.85,3.29-3.66,5.19c-0.48,1.12-0.96,2.25-1.44,3.37c-0.56,1.31-1.12,2.62-1.67,3.93
		c-0.46,1.09-0.93,2.17-1.39,3.26c-0.19,0.45-0.39,0.91-0.58,1.36c0.93-0.09,1.85-0.29,2.74-0.59
		C40.12,72.18,40.87,71.82,41.57,71.37z"/>
	<path class="st0" d="M121.51,146.31c-0.24-0.01-0.34-0.31-0.17-0.48c1.26-1.22,2.65-2.34,4.21-3.15c0.62-0.32,1.35-0.63,2.1-0.87
		c-1.37-0.38-2.77-0.81-4.2-1.3c-3.65,2.26-8.5,2.99-12.73,2.44c-0.24-0.03-0.32-0.33-0.14-0.49c1.44-1.22,3.01-2.31,4.74-3.06
		c0.82-0.35,1.8-0.68,2.78-0.88c-1.56-0.63-3.12-1.28-4.65-1.95c-3.7,2.25-8.62,2.93-12.88,2.3c-0.24-0.03-0.32-0.34-0.13-0.49
		c1.46-1.19,3.04-2.26,4.79-2.98c1.01-0.41,2.24-0.78,3.43-0.94c-1.71-0.76-3.44-1.53-5.19-2.28c-3.42,2.58-8.18,3.76-12.44,3.6
		c-0.24-0.01-0.35-0.3-0.18-0.47c1.32-1.34,2.78-2.58,4.44-3.49c1.11-0.61,2.53-1.18,3.87-1.43c-1.62-0.64-3.41-1.31-5.33-1.93
		c-2.92,2.91-7.25,4.69-11.31,5.17c-0.24,0.03-0.39-0.24-0.25-0.44c1.08-1.49,2.29-2.9,3.76-4.02c0.96-0.73,2.2-1.48,3.42-1.92
		c-1.79-0.41-3.64-0.72-5.51-0.88c-2.15,3.1-5.8,5.4-9.4,6.45c-0.23,0.07-0.43-0.18-0.32-0.39c0.73-1.47,1.61-2.89,2.74-4.09
		c0.67-0.71,1.55-1.47,2.46-2.04c-1.84,0.1-3.68,0.34-5.51,0.69c-1.86,2.64-4.89,4.66-7.92,5.67c-0.23,0.08-0.43-0.16-0.33-0.38
		c0.61-1.32,1.34-2.6,2.31-3.69c0.05-0.06,0.1-0.11,0.15-0.17c-2,0.59-3.98,1.25-5.9,1.94c6.2,5.99,13.35,10.72,21.27,14.07
		c8.59,3.63,17.72,5.48,27.14,5.48c9.42,0,18.55-1.84,27.14-5.48c0.46-0.2,0.93-0.4,1.38-0.61c-1.88-0.12-3.81-0.35-5.81-0.71
		C130.06,145.51,125.54,146.54,121.51,146.31z"/>
	<path class="st0" d="M218.03,51.46c-1.25-1.85-3.34-2.95-5.57-2.95h-5.49c-2.76,0-5.21,1.65-6.24,4.21l-5,12.37
		c-0.9-0.2-1.83-0.3-2.77-0.3c-1.23,0-2.46,0.17-3.68,0.5c-0.09-0.47-0.18-0.93-0.27-1.4l2.47-6.19c0.83-2.08,0.57-4.42-0.68-6.27
		c-1.25-1.85-3.34-2.95-5.57-2.95h-1.04C171.95,19.97,143.62,0,110.63,0C79.26,0,52.11,18.05,39,44.34
		c-2.14,1.16-4.06,2.84-5.76,5.05c-0.15,0.19-0.29,0.38-0.43,0.57c-0.88-0.76-2.2-1.42-4.08-1.42c-0.33,0-0.69,0.02-1.09,0.06
		c-6.86,0.68-13.72,6.67-13.54,16.8c0.07,4.27,1.72,7.77,3.83,10.44c-0.39-0.02-0.79-0.03-1.17-0.03c-2.71,0-5.23,0.55-7.5,1.64
		c-5,2.41-8.51,7.27-9.16,12.68c-0.45,3.76,0.71,7.51,3.26,10.56c2.88,3.45,7.28,5.67,11.77,5.95l0.11,0.01l0.11,0
		c0.14,0,0.27,0,0.41,0c4.89,0,8.67-1.8,11.34-3.77c2.26,2.34,5.33,4.86,9.09,6.43C47.87,139,76.8,160,110.63,160
		c36.67,0,67.58-24.67,77.03-58.33c0.38,0.03,0.77,0.05,1.16,0.05c1.36,0,2.7-0.18,3.98-0.55c1.12-0.32,2.21-0.79,3.28-1.42
		c2.08,1.1,4.4,1.67,6.87,1.67c3.5,0,6.72-1.09,9.07-3.08c2.95-2.5,4.57-6.51,4.31-10.73c-0.22-3.67-2.61-5.23-3.62-5.73l-0.03-0.01
		c-0.85-0.41-1.76-0.62-2.69-0.62c-0.19,0-0.38,0.01-0.57,0.03l9.31-23.55C219.55,55.64,219.29,53.3,218.03,51.46z M110.61,5.46
		c30.54,0,56.8,18.32,68.39,44.57h-5.5c-3.41-7.1-7.97-13.53-13.59-19.15c-0.18-0.18-0.36-0.35-0.54-0.53
		c-4.36-2.09-9.26-4.21-14.59-5.76c0.38,0.4,0.73,0.82,1.03,1.21c1.13,1.48,1.93,3.18,2.58,4.92c0.08,0.22-0.14,0.44-0.36,0.35
		c-3.79-1.54-7.5-4.41-9.57-7.98c-0.08-0.01-0.16-0.03-0.23-0.04c-1.68-0.29-3.36-0.49-5.03-0.6c0.87,0.62,1.69,1.38,2.34,2.1
		c1.28,1.42,2.25,3.08,3.06,4.81c0.1,0.22-0.1,0.45-0.33,0.38c-3.99-1.24-8.02-3.85-10.44-7.31c-1.41,0.08-2.8,0.23-4.19,0.44
		c-0.4,0.06-0.8,0.13-1.19,0.21c1.21,0.52,2.42,1.3,3.36,2.05c1.58,1.27,2.89,2.85,4.03,4.53c0.13,0.2-0.03,0.46-0.26,0.43
		c-4.35-0.6-8.97-2.61-12.1-5.77c-1.87,0.58-3.71,1.26-5.49,2.02c1.43,0.29,2.94,0.94,4.12,1.61c1.77,1.01,3.3,2.36,4.69,3.84
		c0.16,0.17,0.04,0.46-0.19,0.47c-4.45,0.09-9.41-1.2-13-3.9c-1.43,0.7-2.84,1.43-4.22,2.17c-0.4,0.21-0.8,0.43-1.21,0.63
		c1.62,0.06,3.49,0.64,4.92,1.29c1.85,0.85,3.5,2.06,5.01,3.41c0.18,0.16,0.08,0.46-0.15,0.48c-4.68,0.51-10.04-0.46-13.93-3.16
		c-1.68,0.77-3.35,1.49-5.03,2.15c1.44,0.25,2.98,0.84,4.18,1.48c1.8,0.95,3.37,2.26,4.81,3.69c0.17,0.17,0.06,0.46-0.18,0.47
		c-4.67,0.24-9.94-1.02-13.65-3.89c-1.54,0.51-3.08,0.97-4.61,1.38c1.27,0.39,2.56,1.03,3.58,1.69c1.71,1.09,3.18,2.53,4.49,4.07
		c0.15,0.18,0.02,0.46-0.22,0.46c-4.66-0.14-9.78-1.82-13.25-4.96c-1.41,0.28-2.83,0.52-4.23,0.71c0.94,0.54,1.84,1.21,2.57,1.86
		c1.52,1.35,2.74,3,3.8,4.72c0.12,0.2-0.05,0.46-0.29,0.42c-4.34-0.83-8.88-3.08-11.84-6.43c-1.4,0.08-2.8,0.13-4.2,0.13
		c-0.38,0-0.75-0.01-1.13-0.01c0.83,0.61,1.6,1.33,2.22,2.01c1.37,1.5,2.41,3.27,3.28,5.1c0.1,0.21-0.1,0.45-0.33,0.39
		c-4.32-1.3-8.7-4.11-11.27-7.87c-1.11-0.12-2.22-0.27-3.31-0.44c-0.85,1.22-1.67,2.47-2.45,3.74h-5.77
		C57.95,21.03,82.46,5.46,110.61,5.46z M139.63,58.16c-0.37-0.14-6.72-2.8-6.72-2.8l-5.08,12.84h7.25c0.43,0,0.71,0.43,0.55,0.83
		l-2.33,5.87c-0.09,0.22-0.31,0.37-0.55,0.37h-7.75l-7.86,19.79c-0.18,0.45-0.62,0.75-1.11,0.75h-6.45c-0.42,0-0.71-0.42-0.55-0.82
		l16.78-42.26c-6.93-3.11-10.63-1.7-11.37,0.82c-0.45,1.78,0.23,3.29,1.26,4.05c0.43,0.32,0.59,0.89,0.39,1.39l-1.44,3.64
		c-0.25,0.62-0.96,0.92-1.57,0.66c-2.3-0.99-4.55-3.14-5.35-5.58c-0.98-2.99-0.26-6.55,1.68-9.01c2.14-2.71,5.6-4,8.96-4.25
		c4.02-0.3,8,0.94,11.66,2.43c2.26,0.92,4.5,1.88,6.76,2.82c7.05,2.94,14.26,5.65,21.9,6.46c3.51,0.37,7.39,0.74,10.71-0.72
		c0.78-0.34,1.37-0.73,1.94-1.12c0.39-0.27,0.97-0.93,1.6-0.55c0.62,0.37,0.26,1.1-0.02,1.6c-0.64,1.18-1.56,2.2-2.59,3.06
		c-4.06,3.37-10.23,3.78-15.29,3.43C149.77,61.48,144.54,60,139.63,58.16z M147.98,66.92c0,2.21-1.79,4.01-4.01,4.01
		c-2.21,0-4.01-1.79-4.01-4.01c0-2.21,1.79-4.01,4.01-4.01C146.19,62.92,147.98,64.71,147.98,66.92z M137.77,105.7v2.61h-3.18v1.28
		h3.72v2.92h-7.08v-10.95h7.03v2.93h-3.67v1.22H137.77z M127.21,101.56l-2.33,10.95h-3.21l-1.69-5.46l-0.08-0.39l-0.08,0.39
		l-1.69,5.46h-3.21l-2.33-10.95h3.62l0.85,4.71l0.08,0.39l0.08-0.39l1.44-4.71h2.46l1.44,4.71l0.08,0.39l0.08-0.39l0.85-4.71H127.21
		z M107.96,105.7v2.61h-3.18v1.28h3.72v2.92h-7.08v-10.95h7.03v2.93h-3.67v1.22H107.96z M99.65,74.9l-3.98,9.86
		c-0.62,1.55-0.06,3.71,1.27,4.72c2.19,1.67,4.75,0.21,5.78-1.98c0.2-0.44,0.72-0.79,1.16-0.58c0.42,0.21,0.49,0.58,0.52,1.01
		c0.13,2.25-0.61,4.64-2.37,6.13c-1.52,1.28-3.57,1.77-5.49,1.77c-5.24,0-7.87-3.23-8.63-4.36c-0.13-0.19-0.4-0.21-0.55-0.04
		c-1.68,1.76-4.66,4.39-9.41,4.39c-3.91,0-6.21-2.02-7.06-2.94c-0.18-0.19-0.5-0.14-0.6,0.11l-7.5,18.83
		c-0.18,0.45-0.62,0.75-1.11,0.75h-5.55c-0.84,0-1.42-0.85-1.11-1.63l6.82-17.16c0.13-0.32-0.24-0.62-0.53-0.43
		c-4.56,3.05-10.02,3.13-13.39,0.84c-3.61-2.46-4.82-9.26,0.27-16.68c5.09-7.41,12.1-9.61,15.79-6.29c3.69,3.32,1.5,8.67-2.36,11.75
		c-3.85,3.08-9.4,2.94-9.4,2.94s-1.53,3.96,1.15,4.58c2.68,0.62,10.28-1.23,12.93-7.95l6.65-16.78c1.67-4.2,3.16-8.84,6.17-11.98
		c2.28-2.32,5.72-2.98,8.65-1.42c3.1,1.64,3.98,5.26,3.75,8.53c-0.7,10.03-7.56,21.83-16.69,24.52c0,0-0.17,4.07,4,4.07
		c4.18,0,8.44-3.81,10.09-8.02l8.01-20.15c0.18-0.45,0.62-0.75,1.11-0.75h5.58c0.84,0,1.42,0.85,1.11,1.63l-2.45,6.17H111
		c0.42,0,0.71,0.42,0.55,0.81l-2.12,5.43c-0.09,0.23-0.31,0.38-0.56,0.38L99.65,74.9z M95.22,108.54l2.06,3.97h-3.72l-1.47-3.82
		h-0.23v3.82h-3.36v-10.95h3.87c2.74,0,4.34,1.33,4.34,3.56c0,1.43-0.64,2.48-1.79,3.05L95.22,108.54z M84.24,109.62
		c0,1.81-1.43,2.88-3.85,2.88h-4.67v-3.57v-7.38h4.39c0.1,0,0.21,0.01,0.31,0.01c2.16,0.1,3.43,1.25,3.43,3.13
		c0,0.94-0.69,1.94-1.83,2.24C83.4,107.16,84.24,108.16,84.24,109.62z M27.97,95.26c-0.23-0.34-0.73-0.34-0.97-0.01
		c-1.7,2.33-5.69,5.98-11.55,5.86c-5.36-0.33-10.51-4.88-9.86-10.32c0.43-3.58,2.83-6.79,6.06-8.35c3.9-1.88,8.65-1.1,12.48,0.57
		l2.8-6.71c0,0-7.16-3.55-7.29-11c-0.13-7.45,4.82-10.82,8.54-11.19c3.73-0.37-3.16,2.42-3,9.7c0.26,5.08,4.02,6.98,4.02,6.98
		c0.91-2.17,1.82-4.34,2.73-6.52c2.86-6.83,5.9-16.47,15.03-16.29c5.43,0.11,8.48,4.69,8.8,9.73c0.37,6.06-3.04,12.35-7.5,16.31
		c-4.4,3.59-8.71,5.05-13.83,4.45l-4,9.42c0,0,5.72,7.72,11.31,9.28c5.59,1.55,9.2,1.01,12.43,0.15c1.92-0.52,1.27,1.26,0.69,2.28
		c-3.01,5.3-9.96,6.79-15.44,5.01C33.53,102.67,29.36,97.28,27.97,95.26z M110.61,154.91c-31.27,0-58.06-19.21-69.2-46.47h5.44
		c3.08,6.95,7.25,13.3,12.4,18.9c1.77-0.65,3.6-1.29,5.46-1.89c-0.84-0.2-1.68-0.51-2.37-0.85c-1.32-0.64-2.5-1.54-3.58-2.53
		c-0.18-0.16-0.08-0.46,0.16-0.48c3.45-0.26,7.35,0.55,10.16,2.57c1.6-0.42,3.23-0.79,4.87-1.08c-0.69-0.39-1.34-0.84-1.89-1.28
		c-1.31-1.06-2.39-2.37-3.33-3.76c-0.14-0.2,0.03-0.47,0.26-0.43c3.63,0.54,7.45,2.23,10.06,4.87c1.14-0.07,2.28-0.08,3.43-0.04
		c0.52,0.02,1.04,0.05,1.56,0.09c-0.58-0.61-1.11-1.27-1.52-1.9c-0.97-1.45-1.63-3.07-2.14-4.73c-0.08-0.25,0.18-0.47,0.42-0.36
		c3.35,1.62,6.56,4.39,8.34,7.71c1.94,0.4,3.82,0.91,5.59,1.47c-0.64-0.7-1.22-1.48-1.66-2.2c-0.98-1.58-1.62-3.35-2.1-5.15
		c-0.06-0.23,0.18-0.43,0.39-0.32c3.9,2.04,7.56,5.6,9.12,9.73c0.13,0.05,0.26,0.1,0.39,0.15c1.44,0.57,2.88,1.18,4.3,1.79
		c-0.74-0.94-1.37-2.06-1.8-3.06c-0.74-1.71-1.12-3.55-1.33-5.4c-0.03-0.24,0.24-0.4,0.44-0.26c3.54,2.57,6.63,6.59,7.6,10.87
		c0.1,0.04,0.19,0.09,0.29,0.13c1.35,0.6,2.72,1.21,4.11,1.81c-0.67-0.94-1.24-2.03-1.62-3.01c-0.7-1.76-1.02-3.64-1.18-5.52
		c-0.02-0.24,0.25-0.39,0.44-0.24c3.4,2.63,6.33,6.63,7.28,10.84c1.12,0.45,2.24,0.89,3.37,1.3c0.42,0.15,0.83,0.3,1.24,0.44
		c-0.78-0.96-1.45-2.11-1.9-3.14c-0.77-1.73-1.17-3.6-1.4-5.47c-0.03-0.24,0.24-0.4,0.43-0.26c3.46,2.45,6.51,6.26,7.67,10.37
		c1.72,0.47,3.39,0.86,5.02,1.16c-0.85-0.8-1.61-1.78-2.18-2.67c-1.01-1.6-1.69-3.38-2.19-5.2c-0.06-0.23,0.18-0.43,0.39-0.32
		c3.69,1.87,7.19,5.08,8.98,8.86c1.7,0.13,3.35,0.15,4.96,0.06c-0.86-0.54-1.68-1.2-2.34-1.83c-1.36-1.31-2.44-2.88-3.37-4.53
		c-0.12-0.21,0.07-0.46,0.3-0.41c3.64,0.85,7.39,2.79,10.02,5.54c4.14-2.67,7.99-5.78,11.52-9.31c6.41-6.41,11.43-13.86,14.94-22.16
		c1.01-2.4,1.88-4.83,2.62-7.31h5.2C173.99,131.66,145.01,154.91,110.61,154.91z M149.87,108.54l2.06,3.97h-3.72l-1.47-3.82h-0.23
		v3.82h-3.36v-10.95h3.87c2.74,0,4.34,1.33,4.34,3.56c0,1.43-0.64,2.48-1.79,3.05L149.87,108.54z M154.23,101.56h3.78l1.29,2.85
		l0.08,0.39l0.08-0.39l1.28-2.85h3.8l-3.49,6.5v4.46h-3.36V108L154.23,101.56z M213.57,55.68l-11.56,29.26
		c-0.45,1.33-0.23,3.25,0.78,4.21c0.99,0.93,2.56,1.29,3.86,0.91c1.2-0.35,1.98-1.45,2.49-2.53c0.23-0.45,0.65-0.82,1.11-0.64
		c0.42,0.21,0.52,0.61,0.55,1.04c0.13,2.25-0.59,4.68-2.36,6.17c-1.52,1.28-3.57,1.77-5.49,1.77c-3.07,0-5.22-1.37-6.63-2.79
		c-0.17-0.17-0.44-0.18-0.62-0.01c-1.27,1.22-2.74,2.28-4.43,2.77c-3.03,0.86-6.7,0.05-8.86-2.3l-0.64-0.8
		c-0.17-0.22-0.44-0.22-0.6-0.03c-0.98,1.16-3.2,3.08-6.75,3.08c-4.7,0-6.52-3.72-7.31-5.93c-0.09-0.25-0.4-0.31-0.58-0.13
		c-7.42,7.27-13.88,6.91-17.43,4.49c-0.62-0.42-1.17-0.97-1.62-1.63c-0.12-0.18-0.38-0.2-0.54-0.05c-2.93,2.78-6.2,3.39-8.57,3.22
		c-2.49-0.19-5.04-1.74-5.7-4.27c-0.6-2.31-0.19-4.91,0.65-7.12c0.97-2.54,3.19-8.1,4-10.11c0.18-0.45,0.62-0.74,1.1-0.74l6.47,0
		c0.42,0,0.71,0.42,0.55,0.81c-1.1,2.76-4.62,11.57-4.62,11.59c-0.69,1.73-1.76,4.52,0.63,5.4c1.46,0.54,3.26-0.46,4.57-1.64
		c0.11-0.1,0.16-0.26,0.13-0.41c-0.58-3.18,0.22-7.34,3.23-11.72c5.09-7.41,12.1-9.61,15.79-6.29c3.69,3.32,1.5,8.67-2.36,11.75
		c-3.85,3.08-9.4,2.94-9.4,2.94s-1.53,3.96,1.15,4.58c2.68,0.62,10.28-1.23,12.93-7.95l11.11-27.8c0.18-0.45,0.62-0.75,1.11-0.75
		h5.51c0.84,0,1.42,0.85,1.11,1.63l-11.07,27.79c-0.94,2.52-0.81,4.49,0.04,5.45c0.81,0.92,3.09,1.16,4.62-0.1
		c0.12-0.1,0.18-0.26,0.16-0.42c-0.15-0.93-0.19-1.88-0.15-2.81c0.1-2.12,0.65-4.22,1.52-6.15c3.01-6.73,9.53-10.65,14.42-8.46
		c1.04,0.47,1.93,1.16,2.66,2.03l7.34-18.17c0.18-0.45,0.62-0.74,1.1-0.74h5.49C213.31,54.05,213.88,54.9,213.57,55.68z"/>
	<path class="st0" d="M59.61,78.18c0.29-0.4,1.74-2.96,0.43-2.71c-0.63,0.12-1.24,0.5-1.74,0.89c-1.14,0.89-2.05,2.06-2.86,3.24
		c-0.43,0.63-0.85,1.28-1.22,1.96c0.05-0.09,0.68-0.18,0.8-0.22C56.75,80.8,58.54,79.66,59.61,78.18z"/>
	<path class="st0" d="M71.58,28.93c0.21-0.08,0.42,0.12,0.34,0.34c-0.66,1.8-1.5,3.56-2.66,5.09c-0.75,0.99-1.78,2.07-2.88,2.86
		c1.81-0.07,3.62-0.21,5.45-0.42c1.76-4.21,5.49-7.86,9.48-10.01c0.21-0.11,0.46,0.08,0.4,0.31c-0.49,1.97-1.15,3.91-2.19,5.65
		c-0.66,1.1-1.59,2.33-2.62,3.27c1.69-0.32,3.39-0.7,5.09-1.15c0.01-0.02,0.01-0.03,0.02-0.05c1.43-4.58,5.19-8.67,9.3-11.12
		c0.2-0.12,0.46,0.06,0.41,0.29c-0.4,1.99-0.99,3.95-1.95,5.74c-0.67,1.24-1.67,2.65-2.78,3.67c1.92-0.63,3.84-1.34,5.77-2.13
		c0.83-4.61,3.87-9.06,7.48-12.01c0.18-0.15,0.46-0.01,0.45,0.23c-0.1,2.02-0.39,4.06-1.08,5.97c-0.42,1.17-1.07,2.51-1.87,3.61
		c1.28-0.61,2.56-1.26,3.84-1.94c0.34-0.18,0.68-0.36,1.02-0.54c0.69-4.49,3.56-8.88,7.02-11.81c0.18-0.15,0.46-0.01,0.45,0.22
		c-0.07,1.94-0.32,3.89-0.95,5.73c-0.38,1.12-0.98,2.39-1.71,3.45c1.53-0.72,3.08-1.4,4.68-2.03c1-3.88,3.83-7.49,7.06-9.83
		c0.19-0.14,0.46,0.02,0.43,0.26c-0.2,1.72-0.57,3.43-1.26,5.03c-0.43,0.98-1.05,2.08-1.79,2.98c1.38-0.42,2.79-0.79,4.23-1.09
		c1.49-2.91,4.23-5.33,7.2-6.87c-5.62-1.44-11.42-2.17-17.33-2.17c-9.42,0-18.55,1.84-27.14,5.48c-8.3,3.51-15.76,8.54-22.16,14.94
		c-1.87,1.87-3.62,3.84-5.26,5.88c1.86,0.23,3.73,0.39,5.62,0.46C63.79,33.51,67.65,30.52,71.58,28.93z"/>
	<path class="st0" d="M194.78,76.4c-1.95-0.91-4.97,1.43-6.73,5.22c-1.76,3.79-1.61,7.6,0.34,8.51c1.55,0.72,2.82-0.17,3.66-1.39
		c0.17-0.25,0.33-0.52,0.46-0.78c0.78-1.55,2.64-6.27,3.42-8.24c0.33-0.84,0.25-1.79-0.25-2.53
		C195.44,76.84,195.14,76.57,194.78,76.4z"/>
	<path class="st0" d="M156.02,81.43c1.69-0.49,3.27-1.34,4.39-2.72c0.58-0.72,1.32-1.8,1.38-2.75c0.02-0.34-0.23-0.51-0.55-0.45
		c-0.63,0.12-1.24,0.5-1.74,0.89c-1.14,0.89-2.05,2.06-2.86,3.24c-0.43,0.63-0.85,1.28-1.22,1.96c0.02-0.03,0.25-0.06,0.29-0.07
		C155.82,81.49,155.92,81.46,156.02,81.43z"/>
	<path class="st0" d="M92.34,104.49h-0.56v2.12h0.56c0.56,0,0.88-0.41,0.88-1.07C93.23,104.88,92.9,104.49,92.34,104.49z"/>
	<path class="st0" d="M80.47,105.15c0-0.47-0.28-0.78-0.62-0.78H79.4h-0.34v0.67v0.9h0.69C80.16,105.95,80.47,105.64,80.47,105.15z"
		/>
	<path class="st0" d="M146.99,104.49h-0.56v2.12h0.56c0.56,0,0.88-0.41,0.88-1.07C147.87,104.88,147.54,104.49,146.99,104.49z"/>
	<path class="st0" d="M138.89,19.27c3.44,0.6,6.73,1.49,9.85,2.53c-3.32-2.17-6.82-4.06-10.49-5.64c-0.4,0.46-0.82,0.9-1.29,1.3
		c-0.53,0.45-1.17,0.92-1.85,1.3C136.38,18.88,137.64,19.05,138.89,19.27z"/>
	<path class="st0" d="M79.93,108.1h-0.87v1.65h1.02c0.39,0,0.74-0.31,0.74-0.81C80.81,108.42,80.37,108.1,79.93,108.1z"/>
	<path class="st0" d="M15.72,88.72c-0.92,0.27-1.8,0.78-2.27,1.63c-0.55,1-0.54,2.19,0.56,2.73c1.15,0.57,2.66,0.32,3.75-0.16
		c2.29-1.02,3.68-3.51,3.68-3.51S18.86,87.8,15.72,88.72z"/>
	<path class="st0" d="M83.91,70.51c4.3-8.74,0.67-13.69-0.24-11.5c-1.15,2.87-8.51,21.71-8.51,21.71S80.27,77.51,83.91,70.51z"/>
	<path class="st0" d="M125.39,18.78c1.79-0.19,3.6-0.27,5.41-0.25c1.26-1.46,2.94-2.63,4.76-3.46c-1.97-0.76-3.96-1.42-5.98-1.99
		c-0.52,1.22-1.15,2.4-1.96,3.45C127.03,17.29,126.24,18.13,125.39,18.78z"/>
	<path class="st1" d="M53.43,40.28c1.1,0.18,2.2,0.32,3.31,0.44c2.57,3.76,6.95,6.57,11.27,7.87c0.23,0.07,0.43-0.17,0.33-0.39
		c-0.87-1.83-1.91-3.6-3.28-5.1c-0.62-0.68-1.39-1.4-2.22-2.01c0.38,0.01,0.75,0.01,1.13,0.01c1.39,0,2.79-0.04,4.2-0.13
		c2.96,3.35,7.5,5.6,11.84,6.43c0.23,0.04,0.41-0.21,0.29-0.42c-1.06-1.73-2.28-3.38-3.8-4.72c-0.73-0.65-1.63-1.32-2.57-1.86
		c1.41-0.2,2.82-0.43,4.23-0.71c3.47,3.15,8.59,4.82,13.25,4.96c0.24,0.01,0.37-0.28,0.22-0.46c-1.32-1.54-2.78-2.98-4.49-4.07
		c-1.02-0.65-2.31-1.3-3.58-1.69c1.54-0.41,3.07-0.87,4.61-1.38c3.72,2.87,8.98,4.14,13.65,3.89c0.24-0.01,0.35-0.31,0.18-0.47
		c-1.44-1.43-3.02-2.74-4.81-3.69c-1.2-0.64-2.74-1.23-4.18-1.48c1.68-0.66,3.36-1.38,5.03-2.15c3.88,2.69,9.25,3.67,13.93,3.16
		c0.24-0.03,0.33-0.33,0.15-0.48c-1.52-1.34-3.17-2.56-5.01-3.41c-1.43-0.65-3.3-1.23-4.92-1.29c0.4-0.21,0.81-0.42,1.21-0.63
		c1.38-0.73,2.79-1.46,4.22-2.17c3.6,2.71,8.55,3.99,13,3.9c0.24,0,0.36-0.29,0.19-0.47c-1.39-1.47-2.93-2.83-4.69-3.84
		c-1.18-0.67-2.69-1.32-4.12-1.61c1.79-0.76,3.62-1.44,5.49-2.02c3.12,3.16,7.74,5.17,12.1,5.77c0.24,0.03,0.4-0.23,0.26-0.43
		c-1.14-1.67-2.45-3.26-4.03-4.53c-0.94-0.75-2.14-1.53-3.36-2.05c0.4-0.07,0.79-0.14,1.19-0.21c1.38-0.22,2.78-0.36,4.19-0.44
		c2.42,3.46,6.45,6.07,10.44,7.31c0.23,0.07,0.43-0.17,0.33-0.38c-0.81-1.72-1.78-3.39-3.06-4.81c-0.64-0.72-1.46-1.47-2.34-2.1
		c1.67,0.11,3.35,0.31,5.03,0.6c0.08,0.01,0.16,0.03,0.23,0.04c2.07,3.57,5.78,6.44,9.57,7.98c0.22,0.09,0.44-0.13,0.36-0.35
		c-0.65-1.74-1.46-3.44-2.58-4.92c-0.3-0.4-0.65-0.81-1.03-1.21c5.33,1.55,10.23,3.67,14.59,5.76c0.18,0.18,0.36,0.35,0.54,0.53
		c5.62,5.62,10.18,12.05,13.59,19.15h5.5c-11.59-26.25-37.85-44.57-68.39-44.57c-28.15,0-52.66,15.56-65.4,38.56h5.77
		C51.76,42.75,52.57,41.5,53.43,40.28z M138.26,16.16c3.67,1.59,7.17,3.47,10.49,5.64c-3.12-1.04-6.41-1.93-9.85-2.53
		c-1.26-0.22-2.51-0.39-3.77-0.51c0.68-0.38,1.32-0.84,1.85-1.3C137.44,17.06,137.87,16.63,138.26,16.16z M135.56,15.06
		c-1.82,0.83-3.5,2-4.76,3.46c-1.82-0.02-3.62,0.07-5.41,0.25c0.85-0.65,1.64-1.48,2.24-2.25c0.81-1.05,1.44-2.23,1.96-3.45
		C131.6,13.64,133.59,14.31,135.56,15.06z M61.31,30.88c6.41-6.41,13.86-11.43,22.16-14.94c8.59-3.63,17.72-5.48,27.14-5.48
		c5.91,0,11.71,0.73,17.33,2.17c-2.97,1.55-5.7,3.97-7.2,6.87c-1.44,0.3-2.85,0.67-4.23,1.09c0.74-0.9,1.36-2,1.79-2.98
		c0.69-1.59,1.06-3.31,1.26-5.03c0.03-0.24-0.24-0.4-0.43-0.26c-3.23,2.33-6.06,5.95-7.06,9.83c-1.59,0.63-3.15,1.31-4.68,2.03
		c0.74-1.06,1.33-2.33,1.71-3.45c0.63-1.84,0.88-3.79,0.95-5.73c0.01-0.24-0.27-0.38-0.45-0.22c-3.45,2.93-6.33,7.31-7.02,11.81
		c-0.34,0.18-0.68,0.36-1.02,0.54c-1.28,0.68-2.56,1.33-3.84,1.94c0.8-1.1,1.45-2.44,1.87-3.61c0.69-1.91,0.98-3.94,1.08-5.97
		c0.01-0.24-0.27-0.38-0.45-0.23c-3.6,2.95-6.64,7.4-7.48,12.01c-1.92,0.79-3.85,1.5-5.77,2.13c1.11-1.02,2.11-2.42,2.78-3.67
		c0.97-1.79,1.55-3.75,1.95-5.74c0.05-0.23-0.21-0.42-0.41-0.29c-4.11,2.45-7.87,6.54-9.3,11.12c-0.01,0.02-0.01,0.03-0.02,0.05
		c-1.7,0.44-3.4,0.83-5.09,1.15c1.03-0.94,1.96-2.17,2.62-3.27c1.04-1.74,1.71-3.68,2.19-5.65c0.06-0.23-0.19-0.42-0.4-0.31
		c-3.99,2.15-7.72,5.8-9.48,10.01c-1.83,0.21-3.65,0.35-5.45,0.42c1.09-0.78,2.13-1.86,2.88-2.86c1.16-1.53,2-3.29,2.66-5.09
		c0.08-0.21-0.13-0.42-0.34-0.34c-3.93,1.59-7.79,4.57-9.9,8.29c-1.89-0.07-3.76-0.22-5.62-0.46
		C57.69,34.72,59.44,32.76,61.31,30.88z"/>
	<path class="st1" d="M174.86,107.33c-3.51,8.3-8.54,15.76-14.94,22.16c-3.53,3.53-7.38,6.64-11.52,9.31
		c-2.64-2.76-6.38-4.7-10.02-5.54c-0.23-0.05-0.42,0.2-0.3,0.41c0.92,1.64,2,3.22,3.37,4.53c0.66,0.63,1.47,1.29,2.34,1.83
		c-1.6,0.08-3.25,0.07-4.96-0.06c-1.79-3.78-5.29-6.99-8.98-8.86c-0.21-0.11-0.45,0.09-0.39,0.32c0.5,1.82,1.18,3.6,2.19,5.2
		c0.57,0.89,1.33,1.87,2.18,2.67c-1.63-0.3-3.3-0.68-5.02-1.16c-1.16-4.11-4.21-7.92-7.67-10.37c-0.19-0.14-0.46,0.02-0.43,0.26
		c0.23,1.87,0.63,3.74,1.4,5.47c0.46,1.03,1.12,2.19,1.9,3.14c-0.41-0.14-0.82-0.29-1.24-0.44c-1.12-0.41-2.25-0.85-3.37-1.3
		c-0.95-4.22-3.88-8.22-7.28-10.84c-0.19-0.15-0.46,0.01-0.44,0.24c0.16,1.88,0.48,3.76,1.18,5.52c0.39,0.97,0.95,2.07,1.62,3.01
		c-1.38-0.6-2.75-1.21-4.11-1.81c-0.1-0.04-0.19-0.09-0.29-0.13c-0.97-4.28-4.06-8.3-7.6-10.87c-0.19-0.14-0.46,0.02-0.44,0.26
		c0.21,1.85,0.59,3.69,1.33,5.4c0.43,1,1.06,2.12,1.8,3.06c-1.43-0.61-2.86-1.22-4.3-1.79c-0.13-0.05-0.26-0.1-0.39-0.15
		c-1.56-4.12-5.22-7.69-9.12-9.73c-0.21-0.11-0.45,0.09-0.39,0.32c0.48,1.8,1.12,3.56,2.1,5.15c0.45,0.72,1.02,1.5,1.66,2.2
		c-1.78-0.56-3.65-1.07-5.59-1.47c-1.79-3.32-4.99-6.09-8.34-7.71c-0.24-0.11-0.5,0.1-0.42,0.36c0.51,1.66,1.17,3.28,2.14,4.73
		c0.42,0.62,0.94,1.29,1.52,1.9c-0.52-0.04-1.04-0.07-1.56-0.09c-1.15-0.04-2.29-0.02-3.43,0.04c-2.6-2.64-6.43-4.33-10.06-4.87
		c-0.24-0.04-0.4,0.23-0.26,0.43c0.94,1.39,2.02,2.7,3.33,3.76c0.55,0.44,1.2,0.9,1.89,1.28c-1.64,0.29-3.27,0.65-4.87,1.08
		c-2.82-2.02-6.71-2.84-10.16-2.57c-0.24,0.02-0.34,0.32-0.16,0.48c1.08,0.99,2.26,1.89,3.58,2.53c0.7,0.34,1.54,0.65,2.37,0.85
		c-1.86,0.6-3.68,1.25-5.46,1.89c-5.16-5.61-9.32-11.95-12.4-18.9h-5.44c11.14,27.26,37.93,46.47,69.2,46.47
		c34.4,0,63.37-23.25,72.06-54.89h-5.2C176.74,102.49,175.87,104.93,174.86,107.33z M137.75,144.44
		c-8.59,3.63-17.72,5.48-27.14,5.48c-9.42,0-18.55-1.84-27.14-5.48c-7.92-3.35-15.07-8.08-21.27-14.07c1.93-0.69,3.9-1.35,5.9-1.94
		c-0.05,0.06-0.1,0.11-0.15,0.17c-0.96,1.1-1.7,2.37-2.31,3.69c-0.1,0.22,0.1,0.46,0.33,0.38c3.04-1.01,6.06-3.03,7.92-5.67
		c1.83-0.35,3.67-0.59,5.51-0.69c-0.91,0.57-1.79,1.33-2.46,2.04c-1.13,1.2-2,2.62-2.74,4.09c-0.11,0.22,0.09,0.46,0.32,0.39
		c3.6-1.05,7.25-3.35,9.4-6.45c1.87,0.16,3.72,0.47,5.51,0.88c-1.22,0.45-2.47,1.19-3.42,1.92c-1.46,1.12-2.68,2.53-3.76,4.02
		c-0.14,0.19,0.02,0.46,0.25,0.44c4.05-0.48,8.39-2.26,11.31-5.17c1.91,0.61,3.7,1.28,5.33,1.93c-1.34,0.25-2.75,0.82-3.87,1.43
		c-1.66,0.91-3.12,2.14-4.44,3.49c-0.17,0.17-0.05,0.46,0.18,0.47c4.25,0.16,9.01-1.02,12.44-3.6c1.75,0.75,3.48,1.52,5.19,2.28
		c-1.19,0.16-2.42,0.53-3.43,0.94c-1.75,0.72-3.33,1.79-4.79,2.98c-0.18,0.15-0.1,0.45,0.13,0.49c4.26,0.63,9.18-0.05,12.88-2.3
		c1.54,0.67,3.09,1.32,4.65,1.95c-0.98,0.2-1.96,0.53-2.78,0.88c-1.74,0.75-3.3,1.84-4.74,3.06c-0.18,0.15-0.1,0.45,0.14,0.49
		c4.23,0.55,9.08-0.18,12.73-2.44c1.43,0.48,2.83,0.92,4.2,1.3c-0.75,0.24-1.47,0.55-2.1,0.87c-1.57,0.81-2.95,1.93-4.21,3.15
		c-0.17,0.17-0.07,0.46,0.17,0.48c4.02,0.23,8.55-0.8,11.82-3.2c1.99,0.36,3.93,0.6,5.81,0.71
		C138.68,144.04,138.22,144.24,137.75,144.44z"/>
	<path class="st1" d="M83.84,104.7c0-1.89-1.27-3.03-3.43-3.13c-0.1,0-0.2-0.01-0.31-0.01h-4.39v7.38v3.57h4.67
		c2.42,0,3.85-1.07,3.85-2.88c0-1.46-0.84-2.46-2.23-2.69C83.16,106.64,83.84,105.64,83.84,104.7z M79.06,105.04v-0.67h0.34h0.44
		c0.34,0,0.62,0.31,0.62,0.78c0,0.49-0.31,0.79-0.72,0.79h-0.69V105.04z M80.08,109.75h-1.02v-1.65h0.87c0.44,0,0.89,0.32,0.89,0.84
		C80.81,109.44,80.47,109.75,80.08,109.75z"/>
	<path class="st1" d="M96.72,105.12c0-2.24-1.61-3.56-4.34-3.56h-3.87v10.95h3.36v-3.82h0.23l1.47,3.82h3.72l-2.06-3.97l-0.29-0.37
		C96.08,107.6,96.72,106.54,96.72,105.12z M92.34,106.61h-0.56v-2.12h0.56c0.56,0,0.88,0.39,0.88,1.05
		C93.23,106.2,92.9,106.61,92.34,106.61z"/>
	<polygon class="st1" points="108.45,104.49 108.45,101.56 101.42,101.56 101.42,112.51 108.5,112.51 108.5,109.59 104.78,109.59 
		104.78,108.31 107.96,108.31 107.96,105.7 104.78,105.7 104.78,104.49 	"/>
	<polygon class="st1" points="122.73,106.27 122.65,106.66 122.57,106.27 121.13,101.56 118.67,101.56 117.23,106.27 117.15,106.66 
		117.07,106.27 116.21,101.56 112.59,101.56 114.92,112.51 118.13,112.51 119.82,107.05 119.9,106.66 119.98,107.05 121.67,112.51 
		124.88,112.51 127.21,101.56 123.59,101.56 	"/>
	<polygon class="st1" points="138.26,104.49 138.26,101.56 131.23,101.56 131.23,112.51 138.31,112.51 138.31,109.59 134.59,109.59 
		134.59,108.31 137.77,108.31 137.77,105.7 134.59,105.7 134.59,104.49 	"/>
	<path class="st1" d="M151.36,105.12c0-2.24-1.6-3.56-4.34-3.56h-3.87v10.95h3.36v-3.82h0.23l1.47,3.82h3.72l-2.06-3.97l-0.29-0.37
		C150.72,107.6,151.36,106.54,151.36,105.12z M146.99,106.61h-0.56v-2.12h0.56c0.56,0,0.88,0.39,0.88,1.05
		C147.87,106.2,147.54,106.61,146.99,106.61z"/>
	<polygon class="st1" points="161.06,112.51 161.06,108.05 164.55,101.56 160.75,101.56 159.47,104.41 159.39,104.8 159.3,104.41 
		158.01,101.56 154.23,101.56 157.7,108 157.7,112.51 	"/>
	<path class="st1" d="M170.35,58.43c1.03-0.85,1.95-1.88,2.59-3.06c0.27-0.5,0.64-1.23,0.02-1.6c-0.62-0.37-1.21,0.28-1.6,0.55
		c-0.57,0.4-1.16,0.78-1.94,1.12c-3.32,1.46-7.2,1.09-10.71,0.72c-7.65-0.81-14.86-3.52-21.9-6.46c-2.25-0.94-4.5-1.9-6.76-2.82
		c-3.66-1.5-7.64-2.73-11.66-2.43c-3.36,0.25-6.83,1.54-8.96,4.25c-1.94,2.46-2.66,6.02-1.68,9.01c0.8,2.45,3.05,4.6,5.35,5.58
		c0.62,0.26,1.33-0.04,1.57-0.66L116.1,59c0.2-0.5,0.04-1.07-0.39-1.39c-1.04-0.76-1.72-2.27-1.26-4.05
		c0.74-2.52,4.44-3.93,11.37-0.82l-16.78,42.26c-0.16,0.39,0.13,0.82,0.55,0.82h6.45c0.49,0,0.93-0.3,1.11-0.75l7.86-19.79h7.75
		c0.24,0,0.46-0.14,0.55-0.37l2.33-5.87c0.16-0.39-0.12-0.83-0.55-0.83h-7.25l5.08-12.84c0,0,6.35,2.67,6.72,2.8
		c4.91,1.83,10.14,3.32,15.43,3.69C160.11,62.2,166.29,61.8,170.35,58.43z"/>
	<circle class="st1" cx="143.97" cy="66.92" r="4.01"/>
	<path class="st1" d="M54.84,99.61c0.58-1.02,1.23-2.8-0.69-2.28c-3.23,0.87-6.84,1.41-12.43-0.15c-5.59-1.55-11.31-9.28-11.31-9.28
		l4-9.42c5.13,0.59,9.43-0.86,13.83-4.45c4.46-3.96,7.87-10.25,7.5-16.31c-0.31-5.04-3.37-9.62-8.8-9.73
		c-9.13-0.18-12.17,9.46-15.03,16.29c-0.91,2.17-1.82,4.34-2.73,6.52c0,0-3.76-1.9-4.02-6.98c-0.16-7.28,6.73-10.07,3-9.7
		c-3.73,0.37-8.67,3.75-8.54,11.19c0.13,7.45,7.29,11,7.29,11l-2.8,6.71c-3.83-1.67-8.57-2.45-12.48-0.57
		C8.43,84,6.03,87.21,5.6,90.79c-0.65,5.45,4.5,9.99,9.86,10.32c5.85,0.12,9.85-3.53,11.55-5.86c0.24-0.33,0.74-0.33,0.97,0.01
		c1.39,2.02,5.56,7.41,11.43,9.35C44.88,106.4,51.83,104.91,54.84,99.61z M37.18,71.69c0.46-1.09,0.93-2.17,1.39-3.26
		c0.56-1.31,1.12-2.62,1.67-3.93c0.48-1.12,0.96-2.25,1.44-3.37c0.81-1.9,1.81-4.08,3.66-5.19c0.74-0.45,1.61-0.55,2.35-0.05
		c1.26,0.84,1.11,2.77,0.9,4.07c-0.37,2.3-1.22,4.58-2.43,6.56c-1.16,1.9-2.71,3.65-4.59,4.85c-0.7,0.45-1.45,0.81-2.24,1.09
		c-0.88,0.31-1.8,0.5-2.74,0.59C36.79,72.6,36.98,72.15,37.18,71.69z M17.76,92.92c-1.09,0.49-2.6,0.73-3.75,0.16
		c-1.1-0.55-1.11-1.73-0.56-2.73c0.47-0.86,1.35-1.37,2.27-1.63c3.14-0.92,5.72,0.69,5.72,0.69S20.05,91.9,17.76,92.92z"/>
	<path class="st1" d="M109.43,74.59l2.12-5.43c0.15-0.39-0.14-0.81-0.55-0.81h-8.71l2.45-6.17c0.31-0.78-0.27-1.63-1.11-1.63h-5.58
		c-0.49,0-0.93,0.3-1.11,0.75l-8.01,20.15c-1.65,4.22-5.92,8.02-10.09,8.02c-4.18,0-4-4.07-4-4.07c9.14-2.69,15.99-14.5,16.69-24.52
		c0.23-3.26-0.66-6.88-3.75-8.53c-2.94-1.56-6.37-0.91-8.65,1.42c-3.01,3.14-4.5,7.78-6.17,11.98l-6.65,16.78
		c-2.65,6.72-10.25,8.57-12.93,7.95c-2.68-0.62-1.15-4.58-1.15-4.58s5.54,0.13,9.4-2.94c3.85-3.08,6.05-8.43,2.36-11.75
		c-3.69-3.32-10.71-1.12-15.79,6.29c-5.09,7.41-3.88,14.21-0.27,16.68c3.37,2.29,8.83,2.22,13.39-0.84c0.29-0.19,0.66,0.1,0.53,0.43
		l-6.82,17.16c-0.31,0.78,0.27,1.63,1.11,1.63h5.55c0.49,0,0.93-0.3,1.11-0.75L70.28,93c0.1-0.25,0.42-0.3,0.6-0.11
		c0.85,0.92,3.15,2.94,7.06,2.94c4.75,0,7.73-2.63,9.41-4.39c0.16-0.17,0.43-0.15,0.55,0.04c0.76,1.13,3.39,4.36,8.63,4.36
		c1.93,0,3.98-0.49,5.49-1.77c1.76-1.49,2.51-3.88,2.37-6.13c-0.03-0.43-0.09-0.8-0.52-1.01c-0.44-0.21-0.96,0.13-1.16,0.58
		c-1.02,2.2-3.58,3.65-5.78,1.98c-1.33-1.01-1.89-3.17-1.27-4.72l3.98-9.86l9.22,0.08C109.12,74.97,109.34,74.82,109.43,74.59z
		 M83.67,59.01c0.91-2.2,4.54,2.76,0.24,11.5c-3.64,7-8.75,10.21-8.75,10.21S82.52,61.88,83.67,59.01z M55.45,79.6
		c0.81-1.18,1.73-2.35,2.86-3.24c0.5-0.39,1.1-0.77,1.74-0.89c1.31-0.25-0.14,2.31-0.43,2.71c-1.07,1.48-2.86,2.62-4.58,3.16
		c-0.12,0.04-0.75,0.13-0.8,0.22C54.59,80.88,55.01,80.23,55.45,79.6z"/>
	<path class="st1" d="M212.47,54.05h-5.49c-0.49,0-0.92,0.29-1.1,0.74l-7.34,18.17c-0.73-0.87-1.62-1.56-2.66-2.03
		c-4.89-2.19-11.41,1.73-14.42,8.46c-0.87,1.94-1.42,4.03-1.52,6.15c-0.05,0.93,0,1.88,0.15,2.81c0.02,0.16-0.04,0.31-0.16,0.42
		c-1.53,1.27-3.81,1.02-4.62,0.1c-0.84-0.96-0.98-2.93-0.04-5.45l11.07-27.79c0.31-0.78-0.26-1.63-1.11-1.63h-5.51
		c-0.49,0-0.93,0.3-1.11,0.75l-11.11,27.8c-2.65,6.72-10.25,8.57-12.93,7.95c-2.68-0.62-1.15-4.58-1.15-4.58s5.54,0.13,9.4-2.94
		c3.85-3.08,6.05-8.43,2.36-11.75c-3.69-3.32-10.71-1.12-15.79,6.29c-3,4.38-3.81,8.54-3.23,11.72c0.03,0.15-0.02,0.31-0.13,0.41
		c-1.31,1.18-3.1,2.18-4.57,1.64c-2.39-0.88-1.31-3.67-0.63-5.4c0.01-0.01,3.52-8.83,4.62-11.59c0.16-0.39-0.13-0.81-0.55-0.81
		l-6.47,0c-0.49,0-0.92,0.29-1.1,0.74c-0.81,2.01-3.03,7.57-4,10.11c-0.84,2.2-1.26,4.8-0.65,7.12c0.66,2.53,3.22,4.08,5.7,4.27
		c2.37,0.18,5.63-0.44,8.57-3.22c0.16-0.15,0.41-0.12,0.54,0.05c0.46,0.66,1.01,1.21,1.62,1.63c3.55,2.42,10.01,2.78,17.43-4.49
		c0.19-0.18,0.5-0.11,0.58,0.13c0.79,2.22,2.6,5.93,7.31,5.93c3.55,0,5.77-1.92,6.75-3.08c0.16-0.18,0.42-0.18,0.6,0.03l0.64,0.8
		c2.16,2.35,5.84,3.16,8.86,2.3c1.7-0.48,3.16-1.55,4.43-2.77c0.17-0.17,0.45-0.16,0.62,0.01c1.4,1.42,3.55,2.79,6.63,2.79
		c1.93,0,3.98-0.49,5.49-1.77c1.76-1.49,2.49-3.92,2.36-6.17c-0.03-0.43-0.13-0.83-0.55-1.04c-0.46-0.19-0.88,0.19-1.11,0.64
		c-0.5,1.08-1.29,2.18-2.49,2.53c-1.3,0.38-2.88,0.02-3.86-0.91c-1.02-0.96-1.23-2.88-0.78-4.21l11.56-29.26
		C213.88,54.9,213.31,54.05,212.47,54.05z M156.64,79.63c0.81-1.18,1.73-2.35,2.86-3.24c0.5-0.39,1.1-0.77,1.74-0.89
		c0.32-0.06,0.57,0.11,0.55,0.45c-0.06,0.95-0.8,2.04-1.38,2.75c-1.13,1.38-2.7,2.23-4.39,2.72c-0.1,0.03-0.2,0.06-0.3,0.08
		c-0.04,0.01-0.28,0.04-0.29,0.07C155.79,80.91,156.21,80.26,156.64,79.63z M195.93,79.72c-0.77,1.98-2.64,6.7-3.42,8.24
		c-0.14,0.27-0.29,0.53-0.46,0.78c-0.84,1.22-2.11,2.11-3.66,1.39c-1.95-0.91-2.1-4.72-0.34-8.51c1.76-3.79,4.78-6.13,6.73-5.22
		c0.36,0.17,0.66,0.44,0.9,0.78C196.18,77.93,196.25,78.88,195.93,79.72z"/>
</g>
</svg>
