<?xml version="1.0" encoding="utf-8"?>
<!-- Generator: Adobe Illustrator 23.0.4, SVG Export Plug-In . SVG Version: 6.00 Build 0)  -->
<svg version="1.1" id="Layer_1" xmlns="http://www.w3.org/2000/svg" xmlns:xlink="http://www.w3.org/1999/xlink" x="0px" y="0px"
	 width="222.81px" height="160px" viewBox="0 0 222.81 160" style="enable-background:new 0 0 222.81 160;" xml:space="preserve">
<style type="text/css">
	.st0{fill:none;}
	.st1{fill:#001641;}
</style>
<g>
	<path class="st0" d="M79.64,109.88h-0.93v1.77h1.09c0.42,0,0.79-0.33,0.79-0.87C80.59,110.23,80.11,109.88,79.64,109.88z"/>
	<path class="st0" d="M80.22,106.73c0-0.5-0.3-0.83-0.67-0.83h-0.47h-0.37v0.72v0.97h0.74C79.88,107.58,80.22,107.25,80.22,106.73z"
		/>
	<path class="st0" d="M83.9,69.64c4.6-9.35,0.72-14.66-0.26-12.31c-1.23,3.08-9.11,23.24-9.11,23.24S80.01,77.13,83.9,69.64z"/>
	<path class="st0" d="M38.57,70.56c2.02-1.28,3.68-3.16,4.92-5.19c1.3-2.12,2.21-4.57,2.6-7.03c0.22-1.38,0.38-3.45-0.97-4.35
		c-0.8-0.54-1.72-0.43-2.52,0.05c-1.98,1.19-3.05,3.52-3.92,5.56c-0.51,1.2-1.02,2.41-1.54,3.61c-0.6,1.4-1.19,2.8-1.79,4.21
		c-0.5,1.16-0.99,2.33-1.49,3.49c-0.21,0.49-0.41,0.97-0.62,1.46c1-0.1,1.98-0.31,2.93-0.64C37.01,71.43,37.82,71.04,38.57,70.56z"
		/>
	<path class="st0" d="M142.77,14.79c3.69,0.65,7.21,1.59,10.55,2.71c-3.55-2.32-7.3-4.34-11.23-6.04c-0.42,0.5-0.88,0.97-1.38,1.39
		c-0.56,0.48-1.25,0.98-1.98,1.39C140.08,14.37,141.42,14.55,142.77,14.79z"/>
	<path class="st0" d="M70.7,25.13c0.22-0.09,0.45,0.13,0.37,0.36c-0.71,1.93-1.6,3.81-2.85,5.45c-0.8,1.06-1.91,2.22-3.08,3.06
		c1.93-0.07,3.88-0.22,5.84-0.45c1.88-4.51,5.88-8.42,10.15-10.72c0.22-0.12,0.49,0.09,0.43,0.33c-0.52,2.11-1.24,4.18-2.35,6.05
		c-0.7,1.18-1.7,2.5-2.8,3.51c1.81-0.34,3.62-0.75,5.44-1.23c0.01-0.02,0.01-0.04,0.02-0.06c1.53-4.9,5.56-9.29,9.95-11.91
		c0.22-0.13,0.49,0.07,0.44,0.32c-0.43,2.13-1.06,4.23-2.09,6.14c-0.72,1.33-1.78,2.84-2.97,3.93c2.06-0.68,4.11-1.44,6.17-2.28
		c0.89-4.93,4.15-9.7,8-12.86c0.2-0.16,0.49-0.01,0.48,0.24c-0.11,2.17-0.42,4.34-1.15,6.39c-0.45,1.26-1.15,2.68-2,3.86
		c1.37-0.66,2.75-1.35,4.11-2.08c0.36-0.19,0.73-0.38,1.09-0.58c0.73-4.81,3.82-9.51,7.51-12.64c0.19-0.16,0.5-0.02,0.49,0.24
		c-0.08,2.08-0.34,4.16-1.02,6.13c-0.41,1.2-1.05,2.56-1.84,3.69c1.63-0.77,3.3-1.5,5.01-2.17c1.07-4.15,4.1-8.02,7.56-10.52
		c0.21-0.15,0.49,0.03,0.46,0.28c-0.22,1.84-0.61,3.68-1.35,5.38c-0.46,1.05-1.13,2.22-1.92,3.19c1.48-0.45,2.99-0.85,4.53-1.17
		c1.6-3.11,4.52-5.7,7.71-7.36c-6.02-1.54-12.23-2.32-18.55-2.32c-10.08,0-19.86,1.97-29.05,5.86c-8.89,3.76-16.87,9.14-23.73,16
		c-2,2-3.88,4.11-5.63,6.3c1.99,0.25,3.99,0.42,6.02,0.49C62.36,30.02,66.49,26.83,70.7,25.13z"/>
	<path class="st0" d="M57.89,77.85c0.31-0.43,1.86-3.17,0.46-2.9c-0.68,0.13-1.32,0.54-1.86,0.96c-1.22,0.95-2.19,2.2-3.06,3.47
		c-0.47,0.68-0.91,1.37-1.31,2.09c0.05-0.1,0.73-0.2,0.86-0.24C54.82,80.66,56.74,79.44,57.89,77.85z"/>
	<path class="st0" d="M92.93,106.02h-0.6v2.27h0.6c0.6,0,0.95-0.43,0.95-1.14C93.87,106.43,93.52,106.02,92.93,106.02z"/>
	<path class="st0" d="M128.31,14.25c1.92-0.2,3.85-0.29,5.79-0.27c1.35-1.56,3.15-2.81,5.1-3.7c-2.11-0.81-4.24-1.52-6.41-2.13
		c-0.56,1.31-1.23,2.57-2.1,3.7C130.06,12.66,129.22,13.56,128.31,14.25z"/>
	<path class="st0" d="M10.9,89.13c-0.98,0.29-1.92,0.83-2.43,1.75c-0.59,1.07-0.58,2.34,0.6,2.93c1.23,0.61,2.85,0.35,4.01-0.18
		c2.45-1.09,3.94-3.76,3.94-3.76S14.26,88.15,10.9,89.13z"/>
	<path class="st0" d="M161.1,81.33c1.81-0.53,3.5-1.44,4.7-2.92c0.62-0.77,1.41-1.93,1.48-2.95c0.02-0.37-0.24-0.55-0.59-0.48
		c-0.68,0.13-1.32,0.54-1.86,0.96c-1.22,0.95-2.19,2.2-3.06,3.47c-0.47,0.68-0.91,1.37-1.31,2.09c0.02-0.04,0.27-0.07,0.32-0.08
		C160.88,81.39,160.99,81.36,161.1,81.33z"/>
	<path class="st0" d="M202.6,75.95c-2.09-0.97-5.32,1.53-7.21,5.59c-1.89,4.06-1.73,8.14,0.36,9.11c1.66,0.77,3.02-0.18,3.92-1.49
		c0.18-0.27,0.35-0.55,0.5-0.84c0.84-1.66,2.83-6.71,3.66-8.83c0.35-0.9,0.27-1.92-0.27-2.71C203.31,76.41,202.98,76.13,202.6,75.95
		z"/>
	<path class="st0" d="M124.16,150.8c-0.26-0.01-0.37-0.33-0.18-0.51c1.35-1.31,2.83-2.51,4.51-3.38c0.67-0.35,1.44-0.68,2.25-0.94
		c-1.47-0.41-2.97-0.87-4.5-1.39c-3.91,2.42-9.1,3.2-13.63,2.61c-0.25-0.03-0.34-0.36-0.15-0.52c1.54-1.3,3.22-2.47,5.08-3.27
		c0.88-0.38,1.93-0.73,2.97-0.94c-1.67-0.67-3.34-1.37-4.98-2.08c-3.96,2.41-9.23,3.14-13.79,2.46c-0.25-0.04-0.34-0.36-0.14-0.52
		c1.56-1.28,3.26-2.42,5.13-3.19c1.08-0.44,2.4-0.84,3.67-1.01c-1.83-0.81-3.69-1.64-5.56-2.44c-3.67,2.76-8.76,4.02-13.31,3.85
		c-0.25-0.01-0.38-0.32-0.2-0.5c1.42-1.44,2.97-2.76,4.75-3.73c1.19-0.65,2.71-1.26,4.14-1.53c-1.74-0.69-3.65-1.41-5.7-2.06
		c-3.12,3.11-7.76,5.02-12.1,5.53c-0.25,0.03-0.42-0.26-0.27-0.47c1.15-1.6,2.46-3.1,4.03-4.3c1.03-0.78,2.36-1.58,3.67-2.06
		c-1.92-0.44-3.89-0.78-5.9-0.95c-2.3,3.32-6.21,5.78-10.07,6.91c-0.25,0.07-0.46-0.19-0.34-0.42c0.79-1.58,1.72-3.09,2.93-4.38
		c0.72-0.76,1.66-1.58,2.63-2.18c-1.97,0.11-3.94,0.37-5.9,0.74c-1.99,2.83-5.23,4.98-8.48,6.07c-0.24,0.08-0.47-0.18-0.36-0.41
		c0.65-1.42,1.44-2.78,2.47-3.96c0.05-0.06,0.11-0.12,0.16-0.18c-2.15,0.63-4.26,1.34-6.32,2.08c6.64,6.41,14.29,11.48,22.77,15.06
		c9.2,3.89,18.98,5.86,29.05,5.86c10.08,0,19.86-1.97,29.06-5.86c0.5-0.21,0.99-0.43,1.48-0.65c-2.01-0.13-4.08-0.38-6.22-0.76
		C133.31,149.94,128.47,151.04,124.16,150.8z"/>
	<path class="st0" d="M151.43,106.02h-0.6v2.27h0.6c0.6,0,0.95-0.43,0.95-1.14C152.38,106.43,152.03,106.02,151.43,106.02z"/>
	<path class="st1" d="M51.27,37.27c1.18,0.19,2.36,0.35,3.55,0.48c2.75,4.02,7.44,7.03,12.07,8.42c0.24,0.07,0.46-0.18,0.35-0.41
		c-0.93-1.96-2.05-3.85-3.51-5.46c-0.67-0.73-1.49-1.5-2.38-2.15c0.4,0.01,0.81,0.01,1.21,0.01c1.49,0,2.99-0.05,4.49-0.14
		c3.17,3.58,8.03,6,12.68,6.88c0.25,0.05,0.44-0.23,0.31-0.45c-1.13-1.85-2.44-3.61-4.07-5.06c-0.78-0.69-1.74-1.41-2.76-1.99
		c1.51-0.21,3.02-0.46,4.53-0.76c3.71,3.37,9.2,5.16,14.18,5.31c0.25,0.01,0.4-0.3,0.23-0.49c-1.41-1.65-2.98-3.19-4.81-4.36
		c-1.1-0.7-2.48-1.39-3.84-1.81c1.64-0.44,3.29-0.93,4.94-1.48c3.98,3.08,9.62,4.43,14.62,4.17c0.25-0.01,0.37-0.33,0.19-0.51
		c-1.54-1.53-3.23-2.93-5.15-3.95c-1.29-0.68-2.93-1.32-4.48-1.59c1.8-0.71,3.59-1.47,5.39-2.3c4.16,2.89,9.9,3.93,14.91,3.38
		c0.25-0.03,0.35-0.35,0.16-0.52c-1.62-1.44-3.39-2.74-5.37-3.65c-1.53-0.7-3.53-1.32-5.27-1.38c0.43-0.22,0.86-0.45,1.29-0.68
		c1.48-0.79,2.98-1.57,4.52-2.32c3.85,2.9,9.15,4.28,13.92,4.18c0.25-0.01,0.38-0.32,0.21-0.5c-1.49-1.58-3.14-3.03-5.03-4.11
		c-1.26-0.72-2.88-1.41-4.41-1.72c1.92-0.81,3.88-1.54,5.88-2.16c3.34,3.39,8.29,5.53,12.95,6.18c0.25,0.03,0.43-0.25,0.28-0.46
		c-1.22-1.79-2.62-3.49-4.32-4.85c-1.01-0.81-2.29-1.63-3.59-2.2c0.42-0.08,0.85-0.15,1.28-0.22c1.48-0.23,2.98-0.39,4.48-0.47
		c2.59,3.71,6.9,6.5,11.18,7.83c0.24,0.08,0.46-0.18,0.35-0.41c-0.87-1.85-1.91-3.63-3.27-5.15c-0.69-0.77-1.57-1.58-2.5-2.25
		c1.79,0.12,3.59,0.33,5.38,0.64c0.08,0.01,0.17,0.03,0.25,0.05c2.22,3.83,6.19,6.9,10.24,8.54c0.24,0.1,0.48-0.14,0.39-0.38
		c-0.69-1.86-1.56-3.68-2.76-5.27c-0.32-0.43-0.7-0.87-1.1-1.3c5.71,1.66,10.96,3.93,15.62,6.16c0.19,0.19,0.39,0.38,0.58,0.57
		c6.02,6.02,10.9,12.9,14.54,20.5h5.89C173.3,19.62,145.18,0,112.49,0C82.35,0,56.11,16.66,42.47,41.28h6.18
		C49.48,39.91,50.35,38.58,51.27,37.27z M142.09,11.45c3.93,1.7,7.68,3.72,11.23,6.04c-3.34-1.12-6.86-2.06-10.55-2.71
		c-1.34-0.24-2.69-0.42-4.03-0.55c0.72-0.4,1.42-0.9,1.98-1.39C141.21,12.42,141.67,11.95,142.09,11.45z M139.2,10.28
		c-1.95,0.89-3.75,2.14-5.1,3.7c-1.94-0.02-3.88,0.07-5.79,0.27c0.91-0.69,1.76-1.59,2.39-2.41c0.87-1.13,1.54-2.39,2.1-3.7
		C134.96,8.75,137.09,9.47,139.2,10.28z M59.7,27.22c6.86-6.86,14.84-12.24,23.73-16c9.2-3.89,18.98-5.86,29.05-5.86
		c6.33,0,12.53,0.78,18.55,2.32c-3.18,1.65-6.11,4.25-7.71,7.36c-1.54,0.32-3.05,0.72-4.53,1.17c0.79-0.97,1.46-2.14,1.92-3.19
		c0.74-1.7,1.13-3.54,1.35-5.38c0.03-0.26-0.26-0.43-0.46-0.28c-3.46,2.5-6.49,6.37-7.56,10.52c-1.71,0.67-3.38,1.4-5.01,2.17
		c0.79-1.14,1.42-2.5,1.84-3.69c0.68-1.97,0.94-4.06,1.02-6.13c0.01-0.25-0.29-0.4-0.49-0.24c-3.7,3.13-6.78,7.83-7.51,12.64
		c-0.37,0.19-0.73,0.38-1.09,0.58c-1.37,0.73-2.74,1.42-4.11,2.08c0.85-1.18,1.55-2.61,2-3.86c0.74-2.05,1.04-4.22,1.15-6.39
		c0.01-0.25-0.28-0.41-0.48-0.24c-3.86,3.16-7.11,7.93-8,12.86c-2.06,0.84-4.12,1.6-6.17,2.28c1.19-1.09,2.25-2.59,2.97-3.93
		c1.03-1.91,1.66-4.02,2.09-6.14c0.05-0.25-0.22-0.45-0.44-0.32c-4.4,2.62-8.42,7.01-9.95,11.91c-0.01,0.02-0.01,0.04-0.02,0.06
		c-1.82,0.47-3.64,0.89-5.44,1.23c1.1-1.01,2.1-2.32,2.8-3.51c1.11-1.87,1.83-3.94,2.35-6.05c0.06-0.25-0.2-0.45-0.43-0.33
		c-4.27,2.3-8.27,6.21-10.15,10.72c-1.96,0.23-3.9,0.38-5.84,0.45c1.17-0.84,2.28-2,3.08-3.06c1.25-1.64,2.14-3.52,2.85-5.45
		c0.08-0.23-0.14-0.45-0.37-0.36c-4.21,1.7-8.33,4.89-10.6,8.88c-2.02-0.07-4.03-0.24-6.02-0.49C55.82,31.32,57.7,29.22,59.7,27.22z
		"/>
	<path class="st1" d="M181.27,109.06c-3.76,8.89-9.14,16.87-16,23.73c-3.78,3.78-7.91,7.11-12.33,9.97
		c-2.82-2.95-6.83-5.03-10.73-5.94c-0.25-0.06-0.45,0.21-0.32,0.43c0.99,1.76,2.15,3.45,3.61,4.85c0.7,0.68,1.58,1.38,2.5,1.96
		c-1.72,0.09-3.48,0.07-5.3-0.07c-1.92-4.05-5.67-7.48-9.62-9.48c-0.23-0.12-0.49,0.1-0.42,0.34c0.54,1.95,1.26,3.86,2.34,5.57
		c0.61,0.96,1.42,2,2.33,2.86c-1.74-0.32-3.53-0.73-5.37-1.24c-1.24-4.4-4.51-8.48-8.21-11.11c-0.21-0.15-0.49,0.03-0.46,0.28
		c0.25,2,0.68,4,1.5,5.85c0.49,1.1,1.2,2.34,2.04,3.36c-0.44-0.15-0.88-0.31-1.32-0.47c-1.2-0.44-2.41-0.91-3.61-1.39
		c-1.02-4.51-4.15-8.8-7.79-11.61c-0.2-0.16-0.5,0.01-0.47,0.26c0.17,2.01,0.52,4.03,1.26,5.91c0.41,1.04,1.01,2.21,1.74,3.22
		c-1.48-0.64-2.95-1.29-4.4-1.94c-0.1-0.05-0.21-0.09-0.31-0.14c-1.03-4.58-4.34-8.89-8.13-11.63c-0.21-0.15-0.49,0.02-0.47,0.27
		c0.23,1.98,0.63,3.95,1.42,5.78c0.46,1.07,1.13,2.27,1.93,3.28c-1.53-0.66-3.06-1.3-4.6-1.92c-0.14-0.05-0.28-0.11-0.42-0.17
		c-1.67-4.42-5.59-8.23-9.76-10.41c-0.23-0.12-0.49,0.09-0.42,0.34c0.51,1.92,1.2,3.81,2.24,5.51c0.48,0.77,1.09,1.61,1.78,2.35
		c-1.9-0.6-3.91-1.14-5.99-1.57c-1.91-3.55-5.34-6.52-8.93-8.26c-0.25-0.12-0.53,0.11-0.45,0.38c0.55,1.78,1.26,3.52,2.29,5.06
		c0.45,0.67,1.01,1.38,1.63,2.03c-0.55-0.04-1.11-0.08-1.67-0.1c-1.23-0.04-2.45-0.02-3.67,0.05c-2.79-2.82-6.88-4.63-10.77-5.21
		c-0.25-0.04-0.43,0.25-0.28,0.46c1.01,1.49,2.17,2.89,3.57,4.02c0.59,0.48,1.29,0.96,2.03,1.37c-1.76,0.31-3.5,0.7-5.21,1.15
		c-3.01-2.17-7.19-3.04-10.88-2.75c-0.26,0.02-0.36,0.34-0.17,0.52c1.16,1.06,2.42,2.02,3.83,2.71c0.75,0.36,1.64,0.7,2.54,0.91
		c-1.99,0.64-3.94,1.33-5.84,2.03c-5.52-6-9.98-12.79-13.28-20.24H38.4C50.33,139.43,79.01,160,112.49,160
		c36.83,0,67.85-24.89,77.15-58.77h-5.57C183.29,103.88,182.36,106.49,181.27,109.06z M141.54,148.78
		c-9.2,3.89-18.98,5.86-29.06,5.86c-10.08,0-19.86-1.97-29.05-5.86c-8.48-3.59-16.13-8.65-22.77-15.06
		c2.06-0.73,4.17-1.45,6.32-2.08c-0.06,0.06-0.11,0.12-0.16,0.18c-1.03,1.17-1.82,2.54-2.47,3.96c-0.11,0.23,0.11,0.49,0.36,0.41
		c3.25-1.08,6.49-3.24,8.48-6.07c1.96-0.37,3.93-0.63,5.9-0.74c-0.98,0.61-1.92,1.42-2.63,2.18c-1.21,1.29-2.14,2.8-2.93,4.38
		c-0.11,0.23,0.1,0.49,0.34,0.42c3.86-1.13,7.77-3.59,10.07-6.91c2,0.17,3.98,0.5,5.9,0.95c-1.31,0.48-2.64,1.28-3.67,2.06
		c-1.57,1.2-2.87,2.7-4.03,4.3c-0.15,0.21,0.02,0.5,0.27,0.47c4.34-0.51,8.98-2.42,12.1-5.53c2.05,0.66,3.97,1.37,5.7,2.06
		c-1.43,0.27-2.95,0.88-4.14,1.53c-1.78,0.97-3.34,2.29-4.75,3.73c-0.18,0.18-0.06,0.49,0.2,0.5c4.55,0.17,9.65-1.09,13.31-3.85
		c1.87,0.8,3.73,1.63,5.56,2.44c-1.27,0.17-2.59,0.56-3.67,1.01c-1.87,0.77-3.57,1.92-5.13,3.19c-0.2,0.16-0.11,0.48,0.14,0.52
		c4.56,0.67,9.83-0.05,13.79-2.46c1.64,0.71,3.31,1.41,4.98,2.08c-1.05,0.22-2.09,0.57-2.97,0.94c-1.86,0.8-3.53,1.97-5.08,3.27
		c-0.19,0.16-0.1,0.49,0.15,0.52c4.53,0.59,9.72-0.19,13.63-2.61c1.53,0.52,3.03,0.98,4.5,1.39c-0.8,0.26-1.58,0.59-2.25,0.94
		c-1.68,0.87-3.16,2.07-4.51,3.38c-0.18,0.18-0.07,0.5,0.18,0.51c4.31,0.25,9.15-0.86,12.65-3.42c2.13,0.39,4.2,0.64,6.22,0.76
		C142.53,148.36,142.04,148.57,141.54,148.78z"/>
	<path class="st1" d="M83.83,106.24c0-2.02-1.36-3.25-3.67-3.35c-0.11,0-0.22-0.01-0.33-0.01h-4.7v7.9v3.83h5
		c2.6,0,4.12-1.14,4.12-3.09c0-1.56-0.89-2.64-2.39-2.88C83.09,108.32,83.83,107.25,83.83,106.24z M78.71,106.61v-0.72h0.37h0.47
		c0.37,0,0.67,0.33,0.67,0.83c0,0.52-0.33,0.85-0.77,0.85h-0.74V106.61z M79.8,111.65h-1.09v-1.77h0.93c0.47,0,0.95,0.35,0.95,0.9
		C80.59,111.32,80.22,111.65,79.8,111.65z"/>
	<path class="st1" d="M97.61,106.69c0-2.39-1.72-3.82-4.65-3.82h-4.14v11.72h3.6v-4.09h0.24l1.58,4.09h3.98l-2.21-4.25l-0.32-0.4
		C96.93,109.35,97.61,108.22,97.61,106.69z M92.93,108.29h-0.6v-2.27h0.6c0.6,0,0.95,0.42,0.95,1.13
		C93.87,107.85,93.52,108.29,92.93,108.29z"/>
	<polygon class="st1" points="110.18,106.02 110.18,102.88 102.65,102.88 102.65,114.6 110.23,114.6 110.23,111.48 106.25,111.48 
		106.25,110.11 109.65,110.11 109.65,107.32 106.25,107.32 106.25,106.02 	"/>
	<polygon class="st1" points="125.47,107.92 125.38,108.34 125.29,107.92 123.75,102.88 121.12,102.88 119.57,107.92 119.48,108.34 
		119.4,107.92 118.48,102.88 114.61,102.88 117.1,114.6 120.54,114.6 122.34,108.76 122.43,108.34 122.52,108.76 124.33,114.6 
		127.76,114.6 130.25,102.88 126.38,102.88 	"/>
	<polygon class="st1" points="142.09,106.02 142.09,102.88 134.56,102.88 134.56,114.6 142.14,114.6 142.14,111.48 138.16,111.48 
		138.16,110.11 141.56,110.11 141.56,107.32 138.16,107.32 138.16,106.02 	"/>
	<path class="st1" d="M156.11,106.69c0-2.39-1.72-3.82-4.65-3.82h-4.14v11.72h3.6v-4.09h0.25l1.58,4.09h3.98l-2.21-4.25l-0.32-0.4
		C155.43,109.35,156.11,108.22,156.11,106.69z M151.43,108.29h-0.6v-2.27h0.6c0.6,0,0.95,0.42,0.95,1.13
		C152.38,107.85,152.03,108.29,151.43,108.29z"/>
	<polygon class="st1" points="166.49,114.6 166.49,109.83 170.23,102.88 166.16,102.88 164.79,105.93 164.71,106.35 164.62,105.93 
		163.23,102.88 159.18,102.88 162.9,109.78 162.9,114.6 	"/>
	<path class="st1" d="M176.44,56.7c1.1-0.92,2.08-2.01,2.77-3.27c0.29-0.54,0.68-1.31,0.02-1.71c-0.67-0.4-1.29,0.3-1.71,0.59
		c-0.61,0.43-1.24,0.84-2.08,1.2c-3.55,1.57-7.71,1.17-11.47,0.77c-8.19-0.86-15.9-3.77-23.45-6.91c-2.41-1-4.81-2.03-7.23-3.02
		c-3.92-1.61-8.18-2.92-12.48-2.61c-3.6,0.26-7.31,1.65-9.6,4.55c-2.08,2.63-2.85,6.44-1.8,9.65c0.86,2.62,3.27,4.92,5.73,5.98
		c0.66,0.28,1.42-0.04,1.68-0.71l1.54-3.9c0.21-0.53,0.04-1.15-0.42-1.49c-1.11-0.82-1.84-2.43-1.35-4.34
		c0.8-2.7,4.75-4.21,12.17-0.88L110.8,95.85c-0.17,0.42,0.14,0.87,0.59,0.87h6.91c0.52,0,0.99-0.32,1.18-0.8l8.41-21.19h8.29
		c0.26,0,0.49-0.15,0.59-0.39l2.49-6.29c0.18-0.42-0.13-0.88-0.59-0.88h-7.77l5.44-13.74c0,0,6.8,2.85,7.2,3
		c5.25,1.96,10.85,3.55,16.52,3.95C165.49,60.74,172.1,60.31,176.44,56.7z"/>
	<circle class="st1" cx="148.2" cy="65.8" r="4.29"/>
	<path class="st1" d="M52.78,100.79c0.62-1.09,1.32-3-0.73-2.45c-3.46,0.93-7.32,1.51-13.3-0.16c-5.98-1.66-12.11-9.93-12.11-9.93
		l4.28-10.09c5.49,0.63,10.1-0.92,14.81-4.77c4.77-4.24,8.43-10.97,8.03-17.46c-0.33-5.4-3.61-10.3-9.42-10.41
		c-9.77-0.19-13.03,10.13-16.09,17.44c-0.97,2.33-1.95,4.65-2.92,6.98c0,0-4.03-2.04-4.3-7.47c-0.17-7.8,7.21-10.78,3.21-10.39
		c-3.99,0.39-9.29,4.01-9.15,11.98c0.14,7.97,7.81,11.77,7.81,11.77l-2.99,7.18c-4.1-1.79-9.18-2.62-13.36-0.61
		c-3.46,1.67-6.03,5.1-6.49,8.94c-0.7,5.83,4.82,10.7,10.55,11.05c6.27,0.13,10.54-3.78,12.36-6.27c0.26-0.36,0.79-0.35,1.04,0.01
		c1.49,2.16,5.95,7.94,12.23,10.01C42.12,108.06,49.56,106.47,52.78,100.79z M33.87,70.91c0.5-1.16,0.99-2.33,1.49-3.49
		c0.6-1.4,1.19-2.8,1.79-4.21c0.51-1.2,1.02-2.41,1.54-3.61c0.87-2.03,1.94-4.36,3.92-5.56c0.8-0.48,1.72-0.59,2.52-0.05
		c1.35,0.9,1.19,2.97,0.97,4.35c-0.39,2.46-1.3,4.9-2.6,7.03c-1.24,2.03-2.9,3.91-4.92,5.19c-0.75,0.48-1.55,0.87-2.39,1.16
		c-0.95,0.33-1.93,0.54-2.93,0.64C33.45,71.88,33.66,71.39,33.87,70.91z M13.08,93.63c-1.17,0.52-2.79,0.78-4.01,0.18
		c-1.18-0.58-1.19-1.86-0.6-2.93c0.51-0.92,1.45-1.46,2.43-1.75c3.36-0.98,6.12,0.74,6.12,0.74S15.53,92.54,13.08,93.63z"/>
	<path class="st1" d="M111.23,74.01l2.27-5.81c0.16-0.42-0.15-0.87-0.59-0.87h-9.33l2.62-6.61c0.33-0.84-0.28-1.75-1.18-1.75h-5.97
		c-0.52,0-0.99,0.32-1.18,0.8l-8.58,21.58c-1.77,4.52-6.33,8.59-10.8,8.59c-4.47,0-4.28-4.36-4.28-4.36
		c9.78-2.88,17.12-15.52,17.87-26.25c0.24-3.49-0.7-7.37-4.02-9.13c-3.15-1.67-6.82-0.97-9.27,1.51c-3.22,3.37-4.81,8.33-6.61,12.83
		l-7.12,17.97c-2.84,7.19-10.98,9.17-13.84,8.51c-2.87-0.66-1.23-4.9-1.23-4.9s5.93,0.14,10.06-3.15c4.13-3.3,6.48-9.03,2.52-12.58
		c-3.95-3.55-11.46-1.2-16.91,6.73c-5.44,7.94-4.16,15.22-0.29,17.85c3.61,2.46,9.45,2.38,14.34-0.89c0.31-0.21,0.7,0.11,0.57,0.46
		l-7.3,18.38c-0.33,0.84,0.28,1.75,1.18,1.75h5.94c0.52,0,0.99-0.32,1.18-0.8l8.03-20.16c0.1-0.26,0.45-0.32,0.64-0.12
		c0.91,0.99,3.37,3.15,7.56,3.15c5.08,0,8.28-2.82,10.07-4.7c0.17-0.18,0.46-0.16,0.59,0.05c0.81,1.21,3.63,4.66,9.24,4.66
		c2.06,0,4.26-0.52,5.88-1.89c1.89-1.6,2.68-4.16,2.54-6.57c-0.03-0.46-0.1-0.86-0.55-1.08c-0.47-0.23-1.02,0.14-1.24,0.62
		c-1.1,2.35-3.83,3.91-6.18,2.12c-1.43-1.08-2.03-3.39-1.36-5.05l4.26-10.56l9.87,0.08C110.89,74.42,111.13,74.26,111.23,74.01z
		 M83.64,57.33c0.97-2.35,4.86,2.95,0.26,12.31c-3.9,7.5-9.37,10.93-9.37,10.93S82.41,60.4,83.64,57.33z M53.43,79.37
		c0.87-1.26,1.85-2.52,3.06-3.47c0.54-0.42,1.18-0.82,1.86-0.96c1.4-0.27-0.15,2.47-0.46,2.9c-1.15,1.59-3.06,2.81-4.91,3.38
		c-0.13,0.04-0.81,0.14-0.86,0.24C52.51,80.75,52.96,80.05,53.43,79.37z"/>
	<path class="st1" d="M222.72,53.76c0.33-0.84-0.29-1.74-1.19-1.74h-5.88c-0.52,0-0.99,0.32-1.18,0.8l-7.86,19.45
		c-0.78-0.93-1.73-1.67-2.85-2.17c-5.24-2.34-12.21,1.85-15.44,9.06c-0.93,2.07-1.52,4.32-1.63,6.59c-0.05,0.99,0,2.01,0.16,3.01
		c0.03,0.17-0.04,0.34-0.17,0.45c-1.63,1.36-4.08,1.09-4.94,0.11c-0.9-1.02-1.05-3.14-0.04-5.83l11.85-29.75
		c0.33-0.84-0.28-1.75-1.18-1.75h-5.9c-0.52,0-0.99,0.32-1.18,0.8l-11.89,29.76c-2.84,7.19-10.98,9.17-13.84,8.51
		c-2.87-0.66-1.23-4.9-1.23-4.9s5.93,0.14,10.06-3.15c4.13-3.3,6.48-9.03,2.52-12.58c-3.95-3.55-11.46-1.2-16.91,6.73
		c-3.21,4.69-4.08,9.14-3.45,12.55c0.03,0.16-0.02,0.33-0.14,0.44c-1.4,1.27-3.32,2.33-4.89,1.75c-2.56-0.94-1.41-3.93-0.67-5.78
		c0.01-0.01,3.77-9.45,4.95-12.41c0.17-0.42-0.14-0.87-0.59-0.87l-6.92,0c-0.52,0-0.99,0.31-1.18,0.8
		c-0.86,2.15-3.24,8.1-4.28,10.82c-0.9,2.36-1.35,5.14-0.7,7.62c0.71,2.71,3.44,4.37,6.1,4.57c2.53,0.19,6.03-0.47,9.17-3.44
		c0.17-0.16,0.44-0.13,0.57,0.06c0.49,0.71,1.08,1.3,1.74,1.75c3.8,2.59,10.72,2.97,18.66-4.81c0.2-0.2,0.53-0.12,0.62,0.14
		c0.84,2.38,2.79,6.35,7.82,6.35c3.8,0,6.18-2.06,7.22-3.3c0.17-0.2,0.45-0.2,0.64,0.04l0.69,0.86c2.31,2.52,6.25,3.39,9.49,2.46
		c1.82-0.52,3.38-1.66,4.75-2.96c0.19-0.18,0.48-0.17,0.66,0.01c1.5,1.52,3.8,2.99,7.09,2.99c2.06,0,4.26-0.52,5.88-1.89
		c1.89-1.6,2.67-4.2,2.52-6.6c-0.03-0.46-0.13-0.89-0.59-1.11c-0.49-0.2-0.94,0.2-1.19,0.68c-0.54,1.16-1.38,2.33-2.66,2.71
		c-1.39,0.41-3.08,0.02-4.14-0.98c-1.09-1.02-1.32-3.08-0.84-4.5L222.72,53.76z M161.77,79.41c0.87-1.26,1.85-2.52,3.06-3.47
		c0.54-0.42,1.18-0.82,1.86-0.96c0.35-0.07,0.61,0.11,0.59,0.48c-0.06,1.02-0.85,2.18-1.48,2.95c-1.21,1.48-2.89,2.39-4.7,2.92
		c-0.11,0.03-0.21,0.06-0.32,0.09c-0.05,0.01-0.3,0.04-0.32,0.08C160.85,80.78,161.3,80.08,161.77,79.41z M203.83,79.5
		c-0.83,2.12-2.82,7.17-3.66,8.83c-0.14,0.29-0.31,0.57-0.5,0.84c-0.9,1.31-2.26,2.26-3.92,1.49c-2.09-0.97-2.25-5.05-0.36-9.11
		c1.89-4.06,5.12-6.56,7.21-5.59c0.39,0.18,0.71,0.47,0.96,0.84C204.1,77.58,204.18,78.6,203.83,79.5z"/>
</g>
</svg>
