<?xml version="1.0" encoding="UTF-8" standalone="no"?>
<svg width="99px" height="94px" viewBox="0 0 99 94" version="1.1" xmlns="http://www.w3.org/2000/svg" xmlns:xlink="http://www.w3.org/1999/xlink" xmlns:sketch="http://www.bohemiancoding.com/sketch/ns">
    <!-- Generator: Sketch 3.3.3 (12081) - http://www.bohemiancoding.com/sketch -->
    <title>oneoff-colour</title>
    <desc>Created with Sketch.</desc>
    <defs></defs>
    <g id="Page-1" stroke="none" stroke-width="1" fill="none" fill-rule="evenodd" sketch:type="MSPage">
        <g id="oneoff-colour" sketch:type="MSArtboardGroup" transform="translate(0.000000, 0.500000)">
            <g id="beer-oneoff" sketch:type="MSLayerGroup" fill="#0A213F">
                <path d="M49.3670441,92.7096029 L0.0943676471,48.1142794 L0.0943676471,0 L98.6401765,0 L98.6401765,48.1142794 L49.3670441,92.7096029" id="Fill-1" sketch:type="MSShapeGroup"></path>
            </g>
            <path d="M57.0236974,52.9253516 C56.0241611,53.0738541 55.1179149,52.761618 53.3225573,51.4822115 C51.4510445,50.0485909 47.7708471,46.9319415 45.7089465,45.1213529 C46.5828268,43.032798 47.3043968,40.7272009 47.8888875,38.6024723 C53.0731492,37.9094605 56.6657682,35.5772091 59.070367,33.1021668 C62.9409523,29.1801768 64.6258849,24.1996302 64.5173639,20.468028 C64.3688613,15.2742469 61.1113249,13.0714593 57.7871527,13.5683716 C50.4972013,14.6573902 47.1787408,23.9959151 44.2220172,33.3610943 C40.3609513,32.6319088 40.0125415,29.3039289 39.9858872,28.3691244 C39.87927,24.6775037 42.310523,23.1334581 42.3809665,23.0820534 L39.5346679,18.9830026 C36.9054115,21.1286739 35.0034367,24.8355256 35.1252849,29.0564246 C35.2661719,33.9646239 37.9525447,37.4734723 42.6113359,38.4901435 C42.2134252,39.5696427 41.8497844,40.6834117 41.4499699,41.7210256 C39.8069226,40.7043544 38.137221,40.0951132 36.1000708,40.3997338 C31.8106322,41.0413409 29.9600621,45.2717593 30.0457366,48.2322906 C30.1256995,50.9910108 31.9819812,54.3818187 36.8064098,53.6602487 C39.5213408,53.2547226 41.5603948,51.7696972 43.0815939,49.747778 C46.5409414,52.7368676 48.4600511,54.5683988 50.6228573,56.1600414 C52.8580109,57.782146 54.8970649,58.7816823 57.2540667,58.4294648 C59.7214935,58.0601123 62.5735037,56.2076384 65.0656809,53.0243532 L61.6939118,49.3308286 C60.0318257,51.4536533 58.5258577,52.6968861 57.0256013,52.9215438 L57.0236974,52.9253516 Z M36.2333423,48.7767999 C35.2699797,48.9214947 34.464639,48.3903126 34.434177,47.3336599 C34.4037149,46.3188926 35.0567453,45.2850864 36.128629,45.1232568 C36.9149309,45.0033124 37.8954284,45.4297812 39.110103,46.4312214 C38.2495498,47.7410899 37.2709562,48.6206819 36.2352462,48.7767999 L36.2333423,48.7767999 Z M57.0103703,20.121522 C58.1546013,19.950173 58.7105339,20.6431848 58.7505154,22.021593 C58.7904968,23.4418864 58.0175221,26.4919001 55.727156,29.1554263 C54.3030548,30.7965697 52.3363481,32.2720757 49.5928589,32.9669914 C52.0659973,25.3438612 54.5429435,20.4908745 57.0103703,20.121522 Z" id="Fill-3" fill="#FDF8E6" sketch:type="MSShapeGroup"></path>
        </g>
    </g>
</svg>