<?xml version="1.0" encoding="UTF-8" standalone="no"?>
<svg width="96px" height="88px" viewBox="0 0 96 88" version="1.1" xmlns="http://www.w3.org/2000/svg" xmlns:xlink="http://www.w3.org/1999/xlink" xmlns:sketch="http://www.bohemiancoding.com/sketch/ns">
    <!-- Generator: Sketch 3.3.3 (12081) - http://www.bohemiancoding.com/sketch -->
    <title>maris-colour</title>
    <desc>Created with Sketch.</desc>
    <defs></defs>
    <g id="Page-1" stroke="none" stroke-width="1" fill="none" fill-rule="evenodd" sketch:type="MSPage">
        <g id="maris-colour" sketch:type="MSArtboardGroup">
            <g id="beer-maris" sketch:type="MSLayerGroup">
                <path d="M47.3247097,86.7314608 L2,45.4927745 L2,1 L92.6498387,1 L92.6498387,45.4927745 L47.3247097,86.7314608" id="Imported-Layers-Copy-2" fill="#FDF8E6" sketch:type="MSShapeGroup"></path>
                <path d="M0,0 L0,44.557 L47.062,87.152 L94.125,44.557 L94.125,0 L0,0 L0,0 Z M20.649,5.268 C21.306,4.601 22.171,4.263 23.04,4.255 C23.911,4.245 24.785,4.569 25.454,5.224 L43.544,22.966 L47.134,27.293 L43.693,31.441 L43.552,31.606 L38.79,27.812 L20.698,10.074 C19.359,8.761 19.338,6.605 20.649,5.268 L20.649,5.268 Z M17.267,36.5 C17.009,36.687 16.661,36.683 16.402,36.5 C16.145,36.312 16.035,35.982 16.13,35.677 L16.997,32.886 L14.63,31.228 C14.365,31.043 14.252,30.706 14.348,30.398 C14.445,30.091 14.731,29.88 15.054,29.88 L17.98,29.88 L18.909,27.081 C19.009,26.78 19.289,26.576 19.606,26.573 L19.612,26.573 C19.926,26.573 20.207,26.775 20.311,27.072 L21.269,29.829 L24.166,29.829 C24.486,29.829 24.771,30.037 24.87,30.339 C24.97,30.644 24.862,30.978 24.603,31.168 L22.23,32.904 L23.14,35.668 C23.241,35.972 23.134,36.308 22.873,36.497 C22.744,36.591 22.59,36.638 22.438,36.638 C22.284,36.638 22.131,36.591 22.001,36.496 L19.659,34.782 L17.267,36.5 L17.267,36.5 Z M24.534,55.07 L23.265,53.801 L24.055,53.026 L24.534,55.07 L24.534,55.07 Z M22.835,59.744 L19.68,56.526 L22.046,54.204 C22.047,54.205 22.048,54.207 22.049,54.209 L25.031,57.192 L25.08,57.402 C25.088,57.438 25.108,57.469 25.122,57.502 L22.835,59.744 L22.835,59.744 Z M25.916,55.934 L25.014,52.086 L27.459,49.688 L28.36,53.537 L25.916,55.934 L25.916,55.934 Z M29.319,52.596 L28.418,48.746 L30.862,46.349 L31.763,50.199 L29.319,52.596 L29.319,52.596 Z M32.722,49.259 L31.821,45.409 L34.265,43.011 L35.167,46.862 L32.722,49.259 L32.722,49.259 Z M36.126,45.921 L35.223,42.071 L37.668,39.673 L38.57,43.524 L36.126,45.921 L36.126,45.921 Z M39.529,42.582 L38.627,38.733 L39.353,38.02 C39.354,38.02 39.354,38.022 39.355,38.022 L41.741,40.414 L39.529,42.582 L39.529,42.582 Z M40.266,37.31 L43.944,32.995 L44.482,32.348 L44.45,32.322 L44.572,32.179 L47.88,28.191 L47.904,28.222 L52.266,22.966 L70.355,5.224 C71.025,4.569 71.897,4.245 72.769,4.255 C73.638,4.263 74.504,4.601 75.16,5.268 C76.471,6.605 76.45,8.761 75.112,10.074 L57.02,27.812 L51.328,32.348 L51.356,32.382 L47.941,35.104 L47.904,35.075 L46.879,35.892 L42.468,39.516 L40.266,37.31 L40.266,37.31 Z M52.838,57.905 L50.465,59.642 L51.375,62.405 C51.476,62.71 51.369,63.046 51.108,63.236 C50.979,63.329 50.825,63.377 50.673,63.377 C50.519,63.377 50.365,63.329 50.235,63.235 L47.894,61.52 L45.502,63.237 C45.244,63.425 44.896,63.421 44.638,63.237 C44.38,63.05 44.27,62.72 44.364,62.416 L45.232,59.625 L42.865,57.966 C42.6,57.78 42.487,57.445 42.583,57.136 C42.681,56.829 42.966,56.618 43.29,56.618 L46.215,56.618 L47.144,53.819 C47.244,53.519 47.524,53.314 47.841,53.312 L47.846,53.312 C48.16,53.312 48.442,53.513 48.546,53.81 L49.504,56.568 L52.401,56.568 C52.721,56.568 53.006,56.776 53.105,57.077 C53.205,57.382 53.097,57.716 52.838,57.905 L52.838,57.905 Z M48.93,35.892 L48.862,35.837 L52.093,33.263 L55.544,37.309 L53.341,39.516 L48.93,35.892 L48.93,35.892 Z M56.28,42.582 L54.069,40.414 L56.455,38.022 C56.455,38.022 56.455,38.021 56.456,38.02 L57.182,38.733 L56.28,42.582 L56.28,42.582 Z M59.684,45.92 L57.239,43.524 L58.141,39.673 L60.585,42.071 L59.684,45.92 L59.684,45.92 Z M63.087,49.258 L60.642,46.862 L61.544,43.011 L63.989,45.409 L63.087,49.258 L63.087,49.258 Z M66.49,52.596 L64.046,50.199 L64.948,46.35 L67.392,48.746 L66.49,52.596 L66.49,52.596 Z M67.449,53.537 L68.351,49.688 L70.795,52.086 L69.893,55.934 L67.449,53.537 L67.449,53.537 Z M72.974,59.744 L70.687,57.502 C70.702,57.469 70.72,57.438 70.729,57.402 L70.778,57.192 L73.76,54.209 C73.762,54.207 73.762,54.205 73.763,54.205 L76.13,56.526 L72.974,59.744 L72.974,59.744 Z M71.275,55.07 L71.754,53.026 L72.545,53.801 L71.275,55.07 L71.275,55.07 Z M79.505,31.168 L77.131,32.904 L78.042,35.668 C78.143,35.972 78.036,36.308 77.775,36.497 C77.646,36.591 77.492,36.638 77.34,36.638 C77.186,36.638 77.032,36.591 76.903,36.496 L74.561,34.782 L72.169,36.5 C71.911,36.687 71.563,36.683 71.304,36.5 C71.047,36.312 70.937,35.982 71.032,35.677 L71.899,32.886 L69.532,31.228 C69.267,31.043 69.154,30.706 69.25,30.398 C69.347,30.091 69.633,29.88 69.956,29.88 L72.882,29.88 L73.811,27.081 C73.911,26.78 74.191,26.576 74.508,26.573 L74.513,26.573 C74.828,26.573 75.109,26.775 75.213,27.072 L76.17,29.829 L79.068,29.829 C79.388,29.829 79.673,30.037 79.772,30.339 C79.872,30.644 79.764,30.978 79.505,31.168 L79.505,31.168 Z" id="Imported-Layers" fill="#1B5993" sketch:type="MSShapeGroup"></path>
            </g>
        </g>
    </g>
</svg>