<svg width="99" height="94" xmlns="http://www.w3.org/2000/svg"><g fill="none" fill-rule="evenodd"><path d="M49.367 93.21L.094 48.614V.5H98.64v48.114L49.367 93.21" fill="#0A213F"/><path d="M57.024 53.425c-1 .149-1.906-.163-3.701-1.443-1.872-1.433-5.552-4.55-7.614-6.36.874-2.09 1.595-4.395 2.18-6.52 5.184-.693 8.777-3.025 11.181-5.5 3.871-3.922 5.556-8.902 5.447-12.634-.148-5.194-3.406-7.397-6.73-6.9-7.29 1.09-10.608 10.428-13.565 19.793-3.861-.73-4.21-4.057-4.236-4.992-.107-3.691 2.325-5.236 2.395-5.287l-2.846-4.099c-2.63 2.146-4.532 5.853-4.41 10.073.141 4.909 2.828 8.417 7.486 9.434-.398 1.08-.761 2.193-1.161 3.231-1.643-1.017-3.313-1.626-5.35-1.321-4.29.641-6.14 4.872-6.054 7.832.08 2.759 1.936 6.15 6.76 5.428 2.715-.405 4.754-1.89 6.276-3.912 3.459 2.989 5.378 4.82 7.54 6.412 2.236 1.622 4.275 2.622 6.632 2.27 2.467-.37 5.32-2.222 7.812-5.406l-3.372-3.693c-1.662 2.123-3.168 3.366-4.668 3.59l-.002.004zm-20.79-4.148c-.964.144-1.77-.387-1.8-1.443-.03-1.015.623-2.049 1.695-2.21.786-.12 1.766.306 2.981 1.307-.86 1.31-1.839 2.19-2.875 2.346h-.002zM57.01 20.622c1.145-.172 1.7.521 1.74 1.9.04 1.42-.732 4.47-3.023 7.133-1.424 1.642-3.39 3.117-6.134 3.812 2.473-7.623 4.95-12.476 7.417-12.845z" fill="#FDF8E6"/></g></svg>