<?xml version="1.0" encoding="utf-8"?>
<svg version="1.1" id="Layer_1" xmlns="http://www.w3.org/2000/svg" xmlns:xlink="http://www.w3.org/1999/xlink" x="0px" y="0px"
	 width="98.125px" height="91.85px" viewBox="0 0 98.125 91.85" enable-background="new 0 0 98.125 91.85" xml:space="preserve">
<g>
	<path fill="#FDF7E7" d="M0,0v47.442l49.062,44.405l49.062-44.405V0H0z M96.125,46.557L49.062,89.151L2,46.557V2h94.125V46.557z"/>
</g>
<path id="Fill-3" fill="#FDF7E7" d="M58.296,44.756c-0.975,0.145-1.858-0.161-3.606-1.407c-1.824-1.397-5.411-4.435-7.421-6.199
	c0.852-2.035,1.556-4.284,2.125-6.354c5.054-0.675,8.555-2.949,10.899-5.362c3.772-3.823,5.415-8.677,5.309-12.314
	c-0.145-5.062-3.319-7.209-6.56-6.725c-7.106,1.062-10.34,10.165-13.222,19.292c-3.764-0.711-4.103-3.956-4.129-4.866
	c-0.104-3.598,2.266-5.104,2.334-5.153l-2.773-3.996c-2.564,2.092-4.417,5.706-4.299,9.819c0.137,4.785,2.756,8.205,7.297,9.195
	c-0.389,1.053-0.743,2.138-1.132,3.149c-1.602-0.991-3.23-1.584-5.215-1.287c-4.181,0.624-5.984,4.748-5.901,7.633
	c0.078,2.688,1.888,5.991,6.59,5.288c2.646-0.395,4.634-1.842,6.117-3.811c3.372,2.911,5.242,4.696,7.35,6.248
	c2.178,1.58,4.165,2.555,6.463,2.212c2.406-0.36,5.187-2.167,7.615-5.268l-3.287-3.6c-1.62,2.068-3.088,3.28-4.551,3.499
	L58.296,44.756z M38.032,40.713c-0.94,0.141-1.724-0.376-1.754-1.406c-0.028-0.991,0.607-1.997,1.652-2.155
	c0.767-0.116,1.722,0.299,2.905,1.276c-0.838,1.276-1.792,2.133-2.802,2.285H38.032L38.032,40.713z M58.282,12.783
	c1.116-0.167,1.659,0.508,1.696,1.852c0.04,1.384-0.713,4.358-2.946,6.954c-1.388,1.6-3.305,3.038-5.979,3.715
	C53.465,17.874,55.879,13.143,58.282,12.783z"/>
<g>
	<path fill="#FDF7E7" d="M34.159,59.889c0,1.2-0.787,1.815-2.001,1.815c-1.201,0-1.987-0.615-1.987-1.815v-1.517
		c0-1.2,0.786-1.815,2.001-1.815c1.201,0,1.987,0.615,1.987,1.815V59.889z M33.051,58.372c0-0.564-0.351-0.851-0.879-0.851
		c-0.543,0-0.894,0.286-0.894,0.851v1.517c0,0.564,0.35,0.85,0.879,0.85c0.543,0,0.894-0.285,0.894-0.85V58.372z"/>
	<path fill="#FDF7E7" d="M37.197,60.667h0.572v0.966h-2.252v-0.966h0.572v-3.074h-0.572v-0.965h1.609l1.844,2.967v-2.002h-0.572
		v-0.965h2.252v0.965h-0.572v4.04h-1.037l-1.845-2.967V60.667L37.197,60.667z"/>
	<path fill="#FDF7E7" d="M42.294,57.593h-0.572v-0.965h4.06v1.608h-1.108v-0.644h-1.272v1.051h1.594v0.966h-1.594v1.058h1.272
		v-0.643h1.108v1.608h-4.06v-0.966h0.572V57.593z"/>
	<path fill="#FDF7E7" d="M46.855,59.323h1.665v0.894h-1.665V59.323z"/>
	<path fill="#FDF7E7" d="M53.797,59.889c0,1.2-0.787,1.815-2.002,1.815c-1.2,0-1.987-0.615-1.987-1.815v-1.517
		c0-1.2,0.787-1.815,2.002-1.815c1.2,0,1.987,0.615,1.987,1.815V59.889z M52.688,58.372c0-0.564-0.35-0.851-0.879-0.851
		c-0.544,0-0.894,0.286-0.894,0.851v1.517c0,0.564,0.35,0.85,0.879,0.85c0.544,0,0.894-0.285,0.894-0.85V58.372z"/>
	<path fill="#FDF7E7" d="M57.621,61.633h-2.466v-0.966h0.572v-3.074h-0.572v-0.965h4.061v1.608h-1.108v-0.644h-1.272v1.158h1.594
		v0.966h-1.594v0.95h0.786V61.633L57.621,61.633z"/>
	<path fill="#FDF7E7" d="M62.969,61.633h-2.466v-0.966h0.571v-3.074h-0.571v-0.965h4.06v1.608h-1.108v-0.644h-1.271v1.158h1.594
		v0.966h-1.594v0.95h0.786V61.633z"/>
	<path fill="#FDF7E7" d="M37.901,66.172H37.33v-0.965h2.674c0.879,0,1.458,0.45,1.458,1.329c0,0.558-0.236,0.943-0.636,1.151
		c0.443,0.2,0.708,0.607,0.708,1.193c0,0.88-0.579,1.329-1.458,1.329H37.33v-0.964h0.572V66.172z M39.01,67.223h0.801
		c0.357,0,0.507-0.187,0.507-0.529s-0.157-0.521-0.507-0.521H39.01V67.223z M39.01,69.246h0.872c0.351,0,0.508-0.179,0.508-0.522
		c0-0.343-0.15-0.536-0.508-0.536H39.01V69.246z"/>
	<path fill="#FDF7E7" d="M42.82,65.207h2.63c1.037,0,1.716,0.485,1.716,1.559c0,0.779-0.357,1.258-0.951,1.458l0.593,1.022h0.672
		v0.964h-1.388l-1.086-1.879H44.5v0.915h0.572v0.964H42.82v-0.964h0.571v-3.074H42.82V65.207z M44.5,67.366h0.915
		c0.372,0,0.608-0.172,0.608-0.601c0-0.43-0.243-0.594-0.608-0.594H44.5V67.366z"/>
	<path fill="#FDF7E7" d="M49.125,66.172h-0.572v-0.965h4.061v1.608h-1.108v-0.644h-1.272v1.051h1.594v0.965h-1.594v1.059h1.272
		v-0.645h1.108v1.608h-4.061v-0.964h0.572V66.172z"/>
	<path fill="#FDF7E7" d="M58.369,65.207h2.108v0.965h-0.536l-0.973,4.038h-1.251l-0.7-2.974l-0.693,2.974h-1.252l-0.979-4.038
		h-0.479v-0.965h2.109v0.965h-0.529l0.544,2.623l0.765-3.589h1.072l0.758,3.589l0.543-2.623h-0.507V65.207L58.369,65.207z"/>
</g>
</svg>
