<?xml version="1.0" encoding="utf-8"?>
<!-- Generator: Adobe Illustrator 16.0.0, SVG Export Plug-In . SVG Version: 6.00 Build 0)  -->
<!DOCTYPE svg PUBLIC "-//W3C//DTD SVG 1.1//EN" "http://www.w3.org/Graphics/SVG/1.1/DTD/svg11.dtd">
<svg version="1.1" id="Layer_1" xmlns="http://www.w3.org/2000/svg" xmlns:xlink="http://www.w3.org/1999/xlink" x="0px" y="0px"
	 width="98.139px" height="91.85px" viewBox="0 0 98.139 91.85" enable-background="new 0 0 98.139 91.85" xml:space="preserve">
<g id="Layer_2">
</g>
<g>
	<g>
		<g>
			<path fill="#FEFCF8" d="M48.674,91.04L0.288,47.247V0h96.77v47.247L48.674,91.04z M2.221,46.392l46.453,42.043l46.451-42.042
				V1.934H2.221V46.392z"/>
		</g>
	</g>
</g>
<path fill="#FEFCF8" d="M36.461,52.491c-1.039,0.154-1.908-0.42-1.941-1.559c-0.032-1.094,0.672-2.209,1.828-2.383
	c0.849-0.127,1.906,0.33,3.216,1.41C38.636,51.372,37.58,52.322,36.461,52.491 M58.871,21.577c1.232-0.185,1.835,0.562,1.878,2.049
	c0.046,1.532-0.788,4.82-3.261,7.696c-1.534,1.768-3.657,3.359-6.615,4.109C53.537,27.209,56.211,21.974,58.871,21.577
	 M58.889,55.686c-1.08,0.162-2.057-0.178-3.994-1.557c-2.019-1.547-5.985-4.906-8.21-6.859c0.941-2.253,1.722-4.744,2.353-7.037
	c5.59-0.748,9.466-3.259,12.058-5.934c4.176-4.227,5.995-9.598,5.879-13.625c-0.162-5.603-3.677-7.979-7.262-7.444
	c-7.863,1.174-11.441,11.248-14.634,21.352c-4.165-0.785-4.54-4.377-4.569-5.383c-0.114-3.984,2.508-5.65,2.584-5.705l-3.069-4.42
	c-2.836,2.314-4.889,6.312-4.757,10.865c0.153,5.296,3.05,9.082,8.075,10.179c-0.431,1.162-0.821,2.363-1.254,3.484
	c-1.773-1.1-3.573-1.752-5.77-1.424c-4.626,0.691-6.623,5.253-6.53,8.449c0.085,2.977,2.088,6.635,7.292,5.855
	c2.93-0.438,5.128-2.041,6.769-4.221c3.731,3.225,5.801,5.199,8.134,6.92c2.412,1.748,4.612,2.826,7.156,2.445
	c2.658-0.396,5.736-2.395,8.423-5.83l-3.636-3.982C62.133,54.104,60.506,55.446,58.889,55.686"/>
</svg>
