<?xml version="1.0" encoding="utf-8"?>
<!-- Generator: Adobe Illustrator 16.0.0, SVG Export Plug-In . SVG Version: 6.00 Build 0)  -->
<!DOCTYPE svg PUBLIC "-//W3C//DTD SVG 1.1//EN" "http://www.w3.org/Graphics/SVG/1.1/DTD/svg11.dtd">
<svg version="1.1" id="Layer_1" xmlns="http://www.w3.org/2000/svg" xmlns:xlink="http://www.w3.org/1999/xlink" x="0px" y="0px"
	 width="397.465px" height="373.92px" viewBox="0 0 397.465 373.92" enable-background="new 0 0 397.465 373.92"
	 xml:space="preserve">
<g id="beer-oneoff" sketch:type="MSLayerGroup">
	<path id="Fill-1" sketch:type="MSShapeGroup" fill="#EA7167" d="M198.732,373.92L0,194.058V0h397.465v194.058L198.732,373.92"/>
</g>
<path id="Fill-3" sketch:type="MSShapeGroup" fill="#FFFFFF" d="M234.881,181.315c-3.818,0.567-7.277-0.627-14.129-5.511
	c-7.144-5.472-21.192-17.373-29.066-24.285c3.336-7.971,6.093-16.777,8.322-24.885c19.793-2.644,33.508-11.55,42.687-21.001
	c14.779-14.972,21.211-33.986,20.796-48.231c-0.566-19.826-13.003-28.237-25.694-26.339c-27.831,4.157-40.498,39.809-51.784,75.562
	c-14.742-2.785-16.071-15.491-16.172-19.059c-0.411-14.092,8.873-19.991,9.14-20.184l-10.863-15.651
	c-10.04,8.195-17.299,22.347-16.836,38.46c0.537,18.738,10.797,32.133,28.581,36.014c-1.521,4.123-2.908,8.374-4.434,12.333
	c-6.274-3.881-12.65-6.204-20.427-5.041c-16.374,2.446-23.439,18.596-23.111,29.9c0.302,10.531,7.394,23.474,25.811,20.72
	c10.365-1.546,18.149-7.217,23.958-14.935c13.205,11.409,20.529,18.402,28.787,24.479c8.531,6.192,16.315,10.007,25.315,8.665
	c9.421-1.411,20.311-8.486,29.825-20.636l-12.877-14.101c-6.346,8.102-12.094,12.851-17.821,13.708L234.881,181.315z
	 M155.512,165.478c-3.68,0.552-6.752-1.477-6.87-5.51c-0.112-3.877,2.378-7.822,6.472-8.441c3.001-0.455,6.745,1.171,11.378,4.996
	c-3.281,5-7.017,8.359-10.973,8.956H155.512z M234.828,56.079c4.37-0.652,6.495,1.991,6.645,7.255
	c0.156,5.421-2.796,17.068-11.543,27.235c-5.436,6.267-12.944,11.896-23.416,14.551C215.957,76.017,225.412,57.488,234.828,56.079z"
	/>
<text transform="matrix(1 0 0 1 123.0391 247.4209)"><tspan x="0" y="0" fill="#FFFFFF" font-family="'Kulturista-Bold'" font-size="28" letter-spacing="2">ONE-OFF  </tspan><tspan x="28.602" y="33.6" fill="#FFFFFF" font-family="'Kulturista-Bold'" font-size="28" letter-spacing="2">BREW</tspan></text>
</svg>
