<svg xmlns="http://www.w3.org/2000/svg" width="98.139" height="91.85"><path fill="#FEFCF8" d="M48.674 91.04L.288 47.247V0h96.77v47.247L48.674 91.04zM2.221 46.392l46.453 42.043 46.451-42.042V1.934H2.221v44.458z"/><path fill="#FEFCF8" d="M36.461 52.491c-1.039.154-1.908-.42-1.941-1.559-.032-1.094.672-2.209 1.828-2.383.849-.127 1.906.33 3.216 1.41-.928 1.413-1.984 2.363-3.103 2.532m22.41-30.914c1.232-.185 1.835.562 1.878 2.049.046 1.532-.788 4.82-3.261 7.696-1.534 1.768-3.657 3.359-6.615 4.109 2.664-8.222 5.338-13.457 7.998-13.854m.018 34.109c-1.08.162-2.057-.178-3.994-1.557-2.019-1.547-5.985-4.906-8.21-6.859.941-2.253 1.722-4.744 2.353-7.037 5.59-.748 9.466-3.259 12.058-5.934 4.176-4.227 5.995-9.598 5.879-13.625-.162-5.603-3.677-7.979-7.262-7.444-7.863 1.174-11.441 11.248-14.634 21.352-4.165-.785-4.54-4.377-4.569-5.383-.114-3.984 2.508-5.65 2.584-5.705l-3.069-4.42c-2.836 2.314-4.889 6.312-4.757 10.865.153 5.296 3.05 9.082 8.075 10.179-.431 1.162-.821 2.363-1.254 3.484-1.773-1.1-3.573-1.752-5.77-1.424-4.626.691-6.623 5.253-6.53 8.449.085 2.977 2.088 6.635 7.292 5.855 2.93-.438 5.128-2.041 6.769-4.221 3.731 3.225 5.801 5.199 8.134 6.92 2.412 1.748 4.612 2.826 7.156 2.445 2.658-.396 5.736-2.395 8.423-5.83l-3.636-3.982c-1.794 2.29-3.421 3.632-5.038 3.872"/></svg>