<?xml version="1.0" encoding="utf-8"?>
<svg version="1.1" id="Layer_1" xmlns="http://www.w3.org/2000/svg" x="0px" y="0px"
	 width="397.465px" height="373.92px" viewBox="0 0 397.465 373.92" enable-background="new 0 0 397.465 373.92"
	 xml:space="preserve">
<g id="beer-oneoff" >
	<path id="Fill-1" fill="#EA7167" d="M198.732,373.92L0,194.058V0h397.465v194.058L198.732,373.92"/>
</g>
<path id="Fill-3" fill="#FFFFFF" d="M234.881,181.315c-3.818,0.567-7.277-0.627-14.129-5.511
	c-7.144-5.472-21.192-17.373-29.066-24.285c3.336-7.971,6.093-16.777,8.322-24.885c19.793-2.644,33.508-11.55,42.687-21.001
	c14.779-14.972,21.211-33.986,20.796-48.231c-0.566-19.826-13.003-28.237-25.694-26.339c-27.831,4.157-40.498,39.809-51.784,75.562
	c-14.742-2.785-16.071-15.491-16.172-19.059c-0.411-14.092,8.873-19.991,9.14-20.184l-10.863-15.651
	c-10.04,8.195-17.299,22.347-16.836,38.46c0.537,18.738,10.797,32.133,28.581,36.014c-1.521,4.123-2.908,8.374-4.434,12.333
	c-6.274-3.881-12.65-6.204-20.427-5.041c-16.374,2.446-23.439,18.596-23.111,29.9c0.302,10.531,7.394,23.474,25.811,20.72
	c10.365-1.546,18.149-7.217,23.958-14.935c13.205,11.409,20.529,18.402,28.787,24.479c8.531,6.192,16.315,10.007,25.315,8.665
	c9.421-1.411,20.311-8.486,29.825-20.636l-12.877-14.101c-6.346,8.102-12.094,12.851-17.821,13.708L234.881,181.315z
	 M155.512,165.478c-3.68,0.552-6.752-1.477-6.87-5.51c-0.112-3.877,2.378-7.822,6.472-8.441c3.001-0.455,6.745,1.171,11.378,4.996
	c-3.281,5-7.017,8.359-10.973,8.956H155.512z M234.828,56.079c4.37-0.652,6.495,1.991,6.645,7.255
	c0.156,5.421-2.796,17.068-11.543,27.235c-5.436,6.267-12.944,11.896-23.416,14.551C215.957,76.017,225.412,57.488,234.828,56.079z"
	/>
<g>
	<path fill="#FFFFFF" d="M140.343,240.589c0,4.704-3.08,7.112-7.84,7.112c-4.704,0-7.784-2.408-7.784-7.112v-5.936
		c0-4.704,3.08-7.112,7.84-7.112c4.704,0,7.784,2.408,7.784,7.112V240.589z M136.003,234.653c0-2.212-1.372-3.332-3.444-3.332
		c-2.128,0-3.5,1.12-3.5,3.332v5.936c0,2.212,1.372,3.332,3.444,3.332c2.128,0,3.5-1.12,3.5-3.332V234.653z"/>
	<path fill="#FFFFFF" d="M152.242,243.641h2.24v3.78h-8.82v-3.78h2.24v-12.04h-2.24v-3.779h6.301l7.224,11.62v-7.841h-2.24v-3.779
		h8.82v3.779h-2.24v15.82h-4.06l-7.225-11.62V243.641z"/>
	<path fill="#FFFFFF" d="M172.206,231.601h-2.239v-3.779h15.903v6.3h-4.34v-2.521h-4.983v4.116h6.243v3.78h-6.243v4.144h4.983v-2.52
		h4.34v6.3h-15.903v-3.78h2.239V231.601z"/>
	<path fill="#FFFFFF" d="M190.07,238.377h6.523v3.5h-6.523V238.377z"/>
	<path fill="#FFFFFF" d="M217.258,240.589c0,4.704-3.08,7.112-7.84,7.112c-4.703,0-7.783-2.408-7.783-7.112v-5.936
		c0-4.704,3.08-7.112,7.84-7.112c4.703,0,7.783,2.408,7.783,7.112V240.589z M212.918,234.653c0-2.212-1.371-3.332-3.443-3.332
		c-2.129,0-3.5,1.12-3.5,3.332v5.936c0,2.212,1.371,3.332,3.443,3.332c2.129,0,3.5-1.12,3.5-3.332V234.653z"/>
	<path fill="#FFFFFF" d="M232.238,247.421h-9.66v-3.78h2.24v-12.04h-2.24v-3.779h15.904v6.3h-4.34v-2.521h-4.984v4.536h6.244v3.78
		h-6.244v3.724h3.08V247.421z"/>
	<path fill="#FFFFFF" d="M253.182,247.421h-9.66v-3.78h2.24v-12.04h-2.24v-3.779h15.904v6.3h-4.34v-2.521h-4.984v4.536h6.244v3.78
		h-6.244v3.724h3.08V247.421z"/>
	<path fill="#FFFFFF" d="M155,265.2h-2.239v-3.779h10.472c3.444,0,5.712,1.764,5.712,5.208c0,2.184-0.924,3.695-2.491,4.508
		c1.735,0.784,2.771,2.38,2.771,4.676c0,3.444-2.268,5.208-5.712,5.208h-10.752v-3.78H155V265.2z M159.341,269.316h3.136
		c1.4,0,1.988-0.728,1.988-2.072c0-1.344-0.616-2.044-1.988-2.044h-3.136V269.316z M159.341,277.24h3.415
		c1.373,0,1.988-0.7,1.988-2.044s-0.588-2.1-1.988-2.1h-3.415V277.24z"/>
	<path fill="#FFFFFF" d="M174.265,261.421h10.304c4.061,0,6.721,1.903,6.721,6.104c0,3.052-1.4,4.928-3.725,5.712l2.324,4.004h2.632
		v3.78h-5.433l-4.256-7.364h-1.987v3.584h2.239v3.78h-8.819v-3.78h2.239V265.2h-2.239V261.421z M180.845,269.877h3.584
		c1.456,0,2.38-0.673,2.38-2.353s-0.952-2.324-2.38-2.324h-3.584V269.877z"/>
	<path fill="#FFFFFF" d="M198.961,265.2h-2.24v-3.779h15.904v6.3h-4.34V265.2h-4.984v4.116h6.244v3.78h-6.244v4.144h4.984v-2.52
		h4.34v6.3h-15.904v-3.78h2.24V265.2z"/>
	<path fill="#FFFFFF" d="M235.164,261.421h8.26v3.779h-2.1l-3.809,15.82h-4.899l-2.743-11.648l-2.717,11.648h-4.9l-3.836-15.82
		h-1.875v-3.779h8.26v3.779h-2.072l2.128,10.276l2.996-14.056h4.2l2.968,14.056l2.128-10.276h-1.988V261.421z"/>
</g>
</svg>
