<svg version="1.1" xmlns="http://www.w3.org/2000/svg" xmlns:xlink="http://www.w3.org/1999/xlink" x="0px" y="0px"
	 width="190.839px" height="178.636px" viewBox="0 0 190.839 178.636" enable-background="new 0 0 190.839 178.636"
	 xml:space="preserve">
<g id="BACKGROUND">
</g>
<g id="AWAY">
	<path id="BACKGROUND_4_" fill="#FAF4E4" d="M0,0v92.272l95.42,86.363l95.419-86.363V0H0z"/>
	<g id="FILLS_4_">
		<g>
			<polygon fill="#F8EFD5" points="63.729,100.798 59.836,103.664 61.676,109.178 65.958,111.354 67.146,111.901 70.579,110.371
				"/>
			<polygon fill="#FCF7EC" points="79.09,106.578 81.66,102.616 81.775,102.676 81.866,102.535 69.946,96.441 69.912,96.467
				63.774,100.852 70.579,110.371 			"/>
			<polygon fill="#FCF7EC" points="58.637,90.553 58.305,93.201 63.739,100.804 69.735,96.408 			"/>
			<polygon fill="#F8EFD5" points="58.079,95.005 57.813,97.039 59.687,103.773 63.739,100.804 58.305,93.201 			"/>
			<polygon fill="#F8EFD5" points="70.673,110.504 70.579,110.371 67.146,111.901 67.121,111.912 73.674,114.934 73.922,115.048
				"/>
			<polygon fill="#FAF4E4" points="100.542,90.021 95.382,81.763 95.284,81.604 95.283,81.603 95.204,81.726 95.171,81.775
				89.855,90.071 86.064,95.984 81.866,102.535 81.775,102.676 81.66,102.616 79.09,106.578 70.579,110.371 70.673,110.504
				73.922,115.048 77.463,116.681 95.382,124.942 95.382,100.285 95.382,99.319 95.382,96.334 95.382,95.98 95.382,82.11
				100.442,90.136 103.854,95.546 103.963,95.497 			"/>
			<polygon fill="#FCF7EC" points="58.637,90.553 69.735,96.408 69.77,96.383 58.637,90.548 58.512,90.482 58.512,90.487
				55.065,88.669 58.305,93.201 			"/>
			<polygon fill="#F8EFD5" points="55.065,88.669 54.819,88.539 57.901,97.251 58.079,95.005 58.305,93.201 			"/>
		</g>
		<g>
			<polygon fill="#EDD99D" points="134.193,89.538 126.134,100.867 115.539,115.761 116.053,115.522 116.358,115.381
				125.117,111.323 128.145,109.92 128.211,109.699 128.819,107.669 129.971,103.824 130.461,102.19 131.939,97.254 131.976,97.571
				134.446,89.407 			"/>
			<polygon fill="#F3E4B1" points="131.222,91.075 131.23,91.15 131.148,91.112 128.151,92.662 128.087,92.695 120.652,96.643
				108.656,103.012 103.963,95.497 103.854,95.546 100.442,90.136 95.382,82.11 95.382,95.98 95.057,96.069 95.448,125.063
				95.76,125.063 113.399,116.752 115.539,115.761 126.134,100.867 134.193,89.538 			"/>
		</g>
		<polygon fill="none" points="85.341,2.038 85.006,3.321 86.05,3.321 		"/>
		<polygon fill="none" points="105.296,1.817 105.681,3.321 105.744,3.321 105.165,1.005 103.892,3.321 105.681,3.321 		"/>
		<polygon fill="#C4E86B" points="60.968,71.905 59.49,83.719 59.562,83.751 		"/>
		<polygon fill="#C4E86B" points="72.824,59.786 77.785,63.609 72.916,59.619 		"/>
		<polygon fill="#C4E86B" points="67.121,111.912 65.781,111.295 65.808,111.322 67.089,111.926 		"/>
		<polygon fill="#C4E86B" points="64.376,110.646 65.808,111.322 65.781,111.295 		"/>
		<polygon fill="#C4E86B" points="128.151,92.662 128.087,92.695 128.087,92.695 		"/>
		<polygon fill="#C4E86B" points="121.387,65.896 121.632,65.613 119.666,57.931 119.439,58.105 		"/>
		<polygon fill="#C4E86B" points="85.009,37.744 88.667,30.99 84.936,37.773 86.701,40.207 		"/>
		<polygon fill="#C4E86B" points="87.812,50.033 87.836,49.988 81.753,43.558 81.739,43.581 		"/>
		<polygon fill="#C4E86B" points="119.417,58.013 119.439,58.105 119.666,57.931 114.418,37.438 114.328,37.532 119.432,58.001
			"/>
		<polygon fill="#C4E86B" points="72.916,59.619 70.941,58.001 75.246,40.734 70.703,58.151 72.824,59.786 		"/>
		<polygon fill="#C4E86B" points="81.753,43.558 76.076,37.556 76.074,37.562 81.739,43.581 		"/>
		<polygon fill="#C4E86B" points="114.303,37.559 114.328,37.532 114.328,37.532 114.418,37.438 112.229,28.887 112.159,28.98 		"/>
		<polygon fill="#C4E86B" points="130.461,102.19 130.514,102.403 131.976,97.571 131.939,97.254 		"/>
		<polygon fill="#C4E86B" points="95.552,125.021 95.382,124.942 95.382,125.26 95.554,125.341 113.424,116.78 113.399,116.752
			"/>
		<polygon fill="#C4E86B" points="96.688,125.875 95.554,125.341 95.463,125.385 		"/>
		<polygon fill="#C4E86B" points="95.382,125.362 95.395,125.357 95.463,125.385 95.554,125.341 95.382,125.26 		"/>
		<polygon fill="#C4E86B" points="127.484,58.898 125.659,61.006 127.486,58.915 		"/>
		<polygon fill="#C4E86B" points="129.971,103.824 130.062,103.895 130.514,102.403 130.461,102.19 		"/>
		<polygon fill="#C4E86B" points="129.971,103.824 128.819,107.669 128.963,107.528 130.062,103.895 		"/>
		<polygon fill="#C4E86B" points="113.399,116.752 113.424,116.78 116.053,115.522 		"/>
		<polygon fill="#C4E86B" points="102.547,50.047 108.44,43.787 108.421,43.753 102.511,49.979 		"/>
		<polygon fill="#C4E86B" points="89.82,90.029 85.984,95.947 86.064,95.984 89.855,90.071 		"/>
		<polygon fill="#C4E86B" points="111.817,89.835 113.596,91.205 113.645,91.184 		"/>
		<polygon fill="#C4E86B" points="117.282,59.768 119.439,58.105 119.417,58.013 117.261,59.729 		"/>
		<polygon fill="#C4E86B" points="114.261,37.603 108.421,43.753 108.44,43.787 		"/>
		<polygon fill="#C4E86B" points="94.351,53.166 92.815,55.252 92.822,55.26 		"/>
		<polygon fill="#C4E86B" points="97.567,55.186 95.249,51.989 95.234,52.009 97.56,55.194 		"/>
		<polygon fill="#C4E86B" points="92.822,55.26 92.815,55.252 83.448,67.974 83.509,68.02 		"/>
		<polygon fill="#C4E86B" points="112.229,28.887 108.335,13.688 112.159,28.98 		"/>
		<polygon fill="#C4E86B" points="78.982,89.282 85.042,84.613 84.963,84.526 		"/>
		<polygon fill="#C4E86B" points="86.064,95.984 85.984,95.947 81.66,102.616 81.775,102.676 		"/>
		<polygon fill="#C4E86B" points="77.38,116.775 95.382,125.26 95.382,124.942 77.463,116.681 		"/>
		<polygon fill="#C4E86B" points="67.121,111.912 67.089,111.926 73.627,115.007 73.674,114.934 		"/>
		<polygon fill="#C4E86B" points="73.674,114.934 73.627,115.007 77.38,116.775 77.463,116.681 		"/>
		<polygon fill="#C4E86B" points="128.087,92.695 120.57,96.58 120.652,96.643 128.087,92.695 		"/>
		<polygon fill="#C4E86B" points="97.567,55.186 97.56,55.194 99.82,58.291 		"/>
		<polygon fill="#C4E86B" points="89.855,90.071 95.171,81.775 95.171,81.775 89.82,90.029 		"/>
		<polygon fill="#C4E86B" points="95.204,81.726 95.171,81.775 95.171,81.775 		"/>
		<polygon fill="#C4E86B" points="117.282,59.768 117.261,59.729 115.117,61.438 		"/>
		<polygon fill="#C4E86B" points="128.819,107.669 128.211,109.699 128.321,109.646 128.963,107.528 		"/>
		<polygon fill="#C4E86B" points="107.863,11.796 107.854,11.811 108.335,13.688 		"/>
		<polygon fill="#C4E86B" points="107.854,11.811 107.863,11.796 105.744,3.321 105.681,3.321 		"/>
		<polygon fill="#C4E86B" points="99.531,27.685 94.996,19.487 94.933,19.603 99.525,27.696 		"/>
		<polygon fill="#C4E86B" points="100.013,28.556 99.531,27.685 99.525,27.696 		"/>
		<g>
			<polygon fill="#58A766" points="123.839,27.516 122.394,15.08 112.229,28.887 114.418,37.438 			"/>
			<polygon fill="#58A766" points="116.358,115.381 116.053,115.522 113.424,116.78 95.554,125.341 96.688,125.875 100.009,127.205
				100.01,127.44 105.951,130.241 116.294,120.032 125.117,111.323 			"/>
			<polygon fill="#58A766" points="89.82,90.029 95.171,81.775 93.119,78.521 88.915,81.76 88.867,81.665 85.042,84.613
				78.982,89.282 76.252,91.454 85.984,95.947 			"/>
			<polygon fill="#58A766" points="107.815,69.244 107.795,69.282 112.617,75.931 115.062,73.135 110.649,64.995 110.588,65.044
				110.543,64.961 106.796,67.849 			"/>
			<polygon fill="#58A766" points="108.421,43.753 105.466,38.413 100.088,45.472 100.077,45.487 102.511,49.979 			"/>
			<polygon fill="#58A766" points="92.815,55.252 87.836,49.988 87.812,50.033 87.848,50.071 79.88,65.224 83.448,67.974 			"/>
			<polygon fill="#58A766" points="94.882,19.515 94.933,19.603 94.996,19.487 86.05,3.321 85.006,3.321 82.478,13.016
				90.443,27.712 			"/>
			<polygon fill="#58A766" points="31.52,27.957 3.544,6.397 3.544,49.058 19.959,65.473 29.852,75.365 54.819,88.539
				51.558,80.057 			"/>
			<polygon fill="#58A766" points="90.7,136.214 84.921,130.435 70.316,137.389 76.732,159.085 95.231,140.821 90.7,136.326 			"/>
		</g>
		<g>
			<polygon fill="#00994B" points="84.936,37.773 81.753,43.558 87.836,49.988 90.253,45.379 86.701,40.207 			"/>
			<polygon fill="#00994B" points="107.179,70.437 101.194,81.648 101.18,81.675 95.124,76.976 93.119,78.521 95.171,81.775
				95.204,81.726 95.283,81.603 95.284,81.604 95.382,81.763 100.542,90.021 105.035,84.83 104.918,84.742 105.034,84.608
				112.617,75.931 107.795,69.282 			"/>
			<polygon fill="#00994B" points="128.087,92.695 128.151,92.662 131.142,91.074 131.148,91.112 131.222,91.075 130.387,83.892
				126.729,85.51 126.334,85.684 113.737,91.252 113.645,91.184 113.596,91.205 120.57,96.58 			"/>
			<polygon fill="#00994B" points="97.567,55.186 102.511,49.979 100.077,45.487 95.249,51.989 			"/>
			<polygon fill="#00994B" points="75.447,73.613 77.542,75.995 83.448,67.974 79.88,65.224 79.843,65.296 79.819,65.276 			"/>
			<polygon fill="#00994B" points="85.006,3.321 77.223,3.321 82.478,13.016 			"/>
			<polygon fill="#00994B" points="100.049,136.065 105.951,130.241 100.01,127.44 			"/>
			<polygon fill="#00994B" points="112.308,3.321 105.744,3.321 107.863,11.796 			"/>
			<polygon fill="#00994B" points="103.892,3.321 86.05,3.321 94.996,19.487 			"/>
			<polygon fill="#00994B" points="131.896,107.933 128.321,109.646 122.909,127.529 120.073,136.896 131.78,142.414
				134.15,140.271 136.671,137.988 138.904,135.967 187.297,92.167 187.297,81.396 133.112,107.352 			"/>
			<polygon fill="#00994B" points="151.367,33.501 137.067,80.747 134.446,89.407 161.468,75.442 171.746,65.297 187.297,49.945
				187.297,5.812 			"/>
			<polygon fill="#00994B" points="131.053,3.321 121.028,3.321 122.394,15.08 			"/>
			<polygon fill="#00994B" points="160.502,3.321 146.812,3.321 123.839,27.516 126.738,52.481 145.666,37.895 151.367,33.501
				152.388,30.131 			"/>
			<polygon fill="#00994B" points="112.159,28.98 108.335,13.688 107.854,11.811 99.531,27.685 100.013,28.556 105.436,38.112
				"/>
			<polygon fill="#00994B" points="58.512,90.482 58.637,90.548 59.49,83.719 60.968,71.905 62.493,59.059 62.513,58.898
				62.584,58.979 68.678,65.912 70.703,58.151 63.392,52.518 42.549,36.456 31.52,27.957 51.558,80.057 54.819,88.539
				58.512,90.487 			"/>
			<polygon fill="#00994B" points="22.045,3.321 13.312,3.321 3.544,3.321 3.544,6.397 31.52,27.957 28.792,20.864 			"/>
			<polygon fill="#00994B" points="3.544,49.058 3.544,57.896 3.544,61.484 29.852,75.365 19.959,65.473 			"/>
			<polygon fill="#00994B" points="76.076,37.556 78.377,28.733 68.13,14.609 66.524,27.459 			"/>
			<polygon fill="#00994B" points="69.542,3.321 59.94,3.321 68.13,14.609 			"/>
			<polygon fill="#00994B" points="84.921,130.435 74.542,120.056 65.808,111.322 64.376,110.646 61.549,109.36 67.859,130.341
				67.944,130.209 70.299,137.423 			"/>
			<polygon fill="#00994B" points="59.677,103.708 57.785,97.356 54.819,88.539 29.852,75.365 57.125,102.639 61.089,107.478 			"/>
		</g>
		<g>
			<polygon fill="#82B787" points="63.521,85.683 59.547,83.857 59.562,83.751 59.49,83.719 58.637,90.548 69.77,96.383
				76.133,91.479 68.667,88.048 68.032,87.756 			"/>
			<polygon fill="#82B787" points="73.627,115.007 67.089,111.926 65.808,111.322 74.542,120.056 84.921,130.435 90.66,127.685
				90.659,127.357 95.382,125.362 95.382,125.26 77.38,116.775 			"/>
			<polygon fill="#82B787" points="114.418,37.438 119.666,57.931 126.738,52.481 123.839,27.516 			"/>
			<polygon fill="#82B787" points="94.351,53.166 94.896,52.42 90.26,45.389 90.253,45.379 87.836,49.988 92.815,55.252 			"/>
			<polygon fill="#00783E" points="70.173,137.548 67.361,128.298 67.273,128.4 61.361,109.173 56.583,106.974 3.544,81.978
				3.544,92.167 52.854,136.796 56.889,140.447 59.355,142.68 77.089,158.73 70.097,137.584 			"/>
			<polygon fill="#82B787" points="171.746,65.297 161.468,75.442 187.297,62.092 187.297,58.368 187.297,49.945 			"/>
			<polygon fill="#82B787" points="68.13,14.609 59.94,3.321 43.69,3.321 66.524,27.459 			"/>
		</g>
		<g>
			<polygon fill="#00783E" points="151.367,33.501 145.666,37.895 126.738,52.481 119.666,57.931 121.632,65.613 125.659,61.006
				127.484,58.898 127.486,58.915 127.501,58.898 130.445,83.698 130.464,83.857 130.387,83.892 131.222,91.075 134.446,89.407
				137.067,80.747 			"/>
			<polygon fill="#00783E" points="84.921,130.435 90.7,136.214 90.66,127.685 			"/>
			<polygon fill="#00783E" points="84.963,84.526 85.042,84.613 88.867,81.665 82.615,69.244 83.509,68.02 83.448,67.974
				77.542,75.995 85.009,84.49 			"/>
			<polygon fill="#00783E" points="113.596,91.205 111.817,89.835 105.035,84.83 100.542,90.021 103.963,95.497 108.656,103.012
				120.652,96.643 120.57,96.58 			"/>
			<polygon fill="#00783E" points="76.252,91.454 76.188,91.504 76.133,91.479 69.77,96.383 81.66,102.616 85.984,95.947 			"/>
			<polygon fill="#00783E" points="107.854,11.811 105.681,3.321 103.892,3.321 94.996,19.487 99.531,27.685 			"/>
			<polygon fill="#00783E" points="146.812,3.321 131.053,3.321 122.394,15.08 123.839,27.516 			"/>
			<polygon fill="#00783E" points="100.049,136.065 100.05,136.326 95.433,140.946 95.395,140.984 95.382,140.972 95.382,175.288
				95.421,175.322 113.356,159.09 120.073,136.896 105.951,130.241 			"/>
			<polygon fill="#00783E" points="134.446,89.407 131.976,97.571 130.514,102.403 130.062,103.895 128.963,107.528
				131.234,105.285 132.704,103.834 161.468,75.442 			"/>
			<polygon fill="#00783E" points="88.667,30.99 90.443,27.712 82.478,13.016 78.377,28.733 84.936,37.773 			"/>
			<polygon fill="#00783E" points="75.246,40.734 76.045,37.532 76.074,37.562 76.076,37.556 66.524,27.459 43.69,3.321
				22.045,3.321 28.792,20.864 31.52,27.957 42.549,36.456 63.392,52.518 70.703,58.151 			"/>
		</g>
		<g>
			<polygon fill="#045E31" points="105.466,38.413 108.421,43.753 114.261,37.603 114.303,37.559 112.159,28.98 105.436,38.112
				105.546,38.308 			"/>
			<polygon fill="#045E31" points="77.785,63.609 72.824,59.786 70.703,58.151 68.678,65.912 75.447,73.613 79.819,65.276 			"/>
			<polygon fill="#045E31" points="115.117,61.438 110.649,64.995 115.062,73.135 121.387,65.896 119.439,58.105 117.282,59.768
				"/>
			<polygon fill="#045E31" points="110.543,64.961 102.525,50.071 102.547,50.047 102.511,49.979 97.567,55.186 99.82,58.291
				106.796,67.849 			"/>
			<polygon fill="#045E31" points="128.145,109.92 125.117,111.323 116.294,120.032 105.951,130.241 120.073,136.896
				122.909,127.529 128.321,109.646 128.211,109.699 			"/>
			<polygon fill="#045E31" points="175.596,3.321 160.502,3.321 152.388,30.131 151.367,33.501 187.297,5.812 187.297,3.321 			"/>
			<polygon fill="#045E31" points="131.78,142.414 120.073,136.896 113.356,159.09 			"/>
			<polygon fill="#045E31" points="80.515,155.35 77.089,158.73 84.338,165.291 95.382,175.288 95.382,140.972 95.231,140.821
				"/>
			<polygon fill="#045E31" points="112.229,28.887 122.394,15.08 121.028,3.321 112.308,3.321 107.863,11.796 108.335,13.688 			"/>
			<polygon fill="#045E31" points="132.704,103.834 131.234,105.285 128.963,107.528 128.321,109.646 131.896,107.933
				133.112,107.352 187.297,81.396 187.297,62.092 161.468,75.442 			"/>
			<polygon fill="#045E31" points="81.753,43.558 84.936,37.773 78.377,28.733 76.076,37.556 			"/>
			<polygon fill="#045E31" points="82.478,13.016 77.223,3.321 69.542,3.321 68.13,14.609 78.377,28.733 			"/>
			<polygon fill="#045E31" points="57.125,102.639 29.852,75.365 3.544,61.484 3.544,81.978 56.583,106.974 61.005,108.86
				60.259,105.729 			"/>
		</g>
		<polygon fill="#EDD99D" points="106.77,67.869 99.82,58.291 97.56,55.194 95.155,57.726 105.603,68.769 95.042,76.908
			101.194,81.648 107.179,70.437 107.795,69.282 		"/>
		<polygon fill="#EDD99D" points="96.688,125.875 95.977,125.393 95.55,125.524 95.254,140.745 100.049,136.065 100.01,127.44 		"/>
		<g>
			<polygon fill="#FAF4E4" points="128.151,92.662 131.148,91.112 131.142,91.074 			"/>
			<polygon fill="#FAF4E4" points="88.915,81.76 93.119,78.521 95.124,76.976 95.042,76.908 84.589,68.854 95.155,57.726
				92.822,55.26 83.509,68.02 82.615,69.244 88.867,81.665 			"/>
			<polygon fill="#FAF4E4" points="107.795,69.282 107.815,69.244 106.796,67.849 99.82,58.291 106.77,67.869 			"/>
			<polygon fill="#FAF4E4" points="87.812,50.033 79.856,65.205 77.785,63.609 79.819,65.276 79.843,65.296 79.88,65.224
				87.848,50.071 			"/>
			<polygon fill="#FAF4E4" points="119.417,58.013 119.432,58.001 114.328,37.532 114.303,37.559 114.261,37.603 114.303,37.56
				"/>
			<polygon fill="#FAF4E4" points="68.647,66.033 75.406,73.692 77.494,76.061 84.963,84.526 85.009,84.49 77.542,75.995
				75.447,73.613 68.678,65.912 62.584,58.979 62.513,58.898 62.493,59.059 60.968,71.905 62.563,59.139 			"/>
			<polygon fill="#FAF4E4" points="68.032,87.756 68.667,88.048 76.133,91.479 76.188,91.504 76.252,91.454 78.982,89.282
				76.197,91.43 68.719,87.979 68.072,87.679 63.545,85.59 59.562,83.751 59.547,83.857 63.521,85.683 			"/>
			<polygon fill="#F6EBC7" points="95.382,140.673 95.55,125.59 95.463,125.385 95.395,125.357 95.382,125.362 90.659,127.357
				90.66,127.685 90.7,136.214 90.7,136.326 95.231,140.821 95.382,140.972 95.395,140.984 95.433,140.946 100.05,136.326
				100.049,136.065 			"/>
			<polygon fill="#FAF4E4" points="96.688,125.875 100.01,127.44 100.009,127.205 			"/>
		</g>
		<polygon fill="#EDD99D" points="103.817,95.766 100.406,90.355 95.09,82.096 95.024,96.133 97.238,98.697 101.228,103.219
			113.363,116.972 116.016,115.742 116.319,115.597 111.506,107.964 		"/>
		<polygon fill="#F8EFD5" points="86.539,95.428 89.95,90.018 95.01,81.992 95.01,95.862 95.01,96.216 93.118,98.359
			89.127,102.881 76.993,116.634 74.339,115.404 73.352,114.91 		"/>
		<g>
			<polygon fill="#EDD99D" points="126.299,85.545 126.692,85.37 130.368,83.732 127.487,58.925 122.543,70.522 			"/>
			<polygon fill="#F3E4B1" points="121.396,65.931 122.543,70.522 127.487,58.925 127.486,58.915 125.659,61.006 121.642,65.647
				"/>
			<polygon fill="#F3E4B1" points="118.626,79.713 122.665,87.164 126.299,85.545 122.543,70.522 			"/>
			<polygon fill="#FAF4E4" points="121.396,65.931 115.099,73.204 118.626,79.713 122.543,70.522 			"/>
			<polygon fill="#FAF4E4" points="127.496,58.904 127.486,58.915 127.487,58.925 			"/>
			<polygon fill="#FAF4E4" points="115.099,73.204 115.062,73.135 112.617,75.931 105.034,84.608 104.918,84.742 105.035,84.83
				111.817,89.835 113.645,91.184 113.715,91.235 118.626,79.713 			"/>
			<polygon fill="#F5E9C0" points="130.445,83.698 127.501,58.898 127.496,58.904 127.487,58.925 130.368,83.732 126.692,85.37
				126.299,85.545 122.665,87.164 118.626,79.713 113.715,91.235 113.737,91.252 126.334,85.684 126.729,85.51 130.387,83.892
				130.464,83.857 			"/>
		</g>
		<g>
			<polygon fill="#F3E4B1" points="67.53,70.314 63.545,85.59 68.072,87.679 71.82,80.532 			"/>
			<polygon fill="#F9F2DC" points="71.82,80.532 75.406,73.692 68.647,66.033 67.53,70.314 			"/>
			<polygon fill="#F6EBC7" points="63.089,59.733 62.563,59.139 60.968,71.905 59.562,83.751 63.545,85.59 67.53,70.314 			"/>
			<polygon fill="#FCF7EC" points="68.647,66.033 63.089,59.733 67.53,70.314 			"/>
			<polygon fill="#F3E4B1" points="68.072,87.679 68.719,87.979 76.197,91.43 76.346,91.315 71.82,80.532 			"/>
			<polygon fill="#F9F2DC" points="84.963,84.526 77.494,76.061 75.406,73.692 71.82,80.532 76.346,91.315 78.982,89.282 			"/>
		</g>
		<g>
			<polygon fill="#EDD99D" points="100.046,45.431 105.358,38.216 100.013,28.556 99.525,27.696 95.055,36.222 			"/>
			<polygon fill="#F3E4B1" points="94.967,36.388 95.073,51.747 95.088,52.235 100.046,45.431 95.055,36.222 			"/>
			<polygon fill="#F8EFD5" points="90.276,45.36 94.901,52.407 95.26,51.97 95.104,51.735 94.967,36.388 			"/>
			<polygon fill="#F8EFD5" points="90.457,27.737 94.965,36.057 94.853,19.747 			"/>
			<polygon fill="#F3E4B1" points="94.965,36.057 95.055,36.222 99.525,27.696 94.933,19.603 94.853,19.747 			"/>
			<polygon fill="#FAF4E4" points="105.436,38.112 100.013,28.556 105.358,38.216 100.046,45.431 95.233,51.968 95.073,51.747
				95.076,52.222 95.234,52.009 95.249,51.989 100.077,45.487 100.088,45.472 105.466,38.413 105.546,38.308 			"/>
			<polygon fill="#FAF4E4" points="94.965,36.057 94.967,36.388 95.055,36.222 			"/>
			<polygon fill="#FAF4E4" points="94.933,19.603 94.882,19.515 94.852,19.571 94.853,19.747 			"/>
			<polygon fill="#FAF4E4" points="90.337,45.219 94.967,36.388 94.965,36.057 90.457,27.737 94.853,19.747 94.852,19.571
				90.443,27.712 88.667,30.99 85.009,37.744 86.701,40.207 90.253,45.379 90.26,45.389 			"/>
		</g>
		<g>
			<polygon fill="#FAF4E4" points="81.739,43.581 76.266,37.767 77.928,50.509 79.844,65.195 79.856,65.205 87.812,50.033 			"/>
			<polygon fill="#F7EDCE" points="77.928,50.509 76.266,37.767 76.074,37.562 76.045,37.532 75.246,40.734 70.941,58.001
				72.916,59.619 77.785,63.609 79.844,65.195 			"/>
		</g>
		<g>
			<polygon fill="#F3E4B1" points="114.184,37.685 108.44,43.787 112.411,50.964 			"/>
			<polygon fill="#EDD99D" points="114.303,37.56 114.261,37.603 114.184,37.685 112.411,50.964 110.542,64.96 110.543,64.961
				110.588,65.044 110.649,64.995 115.117,61.438 117.261,59.729 119.417,58.013 			"/>
			<polygon fill="#F8EFD5" points="108.44,43.787 102.547,50.047 102.525,50.071 110.542,64.96 112.411,50.964 			"/>
		</g>
		<g>
			<polygon fill="none" points="95.154,57.725 95.154,57.727 95.155,57.726 			"/>
			<polygon fill="#F8EFD5" points="84.589,68.854 95.042,76.908 95.088,76.872 95.154,57.727 			"/>
			<polygon fill="#F3E4B1" points="95.155,57.726 95.154,57.727 95.088,76.872 105.603,68.769 			"/>
			<polygon fill="#F8EFD5" points="94.911,52.444 94.897,52.424 94.351,53.166 92.822,55.26 95.154,57.725 95.174,52.091 			"/>
			<polygon fill="#F3E4B1" points="97.56,55.194 97.454,55.047 95.234,52.009 95.174,52.091 95.154,57.725 95.155,57.726 			"/>
		</g>
	</g>
	<g id="LINES_3_">
		<polygon fill="none" points="105.803,38.246 108.502,43.125 113.892,37.449 111.99,29.844 		"/>
		<polygon fill="none" points="87.761,49.363 89.802,45.478 84.883,38.644 82.213,43.499 		"/>
		<polygon fill="none" points="102.97,50.04 110.726,64.349 119.02,57.958 114.107,38.311 		"/>
		<polygon fill="none" points="102.595,49.347 107.96,43.695 105.313,38.911 100.49,45.462 		"/>
		<polygon fill="none" points="112.143,75.919 107.841,70.052 101.663,81.536 105.058,84.153 		"/>
		<polygon fill="none" points="115.12,72.458 120.951,65.683 119.218,58.751 111.087,65.017 		"/>
		<polygon fill="none" points="69.248,65.511 75.483,72.738 79.383,65.312 71.082,58.915 69.375,65.543 		"/>
		<polygon fill="none" points="76.112,91.021 84.614,84.47 62.918,59.323 59.9,83.467 		"/>
		<polygon fill="none" points="69.697,95.964 75.443,91.536 59.802,84.249 59.041,90.341 		"/>
		<polygon fill="none" points="63.044,58.319 68.755,64.94 70.436,58.417 63.683,53.213 		"/>
		<polygon fill="none" points="81.498,102.179 85.392,96.172 76.209,91.894 70.426,96.349 81.486,102.185 		"/>
		<polygon fill="none" points="88.282,81.644 82.516,69.874 78.14,75.816 85.209,84.012 		"/>
		<polygon fill="none" points="76.585,37.549 81.671,42.927 84.398,37.97 78.564,29.862 		"/>
		<polygon fill="none" points="79.737,64.639 87.392,50.065 81.4,43.731 76.364,38.407 71.285,58.126 		"/>
		<polygon fill="none" points="95.085,51.536 104.914,38.188 94.997,20.265 85.284,37.917 		"/>
		<path fill="none" d="M94.971,76.514c0.144-0.021,0.308,0.049,0.391,0.167l5.699,4.392l6.289-11.69L95.141,52.728l-2.097,2.848
			L83.017,69.192l5.872,11.984l5.794-4.465C94.739,76.604,94.846,76.528,94.971,76.514z"/>
		<polygon fill="none" points="127.187,59.585 105.652,84.61 113.84,90.921 130,83.812 		"/>
		<polygon fill="none" points="134.132,89.148 150.668,34.515 127.136,52.649 131.531,90.493 		"/>
		<polygon fill="none" points="159.451,76.906 134.758,89.669 129.748,106.227 		"/>
		<polygon fill="none" points="97.964,55.312 106.806,67.37 110.124,64.813 102.427,50.612 		"/>
		<polygon fill="none" points="92.779,54.669 94.619,52.171 90.292,46.158 88.306,49.939 		"/>
		<polygon fill="none" points="77.636,75.233 82.93,68.045 79.987,65.778 76.01,73.349 		"/>
		<polygon fill="none" points="83.375,67.44 92.327,55.282 87.937,50.642 80.34,65.104 		"/>
		<polygon fill="none" points="110.485,65.48 107.249,67.975 112.645,75.335 114.597,73.067 		"/>
		<polygon fill="none" points="97.515,54.697 102.052,49.919 99.998,46.13 95.606,52.095 		"/>
		<polygon fill="none" points="119.866,58.251 121.549,64.987 127.069,58.572 126.442,53.183 		"/>
		<polygon fill="none" points="99.803,127.758 95.555,125.756 90.753,128.056 90.753,135.735 95.272,140.255 99.803,135.784 		"/>
		<polygon fill="none" points="67.598,112.58 84.999,129.981 94.68,125.344 		"/>
		<polygon fill="none" points="75.755,37.764 66.797,28.294 63.79,52.35 70.639,57.628 		"/>
		<polygon fill="none" points="32.216,77.037 59.315,103.991 54.609,88.853 		"/>
		<polygon fill="none" points="62.993,52.682 32.398,29.106 55.255,88.345 58.332,89.968 		"/>
		<polygon fill="none" points="100.553,128.112 100.553,135.044 105.306,130.352 		"/>
		<path fill="none" d="M125.206,110.722l2.804-1.343l5.82-19.229l-13.281,6.864l-0.172-0.333l0.171,0.334l-11.762,6.036
			c-0.03,0.019-0.062,0.033-0.096,0.043c-0.035,0.01-0.069,0.015-0.104,0.015c-0.144,0-0.279-0.08-0.342-0.215L95.118,82.548
			l-13.167,20.235l-0.449,0.259L55.549,89.349l4.904,15.774l0.026,0.026l-0.014,0.014l1.175,3.781l33.912,15.981L125.206,110.722z"
			/>
		<polygon fill="none" points="106.597,130.132 119.839,136.372 127.715,110.351 125.62,111.354 		"/>
		<polygon fill="none" points="95.803,140.786 113.23,158.213 119.621,137.099 106.028,130.692 		"/>
		<polygon fill="none" points="90.003,128.415 85.561,130.543 90.003,134.985 		"/>
		<polygon fill="none" points="65.672,111.673 61.942,109.915 70.359,136.993 84.281,130.325 65.651,111.694 		"/>
		<polygon fill="none" points="96.427,125.338 105.875,129.791 123.546,112.347 		"/>
		<polygon fill="none" points="94.567,19.488 85.471,3.047 82.903,13.016 90.459,26.956 		"/>
		<polygon fill="none" points="123.446,27.386 122.131,16.069 112.567,29.06 114.503,36.805 		"/>
		<polygon fill="none" points="119.874,96.517 105.163,85.18 100.902,90.131 108.717,102.243 		"/>
		<polygon fill="none" points="119.667,57.458 126.341,52.314 123.559,28.355 114.719,37.666 		"/>
		<polygon fill="none" points="130.09,84.589 114.517,91.442 120.61,96.138 130.819,90.862 		"/>
		<polygon fill="none" points="77.994,29.069 68.372,15.7 66.918,27.33 75.976,36.905 		"/>
		<polygon fill="none" points="92.866,79.058 85.7,84.58 89.815,89.35 94.672,81.856 		"/>
		<polygon fill="none" points="104.568,84.722 95.043,77.381 93.462,78.599 100.479,89.474 		"/>
		<polygon fill="none" points="85.104,85.039 76.878,91.378 85.804,95.536 89.39,90.006 		"/>
		<polygon fill="none" points="99.886,27.552 105.403,37.523 111.753,28.899 107.738,12.841 99.994,27.608 		"/>
		<polygon fill="none" points="90.029,27.737 82.629,14.082 78.808,28.918 84.799,37.243 		"/>
		<polygon fill="none" points="107.464,11.747 105.033,2.022 95.423,19.487 99.522,26.895 		"/>
		<path fill="#045E31" d="M188.365,81.301l-0.324-0.676l-59.115,28.315l0.428-1.415l0.071,0.072l32.267-31.85l28.028-14.487
			l-0.345-0.666l-25.888,13.381l25.984-25.648l-0.527-0.533l-27.698,27.34l-26.185,13.535l16.628-54.942l37.076-28.572l-0.458-0.594
			l-36.245,27.932l9.26-30.595l-0.718-0.217l-9.563,31.6l-24.007,18.5l-2.803-24.133l24.504-25.809l-0.543-0.516l-24.073,25.354
			l-1.335-11.492l8.77-11.911l-0.604-0.445l-8.293,11.263l-1.414-12.175l-0.745,0.086l1.507,12.976l-9.674,13.139l-4.069-16.273
			l5.048-9.627l-0.664-0.348l-4.657,8.881l-2.516-10.062l-0.587,0.146l-0.041-0.022l-0.021,0.038l-0.079,0.02l0.021,0.085
			l-9.771,17.759L85.743,1.989l0.092-0.356l-0.337-0.087l-0.371-0.67l-0.656,0.363l0.471,0.852l-2.564,9.955L76.736,1.638
			l-0.659,0.357l6.026,11.118l-3.866,15.012l-9.729-13.518l1.649-13.191l-0.744-0.094l-1.549,12.39l-9.54-13.255l-0.608,0.438
			l10.011,13.911l-1.478,11.818L42.944,1.987l-0.545,0.515L66.13,27.589l-3.029,24.23L31.879,27.759L21.644,1.232l-0.699,0.27
			l9.791,25.376L1.447,4.309L0.989,4.903l30.266,23.322l22.991,59.586L30.399,75.229L1.776,46.76l-0.529,0.531l26.888,26.744
			L1.231,59.84l-0.35,0.664l29.071,15.339l29.839,29.679l0.929,2.988L1.695,80.691l-0.32,0.678l59.646,28.111l8.654,27.841
			l-12.044,5.769l0.325,0.676l11.944-5.722l6.207,19.969l0.717-0.223l-6.24-20.074l14.258-6.829l9.896,9.896L75.77,159.506
			l0.526,0.533l18.711-18.468v32.914h0.75v-32.684l17.226,17.227l-0.169,0.561l0.718,0.217l6.775-22.385l12.554,5.917l0.32-0.678
			l-12.656-5.964l8.106-26.785L188.365,81.301z M159.451,76.906l-29.704,29.32l5.011-16.558L159.451,76.906z M150.668,34.515
			l-16.536,54.634l-2.601,1.345l-4.396-37.844L150.668,34.515z M94.997,20.265l9.917,17.924l-9.828,13.348l-9.802-13.619
			L94.997,20.265z M105.652,84.61l21.534-25.025L130,83.812l-16.16,7.109L105.652,84.61z M88.889,81.177l-5.872-11.984
			l10.026-13.617l2.097-2.848l12.209,16.654l-6.289,11.69l-5.699-4.392c-0.083-0.118-0.247-0.188-0.391-0.167
			c-0.125,0.015-0.232,0.09-0.289,0.198L88.889,81.177z M94.619,52.171l-1.839,2.498l-4.474-4.729l1.986-3.781L94.619,52.171z
			 M99.998,46.13l2.054,3.789l-4.537,4.778l-1.909-2.603L99.998,46.13z M112.645,75.335l-5.396-7.36l3.236-2.494l4.111,7.587
			L112.645,75.335z M106.806,67.37l-8.842-12.059l4.463-4.699l7.696,14.201L106.806,67.37z M92.327,55.282L83.375,67.44
			l-3.034-2.337l7.597-14.462L92.327,55.282z M82.93,68.045l-5.293,7.188l-1.626-1.885l3.977-7.57L82.93,68.045z M82.516,69.874
			l5.767,11.77l-3.073,2.368l-7.07-8.195L82.516,69.874z M107.841,70.052l4.301,5.867l-7.084,8.234l-3.395-2.617L107.841,70.052z
			 M121.549,64.987l-1.684-6.736l6.576-5.068l0.627,5.39L121.549,64.987z M120.951,65.683l-5.831,6.775l-4.033-7.441l8.131-6.266
			L120.951,65.683z M110.726,64.349L102.97,50.04l11.137-11.729l4.913,19.647L110.726,64.349z M108.502,43.125l-2.7-4.879
			l6.187-8.402l1.902,7.605L108.502,43.125z M107.96,43.695l-5.366,5.651l-2.105-3.885l4.824-6.551L107.96,43.695z M89.802,45.478
			l-2.041,3.886l-5.548-5.864l2.67-4.855L89.802,45.478z M81.671,42.927l-5.086-5.378l1.979-7.687l5.834,8.107L81.671,42.927z
			 M81.4,43.731l5.992,6.334l-7.655,14.573l-8.452-6.513l5.079-19.719L81.4,43.731z M79.383,65.312l-3.9,7.426l-6.235-7.228
			l0.127,0.032l1.707-6.628L79.383,65.312z M68.755,64.94l-5.711-6.621l0.639-5.106l6.753,5.204L68.755,64.94z M62.918,59.323
			L84.614,84.47l-8.501,6.551L59.9,83.467L62.918,59.323z M59.802,84.249l15.641,7.287l-5.746,4.428l-10.657-5.623L59.802,84.249z
			 M76.209,91.894l9.183,4.278l-3.894,6.007l-0.012,0.006l-11.06-5.836L76.209,91.894z M85.804,95.536l-8.926-4.158l8.227-6.339
			l4.285,4.967L85.804,95.536z M89.815,89.35L85.7,84.58l7.167-5.522l1.806,2.799L89.815,89.35z M93.462,78.599l1.581-1.218
			l9.525,7.341l-4.089,4.752L93.462,78.599z M105.163,85.18l14.711,11.337l-11.157,5.727l-7.815-12.112L105.163,85.18z
			 M120.61,96.138l-6.094-4.695l15.574-6.854l0.729,6.273L120.61,96.138z M126.341,52.314l-6.674,5.144l-4.949-19.792l8.84-9.311
			L126.341,52.314z M122.131,16.069l1.315,11.316l-8.943,9.419l-1.936-7.745L122.131,16.069z M111.753,28.899l-6.35,8.624
			l-5.517-9.972l0.108,0.057l7.744-14.768L111.753,28.899z M105.033,2.022l2.431,9.725l-7.941,15.147l-4.099-7.407L105.033,2.022z
			 M85.471,3.047l9.096,16.441l-4.108,7.468l-7.556-13.94L85.471,3.047z M82.629,14.082l7.4,13.655l-5.23,9.506l-5.991-8.325
			L82.629,14.082z M68.372,15.7l9.622,13.369l-2.018,7.836l-9.058-9.575L68.372,15.7z M66.797,28.294l8.958,9.47l-5.116,19.864
			L63.79,52.35L66.797,28.294z M32.398,29.106l30.595,23.575l-4.662,37.286l-3.077-1.623L32.398,29.106z M32.216,77.037
			l22.393,11.815l4.707,15.139L32.216,77.037z M60.465,105.163l0.014-0.014l-0.026-0.026l-4.904-15.774l26.164,13.809l0.238-0.374
			l13.167-20.235l13.126,20.346c0.062,0.135,0.198,0.215,0.342,0.215c0.035,0,0.069-0.005,0.104-0.015
			c0.034-0.01,0.066-0.024,0.096-0.043l11.762-6.036l-0.171-0.334l0.172,0.333l13.281-6.864l-5.82,19.229l-2.804,1.343
			l-29.654,14.204l-33.912-15.981L60.465,105.163z M95.272,140.255l-4.52-4.52v-7.68l4.802-2.3l4.248,2.002v8.026L95.272,140.255z
			 M84.999,129.981L67.598,112.58l27.083,12.764L84.999,129.981z M100.553,128.112l4.753,2.239l-4.753,4.692V128.112z
			 M96.427,125.338l27.119-12.991l-17.671,17.444L96.427,125.338z M70.359,136.993l-8.417-27.078l3.73,1.758l-0.021,0.021
			l18.63,18.631L70.359,136.993z M90.003,128.415v6.57l-4.442-4.442L90.003,128.415z M113.23,158.213l-17.427-17.427l10.226-10.094
			l13.592,6.406L113.23,158.213z M119.839,136.372l-13.242-6.24l19.023-18.777l2.095-1.004L119.839,136.372z"/>
	</g>
	<path id="BORDER_2_" fill="#FAF4E4" d="M0,0v92.272l95.42,86.363l95.419-86.363V0H0z M186.951,90.548L95.42,173.39L3.89,90.548
		V3.89h183.062V90.548z"/>
</g>
</svg>
