<?xml version="1.0" encoding="UTF-8" standalone="no"?>
<svg width="98px" height="93px" viewBox="0 0 98 93" version="1.1" xmlns="http://www.w3.org/2000/svg" xmlns:xlink="http://www.w3.org/1999/xlink" xmlns:sketch="http://www.bohemiancoding.com/sketch/ns">
    <!-- Generator: Sketch 3.3.3 (12081) - http://www.bohemiancoding.com/sketch -->
    <title>prospect-colour</title>
    <desc>Created with Sketch.</desc>
    <defs></defs>
    <g id="Page-1" stroke="none" stroke-width="1" fill="none" fill-rule="evenodd" sketch:type="MSPage">
        <g id="prospect-colour" sketch:type="MSArtboardGroup">
            <g id="beer-prospect" sketch:type="MSLayerGroup">
                <path d="M32.0929714,52.1129486 L30.0246514,53.6365543 L31.0019486,56.56632 L33.2775257,57.7227086 L33.9093943,58.0139314 L35.7332571,57.2008457 L32.0929714,52.1129486" id="Fill-1" fill="#FAF1D2" sketch:type="MSShapeGroup"></path>
                <path d="M40.2567771,55.1846057 L41.6225486,53.0796171 L41.6831314,53.1109714 L41.7314914,53.0365714 L35.3968629,49.7980457 L35.3787943,49.8118629 L32.1168857,52.1416457 L35.7332571,57.2008457 L40.2567771,55.1846057" id="Fill-2" fill="#FFF9EA" sketch:type="MSShapeGroup"></path>
                <path d="M29.3869371,46.6684629 L29.2110343,48.0762171 L32.0988171,52.1161371 L35.2852629,49.7805086 L29.3869371,46.6684629" id="Fill-3" fill="#FFF9EA" sketch:type="MSShapeGroup"></path>
                <path d="M29.0909314,49.0349143 L28.9495714,50.1153086 L29.9449371,53.69448 L32.0988171,52.1161371 L29.2110343,48.0762171 L29.0909314,49.0349143" id="Fill-4" fill="#FAF1D2" sketch:type="MSShapeGroup"></path>
                <path d="M35.7837429,57.2709943 L35.7332571,57.2008457 L33.9093943,58.0139314 L33.8961086,58.0197771 L37.37856,59.6252229 L37.5098229,59.6858057 L35.7837429,57.2709943" id="Fill-5" fill="#FAF1D2" sketch:type="MSShapeGroup"></path>
                <path d="M51.6569829,46.3857429 L48.9148114,41.9972057 L48.8627314,41.9127086 L48.8622,41.9121771 L48.8202171,41.9775429 L48.8021486,42.0041143 L41.7314914,53.0365714 L41.6831314,53.1109714 L41.6225486,53.0796171 L40.2567771,55.1846057 L35.7332571,57.2008457 L35.7837429,57.2709943 L37.5098229,59.6858057 L39.3916114,60.5536286 L48.9148114,64.9442914 L48.9148114,42.1821429 L53.4165429,49.3218857 L53.4744686,49.2963771 L51.6569829,46.3857429" id="Fill-6" fill="#FDF6E1" sketch:type="MSShapeGroup"></path>
                <path d="M29.3869371,46.6684629 L35.2852629,49.7805086 L35.3033314,49.7666914 L29.3869371,46.6663371 L29.3205086,46.6312629 L29.3205086,46.63392 L27.4892057,45.6672514 L29.2110343,48.0762171 L29.3869371,46.6684629" id="Fill-7" fill="#FFF9EA" sketch:type="MSShapeGroup"></path>
                <path d="M27.4892057,45.6672514 L27.3584743,45.5986971 L28.9958057,50.2285029 L29.0909314,49.0349143 L29.2110343,48.0762171 L27.4892057,45.6672514" id="Fill-8" fill="#FAF1D2" sketch:type="MSShapeGroup"></path>
                <path d="M69.5395543,46.1290629 L59.6262857,60.0647143 L60.0620571,59.8633029 L64.71684,57.7067657 L66.3254743,56.9611714 L66.36108,56.8437257 L67.2958629,53.7215829 L67.5567943,52.8532286 L68.3422457,50.2300971 L68.3613771,50.39856 L69.6745371,46.0599771 L69.5395543,46.1290629" id="Fill-9" fill="#EAD698" sketch:type="MSShapeGroup"></path>
                <path d="M67.96068,46.9464 L67.9654629,46.9862571 L67.9218857,46.9660629 L66.3286629,47.7897771 L66.2946514,47.8073143 L55.9689943,53.2895314 L53.4744686,49.2963771 L53.4165429,49.3218857 L48.9148114,42.1821429 L48.9148114,49.5530571 L48.7415657,49.6003543 L48.9493543,65.0085943 L49.1156914,65.0085943 L58.48956,60.5918914 L59.6262857,60.0647143 L69.5395543,46.1290629 L67.96068,46.9464" id="Fill-10" fill="#F2E4AD" sketch:type="MSShapeGroup"></path>
                <path d="M30.6262286,36.7589143 L29.8407771,43.03668 L29.8785086,43.0542171 L30.6262286,36.7589143" id="Fill-11" fill="#BED76C" sketch:type="MSShapeGroup"></path>
                <path d="M36.9268457,30.3185314 L39.5632629,32.3501829 L36.9752057,30.2297829 L36.9268457,30.3185314" id="Fill-12" fill="#BED76C" sketch:type="MSShapeGroup"></path>
                <path d="M33.8961086,58.0197771 L33.1839943,57.6918857 L33.1978114,57.7062343 L33.8785714,58.0266857 L33.8961086,58.0197771" id="Fill-13" fill="#BED76C" sketch:type="MSShapeGroup"></path>
                <path d="M32.4368057,57.3469886 L33.1978114,57.7062343 L33.1839943,57.6918857 L32.4368057,57.3469886" id="Fill-14" fill="#BED76C" sketch:type="MSShapeGroup"></path>
                <path d="M66.3286629,47.7897771 L66.2946514,47.8073143 L66.3286629,47.7897771" id="Fill-15" fill="#BED76C" sketch:type="MSShapeGroup"></path>
                <path d="M62.73408,33.5650286 L62.8648114,33.4151657 L61.8194914,29.3322 L61.6993886,29.4252 L62.73408,33.5650286" id="Fill-16" fill="#BED76C" sketch:type="MSShapeGroup"></path>
                <path d="M43.4017714,18.6047829 L45.3457371,15.0155143 L43.3629771,18.6201943 L44.30148,19.9136914 L43.4017714,18.6047829" id="Fill-17" fill="#BED76C" sketch:type="MSShapeGroup"></path>
                <path d="M44.8918971,25.1355086 L44.90412,25.1115943 L41.67144,21.6939771 L41.6645314,21.7067314 L44.8918971,25.1355086" id="Fill-18" fill="#BED76C" sketch:type="MSShapeGroup"></path>
                <path d="M61.6871657,29.3757771 L61.6993886,29.4252 L61.8194914,29.3322 L59.0310857,18.4421657 L58.9832571,18.49212 L61.6951371,29.3694 L61.6871657,29.3757771" id="Fill-19" fill="#BED76C" sketch:type="MSShapeGroup"></path>
                <path d="M36.9752057,30.2297829 L35.9261657,29.3694 L38.2139657,20.1937543 L35.7996857,29.4496457 L36.9268457,30.3185314 L36.9752057,30.2297829" id="Fill-20" fill="#BED76C" sketch:type="MSShapeGroup"></path>
                <path d="M41.67144,21.6939771 L38.6550514,18.5043429 L38.6539886,18.5080629 L41.6645314,21.7067314 L41.67144,21.6939771" id="Fill-21" fill="#BED76C" sketch:type="MSShapeGroup"></path>
                <path d="M58.96944,18.5059371 L58.9832571,18.49212 L59.0310857,18.4421657 L57.8672571,13.8973886 L57.8305886,13.9473429 L58.96944,18.5059371" id="Fill-22" fill="#BED76C" sketch:type="MSShapeGroup"></path>
                <path d="M67.5567943,52.8532286 L67.5844286,52.9664229 L68.3613771,50.39856 L68.3422457,50.2300971 L67.5567943,52.8532286" id="Fill-23" fill="#BED76C" sketch:type="MSShapeGroup"></path>
                <path d="M49.0046229,64.9857429 L48.9148114,64.9442914 L48.9148114,65.1132857 L49.0056857,65.1563314 L58.5028457,60.6067714 L58.48956,60.5918914 L49.0046229,64.9857429" id="Fill-24" fill="#BED76C" sketch:type="MSShapeGroup"></path>
                <path d="M49.6088571,65.4401143 L49.0056857,65.1563314 L48.9573257,65.1791829 L49.6088571,65.4401143" id="Fill-25" fill="#BED76C" sketch:type="MSShapeGroup"></path>
                <path d="M48.9148114,65.1674914 L48.9211886,65.1648343 L48.9573257,65.1791829 L49.0056857,65.1563314 L48.9148114,65.1132857 L48.9148114,65.1674914" id="Fill-26" fill="#BED76C" sketch:type="MSShapeGroup"></path>
                <path d="M65.9747314,29.8466229 L65.0048743,30.9668743 L65.9757943,29.8556571 L65.9747314,29.8466229" id="Fill-27" fill="#BED76C" sketch:type="MSShapeGroup"></path>
                <path d="M67.2958629,53.7215829 L67.3442229,53.7587829 L67.5844286,52.9664229 L67.5567943,52.8532286 L67.2958629,53.7215829" id="Fill-28" fill="#BED76C" sketch:type="MSShapeGroup"></path>
                <path d="M67.2958629,53.7215829 L66.6841886,55.7649257 L66.7607143,55.6899943 L67.3442229,53.7587829 L67.2958629,53.7215829" id="Fill-29" fill="#BED76C" sketch:type="MSShapeGroup"></path>
                <path d="M58.48956,60.5918914 L58.5028457,60.6067714 L59.89944,59.9382343 L58.48956,60.5918914" id="Fill-30" fill="#BED76C" sketch:type="MSShapeGroup"></path>
                <path d="M52.7224971,25.1424171 L55.8542057,21.8162057 L55.8441086,21.7976057 L52.7033657,25.10628 L52.7224971,25.1424171" id="Fill-31" fill="#BED76C" sketch:type="MSShapeGroup"></path>
                <path d="M45.9590057,46.3905257 L43.9199143,49.53552 L43.96296,49.5551829 L45.9776057,46.4128457 L45.9590057,46.3905257" id="Fill-32" fill="#BED76C" sketch:type="MSShapeGroup"></path>
                <path d="M57.64884,46.2874286 L58.59372,47.0154857 L58.61976,47.0037943 L57.64884,46.2874286" id="Fill-33" fill="#BED76C" sketch:type="MSShapeGroup"></path>
                <path d="M60.5530971,30.3084343 L61.6993886,29.4252 L61.6871657,29.3757771 L60.5414057,30.28824 L60.5530971,30.3084343" id="Fill-34" fill="#BED76C" sketch:type="MSShapeGroup"></path>
                <path d="M58.94712,18.52932 L55.8441086,21.7976057 L55.8542057,21.8162057 L58.94712,18.52932" id="Fill-35" fill="#BED76C" sketch:type="MSShapeGroup"></path>
                <path d="M48.3663771,26.8004743 L47.5506343,27.9090343 L47.5543543,27.9127543 L48.3663771,26.8004743" id="Fill-36" fill="#BED76C" sketch:type="MSShapeGroup"></path>
                <path d="M50.0759829,27.8734286 L48.8441314,26.1749829 L48.83616,26.18508 L50.0717314,27.8782114 L50.0759829,27.8734286" id="Fill-37" fill="#BED76C" sketch:type="MSShapeGroup"></path>
                <path d="M47.5543543,27.9127543 L47.5506343,27.9090343 L42.5727429,34.6693371 L42.6046286,34.6937829 L47.5543543,27.9127543" id="Fill-38" fill="#BED76C" sketch:type="MSShapeGroup"></path>
                <path d="M57.8672571,13.8973886 L55.7984057,5.82020571 L57.8305886,13.9473429 L57.8672571,13.8973886" id="Fill-39" fill="#BED76C" sketch:type="MSShapeGroup"></path>
                <path d="M40.1993829,45.9935486 L43.41984,43.5123086 L43.3773257,43.4660743 L40.1993829,45.9935486" id="Fill-40" fill="#BED76C" sketch:type="MSShapeGroup"></path>
                <path d="M43.96296,49.5551829 L43.9199143,49.53552 L41.6225486,53.0796171 L41.6831314,53.1109714 L43.96296,49.5551829" id="Fill-41" fill="#BED76C" sketch:type="MSShapeGroup"></path>
                <path d="M39.3475029,60.6041143 L48.9148114,65.1132857 L48.9148114,64.9442914 L39.3916114,60.5536286 L39.3475029,60.6041143" id="Fill-42" fill="#BED76C" sketch:type="MSShapeGroup"></path>
                <path d="M33.8961086,58.0197771 L33.8785714,58.0266857 L37.3535829,59.6645486 L37.37856,59.6252229 L33.8961086,58.0197771" id="Fill-43" fill="#BED76C" sketch:type="MSShapeGroup"></path>
                <path d="M37.37856,59.6252229 L37.3535829,59.6645486 L39.3475029,60.6041143 L39.3916114,60.5536286 L37.37856,59.6252229" id="Fill-44" fill="#BED76C" sketch:type="MSShapeGroup"></path>
                <path d="M66.2946514,47.8073143 L62.3004343,49.8719143 L62.3440114,49.9048629 L66.2946514,47.8073143" id="Fill-45" fill="#BED76C" sketch:type="MSShapeGroup"></path>
                <path d="M50.0759829,27.8734286 L50.0717314,27.8782114 L51.2732914,29.5240457 L50.0759829,27.8734286" id="Fill-46" fill="#BED76C" sketch:type="MSShapeGroup"></path>
                <path d="M45.9776057,46.4128457 L48.8021486,42.0041143 L45.9590057,46.3905257 L45.9776057,46.4128457" id="Fill-47" fill="#BED76C" sketch:type="MSShapeGroup"></path>
                <path d="M48.8202171,41.9775429 L48.8021486,42.0041143 L48.8202171,41.9775429" id="Fill-48" fill="#BED76C" sketch:type="MSShapeGroup"></path>
                <path d="M60.5530971,30.3084343 L60.5414057,30.28824 L59.4025543,31.19592 L60.5530971,30.3084343" id="Fill-49" fill="#BED76C" sketch:type="MSShapeGroup"></path>
                <path d="M66.6841886,55.7649257 L66.36108,56.8437257 L66.4195371,56.8150286 L66.7607143,55.6899943 L66.6841886,55.7649257" id="Fill-50" fill="#BED76C" sketch:type="MSShapeGroup"></path>
                <path d="M55.5475714,4.81474286 L55.5427886,4.82271429 L55.7984057,5.82020571 L55.5475714,4.81474286" id="Fill-51" fill="#BED76C" sketch:type="MSShapeGroup"></path>
                <path d="M55.5427886,4.82271429 L55.5475714,4.81474286 L54.4209429,0.311417143 L54.3874629,0.311417143 L55.5427886,4.82271429" id="Fill-52" fill="#BED76C" sketch:type="MSShapeGroup"></path>
                <path d="M51.1197086,13.2586114 L48.70968,8.90249143 L48.6756686,8.96360571 L51.11652,13.2649886 L51.1197086,13.2586114" id="Fill-53" fill="#BED76C" sketch:type="MSShapeGroup"></path>
                <path d="M51.3753257,13.7214857 L51.1197086,13.2586114 L51.11652,13.2649886 L51.3753257,13.7214857" id="Fill-54" fill="#BED76C" sketch:type="MSShapeGroup"></path>
                <path d="M64.0376743,13.1688 L63.2692286,6.56048571 L57.8672571,13.8973886 L59.0310857,18.4421657 L64.0376743,13.1688" id="Fill-55" fill="#539F61" sketch:type="MSShapeGroup"></path>
                <path d="M60.0620571,59.8633029 L59.89944,59.9382343 L58.5028457,60.6067714 L49.0056857,65.1563314 L49.6088571,65.4401143 L51.3732,66.1469143 L51.3737314,66.2718 L54.53148,67.7603314 L64.71684,57.7067657 L60.0620571,59.8633029" id="Fill-56" fill="#539F61" sketch:type="MSShapeGroup"></path>
                <path d="M45.9590057,46.3905257 L48.8021486,42.0041143 L47.7121886,40.2743143 L45.4775314,41.9961429 L45.4525543,41.9456571 L40.1993829,45.9935486 L38.7485829,47.1478114 L43.9199143,49.53552 L45.9590057,46.3905257" id="Fill-57" fill="#539F61" sketch:type="MSShapeGroup"></path>
                <path d="M55.5220629,35.3447829 L55.5109029,35.3649771 L58.0739829,38.8979143 L59.3727943,37.4125714 L57.0276,33.0867429 L56.9957143,33.1122514 L56.9718,33.0681429 L54.9800057,34.6029086 L55.5220629,35.3447829" id="Fill-58" fill="#539F61" sketch:type="MSShapeGroup"></path>
                <path d="M55.8441086,21.7976057 L54.2737371,18.9603086 L51.4157143,22.7111314 L51.4098686,22.7196343 L52.7033657,25.10628 L55.8441086,21.7976057" id="Fill-59" fill="#539F61" sketch:type="MSShapeGroup"></path>
                <path d="M47.5506343,27.9090343 L44.90412,25.1115943 L44.8918971,25.1355086 L44.9104971,25.1557029 L40.6760743,33.2079086 L42.5727429,34.6693371 L47.5506343,27.9090343" id="Fill-60" fill="#539F61" sketch:type="MSShapeGroup"></path>
                <path d="M48.6490971,8.91684 L48.6756686,8.96360571 L48.70968,8.90249143 L43.95552,0.311417143 L43.4007086,0.311417143 L42.0567257,5.46308571 L46.2900857,13.2734914 L48.6490971,8.91684" id="Fill-61" fill="#539F61" sketch:type="MSShapeGroup"></path>
                <path d="M14.9761886,13.40316 L0.108942857,1.94609143 L0.108942857,24.6168343 L14.0897657,38.5976571 L27.3584743,45.5986971 L14.9761886,13.40316" id="Fill-62" fill="#539F61" sketch:type="MSShapeGroup"></path>
                <path d="M46.4266629,70.9340229 L43.3555371,67.8628971 L35.5934914,71.5584514 L39.0036686,83.0888571 L48.8345657,73.3828457 L46.4266629,70.9940743 L46.4266629,70.9340229" id="Fill-63" fill="#539F61" sketch:type="MSShapeGroup"></path>
                <path d="M43.3629771,18.6201943 L41.67144,21.6939771 L44.90412,25.1115943 L46.1891143,22.6617086 L44.30148,19.9136914 L43.3629771,18.6201943" id="Fill-64" fill="#088F48" sketch:type="MSShapeGroup"></path>
                <path d="M55.1835429,35.9782457 L52.0034743,41.9366229 L51.9955029,41.95044 L48.7771714,39.4532571 L47.7121886,40.2743143 L48.8021486,42.0041143 L48.8202171,41.9775429 L48.8622,41.9121771 L48.8627314,41.9127086 L48.9148114,41.9972057 L51.6569829,46.3857429 L54.0446914,43.6276286 L53.9825143,43.5808629 L54.04416,43.5096514 L58.0739829,38.8979143 L55.5109029,35.3649771 L55.1835429,35.9782457" id="Fill-65" fill="#088F48" sketch:type="MSShapeGroup"></path>
                <path d="M66.2946514,47.8073143 L66.3286629,47.7897771 L67.9181657,46.9458686 L67.9218857,46.9660629 L67.96068,46.9464 L67.5169371,43.1286171 L65.5729714,43.989 L65.3630571,44.0809371 L58.6691829,47.0404629 L58.61976,47.0037943 L58.59372,47.0154857 L62.3004343,49.8719143 L66.2946514,47.8073143" id="Fill-66" fill="#088F48" sketch:type="MSShapeGroup"></path>
                <path d="M50.0759829,27.8734286 L52.7033657,25.10628 L51.4098686,22.7196343 L48.8441314,26.1749829 L50.0759829,27.8734286" id="Fill-67" fill="#088F48" sketch:type="MSShapeGroup"></path>
                <path d="M38.3207829,37.6665943 L39.4341257,38.9324571 L42.5727429,34.6693371 L40.6760743,33.2079086 L40.6564114,33.2467029 L40.6441886,33.2360743 L38.3207829,37.6665943" id="Fill-68" fill="#088F48" sketch:type="MSShapeGroup"></path>
                <path d="M43.4007086,0.311417143 L39.2640686,0.311417143 L42.0567257,5.46308571 L43.4007086,0.311417143" id="Fill-69" fill="#088F48" sketch:type="MSShapeGroup"></path>
                <path d="M51.3949886,70.8553714 L54.53148,67.7603314 L51.3737314,66.2718 L51.3949886,70.8553714" id="Fill-70" fill="#088F48" sketch:type="MSShapeGroup"></path>
                <path d="M57.90924,0.311417143 L54.4209429,0.311417143 L55.5475714,4.81474286 L57.90924,0.311417143" id="Fill-71" fill="#088F48" sketch:type="MSShapeGroup"></path>
                <path d="M53.4367371,0.311417143 L43.95552,0.311417143 L48.70968,8.90249143 L53.4367371,0.311417143" id="Fill-72" fill="#088F48" sketch:type="MSShapeGroup"></path>
                <path d="M68.3193943,55.9046914 L66.4195371,56.8150286 L62.0363143,71.2969886 L68.2577486,74.22888 L69.5167029,73.0900286 L97.7610686,47.52672 L97.7610686,41.8021714 L68.9656114,55.5959314 L68.3193943,55.9046914" id="Fill-73" fill="#088F48" sketch:type="MSShapeGroup"></path>
                <path d="M78.66684,16.3499314 L69.6745371,46.0599771 L84.0342686,38.6385771 L97.7610686,25.0887429 L97.7610686,1.63467429 L78.66684,16.3499314" id="Fill-74" fill="#088F48" sketch:type="MSShapeGroup"></path>
                <path d="M67.8708686,0.311417143 L62.5438286,0.311417143 L63.2692286,6.56048571 L67.8708686,0.311417143" id="Fill-75" fill="#088F48" sketch:type="MSShapeGroup"></path>
                <path d="M83.5209086,0.311417143 L76.2461829,0.311417143 L64.0376743,13.1688 L65.5782857,26.4364457 L78.66684,16.3499314 L83.5209086,0.311417143" id="Fill-76" fill="#088F48" sketch:type="MSShapeGroup"></path>
                <path d="M57.8305886,13.9473429 L55.7984057,5.82020571 L55.5427886,4.82271429 L51.1197086,13.2586114 L51.3753257,13.7214857 L54.2572629,18.8003486 L57.8305886,13.9473429" id="Fill-77" fill="#088F48" sketch:type="MSShapeGroup"></path>
                <path d="M29.3205086,46.6312629 L29.3869371,46.6663371 L30.6262286,36.7589143 L31.4366571,29.9316514 L31.4467543,29.8466229 L34.7230114,33.5740629 L35.7996857,29.4496457 L14.9761886,13.40316 L27.3584743,45.5986971 L29.3205086,46.63392 L29.3205086,46.6312629" id="Fill-78" fill="#088F48" sketch:type="MSShapeGroup"></path>
                <path d="M9.94090286,0.311417143 L0.108942857,0.311417143 L0.108942857,1.94609143 L14.9761886,13.40316 L9.94090286,0.311417143" id="Fill-79" fill="#088F48" sketch:type="MSShapeGroup"></path>
                <path d="M0.108942857,24.6168343 L0.108942857,31.2208971 L14.0897657,38.5976571 L0.108942857,24.6168343" id="Fill-80" fill="#088F48" sketch:type="MSShapeGroup"></path>
                <path d="M38.6550514,18.5043429 L39.8773371,13.81608 L34.43232,6.31018286 L33.5788457,13.13904 L38.6550514,18.5043429" id="Fill-81" fill="#088F48" sketch:type="MSShapeGroup"></path>
                <path d="M35.1821657,0.311417143 L30.07992,0.311417143 L34.43232,6.31018286 L35.1821657,0.311417143" id="Fill-82" fill="#088F48" sketch:type="MSShapeGroup"></path>
                <path d="M43.3555371,67.8628971 L33.1978114,57.7062343 L32.4368057,57.3469886 L30.9344571,56.6635714 L34.2883029,67.8129429 L34.3334743,67.7433257 L35.5844571,71.5770514 L43.3555371,67.8628971" id="Fill-83" fill="#088F48" sketch:type="MSShapeGroup"></path>
                <path d="M29.9396229,53.6599371 L28.9346914,50.2843029 L27.3584743,45.5986971 L14.0897657,38.5976571 L28.5839486,53.0913086 L30.69,55.6628914 L29.9396229,53.6599371" id="Fill-84" fill="#088F48" sketch:type="MSShapeGroup"></path>
                <path d="M31.9824343,44.0804057 L29.8705371,43.1105486 L29.8785086,43.0542171 L29.8407771,43.03668 L29.3869371,46.6663371 L35.3033314,49.7666914 L38.6853429,47.1605657 L34.7176971,45.3372343 L34.38024,45.1820571 L31.9824343,44.0804057" id="Fill-85" fill="#7CB07F" sketch:type="MSShapeGroup"></path>
                <path d="M37.3535829,59.6645486 L33.1978114,57.7062343 L43.3555371,67.8628971 L46.4054057,66.4014686 L46.4048743,66.2276914 L48.9148114,65.1674914 L48.9148114,65.1132857 L37.3535829,59.6645486" id="Fill-86" fill="#7CB07F" sketch:type="MSShapeGroup"></path>
                <path d="M59.0310857,18.4421657 L61.8194914,29.3322 L65.5782857,26.4364457 L64.0376743,13.1688 L59.0310857,18.4421657" id="Fill-87" fill="#7CB07F" sketch:type="MSShapeGroup"></path>
                <path d="M48.3663771,26.8004743 L48.6560057,26.4040286 L46.1923029,22.6670229 L46.1891143,22.6617086 L44.90412,25.1115943 L47.5506343,27.9090343 L48.3663771,26.8004743" id="Fill-88" fill="#7CB07F" sketch:type="MSShapeGroup"></path>
                <path d="M35.5180286,71.6429486 L34.0236514,66.7272343 L33.9768857,66.7819714 L30.83508,56.5641943 L28.2953829,55.3950514 L0.108942857,42.1114629 L0.108942857,47.52672 L39.1928571,82.9002 L35.47764,71.66208 L35.5180286,71.6429486" id="Fill-89" fill="#12703C" sketch:type="MSShapeGroup"></path>
                <path d="M89.4968229,33.2472343 L84.0342686,38.6385771 L97.7610686,31.5434743 L97.7610686,25.0887429 L89.4968229,33.2472343" id="Fill-90" fill="#7CB07F" sketch:type="MSShapeGroup"></path>
                <path d="M34.43232,6.31018286 L30.07992,0.311417143 L21.4442057,0.311417143 L33.5788457,13.13904 L34.43232,6.31018286" id="Fill-91" fill="#7CB07F" sketch:type="MSShapeGroup"></path>
                <path d="M78.66684,16.3499314 L61.8194914,29.3322 L62.8648114,33.4151657 L65.0048743,30.9668743 L65.9747314,29.8466229 L65.9757943,29.8556571 L65.9837657,29.8466229 L67.5482914,43.0260514 L67.5578571,43.1105486 L67.5169371,43.1286171 L67.96068,46.9464 L69.6745371,46.0599771 L78.66684,16.3499314" id="Fill-92" fill="#12703C" sketch:type="MSShapeGroup"></path>
                <path d="M43.3555371,67.8628971 L46.4266629,70.9340229 L46.4054057,66.4014686 L43.3555371,67.8628971" id="Fill-93" fill="#12703C" sketch:type="MSShapeGroup"></path>
                <path d="M43.3773257,43.4660743 L43.41984,43.5123086 L45.4525543,41.9456571 L42.1300629,35.3447829 L42.6046286,34.6937829 L42.5727429,34.6693371 L39.4341257,38.9324571 L43.4017714,43.4469429 L43.3773257,43.4660743" id="Fill-94" fill="#12703C" sketch:type="MSShapeGroup"></path>
                <path d="M58.59372,47.0154857 L57.64884,46.2874286 L54.0446914,43.6276286 L51.6569829,46.3857429 L55.9689943,53.2895314 L62.3440114,49.9048629 L62.3004343,49.8719143 L58.59372,47.0154857" id="Fill-95" fill="#12703C" sketch:type="MSShapeGroup"></path>
                <path d="M38.7485829,47.1478114 L38.7145714,47.1738514 L38.6853429,47.1605657 L35.3033314,49.7666914 L41.6225486,53.0796171 L43.9199143,49.53552 L38.7485829,47.1478114" id="Fill-96" fill="#12703C" sketch:type="MSShapeGroup"></path>
                <path d="M55.5427886,4.82271429 L54.3874629,0.311417143 L53.4367371,0.311417143 L48.70968,8.90249143 L51.1197086,13.2586114 L55.5427886,4.82271429" id="Fill-97" fill="#12703C" sketch:type="MSShapeGroup"></path>
                <path d="M76.2461829,0.311417143 L67.8708686,0.311417143 L63.2692286,6.56048571 L64.0376743,13.1688 L76.2461829,0.311417143" id="Fill-98" fill="#12703C" sketch:type="MSShapeGroup"></path>
                <path d="M51.3949886,70.8553714 L51.39552,70.9940743 L48.9413829,73.4492743 L48.9211886,73.4694686 L48.9148114,73.46256 L48.9148114,91.6995943 L48.9355371,91.7176629 L58.4667086,83.0909829 L62.0363143,71.2969886 L54.53148,67.7603314 L51.3949886,70.8553714" id="Fill-99" fill="#12703C" sketch:type="MSShapeGroup"></path>
                <path d="M69.6745371,46.0599771 L66.7607143,55.6899943 L67.9675886,54.498 L84.0342686,38.6385771 L69.6745371,46.0599771" id="Fill-100" fill="#12703C" sketch:type="MSShapeGroup"></path>
                <path d="M45.3457371,15.0155143 L46.2900857,13.2734914 L42.0567257,5.46308571 L39.8773371,13.81608 L43.3629771,18.6201943 L45.3457371,15.0155143" id="Fill-101" fill="#12703C" sketch:type="MSShapeGroup"></path>
                <path d="M38.2139657,20.1937543 L38.6380457,18.49212 L38.6539886,18.5080629 L38.6550514,18.5043429 L21.4442057,0.311417143 L9.94090286,0.311417143 L14.9761886,13.40316 L35.7996857,29.4496457 L38.2139657,20.1937543" id="Fill-102" fill="#12703C" sketch:type="MSShapeGroup"></path>
                <path d="M54.2737371,18.9603086 L55.8441086,21.7976057 L58.94712,18.52932 L58.96944,18.5059371 L57.8305886,13.9473429 L54.2572629,18.8003486 L54.3162514,18.9039771 L54.2737371,18.9603086" id="Fill-103" fill="#14532E" sketch:type="MSShapeGroup"></path>
                <path d="M39.5632629,32.3501829 L35.7996857,29.4496457 L34.7230114,33.5740629 L38.3207829,37.6665943 L40.6441886,33.2360743 L39.5632629,32.3501829" id="Fill-104" fill="#14532E" sketch:type="MSShapeGroup"></path>
                <path d="M59.4025543,31.19592 L57.0276,33.0867429 L59.3727943,37.4125714 L62.73408,33.5650286 L61.6993886,29.4252 L60.5530971,30.3084343 L59.4025543,31.19592" id="Fill-105" fill="#14532E" sketch:type="MSShapeGroup"></path>
                <path d="M56.9718,33.0681429 L52.7108057,25.1557029 L52.7224971,25.1424171 L52.7033657,25.10628 L50.0759829,27.8734286 L51.2732914,29.5240457 L54.9800057,34.6029086 L56.9718,33.0681429" id="Fill-106" fill="#14532E" sketch:type="MSShapeGroup"></path>
                <path d="M66.3254743,56.9611714 L64.71684,57.7067657 L54.53148,67.7603314 L62.0363143,71.2969886 L66.4195371,56.8150286 L66.36108,56.8437257 L66.3254743,56.9611714" id="Fill-107" fill="#14532E" sketch:type="MSShapeGroup"></path>
                <path d="M91.5422914,0.311417143 L83.5209086,0.311417143 L78.66684,16.3499314 L97.7610686,1.63467429 L97.7610686,0.311417143 L91.5422914,0.311417143" id="Fill-108" fill="#14532E" sketch:type="MSShapeGroup"></path>
                <path d="M68.2577486,74.22888 L62.0363143,71.2969886 L58.4667086,83.0909829 L68.2577486,74.22888" id="Fill-109" fill="#14532E" sketch:type="MSShapeGroup"></path>
                <path d="M41.0135314,81.10344 L39.1928571,82.9002 L48.9148114,91.6995943 L48.9148114,73.46256 L48.8345657,73.3828457 L41.0135314,81.10344" id="Fill-110" fill="#14532E" sketch:type="MSShapeGroup"></path>
                <path d="M57.8672571,13.8973886 L63.2692286,6.56048571 L62.5438286,0.311417143 L57.90924,0.311417143 L55.5475714,4.81474286 L55.7984057,5.82020571 L57.8672571,13.8973886" id="Fill-111" fill="#14532E" sketch:type="MSShapeGroup"></path>
                <path d="M68.7487886,53.7263657 L67.9675886,54.498 L66.7607143,55.6899943 L66.4195371,56.8150286 L68.3193943,55.9046914 L68.9656114,55.5959314 L97.7610686,41.8021714 L97.7610686,31.5434743 L84.0342686,38.6385771 L68.7487886,53.7263657" id="Fill-112" fill="#14532E" sketch:type="MSShapeGroup"></path>
                <path d="M41.67144,21.6939771 L43.3629771,18.6201943 L39.8773371,13.81608 L38.6550514,18.5043429 L41.67144,21.6939771" id="Fill-113" fill="#14532E" sketch:type="MSShapeGroup"></path>
                <path d="M42.0567257,5.46308571 L39.2640686,0.311417143 L35.1821657,0.311417143 L34.43232,6.31018286 L39.8773371,13.81608 L42.0567257,5.46308571" id="Fill-114" fill="#14532E" sketch:type="MSShapeGroup"></path>
                <path d="M28.5839486,53.0913086 L14.0897657,38.5976571 L0.108942857,31.2208971 L0.108942857,42.1114629 L28.2953829,55.3950514 L30.6458914,56.3978571 L30.2494457,54.7339543 L28.5839486,53.0913086" id="Fill-115" fill="#14532E" sketch:type="MSShapeGroup"></path>
                <path d="M54.9661886,34.6140686 L51.2732914,29.5240457 L50.0717314,27.8782114 L48.7941771,29.2232571 L54.3460114,35.0918229 L48.7335943,39.4176514 L52.0034743,41.9366229 L55.5109029,35.3649771 L54.9661886,34.6140686" id="Fill-116" fill="#EAD698" sketch:type="MSShapeGroup"></path>
                <path d="M49.6088571,65.4401143 L49.2310114,65.1834343 L49.0040914,65.2535829 L48.8462571,73.3424571 L51.3949886,70.8553714 L51.3737314,66.2718 L49.6088571,65.4401143" id="Fill-117" fill="#EAD698" sketch:type="MSShapeGroup"></path>
                <path d="M66.3286629,47.7897771 L67.9218857,46.9660629 L67.9181657,46.9458686 L66.3286629,47.7897771" id="Fill-118" fill="#FDF6E1" sketch:type="MSShapeGroup"></path>
                <path d="M45.4775314,41.9961429 L48.7771714,39.4532571 L48.7335943,39.4176514 L43.1785714,35.1369943 L48.7941771,29.2232571 L47.5543543,27.9127543 L42.1300629,35.3447829 L45.4525543,41.9456571 L45.4775314,41.9961429" id="Fill-119" fill="#FDF6E1" sketch:type="MSShapeGroup"></path>
                <path d="M55.5109029,35.3649771 L55.5220629,35.3447829 L54.9800057,34.6029086 L51.2732914,29.5240457 L55.5109029,35.3649771" id="Fill-120" fill="#FDF6E1" sketch:type="MSShapeGroup"></path>
                <path d="M44.8918971,25.1355086 L40.6638514,33.1983429 L39.5632629,32.3501829 L40.6441886,33.2360743 L40.6564114,33.2467029 L40.6760743,33.2079086 L44.9104971,25.1557029 L44.8918971,25.1355086" id="Fill-121" fill="#FDF6E1" sketch:type="MSShapeGroup"></path>
                <path d="M61.6871657,29.3757771 L61.6951371,29.3694 L58.9832571,18.49212 L58.96944,18.5059371 L58.94712,18.52932 L58.96944,18.5064686 L61.6871657,29.3757771" id="Fill-122" fill="#FDF6E1" sketch:type="MSShapeGroup"></path>
                <path d="M34.7070686,33.6383657 L38.2989943,37.7085771 L39.4086171,38.967 L43.3773257,43.4660743 L43.4017714,43.4469429 L31.4467543,29.8466229 L31.4366571,29.9316514 L30.6262286,36.7589143 L31.4738571,29.9741657 L34.7070686,33.6383657" id="Fill-123" fill="#FDF6E1" sketch:type="MSShapeGroup"></path>
                <path d="M34.38024,45.1820571 L34.7176971,45.3372343 L38.6853429,47.1605657 L38.7145714,47.1738514 L38.7485829,47.1478114 L40.1993829,45.9935486 L38.7193543,47.1345257 L34.7448,45.3005657 L34.4014971,45.1411371 L31.9951886,44.0309829 L29.8785086,43.0542171 L29.8705371,43.1105486 L31.9824343,44.0804057 L34.38024,45.1820571" id="Fill-124" fill="#FDF6E1" sketch:type="MSShapeGroup"></path>
                <path d="M48.9148114,73.3041943 L49.0040914,65.2886571 L48.9573257,65.1791829 L48.9211886,65.1648343 L48.9148114,65.1674914 L46.4048743,66.2276914 L46.4054057,66.4014686 L46.4266629,70.9340229 L46.4266629,70.9940743 L48.8345657,73.3828457 L48.9148114,73.46256 L48.9211886,73.4694686 L48.9413829,73.4492743 L51.39552,70.9940743 L51.3949886,70.8553714 L48.9148114,73.3041943" id="Fill-125" fill="#F7EDC4" sketch:type="MSShapeGroup"></path>
                <path d="M49.6088571,65.4401143 L51.3737314,66.2718 L51.3732,66.1469143 L49.6088571,65.4401143" id="Fill-126" fill="#FDF6E1" sketch:type="MSShapeGroup"></path>
                <path d="M53.39688,49.4388 L51.5841771,46.5637714 L48.7591029,42.1741714 L48.72456,49.6338343 L49.9011429,50.9969486 L58.4704286,60.7082743 L59.8803086,60.0551486 L60.0408,59.97756 L53.39688,49.4388" id="Fill-127" fill="#EAD698" sketch:type="MSShapeGroup"></path>
                <path d="M44.2148571,49.2591771 L48.7165886,42.1194343 L48.7165886,49.6779429 L39.14184,60.5291829 L37.73196,59.8755257 L37.2069086,59.613 L44.2148571,49.2591771" id="Fill-128" fill="#FAF1D2" sketch:type="MSShapeGroup"></path>
                <path d="M65.3449886,44.0076 L65.5533086,43.9146 L67.5073714,43.04412 L65.9763257,29.86044 L63.3489429,36.0239486 L65.3449886,44.0076" id="Fill-129" fill="#EAD698" sketch:type="MSShapeGroup"></path>
                <path d="M62.7388629,33.5836286 L63.3489429,36.0239486 L65.9763257,29.86044 L65.9757943,29.8556571 L65.0048743,30.9668743 L62.8695943,33.4332343 L62.7388629,33.5836286" id="Fill-130" fill="#F2E4AD" sketch:type="MSShapeGroup"></path>
                <path d="M61.2673371,40.9083086 L63.4132457,44.8679829 L65.3449886,44.0076 L63.3489429,36.0239486 L61.2673371,40.9083086" id="Fill-131" fill="#F2E4AD" sketch:type="MSShapeGroup"></path>
                <path d="M62.7388629,33.5836286 L59.3924571,37.44924 L61.2673371,40.9083086 L63.3489429,36.0239486 L62.7388629,33.5836286" id="Fill-132" fill="#FDF6E1" sketch:type="MSShapeGroup"></path>
                <path d="M65.9811086,29.8498114 L65.9757943,29.8556571 L65.9763257,29.86044 L65.9811086,29.8498114" id="Fill-133" fill="#FDF6E1" sketch:type="MSShapeGroup"></path>
                <path d="M59.3924571,37.44924 L59.3727943,37.4125714 L58.0739829,38.8979143 L54.04416,43.5096514 L53.9825143,43.5808629 L54.0446914,43.6276286 L58.61976,47.0037943 L58.6574914,47.0314286 L61.2673371,40.9083086 L59.3924571,37.44924" id="Fill-134" fill="#FDF6E1" sketch:type="MSShapeGroup"></path>
                <path d="M67.5482914,43.0260514 L65.9837657,29.8466229 L65.9811086,29.8498114 L65.9763257,29.86044 L67.5073714,43.04412 L65.5533086,43.9146 L65.3449886,44.0076 L63.4132457,44.8679829 L61.2673371,40.9083086 L58.6574914,47.0314286 L58.6691829,47.0404629 L65.3630571,44.0809371 L65.5729714,43.989 L67.5578571,43.1105486 L67.5482914,43.0260514" id="Fill-135" fill="#F4E9BD" sketch:type="MSShapeGroup"></path>
                <path d="M34.1134629,35.9134114 L31.9951886,44.0309829 L34.4014971,45.1411371 L36.3932914,41.3435486 L34.1134629,35.9134114" id="Fill-136" fill="#F2E4AD" sketch:type="MSShapeGroup"></path>
                <path d="M36.3932914,41.3435486 L38.2989943,37.7085771 L34.7070686,33.6383657 L34.1134629,35.9134114 L36.3932914,41.3435486" id="Fill-137" fill="#FBF4D9" sketch:type="MSShapeGroup"></path>
                <path d="M31.7533886,30.2903657 L31.4738571,29.9741657 L30.6262286,36.7589143 L29.8785086,43.0542171 L31.9951886,44.0309829 L34.1134629,35.9134114 L31.7533886,30.2903657" id="Fill-138" fill="#F7EDC4" sketch:type="MSShapeGroup"></path>
                <path d="M34.7070686,33.6383657 L31.7533886,30.2903657 L34.1134629,35.9134114 L34.7070686,33.6383657" id="Fill-139" fill="#FFF9EA" sketch:type="MSShapeGroup"></path>
                <path d="M34.4014971,45.1411371 L34.7448,45.3005657 L38.7193543,47.1345257 L38.7985371,47.0739429 L36.3932914,41.3435486 L34.4014971,45.1411371" id="Fill-140" fill="#F2E4AD" sketch:type="MSShapeGroup"></path>
                <path d="M43.3773257,43.4660743 L39.4086171,38.967 L38.2989943,37.7085771 L36.3932914,41.3435486 L38.7985371,47.0739429 L40.1993829,45.9935486 L43.3773257,43.4660743" id="Fill-141" fill="#FBF4D9" sketch:type="MSShapeGroup"></path>
                <path d="M51.3928629,22.6893429 L54.2163429,18.8550857 L51.3753257,13.7214857 L51.11652,13.2649886 L48.7405029,17.7954171 L51.3928629,22.6893429" id="Fill-142" fill="#EAD698" sketch:type="MSShapeGroup"></path>
                <path d="M48.6942686,17.8836343 L48.7500686,26.0463771 L48.7585714,26.3057143 L51.3928629,22.6893429 L48.7405029,17.7954171 L48.6942686,17.8836343" id="Fill-143" fill="#F2E4AD" sketch:type="MSShapeGroup"></path>
                <path d="M46.2008057,22.6521429 L48.6586629,26.39712 L48.8499771,26.1648857 L48.7665429,26.04 L48.6942686,17.8836343 L46.2008057,22.6521429" id="Fill-144" fill="#FAF1D2" sketch:type="MSShapeGroup"></path>
                <path d="M46.2975257,13.2867771 L48.6932057,17.7077314 L48.6336857,9.04066286 L46.2975257,13.2867771" id="Fill-145" fill="#FAF1D2" sketch:type="MSShapeGroup"></path>
                <path d="M48.6932057,17.7077314 L48.7405029,17.7954171 L51.11652,13.2649886 L48.6756686,8.96360571 L48.6336857,9.04066286 L48.6932057,17.7077314" id="Fill-146" fill="#F2E4AD" sketch:type="MSShapeGroup"></path>
                <path d="M54.2572629,18.8003486 L51.3753257,13.7214857 L54.2163429,18.8550857 L48.8350971,26.1632914 L48.7500686,26.0463771 L48.7521943,26.2982743 L48.83616,26.18508 L48.8441314,26.1749829 L51.4098686,22.7196343 L51.4157143,22.7111314 L54.2737371,18.9603086 L54.3162514,18.9039771 L54.2572629,18.8003486" id="Fill-147" fill="#FDF6E1" sketch:type="MSShapeGroup"></path>
                <path d="M48.6932057,17.7077314 L48.6942686,17.8836343 L48.7405029,17.7954171 L48.6932057,17.7077314" id="Fill-148" fill="#FDF6E1" sketch:type="MSShapeGroup"></path>
                <path d="M48.6756686,8.96360571 L48.6490971,8.91684 L48.6331543,8.94713143 L48.6336857,9.04066286 L48.6756686,8.96360571" id="Fill-149" fill="#FDF6E1" sketch:type="MSShapeGroup"></path>
                <path d="M46.2337543,22.57668 L48.6942686,17.8836343 L48.6932057,17.7077314 L46.2975257,13.2867771 L48.6336857,9.04066286 L48.6331543,8.94713143 L43.4017714,18.6047829 L46.1891143,22.6617086 L46.1923029,22.6670229 L46.2337543,22.57668" id="Fill-150" fill="#FDF6E1" sketch:type="MSShapeGroup"></path>
                <path d="M41.6645314,21.7067314 L38.7560229,18.6164743 L40.6569429,33.1930286 L40.6638514,33.1983429 L44.8918971,25.1355086 L41.6645314,21.7067314" id="Fill-151" fill="#FDF6E1" sketch:type="MSShapeGroup"></path>
                <path d="M39.6392571,25.3879371 L38.7560229,18.6164743 L38.6539886,18.5080629 L38.6380457,18.49212 L35.9261657,29.3694 L39.5632629,32.3501829 L40.6569429,33.1930286 L39.6392571,25.3879371" id="Fill-152" fill="#F8EECB" sketch:type="MSShapeGroup"></path>
                <path d="M58.9067314,18.5728971 L55.8542057,21.8162057 L57.9645086,25.6302686 L58.9067314,18.5728971" id="Fill-153" fill="#F2E4AD" sketch:type="MSShapeGroup"></path>
                <path d="M58.96944,18.5064686 L58.94712,18.52932 L58.9067314,18.5728971 L56.9712686,33.0681429 L56.9718,33.0681429 L56.9957143,33.1122514 L57.0276,33.0867429 L59.4025543,31.19592 L60.5414057,30.28824 L61.6871657,29.3757771 L58.96944,18.5064686" id="Fill-154" fill="#EAD698" sketch:type="MSShapeGroup"></path>
                <path d="M55.8542057,21.8162057 L52.7224971,25.1424171 L52.7108057,25.1557029 L56.9712686,33.0681429 L57.9645086,25.6302686 L55.8542057,21.8162057" id="Fill-155" fill="#FAF1D2" sketch:type="MSShapeGroup"></path>
                <path d="M43.1785714,35.1369943 L48.7335943,39.4176514 L48.7585714,39.39852 L48.7936457,29.2237886 L43.1785714,35.1369943" id="Fill-156" fill="#FAF1D2" sketch:type="MSShapeGroup"></path>
                <path d="M48.7941771,29.2232571 L48.7936457,29.2237886 L48.7585714,39.39852 L54.3460114,35.0918229 L48.7941771,29.2232571" id="Fill-157" fill="#F2E4AD" sketch:type="MSShapeGroup"></path>
                <path d="M48.6645086,26.4167829 L48.6570686,26.4056229 L48.3663771,26.8004743 L47.5543543,27.9127543 L48.7936457,29.2227257 L48.8037429,26.2286571 L48.6645086,26.4167829" id="Fill-158" fill="#FAF1D2" sketch:type="MSShapeGroup"></path>
                <path d="M50.0717314,27.8782114 L50.0154,27.79956 L48.83616,26.18508 L48.8037429,26.2286571 L48.7936457,29.2227257 L48.7941771,29.2232571 L50.0717314,27.8782114" id="Fill-159" fill="#F2E4AD" sketch:type="MSShapeGroup"></path>
            </g>
        </g>
    </g>
</svg>