<?xml version="1.0" encoding="utf-8"?>
<!-- Generator: Adobe Illustrator 16.0.0, SVG Export Plug-In . SVG Version: 6.00 Build 0)  -->
<!DOCTYPE svg PUBLIC "-//W3C//DTD SVG 1.1//EN" "http://www.w3.org/Graphics/SVG/1.1/DTD/svg11.dtd">
<svg version="1.1" id="Layer_1" xmlns="http://www.w3.org/2000/svg" xmlns:xlink="http://www.w3.org/1999/xlink" x="0px" y="0px"
	 width="125.738px" height="116.301px" viewBox="0 0 125.738 116.301" enable-background="new 0 0 125.738 116.301"
	 xml:space="preserve">
<polygon fill="#231F20" points="0,0 125.738,0 125.703,59.171 62.366,116.301 0,59.446 "/>
<g>
	<g>
		<path fill="#7EBAB5" stroke="#7EBAB5" stroke-width="1.6002" stroke-miterlimit="10" d="M30.579,27.539v0.288
			c0,1.665-0.662,3.245-1.809,4.391c-1.262,1.262-2.985,1.952-4.879,1.952h-0.228c-2.441-0.086-4.565-1.465-5.569-3.617
			c-0.114-0.228-0.143-0.487-0.143-0.717c0-0.631,0.344-1.237,0.975-1.522c0.231-0.115,0.459-0.142,0.689-0.142
			c0.631,0,1.263,0.343,1.548,0.974c0.46,1.007,1.437,1.638,2.613,1.667h0.145c1.004,0,1.837-0.316,2.439-0.918
			c0.574-0.576,0.89-1.294,0.89-2.067v-0.115c-0.086-1.319-2.583-2.497-3.675-2.813l-0.114-0.057
			c-2.957-1.061-4.45-2.926-4.45-5.509v-0.23c0.058-1.465,0.718-2.784,1.953-3.705c1.033-0.802,2.442-1.289,3.934-1.289h0.257
			c1.205,0.027,2.44,0.516,3.443,1.262c0.432,0.345,0.662,0.832,0.662,1.319c0,0.345-0.115,0.717-0.345,1.005
			c-0.344,0.43-0.833,0.66-1.348,0.66c-0.344,0-0.689-0.084-1.006-0.314c-0.429-0.345-1.002-0.546-1.521-0.573h-0.171
			c-1.407,0-2.499,0.717-2.526,1.75v0.115c0,1.407,1.091,1.921,2.211,2.38C25.412,21.97,30.407,23.579,30.579,27.539z"/>
		<path fill="#7EBAB5" stroke="#7EBAB5" stroke-width="1.6002" stroke-miterlimit="10" d="M57.443,15.799
			c0,0.173,0,0.316-0.058,0.487l-5.022,16.734c-0.2,0.717-0.862,1.206-1.608,1.206c-0.717,0-1.376-0.489-1.607-1.206l-3.415-11.394
			l-3.416,11.394c-0.202,0.717-0.861,1.206-1.608,1.206c-0.717,0-1.378-0.489-1.607-1.206L34.08,16.287
			c-0.057-0.142-0.057-0.314-0.057-0.457c0-0.719,0.458-1.407,1.206-1.638c0.143-0.058,0.315-0.058,0.458-0.058
			c0.717,0,1.378,0.46,1.606,1.207l3.416,11.394l3.415-11.394c0.23-0.717,0.892-1.207,1.609-1.207c0.745,0,1.404,0.489,1.606,1.207
			l3.416,11.394l3.416-11.394c0.229-0.746,0.917-1.207,1.635-1.207c0.144,0,0.316,0,0.46,0.058
			C56.984,14.423,57.443,15.082,57.443,15.799z"/>
		<path fill="#7EBAB5" stroke="#7EBAB5" stroke-width="1.6002" stroke-miterlimit="10" d="M65.363,25.845v5.024h6.716
			c0.919,0,1.666,0.746,1.666,1.693c0,0.917-0.747,1.665-1.666,1.665h-8.38c-0.917,0-1.666-0.748-1.666-1.665V15.799
			c0-0.918,0.748-1.665,1.666-1.665h8.38c0.919,0,1.666,0.746,1.666,1.665c0,0.949-0.747,1.693-1.666,1.693h-6.716v5.024h6.716
			c0.919,0,1.666,0.746,1.666,1.665s-0.747,1.664-1.666,1.664H65.363z"/>
		<path fill="#7EBAB5" stroke="#7EBAB5" stroke-width="1.6002" stroke-miterlimit="10" d="M82.239,25.845v5.024h6.717
			c0.918,0,1.665,0.746,1.665,1.693c0,0.917-0.747,1.665-1.665,1.665h-8.381c-0.919,0-1.666-0.748-1.666-1.665V15.799
			c0-0.918,0.747-1.665,1.666-1.665h8.381c0.918,0,1.665,0.746,1.665,1.665c0,0.949-0.747,1.693-1.665,1.693h-6.717v5.024h6.717
			c0.918,0,1.665,0.746,1.665,1.665s-0.747,1.664-1.665,1.664H82.239z"/>
	</g>
	<g>
		<g>
			<path fill="#7EBAB5" stroke="#7EBAB5" stroke-width="1.6002" stroke-miterlimit="10" d="M21.963,60.982
				c0-0.949,0.745-1.697,1.664-1.697c2.269,0,2.525-2.182,2.525-2.499V44.206c0-0.919,0.747-1.665,1.666-1.665
				c0.946,0,1.693,0.746,1.693,1.665v12.581c0,0.142-0.028,1.463-0.717,2.845c-0.976,1.955-2.812,3.016-5.167,3.016
				C22.708,62.647,21.963,61.901,21.963,60.982z"/>
			<path fill="#7EBAB5" stroke="#7EBAB5" stroke-width="1.6002" stroke-miterlimit="10" d="M48.397,60.982
				c0,0.919-0.746,1.665-1.693,1.665h-9.186c-0.945,0-1.694-0.746-1.694-1.665V44.206c0-0.919,0.749-1.665,1.694-1.665h9.186
				c0.947,0,1.693,0.746,1.693,1.665c0,0.947-0.746,1.695-1.693,1.695h-7.521v5.022h5.855c0.919,0,1.666,0.746,1.666,1.665
				c0,0.919-0.746,1.666-1.666,1.666h-5.855v5.032h7.521C47.651,59.286,48.397,60.033,48.397,60.982z"/>
			<path fill="#7EBAB5" stroke="#7EBAB5" stroke-width="1.6002" stroke-miterlimit="10" d="M72.073,58.741
				c-0.803-1.752-0.832-3.45-0.832-3.654V44.206c0-0.919,0.747-1.665,1.666-1.665c0.918,0,1.663,0.746,1.663,1.665v10.881
				c0,0.431,0.345,4.199,3.79,4.199c3.272,0,3.76-3.537,3.76-4.199V44.206c0-0.919,0.746-1.665,1.664-1.665
				c0.919,0,1.663,0.746,1.663,1.665v10.881c0,0.204,0,1.902-0.802,3.654c-1.177,2.53-3.416,3.907-6.285,3.907
				C75.489,62.647,73.25,61.271,72.073,58.741z"/>
			<path fill="#7EBAB5" stroke="#7EBAB5" stroke-width="1.6002" stroke-miterlimit="10" d="M103.816,55.952v0.286
				c0,1.672-0.657,3.251-1.807,4.4c-1.263,1.264-2.986,1.95-4.879,1.95h-0.229c-2.442-0.083-4.566-1.462-5.571-3.619
				c-0.114-0.228-0.143-0.487-0.143-0.718c0-0.632,0.345-1.233,0.977-1.521c0.229-0.115,0.459-0.146,0.688-0.146
				c0.632,0,1.263,0.346,1.549,0.978c0.459,1.008,1.436,1.641,2.613,1.669h0.144c1.005,0,1.836-0.317,2.438-0.921
				c0.574-0.574,0.889-1.292,0.889-2.071v-0.113c-0.085-1.323-2.58-2.502-3.672-2.819l-0.115-0.058
				c-2.955-1.062-4.448-2.928-4.448-5.511v-0.23c0.059-1.463,0.716-2.784,1.95-3.701c1.034-0.804,2.442-1.292,3.933-1.292h0.26
				c1.204,0.029,2.438,0.516,3.443,1.264c0.431,0.343,0.66,0.83,0.66,1.321c0,0.341-0.115,0.717-0.345,1.003
				c-0.345,0.431-0.832,0.659-1.35,0.659c-0.344,0-0.687-0.086-1.003-0.316c-0.432-0.343-1.004-0.542-1.521-0.573h-0.172
				c-1.407,0-2.498,0.717-2.527,1.751v0.115c0,1.406,1.093,1.923,2.211,2.382C98.651,50.378,103.643,51.983,103.816,55.952z"/>
		</g>
	</g>
	<path fill="#7EBAB5" stroke="#7EBAB5" stroke-width="4.9516" stroke-linecap="round" stroke-miterlimit="10" d="M24.218,60.938
		c-1.787,0.169-4.56-0.291-4.56-4.314"/>
	<g>
		<g>
			<g>
				<path fill="#7EBAB5" d="M99.603,14.59c0-0.323,0.265-0.587,0.588-0.587h2.359c0.322,0,0.587,0.264,0.587,0.587v19.291
					c0,0.323-0.265,0.587-0.587,0.587h-2.359c-0.323,0-0.588-0.264-0.588-0.587V14.59z"/>
				<path fill="none" stroke="#7EBAB5" stroke-width="1.2755" stroke-miterlimit="10" d="M99.603,14.59
					c0-0.323,0.265-0.587,0.588-0.587h2.359c0.322,0,0.587,0.264,0.587,0.587v19.291c0,0.323-0.265,0.587-0.587,0.587h-2.359
					c-0.323,0-0.588-0.264-0.588-0.587V14.59z"/>
			</g>
			<g>
				<path fill="#7EBAB5" d="M95.541,29.351c-0.322,0-0.587-0.264-0.587-0.587v-2.524c0-0.323,0.265-0.587,0.587-0.587h11.66
					c0.322,0,0.587,0.264,0.587,0.587v2.524c0,0.323-0.265,0.587-0.587,0.587H95.541z"/>
				<path fill="none" stroke="#7EBAB5" stroke-width="1.2755" stroke-miterlimit="10" d="M95.541,29.351
					c-0.322,0-0.587-0.264-0.587-0.587v-2.524c0-0.323,0.265-0.587,0.587-0.587h11.66c0.322,0,0.587,0.264,0.587,0.587v2.524
					c0,0.323-0.265,0.587-0.587,0.587H95.541z"/>
			</g>
		</g>
	</g>
	<g>
		<path fill="#7EBAB5" d="M64.097,43.125c0.144-0.307,0.068-0.359-0.167-0.116L53.393,53.881c-0.236,0.244-0.152,0.443,0.188,0.443
			h3.932c0.339,0,0.509,0.256,0.377,0.568l-3.021,7.185c-0.132,0.312-0.045,0.37,0.192,0.127l10.268-10.51
			c0.236-0.243,0.153-0.441-0.187-0.441h-4.232c-0.339,0-0.499-0.251-0.355-0.559L64.097,43.125z"/>
		<path fill="none" stroke="#7EBAB5" stroke-width="1.6002" stroke-miterlimit="10" d="M64.097,43.125
			c0.144-0.307,0.068-0.359-0.167-0.116L53.393,53.881c-0.236,0.244-0.152,0.443,0.188,0.443h3.932c0.339,0,0.509,0.256,0.377,0.568
			l-3.021,7.185c-0.132,0.312-0.045,0.37,0.192,0.127l10.268-10.51c0.236-0.243,0.153-0.441-0.187-0.441h-4.232
			c-0.339,0-0.499-0.251-0.355-0.559L64.097,43.125z"/>
	</g>
	
		<line fill="#7EBAB5" stroke="#7EBAB5" stroke-width="4.9516" stroke-linecap="round" stroke-miterlimit="10" x1="27.442" y1="44.206" x2="23.355" y2="44.206"/>
</g>
</svg>
