<?xml version="1.0" encoding="utf-8"?>
<!-- Generator: Adobe Illustrator 16.0.0, SVG Export Plug-In . SVG Version: 6.00 Build 0)  -->
<!DOCTYPE svg PUBLIC "-//W3C//DTD SVG 1.1//EN" "http://www.w3.org/Graphics/SVG/1.1/DTD/svg11.dtd">
<svg version="1.1" id="Layer_1" xmlns="http://www.w3.org/2000/svg" xmlns:xlink="http://www.w3.org/1999/xlink" x="0px" y="0px"
	 width="98.125px" height="91.85px" viewBox="0 0 98.125 91.85" enable-background="new 0 0 98.125 91.85" xml:space="preserve">
<g>
	<path fill="#FDF7E7" d="M0,0v47.443l49.062,44.405l49.062-44.405V0H0z M96.125,46.557L49.062,89.151L2,46.557V2h94.125V46.557z"/>
	<path fill="#FDF7E7" d="M72.438,35.959c0.355-1.184,1.045-2.83,2.36-4.724c-0.539-1.578-1.254-3.436-2.048-4.852
		c-1.132-2.019-2.318-3.527-3.034-4.361c-0.502,0.586-1.319,1.666-2.436,3.545c-1.55,2.607-2.212,5.151-2.451,6.308
		c1.087,1.658,1.688,3.101,2.011,4.157c0.792-0.637,1.426-1.065,1.866-1.335l0.001-6.613c0-0.553,0.448-1,1-1l0,0
		c0.552,0,1,0.448,1,1l-0.001,6.523C71.102,34.875,71.76,35.351,72.438,35.959z"/>
	<path fill="#FDF7E7" d="M61.706,25.2c-0.083-0.546,0.292-1.056,0.838-1.139s1.056,0.291,1.14,0.838l0.399,2.631
		c0.383-0.94,0.865-1.956,1.478-2.984c0.371-0.626,0.711-1.167,1.026-1.644c-0.63-0.914-1.325-1.861-2.084-2.797
		c-0.907-1.116-2.149-2.031-2.964-2.566c-0.256,0.527-0.637,1.377-1.161,2.703c-0.89,2.254-1.011,4.962-1.022,6.053
		c0.901,0.588,1.886,1.362,2.875,2.359L61.706,25.2z"/>
	<path fill="#FDF7E7" d="M67.822,21.175c0.332-0.421,0.605-0.726,0.82-0.941l-0.052-3.678c-0.008-0.553,0.435-1.007,0.986-1.015
		c0.539,0.038,1.006,0.435,1.014,0.986l0.05,3.531c0.188,0.198,0.518,0.563,0.938,1.073c0.533-0.762,1.107-1.541,1.729-2.315
		c0.267-0.334,0.555-0.648,0.852-0.945c-0.568-1.521-1.152-2.996-1.614-3.95c-0.88-1.82-2.204-3.324-2.948-4.09
		c-0.604,0.494-1.592,1.478-2.467,3.153c-0.859,1.651-1.466,3.403-1.893,4.965c0.285,0.282,0.562,0.58,0.818,0.896
		C66.688,19.625,67.277,20.409,67.822,21.175z"/>
	<path fill="#FDF7E7" d="M74.493,25.406c0.421,0.751,0.815,1.604,1.178,2.471l0.713-2.508c0.151-0.531,0.703-0.847,1.235-0.688
		c0.531,0.15,0.839,0.704,0.688,1.234l-0.539,1.9c0.797-0.723,1.574-1.301,2.293-1.76c-0.031-1.183-0.203-3.759-1.066-5.894
		c-0.535-1.317-0.924-2.165-1.186-2.692c-0.812,0.543-2.043,1.468-2.941,2.594c-0.733,0.918-1.406,1.848-2.018,2.747
		C73.377,23.557,73.938,24.414,74.493,25.406z"/>
	<path fill="#FDF7E7" d="M55.573,37.601c0.038-0.194,0.116-0.37,0.266-0.532l0.297-0.32l0.679-0.009l0.218,0.101
		c0.431,0.208,0.692,0.64,1.157,1.446c0.117,0.202,0.283,0.493,0.379,0.633c0.521,0.303,0.979,0.617,1.408,0.936l-2.789-6.108
		c-0.229-0.502-0.008-1.095,0.494-1.324c0.502-0.23,1.096-0.009,1.324,0.494l3.637,7.964c0.539-1.045,1.312-2.225,2.396-3.262
		c0.039-0.037,0.072-0.065,0.111-0.103c-0.194-0.998-0.891-3.411-3.324-6.343c-2.364-2.844-4.878-4.048-6.077-4.493
		c-0.538,1.133-1.506,3.58-1.575,6.647c-0.041,1.811,0.154,3.222,0.307,4.028C54.839,37.416,55.202,37.492,55.573,37.601z"/>
	<path fill="#FDF7E7" d="M77.393,31.108c-1.797,2.2-2.627,4.079-3.013,5.312l0.103,0.004c1.045,0.071,1.184,1.158,1.412,2.959
		c0.065,0.524,0.166,1.317,0.244,1.521c0.092,0.168,0.17,0.322,0.252,0.479l4.228-8.896c0.237-0.5,0.833-0.71,1.333-0.475
		c0.499,0.236,0.711,0.834,0.474,1.332l-3.19,6.717c0.447-0.324,0.92-0.641,1.451-0.925c0.065-0.11,0.141-0.262,0.227-0.426
		c0.492-0.939,1.052-2.007,2.046-2.007h0.438l0.381,0.359c0.207,0.227,0.293,0.492,0.324,0.771c0.205-0.055,0.396-0.094,0.592-0.137
		c0.139-0.615,0.44-2.243,0.371-4.502c-0.097-3.064-1.082-5.499-1.631-6.628C82.232,27.03,79.713,28.266,77.393,31.108z"/>
	<path fill="#FDF7E7" d="M70.727,54.931c-0.263-0.135-0.533-0.272-0.701-0.272c-0.15,0.001-0.498,0.171-0.752,0.295
		c-0.408,0.201-0.869,0.414-1.375,0.471l0.018,4.375c0.005,1.104,0.898,1.992,2,1.992c0.003,0,0.005,0,0.008,0
		c1.104-0.005,1.997-0.902,1.992-2.008l-0.018-4.424C71.456,55.279,71.05,55.096,70.727,54.931z"/>
	<path fill="#FDF7E7" d="M87.207,39.355c-0.861,0.037-2.115,0.208-3.684,0.743l-0.157,0.054l-0.628,0.005l-0.217-0.213
		c-0.233,0.432-0.42,0.71-0.738,0.874C79.6,41.947,78.2,43.655,77.66,44.4c0.388,1.195,1.229,4.301,0.613,7.018
		c0.461-0.252,0.92-0.508,1.362-0.803c0.701-0.467,1.813-0.996,2.991-1.557c0.35-0.165,0.754-0.358,1.155-0.556
		c-0.101-0.091-0.188-0.204-0.257-0.346c-0.094-0.197-0.267-0.719,0.195-1.302C85.463,44.659,86.657,42.085,87.207,39.355z"/>
	<path fill="#FDF7E7" d="M53.536,45.15c-0.001,0.002-0.003,0.005-0.005,0.007c0.705,0.672,1.764,1.539,2.32,1.997
		c0.607,0.498,1.088,0.892,1.342,1.151c1.324,1.34,2.854,2.443,4.513,3.298c-0.151-0.552-0.28-1.127-0.363-1.74
		c-0.034-0.109-0.298-0.48-0.454-0.702c-0.49-0.689-0.996-1.405-0.787-2.203l0.123-0.466l0.475-0.238
		c0.197-0.087,0.384-0.103,0.558-0.088c0.07-0.83,0.167-1.568,0.228-1.999c-0.426-0.618-1.7-2.261-4.025-3.58
		c-0.214-0.123-0.378-0.301-0.566-0.58l-0.557,0.007l-0.205-0.089c-1.072-0.459-2.068-0.692-2.951-0.692
		c-0.307,0-0.56,0.028-0.762,0.065c0.205,0.993,0.523,2.048,0.995,3.31C53.882,43.863,53.917,44.6,53.536,45.15z"/>
	<path fill="#FDF7E7" d="M76.083,46.151l-0.489-1.611c-0.001-0.003-0.048-0.154-0.154-0.429c-0.004-0.013-0.01-0.023-0.014-0.035
		c-0.18-0.463-0.515-1.246-1.062-2.252c-0.222-0.404-0.312-1.062-0.455-2.188c-0.011-0.092-0.024-0.191-0.038-0.299
		c-0.117,0.042-0.25,0.066-0.396,0.066c-0.683,0-1.097-0.556-1.252-0.765c-0.716-0.957-1.824-1.808-2.455-2.248
		c-0.615,0.378-1.803,1.193-3.344,2.671c-2.113,2.021-2.836,4.754-2.913,5.062c-0.024,0.163-0.267,1.746-0.327,3.229
		c-0.012,0.258-0.097,0.485-0.232,0.674c-0.068,0.094-0.145,0.182-0.24,0.251c0.116,0.168,0.223,0.339,0.318,0.513
		c0.145,0.261,0.257,0.525,0.295,0.803c0.16,1.181,0.473,2.205,0.914,3.071c1.111,0.369,2.254,0.643,3.423,0.782h0.001
		c0.14,0,0.496-0.174,0.732-0.29c0.475-0.232,1.014-0.497,1.621-0.499c0.657,0,1.191,0.272,1.619,0.49
		c0.237,0.121,0.506,0.258,0.643,0.258c1.143-0.158,2.24-0.443,3.308-0.809c0.304-0.382,0.522-0.828,0.667-1.322
		c0.307-1.049,0.296-2.286,0.146-3.441C76.32,47.236,76.208,46.664,76.083,46.151z"/>
	<path fill="#FDF7E7" d="M36.419,43.127c0.083,0.546-0.292,1.057-0.839,1.14c-0.051,0.008-0.102,0.012-0.151,0.012
		c-0.486,0-0.912-0.354-0.987-0.85l-0.4-2.634c-0.383,0.941-0.865,1.956-1.477,2.985c-0.372,0.626-0.712,1.167-1.027,1.645
		c0.63,0.914,1.325,1.861,2.084,2.798c0.908,1.115,2.149,2.029,2.965,2.564c0.255-0.525,0.636-1.376,1.159-2.701
		c0.891-2.255,1.012-4.963,1.023-6.055c-0.9-0.588-1.885-1.361-2.875-2.357L36.419,43.127z"/>
	<path fill="#FDF7E7" d="M25.688,32.367c-0.355,1.185-1.045,2.83-2.36,4.725c0.539,1.577,1.255,3.436,2.049,4.852
		c1.133,2.018,2.318,3.527,3.034,4.361c0.502-0.586,1.319-1.666,2.435-3.545c1.543-2.598,2.208-5.149,2.45-6.311
		c-1.086-1.657-1.687-3.098-2.009-4.155c-0.792,0.638-1.426,1.064-1.866,1.335l-0.001,6.613c0,0.553-0.448,1-1,1
		c-0.553,0-1-0.448-1-1l0.001-6.522C27.024,33.451,26.366,32.976,25.688,32.367z"/>
	<path fill="#FDF7E7" d="M30.303,47.151c-0.333,0.421-0.606,0.726-0.82,0.943l0.051,3.677c0.007,0.552-0.434,1.006-0.986,1.014
		c-0.005,0-0.01,0-0.015,0c-0.546,0-0.992-0.438-1-0.986l-0.049-3.53c-0.189-0.199-0.518-0.564-0.938-1.074
		c-0.533,0.763-1.108,1.541-1.728,2.317c-0.267,0.334-0.556,0.646-0.852,0.943c0.568,1.521,1.152,2.996,1.613,3.951
		c0.879,1.821,2.204,3.324,2.948,4.089c0.604-0.494,1.592-1.477,2.467-3.153c0.859-1.649,1.466-3.401,1.893-4.965
		c-0.284-0.28-0.561-0.579-0.817-0.895C31.437,48.702,30.849,47.918,30.303,47.151z"/>
	<path fill="#FDF7E7" d="M23.632,42.921c-0.421-0.751-0.816-1.604-1.179-2.471l-0.712,2.507c-0.125,0.439-0.526,0.728-0.961,0.728
		c-0.091,0-0.183-0.013-0.274-0.038c-0.531-0.151-0.839-0.704-0.688-1.235l0.54-1.899c-0.797,0.723-1.575,1.301-2.294,1.761
		c0.031,1.181,0.203,3.756,1.067,5.892c0.534,1.319,0.922,2.165,1.185,2.693c0.811-0.543,2.043-1.468,2.941-2.593
		c0.733-0.919,1.406-1.85,2.017-2.748C24.749,44.771,24.188,43.912,23.632,42.921z"/>
	<path fill="#FDF7E7" d="M32.974,30.812c0.195,0.998,0.89,3.411,3.325,6.343c2.344,2.82,4.873,4.036,6.078,4.489
		c0.539-1.134,1.505-3.578,1.574-6.646c0.041-1.81-0.155-3.22-0.308-4.026c-0.357-0.062-0.719-0.138-1.091-0.246
		c-0.037,0.193-0.116,0.371-0.266,0.532l-0.296,0.319l-0.677,0.01l-0.216-0.099c-0.436-0.212-0.697-0.642-1.161-1.448
		c-0.117-0.203-0.284-0.494-0.381-0.634c-0.52-0.302-0.978-0.617-1.408-0.935l2.791,6.107c0.229,0.502,0.008,1.095-0.494,1.324
		c-0.135,0.062-0.276,0.091-0.415,0.091c-0.38,0-0.743-0.217-0.911-0.585l-3.637-7.964c-0.539,1.045-1.312,2.225-2.396,3.262
		C33.046,30.746,33.012,30.775,32.974,30.812z"/>
	<path fill="#FDF7E7" d="M20.733,37.219c1.779-2.18,2.613-4.07,3.003-5.314l-0.093-0.003c-1.046-0.069-1.184-1.157-1.412-2.959
		c-0.066-0.524-0.167-1.317-0.245-1.521c-0.092-0.168-0.17-0.321-0.251-0.479l-4.228,8.898c-0.171,0.36-0.53,0.571-0.904,0.571
		c-0.144,0-0.29-0.031-0.428-0.097c-0.499-0.237-0.711-0.834-0.474-1.332l3.192-6.719c-0.448,0.323-0.922,0.64-1.453,0.926
		c-0.065,0.109-0.141,0.261-0.226,0.424c-0.493,0.94-1.051,2.007-2.045,2.007h-0.44l-0.38-0.358
		c-0.208-0.228-0.294-0.491-0.324-0.771c-0.206,0.055-0.397,0.094-0.592,0.137c-0.138,0.615-0.44,2.242-0.37,4.502
		c0.097,3.083,1.08,5.507,1.628,6.63C15.889,41.297,18.411,40.062,20.733,37.219z"/>
	<path fill="#FDF7E7" d="M27.399,13.396c0.263,0.134,0.534,0.271,0.701,0.271c0.152,0,0.5-0.171,0.752-0.295
		c0.408-0.199,0.878-0.414,1.376-0.474L30.21,8.527c-0.004-1.104-0.899-1.992-2-1.992c-0.003,0-0.006,0-0.009,0
		c-1.104,0.005-1.996,0.903-1.992,2.008l0.018,4.424C26.668,13.046,27.077,13.23,27.399,13.396z"/>
	<path fill="#FDF7E7" d="M10.919,28.972c0.861-0.037,2.115-0.208,3.684-0.744l0.157-0.055l0.627-0.005l0.216,0.213
		c0.234-0.432,0.421-0.71,0.741-0.874c2.182-1.129,3.581-2.837,4.121-3.581c-0.387-1.195-1.228-4.302-0.613-7.019
		c-0.461,0.252-0.92,0.508-1.362,0.803c-0.701,0.468-1.813,0.996-2.991,1.558c-0.349,0.165-0.754,0.357-1.155,0.555
		c0.1,0.091,0.188,0.204,0.256,0.346c0.095,0.197,0.267,0.72-0.195,1.303C12.662,23.667,11.468,26.241,10.919,28.972z"/>
	<path fill="#FDF7E7" d="M22.05,22.209l0.479,1.576c0.001,0.004,0.048,0.154,0.154,0.429c0.005,0.014,0.011,0.024,0.015,0.038
		c0.18,0.463,0.515,1.246,1.062,2.25c0.221,0.405,0.312,1.062,0.455,2.189c0.012,0.091,0.024,0.19,0.038,0.298
		c0.118-0.042,0.25-0.066,0.398-0.066c0.682,0,1.096,0.557,1.252,0.766c0.714,0.957,1.824,1.807,2.454,2.248
		c0.618-0.379,1.804-1.195,3.344-2.671c2.151-2.059,2.86-4.849,2.915-5.074c0.032-0.207,0.266-1.761,0.326-3.218
		c0.012-0.259,0.097-0.486,0.233-0.675c0.068-0.094,0.145-0.181,0.24-0.25c-0.116-0.169-0.223-0.341-0.319-0.515
		c-0.143-0.26-0.256-0.526-0.294-0.801c-0.161-1.181-0.473-2.206-0.914-3.071c-1.11-0.369-2.254-0.643-3.423-0.782l0,0
		c-0.141,0-0.497,0.175-0.733,0.29c-0.476,0.232-1.015,0.496-1.624,0.498c-0.655,0-1.188-0.271-1.617-0.489
		c-0.237-0.121-0.505-0.259-0.642-0.259c-1.143,0.158-2.242,0.443-3.31,0.81c-0.304,0.381-0.522,0.828-0.666,1.323
		c-0.306,1.049-0.296,2.283-0.147,3.438C21.805,21.103,21.921,21.688,22.05,22.209z"/>
	<path fill="#FDF7E7" d="M37.238,19.166c0.489,0.69,0.994,1.405,0.786,2.202l-0.122,0.466l-0.475,0.238
		c-0.197,0.088-0.384,0.107-0.558,0.088c-0.07,0.829-0.167,1.568-0.228,1.999c0.426,0.618,1.7,2.261,4.025,3.58
		c0.214,0.123,0.378,0.301,0.565,0.58l0.558-0.006l0.204,0.088c1.073,0.459,2.07,0.694,2.952,0.693c0.306,0,0.559-0.028,0.76-0.066
		c-0.207-0.993-0.529-2.065-0.994-3.31c-0.469-1.257-0.505-1.992-0.123-2.542c0.002-0.004,0.004-0.006,0.006-0.009
		c-0.706-0.672-1.767-1.541-2.324-1.999c-0.605-0.497-1.084-0.889-1.339-1.147c-1.323-1.34-2.854-2.445-4.512-3.299
		c0.152,0.552,0.28,1.127,0.364,1.739C36.818,18.572,37.081,18.943,37.238,19.166z"/>
</g>
</svg>
