<?xml version="1.0" encoding="utf-8"?>
<!-- Generator: Adobe Illustrator 16.0.0, SVG Export Plug-In . SVG Version: 6.00 Build 0)  -->
<!DOCTYPE svg PUBLIC "-//W3C//DTD SVG 1.1//EN" "http://www.w3.org/Graphics/SVG/1.1/DTD/svg11.dtd">
<svg version="1.1" id="Layer_1" xmlns="http://www.w3.org/2000/svg" xmlns:xlink="http://www.w3.org/1999/xlink" x="0px" y="0px"
	 width="98.125px" height="91.85px" viewBox="0 0 98.125 91.85" enable-background="new 0 0 98.125 91.85" xml:space="preserve">
<g>
	<path fill="#FDF7E7" d="M0,0v47.443l49.062,44.405l49.062-44.405V0H0z M96.125,46.557L49.062,89.151L2,46.557V2h94.125V46.557z"/>
	<polygon fill="#FDF7E7" points="41.354,40.02 40.628,40.732 41.53,44.582 43.742,42.414 41.355,40.021 	"/>
	<polygon fill="#FDF7E7" points="58.456,40.021 56.07,42.414 58.281,44.582 59.184,40.732 58.457,40.02 	"/>
	<polygon fill="#FDF7E7" points="54.094,35.263 50.863,37.837 50.932,37.892 55.342,41.516 57.544,39.309 	"/>
	<polygon fill="#FDF7E7" points="37.224,44.07 38.126,47.921 40.571,45.523 39.668,41.673 	"/>
	<polygon fill="#FDF7E7" points="25.265,55.802 26.535,57.07 26.056,55.025 	"/>
	<path fill="#FDF7E7" d="M27.032,59.191l-2.982-2.982c-0.001-0.002-0.002-0.004-0.003-0.005l-2.366,2.322l3.156,3.218l2.287-2.242
		c-0.015-0.032-0.034-0.063-0.042-0.101L27.032,59.191z"/>
	<polygon fill="#FDF7E7" points="33.821,47.408 34.723,51.259 37.167,48.861 36.266,45.011 	"/>
	<polygon fill="#FDF7E7" points="30.418,50.746 31.32,54.596 33.764,52.199 32.863,48.349 	"/>
	<polygon fill="#FDF7E7" points="27.015,54.086 27.917,57.934 30.361,55.537 29.459,51.688 	"/>
	<polygon fill="#FDF7E7" points="70.352,51.688 69.45,55.537 71.895,57.934 72.795,54.086 	"/>
	<path fill="#FDF7E7" d="M46.451,34.321l0.032,0.026l-0.538,0.646l-3.679,4.314l2.203,2.206l4.411-3.624l1.026-0.817l0.035,0.029
		l3.416-2.723l-0.028-0.033l5.692-4.536l18.092-17.737c1.338-1.312,1.359-3.469,0.048-4.807c-0.656-0.667-1.522-1.005-2.392-1.014
		c-0.873-0.01-1.744,0.313-2.414,0.97L54.268,24.966l-4.361,5.257l-0.025-0.03l-3.308,3.987L46.451,34.321z"/>
	<polygon fill="#FDF7E7" points="59.24,45.523 61.684,47.92 62.586,44.07 60.143,41.673 	"/>
	<path fill="#FDF7E7" d="M40.791,29.812l4.762,3.794l0.141-0.165l3.441-4.147l-3.59-4.327L27.454,7.224
		c-0.669-0.655-1.542-0.979-2.413-0.97c-0.869,0.009-1.734,0.347-2.392,1.014c-1.311,1.338-1.29,3.493,0.049,4.807L40.791,29.812z"
		/>
	<polygon fill="#FDF7E7" points="73.275,57.07 74.545,55.802 73.755,55.025 	"/>
	<polygon fill="#FDF7E7" points="62.643,48.861 65.087,51.258 65.989,47.408 63.545,45.011 	"/>
	<polygon fill="#FDF7E7" points="66.047,52.199 68.491,54.596 69.393,50.746 66.948,48.35 	"/>
	<path fill="#FDF7E7" d="M75.761,56.209l-2.981,2.983l-0.049,0.209c-0.008,0.036-0.027,0.067-0.043,0.101l2.287,2.242l3.157-3.218
		l-2.366-2.321C75.762,56.205,75.762,56.207,75.761,56.209z"/>
</g>
<g>
	<path fill="#FDF7E7" d="M26.94,32.339c-0.1-0.302-0.384-0.51-0.704-0.51h-2.897l-0.958-2.758c-0.104-0.297-0.386-0.498-0.7-0.498
		c-0.002,0-0.003,0-0.006,0c-0.317,0.002-0.597,0.207-0.697,0.508L20.05,31.88h-2.926c-0.323,0-0.609,0.211-0.706,0.519
		c-0.097,0.309,0.017,0.645,0.282,0.83l2.367,1.658l-0.868,2.791c-0.095,0.305,0.015,0.635,0.273,0.821
		c0.258,0.185,0.606,0.188,0.865,0l2.392-1.717l2.342,1.714c0.13,0.095,0.283,0.143,0.437,0.143c0.152,0,0.306-0.048,0.436-0.142
		c0.261-0.188,0.368-0.524,0.267-0.83L24.3,34.903l2.374-1.736C26.932,32.978,27.04,32.644,26.94,32.339z"/>
	<path fill="#FDF7E7" d="M81.842,32.339c-0.1-0.302-0.384-0.51-0.703-0.51H78.24l-0.958-2.758c-0.104-0.297-0.386-0.498-0.7-0.498
		c-0.002,0-0.003,0-0.006,0c-0.317,0.002-0.598,0.207-0.697,0.508L74.95,31.88h-2.927c-0.322,0-0.608,0.211-0.705,0.519
		c-0.098,0.309,0.017,0.645,0.281,0.83l2.367,1.658L73.1,37.677c-0.096,0.305,0.015,0.635,0.272,0.821
		c0.258,0.185,0.606,0.188,0.864,0l2.393-1.717l2.342,1.714c0.131,0.095,0.283,0.143,0.438,0.143c0.152,0,0.306-0.048,0.436-0.142
		c0.262-0.188,0.368-0.524,0.268-0.83L79.2,34.903l2.374-1.736C81.833,32.978,81.941,32.644,81.842,32.339z"/>
	<path fill="#FDF7E7" d="M55.175,59.077c-0.1-0.302-0.384-0.51-0.704-0.51h-2.896l-0.958-2.758c-0.104-0.297-0.386-0.498-0.7-0.498
		c-0.002,0-0.003,0-0.006,0c-0.317,0.002-0.597,0.207-0.697,0.508l-0.929,2.799h-2.926c-0.323,0-0.609,0.211-0.706,0.519
		c-0.097,0.309,0.017,0.645,0.282,0.829l2.367,1.658l-0.868,2.791c-0.095,0.306,0.015,0.635,0.273,0.822
		c0.258,0.184,0.606,0.188,0.865,0l2.392-1.717l2.342,1.714c0.131,0.095,0.283,0.142,0.438,0.142c0.152,0,0.306-0.047,0.436-0.141
		c0.262-0.189,0.368-0.525,0.268-0.83l-0.911-2.764l2.374-1.736C55.167,59.716,55.273,59.382,55.175,59.077z"/>
</g>
</svg>
