<?xml version="1.0" encoding="utf-8"?>
<!-- Generator: Adobe Illustrator 16.0.0, SVG Export Plug-In . SVG Version: 6.00 Build 0)  -->
<!DOCTYPE svg PUBLIC "-//W3C//DTD SVG 1.1//EN" "http://www.w3.org/Graphics/SVG/1.1/DTD/svg11.dtd">
<svg version="1.1" id="Layer_1" xmlns="http://www.w3.org/2000/svg" xmlns:xlink="http://www.w3.org/1999/xlink" x="0px" y="0px"
	 width="98.139px" height="91.85px" viewBox="0 0 98.139 91.85" enable-background="new 0 0 98.139 91.85" xml:space="preserve">
<g id="Layer_1_1_">
	<path fill="#FDF7E7" d="M0,0v47.442L49.062,91.85l49.062-44.406V0H0z M96.125,46.557L49.062,89.152L2,46.557V2h94.125V46.557z
		 M22.637,25.438l1.414,3.585l3.586,1.415l-3.586,1.416l-1.414,3.584l-1.414-3.584l-3.586-1.416l3.586-1.415L22.637,25.438z
		 M77.937,15.192l2.037,5.168l5.168,2.037l-5.168,2.038l-2.037,5.168l-2.039-5.168l-5.166-2.038l5.166-2.037L77.937,15.192z
		 M11.834,10.323l0.848,2.153l2.152,0.847l-2.152,0.851l-0.848,2.149l-0.85-2.149l-2.15-0.851l2.15-0.847L11.834,10.323z
		 M47.941,72.855L47.941,72.855c-0.576,0-1.154-0.021-1.732-0.06l-0.122-0.009c-1.171-0.086-2.351-0.251-3.506-0.491
		c-6.009-1.253-11.046-4.34-13.823-8.47c-3.312-4.929-4.618-9.727-3.88-14.262c0.087-0.529,0.2-1.06,0.337-1.574l0.245-0.83
		c0.123-0.388,0.265-0.767,0.411-1.144c0.09-0.223,0.18-0.435,0.271-0.645c0.947-2.17,2.354-4.355,4.428-6.876
		c0.354-0.427,0.708-0.85,1.072-1.271c0.16-0.186,0.322-0.367,0.484-0.549l2.441-2.712c0.888-0.975,1.771-1.943,2.625-2.917
		c0.311-0.353,0.612-0.705,0.914-1.059l0.922-1.104c0.739-0.917,1.484-1.689,2.204-2.438c1.625-1.687,2.909-3.02,3.325-5.138
		c0.073-0.381,0.405-0.83,1.096-0.83c0.117,0,13.476,2.053,14.291,3.046l0.302,0.365L60.16,24.37
		c-0.41,2.093,0.386,3.935,1.307,6.065c0.466,1.077,0.947,2.191,1.336,3.455l0.3,0.958c0.064,0.2,0.134,0.4,0.202,0.602l0.219,0.646
		c0.411,1.202,0.852,2.411,1.291,3.626c0.242,0.668,0.485,1.337,0.725,2.007l0.47,1.34c0.116,0.328,0.236,0.679,0.35,1.023
		l0.097,0.297c0.133,0.403,0.258,0.8,0.381,1.201c0.956,3.112,1.428,5.675,1.482,8.062c0.005,0.154,0.009,0.312,0.01,0.468
		l0.037,0.101l-0.037,0.23c-0.007,0.343-0.022,0.687-0.049,1.027l0.018,0.077l-0.101,0.854c-0.064,0.524-0.158,1.053-0.287,1.615
		c-1.021,4.489-4.021,8.437-8.915,11.729C55.972,71.781,52.15,72.855,47.941,72.855z M27.312,47.933l-0.164,0.572
		c-0.121,0.452-0.22,0.917-0.296,1.383c-0.653,4.017,0.546,8.331,3.565,12.823c2.486,3.7,7.068,6.479,12.57,7.627
		c1.069,0.223,2.161,0.375,3.244,0.455c0.054,0.002,0.11,0.006,0.168,0.013c0.478,0.031,1.011,0.05,1.541,0.05
		c3.812,0,7.246-0.955,9.937-2.763c4.458-2.998,7.177-6.534,8.08-10.512c0.113-0.498,0.196-0.96,0.253-1.412l0.056-0.537
		l-0.021-0.094l0.033-0.149c0.026-0.337,0.043-0.677,0.049-1.015v-0.125c-0.001-0.182-0.004-0.363-0.011-0.545
		c-0.051-2.204-0.493-4.596-1.396-7.527c-0.119-0.389-0.24-0.773-0.367-1.16l-0.095-0.291c-0.112-0.341-0.228-0.677-0.344-1.008
		l-0.463-1.32c-0.236-0.664-0.479-1.329-0.72-1.993c-0.445-1.227-0.888-2.446-1.303-3.656L61.413,36.1
		c-0.068-0.201-0.139-0.402-0.204-0.604l-0.069-0.105l-0.062-0.311l-0.188-0.605c-0.354-1.154-0.813-2.217-1.259-3.245
		c-0.9-2.084-1.756-4.063-1.555-6.386c-2.255-0.586-9.409-1.984-11.768-2.299c-0.672,2.216-2.116,3.714-3.636,5.291
		c-0.69,0.716-1.403,1.456-2.088,2.305l-1.001,1.199c-0.294,0.344-0.59,0.688-0.892,1.029c-0.86,0.979-1.753,1.96-2.646,2.941
		l-2.428,2.695c-0.155,0.175-0.312,0.349-0.464,0.524c-0.354,0.411-0.7,0.824-1.044,1.238c-1.95,2.371-3.267,4.407-4.138,6.405
		c-0.085,0.192-0.167,0.385-0.245,0.579c-0.129,0.331-0.257,0.672-0.367,1.02L27.312,47.933z M57.591,20.988L57.591,20.988
		c-0.415,0-0.861-0.047-1.327-0.138c0,0-8.058-1.58-9.266-1.814c-1.547-0.305-2.871-2.24-3.121-2.626
		c-0.343-0.529-0.964-1.409-1.354-1.924c-0.539-0.705-1.221-2.407,0.058-3.806c0.476-0.52,1.076-0.793,1.735-0.793
		c0.933,0,1.784,0.545,2.47,0.982c0.189,0.12,0.447,0.285,0.637,0.384c0.146-0.225,0.341-0.598,0.48-0.866
		c0.746-1.433,1.842-3.48,3.98-3.056c2.49,0.488,6.562,5.42,7.353,6.402l0.016,0.016c0.557-0.427,1.756-1.2,3.121-1.2
		c0.835,0,1.582,0.282,2.221,0.839c0.733,0.639,0.845,1.352,0.81,1.837c-0.119,1.649-2.068,3.036-3.888,4.205l-0.483,0.318
		C60.166,20.329,59.188,20.988,57.591,20.988z M44.315,11.888c-0.055,0-0.129,0-0.261,0.144c-0.479,0.525,0.035,1.214,0.058,1.241
		c0.425,0.558,1.071,1.477,1.442,2.049c0.438,0.67,1.315,1.65,1.827,1.751c1.207,0.235,9.267,1.815,9.267,1.815
		c0.339,0.066,0.656,0.101,0.942,0.101c0.986,0,1.576-0.396,2.322-0.897l0.119-0.081c0.104-0.07,0.24-0.158,0.398-0.26
		c2.411-1.553,2.949-2.309,2.977-2.668c0.001-0.018,0.005-0.067-0.131-0.186c-0.271-0.235-0.559-0.347-0.905-0.347
		c-0.855,0-1.81,0.687-2.075,0.927c-0.339,0.307-0.705,0.461-1.087,0.461c-0.671,0-1.09-0.46-1.396-0.796l-0.093-0.101
		c-1.823-2.263-4.915-5.489-6.224-5.746c-0.711-0.147-1.344,1.099-1.822,2.018c-0.479,0.917-0.892,1.709-1.646,1.946
		c-0.146,0.046-0.304,0.07-0.464,0.07c-0.648,0-1.236-0.376-1.859-0.774C45.242,12.258,44.663,11.888,44.315,11.888z M47.061,41.424
		c-0.63-0.841-1.354-1.639-2.165-2.375c1.166-1.613,2.781-2.973,4.769-3.957c1.519,1.619,2.561,3.453,3.09,5.373
		c-1.021,0.408-1.978,0.899-2.864,1.469c-0.185-0.19-0.364-0.386-0.562-0.569l-0.679-0.638l-0.858,0.359
		C47.538,41.193,47.3,41.309,47.061,41.424z M41.039,38.847c-1.604,1.418-2.729,3.128-3.327,4.995
		c1.252,0.711,2.393,1.538,3.399,2.452c1.011-1.438,2.337-2.693,3.916-3.73C43.99,41.152,42.646,39.889,41.039,38.847z
		 M45.015,51.694c0.367-0.109,0.734-0.212,1.111-0.301l0.621-0.144l0.53,0.353c0.322,0.215,0.635,0.439,0.938,0.67
		c0.945-0.984,2.031-1.853,3.248-2.57c-0.419-2.258-1.534-4.428-3.299-6.306c-2.308,1.144-4.115,2.784-5.295,4.752
		C43.763,49.246,44.472,50.438,45.015,51.694z M57.802,47.47c0.088-1.96-0.365-3.954-1.368-5.845
		c-1.872,0.415-3.573,1.129-5.036,2.088c1.117,1.523,1.916,3.168,2.36,4.867C55.022,48.072,56.378,47.701,57.802,47.47z
		 M50.032,53.852c0.991,0.982,1.848,2.062,2.538,3.215c2.154-0.72,4.455-1.039,6.806-0.974c0.477-2.146,0.272-4.405-0.639-6.587
		C55.214,50.008,52.154,51.545,50.032,53.852z M42.761,52.537c-1.184-2.9-3.511-5.411-6.637-7.114
		c-1.615,1.723-2.603,3.771-2.906,5.948c2.225,0.76,4.271,1.86,6.039,3.291C40.307,53.822,41.486,53.113,42.761,52.537z
		 M42.667,66.703l2.498,0.45c7.342,0.81,14.012-2.942,15.727-8.849c-2.891-0.312-5.733,0.073-8.293,1.128l-1.229,0.506l-0.55-1.117
		c-0.989-2.004-2.539-3.8-4.497-5.219c-2.333,0.645-4.412,1.783-6.041,3.316l-0.904,0.851l-0.974-0.898
		c-2.03-1.886-4.561-3.236-7.377-3.957C30.569,59.046,35.508,64.893,42.667,66.703z"/>
</g>
<g id="Layer_2">
</g>
</svg>
