<?xml version="1.0" encoding="utf-8"?>
<!-- Generator: Adobe Illustrator 21.1.0, SVG Export Plug-In . SVG Version: 6.00 Build 0)  -->
<svg version="1.1" xmlns="http://www.w3.org/2000/svg" xmlns:xlink="http://www.w3.org/1999/xlink" x="0px" y="0px"
	 width="125.738px" height="116.301px" viewBox="0 0 125.738 116.301" enable-background="new 0 0 125.738 116.301"
	 xml:space="preserve">
<g id="Layer_1">
	<g>
		<polygon fill="#F78F35" points="1.524,58.768 1.524,1.484 124.262,1.484 124.228,58.487 62.396,114.26 		"/>
		<path fill="#FFCD03" d="M122.761,2.984l-0.033,54.836l-60.327,54.415L3.024,58.105V2.984H122.761 M125.763-0.016H0.024V59.43
			l62.366,56.854l63.337-57.13L125.763-0.016L125.763-0.016z"/>
	</g>
</g>
<g id="Layer_2">
	<path display="none" fill="#FFFBF4" stroke="#20AA4D" stroke-width="1.25" stroke-miterlimit="10" d="M65.952,34.274
		c0,5.81-4.71-0.766-10.521-0.766s-10.521,6.576-10.521,0.766s4.71-10.521,10.521-10.521S65.952,28.463,65.952,34.274z"/>
	<path fill="#FFCD03" d="M55.04,22.637l-1.726-1.388c-4.626,1.539-8.723,4.232-11.943,7.747l0.396,1.479L40.4,30.108
		c-3.854,4.671-6.231,10.601-6.442,17.078l1.619,0.935l-1.619,0.935c0.206,6.33,2.486,12.133,6.187,16.754l1.622-0.435l-0.478,1.785
		c3.404,3.746,7.799,6.572,12.77,8.073l1.688-1.235l0.188,1.728c2.034,0.464,4.148,0.717,6.322,0.717v-17.95
		c-5.728,0-10.371-4.643-10.371-10.371c0-5.728,4.643-10.371,10.371-10.371V19.8c-2.384,0-4.697,0.298-6.909,0.853L55.04,22.637z"/>
	<g>
		<path fill="#F78F35" d="M37.411,48.071c2.008-0.145,4.016-0.261,6.023-0.35c1.004-0.043,2.008-0.173,3.012-0.1
			c1.004,0.067,2.008,0.175,3.012,0.45c0.028,0.008,0.044,0.036,0.036,0.064c-0.005,0.018-0.019,0.032-0.036,0.036
			c-1.004,0.275-2.008,0.383-3.012,0.45c-1.004,0.073-2.008-0.057-3.012-0.1c-2.008-0.089-4.016-0.205-6.023-0.35
			c-0.028-0.002-0.048-0.026-0.046-0.054C37.367,48.092,37.387,48.073,37.411,48.071z"/>
	</g>
	<g>
		<path fill="#F78F35" d="M43.083,64.131c1.318-1.522,2.655-3.024,4.012-4.507c0.679-0.741,1.297-1.542,2.059-2.2
			c0.757-0.663,1.543-1.296,2.448-1.811c0.025-0.014,0.057-0.005,0.071,0.019c0.009,0.016,0.009,0.036,0,0.051
			c-0.515,0.905-1.149,1.691-1.811,2.448c-0.658,0.762-1.46,1.38-2.2,2.059c-1.483,1.357-2.985,2.694-4.507,4.012
			c-0.021,0.018-0.053,0.016-0.071-0.005C43.066,64.177,43.067,64.149,43.083,64.131z"/>
	</g>
	<g>
		<path fill="#F78F35" d="M53.049,61.466c-0.335,0.791-0.694,1.567-1.076,2.327c-0.192,0.38-0.311,0.806-0.601,1.123
			c-0.285,0.32-0.604,0.619-1.064,0.826c-0.03,0.014-0.065,0-0.079-0.03c-0.004-0.008-0.005-0.016-0.005-0.024
			c-0.003-0.505,0.134-0.92,0.306-1.312c0.167-0.396,0.504-0.682,0.769-1.015c0.532-0.665,1.087-1.315,1.665-1.95
			c0.019-0.021,0.051-0.022,0.072-0.003C53.053,61.424,53.057,61.447,53.049,61.466z"/>
	</g>
	<g>
		<path fill="#F78F35" d="M53.289,33.193c-0.609-0.605-1.196-1.227-1.76-1.864c-0.281-0.319-0.633-0.589-0.819-0.976
			c-0.191-0.383-0.35-0.791-0.371-1.295c-0.001-0.033,0.024-0.061,0.057-0.062c0.008,0,0.017,0.001,0.024,0.004
			c0.47,0.185,0.804,0.467,1.104,0.772c0.306,0.302,0.446,0.722,0.656,1.092c0.419,0.741,0.816,1.498,1.19,2.271
			c0.012,0.025,0.002,0.056-0.024,0.068C53.327,33.212,53.304,33.208,53.289,33.193z"/>
	</g>
	<g>
		<path fill="#F78F35" d="M47.519,52.702c-0.736,0.443-1.482,0.859-2.239,1.25c-0.379,0.194-0.726,0.469-1.147,0.555
			c-0.419,0.092-0.852,0.145-1.347,0.043c-0.032-0.007-0.053-0.038-0.046-0.071c0.002-0.008,0.005-0.016,0.01-0.023
			c0.294-0.41,0.649-0.665,1.019-0.881c0.368-0.222,0.809-0.255,1.219-0.369c0.821-0.225,1.652-0.424,2.493-0.598
			c0.027-0.006,0.054,0.012,0.06,0.039C47.547,52.67,47.537,52.691,47.519,52.702z"/>
	</g>
	<g>
		<path fill="#F78F35" d="M47.69,43.65c-0.833-0.208-1.656-0.441-2.467-0.699c-0.405-0.13-0.845-0.181-1.203-0.418
			c-0.361-0.231-0.705-0.5-0.982-0.922c-0.018-0.028-0.01-0.065,0.017-0.083c0.007-0.005,0.015-0.008,0.023-0.009
			c0.498-0.082,0.929-0.011,1.344,0.098c0.417,0.103,0.753,0.392,1.123,0.602c0.74,0.421,1.468,0.868,2.186,1.34
			c0.023,0.015,0.03,0.047,0.014,0.07C47.732,43.647,47.71,43.655,47.69,43.65z"/>
	</g>
	<g>
		<path fill="#F78F35" d="M43.154,31.278c1.522,1.318,3.024,2.655,4.507,4.012c0.741,0.679,1.542,1.297,2.2,2.059
			c0.663,0.757,1.296,1.543,1.811,2.448c0.014,0.025,0.005,0.057-0.019,0.071c-0.016,0.009-0.036,0.009-0.051,0
			c-0.905-0.515-1.691-1.149-2.448-1.811c-0.762-0.658-1.38-1.46-2.059-2.2c-1.357-1.483-2.694-2.985-4.012-4.507
			c-0.018-0.021-0.016-0.053,0.005-0.071C43.107,31.262,43.135,31.262,43.154,31.278z"/>
	</g>
	<g>
		<path fill="#F78F35" d="M55.526,23.625c0.741,1.872,1.456,3.752,2.143,5.64c0.343,0.944,0.769,1.863,1,2.842
			c0.238,0.978,0.437,1.968,0.476,3.008c0.001,0.029-0.021,0.053-0.05,0.054c-0.019,0.001-0.036-0.009-0.046-0.024
			c-0.564-0.875-0.969-1.8-1.334-2.737c-0.372-0.935-0.549-1.932-0.809-2.903c-0.519-1.942-1.01-3.892-1.476-5.85
			c-0.006-0.027,0.01-0.054,0.037-0.06C55.493,23.588,55.517,23.602,55.526,23.625z"/>
	</g>
	<g>
		<path fill="#F78F35" d="M55.825,71.761c0.207-2.002,0.442-4,0.703-5.992c0.132-0.996,0.179-2.007,0.426-2.983
			c0.241-0.977,0.521-1.947,0.967-2.887c0.012-0.026,0.043-0.037,0.069-0.025c0.017,0.008,0.028,0.024,0.029,0.042
			c0.096,1.036,0.028,2.044-0.081,3.044c-0.102,1.001-0.405,1.967-0.623,2.948c-0.437,1.962-0.901,3.919-1.393,5.871
			c-0.007,0.027-0.034,0.043-0.061,0.036C55.838,71.809,55.823,71.786,55.825,71.761z"/>
	</g>
	<line fill="none" stroke="#F78F35" stroke-miterlimit="10" x1="62.256" y1="17.968" x2="62.256" y2="77.373"/>
	<path fill="none" stroke="#FFCD03" stroke-width="5" stroke-miterlimit="10" d="M63.647,73.749
		c14.154,0,25.628-11.474,25.628-25.628S77.802,22.493,63.647,22.493"/>
	<path fill="none" stroke="#FFCD03" stroke-miterlimit="10" d="M63.647,69.251c11.67,0,21.13-9.46,21.13-21.13
		s-9.46-21.13-21.13-21.13"/>
	<path fill="#FFCD03" d="M67.719,66.416c0.676-0.104,1.038-1.621,0.807-3.39c-0.231-1.768-0.966-3.117-1.642-3.013
		s-1.038,1.621-0.807,3.39C66.307,65.17,67.043,66.519,67.719,66.416z"/>
	<path fill="#FFCD03" d="M71.618,65.827c0.652-0.223,0.779-1.784,0.285-3.487c-0.494-1.703-1.424-2.904-2.075-2.681
		c-0.652,0.223-0.779,1.784-0.285,3.487C70.037,64.849,70.967,66.049,71.618,65.827z"/>
	
		<ellipse transform="matrix(0.814 -0.5808 0.5808 0.814 -19.6303 49.9486)" fill="#FFCD03" cx="68.181" cy="55.628" rx="1.237" ry="2.98"/>
	
		<ellipse transform="matrix(0.4574 -0.8893 0.8893 0.4574 -8.1689 91.3594)" fill="#FFCD03" cx="70.775" cy="52.373" rx="1.237" ry="2.98"/>
	<ellipse fill="#FFCD03" cx="71.477" cy="48.121" rx="2.98" ry="1.237"/>
	
		<ellipse transform="matrix(0.9085 -0.4178 0.4178 0.9085 -11.8909 33.4724)" fill="#FFCD03" cx="70.508" cy="43.896" rx="2.98" ry="1.237"/>
	
		<ellipse transform="matrix(0.6501 -0.7598 0.7598 0.6501 -7.0109 66.3119)" fill="#FFCD03" cx="68.497" cy="40.768" rx="2.98" ry="1.237"/>
	<path fill="#FFCD03" d="M78.539,59.715c0.52-0.481,0.076-1.972-0.992-3.331c-1.068-1.359-2.355-2.07-2.875-1.59
		s-0.076,1.972,0.992,3.331C76.732,59.484,78.019,60.196,78.539,59.715z"/>
	<path fill="#FFCD03" d="M76.811,45.808c0.096,0.734,1.494,1.126,3.124,0.876c1.63-0.25,2.873-1.048,2.778-1.782
		c-0.096-0.734-1.494-1.126-3.124-0.876C77.959,44.276,76.716,45.074,76.811,45.808z"/>
	<path fill="#FFCD03" d="M74.338,39.601c0.443,0.564,1.818,0.082,3.07-1.077c1.252-1.159,1.908-2.555,1.465-3.119
		c-0.443-0.564-1.818-0.082-3.07,1.077C74.55,37.64,73.894,39.037,74.338,39.601z"/>
	<path fill="#FFCD03" d="M75.674,63.203c0.556-0.431,0.232-1.958-0.724-3.412c-0.956-1.454-2.182-2.283-2.738-1.852
		c-0.556,0.431-0.232,1.958,0.724,3.412C73.892,62.804,75.117,63.633,75.674,63.203z"/>
	<path fill="#FFCD03" d="M76.201,52.405c-0.312,0.659,0.621,1.856,2.084,2.672c1.464,0.817,2.904,0.944,3.216,0.285
		s-0.621-1.856-2.084-2.672C77.954,51.874,76.514,51.746,76.201,52.405z"/>
	<path fill="#FFCD03" d="M82.928,49.441c-0.029-0.741-1.385-1.28-3.03-1.204c-1.644,0.075-2.954,0.737-2.925,1.478
		c0.029,0.741,1.385,1.28,3.03,1.204S82.957,50.182,82.928,49.441z"/>
	<path fill="#FFCD03" d="M76.092,42.608c0.342,0.642,1.774,0.439,3.2-0.454c1.425-0.893,2.304-2.137,1.962-2.779
		s-1.774-0.439-3.2,0.454C76.629,40.722,75.75,41.966,76.092,42.608z"/>
	<path fill="#FFCD03" d="M71.562,37.076c0.519,0.482,1.807-0.227,2.877-1.584c1.07-1.357,1.517-2.848,0.997-3.329
		s-1.807,0.227-2.877,1.584S71.042,36.595,71.562,37.076z"/>
	<path fill="#FFCD03" d="M69.523,36.769c0.673,0.129,1.45-1.192,1.737-2.951s-0.027-3.289-0.7-3.418
		c-0.673-0.129-1.45,1.192-1.737,2.951C68.537,35.11,68.85,36.64,69.523,36.769z"/>
	<ellipse fill="#FFCD03" cx="66.651" cy="33.054" rx="1.237" ry="3.233"/>
</g>
</svg>
