<?xml version="1.0" encoding="utf-8"?>
<!-- Generator: Adobe Illustrator 21.1.0, SVG Export Plug-In . SVG Version: 6.00 Build 0)  -->
<svg version="1.1" id="Layer_1" xmlns:sketch="http://www.bohemiancoding.com/sketch/ns"
	 xmlns="http://www.w3.org/2000/svg" xmlns:xlink="http://www.w3.org/1999/xlink" x="0px" y="0px" width="113px" height="106px"
	 viewBox="0 0 113 106" style="enable-background:new 0 0 113 106;" xml:space="preserve">
<style type="text/css">
	.st0{fill:#F16680;}
	.st1{fill:#FFDD00;}
	.st2{fill:none;stroke:#F16680;stroke-miterlimit:10;}
</style>
<title>sunlight park</title>
<desc>Created with Sketch.</desc>
<g id="Page-1" sketch:type="MSPage">
</g>
<g>
	<polygon class="st0" points="1.3,52.8 1.3,1.3 111.7,1.3 111.6,52.6 56.1,102.7 1.3,52.8 	"/>
	<path class="st1" d="M113,0H0v53.4l56,51.1L113,53.2L113,0L113,0L113,0z M110.3,2.7l0,49.3l-54.2,48.9L2.7,52.2V2.7H110.3"/>
	<path class="st1" d="M53.4,48.1H39c-0.4,0-0.7,0.3-0.6,0.7c0.5,3.9,2.2,7.5,4.7,10.3c0.2,0.3,0.6,0.3,0.9,0l9.9-9.9
		C54.2,48.8,54,48.1,53.4,48.1L53.4,48.1z"/>
	<path class="st1" d="M55.9,44V28.9c0-0.4-0.3-0.7-0.7-0.7c-4.2,0.3-8,2.1-11,4.7c-0.3,0.3-0.3,0.7,0,1l10.5,10.5
		C55.2,44.9,55.9,44.6,55.9,44L55.9,44z"/>
	<path class="st1" d="M57.3,28.9c0,2.6,0,11.5,0,15.1c0,0.6,0.7,0.9,1.2,0.5l10.6-10.6c0.3-0.3,0.3-0.7,0-1c-2.9-2.7-6.8-4.4-11-4.7
		C57.7,28.2,57.3,28.5,57.3,28.9L57.3,28.9z"/>
	<path class="st1" d="M42.3,35c-2.5,3-4,6.9-4.1,11c0.2,0.2,0.4,0.4,0.6,0.6h14.6c0.5,0,0.8-0.6,0.4-1L43.2,35
		C42.9,34.7,42.5,34.7,42.3,35L42.3,35z"/>
	<path class="st1" d="M70.1,34.9c-1.7,1.7-8.3,8.3-10.8,10.8c-0.3,0.3-0.1,0.9,0.4,0.9h14.8c0.2-0.2,0.3-0.3,0.6-0.6
		c-0.1-4.2-1.6-8.1-4.1-11.1C70.7,34.7,70.3,34.7,70.1,34.9L70.1,34.9z"/>
	<path class="st1" d="M54.9,50.1L45,60c-0.2,0.2-0.2,0.7,0,0.9c2.8,2.3,6.4,3.8,10.2,4c0.3,0,0.6-0.3,0.6-0.6V50.5
		C55.9,50,55.3,49.7,54.9,50.1L54.9,50.1z"/>
	<path class="st1" d="M59.3,49.1l10,10c0.2,0.2,0.6,0.2,0.8,0c2.6-2.8,4.3-6.4,4.8-10.3c0-0.3-0.2-0.6-0.6-0.6H59.7
		C59.2,48.1,59,48.7,59.3,49.1L59.3,49.1z"/>
	<path class="st1" d="M57.3,50.7v13.5c0,0.4,0.3,0.7,0.7,0.7c3.8-0.3,7.3-1.7,10.1-4c0.3-0.2,0.3-0.7,0-1l-9.7-9.7
		C58.1,49.8,57.3,50.1,57.3,50.7L57.3,50.7z"/>
	<path class="st1" d="M56.5,24.1C44.1,24.1,34,34.2,34,46.7c0,12.4,10.1,22.5,22.5,22.5c12.4,0,22.5-10.1,22.5-22.5
		C79.1,34.2,69,24.1,56.5,24.1L56.5,24.1L56.5,24.1z M56.5,26.8c11,0,19.8,8.9,19.8,19.8c0,11-8.9,19.8-19.8,19.8
		c-11,0-19.8-8.9-19.8-19.8C36.7,35.7,45.6,26.8,56.5,26.8"/>
	<path class="st1" d="M57,20.8c-0.1,0.2-0.3,0.4-0.5,0.4c-0.2,0-0.4-0.1-0.5-0.4c-1.7,0.3-3.1,2-3.1,4.1h7.2
		C60.1,22.8,58.8,21.1,57,20.8L57,20.8z"/>
	<path class="st1" d="M46,66.9c0,1.5-1.3,2.8-2.8,2.8s-2.8-1.3-2.8-2.8c0-1.5,2.8-5.6,2.8-5.6S46,65.4,46,66.9L46,66.9z"/>
	<path class="st2" d="M46,66.9c0,1.5-1.3,2.8-2.8,2.8s-2.8-1.3-2.8-2.8c0-1.5,2.8-5.6,2.8-5.6S46,65.4,46,66.9L46,66.9z"/>
</g>
</svg>
