<?xml version="1.0" encoding="utf-8"?>
<!-- Generator: Adobe Illustrator 21.1.0, SVG Export Plug-In . SVG Version: 6.00 Build 0)  -->
<svg version="1.1" id="Layer_1" xmlns:sketch="http://www.bohemiancoding.com/sketch/ns"
	 xmlns="http://www.w3.org/2000/svg" xmlns:xlink="http://www.w3.org/1999/xlink" x="0px" y="0px" width="113px" height="106px"
	 viewBox="0 0 113 106" style="enable-background:new 0 0 113 106;" xml:space="preserve">
<style type="text/css">
	.st0{clip-path:url(#SVGID_2_);fill:#EFECDB;}
	.st1{clip-path:url(#SVGID_2_);fill:#0395A0;}
	.st2{fill:#0395A0;}
</style>
<title>sunlight park</title>
<desc>Created with Sketch.</desc>
<g id="Page-1" sketch:type="MSPage">
</g>
<g>
	<g>
		<defs>
			<rect id="SVGID_1_" y="0" width="113" height="104.5"/>
		</defs>
		<clipPath id="SVGID_2_">
			<use xlink:href="#SVGID_1_"  style="overflow:visible;"/>
		</clipPath>
		<polygon class="st0" points="1.8,52.6 1.8,1.8 111.2,1.8 111.2,52.4 56.1,102.1 1.8,52.6 		"/>
		<path class="st1" d="M113,0H0v53.4l56,51.1L113,53.2L113,0L113,0L113,0z M109.4,3.6l0,48L56.1,99.7L3.6,51.8V3.6H109.4"/>
	</g>
	<path class="st2" d="M55.6,24.6C55.6,24.6,55.6,24.6,55.6,24.6c0.3-0.1,0.5-0.1,0.8-0.1c1.1,0.2,1.6-0.4,1.7-1.3
		c0.1-1.2-1-0.6-1.5-0.7c-0.6-0.1-1.3,0-1.9,0.1c-0.4,0.1-1-0.3-1,0.5c0,0.6,0.2,1.2,0.7,1.5C54.6,24.8,55.1,24.6,55.6,24.6
		L55.6,24.6z M31.3,57.8c-0.7,0-1.4,0-2.5,0c2.6-3.2,6-4.5,9.4-5.8c3.3-0.2,6.6-0.3,9.9-0.5c0-0.2,0-0.3,0-0.5
		c-3.3-0.5-6.5,0.2-9.8,0.3c-0.2-0.7,0.2-1.2,0.6-1.7c3.5-4.2,5.5-9.1,6.3-14.5c0.6-4.7,2.2-6.4,6.9-7.1c1.5-0.2,1.9-1.2,1-2.5
		c-0.4-0.6-0.8-1.2-1-1.8c-0.2-0.9-0.8-1-1.6-1c-2,0-4.1-0.1-6.1,0c-1.5,0-2.4-0.4-2.4-2.1c0.1-2.1,0.6-2.8,2.5-2.8
		c3.9-0.1,7.9-0.1,11.8-0.2c3.5-0.1,7.1-0.1,10.6-0.2c2.2,0,3.5,1.3,3.2,3.2c-0.2,1.1-0.7,1.8-2,1.7c-2.3-0.1-4.6,0-6.9,0
		c-1,0-1.6,0.3-1.6,1.4c0,0.7-0.3,1.2-0.7,1.8c-1,1.7-0.9,2.4,1,2.8c3.9,0.9,5.9,3.3,6.4,7.2c0.5,4.4,2,8.5,3.6,12.6
		c1.3,3.3,3.6,5.8,6.9,7.3c1.3,0.6,2.4,1.4,3.4,2.4c0.4,0.4,1,0.8,0.6,1.4c-0.3,0.4-1,0.1-1.4,0c-3-1.1-6.2-1.8-9.4-2.3
		c-8.9-1.2-17.8-1.4-26.8-0.8c-2.5,0.2-5.1,0.4-7.6,0.5c-1.3,0.5-2.9-0.2-3.9,1.1C31.5,57.8,31.4,57.8,31.3,57.8L31.3,57.8z"/>
	<path class="st2" d="M31.3,57.8c0.1,0,0.2,0,0.3,0c1.3-0.2,2.6-0.4,3.9-0.6c7.7-0.7,15.5-0.6,23.2-0.2c6.6,0.3,13.2,0.4,19.5,2.6
		c0.4,0.1,0.7,0.2,1.1,0.3c0.7,0.2,1.4,0.6,1.3,1.4c0,0.8-0.7,1.1-1.4,1.4c-2.2,0.9-4.6,0.7-6.9,1.1c-2.6,0.5-5.2,0.4-7.8,0.5
		c-1.3,0.1-2.1-0.2-2.4-1.7c-0.2-1.7-1.5-2.3-3-2.7c-0.2,1,0.6,1,0.9,1.3c1.7,1.4,1.9,3.1,0.3,4.7c-0.9,0.9-0.3,1.3,0.3,1.8
		c0.4,0.4,1,0.6,0.5,1.3c-0.2,0.4-0.4,0.9-0.9,0.8c-0.7-0.1-1.1-0.4-1.3-1.2c-0.2-0.9-0.6-1.7-1.6-2.2c-2.1-0.9-2.5-2.2-1.6-4.3
		c0.3-0.6,0.6-1.2,1-2C55.5,60.4,55,61.2,55,62c-0.1,2.1-1.5,2.5-3.1,2.5c-2.5,0-5.1-0.1-7.6-0.4c-3.9-0.3-7.9-0.1-11.7-1.4
		c-1-0.3-2.1-0.6-2.9-1.4c-1.3-1.4-1.2-2.2,0.5-3C30.6,58.2,31.2,58.3,31.3,57.8L31.3,57.8z"/>
</g>
</svg>
