<?xml version="1.0" encoding="utf-8"?>
<!-- Generator: Adobe Illustrator 21.1.0, SVG Export Plug-In . SVG Version: 6.00 Build 0)  -->
<svg version="1.1" id="Layer_1" xmlns:sketch="http://www.bohemiancoding.com/sketch/ns"
	 xmlns="http://www.w3.org/2000/svg" xmlns:xlink="http://www.w3.org/1999/xlink" x="0px" y="0px" width="113px" height="106px"
	 viewBox="0 0 113 106" style="enable-background:new 0 0 113 106;" xml:space="preserve">
<style type="text/css">
	.st0{clip-path:url(#SVGID_2_);fill:#82C55B;}
	.st1{clip-path:url(#SVGID_2_);fill:#FFFBF4;}
	.st2{fill:#FFFBF4;}
	.st3{fill:#82C55B;}
</style>
<title>sunlight park</title>
<desc>Created with Sketch.</desc>
<g id="Page-1" sketch:type="MSPage">
</g>
<g>
	<g>
		<defs>
			<rect id="SVGID_1_" y="0" width="113" height="104.5"/>
		</defs>
		<clipPath id="SVGID_2_">
			<use xlink:href="#SVGID_1_"  style="overflow:visible;"/>
		</clipPath>
		<polygon class="st0" points="1.4,52.8 1.4,1.3 111.7,1.3 111.6,52.6 56.1,102.7 1.4,52.8 		"/>
		<path class="st1" d="M113,0H0v53.4l56,51.1L113,53.2L113,0L113,0L113,0z M110.3,2.7l0,49.3l-54.2,48.9L2.7,52.2V2.7H110.3"/>
	</g>
	<polyline class="st2" points="75.4,37.1 75.4,66.2 43.1,66.2 37.2,60.2 37.2,24.6 43.1,18.7 69.5,18.7 75.4,24.6 75.4,33.2 
		65.8,33.2 65.8,31.3 62.8,28.5 49.7,28.5 47,31.2 47,53.6 49.7,56.2 65.5,56.2 65.5,47.7 57.2,47.7 	"/>
	<path class="st2" d="M44.8,61.3l5.8-5.8c0.5-0.5,1.3-0.5,1.8,0l5.8,5.8"/>
	<polyline class="st3" points="75.8,72.8 69.2,66.2 75.8,59.5 	"/>
	<path class="st2" d="M57.2,61.3l6-6c0.4-0.4,1-0.4,1.4,0l6,6"/>
	<path class="st2" d="M43.9,59.5l6.1-6.1c0.3-0.3,0.9-0.3,1.2,0l6.1,6.1"/>
	<path class="st2" d="M50.9,58.7l5.5-8.3c0.4-0.4,1.1-0.4,1.5,0l4.8,7.9"/>
	<path class="st2" d="M55,59.8l6.3-6.3c0.2-0.2,0.4-0.2,0.6,0l6.3,6.3"/>
	<path class="st2" d="M53.9,47.8c0,1.1-0.9,2-2,2c-1.1,0-2-0.9-2-2c0-1.1,0.9-2,2-2C53,45.8,53.9,46.7,53.9,47.8L53.9,47.8z"/>
</g>
</svg>
