<?xml version="1.0" encoding="utf-8"?>
<!-- Generator: Adobe Illustrator 21.1.0, SVG Export Plug-In . SVG Version: 6.00 Build 0)  -->
<svg version="1.1" id="Layer_1" xmlns:sketch="http://www.bohemiancoding.com/sketch/ns"
	 xmlns="http://www.w3.org/2000/svg" xmlns:xlink="http://www.w3.org/1999/xlink" x="0px" y="0px" width="113px" height="106px"
	 viewBox="0 0 113 106" enable-background="new 0 0 113 106" xml:space="preserve">
<title>sunlight park</title>
<desc>Created with Sketch.</desc>
<g>
	<polygon fill="#6CC04A" points="1.269,53.412 1.269,2.041 111.499,2.041 111.469,53.159 55.937,103.249 	"/>
	<path fill="#FFFBF4" d="M109.998,3.541l-0.029,48.951l-54.027,48.732L2.768,52.75V3.541H109.998 M113,0.541H-0.232v53.533
		l56.163,51.199l57.037-51.447L113,0.541L113,0.541z"/>
</g>
<g>
	<path fill="#FFFBF4" d="M75.307,37.742v29.101H42.936l-5.929-5.93v-35.71l5.929-5.929h26.443l5.929,5.929v8.587h-9.609v-1.84
		l-2.999-2.794H49.546l-2.657,2.657v22.49l2.657,2.59h15.879v-8.519h-8.314"/>
</g>
<path fill="#FFFBF4" d="M44.661,62.006l5.766-5.766c0.5-0.5,1.311-0.5,1.811,0l5.766,5.766"/>
<polyline fill="#6CC04A" points="75.717,73.514 69.045,66.843 75.717,60.171 "/>
<path fill="#FFFBF4" d="M57.076,62.006l5.995-5.995c0.374-0.374,0.98-0.374,1.354,0l5.995,5.995"/>
<path fill="#FFFBF4" d="M43.733,60.171l6.07-6.07c0.333-0.333,0.872-0.333,1.205,0l6.07,6.07"/>
<path fill="#FFFBF4" d="M50.714,59.421l5.561-8.294c0.407-0.407,1.066-0.407,1.473,0l4.761,7.95"/>
<path fill="#FFFBF4" d="M54.885,60.491l6.362-6.362c0.171-0.171,0.449-0.171,0.621,0l6.362,6.362"/>
<circle fill="#FFFBF4" cx="51.717" cy="48.483" r="2.005"/>
</svg>
