<?xml version="1.0" encoding="utf-8"?>
<!-- Generator: Adobe Illustrator 21.1.0, SVG Export Plug-In . SVG Version: 6.00 Build 0)  -->
<svg version="1.1" id="Layer_1" xmlns:sketch="http://www.bohemiancoding.com/sketch/ns"
	 xmlns="http://www.w3.org/2000/svg" xmlns:xlink="http://www.w3.org/1999/xlink" x="0px" y="0px" width="113px" height="106px"
	 viewBox="0 0 113 106" style="enable-background:new 0 0 113 106;" xml:space="preserve">
<style type="text/css">
	.st0{clip-path:url(#SVGID_2_);fill:#EA7167;}
	.st1{clip-path:url(#SVGID_4_);fill:#FFFFFF;}
	.st2{enable-background:new    ;}
	.st3{fill:#FFFFFF;}
</style>
<g>
	<g>
		<g>
			<g>
				<defs>
					<rect id="SVGID_1_" x="0.1" width="112.9" height="106"/>
				</defs>
				<clipPath id="SVGID_2_">
					<use xlink:href="#SVGID_1_"  style="overflow:visible;"/>
				</clipPath>
				<polygon class="st0" points="1.5,53.6 1.5,1.4 111.7,1.4 111.6,53.3 56.1,104.1 				"/>
			</g>
		</g>
		<g>
			<g>
				<defs>
					<rect id="SVGID_3_" x="0.1" width="112.9" height="106"/>
				</defs>
				<clipPath id="SVGID_4_">
					<use xlink:href="#SVGID_3_"  style="overflow:visible;"/>
				</clipPath>
				<path class="st1" d="M113,0H0.2v54.2l56,51.8L113,53.9V0L113,0L113,0z M110.3,2.7v50l-54.2,49.6L2.8,53V2.7H110.3"/>
			</g>
		</g>
	</g>
</g>
<g class="st2">
	<path class="st3" d="M48,40.7c0.5-1,0.9-2,1.4-3c-5.2-1.7-8.1-5.6-8.1-10.4c0-4.2,2.3-7.6,5.3-9.3l3.1,4.5c-0.1,0-2.9,1.2-2.9,4.9
		c0,0.9,0.3,4.3,4.6,5.6c3.6-9,7.7-17.7,15.9-17.7c3.7,0,7.3,2.7,7.3,7.8c0,3.7-2.1,8.4-6.5,11.7c-2.8,2.1-6.9,3.9-12.7,3.8
		c-0.7,2-1.6,4.2-2.7,6.1c2.3,2.1,6.3,5.7,8.3,7.4c2,1.5,3,2,4.1,2c1.7,0,3.4-1,5.4-2.9l3.7,4.1c-2.9,2.8-6.2,4.2-8.9,4.2
		c-2.7,0-4.9-1.3-7.4-3.2c-2.4-1.9-4.5-4-8.3-7.4c-1.8,1.8-4.1,2.9-7.2,2.9c-5.4,0-7.4-3.6-7.4-6.4c0-2.9,2.2-6.8,7-6.8
		C44.4,38.6,46.2,39.4,48,40.7z M45.3,45c-1.3-1.2-2.4-1.7-3.3-1.7c-1.2,0-2,0.9-2,1.9s0.9,1.7,2,1.7S44.3,46.1,45.3,45z M57.5,33.2
		c3.1-0.3,5.4-1.5,7-2.9c2.7-2.3,3.6-5.2,3.6-6.6c0-1.4-0.6-2.1-1.9-2.1C63.4,21.6,60.5,26,57.5,33.2z"/>
</g>
<g class="st2">
	<path class="st3" d="M38.9,69.6c0,0.9-0.6,1.3-1.4,1.3c-0.9,0-1.4-0.4-1.4-1.3v-1.1c0-0.9,0.6-1.3,1.4-1.3c0.9,0,1.4,0.4,1.4,1.3
		V69.6z M38.1,68.6c0-0.4-0.2-0.6-0.6-0.6c-0.4,0-0.6,0.2-0.6,0.6v1.1c0,0.4,0.2,0.6,0.6,0.6c0.4,0,0.6-0.2,0.6-0.6V68.6z"/>
	<path class="st3" d="M40.6,70.2H41v0.7h-1.6v-0.7h0.4V68h-0.4v-0.7h1.1l1.3,2.1V68h-0.4v-0.7H43V68h-0.4v2.9h-0.7l-1.3-2.1V70.2z"
		/>
	<path class="st3" d="M43.7,68h-0.4v-0.7h2.9v1.1h-0.8V68h-0.9v0.7h1.1v0.7h-1.1v0.8h0.9v-0.5h0.8v1.1h-2.9v-0.7h0.4V68z"/>
	<path class="st3" d="M46.4,69.2h1.2v0.6h-1.2V69.2z"/>
	<path class="st3" d="M50.8,69.6c0,0.9-0.6,1.3-1.4,1.3c-0.9,0-1.4-0.4-1.4-1.3v-1.1c0-0.9,0.6-1.3,1.4-1.3c0.9,0,1.4,0.4,1.4,1.3
		V69.6z M50.1,68.6c0-0.4-0.2-0.6-0.6-0.6c-0.4,0-0.6,0.2-0.6,0.6v1.1c0,0.4,0.2,0.6,0.6,0.6c0.4,0,0.6-0.2,0.6-0.6V68.6z"/>
	<path class="st3" d="M53.1,70.9h-1.8v-0.7h0.4V68h-0.4v-0.7h2.9v1.1h-0.8V68h-0.9v0.8h1.1v0.7h-1.1v0.7h0.6V70.9z"/>
	<path class="st3" d="M56.3,70.9h-1.8v-0.7H55V68h-0.4v-0.7h2.9v1.1h-0.8V68h-0.9v0.8h1.1v0.7h-1.1v0.7h0.6V70.9z"/>
	<path class="st3" d="M59.8,68h-0.4v-0.7h1.9c0.6,0,1,0.3,1,0.9c0,0.4-0.2,0.7-0.5,0.8c0.3,0.1,0.5,0.4,0.5,0.8c0,0.6-0.4,0.9-1,0.9
		h-2v-0.7h0.4V68z M60.6,68.8h0.6c0.3,0,0.4-0.1,0.4-0.4S61.4,68,61.2,68h-0.6V68.8z M60.6,70.2h0.6c0.2,0,0.4-0.1,0.4-0.4
		s-0.1-0.4-0.4-0.4h-0.6V70.2z"/>
	<path class="st3" d="M62.8,67.3h1.9c0.7,0,1.2,0.3,1.2,1.1c0,0.6-0.3,0.9-0.7,1l0.4,0.7h0.5v0.7h-1l-0.8-1.3H64v0.7h0.4v0.7h-1.6
		v-0.7h0.4V68h-0.4V67.3z M64,68.9h0.7c0.3,0,0.4-0.1,0.4-0.4S64.9,68,64.7,68H64V68.9z"/>
	<path class="st3" d="M66.8,68h-0.4v-0.7h2.9v1.1h-0.8V68h-0.9v0.7h1.1v0.7h-1.1v0.8h0.9v-0.5h0.8v1.1h-2.9v-0.7h0.4V68z"/>
	<path class="st3" d="M72.8,67.3h1.5V68H74l-0.7,2.9h-0.9l-0.5-2.1l-0.5,2.1h-0.9L69.8,68h-0.3v-0.7H71V68h-0.4l0.4,1.9l0.5-2.6h0.8
		l0.5,2.6l0.4-1.9h-0.4V67.3z"/>
</g>
</svg>
