<?xml version="1.0" encoding="utf-8"?>
<!-- Generator: Adobe Illustrator 21.1.0, SVG Export Plug-In . SVG Version: 6.00 Build 0)  -->
<svg version="1.1" id="Layer_1" xmlns:sketch="http://www.bohemiancoding.com/sketch/ns"
	 xmlns="http://www.w3.org/2000/svg" xmlns:xlink="http://www.w3.org/1999/xlink" x="0px" y="0px" width="113px" height="106px"
	 viewBox="0 0 113 106" style="enable-background:new 0 0 113 106;" xml:space="preserve">
<style type="text/css">
	.st0{fill:#043673;}
	.st1{fill:#D5A619;}
	.st2{fill:none;stroke:#043673;stroke-width:3;stroke-miterlimit:10;}
	.st3{fill:none;stroke:#043673;stroke-width:2;stroke-miterlimit:10;}
	.st4{fill:none;stroke:#D5A619;stroke-width:0.75;stroke-miterlimit:10;}
	.st5{fill:none;stroke:#043673;stroke-width:5;stroke-miterlimit:10;}
	.st6{fill:none;}
</style>
<title>sunlight park</title>
<desc>Created with Sketch.</desc>
<g>
	<polygon class="st0" points="1.8,53.4 1.8,1.8 111.2,1.8 111.2,53.1 56.1,103.5 	"/>
	<path class="st1" d="M3.6,52.6V3.7h105.8l0,48.6l-53.3,48.8L3.6,52.6z M0,0v54.1l56,51.8L113,53.9l0-16.6V0H0z"/>
	<path class="st1" d="M40.2,44.1l-8.7,6.4C19,59.7,48.8,64.7,48.8,64.7c15.9,2.9,26.8-13.3,26.8-13.3c-3.1,0.4-10.3-26.3-8-3.5
		c0.6,6-8.5-0.3-12.3-1.2C44.1,44.2,40.2,44.1,40.2,44.1"/>
	<path class="st1" d="M79.8,37.5C80,30.8,73.7,24,66.7,22.2c-1.1-0.3-4.6-0.3-4.6-0.3s-11,1-13.6,2.1c-3.2,1.4-5,4.5-8.2,11.4
		c-0.9,2,0,8.8,0,8.8l20.3,5.2l13.3,2.6c0,0,6.1,0,5.6-4.5C79.4,45.5,79.7,40.1,79.8,37.5"/>
	<path class="st2" d="M38.1,39.8c1.9,14.6,43.4,12.8,44.4,4.4"/>
	<path class="st3" d="M62.3,24.6c0,0-13.9,5.6-13.8,25.8"/>
	<path class="st3" d="M62.3,24.6c0,0,16.1,5.3,14.9,27.5"/>
	<path class="st3" d="M62.3,24.6c0,0-15.4-4.9-22.9,5.1"/>
	<path class="st3" d="M62.3,24.6c0,0,10.3-5.4,18,2"/>
	<path class="st0" d="M64.4,24.7c0,0.6-1,1-2.2,1c-1.2,0-2.2-0.5-2.2-1c0-0.6,1-1.2,2.2-1.2C63.5,23.4,64.4,24.1,64.4,24.7"/>
	<path class="st4" d="M64.4,24.7c0,0.6-1,1-2.2,1c-1.2,0-2.2-0.5-2.2-1c0-0.6,1-1.2,2.2-1.2C63.5,23.4,64.4,24.1,64.4,24.7z"/>
	<path class="st5" d="M79.8,48.8C41.4,60,36.4,40,36.4,40"/>
	<path class="st3" d="M38.2,39.6c1.8,14.6,37.4,11.8,41.6,7.1"/>
	<polygon class="st0" points="38.1,36.9 36.4,45 39.4,44.5 39.8,37.5 	"/>
	<polygon class="st0" points="84.5,41.2 81.3,47.5 78.3,46.6 82.2,40.7 	"/>
	<path class="st0" d="M63.9,35.9c0,0.5-0.5,0.9-1.2,0.9c-0.7,0-1.2-0.4-1.2-0.9c0-0.5,0.5-0.9,1.2-0.9C63.4,35,63.9,35.4,63.9,35.9"
		/>
	<path class="st0" d="M49.1,29.4c0,0.3-0.4,0.6-0.9,0.6c-0.5,0-0.9-0.3-0.9-0.6c0-0.3,0.4-0.6,0.9-0.6C48.6,28.8,49.1,29,49.1,29.4"
		/>
	<rect x="0" y="0" class="st6" width="113" height="106"/>
</g>
</svg>
