<?xml version="1.0" encoding="utf-8"?>
<!-- Generator: Adobe Illustrator 21.1.0, SVG Export Plug-In . SVG Version: 6.00 Build 0)  -->
<svg version="1.1" id="Layer_1" xmlns:sketch="http://www.bohemiancoding.com/sketch/ns"
	 xmlns="http://www.w3.org/2000/svg" xmlns:xlink="http://www.w3.org/1999/xlink" x="0px" y="0px" width="113px" height="106px"
	 viewBox="0 0 113 106" style="enable-background:new 0 0 113 106;" xml:space="preserve">
<style type="text/css">
	.st0{fill:#97D700;}
	.st1{fill:#B02B3B;}
	.st2{fill:#B02B3B;stroke:#97D700;stroke-width:2;stroke-miterlimit:10;}
	.st3{fill:#97D700;stroke:#B02B3B;stroke-width:4;stroke-miterlimit:10;}
	.st4{fill:none;stroke:#B02B3B;stroke-width:2;stroke-miterlimit:10;}
	.st5{fill:none;stroke:#B02B3B;stroke-width:3;stroke-miterlimit:10;}
	.st6{fill:none;stroke:#97D700;stroke-width:2;stroke-miterlimit:10;}
	.st7{fill:#97D700;stroke:#97D700;stroke-miterlimit:10;}
</style>
<g>
	<polygon class="st0" points="1.4,53.4 1.4,1.3 111.5,1.3 111.5,53.2 56,104 	"/>
	<path class="st1" d="M110,2.8l0,49.7l-54,49.4L2.9,52.8v-50H110 M113-0.2H-0.1v54.3L56,106l57-52.2L113-0.2L113-0.2z"/>
</g>
<path class="st2" d="M56.1,71.1c-13.7,0.1-24.9-11.3-25-25.3s11-25.6,24.7-25.6c13.7-0.1,24.9,11.3,25,25.3S69.8,71,56.1,71.1z"/>
<path class="st3" d="M56,24.9c11.2-0.1,20.3,9.2,20.3,20.6s-8.9,20.8-20.1,20.9"/>
<line class="st4" x1="55.2" y1="45.7" x2="75.1" y2="45.5"/>
<line class="st4" x1="56.1" y1="46.6" x2="70.6" y2="61.3"/>
<line class="st4" x1="56.1" y1="44.7" x2="70.5" y2="29.8"/>
<path class="st1" d="M55.2,40.1c3,0,5.4,2.5,5.4,5.5s-2.4,5.6-5.4,5.6"/>
<line class="st5" x1="56.7" y1="69.1" x2="56.3" y2="22.3"/>
<line class="st6" x1="55.4" y1="73.1" x2="55" y2="18.2"/>
<path class="st7" d="M55.1,23.1c-0.4,1.7-3.2,2.5-6.3,1.8c-3.1-0.8-5.2-2.8-4.8-4.5s3.2-2.5,6.3-1.8S55.5,21.4,55.1,23.1z"/>
<path class="st0" d="M36.4,45c-0.6,9.7,6.4,16.2,6.4,16.2s-4.9-5.8-4.3-15.6c0.6-9.7,7.2-12.3,6.5-14.1C43.9,28.2,37,35.3,36.4,45z"
	/>
</svg>
