<?xml version="1.0" encoding="utf-8"?>
<!-- Generator: Adobe Illustrator 21.1.0, SVG Export Plug-In . SVG Version: 6.00 Build 0)  -->
<svg version="1.1" id="Layer_1" xmlns:sketch="http://www.bohemiancoding.com/sketch/ns"
	 xmlns="http://www.w3.org/2000/svg" xmlns:xlink="http://www.w3.org/1999/xlink" x="0px" y="0px" width="113px" height="106px"
	 viewBox="0 0 113 106" style="enable-background:new 0 0 113 106;" xml:space="preserve">
<style type="text/css">
	.st0{clip-path:url(#SVGID_2_);fill:#F47920;}
	.st1{clip-path:url(#SVGID_2_);fill:#FFD600;}
	.st2{fill:#FFD600;}
	.st3{fill:#F47920;}
	.st4{clip-path:url(#SVGID_4_);fill:none;stroke:#F47920;stroke-miterlimit:10;}
	.st5{clip-path:url(#SVGID_4_);fill:none;stroke:#FFD600;stroke-width:5;stroke-miterlimit:10;}
	.st6{fill:none;stroke:#FFD600;stroke-miterlimit:10;}
</style>
<g>
	<g>
		<defs>
			<rect id="SVGID_1_" x="0.1" y="0" width="112.9" height="106"/>
		</defs>
		<clipPath id="SVGID_2_">
			<use xlink:href="#SVGID_1_"  style="overflow:visible;"/>
		</clipPath>
		<polygon class="st0" points="1.5,53.6 1.5,1.4 111.7,1.4 111.6,53.3 56.1,104.1 1.5,53.6 		"/>
		<path class="st1" d="M113,0H0.2v54.2l56,51.8L113,53.9L113,0L113,0L113,0z M110.3,2.7l0,50l-54.2,49.6L2.8,53V2.7H110.3"/>
	</g>
	<path class="st2" d="M49.5,20.6L48,19.4c-4.2,1.4-7.8,3.9-10.7,7.1l0.4,1.3l-1.2-0.3c-3.5,4.3-5.6,9.7-5.8,15.6l1.5,0.9l-1.5,0.9
		c0.2,5.8,2.2,11.1,5.6,15.3l1.5-0.4l-0.4,1.6c3.1,3.4,7,6,11.5,7.4l1.5-1.1l0.2,1.6c1.8,0.4,3.7,0.7,5.7,0.7V53.3
		c-5.1,0-9.3-4.2-9.3-9.5c0-5.2,4.2-9.5,9.3-9.5V18c-2.1,0-4.2,0.3-6.2,0.8L49.5,20.6L49.5,20.6z"/>
	<path class="st3" d="M33.7,43.8c1.8-0.1,3.6-0.2,5.4-0.3c0.9,0,1.8-0.2,2.7-0.1c0.9,0.1,1.8,0.2,2.7,0.4c0,0,0,0,0,0.1c0,0,0,0,0,0
		c-0.9,0.3-1.8,0.3-2.7,0.4c-0.9,0.1-1.8-0.1-2.7-0.1C37.3,44.1,35.5,44,33.7,43.8C33.7,43.9,33.7,43.9,33.7,43.8
		C33.7,43.8,33.7,43.8,33.7,43.8L33.7,43.8z"/>
	<path class="st3" d="M38.8,58.5c1.2-1.4,2.4-2.8,3.6-4.1c0.6-0.7,1.2-1.4,1.8-2c0.7-0.6,1.4-1.2,2.2-1.7c0,0,0.1,0,0.1,0
		c0,0,0,0,0,0c-0.5,0.8-1,1.5-1.6,2.2c-0.6,0.7-1.3,1.3-2,1.9C41.6,56.1,40.2,57.3,38.8,58.5C38.8,58.5,38.8,58.5,38.8,58.5
		C38.8,58.5,38.8,58.5,38.8,58.5L38.8,58.5z"/>
	<path class="st3" d="M47.8,56c-0.3,0.7-0.6,1.4-1,2.1c-0.2,0.3-0.3,0.7-0.5,1c-0.3,0.3-0.5,0.6-1,0.8c0,0-0.1,0-0.1,0c0,0,0,0,0,0
		c0-0.5,0.1-0.8,0.3-1.2c0.1-0.4,0.5-0.6,0.7-0.9C46.7,57.1,47.2,56.6,47.8,56C47.7,56,47.7,56,47.8,56C47.8,56,47.8,56,47.8,56
		L47.8,56z"/>
	<path class="st3" d="M48,30.3c-0.5-0.6-1.1-1.1-1.6-1.7c-0.3-0.3-0.6-0.5-0.7-0.9c-0.2-0.3-0.3-0.7-0.3-1.2c0,0,0-0.1,0.1-0.1
		c0,0,0,0,0,0c0.4,0.2,0.7,0.4,1,0.7c0.3,0.3,0.4,0.7,0.6,1C47.3,28.8,47.7,29.5,48,30.3C48,30.2,48,30.3,48,30.3
		C48,30.3,48,30.3,48,30.3L48,30.3z"/>
	<path class="st3" d="M42.8,48c-0.7,0.4-1.3,0.8-2,1.1c-0.3,0.2-0.7,0.4-1,0.5c-0.4,0.1-0.8,0.1-1.2,0c0,0,0,0,0-0.1c0,0,0,0,0,0
		c0.3-0.4,0.6-0.6,0.9-0.8c0.3-0.2,0.7-0.2,1.1-0.3C41.3,48.3,42,48.1,42.8,48C42.8,47.9,42.8,48,42.8,48C42.8,48,42.8,48,42.8,48
		L42.8,48z"/>
	<path class="st3" d="M42.9,39.8c-0.7-0.2-1.5-0.4-2.2-0.6C40.4,39,40,39,39.6,38.8c-0.3-0.2-0.6-0.5-0.9-0.8c0,0,0-0.1,0-0.1
		c0,0,0,0,0,0c0.4-0.1,0.8,0,1.2,0.1c0.4,0.1,0.7,0.4,1,0.5C41.7,38.9,42.3,39.3,42.9,39.8C43,39.7,43,39.7,42.9,39.8
		C43,39.8,43,39.8,42.9,39.8L42.9,39.8z"/>
	<path class="st3" d="M38.9,28.5c1.4,1.2,2.7,2.4,4,3.7c0.7,0.6,1.4,1.2,2,1.9c0.6,0.7,1.2,1.4,1.6,2.2c0,0,0,0.1,0,0.1c0,0,0,0,0,0
		c-0.8-0.5-1.5-1-2.2-1.7c-0.7-0.6-1.2-1.3-1.8-2C41.2,31.3,40,30,38.9,28.5C38.8,28.6,38.8,28.5,38.9,28.5
		C38.8,28.5,38.9,28.5,38.9,28.5L38.9,28.5z"/>
	<path class="st3" d="M50,21.5c0.7,1.7,1.3,3.4,1.9,5.1c0.3,0.9,0.7,1.7,0.9,2.6c0.2,0.9,0.4,1.8,0.4,2.7c0,0,0,0,0,0c0,0,0,0,0,0
		c-0.5-0.8-0.9-1.6-1.2-2.5c-0.3-0.9-0.5-1.8-0.7-2.6C50.7,25.1,50.3,23.3,50,21.5C49.9,21.5,49.9,21.5,50,21.5
		C49.9,21.5,50,21.5,50,21.5L50,21.5z"/>
	<path class="st3" d="M50.2,65.4c0.2-1.8,0.4-3.6,0.6-5.5c0.1-0.9,0.2-1.8,0.4-2.7c0.2-0.9,0.5-1.8,0.9-2.6c0,0,0,0,0.1,0
		c0,0,0,0,0,0c0.1,0.9,0,1.9-0.1,2.8c-0.1,0.9-0.4,1.8-0.6,2.7C51.2,61.9,50.8,63.6,50.2,65.4C50.3,65.4,50.3,65.5,50.2,65.4
		C50.3,65.4,50.2,65.4,50.2,65.4L50.2,65.4z"/>
	<g>
		<defs>
			<rect id="SVGID_3_" x="0.1" y="0" width="112.9" height="106"/>
		</defs>
		<clipPath id="SVGID_4_">
			<use xlink:href="#SVGID_3_"  style="overflow:visible;"/>
		</clipPath>
		<line class="st4" x1="56" y1="16.4" x2="56" y2="70.5"/>
		<path class="st5" d="M57.3,67.2c12.7,0,23-10.5,23-23.4S70,20.5,57.3,20.5"/>
	</g>
	<path class="st6" d="M57.3,63.1c10.5,0,19-8.6,19-19.3c0-10.6-8.5-19.3-19-19.3"/>
	<path class="st2" d="M60.9,60.5c0.6-0.1,0.9-1.5,0.7-3.1c-0.2-1.6-0.9-2.8-1.5-2.7c-0.6,0.1-0.9,1.5-0.7,3.1
		C59.7,59.4,60.3,60.6,60.9,60.5L60.9,60.5z"/>
	<path class="st2" d="M64.4,60c0.6-0.2,0.7-1.6,0.3-3.2c-0.4-1.6-1.3-2.6-1.9-2.4c-0.6,0.2-0.7,1.6-0.3,3.2
		C63,59.1,63.8,60.2,64.4,60L64.4,60z"/>
	<path class="st2" d="M62.9,52.9c0.5-0.4,0.2-1.6-0.6-2.9c-0.9-1.2-2-1.9-2.5-1.6c-0.5,0.4-0.2,1.6,0.7,2.9
		C61.3,52.6,62.4,53.3,62.9,52.9L62.9,52.9z"/>
	<path class="st2" d="M66,49c0.3-0.6-0.6-1.6-1.9-2.2c-1.3-0.7-2.6-0.8-2.9-0.2c-0.3,0.6,0.6,1.6,1.9,2.2C64.5,49.4,65.8,49.5,66,49
		L66,49z"/>
	<path class="st2" d="M67,43.9c0-0.6-1.2-1.1-2.7-1.1c-1.5,0-2.7,0.5-2.7,1.1c0,0.6,1.2,1.1,2.7,1.1C65.8,45,67,44.5,67,43.9
		L67,43.9z"/>
	<path class="st2" d="M65.9,38.9c-0.3-0.6-1.6-0.5-2.9,0.1c-1.3,0.6-2.2,1.6-2,2.2c0.3,0.6,1.6,0.5,2.9-0.1
		C65.2,40.4,66.1,39.4,65.9,38.9L65.9,38.9z"/>
	<path class="st2" d="M63.4,35.1c-0.5-0.4-1.6,0.2-2.6,1.3c-1,1.1-1.4,2.4-0.9,2.8c0.5,0.4,1.6-0.2,2.6-1.3
		C63.4,36.8,63.8,35.5,63.4,35.1L63.4,35.1z"/>
	<path class="st2" d="M70.6,54.4c0.5-0.4,0.1-1.8-0.9-3c-1-1.2-2.1-1.9-2.6-1.4c-0.5,0.4-0.1,1.8,0.9,3C69,54.2,70.2,54.9,70.6,54.4
		L70.6,54.4z"/>
	<path class="st2" d="M69.1,41.8c0.1,0.7,1.3,1,2.8,0.8c1.5-0.2,2.6-1,2.5-1.6c-0.1-0.7-1.3-1-2.8-0.8C70.1,40.4,69,41.1,69.1,41.8
		L69.1,41.8z"/>
	<path class="st2" d="M66.9,36.1c0.4,0.5,1.6,0.1,2.8-1c1.1-1.1,1.7-2.3,1.3-2.8c-0.4-0.5-1.6-0.1-2.8,1
		C67.1,34.3,66.5,35.6,66.9,36.1L66.9,36.1z"/>
	<path class="st2" d="M68.1,57.6c0.5-0.4,0.2-1.8-0.7-3.1c-0.9-1.3-2-2.1-2.5-1.7c-0.5,0.4-0.2,1.8,0.6,3.1
		C66.5,57.2,67.6,58,68.1,57.6L68.1,57.6z"/>
	<path class="st2" d="M68.5,47.8c-0.3,0.6,0.6,1.7,1.9,2.4c1.3,0.7,2.6,0.9,2.9,0.3c0.3-0.6-0.6-1.7-1.9-2.4
		C70.1,47.3,68.8,47.2,68.5,47.8L68.5,47.8z"/>
	<path class="st2" d="M74.6,45.1c0-0.7-1.2-1.2-2.7-1.1c-1.5,0.1-2.7,0.7-2.6,1.3c0,0.7,1.2,1.2,2.7,1.1
		C73.4,46.3,74.6,45.7,74.6,45.1L74.6,45.1z"/>
	<path class="st2" d="M68.4,38.8c0.3,0.6,1.6,0.4,2.9-0.4c1.3-0.8,2.1-1.9,1.8-2.5c-0.3-0.6-1.6-0.4-2.9,0.4
		C68.9,37.1,68.1,38.2,68.4,38.8L68.4,38.8z"/>
	<path class="st2" d="M64.4,33.8c0.5,0.4,1.6-0.2,2.6-1.4c1-1.2,1.4-2.6,0.9-3c-0.5-0.4-1.6,0.2-2.6,1.4
		C64.3,32,63.9,33.4,64.4,33.8L64.4,33.8z"/>
	<path class="st2" d="M62.5,33.5c0.6,0.1,1.3-1.1,1.6-2.7c0.3-1.6,0-3-0.6-3.1c-0.6-0.1-1.3,1.1-1.6,2.7
		C61.7,32,61.9,33.4,62.5,33.5L62.5,33.5z"/>
	<path class="st2" d="M60,33.1c0.6,0,1.1-1.3,1.1-2.9c0-1.6-0.5-2.9-1.1-2.9c-0.6,0-1.1,1.3-1.1,2.9C58.8,31.8,59.3,33.1,60,33.1
		L60,33.1z"/>
</g>
</svg>
