<?xml version="1.0" encoding="utf-8"?>
<!-- Generator: Adobe Illustrator 21.1.0, SVG Export Plug-In . SVG Version: 6.00 Build 0)  -->
<svg version="1.1" id="Layer_1" xmlns:sketch="http://www.bohemiancoding.com/sketch/ns"
	 xmlns="http://www.w3.org/2000/svg" xmlns:xlink="http://www.w3.org/1999/xlink" x="0px" y="0px" width="113px" height="106px"
	 viewBox="0 0 113 106" style="enable-background:new 0 0 113 106;" xml:space="preserve">
<style type="text/css">
	.st0{fill:#F48173;stroke:#981E32;stroke-width:4;stroke-miterlimit:10;}
	.st1{fill:#981E32;stroke:#F48173;stroke-width:2;stroke-miterlimit:10;}
	.st2{fill:#981E32;stroke:#F48173;stroke-width:3;stroke-miterlimit:10;}
	.st3{fill:none;stroke:#F48173;stroke-width:2;stroke-miterlimit:10;}
	.st4{fill:#F48173;}
	.st5{fill:#981E32;stroke:#F48173;stroke-miterlimit:10;}
</style>
<polygon class="st0" points="1.6,2 110.9,2 110.9,53.6 55.8,103.4 1.6,53.8 "/>
<ellipse transform="matrix(1 -5.986537e-03 5.986537e-03 1 -0.2663 0.3371)" class="st1" cx="56.2" cy="44.6" rx="24.8" ry="24.8"/>
<path class="st2" d="M56,24.5c11.1-0.1,20.2,8.9,20.3,20.1s-8.9,20.2-20.1,20.3"/>
<line class="st3" x1="55.3" y1="44.7" x2="75.1" y2="44.5"/>
<line class="st3" x1="56.1" y1="45.5" x2="70.7" y2="59.9"/>
<line class="st3" x1="56.2" y1="43.7" x2="70.5" y2="29.2"/>
<path class="st4" d="M55.2,39.3c3,0,5.4,2.4,5.4,5.4c0,3-2.4,5.4-5.4,5.4"/>
<line class="st3" x1="56.3" y1="71.3" x2="56" y2="18"/>
<path class="st5" d="M72.8,67.3c0,1.7-1.6,3-3.6,3s-3.6-1.4-3.6-3c0-1.7,3.6-7.9,3.6-7.9S72.8,65.6,72.8,67.3z"/>
<ellipse transform="matrix(0.2341 -0.9722 0.9722 0.2341 17.7895 65.3763)" class="st4" cx="50.4" cy="21.4" rx="3.1" ry="5.7"/>
<path class="st4" d="M36.5,44c-0.6,9.5,6.4,15.8,6.4,15.8s-4.9-5.7-4.3-15.1s7.1-11.9,6.5-13.8C44,27.7,37.1,34.6,36.5,44z"/>
</svg>
