<?xml version="1.0" encoding="utf-8"?>
<!-- Generator: Adobe Illustrator 21.1.0, SVG Export Plug-In . SVG Version: 6.00 Build 0)  -->
<svg version="1.1" id="Layer_1" xmlns:sketch="http://www.bohemiancoding.com/sketch/ns"
	 xmlns="http://www.w3.org/2000/svg" xmlns:xlink="http://www.w3.org/1999/xlink" x="0px" y="0px" width="113px" height="106px"
	 viewBox="0 0 113 106" style="enable-background:new 0 0 113 106;" xml:space="preserve">
<style type="text/css">
	.st0{fill:#382728;}
	.st1{fill:#EE483E;}
	.st2{fill:#F3E4B2;}
	.st3{fill:none;stroke:#F3E4B2;stroke-width:0.8932;stroke-miterlimit:10;}
</style>
<title>sunlight park</title>
<desc>Created with Sketch.</desc>
<g>
	<polygon class="st0" points="2.1,52.4 2.1,1.2 111.8,1.2 111.7,52.2 56.5,102 	"/>
	<path class="st1" d="M110.4,2.6l0,49l-53.9,48.6l-53-48.4V2.6H110.4 M113.1-0.1H0.8V53l55.7,50.8l56.6-51L113.1-0.1L113.1-0.1z"/>
</g>
<g>
	<ellipse class="st2" cx="56.1" cy="43" rx="24.6" ry="25.8"/>
</g>
<polygon class="st2" points="76.6,36.1 77.8,36.8 77,38.4 "/>
<path class="st0" d="M56.1,18.7c-13.4,0-24.2,10.9-24.2,24.2c0,1,0.4,1.1,0.7,1.9c0.7,1.6,2.5,1.4,3.5-0.2l0-3.9c0-1,0.8-2,1.8-2.1
	c1.2-0.1,2.2,0.8,2.2,2l0,7.9c0,1.3,0.9,2.5,2.2,2.9l0.1,0c2,0.5,3.9-1,3.9-3l0-7.7c0-1,0.8-2,1.8-2.1c1.2-0.1,2.2,0.8,2.2,2l0,6.4
	c0,1.6,1.3,2.9,2.9,3l0.1,0c1.7,0.1,3.1-1.3,3.1-2.9l0-0.6c0-1,0.8-2,1.8-2.1c1.2-0.1,2.2,0.8,2.2,2l0,8.5c0,1.5,1.3,2.7,2.9,2.6
	l0,0c1.1-0.1,2-1.1,2-2.2l0-12.4c0-1,0.8-2,1.8-2.1c1.2-0.1,2.2,0.8,2.2,2l0,6.4c0,1.4,1.4,2.4,2.8,1.9c0,0,0.2,0,0.2,0
	c1-0.4,1.8-1.5,1.8-2.6l-0.1-9.9c0-1,0.8-2,1.8-2.1c1.2-0.1,2.2,0.8,2.2,2l0.2,5c0.3,1.9,2.3,2,2.6,0.3c0.1-0.3,0.1-0.3,0.1-0.6
	C80.3,29.5,69.4,18.7,56.1,18.7z"/>
<path class="st3" d="M56.1,17.6c-13.4,0-24.2,10.7-24.2,24c0,1,0.2,1.8,0.7,2.7c0.9,1.7,3.5,0.9,3.5-0.9l0-3.9c0-1,0.8-2,1.8-2
	c1.2-0.1,2.2,0.8,2.2,1.9l0,7.8c0,1.3,0.9,2.5,2.2,2.8l0.1,0c2,0.5,3.9-0.9,3.9-3l0-7.6c0-1,0.8-2,1.8-2c1.2-0.1,2.2,0.8,2.2,1.9
	l0,6.3c0,1.6,1.3,2.9,2.9,3l0.1,0c1.7,0.1,3.1-1.2,3.1-2.9l0-0.6c0-1,0.8-2,1.8-2c1.2-0.1,2.2,0.8,2.2,1.9l0,8.4
	c0,1.5,1.3,2.7,2.9,2.5l0,0c1.1-0.1,2-1.1,2-2.2l0-12.2c0-1,0.8-2,1.8-2c1.2-0.1,2.2,0.8,2.2,1.9l0,6.3c0,1.4,1.4,2.4,2.8,1.9
	c0,0,0.2,0,0.2,0c1-0.4,1.8-1.5,1.8-2.6l-0.1-9.8c0-1,0.8-2,1.8-2c1.2-0.1,2.2,0.8,2.2,1.9l0,5.4c0,1.7,2.5,2,2.9,0.3
	c0.1-0.3,0.1-0.7,0.1-1.1C80.3,28.3,69.4,17.6,56.1,17.6z"/>
</svg>
