<?xml version="1.0" encoding="utf-8"?>
<!-- Generator: Adobe Illustrator 21.1.0, SVG Export Plug-In . SVG Version: 6.00 Build 0)  -->
<svg version="1.1" id="Layer_1" xmlns:sketch="http://www.bohemiancoding.com/sketch/ns"
	 xmlns="http://www.w3.org/2000/svg" xmlns:xlink="http://www.w3.org/1999/xlink" x="0px" y="0px" width="113px" height="106px"
	 viewBox="0 0 113 106" style="enable-background:new 0 0 113 106;" xml:space="preserve">
<style type="text/css">
	.st0{fill:#484295;}
	.st1{fill:#F78F35;}
	.st2{fill:#FFFBF4;stroke:#FFFBF4;stroke-width:0.8987;stroke-miterlimit:10;}
	.st3{fill:#FFDD00;}
	.st4{fill:#484295;stroke:#F78F35;stroke-width:0.8987;stroke-miterlimit:10;}
	.st5{fill:none;stroke:#F78F35;stroke-width:0.4493;stroke-linecap:round;stroke-miterlimit:10;}
</style>
<title>sunlight park</title>
<desc>Created with Sketch.</desc>
<g>
	<polygon class="st0" points="1.4,53.1 1.4,1.4 111.6,1.4 111.6,52.9 56.1,103.3 	"/>
	<path class="st1" d="M110.3,2.7l0,49.6l-54.2,49.2L2.7,52.5V2.7H110.3 M113,0H0v53.7l56,51.4L113,53.5L113,0L113,0z"/>
</g>
<path class="st2" d="M73.3,67.3"/>
<g>
	<path class="st3" d="M53.6,48.5H39.1c-0.4,0-0.7,0.3-0.6,0.7c0.5,3.9,2.2,7.5,4.7,10.3c0.2,0.3,0.6,0.3,0.9,0l9.9-9.9
		C54.4,49.2,54.1,48.5,53.6,48.5z"/>
	<path class="st3" d="M56.1,44.4V29.3c0-0.4-0.3-0.7-0.7-0.7c-4.2,0.3-8,2.1-11,4.7c-0.3,0.3-0.3,0.7,0,1l10.5,10.5
		C55.3,45.3,56.1,45,56.1,44.4z"/>
	<path class="st1" d="M57.5,29.3c0,2.6,0,11.5,0,15.1c0,0.6,0.7,0.9,1.2,0.5l10.6-10.6c0.3-0.3,0.3-0.7,0-1c-2.9-2.7-6.8-4.4-11-4.7
		C57.8,28.6,57.5,28.9,57.5,29.3z"/>
	<path class="st3" d="M42.5,35.4c-2.5,3-4,6.9-4.1,11c0.2,0.2,0.4,0.4,0.6,0.6l14.6,0c0.5,0,0.8-0.6,0.4-1L43.4,35.4
		C43.1,35.1,42.7,35.1,42.5,35.4z"/>
	<path class="st1" d="M70.3,35.3c-1.7,1.7-8.3,8.3-10.8,10.8c-0.3,0.3-0.1,0.9,0.4,0.9l14.8,0c0.2-0.2,0.3-0.3,0.6-0.6
		c-0.1-4.2-1.6-8.1-4.1-11.1C70.9,35.1,70.5,35.1,70.3,35.3z"/>
	<path class="st3" d="M55.1,50.5l-9.9,9.9c-0.2,0.2-0.2,0.7,0,0.9c2.8,2.3,6.4,3.8,10.2,4c0.3,0,0.6-0.3,0.6-0.6V50.9
		C56.1,50.4,55.4,50.2,55.1,50.5z"/>
	<path class="st1" d="M59.5,49.5l10,10c0.2,0.2,0.6,0.2,0.8,0c2.6-2.8,4.3-6.4,4.8-10.3c0-0.3-0.2-0.6-0.6-0.6H59.9
		C59.4,48.5,59.1,49.1,59.5,49.5z"/>
	<path class="st1" d="M57.5,51.2v13.5c0,0.4,0.3,0.7,0.7,0.7c3.8-0.3,7.3-1.7,10.1-4c0.3-0.2,0.3-0.7,0-1l-9.7-9.7
		C58.2,50.3,57.5,50.6,57.5,51.2z"/>
	<g>
		<path class="st1" d="M56.7,27.2c11,0,19.8,8.9,19.8,19.8s-8.9,19.8-19.8,19.8S36.8,58,36.8,47.1S45.7,27.2,56.7,27.2 M56.7,24.5
			c-12.4,0-22.5,10.1-22.5,22.5s10.1,22.5,22.5,22.5s22.5-10.1,22.5-22.5S69.1,24.5,56.7,24.5L56.7,24.5z"/>
	</g>
</g>
<path class="st0" d="M57.4,71.9c-13.7,0-24.8-11.1-24.8-24.8s11.1-24.8,24.8-24.8"/>
<path class="st1" d="M55.9,22.8L55,18.9c-1.1-1.3-2.4-2.5-3.7-3.5l0.4,2.8l-0.8-3.1c-2-1.6-3.8-2.7-3.8-2.7s-0.2,0.9-0.5,2.3
	l1.4,3.9l-1.6-2.8c-0.2,1.3-0.2,1.8-0.3,3.4l1.5,5.1l-1.8-4c-0.1,2.2,0,4.5,0.8,6.1c2.1,4.5,6.4,6.9,9.6,5.3
	c3.2-1.5,2.6-5.7,0.4-10.2c-0.3-0.7-0.7-1.3-1.3-2L55.9,22.8z"/>
<ellipse class="st4" cx="41.6" cy="36.5" rx="4.7" ry="5.6"/>
<ellipse class="st4" cx="55.2" cy="30.5" rx="4.7" ry="5.6"/>
<ellipse class="st4" cx="47.4" cy="31.9" rx="4.7" ry="5.6"/>
<ellipse class="st4" cx="47.7" cy="41.9" rx="4.7" ry="5.6"/>
<ellipse class="st4" cx="37.5" cy="43" rx="4.7" ry="5.6"/>
<ellipse class="st4" cx="38.4" cy="51.2" rx="4.7" ry="5.6"/>
<ellipse class="st4" cx="55.1" cy="64.8" rx="4.7" ry="5.6"/>
<ellipse class="st4" cx="41.6" cy="55.8" rx="4.7" ry="5.6"/>
<ellipse class="st4" cx="40.8" cy="46.6" rx="4.7" ry="5.6"/>
<ellipse class="st4" cx="55.2" cy="57.5" rx="4.7" ry="5.6"/>
<ellipse class="st4" cx="47.7" cy="61.3" rx="4.7" ry="5.6"/>
<ellipse class="st4" cx="47.4" cy="51.9" rx="5" ry="5.8"/>
<ellipse class="st4" cx="55.2" cy="39.5" rx="4.7" ry="5.6"/>
<ellipse class="st4" cx="55.2" cy="47.5" rx="4.7" ry="5.6"/>
<path class="st5" d="M38.8,43.5c1.2-1.2,3.3-1,4.7,0.4"/>
<path class="st5" d="M38.4,36.3c-0.1-1.6,1.3-3.2,2.8-3.8"/>
<path class="st5" d="M56.8,54.5c1.5,0.7,2.1,2.7,1.3,4.5"/>
<path class="st5" d="M55.1,35.7c1.7,0,3,1.6,3,3.6"/>
<path class="st5" d="M53.6,27.1c0.8-0.9,2.3-0.8,3.4,0.2"/>
</svg>
